<svg width="60" height="30" viewBox="0 0 60 30" fill="none" xmlns="http://www.w3.org/2000/svg">
<rect x="1" y="1" width="58" height="28" rx="14" fill="#FFF8ED" stroke="#152361" stroke-width="2"/>
<path fill-rule="evenodd" clip-rule="evenodd" d="M47.8323 7.84821C47.9875 10.7969 48.2224 15.738 48.2224 17.6928C48.2224 19.9347 46.8935 21.1163 45.6548 21.1163H43.8652C42.3488 21.1163 40.7096 20.554 39.8881 20.1535C39.8187 20.1863 39.7488 20.218 39.6785 20.2487C38.0351 20.9667 36.1305 21.1568 34.6624 21.116C33.9533 21.0963 33.3954 20.8025 32.9646 20.4033C32.8654 20.7405 32.7463 21.0955 32.6109 21.4631C32.2111 22.5481 31.2769 23.3765 30.3751 23.9773C29.4535 24.5912 28.4466 25.0446 27.7441 25.3362L27.1475 23.899C27.8195 23.62 28.7168 23.2121 29.5124 22.6822C30.3278 22.139 30.9238 21.5409 31.1507 20.9251C31.4145 20.2091 31.5927 19.5949 31.6789 19.1121C31.7723 18.5893 31.731 18.3588 31.7103 18.3105L31.6995 18.2854L31.6905 18.2596L31.6904 18.2593L31.6894 18.2563L31.6847 18.2431L31.6653 18.1886C31.6479 18.1404 31.622 18.0695 31.5887 17.9806C31.5219 17.8025 31.4257 17.5537 31.3084 17.2723C31.0696 16.6992 30.7601 16.031 30.4482 15.5459L31.7572 14.7044C32.1456 15.3086 32.4974 16.0798 32.7449 16.6738C32.8455 16.9153 32.9316 17.1341 32.9988 17.31L33.0146 17.3051C33.2039 17.9108 33.4353 18.5041 33.7445 18.94C34.0445 19.3628 34.3507 19.5506 34.7056 19.5605C35.8724 19.5929 37.286 19.4592 38.5337 19.0262L36.8289 17.5108C36.6072 17.3337 36.2832 17.0274 36.0525 16.6792C35.9358 16.5031 35.8028 16.2571 35.7588 15.9711C35.7094 15.6509 35.7751 15.2679 36.079 14.964C36.354 14.6889 36.8701 14.38 37.4205 14.125C37.9959 13.8584 38.7105 13.6037 39.4384 13.4823C40.1522 13.3634 40.9724 13.3571 41.6877 13.6944C42.4563 14.0567 42.9804 14.7564 43.1538 15.7723L43.1753 15.8983L43.1554 16.0246C42.9445 17.3606 42.3149 18.3693 41.4774 19.1178C42.1784 19.3525 43.063 19.5602 43.8652 19.5602H45.6548C45.8166 19.5602 46.6662 19.3101 46.6662 17.6928C46.6662 15.7883 46.4343 10.8946 46.2783 7.92999L47.8323 7.84821ZM40.0358 18.2794C40.8312 17.7207 41.397 16.9551 41.5957 15.9117C41.485 15.4212 41.2581 15.2123 41.0241 15.1019C40.7183 14.9577 40.2643 14.9223 39.6943 15.0173C39.1384 15.11 38.5595 15.3123 38.0747 15.5369C37.7854 15.671 37.5602 15.7986 37.4058 15.8977C37.524 16.0509 37.6895 16.2081 37.8101 16.3029L37.8287 16.3175L40.0358 18.2794ZM12.0815 12.931C11.4247 13.0514 10.6981 13.2544 10.022 13.5701C8.91259 14.0883 7.78497 14.9903 7.53743 16.4756C7.4051 17.2696 7.6279 17.9482 8.13824 18.443C8.60545 18.896 9.24675 19.1303 9.85514 19.2561C10.7109 19.4332 11.6937 19.4336 12.5491 19.3624C12.6734 19.6173 12.8412 19.8746 13.0606 20.11C13.5592 20.6449 14.3013 21.0383 15.3026 21.0383H16.6365C17.0007 21.0705 17.6632 21.0029 18.3061 20.7059C18.675 20.5355 19.0525 20.2815 19.3668 19.9184C19.4798 20.0946 19.6061 20.2504 19.7475 20.386C20.3546 20.9683 21.0881 21.0383 21.6828 21.0383H24.017C25.1508 21.0383 25.9889 20.467 26.4455 19.6466C26.8831 18.8606 26.9534 17.8871 26.7118 17.0175L26.7101 17.0114L25.6968 13.5818L24.2045 14.0227L25.214 17.4397C25.3595 17.9689 25.2972 18.5101 25.0859 18.8898C24.8928 19.2366 24.5638 19.4822 24.017 19.4822H21.6828C21.1882 19.4822 20.9802 19.4121 20.8247 19.263C20.6423 19.0881 20.399 18.6739 20.221 17.6505C20.3048 17.2379 20.3662 16.9163 20.4102 16.6702C20.4461 16.469 20.4711 16.3148 20.4874 16.2008C20.5008 16.1068 20.5157 15.9931 20.5157 15.9031H18.9595C18.9595 15.8956 18.9596 15.8898 18.9597 15.8861C18.9598 15.8832 18.9598 15.8816 18.9597 15.8816C18.9596 15.8816 18.9594 15.8838 18.9589 15.8885C18.9575 15.9005 18.9543 15.9292 18.9469 15.9807C18.934 16.0709 18.9123 16.206 18.8783 16.3963C18.8103 16.7765 18.6955 17.3638 18.51 18.2298C18.3858 18.8094 18.0381 19.1156 17.6535 19.2932C17.4538 19.3855 17.2481 19.4393 17.0733 19.4668C16.8951 19.4948 16.7891 19.4894 16.7806 19.489L16.7804 19.489C16.7801 19.489 16.78 19.489 16.78 19.489L16.7288 19.4822H15.3026C14.7478 19.4822 14.4135 19.2791 14.1989 19.0489C13.9784 18.8123 13.8618 18.5195 13.822 18.3137L13.5904 11.5193L12.0352 11.5724L12.0815 12.931ZM12.2483 17.8246C11.5446 17.8728 10.7915 17.8608 10.1704 17.7323C9.68822 17.6325 9.38222 17.4816 9.22145 17.3258C9.10383 17.2117 9.018 17.0578 9.0724 16.7314C9.19834 15.9758 9.78247 15.3995 10.6805 14.9801C11.1461 14.7626 11.6548 14.6088 12.1352 14.5065L12.2483 17.8246Z" fill="#152361"/>
<path fill-rule="evenodd" clip-rule="evenodd" d="M50.9434 21.0659L50.4766 7.91654L52.0317 7.86133L52.4986 21.0107L50.9434 21.0659Z" fill="#152361"/>
<circle cx="10.1677" cy="8.51149" r="1.01149" fill="#152361"/>
<circle cx="12.5076" cy="8.51149" r="1.01149" fill="#152361"/>
<circle cx="17.949" cy="23.6062" r="1.01149" fill="#152361"/>
<circle cx="20.4412" cy="23.6062" r="1.01149" fill="#152361"/>
<circle cx="24.6482" cy="23.6062" r="1.01149" fill="#152361"/>
</svg>
