<svg width="20" height="20" viewBox="0 0 20 20" fill="none" xmlns="http://www.w3.org/2000/svg">
<mask id="mask0_15093_115628" style="mask-type:alpha" maskUnits="userSpaceOnUse" x="0" y="0" width="20" height="20">
<path d="M10 19.5C4.7533 19.5 0.5 15.2467 0.5 10C0.5 4.7533 4.7533 0.5 10 0.5C15.2467 0.5 19.5 4.7533 19.5 10C19.5 15.2467 15.2467 19.5 10 19.5Z" fill="#C4C4C4" stroke="#152361"/>
</mask>
<g mask="url(#mask0_15093_115628)">
<path d="M47.5996 0H-2.40039V20H47.5996V0Z" fill="white"/>
<path d="M47.5996 6.66658H-2.40039V19.9999H47.5996V6.66658Z" fill="#00966E"/>
<path d="M47.5996 13.3334H-2.40039V20.0001H47.5996V13.3334Z" fill="#D62612"/>
<rect x="-1.90039" y="0.5" width="49" height="19" stroke="#152361"/>
<path d="M10 19.5C4.7533 19.5 0.5 15.2467 0.5 10C0.5 4.7533 4.7533 0.5 10 0.5C15.2467 0.5 19.5 4.7533 19.5 10C19.5 15.2467 15.2467 19.5 10 19.5Z" stroke="#152361"/>
</g>
</svg>
