<svg width="30" height="30" viewBox="0 0 30 30" fill="none" xmlns="http://www.w3.org/2000/svg">
<mask id="mask0_9235_42323" style="mask-type:alpha" maskUnits="userSpaceOnUse" x="0" y="0" width="30" height="30">
<path d="M1 15C1 7.26801 7.26801 1 15 1C22.732 1 29 7.26801 29 15C29 22.732 22.732 29 15 29C7.26801 29 1 22.732 1 15Z" fill="#C4C4C4" stroke="#152361" stroke-width="2"/>
</mask>
<g mask="url(#mask0_9235_42323)">
<rect x="-5.70312" width="42" height="30" rx="2" fill="white"/>
<mask id="mask1_9235_42323" style="mask-type:alpha" maskUnits="userSpaceOnUse" x="-6" y="0" width="43" height="30">
<rect x="-5.70312" width="42" height="30" rx="2" fill="white"/>
</mask>
<g mask="url(#mask1_9235_42323)">
<path fill-rule="evenodd" clip-rule="evenodd" d="M-5.70312 10H36.2969V0H-5.70312V10Z" fill="#262626"/>
<g filter="url(#filter0_d_9235_42323)">
<path fill-rule="evenodd" clip-rule="evenodd" d="M-5.70312 20.0001H36.2969V10.0001H-5.70312V20.0001Z" fill="#F01515"/>
</g>
<g filter="url(#filter1_d_9235_42323)">
<path fill-rule="evenodd" clip-rule="evenodd" d="M-5.70312 29.9999H36.2969V19.9999H-5.70312V29.9999Z" fill="#FFD521"/>
</g>
</g>
<path d="M-5.70312 0V-2H-7.70312V0H-5.70312ZM36.2969 0H38.2969V-2H36.2969V0ZM36.2969 30V32H38.2969V30H36.2969ZM-5.70312 30H-7.70312V32H-5.70312V30ZM-5.70312 2H36.2969V-2H-5.70312V2ZM34.2969 0V30H38.2969V0H34.2969ZM36.2969 28H-5.70312V32H36.2969V28ZM-3.70312 30V0H-7.70312V30H-3.70312Z" fill="#152361"/>
<path d="M1 15C1 7.26801 7.26801 1 15 1C22.732 1 29 7.26801 29 15C29 22.732 22.732 29 15 29C7.26801 29 1 22.732 1 15Z" stroke="#152361" stroke-width="2"/>
</g>
<defs>
<filter id="filter0_d_9235_42323" x="-5.70312" y="10.0001" width="42" height="10" filterUnits="userSpaceOnUse" color-interpolation-filters="sRGB">
<feFlood flood-opacity="0" result="BackgroundImageFix"/>
<feColorMatrix in="SourceAlpha" type="matrix" values="0 0 0 0 0 0 0 0 0 0 0 0 0 0 0 0 0 0 127 0" result="hardAlpha"/>
<feOffset/>
<feColorMatrix type="matrix" values="0 0 0 0 0 0 0 0 0 0 0 0 0 0 0 0 0 0 0.06 0"/>
<feBlend mode="normal" in2="BackgroundImageFix" result="effect1_dropShadow_9235_42323"/>
<feBlend mode="normal" in="SourceGraphic" in2="effect1_dropShadow_9235_42323" result="shape"/>
</filter>
<filter id="filter1_d_9235_42323" x="-5.70312" y="19.9999" width="42" height="10" filterUnits="userSpaceOnUse" color-interpolation-filters="sRGB">
<feFlood flood-opacity="0" result="BackgroundImageFix"/>
<feColorMatrix in="SourceAlpha" type="matrix" values="0 0 0 0 0 0 0 0 0 0 0 0 0 0 0 0 0 0 127 0" result="hardAlpha"/>
<feOffset/>
<feColorMatrix type="matrix" values="0 0 0 0 0 0 0 0 0 0 0 0 0 0 0 0 0 0 0.06 0"/>
<feBlend mode="normal" in2="BackgroundImageFix" result="effect1_dropShadow_9235_42323"/>
<feBlend mode="normal" in="SourceGraphic" in2="effect1_dropShadow_9235_42323" result="shape"/>
</filter>
</defs>
</svg>
