<svg width="30" height="30" viewBox="0 0 30 30" fill="none" xmlns="http://www.w3.org/2000/svg">
<mask id="mask0_15003_114409" style="mask-type:alpha" maskUnits="userSpaceOnUse" x="0" y="0" width="30" height="30">
<path d="M15 29.5C6.99187 29.5 0.5 23.0081 0.5 15C0.5 6.99187 6.99187 0.5 15 0.5C23.0081 0.5 29.5 6.99187 29.5 15C29.5 23.0081 23.0081 29.5 15 29.5Z" fill="#C4C4C4" stroke="#152361"/>
</mask>
<g mask="url(#mask0_15003_114409)">
<rect width="26" height="26" transform="translate(2 2)" fill="#FEEA28"/>
<path d="M18.6665 7.04399C18.3285 7.40799 18.1465 7.79799 18.2505 7.95399C18.3285 8.10999 18.2765 8.23999 18.1465 8.23999C17.9905 8.23999 17.8605 8.65599 17.8605 9.14999C17.8605 9.64399 17.7045 10.112 17.4705 10.242C17.2365 10.372 17.1845 10.58 17.3145 10.814C17.4965 11.074 17.6525 11.022 18.1205 10.528C18.6665 9.95599 18.6925 9.95599 18.4065 10.502C18.2505 10.814 18.1205 11.386 18.1465 11.802C18.1465 12.4 18.2245 12.296 18.5365 11.308C18.9525 9.92999 19.3945 9.43599 19.2385 10.528L19.1345 11.23L19.5245 10.58C19.7325 10.216 19.9145 9.72199 19.9405 9.48799C19.9405 9.25399 20.0965 9.01999 20.2525 8.96799C20.4345 8.88999 20.5905 8.62999 20.5905 8.34399C20.5905 8.03199 20.7985 7.82399 21.1885 7.77199C21.6825 7.69399 21.7605 7.79799 21.7605 8.57799C21.7605 9.14999 21.6045 9.53999 21.3705 9.64399C21.1625 9.72199 20.9805 9.95599 20.9805 10.19C20.9805 10.398 20.8765 10.58 20.7205 10.58C20.5905 10.58 20.4605 10.762 20.4605 10.97C20.4605 11.178 20.3305 11.36 20.1745 11.36C20.0445 11.36 19.9925 11.464 20.0705 11.62C20.1485 11.75 20.1225 11.88 19.9925 11.88C19.8625 11.88 19.7845 12.426 19.8365 13.102C19.8885 14.116 20.0705 14.48 20.7205 15.052C21.6565 15.91 21.8905 16.95 21.1105 16.95C20.7725 16.95 20.1485 16.274 19.1605 14.87C18.2245 13.544 17.3405 12.582 16.6905 12.218C15.8325 11.724 15.7545 11.62 16.2485 11.62C16.8465 11.62 16.9245 11.412 16.8205 9.85199C16.7945 9.38399 16.9245 8.81199 17.1325 8.57799C17.3405 8.29199 17.3665 8.21399 17.1585 8.31799C16.9245 8.44799 16.8985 8.26599 17.0025 7.64199L17.1325 6.75799L15.6505 6.88799C14.8185 6.96599 13.8565 7.17399 13.4925 7.35599C12.7645 7.71999 12.4525 8.73399 12.9725 9.04599C13.4405 9.33199 13.4405 10.06 12.9985 10.242C12.7645 10.32 12.3745 10.268 12.0885 10.086C11.6725 9.82599 11.4905 9.85199 11.1005 10.19C10.7105 10.528 10.6065 10.554 10.3465 10.216C9.98254 9.79999 9.95654 9.30599 10.2165 8.00599C10.3725 7.19999 10.3465 7.14799 9.82654 7.32999C9.43654 7.43399 9.07254 7.35599 8.73454 7.04399C8.26654 6.62799 8.24054 6.62799 8.21454 7.09599C8.18854 7.35599 8.18854 7.66799 8.21454 7.77199C8.21454 7.87599 7.92854 7.84999 7.56454 7.71999C6.96654 7.48599 6.91454 7.51199 7.09654 8.03199C7.20054 8.36999 7.38254 8.70799 7.53854 8.78599C7.66854 8.88999 7.53854 9.04599 7.22654 9.14999C6.94054 9.22799 6.68054 9.40999 6.68054 9.53999C6.68054 9.85199 7.40854 10.06 7.85054 9.90399C8.31854 9.72199 8.37054 10.216 7.92854 10.398C7.66854 10.502 7.66854 10.606 7.95454 10.788C8.26654 11.022 8.26654 11.126 8.00654 11.464C7.56454 12.01 7.82454 12.348 8.89054 12.556C9.67054 12.686 9.74854 12.764 9.46254 13.206C9.09854 13.778 8.60454 13.856 8.42254 13.362C8.34454 13.206 8.26654 13.31 8.26654 13.596C8.24054 14.48 8.86454 14.844 9.72254 14.428C10.2685 14.168 10.4505 13.908 10.3985 13.44C10.3725 13.05 10.3985 12.972 10.4765 13.232C10.5545 13.492 10.7105 13.7 10.8405 13.7C10.9705 13.7 11.0485 13.934 11.0225 14.194C11.0225 14.48 10.9185 14.662 10.8145 14.584C10.7105 14.532 10.5025 14.688 10.3465 14.922C10.1905 15.182 10.0605 15.312 10.0605 15.208C10.0605 15.104 9.77454 15.13 9.41054 15.26C8.89054 15.442 8.76054 15.416 8.76054 15.13C8.76054 14.922 8.65654 14.74 8.52654 14.74C8.39654 14.74 8.11054 14.662 7.90254 14.584C7.59054 14.48 7.51254 14.61 7.56454 15.13C7.61654 15.598 7.53854 15.78 7.33054 15.676C7.14854 15.624 6.78454 15.78 6.52454 16.066C6.10854 16.534 6.10854 16.56 6.57654 16.586C6.83654 16.612 7.25254 16.612 7.46054 16.586C7.74654 16.56 7.74654 16.612 7.40854 16.82C7.14854 16.976 6.94054 17.366 6.96654 17.678C6.96654 17.99 7.04454 18.094 7.12254 17.912C7.17454 17.756 7.35654 17.678 7.48654 17.756C7.64254 17.834 7.92854 17.756 8.16254 17.548C8.55254 17.262 8.57854 17.262 8.42254 17.652C8.18854 18.328 8.52654 18.224 9.48854 17.34C10.4245 16.508 10.7105 16.352 10.4505 16.872C10.3465 17.054 10.4765 16.976 10.6845 16.716C10.9965 16.326 11.1005 16.3 11.1265 16.586C11.1265 16.794 11.3085 16.586 11.4905 16.17C11.6985 15.728 11.8545 15.572 11.8805 15.78C11.8805 16.092 11.9325 16.118 12.1145 15.806C12.2445 15.624 12.4785 15.52 12.6345 15.624C12.7905 15.728 12.9725 15.52 13.0765 15.13C13.1545 14.792 13.3365 14.558 13.4665 14.636C13.5965 14.714 13.7005 14.61 13.7005 14.402C13.7005 14.194 13.9345 13.96 14.2205 13.882C14.5325 13.804 14.6885 13.856 14.5845 14.012C14.4545 14.194 14.6365 14.246 15.1045 14.116C15.5725 14.012 15.7545 14.038 15.6505 14.22C15.5725 14.35 15.6765 14.558 15.8845 14.636C16.1185 14.714 16.3005 14.974 16.3005 15.182C16.3005 15.39 16.1965 15.494 16.0665 15.39C15.9365 15.312 15.7545 15.364 15.6505 15.494C15.5725 15.65 15.3385 15.702 15.1045 15.598C14.8965 15.52 14.4545 15.702 14.1425 15.988C13.8305 16.274 13.1805 16.586 12.7125 16.638C12.2445 16.716 11.4385 17.132 10.9445 17.6C10.4245 18.042 9.85254 18.354 9.64454 18.276C9.20254 18.12 9.17654 18.432 9.56654 18.822C9.77454 19.03 10.0605 19.056 10.5285 18.874C11.0745 18.666 11.2825 18.692 11.5425 19.082C11.9585 19.602 11.8805 19.94 11.2825 20.304C10.9445 20.512 10.7625 20.512 10.6325 20.304C10.5285 20.148 10.1905 19.862 9.85254 19.706C9.28054 19.394 9.25454 19.42 9.51454 19.914C9.90454 20.616 9.87854 20.98 9.46254 20.98C9.25454 20.98 8.91654 21.188 8.65654 21.448C8.26654 21.916 8.26654 21.942 9.02054 21.89C9.54054 21.864 9.72254 21.942 9.56654 22.124C9.43654 22.28 9.43654 22.644 9.54054 22.93C9.72254 23.424 9.72254 23.424 10.0865 22.852C10.5285 22.15 10.8405 22.098 10.7105 22.8C10.6585 23.086 10.6845 23.32 10.7625 23.32C10.9705 23.32 12.5045 21.656 12.4525 21.448C12.4265 21.344 12.6345 21.318 12.8945 21.37C13.2585 21.422 13.4405 21.266 13.5445 20.824C13.6485 20.486 13.8305 20.2 13.9865 20.2C14.1685 20.2 14.1425 20.356 13.9345 20.642C13.6225 21.006 13.6225 21.058 13.9345 20.954C14.7405 20.668 14.8445 20.044 14.2205 19.238C13.4925 18.224 13.7005 17.86 15.0005 17.86C15.9365 17.86 16.0405 17.938 16.2485 18.692C16.4305 19.42 16.4045 19.55 15.9885 19.628C15.5985 19.706 15.5465 19.81 15.7805 20.07C16.0665 20.408 17.8345 20.408 18.9785 20.044C19.4725 19.888 19.5505 20.252 19.1605 21.006C18.8745 21.526 18.1205 21.708 18.1205 21.24C18.1205 21.084 17.8345 20.98 17.4965 20.98C17.0025 20.98 16.8985 21.084 17.0025 21.5C17.0805 21.786 17.2625 22.02 17.4445 22.02C17.6005 22.02 17.4445 22.176 17.1065 22.358C16.2745 22.774 16.1445 23.216 16.8205 23.398C17.1065 23.476 17.2885 23.45 17.2105 23.346C17.1585 23.242 17.2625 23.138 17.4185 23.138C17.6005 23.138 17.7825 23.372 17.7825 23.658C17.8345 24.334 18.3805 24.906 18.3805 24.282C18.3805 24.048 18.6145 23.736 18.8745 23.606C19.2905 23.372 19.3425 23.398 19.2125 23.892C18.9525 24.906 19.6545 24.126 19.9665 23.034C20.2005 22.332 20.3565 22.098 20.5125 22.332C20.6425 22.566 20.7205 22.514 20.7465 22.15C20.7465 21.864 20.8245 21.786 20.9025 21.942C21.1365 22.566 21.8125 21.526 21.7085 20.72C21.6305 20.278 21.6825 19.94 21.8125 19.94C21.9165 19.94 22.0205 20.2 22.0465 20.512C22.0465 21.11 22.0465 21.11 22.3065 20.486C22.5925 19.732 22.4365 19.16 21.9425 19.16C21.7345 19.16 21.0065 18.926 20.3565 18.614C19.4725 18.224 19.1605 17.964 19.2645 17.678C19.3425 17.47 19.4205 17.158 19.4205 17.002C19.4205 16.82 19.6285 16.95 19.8885 17.288C20.1225 17.6 20.5905 17.912 20.9025 17.964C21.2145 18.042 21.7085 18.224 21.9945 18.38C22.3065 18.536 22.5405 18.562 22.5405 18.458C22.5405 18.354 22.6705 18.432 22.8005 18.64C23.0085 18.978 23.0605 18.978 23.0605 18.588C23.0605 18.354 22.9565 18.094 22.8265 18.016C22.6965 17.912 22.6965 17.522 22.8785 17.08C23.1385 16.43 23.0865 16.144 22.6705 15.364C22.1765 14.454 22.1765 14.428 22.6445 14.064C23.1125 13.726 23.1125 13.7 22.6705 13.544C22.3585 13.414 22.0725 13.518 21.8385 13.856C21.4745 14.324 21.4745 14.298 21.5525 13.57C21.6045 12.998 21.7865 12.764 22.2285 12.712C22.5405 12.66 22.7485 12.504 22.6705 12.374C22.5665 12.244 22.2025 12.218 21.8125 12.322L21.1105 12.478L21.9165 11.802C22.6965 11.152 23.7625 9.09799 23.4765 8.83799C23.3985 8.75999 23.2685 8.99399 23.1905 9.35799C23.0085 10.06 21.6045 11.542 21.3705 11.308C21.2665 11.23 21.4485 10.71 21.7345 10.164C22.4625 8.78599 22.4625 7.35599 21.7085 6.83599C20.7985 6.18599 19.3685 6.31599 18.6665 7.04399ZM15.0005 8.10999C15.2605 8.44799 15.2345 8.49999 14.7145 8.47399C14.3765 8.47399 14.2465 8.39599 14.4285 8.31799C14.5845 8.26599 14.6885 8.08399 14.5845 7.95399C14.3505 7.56399 14.6365 7.69399 15.0005 8.10999ZM10.1385 12.01C10.0605 12.244 9.93054 12.374 9.87854 12.296C9.80054 12.218 9.82654 12.062 9.93054 11.906C10.1645 11.49 10.3205 11.568 10.1385 12.01ZM18.6405 19.16C18.6405 19.29 18.3805 19.42 18.0685 19.394C17.4965 19.394 17.4965 19.368 17.9905 19.16C18.2765 19.03 18.5365 18.926 18.5885 18.926C18.6145 18.9 18.6405 19.004 18.6405 19.16Z" fill="black"/>
<path d="M11.3621 8.266C11.3621 8.396 11.2321 8.448 11.0761 8.344C10.8941 8.24 10.8421 8.396 10.8941 8.76C10.9461 9.098 11.2841 9.462 11.8041 9.67L12.6361 10.034L12.0901 8.994C11.5701 7.954 11.3621 7.772 11.3621 8.266Z" fill="black"/>
<path d="M15 29C7.26801 29 1 22.732 1 15C1 7.26801 7.26801 1 15 1C22.732 1 29 7.26801 29 15C29 22.732 22.732 29 15 29Z" stroke="#152361" stroke-width="2"/>
</g>
</svg>
