<svg xmlns="http://www.w3.org/2000/svg" width="30" height="30" fill="none" xmlns:v="https://vecta.io/nano"><style><![CDATA[.B{fill:#000}.C{fill:#f7db17}.D{fill:red}.E{fill:#fff}.F{fill-rule:evenodd}.G{fill:#171796}.H{fill:#0093dd}]]></style><mask id="A" maskUnits="userSpaceOnUse" x="0" y="0" width="30" height="30" mask-type="alpha"><path d="M1 15C1 7.268 7.268 1 15 1s14 6.268 14 14-6.268 14-14 14S1 22.732 1 15z" fill="#c4c4c4" stroke="#152361" stroke-width="2"/></mask><g mask="url(#A)"><path d="M41 2H-11V28H41V2Z" class="G"/><path d="M41 2h-52v17.333h52V2z" class="E"/><path d="M41 2h-52v8.667h52V2z" class="D"/><path d="M15 21.726a5.07 5.07 0 0 0 5.053-5.053v-6.006H9.947v6.006A5.07 5.07 0 0 0 15 21.726z" class="D"/><path d="M15 21.644c2.726 0 4.957-2.232 4.957-4.957v-5.924h-9.915v5.924c0 2.726 2.232 4.957 4.957 4.957z" class="E"/><path d="M12.136 10.948h-1.907v2.097h1.907v-2.097z" class="D"/><path d="M12.136 15.139h1.907v-2.097h-1.907v2.097z" class="D"/><path d="M10.229 16.673c0 .191.013.377.035.563h1.876v-2.097h-1.907v1.534h-.004zm5.725-1.534h-1.907v2.097h1.907v-2.097z" class="D"/><path d="M15.953 19.335h1.907v-2.097h-1.907v2.097z" class="D"/><path d="M17.86 20.481a4.72 4.72 0 0 0 1.088-1.148H17.86v1.148zm-5.724-1.146h1.907v-2.097h-1.907v2.097z" class="D"/><path d="M11.044 19.333c.299.442.667.828 1.092 1.148v-1.148h-1.092zm4.286 2.097a4.11 4.11 0 0 0 .62-.087v-2.011h-1.907v2.011a4.18 4.18 0 0 0 .62.082 4.91 4.91 0 0 0 .667.004zm4.402-4.193a4.85 4.85 0 0 0 .035-.563v-1.53H17.86v2.097l1.872-.004z" class="D"/><path d="M15.953 15.139h1.907v-2.097h-1.907v2.097z" class="D"/><path d="M15.954 10.948h-1.907v2.097h1.907v-2.097zm3.813 2.098v-2.097H17.86v2.097h1.907z" class="D"/><path d="M19.875 10.602l1.183-2.682-.901-1.452-1.495.555-1.049-1.2-1.382.793L15 5.605l-1.231 1.01-1.382-.793-1.049 1.2-1.495-.555-.901 1.456 1.183 2.682C11.616 9.93 13.267 9.553 15 9.553s3.384.377 4.875 1.049z" class="E"/><path d="M11.373 7.14l-1.486-.546-.828 1.339.316.724.806 1.824c.602-.264 1.226-.481 1.872-.65l-.68-2.691z" class="H"/><path d="M11.286 8.462c.052.1.082.217.082.338 0 .399-.325.724-.724.724-.351 0-.646-.251-.711-.585.126.221.364.373.633.373a.73.73 0 0 0 .728-.728c0-.043-.004-.082-.009-.121z" class="E"/><path d="M10.645 9.527c-.351 0-.65-.247-.719-.594l-.009-.048.022.039a.73.73 0 0 0 .628.368.72.72 0 0 0 .719-.719.92.92 0 0 0-.009-.117v-.004h.009l.004-.004a.71.71 0 0 1 .082.338.73.73 0 0 1-.728.741zm-.693-.55a.72.72 0 0 0 .693.533c.394 0 .715-.321.715-.715a.74.74 0 0 0-.061-.29.46.46 0 0 1 .004.074c0 .407-.329.737-.737.737a.74.74 0 0 1-.615-.338zm.671-1.517l-.004.013-.048.256.199.178.009.004-.013.004-.251.087-.048.26-.004.013-.009-.009-.199-.173-.251.087-.013.004.004-.013.048-.26-.195-.173-.013-.009.013-.004.251-.087.052-.26v-.013l.009.009.199.173.251-.082.013-.004z" class="B"/><path d="M10.32 7.829l.186.165.234-.082-.42-.082z" class="C"/><path d="M10.324 7.82l.42.082-.186-.165-.234.082zm-.45-.087l.42.082-.186-.165-.234.082z" class="C"/><path d="M10.29 7.82l-.42-.082.186.165.234-.082zm.026-.014l.282-.325-.234.078-.048.247z" class="C"/><path d="M10.012 8.154l.282-.325-.234.082-.048.243z" class="C"/><path d="M10.299 7.837l-.282.325.234-.078.048-.247zm.303-.347l-.282.325.234-.082.048-.243zm-.303.317L10.16 7.4l-.048.243.186.165z" class="C"/><path d="M10.446 8.244l-.139-.407-.048.243.186.165z" class="C"/><path d="M10.316 7.833l.139.407.048-.243-.186-.165zm-.148-.434l.139.407.048-.243-.186-.165z" class="C"/><path d="M13.782 6.736l-1.374-.784-1.036 1.187.685 2.691c.633-.16 1.287-.273 1.954-.325l-.23-2.769z" class="G"/><path d="M11.884 9.16a13.08 13.08 0 0 1 2.067-.347l-.056-.698a13.44 13.44 0 0 0-2.184.364l.173.68zm-.342-1.353a13.84 13.84 0 0 1 2.297-.386l-.056-.685a14.72 14.72 0 0 0-2.409.403l.169.667z" class="D"/><path d="M16.226 6.736L15 5.739l-1.218.997.23 2.769.988-.043.992.043.234-2.769z" class="H"/><path d="M14.996 7.979c-.035.035-.056.065-.078.095-.026.009-.03.022-.022.043-.035-.004-.039.026-.039.056-.03-.048-.065-.061-.104-.039 0-.03-.026-.043-.056-.052-.022 0-.039-.009-.056-.017-.009-.004-.013-.009-.022-.013-.017-.013-.03 0-.022.009l.104.169c0 .009 0 .017.013.026.004.017.013.035.017.052-.035 0-.061 0-.091-.004-.022 0-.039-.004-.048-.017-.013.078.009.139.065.199l-.091.004c.009.052.035.087.095.113-.026.013-.043.035-.048.065s-.009.048-.026.056c.026.035.069.039.113.026-.022.035-.03.069-.026.108.026.009.052 0 .078-.009-.004.009-.004.022-.009.039s-.004.03-.013.043c.043.026.082.022.117.009 0 .03 0 .061.009.095.039-.022.061-.048.087-.061.004.013.009.022.022.026s.017.022.022.043c.022.013.069-.035.078-.065.026.017.035.03.056.061.026-.035.026-.065.026-.095.035.013.074.017.117.004a.19.19 0 0 1-.013-.061c0-.017 0-.03-.004-.039.026.009.052.013.078.009.004-.039-.009-.074-.026-.108.043.009.082.009.117-.013-.022-.022-.03-.043-.03-.069s-.017-.052-.048-.065c.061-.026.091-.061.104-.1a.3.3 0 0 0-.1-.017c.056-.061.078-.121.078-.191-.022.004-.035.009-.056.009-.03 0-.056.004-.082.017 0-.03.009-.048.017-.065.009-.009.013-.017.013-.026l.1-.169c.009-.009-.004-.022-.022-.009-.009.004-.013.009-.022.013s-.035.017-.056.017c-.03.009-.052.022-.056.052-.039-.022-.074-.009-.104.039 0-.03-.004-.061-.039-.056.009-.022.004-.039-.022-.043l-.082-.091z" class="B"/><path d="M15.32 8.158c-.009-.004-.017.004-.022.013s-.004.022.004.026l.022-.013c.004-.013.004-.022-.004-.026zm-.64 0c.009-.004.017.004.022.013s.004.022 0 .026-.013-.004-.017-.013-.013-.022-.004-.026zm.58.116zm-.516 0z" class="C"/><path d="M15.295 8.236c-.095-.013-.195-.017-.29-.017l-.29.013h.29a2.11 2.11 0 0 1 .286.017z" class="C"/><path d="M14.709 8.222l.295-.013c.095 0 .195.004.29.017l.013-.022c-.022-.004-.026-.022-.017-.035s.022-.022.03-.017l.065-.082c-.026.017-.043.026-.074.03s-.052.017-.048.039-.009.017-.026.009c-.039-.022-.069.009-.082.043-.009.026-.022.022-.022 0v-.026c-.004-.03-.013-.035-.026-.03-.022.009-.022.004-.017-.009s.013-.017.009-.03-.009-.013-.017-.013c-.022-.03-.061-.061-.082-.095l-.069.095c-.013 0-.017.004-.022.013s.009.022.009.026c-.035 0-.043.009-.043.039v.026c0 .026-.013.026-.022 0-.013-.035-.043-.069-.087-.043-.017.009-.026.013-.022-.009s-.013-.035-.048-.039-.048-.017-.074-.03l.052.087c.017-.013.03-.004.039.009s.004.03-.004.035h-.004l.004.026z" class="C"/><path d="M15.273 8.339c-.009.004-.013.009-.022.017l-.026.026c.004-.013.013-.022.022-.026-.004-.013-.017-.017-.026-.017s-.022.009-.03.013-.013.009-.017.017c0-.013.009-.017.017-.022 0-.009-.013-.013-.03-.013-.013.009-.013.009-.017.013-.004-.013-.017-.013-.026-.013-.009.013-.013.013-.013.017v-.013h-.043c-.013.013-.013.013-.013.017-.009-.017-.022-.017-.039-.017h-.048l.013.017c-.009-.013-.013-.013-.017-.017h-.043l.004.004c-.026-.009-.039-.009-.048-.009-.026 0-.043 0-.056.004.026.013.035.022.039.026v.004c-.009-.004-.013-.013-.022-.017s-.022-.009-.03-.013-.022 0-.035.004c.022.022.03.03.039.035-.013-.004-.026-.013-.03-.022l-.017-.017c-.026-.013-.043-.017-.074-.017-.022 0-.039 0-.061-.009.004.013.009.022.017.03s.017.017.026.017c.009.026.013.039.026.052s.013.013.026.017c-.009-.009-.017-.022-.022-.03-.009-.017-.013-.035-.009-.052.009.017.009.035.017.048s.022.03.039.043c-.026.004-.043-.009-.052-.022s-.017-.03-.022-.052c-.013-.004-.022-.013-.03-.022s-.013-.017-.013-.026c.004.056.022.104.061.147.009.009.022.022.035.026-.009.013-.013.013-.017.013.009.004.022.009.03.013.017.009.026.022.03.035-.009-.013-.017-.022-.035-.03s-.035-.013-.052-.022h-.061c.026.013.043.022.061.026s.022.009.03.013.017.013.022.017l-.026-.013c-.009-.004-.017-.009-.026-.009-.022-.004-.035-.009-.048-.017s-.017-.009-.022-.017c.022.052.056.074.108.087.022.009.03.009.043.013s.022.004.035.004c-.013.009-.022.004-.035.004s-.013-.004-.022-.004c-.043 0-.065.03-.069.065.013-.009.022-.022.035-.026a.06.06 0 0 1 .048-.009c-.013.004-.026.009-.039.017s-.026.022-.039.03c-.004.017-.009.035-.026.048.009.004.013.009.022.004l.035-.013c.013-.004.022-.009.035-.009a.13.13 0 0 1-.035.017c-.009.004-.017.009-.03.013.03.004.061 0 .087-.009s.03-.013.039-.013.017-.009.022-.009c-.013.009-.017.013-.03.017 0 .004-.009.009-.017.013-.026.022-.03.03-.039.048-.004.009-.009.017-.009.03l.026-.039c.013-.013.026-.026.043-.035h.004c-.017.013-.03.022-.043.035s-.022.03-.026.043c.009-.004.022-.017.039-.026s.035-.022.052-.017c-.013.004-.03.013-.048.026s-.03.03-.048.048c.022.004.048-.004.069-.013.013-.004.022-.017.03-.022l.022-.022c-.013.022-.017.026-.022.03-.013.009-.022.022-.026.03-.009.026-.004.048-.017.074.009-.004.017-.009.022-.017a.07.07 0 0 0 .017-.03c.004-.013.013-.026.022-.035s.022-.017.035-.022l-.03.03c-.009.009-.017.017-.022.03s-.009.022-.017.03-.013.013-.022.017c.026 0 .043-.009.052-.017s.013-.017.022-.026c0 .017-.009.026-.017.035l-.026.013c.022 0 .039-.004.061-.013.009-.004.013-.022.017-.026s.009-.013.013-.022.013-.013.022-.017c-.009.013-.013.017-.017.022s-.009.013-.013.017-.009.03-.009.039c0 .026 0 .052.009.078.009-.009.013-.017.022-.026s.004-.026.004-.043v-.043c.009.013.009.03.009.043s0 .022-.004.035c.013-.022.017-.035.017-.043v-.03c.013.009.013.022.009.03s-.004.017-.004.026c.009-.004.013-.009.022-.017v-.03c0-.009 0-.017.004-.026.009.004.009.013.009.022v.03c0 .009.004.022.017.03s.022.022.026.035c0-.017.004-.035 0-.052l-.013-.048v-.004c.013.013.017.03.022.052s0 .039 0 .061c.013-.009.048-.035.043-.078l-.004-.013h.004l.004.022c.013-.004.013-.013.013-.017v-.03c.004.009.004.017.009.03s.004.022.009.03.004-.009.004-.022v-.043c.009.013.009.026.009.043s.004.03.004.043c.009.009.013.017.022.026.009-.026.009-.052.009-.078 0-.009-.009-.03-.009-.039s-.009-.013-.013-.017-.013-.013-.017-.013c.009-.004.013 0 .022.009s.009.013.013.022c.009 0 .009.022.017.026a.15.15 0 0 0 .056.013c-.009-.004-.017-.004-.026-.013s-.017-.017-.022-.03v-.004c.009.013.017.022.026.026s.039.017.052.017c-.009-.004-.013-.009-.022-.017a.07.07 0 0 1-.017-.03c-.004-.013-.013-.022-.022-.03s-.017-.017-.03-.022c.013-.004.026.004.035.013s.017.022.022.035a.07.07 0 0 0 .017.03c.004.009.013.013.022.017-.013-.026-.009-.048-.017-.074-.004-.017-.03-.035-.026-.039s.017.013.03.017c.022.009.048.013.069.013-.017-.017-.03-.035-.048-.048s-.03-.017-.043-.017c.017-.013.035-.004.052.009s.026.022.039.039c-.013-.026-.022-.039-.035-.052s-.026-.026-.043-.03c.022.004.035.017.048.03l.026.039c0-.009-.004-.022-.009-.03s-.013-.026-.026-.039-.026-.017-.026-.022c-.017-.009-.026-.009-.03-.013.004-.009.013-.004.022 0l.039.017c.026.009.056.017.087.009-.009-.004-.017-.009-.03-.013s-.022-.004-.035-.009c.013-.009.026-.004.035 0l.035.013c.009.004.013 0 .022-.004-.017-.013-.022-.03-.026-.048-.013-.013-.026-.026-.039-.03s-.026-.013-.039-.009c.017-.013.03-.009.048 0s.026.017.035.026c0-.039-.026-.065-.056-.069-.009 0-.026.004-.026-.004s.013-.004.03-.013c.048-.013.082-.039.108-.087-.009.004-.013.009-.026.017s-.026.013-.048.017c-.009.004-.022.004-.026.009s-.013.009-.022.017c0-.013.009-.017.017-.022s.017-.009.03-.013c.022-.004.035-.009.043-.017 0-.009-.022-.009-.043-.009s-.039.013-.052.022-.026.017-.026.03c-.009-.013.004-.026.022-.035.009-.004.017-.009.03-.013-.026 0-.026-.009-.017-.013s.026-.017.03-.026a.3.3 0 0 0 .061-.143l-.013.026c-.009.009-.017.017-.03.022-.004.022-.013.039-.022.052s-.026.022-.048.03c.013-.022.026-.039.03-.052s.009-.035.009-.048c.009.017.009.035 0 .052s-.013.022-.022.03c.009-.004.017-.013.026-.017.013-.013.017-.03.022-.048.017-.009.026-.013.03-.022s.013-.017.017-.03c-.017.009-.039.009-.061.009-.03.013-.052.017-.078.026z" class="C"/><path d="M15.269 8.318c-.087-.013-.173-.013-.26-.013l-.264.013.264-.004a2.61 2.61 0 0 1 .26.013z" class="C"/><path d="M14.744 8.309a2.61 2.61 0 0 1 .26-.013c.087 0 .173.004.26.017l.004-.017c-.017 0-.026-.009-.026-.017s.009-.017.017-.017l.022-.013-.277-.017-.282.013.009.022c.022-.009.03 0 .03.009s-.009.017-.017.017h-.004l.004.017zm.394-.052c-.009 0-.017.009-.017.017s.009.017.017.017.017-.009.017-.017-.009-.017-.017-.017zm0 .009zM15 8.253c-.009 0-.017.009-.017.017s.009.017.017.017.017-.009.017-.017-.009-.017-.017-.017zm0 .009zm-.139-.004c-.009 0-.017.009-.017.017s.009.017.017.017.017-.009.017-.017-.009-.017-.017-.017zm0 .009z" class="C F"/><path d="M15.004 8.157c0-.009-.004-.017-.013-.022s-.013-.009-.026-.013c.009-.013.013-.017.022-.026s.009-.022.013-.035c.009.009.017.022.022.026s.017.013.026.017c-.009.009-.013.013-.017.022s-.009.017-.013.03zm.004-.013c.013-.022.017-.026.022-.026-.009-.004-.013-.009-.017-.017-.022.013-.026.022-.03.022.022.009.022.013.026.022zm.105.655l-.065.026.065-.035zm.004-.043l-.078.043.069-.052zm-.234-.009l.078.043-.087-.035zm.009.043l.065.026-.065-.017zm.03.056c.017.004.035.004.048.004s.022-.009.026-.017v-.065c-.013 0-.026 0-.039-.004s-.022-.013-.026-.022-.004-.03 0-.043c.004.009.004.026.009.035s.009.013.022.017a.12.12 0 0 0 .039.004c.013 0 .026 0 .039-.004s.017-.009.026-.017.009-.013.009-.022c-.009-.013-.013-.013-.022-.013h-.026c.017-.009.022-.013.03-.013s.017.004.022.009c.009.026.009.039 0 .048s-.017.017-.03.017-.022.004-.035.004v.061c.004.009.013.017.026.017s.03 0 .048-.004c-.017.013-.035.017-.048.013s-.022-.009-.026-.017c-.004.009-.017.013-.026.017s-.03 0-.048-.004h-.017zm.043.026h.052l-.052.009z" class="B"/><path d="M15.043 8.479a.22.22 0 0 1 .056-.039c.017-.009.035-.013.048-.013-.013.009-.026.013-.043.022s-.035.022-.052.039zm-.078.004a.22.22 0 0 0-.056-.039c-.017-.009-.035-.013-.048-.013.013-.009.03-.004.052.004s.039.026.061.043zm-.03.13c.004-.009.009-.022.017-.026s.013-.017.022-.022c0 .013-.004.022-.013.03s-.013.017-.017.026zm.048-.221c.004.009.013.017.013.03s.004.022.004.035v.03c0 .013-.004.022-.013.03s-.013.013-.022.013h-.022c.004.013.009.026 0 .039-.013 0-.022 0-.026-.004l-.048-.022c-.009-.004-.013-.009-.017-.017s-.009-.013-.013-.022-.004-.013-.004-.022l-.026-.013c-.009-.004-.013-.013-.022-.017.013-.004.022 0 .026.009s.017.009.026.017c.017 0 .03.009.048.013s.026.013.039.026.022.013.03.009c.022-.017.026-.026.026-.035v-.03c0-.013 0-.022-.004-.035l-.013-.026c.017-.013.017-.013.017-.009zm-.048.134l-.039-.026-.039-.013c.004.026.009.03.013.035a.06.06 0 0 0 .017.013c.009.004.017.009.03.013.022.009.026.013.03.013a.3.3 0 0 1-.013-.035zm.1-.13l-.013.026c-.004.009-.004.022-.004.035v.03c0 .009.004.017.009.026.022.009.03.009.039.009l.048-.035c.017-.009.03-.013.048-.013.009-.004.017-.009.026-.017s.013-.009.017-.017c.004.013-.004.022-.013.026l-.026.013c0 .009 0 .017-.004.022s-.004.017-.013.022l-.017.017c-.009.004-.017.009-.03.013-.022.013-.03.013-.035.017-.013-.017-.013-.03-.009-.043-.009.004-.013.004-.022 0s-.017-.009-.022-.013-.009-.022-.013-.03v-.03c0-.013 0-.026.004-.035s.009-.022.013-.03c.022.004.022.009.017.009zm.121.091a.07.07 0 0 0-.039.013c-.013.004-.026.013-.039.026v.004c-.004.013-.009.022-.004.035.017-.009.026-.009.03-.013.013-.004.022-.009.03-.013s.013-.009.017-.013c.004-.026.004-.03.004-.039z" class="B"/><path d="M15.113 8.495c-.017 0-.026.013-.026.026s.013.026.026.026.026-.013.026-.026-.009-.026-.026-.026zm0 .009c-.009 0-.017.009-.017.017s.009.017.017.017.017-.009.017-.017-.004-.017-.017-.017zm0 .009c-.013.017-.009.026 0 .026.013-.022.009-.026 0-.026zm-.217-.017c.017 0 .026.013.026.026s-.013.026-.026.026-.026-.013-.026-.026.013-.026.026-.026zm0 .009c.009 0 .017.009.017.017s-.009.017-.017.017-.017-.009-.017-.017.009-.017.017-.017zm0 .009c.013.022.009.026 0 .026-.013-.022-.004-.026 0-.026z" class="B F"/><path d="M14.441 6.731l-.074.1c-.026.009-.03.026-.022.043-.035 0-.035.026-.035.056-.035-.048-.069-.061-.104-.035-.004-.03-.026-.043-.056-.048-.022 0-.043-.009-.056-.017s-.013-.009-.022-.013c-.017-.009-.03 0-.022.009l.108.165c0 .009 0 .017.013.026.009.017.013.035.022.052h-.091c-.022 0-.039-.004-.048-.017-.009.082.013.143.069.199l-.091.004c.009.052.039.087.1.108-.026.017-.039.039-.043.069s-.009.048-.026.061c.03.035.069.035.113.022-.017.035-.026.074-.022.108.026.004.052 0 .078-.009-.004.009-.004.022-.004.039s-.004.03-.013.043c.043.022.082.017.117.004a.33.33 0 0 0 .013.091l.082-.065c.004.013.009.022.022.026s.022.022.022.043c.022.013.069-.039.078-.065.026.013.039.03.061.056.026-.035.022-.065.022-.1a.18.18 0 0 0 .117 0l-.017-.061c0-.017-.004-.03-.009-.035.026.009.052.013.078.004.004-.039-.009-.074-.03-.108.043.009.082.004.117-.017-.022-.022-.03-.043-.035-.069s-.022-.052-.048-.065c.061-.026.087-.061.1-.104-.039-.013-.069-.013-.1-.013.052-.065.074-.126.069-.195l-.056.013c-.03.004-.056.004-.082.022 0-.03.009-.048.013-.065.009-.009.013-.017.009-.026l.095-.169c.009-.009-.009-.022-.022-.009-.009.004-.013.009-.022.013s-.03.017-.056.022-.052.022-.052.052c-.039-.022-.074-.009-.104.043-.004-.03-.009-.056-.039-.052.009-.022 0-.039-.026-.043-.026-.03-.061-.056-.087-.091l-.004-.004z" class="B"/><path d="M14.771 6.902c-.009-.004-.017.004-.022.013s-.004.022.004.026l.017-.013c.009-.013.009-.026 0-.026zm-.642.021c.009-.004.017 0 .022.013s.004.022 0 .026-.013-.004-.017-.013-.013-.022-.004-.026zm.585.096zm-.516.021z" class="C"/><path d="M14.749 6.979c-.095-.009-.195-.009-.29-.004l-.29.026.295-.013c.095-.004.191 0 .286.004z" class="C"/><path d="M14.164 6.988l.295-.026c.095-.004.195 0 .29.004l.013-.026c-.022-.004-.026-.022-.017-.035s.022-.022.03-.017l.061-.082c-.026.017-.039.03-.074.035s-.052.022-.048.043-.009.017-.026.009c-.039-.022-.069.013-.082.048-.009.026-.022.026-.022 0v-.026c-.004-.03-.013-.035-.03-.026s-.022.004-.017-.009.009-.017.009-.03-.009-.013-.022-.013c-.026-.03-.061-.061-.087-.091l-.069.095c-.013 0-.017.004-.017.013s.009.022.013.026c-.035 0-.043.009-.043.039v.026c0 .026-.013.026-.022.004-.017-.035-.048-.065-.087-.043-.017.013-.026.013-.022-.004s-.013-.035-.052-.039-.048-.013-.074-.03l.056.087c.017-.013.03-.004.039.009s.004.03-.004.035h-.004l.013.026z" class="C"/><path d="M14.731 7.082c-.009.004-.013.009-.022.017l-.026.026c.004-.013.013-.022.022-.03-.004-.013-.017-.013-.026-.017-.009.004-.022.009-.026.013s-.013.009-.017.017c0-.013.009-.017.017-.026 0-.009-.013-.009-.03-.009-.013.009-.013.009-.017.013-.004-.013-.017-.013-.026-.013-.009.013-.013.013-.013.017v-.013h-.043c-.013.013-.013.013-.013.017-.009-.017-.022-.017-.039-.017h-.048c.013.013.017.017.013.017-.013-.013-.013-.013-.017-.013-.013 0-.03 0-.043.004l.004.004.004.013c-.009-.013-.013-.013-.017-.017s-.022 0-.03.004c-.026 0-.039.004-.056.004.026.013.035.017.039.026-.009 0-.013-.009-.022-.013s-.022-.009-.03-.013-.022.004-.035.004c.022.022.03.026.039.035-.017-.004-.026-.013-.03-.017l-.017-.017c-.026-.009-.048-.013-.074-.017s-.039 0-.061-.009c.004.009.009.022.017.03s.017.013.026.017c.009.026.017.039.026.052s.013.013.026.017a.13.13 0 0 1-.022-.03c-.009-.017-.013-.035-.013-.052.009.017.013.035.022.048s.022.03.039.043a.06.06 0 0 1-.056-.017c-.013-.013-.022-.03-.026-.052a.05.05 0 0 1-.03-.022c-.004-.009-.013-.017-.017-.026a.22.22 0 0 0 .065.143c.009.009.022.022.035.026 0 .017.009.022.017.026.017.009.03.022.03.035-.009-.013-.022-.022-.035-.026s-.035-.013-.052-.017-.039 0-.061.004c.026.013.043.017.061.022s.022.004.03.009.017.013.022.017c-.009 0-.017-.009-.026-.013s-.017-.009-.026-.009c-.022-.004-.035-.009-.048-.013l-.026-.013c.026.048.061.069.108.082.022.004.03.004.043.004s.022.004.035.004c-.013.009-.022.009-.035.004s-.013 0-.022-.004c-.043.004-.065.03-.065.065.013-.009.022-.022.035-.03s.03-.013.048-.009c-.013.004-.026.009-.039.017s-.026.022-.039.035c-.004.017-.009.039-.026.048.009.004.013.009.022.004s.022-.013.035-.013.022-.009.035-.009a.13.13 0 0 1-.035.017l-.026.013c.03.004.061-.004.087-.013l.039-.017c.009-.004.017-.009.022-.009-.013.013-.017.013-.026.022 0 .004-.009.009-.017.013-.022.022-.026.035-.03.048s-.004.017-.009.03c.009-.013.013-.026.026-.039s.026-.026.043-.035h.004c-.017.013-.03.026-.039.039s-.022.03-.026.043c.009-.004.022-.017.035-.026s.035-.022.052-.017c-.013.009-.03.013-.048.026l-.043.048c.022.004.048-.004.069-.013.013-.004.022-.017.03-.022l.022-.022c-.013.022-.017.026-.022.03-.013.013-.022.026-.026.035-.004.026 0 .048-.013.074.009-.004.017-.013.022-.017s.013-.017.017-.03.013-.026.022-.035.022-.017.035-.022l-.03.03c-.009.009-.013.022-.017.03s-.009.026-.017.035-.013.013-.017.017c.026 0 .043-.009.052-.017s.013-.017.017-.026c.004.013-.004.022-.013.03s-.013.009-.026.013c.022 0 .039-.009.061-.013.009-.004.009-.022.017-.026s.009-.013.013-.022.013-.013.022-.017h.004l-.017.017c-.004.004-.009.013-.013.017s-.004.03-.004.039c0 .026 0 .052.009.078.004-.009.013-.017.022-.026 0-.013.004-.03.004-.043s0-.03-.004-.043c.013.013.013.03.013.043s0 .022-.004.035c.013-.022.017-.035.017-.043s0-.022-.004-.03c.013.009.013.022.013.03s-.004.017-.004.026c.009-.004.013-.013.022-.017v-.03-.026c.009.004.009.013.009.022v.03c0 .009.009.022.017.03s.022.022.026.035v-.052c-.004-.017-.009-.035-.017-.048.013.009.017.026.022.043s.004.039 0 .061c.013-.013.048-.035.043-.078l-.004-.013h.004l.004.022.004-.004c.004-.026.004-.035.004-.043.009.009.009.017.009.03s.004.022.009.03.004-.009.004-.022v-.043c.009.013.009.026.009.043s.004.03.009.043.013.013.022.026c.004-.026.009-.052.004-.078 0-.009-.009-.03-.009-.039s-.009-.013-.013-.017-.013-.009-.017-.013c.009-.004.017 0 .022.009s.009.013.013.017.013.022.017.026c.022.009.039.009.061.009-.009 0-.017-.004-.026-.013s-.017-.017-.022-.03v-.004c.009.013.017.022.026.026s.039.013.052.013c-.009-.004-.013-.009-.022-.017a.07.07 0 0 1-.017-.03c-.004-.013-.013-.022-.022-.03s-.022-.017-.03-.017c.013-.004.026.004.035.013s.017.022.022.035.009.022.017.03.013.013.022.017c-.013-.026-.009-.048-.017-.074-.004-.017-.03-.035-.026-.039s.017.009.03.013c.022.009.048.013.069.009l-.048-.043c-.017-.013-.03-.017-.048-.013.017-.013.035-.004.052.004s.026.022.043.035c-.013-.026-.022-.039-.035-.052s-.026-.022-.043-.03c.022.004.039.013.052.026s.022.026.026.039c-.004-.009-.004-.022-.009-.03s-.013-.026-.026-.035-.026-.017-.026-.022c-.017-.009-.026-.009-.03-.009.004-.009.013-.004.022-.004l.039.017c.026.009.056.013.087.009-.009-.004-.017-.009-.03-.009s-.022-.004-.035-.004c.013-.009.026-.004.035-.004l.035.013c.009.004.013 0 .022-.009a.06.06 0 0 1-.026-.048c-.013-.013-.026-.022-.043-.03s-.026-.009-.039-.009c.017-.013.03-.009.048 0s.026.017.035.026c-.004-.039-.03-.065-.056-.065-.009 0-.026.004-.026-.004s.013-.004.03-.013c.048-.017.082-.039.104-.091-.009.004-.013.013-.022.017s-.026.013-.043.017c-.009.004-.022.009-.026.013s-.013.013-.022.017c0-.013.009-.017.017-.026s.017-.009.03-.013c.022-.004.035-.013.043-.017s.013-.009.017-.013h-.061c-.017.004-.035.013-.052.022s-.022.017-.022.03c-.009-.013.004-.026.017-.035s.017-.009.03-.013c-.026 0-.026-.009-.017-.013s.022-.017.03-.03c.035-.043.048-.095.052-.147l-.013.026c-.009.009-.017.017-.026.022-.004.022-.009.039-.022.052s-.026.026-.048.03l.03-.052c.009-.017.009-.035.009-.052.013.017.009.035 0 .056-.004.013-.013.022-.022.035.009-.004.017-.013.022-.022s.017-.03.022-.052c.017-.009.022-.017.03-.026s.013-.017.013-.03c-.017.009-.039.009-.056.013l-.113.048z" class="C"/><path d="M14.723 7.061c-.087-.009-.173-.009-.264-.004l-.264.026.264-.013c.087-.004.173-.004.26.004z" class="C"/><path d="M14.198 7.075l.26-.026c.087-.004.173 0 .26.004l.004-.017c-.017.004-.026 0-.026-.013s.004-.017.017-.017l.022-.013c-.095-.009-.186-.009-.277-.004l-.282.026.009.022c.022-.009.03-.004.03.009s-.004.017-.017.017h-.004l.004.013zm.39-.069c-.009 0-.017.009-.017.017s.009.017.017.017.017-.009.017-.017-.009-.017-.017-.017zm.004.009zm-.143-.009c-.009 0-.017.009-.017.017s.009.017.017.017.017-.009.017-.017-.009-.017-.017-.017zm0 .009zm-.134 0c-.009 0-.017.009-.017.017s.009.017.017.017.017-.009.017-.017-.009-.017-.017-.017zm0 .009z" class="C F"/><path d="M14.454 6.91c0-.009-.009-.017-.013-.022s-.017-.009-.026-.009c.009-.013.013-.017.017-.026s.009-.022.013-.035c.013.009.017.017.022.026s.017.013.026.017c-.009.009-.013.013-.017.022a.2.2 0 0 0-.013.03zm.004-.013c.013-.022.017-.026.022-.03-.009-.004-.013-.009-.017-.013-.022.013-.026.022-.03.026.017.009.022.013.026.017zm.126.65l-.065.03.065-.039zm.009-.039l-.078.043.069-.052zm-.238 0l.078.039-.078-.03zm.009.039l.065.026-.065-.017zm.03.056c.017.004.035.004.048.004s.022-.009.022-.022l-.004-.065c-.013 0-.026 0-.039-.004s-.022-.013-.026-.022-.004-.03 0-.043c.009.009.004.026.009.035s.009.013.022.017.026.004.039.004.026-.004.039-.009.017-.009.026-.017.009-.017.004-.022c-.013-.013-.017-.013-.026-.013l-.026.004c.017-.009.022-.013.03-.013s.017 0 .022.004.009.009.013.017 0 .022-.009.03-.017.017-.03.022-.022.004-.035.009l.004.061c.004.009.013.017.026.017s.03 0 .048-.004c-.017.013-.035.017-.048.013s-.022-.009-.03-.017c-.004.009-.017.017-.026.017s-.03 0-.052-.004zm.048.026l.052-.004-.052.013z" class="B"/><path d="M14.501 7.23c.017-.017.035-.03.052-.039s.03-.017.048-.017c-.013.009-.026.013-.039.022s-.035.022-.052.039zm-.078.009c-.017-.017-.039-.03-.061-.039s-.035-.013-.048-.013c.013-.009.03-.004.052.004s.043.022.061.039zm-.022.13c.004-.009.009-.022.017-.03s.013-.017.022-.022c0 .013-.004.022-.013.03s-.013.017-.013.026zm.039-.225c.009.009.013.017.017.026s.004.022.004.035v.03c0 .013-.004.022-.013.03s-.013.013-.022.017h-.022c.004.013.009.026.004.039-.009 0-.017 0-.022-.004-.03-.009-.039-.013-.048-.017s-.013-.009-.022-.017-.009-.013-.013-.022-.004-.013-.004-.022l-.026-.013c-.009-.004-.017-.009-.022-.017.013-.004.022 0 .03.004l.026.013c.017 0 .03.004.048.013s.026.013.043.022.022.013.03.009.013-.004.017-.013.009-.017.009-.026v-.03c0-.013-.004-.022-.004-.035l-.013-.026zm-.043.139c-.013-.009-.026-.017-.039-.022l-.039-.013c.004.026.009.03.013.035s.009.009.017.013.017.009.03.013c.022.004.026.009.03.009 0-.009-.004-.022-.013-.035zm.095-.134l-.013.026c-.004.009-.004.022-.004.035v.03c0 .009.004.017.013.026.022.009.03.009.035.004l.048-.035c.017-.009.03-.013.048-.017.009-.004.017-.013.026-.017s.013-.013.017-.017c.004.013-.004.022-.013.026s-.017.009-.026.017v.022c0 .009-.004.017-.009.022s-.009.013-.017.017-.017.009-.03.017c-.022.013-.026.013-.035.017-.013-.013-.013-.026-.009-.039-.009.004-.013.004-.022 0s-.017-.004-.022-.013-.013-.022-.013-.03-.004-.022 0-.03 0-.026.004-.035.009-.022.013-.03zm.126.087l-.039.013-.039.026v.004c-.004.013-.004.026-.004.035.017-.009.026-.009.03-.013.013-.004.022-.009.03-.013s.013-.009.017-.013c.004-.026.004-.03.004-.039z" class="B"/><path d="M14.575 7.243c-.017 0-.026.013-.026.03s.013.026.03.026.026-.013.026-.03-.013-.026-.03-.026zm0 .009c-.009 0-.017.009-.017.022s.009.017.022.017.017-.009.017-.022-.009-.017-.022-.017zm0 .009c-.009.017-.004.026.004.022.009-.017.004-.022-.004-.022zm-.217-.009c.017 0 .03.013.03.026s-.013.03-.026.03-.03-.013-.03-.026.013-.03.026-.03zm0 .009c.009 0 .017.009.022.017s-.009.017-.017.022-.017-.009-.022-.017.009-.022.017-.022zm0 .009c.013.013.009.022.004.022-.013-.017-.009-.022-.004-.022z" class="B F"/><path d="M15.559 6.733c-.035.035-.056.061-.082.095-.026.009-.03.022-.022.043-.035-.004-.039.022-.039.052-.03-.048-.065-.065-.104-.043 0-.03-.022-.043-.056-.052-.022 0-.039-.009-.056-.022-.009-.004-.013-.009-.022-.013-.017-.013-.03 0-.022.009l.095.169c-.004.009 0 .017.009.026.004.017.009.035.017.052-.03 0-.061-.004-.091-.009-.022 0-.035-.009-.048-.017-.017.078.004.139.056.204h-.091c.004.052.03.091.091.117-.026.013-.043.035-.048.065s-.013.048-.03.056c.026.039.069.039.108.03-.022.035-.03.069-.03.108.026.009.052.004.078-.004-.004.009-.004.022-.009.039s-.004.03-.013.043c.043.026.082.022.117.013l.004.095c.039-.022.061-.043.087-.061.004.013.009.022.017.03s.017.022.017.043c.022.013.074-.035.082-.061.026.017.035.035.052.061.026-.035.03-.065.03-.095.035.013.074.022.117.009-.009-.026-.013-.048-.013-.061s0-.03-.004-.039c.026.009.052.017.078.009.004-.039-.004-.074-.022-.108.043.013.082.013.117-.009-.022-.022-.03-.043-.03-.074s-.017-.052-.043-.069c.065-.022.091-.056.108-.095-.039-.017-.069-.017-.1-.022.056-.061.082-.121.087-.191-.022-.004-.035.004-.056.004-.03 0-.056 0-.087.013.004-.03.009-.048.017-.061.009-.004.013-.017.013-.026l.108-.165c.009-.009-.004-.022-.022-.009-.009.004-.013.009-.022.013-.017.009-.035.017-.056.017-.03.004-.056.017-.056.048-.035-.026-.074-.013-.104.035 0-.03-.004-.061-.035-.056.009-.022.004-.039-.022-.048-.022-.035-.056-.061-.078-.095z" class="B"/><path d="M15.876 6.923c-.004-.004-.017 0-.022.013s-.004.022 0 .026l.022-.013c.004-.009.004-.022 0-.026zm-.642-.021c.009-.004.017.004.022.013s.004.022-.004.026-.013-.004-.017-.013-.009-.026 0-.026zm.577.138zm-.517-.021z" class="C"/><path d="M15.845 7c-.095-.017-.191-.026-.29-.026s-.195 0-.29.004c.095.009.195.004.29.009l.286.026z" class="C"/><path d="M15.264 6.967l.295-.004.29.026.013-.022c-.022-.004-.026-.022-.017-.035s.022-.022.03-.017l.069-.078c-.026.017-.043.026-.074.03s-.052.017-.048.039-.009.017-.026.004c-.039-.022-.069.004-.087.043-.009.022-.022.022-.022-.004v-.026c0-.03-.009-.039-.026-.03s-.022.004-.017-.009.013-.017.009-.026-.009-.013-.017-.013c-.022-.03-.056-.065-.078-.095l-.074.091c-.013 0-.017.004-.022.013s.004.022.009.03c-.035 0-.043.009-.043.035 0 .009 0 .017-.004.026 0 .026-.013.026-.022 0-.013-.035-.043-.069-.082-.048-.017.009-.026.013-.022-.009s-.013-.035-.048-.043-.048-.017-.074-.035l.052.091c.017-.013.03-.004.039.009s.004.03-.004.035h-.004l.004.022z" class="C"/><path d="M15.819 7.105c-.009.004-.013.009-.022.017s-.017.017-.026.022c.004-.013.017-.022.022-.026-.004-.013-.017-.017-.026-.017s-.022.004-.03.013-.013.009-.017.017c0-.013.009-.017.017-.022 0-.004-.013-.009-.026-.009-.013.009-.013.009-.017.013-.004-.013-.017-.013-.026-.017-.009.013-.013.013-.013.017l.004-.017c-.013 0-.03-.004-.043-.004-.013.013-.017.017-.017.013.009-.013.009-.013.013-.017-.017 0-.03 0-.048-.004h-.048l.013.017c-.009-.013-.013-.013-.017-.017h-.043l.004.004c-.026-.009-.039-.009-.048-.009-.026-.004-.043-.004-.056-.004.026.013.035.022.039.03v.004c-.009-.004-.013-.013-.022-.017s-.022-.009-.03-.013h-.035c.017.022.026.03.035.039-.013-.004-.022-.013-.03-.022l-.017-.017c-.026-.013-.043-.017-.074-.022-.022-.004-.039-.004-.056-.013.004.013.009.022.013.03s.013.017.026.022c.009.026.013.043.026.056.004.009.013.013.022.022-.009-.009-.017-.022-.022-.035s-.009-.039-.009-.056c.009.017.009.035.017.052s.017.03.035.048c-.026.004-.039-.009-.052-.022s-.017-.03-.022-.052c-.013-.004-.022-.013-.026-.022l-.013-.026c0 .056.017.104.052.147.009.009.022.026.03.03-.009.013-.013.013-.017.013.009.004.022.009.03.013.017.009.026.022.026.035-.009-.013-.017-.022-.03-.03s-.035-.017-.052-.022h-.061a.06.06 0 0 0 .017.013c.009.004.022.013.043.017.013.004.022.009.03.013s.017.013.022.022l-.026-.013-.026-.013c-.022-.004-.035-.013-.043-.017s-.017-.013-.022-.017c.022.052.056.074.104.091.022.009.03.009.043.013s.022.004.035.004c-.013.009-.022.004-.035.004s-.013-.004-.022-.004c-.043 0-.069.026-.069.061.013-.009.022-.017.035-.026s.03-.013.048-.009c-.013.004-.026.009-.039.017l-.043.03c-.004.017-.013.035-.026.048.009.004.013.009.022.009l.035-.013c.013-.004.026-.004.035-.004-.013.009-.022.013-.035.013s-.017.009-.03.009c.026.009.061 0 .087-.009l.039-.013c.009-.004.017-.004.022-.004-.013.009-.017.009-.03.017 0 .004-.009.009-.017.013-.026.017-.03.03-.039.043s-.009.017-.009.03l.026-.039c.013-.013.026-.026.048-.03h.004c-.017.013-.03.022-.043.035s-.022.026-.03.043c.009-.004.026-.017.039-.03s.039-.017.056-.013a.42.42 0 0 0-.048.022c-.017.013-.03.026-.048.043.022.004.048 0 .069-.009.013-.004.026-.017.03-.017l.022-.022c-.013.022-.017.026-.022.03-.013.009-.026.022-.026.03-.009.026-.004.048-.017.074.009-.004.017-.009.022-.017a.07.07 0 0 0 .017-.03c.004-.013.013-.026.022-.035s.022-.017.035-.022c-.013.013-.022.017-.03.026s-.017.017-.022.03-.013.022-.017.03-.013.013-.022.017c.026 0 .043-.009.052-.013s.017-.013.022-.026c0 .017-.009.026-.017.035l-.026.013c.022 0 .039-.004.061-.009.009-.004.013-.022.017-.026s.009-.013.013-.022.013-.013.022-.017c-.009.013-.013.017-.017.022s-.009.013-.013.017-.009.03-.009.039c0 .026-.004.052.004.078.009-.009.013-.017.022-.026s.004-.026.009-.043v-.043c.009.013.009.03.009.043s-.004.022-.004.035c.013-.022.017-.035.017-.043v-.03c.009.009.013.022.009.03s-.004.017-.009.026c.009-.004.013-.009.022-.013v-.03c0-.009 0-.017.004-.026.009.004.004.013.004.022v.03c0 .009.004.026.013.03s.017.022.022.035c.004-.017.004-.035.004-.052s-.004-.035-.013-.048v-.004c.013.013.017.03.017.052s0 .039-.004.061c.013-.009.052-.03.048-.074l-.004-.013h.004l.004.022c.013-.004.013-.013.013-.017 0-.013 0-.022.004-.03.004.009.004.017.004.03s.004.022.009.03c.009 0 .009-.009.004-.022s0-.03.004-.043c.004.013.004.026.004.043s0 .03.004.043.013.017.017.026c.009-.026.013-.052.013-.078 0-.009-.009-.03-.009-.039s-.009-.013-.013-.022-.009-.013-.017-.013c.013 0 .017.004.026.013s.009.013.013.022c.009 0 .009.022.017.026.017.009.039.013.056.013l-.026-.013c-.009-.009-.017-.017-.022-.03.013.013.017.022.026.026s.035.017.052.017c-.009-.004-.013-.009-.022-.017s-.013-.017-.017-.035-.009-.022-.017-.03-.017-.017-.03-.022c.013-.004.022.004.035.013s.017.022.022.035.009.022.017.03.013.013.022.017c-.013-.026-.009-.048-.013-.074-.004-.017-.03-.035-.022-.043s.017.013.03.017c.022.009.043.017.069.013-.013-.017-.03-.035-.043-.048s-.03-.017-.043-.017c.017-.013.035-.004.052.009s.026.022.039.039c-.013-.026-.022-.039-.03-.052a.28.28 0 0 0-.039-.035c.022.004.035.017.048.03l.026.039c0-.009-.004-.022-.009-.03s-.013-.026-.022-.039-.026-.017-.026-.026c-.017-.009-.026-.009-.03-.013.004-.009.013-.004.022 0 .022.009.03.017.039.017.026.013.056.017.087.013l-.026-.013c-.009-.004-.022-.009-.035-.009.013-.009.026-.004.035 0l.035.013c.009.004.013 0 .022-.004-.017-.013-.022-.03-.026-.048-.013-.013-.026-.026-.039-.035s-.026-.013-.039-.009c.017-.013.03-.009.048 0s.022.017.035.03c0-.039-.022-.065-.052-.069-.009 0-.026 0-.022-.004s.013-.004.03-.009c.052-.013.087-.035.113-.082-.009.004-.013.009-.026.013s-.026.009-.048.013c-.009 0-.022.004-.026.009s-.017.009-.022.017c0-.013.009-.017.017-.022s.017-.009.03-.009c.022-.004.035-.009.043-.013 0-.009-.022-.009-.043-.013-.017.004-.039.013-.052.017s-.026.017-.026.026c-.009-.013.004-.026.022-.035.009-.004.017-.009.03-.013-.026 0-.026-.009-.013-.013s.026-.017.035-.026c.035-.043.056-.091.065-.143-.004.009-.009.017-.017.026s-.017.017-.03.022c-.004.022-.013.039-.026.052s-.03.022-.048.026c.013-.022.026-.035.035-.052s.013-.035.013-.048c.009.017.004.035-.004.052-.004.009-.013.022-.022.03.009-.004.017-.009.026-.017s.017-.03.022-.048c.017-.009.026-.013.03-.022s.013-.017.017-.03c-.017.009-.039.009-.061.009-.061.026-.082.03-.108.039z" class="C"/><path d="M15.815 7.083l-.26-.026c-.087-.004-.178 0-.264.004l.264.004.26.022z" class="C"/><path d="M15.29 7.053l.26-.004a2.64 2.64 0 0 1 .26.026l.004-.017c-.017 0-.026-.009-.026-.017s.009-.017.017-.017l.022-.013-.277-.026c-.095-.004-.186-.004-.282.004l.009.022c.022-.004.03.004.03.013s-.009.017-.017.017h-.004l.004.013zm.394-.039c-.009 0-.017.004-.017.017s.004.017.017.017.017-.004.017-.017-.009-.017-.017-.017zm0 .009zm-.139-.017c-.009 0-.017.004-.017.017s.004.017.017.017.017-.004.017-.017-.009-.017-.017-.017zm0 .009zm-.134-.009c-.009 0-.017.004-.017.017s.004.017.017.017.017-.004.017-.017-.009-.017-.017-.017zm0 .009z" class="C F"/><path d="M15.559 6.91c0-.009-.004-.017-.013-.022s-.013-.009-.022-.013c.009-.013.013-.017.022-.026s.013-.022.013-.03c.009.013.013.022.022.026s.017.013.026.017l-.017.017c-.009.009-.013.017-.013.026zm.004-.013c.004-.009.009-.013.013-.017.009-.013 0-.017-.004-.026-.022.009-.026.013-.03.017.004.004.013.004.017.013zm.078.658l-.065.026.065-.035zm.009-.039l-.078.039.078-.048zm-.234-.017l.078.043-.087-.035zm.004.039l.065.03-.065-.022zm.026.056c.017.004.035.009.048.004s.022-.009.026-.017l.004-.065c-.013 0-.026-.004-.039-.009s-.022-.013-.026-.022-.004-.03 0-.043c.004.009.004.026.009.035s.009.013.017.017a.12.12 0 0 0 .039.004c.013 0 .026 0 .039-.004l.026-.013c.004-.009.009-.013.009-.022-.009-.013-.013-.013-.022-.013h-.026c.017-.009.022-.009.03-.009s.017.004.022.009c.009.026.004.039 0 .048a.07.07 0 0 1-.03.017c-.009.004-.022.004-.035.004l-.004.061c.004.009.013.017.022.017s.03 0 .048-.004c-.017.013-.035.013-.052.013s-.022-.009-.026-.017a.07.07 0 0 1-.03.017c-.013 0-.03 0-.048-.004v-.004zm.043.03h.052l-.052.009z" class="B"/><path d="M15.581 7.231c.022-.017.039-.026.056-.035s.035-.013.048-.013c-.013.009-.026.013-.043.022s-.035.022-.052.035zm-.078.004c-.017-.017-.039-.03-.056-.043s-.035-.013-.048-.013c.013-.009.03-.004.052.009s.039.026.056.043zm-.03.13c.004-.009.013-.017.017-.026l.022-.022c0 .013-.004.022-.013.03s-.013.017-.017.026zm.056-.221c.004.009.009.017.013.03s.004.022.004.035v.03c0 .013-.004.022-.013.03s-.013.013-.022.013h-.022c.004.013.004.026 0 .039-.013-.004-.017-.004-.026-.009-.03-.013-.039-.017-.048-.026s-.013-.009-.017-.017-.009-.013-.009-.022v-.022c-.009-.004-.017-.009-.026-.017s-.013-.013-.022-.017c.013-.004.022 0 .026.009s.017.013.026.017a.21.21 0 0 1 .048.017l.039.026c.013.013.022.013.026.013.022-.017.026-.026.03-.035s.004-.022 0-.03 0-.022-.004-.035l-.013-.026zm-.052.134l-.039-.026a.07.07 0 0 0-.039-.013c0 .026.004.03.009.035s.009.009.017.013.017.009.03.013c.022.009.026.013.03.013-.004-.009-.004-.022-.009-.035zm.104-.126l-.013.026c-.004.009-.004.022-.004.035v.03c0 .009.004.017.009.026a.06.06 0 0 0 .017.013h.022c.022-.017.035-.026.052-.03s.03-.013.048-.013l.026-.013c.009-.004.013-.009.022-.013.004.013-.004.017-.013.026l-.026.013c0 .009 0 .017-.004.022s-.004.017-.013.022-.013.009-.022.017-.017.009-.03.013c-.022.009-.03.009-.035.013-.009-.017-.004-.03 0-.043h-.022c-.009-.004-.017-.009-.022-.017s-.009-.022-.013-.03v-.03c0-.013.004-.026.004-.035s.009-.022.017-.026zm.117.095a.07.07 0 0 0-.039.013c-.013.004-.026.013-.039.022v.004c-.004.013-.009.022-.004.035.017-.009.026-.009.03-.009.013-.004.022-.009.03-.013s.013-.009.017-.013c0-.026.004-.035.004-.039z" class="B"/><path d="M15.654 7.252c-.017 0-.03.013-.03.026s.013.03.026.03.03-.013.03-.026-.009-.03-.026-.03zm0 .009c-.009 0-.017.009-.022.017s.009.017.017.022.017-.009.022-.017-.009-.022-.017-.022zm0 .009c-.013.013-.009.022-.004.022.013-.017.009-.022.004-.022zm-.217-.026c.017 0 .026.013.026.03s-.013.026-.03.026-.026-.013-.026-.03.013-.026.03-.026zm0 .009c.009 0 .017.009.017.022s-.009.017-.022.017-.017-.009-.017-.022.009-.017.022-.017zm0 .009c.009.017.004.026-.004.022-.009-.017-.004-.022.004-.022z" class="B F"/><path d="M18.636 7.139l-1.044-1.187-1.365.784-.23 2.769a11.65 11.65 0 0 1 1.954.329l.685-2.695z" class="G"/><path d="M16.495 7.309c.048-.013.095-.013.139.013.022.009.035.017.043.03.022-.017.043-.03.065-.043a.55.55 0 0 1 .095-.056c.048-.026.1-.039.147-.043s.104-.009.156-.004c.043.004.087.013.126.039l.108.052.113.056a.48.48 0 0 0 .16.026c.03 0 .056 0 .082-.004s.035.009.013.022c-.178.108-.321.013-.442-.03.043.03.082.061.117.091a.69.69 0 0 0 .186.13c.056.026.113.043.191.043.026 0 .052 0 .082-.004.017-.004.022 0 .022.009s0 .017-.009.022c-.048.03-.091.039-.139.043a.57.57 0 0 1-.282-.074c-.074-.039-.121-.087-.178-.13a.42.42 0 0 0-.16-.078c-.052-.013-.108-.009-.156.004.013.004.026.009.035.017.026.013.056.022.104.026.026.004.017.017-.022.039-.022.03-.052.043-.091.039-.052.035-.074.013-.091-.009-.004.013-.004.03-.013.043.004.009.004.017 0 .022.009.013.013.026.009.039s.004.013.013.022.017.022.022.035.004.017.013.026.022.017.03.03a.08.08 0 0 1 .052.069c.026.009.035.026.039.048.013.004.026.013.035.026l.143.004c.043.004.078.03.108.065.022.004.043.004.065 0s.048-.017.069-.017c.043-.004.087-.004.126.004.026.009.048.022.065.039.026.03.065.026.095.009.043-.017.082-.017.13 0 .022-.009.039-.013.061-.009.017-.017.035-.022.052-.022.03 0 .052.004.048.043 0 .009-.009.022-.017.026-.013.03-.039.039-.074.035-.004.022-.013.035-.026.043.017.048 0 .065-.035.065-.009.013-.017.022-.039.017-.013.017-.03.026-.048.026 0 .013.009.017.017.03.022.035-.013.052-.043.052.009.022.009.048.004.069.035.022.039.043.009.061.022.039.013.069-.03.091 0 .022-.004.043-.017.056s-.026.009-.013.026c.017.03.013.065-.013.065-.009.013-.013.013-.017.017-.03.017-.061.035-.087.056-.03.043-.069.082-.108.126-.004.03-.022.052-.052.065 0 .009-.009.017-.017.017.017.017.022.035.009.052s-.043.043-.069.048c-.056.013-.087.013-.108-.009s-.013-.03 0-.039c-.035.004-.039-.013-.039-.039.035-.009.052-.017.069-.022.009-.013.017-.022.026-.03.004-.039.03-.061.061-.069s.052-.035.078-.069l.043-.078c-.009-.013-.013-.026-.013-.043-.013-.009-.022-.017-.03-.026-.022 0-.035-.013-.039-.026-.03.004-.039.009-.056.009-.017.022-.039.035-.061.048-.009.022-.022.026-.039.03-.048.004-.078.065-.104.091-.009.009-.017.022-.022.039-.004.03-.009.056-.026.056-.026-.004-.03-.004-.039-.004.013.013.013.03.004.048s-.03.022-.048.022c-.035.004-.061 0-.087-.013s-.026-.026-.026-.039c-.017-.009-.022-.017-.022-.026s.013-.017.026-.013c.009-.004.022-.009.03-.009a.33.33 0 0 1 .1-.078c.009-.013.022-.026.039-.035.004-.03.026-.052.048-.078.004-.013.004-.022.013-.035-.009-.035-.017-.056-.009-.078-.004-.009-.004-.022-.004-.03-.056.035-.078.022-.082-.004-.022.017-.043.026-.056 0-.022.004-.043.013-.061.004l-.043.013c-.004.013-.013.026-.026.039a.14.14 0 0 1-.026.078c-.009.026-.022.056-.039.082 0 .009 0 .017-.004.026.004.03-.004.048-.026.056-.004.013-.013.026-.022.039.009.03.009.052-.013.069-.017.009-.03.022-.048.026s-.039.004-.052 0c-.03-.009-.026-.022-.022-.03-.009.004-.017.004-.03 0a.06.06 0 0 1-.017-.013c-.004-.013-.009-.022.009-.03s.03-.013.048-.03c.004-.013.013-.022.022-.022.009-.022.022-.035.035-.039.013-.026.022-.056.039-.078.004-.009.009-.017.004-.026.009-.022.013-.022.004-.026-.009-.022-.004-.043.009-.061s.03-.078.017-.104c-.004-.013-.004-.03-.004-.048-.026-.013-.035-.004-.043.009s-.013.03-.022.03c-.004.043-.03.078-.052.087-.004.022-.009.039-.004.061s0 .039-.009.039-.022.009-.03.026c.013.035.009.052-.009.069-.035.035-.078.03-.121.017-.03-.013-.039-.026-.039-.039-.048-.004-.035-.039 0-.048s.074-.039.1-.074c.004-.043.013-.074.035-.078.004-.026.009-.052.022-.074s.017-.043.013-.074c-.026-.017-.026-.03-.004-.048-.022-.013-.017-.03-.017-.043-.048-.017-.039-.03-.026-.048.004-.009.009-.017.004-.022s-.009-.013-.009-.026c-.022-.017-.013-.03 0-.048-.013-.009-.017-.026-.017-.043-.039 0-.052-.022-.03-.052.009-.013.022-.026.035-.035s.017-.03.013-.043c-.013-.03.026-.048.056-.074-.004-.009-.004-.013-.009-.022-.017-.017-.013-.03.004-.048-.004-.009-.004-.013-.009-.022-.043.009-.043-.017-.022-.056-.026-.013-.017-.039.026-.078 0-.009.004-.017.004-.022-.022 0-.039.009-.056.017s-.035.009-.052.004c-.004-.009-.013-.017-.022-.022s-.013-.022-.013-.035c-.052.004-.061-.035-.03-.056.017-.013.03-.026.035-.043.013-.035.043-.056.069-.082 0-.009.004-.022.004-.03-.013-.009-.026-.013-.039-.017-.004-.013-.013-.026-.03-.035-.009-.004-.013-.013-.009-.022 0 .004.004-.013.013-.026z" class="B"/><path d="M17.405 8.604c-.022.013-.039.026-.052.039-.013-.013-.03 0-.013.009-.013.022-.022.026-.039.03-.009-.026-.009-.035-.004-.039v-.004c-.004.013-.009.022-.009.026v.022c-.043.013-.069.061-.1.091-.013.013-.022.026-.026.043-.004.009-.004.048-.013.048-.017-.009-.026-.009-.03 0h-.056c-.013.013.022.009.035.017s.009.013.009.026c-.013.035-.1.026-.126.009-.013-.009-.013-.013-.013-.026.026 0 .039-.004.048-.009-.013-.009-.022-.004-.03-.004h-.026c.013-.013.026-.017.039-.022.03-.03.061-.061.1-.078a.17.17 0 0 1 .043-.035c.004-.035.022-.052.048-.078l.013-.039v-.022c-.009-.017-.017-.035-.009-.056-.004-.013-.004-.026-.004-.039.009-.013.017-.022.026-.026s.013-.009.022-.013v.043c-.013.017-.013.022-.013.026.017-.017.017-.022.022-.026.013 0 .026-.009.039-.017s.026-.022.035-.035v.056c-.013.009-.022.022-.03.039v.004c.013-.013.022-.026.03-.035l.009-.009.043-.026c-.004.017-.004.035 0 .048.013.03.017.048.035.061z" class="C"/><path d="M16.569 8.118l.026-.039c.009-.013.017-.022.026-.03l.004.004c-.009.009-.017.022-.026.03s-.013.022-.017.03c0 .026.004.035.013.048.009-.009.013-.013.017-.022s.013-.013.026-.017.013-.013.017-.017c.009-.017.009-.022.013-.017-.004.013-.004.017-.013.022s-.009.013-.017.017-.017.013-.022.017-.009.013-.013.017c-.013.035-.026.043-.004.056 0 .013.004.022.009.026s.004.022-.009.039c.017 0 .022-.009.026-.013s.013-.013.017-.022.017-.017.022-.026.009-.017.009-.026c.009.009.004.022 0 .03s-.013.022-.022.03l-.017.017c-.004.009-.009.013-.013.022.013.009.009.026.013.039.013-.004.013-.009.017-.013l.013-.022-.009.026c0 .022 0 .035-.009.043-.022.017-.017.022.004.035.004.017.004.035 0 .052v.035l-.009-.017v-.004c-.017.039-.035.065-.035.1-.035.009-.03.043-.03.074-.026.035-.061.065-.104.082-.009.004-.026.009-.03.017s.013.013.022.009c.026-.022.035-.009.009.013.03.035.091.043.121.026.022-.013.03-.026.013-.048 0-.03.013-.056.043-.065.004-.004.004-.017 0-.026-.004-.026 0-.048.009-.069.022-.013.043-.043.048-.074 0-.009.004-.013.004-.022.017-.013.017-.017.022-.022.013-.017.03-.03.048-.022-.004-.013-.009-.03-.009-.043s0-.039.004-.056.017-.03.022-.043.013-.026.017-.039c0 .017-.009.03-.013.043s-.013.026-.017.039c-.004.022-.009.039-.004.056s.004.039.013.052v.004c.009.026.009.035.013.048.017.035 0 .091-.017.117-.009.013-.013.03-.009.043.013.009.004.022-.004.03 0 .022-.004.03-.009.039l-.039.082c-.022.004-.026.017-.035.039-.013.004-.013.009-.017.017-.013.013-.03.022-.048.03s0 .013.009.022.022-.009.03-.022c.009.013 0 .026 0 .035s.03.017.039.017c.022 0 .048-.022.065-.03s.013-.026.004-.043c-.009 0-.017 0-.026-.004s-.022-.004-.03-.009c.013 0 .026.004.035.004s.017.004.026.004v-.013c.013-.013.017-.026.026-.043.022-.013.026-.022.022-.048.004-.009.004-.017.004-.026.017-.026.03-.056.039-.087a.13.13 0 0 0 .026-.078c0-.013.004-.017.013-.017.004-.009.013-.017.017-.026.013-.022.013-.026.017-.03s.004-.017.004-.026-.004-.017-.009-.026-.004-.017 0-.022l.004.004c.009.022.013.03.013.039s0 .017-.004.026c-.009.017-.013.022-.013.03.013 0 .026-.004.039-.009.004-.004.013-.013.017-.022s.009-.017.009-.03c.004.013.004.022-.004.035s-.009.013-.013.022a.12.12 0 0 0 .056-.004c-.004-.026-.004-.048 0-.065s.009-.03.017-.039l-.013.043c-.004.017-.004.035 0 .061.009.013.013.026.03.013.004-.004.013-.009.017-.013.022-.022.035-.039.052-.052s.03-.026.048-.035h.004l-.048.039c-.013.013-.026.026-.043.039 0 .03.004.043.03.035.013-.004.017-.004.03-.013l.043-.026c.009-.004.017-.013.026-.017 0-.009.004-.022.009-.03.009-.026.022-.048.039-.069.013-.009.026-.017.035-.026s.017-.022.022-.035c0 .017-.009.03-.017.043s-.022.022-.039.03c-.017.022-.03.043-.039.065-.004.009-.004.017-.004.026v.048c.013 0 .026-.009.035-.017s.026-.026.039-.039c.004-.009.009-.022.013-.026s.013-.013.022-.017h.004c-.009.009-.013.013-.017.022l-.013.026v.061c.013-.013.03-.022.052-.026a.23.23 0 0 0 .004.056c.004.017.009.03.022.043.004-.009.013-.017.017-.026.013-.013.017-.017.026-.022l.026-.026c-.013.022-.017.026-.022.03-.013.017-.013.022-.013.03.013.013.017.013.03.013.004.022.004.026.026.026v-.026c0-.009.004-.017.004-.026v.03.026c.009.017.017.026.035.035.004-.009.009-.017.009-.022s.004-.017.004-.026c.009.009.009.017.004.026l-.013.026c0 .009.004.017.004.026l.022-.039.004.004c-.004.004-.009.013-.013.017s-.009.013-.009.022c-.026.065-.061.143-.126.169-.035.013-.048.03-.056.065-.013.009-.022.022-.03.035-.022.009-.043.017-.065.017 0 .017.004.022.022.022l.039-.017c.004.004-.004.026-.03.039.022.039.074.03.104.022.022-.004.056-.03.069-.052.004-.009-.004-.022-.013-.03-.039.004-.035-.035 0-.017.013-.004.013-.004.017-.017.03-.013.043-.026.052-.061.03-.035.065-.069.087-.108.004-.009.009-.022.009-.03s.009-.013.009-.022.004-.017.004-.026c.009.009.009.017.004.026s-.004.013-.009.022c.035-.013.065-.03.095-.048 0-.013.009-.017.022-.017.017-.022.009-.035 0-.048-.009-.022.004-.026.022-.039s.013-.039.013-.056-.004-.022-.004-.026v-.004c.009.022.009.022.009.026.013-.009.026-.017.035-.03s-.004-.035-.013-.048c-.017.009-.022.009-.03.013h-.004c.009-.009.013-.009.022-.013l.035-.022c.009-.013-.017-.026-.026-.035s-.026-.026-.039-.035c.017.009.03.017.043.03 0-.022.004-.039-.004-.061 0-.009-.004-.013-.009-.022-.013-.004-.017-.013-.026-.022s-.009-.017-.009-.026c.009.009.013.017.017.026s.013.013.022.017.035.004.048-.004-.004-.03-.013-.043-.004-.017-.009-.03h.004c-.013-.013-.017-.013-.017-.013.022.009.026.013.026.017h.004c.017-.004.03-.013.039-.026-.004-.009-.013-.013-.022-.022s-.017-.013-.022-.022c.013 0 .022.009.026.017l.022.022c.017.004.022.004.03-.013-.004-.009-.004-.013-.009-.022s-.009-.013-.017-.022l.004-.004c.009.009.013.013.017.022s.009.013.013.022c.009 0 .017 0 .022-.004.013-.009.004-.039 0-.052l-.004-.004c.03-.013.03-.026.035-.035.004-.017.004-.009.026-.013s.035-.004.048-.035c.009-.004.013-.009.013-.017.004-.017 0-.026-.017-.026-.026 0-.043.004-.061.022l.009.013c-.035-.013-.056-.009-.078 0 .009.022.009.03.009.035-.009-.009-.009-.013-.013-.022s-.009-.017-.017-.026c-.017-.009-.035-.009-.052-.009.013.013.017.017.022.017l-.004.004c-.017-.013-.022-.017-.026-.017-.013 0-.03.004-.048.013a.08.08 0 0 1-.03.009c.009.009.013.017.017.026s.009.022.013.03v.004c-.009-.013-.013-.022-.017-.03s-.013-.017-.017-.026-.017-.004-.03-.004l.013.017v.004l-.013-.022c-.009 0-.017-.004-.026-.009.004.009.004.022.004.035s.004.03.004.048c-.009-.017-.009-.035-.013-.048s-.004-.026-.009-.039l-.043-.035c0 .022-.004.03-.013.039 0-.013.004-.017.004-.026-.017-.026-.039-.03-.056-.03.004.009.009.013.013.022l.013.026c.009.009.013.013.013.022s.004.017.004.026c-.009-.009-.009-.017-.013-.026s-.004-.013-.013-.022l-.013-.026c-.004-.009-.013-.017-.017-.026h-.022l.004.004c-.026-.009-.039-.009-.056-.004a.4.4 0 0 1 .035.056c.009.022.017.043.022.065-.013-.022-.017-.043-.03-.065s-.022-.039-.035-.056c-.013 0-.022.004-.03.004.017.013.022.017.026.022v.004a.06.06 0 0 1-.017-.013.06.06 0 0 0-.017-.013c-.022.004-.022.009-.026.009.009.009.017.013.026.022s.022.022.03.035v.004c-.013-.013-.022-.026-.035-.035s-.022-.017-.03-.026c-.013.004-.022.004-.035.004.009.013.013.03.017.043s.009.03.009.048c-.009-.017-.013-.03-.017-.048s-.013-.03-.017-.043c-.009 0-.013 0-.022-.004.004.013.009.026.009.039s.009.035.009.048c-.009-.017-.013-.035-.017-.048l-.013-.043c-.022-.022-.043-.043-.069-.056.004.009.009.013.013.022s.009.026.009.039c-.009-.013-.009-.026-.017-.035s-.009-.022-.017-.03l-.074-.009c.013.013.026.026.022.039-.009-.013-.022-.026-.035-.039h-.03c.004.004.013.013.013.017l.013.026c0 .013.004.026.009.035s.013.017.026.022c-.017 0-.026-.009-.03-.017s-.009-.022-.009-.035-.004-.013-.009-.022-.013-.013-.017-.022h-.035l.013.043c.004.017.004.039.004.056-.009-.017-.009-.039-.013-.056s-.004-.03-.013-.043h-.004c-.009-.013-.013-.017-.026-.022v.004l-.004-.004c-.009-.03-.017-.039-.035-.048v.022c0 .009-.004.017-.009.026 0-.013.004-.022.004-.03v-.022h-.004c-.004-.035-.013-.052-.048-.065 0 .022 0 .03-.004.035v-.026-.022l-.026-.026c0 .013 0 .026-.004.039s-.013.03-.022.043c.004-.017.013-.035.017-.048s.004-.026.004-.043c-.022-.004-.017-.009-.017-.009l.009-.022c0-.009-.009-.017-.013-.026-.009.013-.009.017-.013.026.004-.022.009-.026.009-.03-.017 0-.017.004-.022.004h-.004c.009-.017.013-.017.013-.022.004-.026-.004-.035-.013-.048a.28.28 0 0 0-.043.017h-.004c.009-.009.017-.017.026-.017s.017-.004.022-.004c-.026-.004-.048 0-.061 0s-.03 0-.039-.004c.013 0 .026.004.043 0s.035-.004.061-.013c.004-.009.009-.022.013-.03-.009.004-.017.004-.026 0 .009-.009.017-.009.03-.013 0-.022.013-.022.022-.013s.013.017.022.022c.017.009.035 0 .043-.009l.009-.009c.03.004.052-.004.074-.026h-.048c-.017 0-.026-.004-.039-.009.013 0 .026.004.039.004s.035.004.052 0c.013-.013.022-.017.03-.022-.039-.004-.074-.013-.104-.03-.009-.009-.022-.013-.035-.017-.026-.004-.052.004-.074.013l-.017-.017c-.009 0-.017-.004-.026-.009h-.035c.013-.009.022-.009.035-.009s.022.004.03.009c.035-.013.065-.022.091-.022.03-.009.061-.013.095-.013.017-.026.022-.043.017-.056s-.022-.03-.043-.043c-.022.004-.043-.004-.069 0-.013 0-.03.004-.043.009.013.004.022.013.03.022s.017.03.022.052c-.013-.022-.017-.035-.03-.048s-.035-.022-.039-.022l-.069.009c-.017.004-.03.009-.039.017.017-.004.03-.004.048.004s.026.017.03.039l-.039-.03c-.022-.013-.069 0-.087.013s-.022.017-.035.03c.004-.022.013-.035.026-.043s.026-.013.035-.017c.013-.013.03-.022.052-.03a.38.38 0 0 1 .069-.009c-.009-.013-.017-.022-.026-.03s-.026-.004-.039-.004c-.03.009-.056.026-.082.043h.03c0 .013-.013.013-.022.009h-.022-.004c-.03.017-.052.039-.078.061h-.004c-.022 0-.039.004-.048.009s-.009.017-.009.03-.009.026-.009.043c-.026.022-.056.048-.069.082l-.013.026c.017.004.017-.004.022-.009s.004-.017.009-.022c0 .009 0 .017-.004.026s-.004.017-.004.026c-.013-.017-.017-.017-.022-.017l-.017.017c-.004.004-.009.009-.013.017s.013.013.03.017c.035 0 .009.022.026.039.009.004.017.013.022.022.013.004.022.004.03 0 0-.022 0-.035.009-.035.004-.013.009-.017.013-.022-.004.022-.004.022-.009.026v.022a.12.12 0 0 1 .056-.013c.035-.043.052-.03.022 0-.009.017-.013.026-.013.043-.009.009-.052.043-.039.056.009.022-.009.043-.004.056.03-.004.043-.017.052-.03s.022-.026.03-.043.013-.03.017-.043.009-.026.017-.039l.017.017c.017.004.022.004.026 0 .013-.013.013-.017.017-.013-.004.013-.009.017-.017.022-.022.004-.026.004-.035 0-.017 0-.022.009-.026.022l-.013.039c-.009.026-.022.039-.035.056l-.03.03c0 .009.004.017.009.026.017-.017.039-.035.052-.052s.03-.035.039-.056c0 .013-.009.022-.013.035v.004c-.004.03-.004.043-.004.052-.009-.013-.009-.026-.009-.039-.03.022-.048.039-.069.056s-.03.022-.013.039c.004-.004.013-.009.017-.013l.022-.013h.004v.004l-.022.013c-.009.004-.013.009-.022.013 0 .009 0 .013.004.022h.004l.043-.03h.004v.004c-.013.009-.026.022-.043.03l-.004.004c-.013.009-.065.039-.056.061l.035-.013c.013-.004.022-.013.035-.026l.004.004c-.013.013-.022.022-.035.026v.004.004l-.009-.004v-.004c-.009.004-.022.009-.03.013.004.022-.004.039-.017.052-.004.004-.056.043-.035.056.03.009.035.013.043.013z" class="C"/><path d="M16.59 7.421c-.009-.004-.022-.013-.035-.017-.009-.013-.017-.022-.026-.03.004-.013.013-.017.013-.022.017.004.022.009.026.013-.013-.013-.022-.017-.03-.017-.026-.013-.03-.017-.026-.03.022.004.026.009.026.013l.004-.004c-.017-.009-.022-.013-.026-.013.043-.009.082-.009.117.013.022.009.03.017.039.03-.035.009-.052.013-.065.022-.013.017-.017.03-.017.043z" class="C"/><path d="M17.431 8.595c-.009.004-.013.009-.022.009a.13.13 0 0 1 .017-.026z" class="B"/><path d="M17.539 8.821c-.004.009-.013.017-.022.022s-.017.013-.026.022h-.004V8.86c.009-.004.017-.013.026-.017l.022-.022zm.07-.083c-.009.017-.009.022-.013.017.004-.009.009-.017.009-.022zm-.039-.004c0 .009-.004.017-.009.022a.08.08 0 0 1-.022.017h-.004c.009-.009.017-.013.022-.022s.009-.013.009-.022zm.069-.087c-.009.013-.013.017-.013.022.004-.017.009-.022.013-.022zm.056.009c-.004.009-.004.017-.009.026l-.013.026c0-.013.004-.022.004-.026s.004-.017.009-.022zm-.026-.329c.017.026.022.052.022.078 0-.009.004-.017.009-.03s.013-.022.013-.03.004-.022 0-.03c.009.013.009.022.009.035s-.009.022-.013.03l-.013.052v.004l-.004-.004c0-.035 0-.065-.022-.1zm-.043.052z" class="B"/><path d="M17.618 8.456c.004.013.009.03.009.043s.004.022.004.03l.004-.004c.004-.004.009-.009.017-.013h.004l-.017.017c-.009.022-.013.022-.013.017 0-.017 0-.03-.004-.043s-.004-.03-.009-.043z" class="B"/><path d="M17.673 8.482c.004.013.004.022.004.035v.03c-.009-.009-.009-.022-.009-.03s0-.022-.004-.03zm.053-.008c0 .009.004.022.004.03s-.004.022-.009.03-.004.022 0 .03.004.022.009.03V8.6a.13.13 0 0 1-.017-.035c0-.013 0-.022.004-.035s.004-.017.004-.026 0-.017-.004-.03z" class="B"/><path d="M17.752 8.387c-.004.022-.009.026-.009.035-.004-.009 0-.013 0-.022zm-.026-.138l.004.017c-.009-.017-.009-.022-.004-.017zm.013-.108v.043c-.004.004-.009.013-.013.022s-.004.017 0 .03c-.013-.013-.009-.026-.009-.035s.009-.017.013-.022v-.017-.022zm-.104-.039c.017.009.03.022.039.039s.017.03.013.048l-.004.004-.026-.013c.004.039.004.074-.004.095s-.026.043-.052.052c0-.017.004-.035.004-.048v-.043a.05.05 0 0 1 .009.048c-.004.018-.004.026-.009.039.022-.009.035-.026.043-.048s.009-.056.004-.1c.013 0 .022.004.035.009 0-.017-.004-.03-.013-.043s-.022-.026-.039-.035zm.277-.052zm-.065-.004c.017.013.017.017.022.022v.004c-.017-.013-.022-.013-.026-.017z" class="B"/><path d="M17.747 8.076c.009.009.013.017.013.026s.004.022 0 .035c-.009-.013-.009-.022-.009-.03s0-.022-.004-.03zm-.325.029v.026c-.009-.017-.009-.022-.009-.026zm.061-.029l.004.022v.004h-.004v-.004c-.009-.022-.009-.026 0-.022zm.121.081c0 .017 0 .022-.004.022l-.004-.009v-.004zm.044-.094c.004.017.004.022 0 .017v-.009z" class="B"/><path d="M17.353 8.08c.009.022.009.03.013.035s.009.013.013.022 0 .013.004.022c-.009-.009-.009-.013-.009-.022s-.004-.013-.009-.022-.009-.013-.013-.017-.004-.013-.004-.022z" class="B"/><path d="M17.47 8.158c.009.013.009.026.013.039v.039c-.004.013 0 .03.009.043s.022.026.035.035c-.004-.017-.009-.035-.009-.048s.004-.035.017-.052c.004-.009.009-.013.013-.022s.004-.017.004-.022c.009.009.004.017.004.026s-.009.017-.013.022c-.013.017-.017.035-.017.052s.004.035.009.056c-.022-.009-.039-.022-.048-.039a.06.06 0 0 1-.009-.048c0-.013.004-.026 0-.035s-.004-.022-.013-.035z" class="B"/><path d="M17.422 8.231c0 .013-.004.026-.009.039s-.013.022-.022.03c.022-.009.026-.013.035-.017s.009-.009.017-.013.009-.013.017-.017c0 .013-.009.017-.013.026-.013.017-.013.017-.013.022l-.009-.004c-.009.004-.013.009-.022.013s-.017.004-.022.009c.004-.017.017-.03.022-.043s.009-.026.009-.039z" class="B"/><path d="M17.366 8.227v.013l-.009-.013z" class="B"/><path d="M17.327 8.158c.009.017.009.035.009.052s-.009.03-.022.048c-.013.009-.022.022-.026.035s-.009.017-.009.026c.017-.022.026-.026.035-.03l.035-.022c.009-.009.022-.017.03-.026l.004.004c-.009.009-.017.022-.03.026s-.022.017-.035.022l-.026.013c-.009.004-.013.017-.017.026 0-.017.004-.03.009-.043s.013-.026.026-.035.017-.026.022-.043 0-.03-.009-.048zm.122.191c0 .004 0 .009.009.022.013.022.017.039.017.052s-.004.03-.004.048c-.009-.017-.013-.035-.026-.048l-.043-.039c.022.009.039.022.048.035s.017.022.017.035c0-.013.004-.022.004-.035s-.004-.03-.013-.043c-.013-.022-.017-.026-.013-.035zm.051-.005c.009.017.009.017.009.022h-.004c-.004-.013-.009-.013-.004-.022zm.061.022l-.013.039-.013.039c0-.017.004-.03.009-.043l.013-.039zm.035.208v.013z" class="B"/><path d="M17.561 8.513c0 .009-.004.013-.004.022s-.004.013-.004.022c-.004-.013 0-.017 0-.026s.004-.013.004-.022zm-.056 0l.004.004-.004.004v-.009zm-.061-.03c-.004.017-.009.022-.009.026 0-.022.004-.026.004-.03zm-.091.095c-.009.017-.013.022-.013.026 0-.022.004-.026.013-.026zm-.26.255l-.013.017h-.004c.009-.017.013-.017.013-.022zm.044-.021l-.017.013.013-.013zm.051-.034l-.009.009h-.004v-.004l.004-.004zm.083-.208c-.004.009-.004.013-.004.022v.022.004c-.004-.013-.009-.022-.004-.03s.004-.017.004-.022zm.052-.56c-.009.022-.013.03-.017.035l-.004-.004c.004-.004.009-.013.013-.017zm-.057-.052c.004.009.009.017.009.026v.026c-.009-.009-.009-.017-.009-.026s-.004-.017-.009-.026zm-.073.092c-.009-.009-.017-.013-.022-.022s-.004-.017-.004-.022c.009.009.009.013.013.022s.013.013.022.022zm.082.143v.004.004l-.009-.004v-.004z" class="B"/><path d="M17.171 8.084c.017.017.026.035.03.056.004.013.004.026.004.039.009-.004.013-.009.017-.022s.004-.026.009-.048c.004-.009.009-.017.013-.03s.004-.022.004-.03c.013.013.022.026.03.043s.013.03.013.048l-.022-.048c-.004-.013-.013-.026-.022-.035 0 .009 0 .013-.004.022s-.004.022-.013.03a.12.12 0 0 1-.009.048c-.005.013-.013.022-.022.022-.004.009-.004.013-.004.022-.009-.022-.009-.048-.013-.065.009-.013 0-.03-.013-.052zm.061.265c0 .009-.004.013-.004.022s-.004.013-.004.022c-.009-.009-.004-.013-.004-.022s.004-.013.004-.022zm-.117.052c.004.017.004.022 0 .022-.004-.009-.004-.017-.009-.022z" class="B"/><path d="M17.215 8.262c0 .013-.004.022-.009.03s-.009.022-.017.03-.013.022-.017.035 0 .026.004.039V8.4c-.009-.013-.009-.026-.009-.039s.009-.026.017-.039a.07.07 0 0 0 .017-.03c.004-.009.009-.022.009-.03z" class="B"/><path d="M17.189 8.223c0 .009 0 .022-.004.03s-.013.022-.022.03-.017.017-.022.026-.009.017-.013.03c0-.013.004-.026.009-.035s.013-.017.022-.026.017-.022.022-.03.004-.017.004-.03zm-.131.06c.004.022 0 .039-.009.056s-.022.03-.035.043h-.004l.035-.043c.009-.013.009-.035.009-.052zm-.164.095l.009.022-.013-.017z" class="B"/><path d="M16.824 8.379c0 .013 0 .026.004.039s.009.022.017.035.009.017.009.026c.013.009.017 0 .022-.009s.009-.022.009-.035c.009.013.004.022 0 .035s-.013.022-.026.03h-.004c0-.009 0-.017-.004-.026s-.004-.017-.009-.026a.56.56 0 0 1-.017-.035c-.004-.009-.004-.026-.004-.039zm.009.225c0-.009 0-.013.004-.022s.004-.013.009-.022v.026c0 .009-.004.013-.004.022zm-.004.065c0-.009.004-.017.004-.026.009.009.004.017.004.026zm-.043.104c.017-.017.022-.026.026-.03 0 .013-.004.017-.009.022-.017.013-.017.013-.017.009zm-.065-.355v.009l-.009-.009z" class="B"/><path d="M16.616 8.665v-.017l.009.009zm.265-.433c-.004.017-.009.039-.009.056s.004.03.017.039.017.022.026.035c.004-.026.004-.035.004-.039.009.009.009.017.009.026s-.004.017-.004.026c-.013-.022-.017-.035-.03-.039s-.017-.022-.017-.043a.25.25 0 0 1 .009-.056zm-.018-.074v.043l-.013.043c-.009.017-.009.035-.009.052s.004.035.013.052v.004c-.013-.017-.017-.039-.017-.056a.25.25 0 0 1 .009-.056l.013-.039c.004-.013.004-.026 0-.039z" class="B"/><path d="M16.738 8.335c-.004.009-.004.017-.004.026s.004.017.009.026v.004c-.009-.009-.013-.017-.017-.026s0-.017.004-.03zm-.052-.021c0 .022 0 .026-.004.03 0 .017.004.022.009.026v.004c-.009-.004-.013-.013-.013-.017.004-.022.009-.026.009-.03zm.316-.464v.043l.013.039v.004c-.013-.013-.017-.026-.022-.039s-.004-.03 0-.043zm-.043.039a.13.13 0 0 1 .017.043c.004.017.009.03.009.052-.009-.017-.013-.035-.017-.048s-.009-.03-.017-.039z" class="B"/><path d="M16.764 7.893c-.017.026-.026.048-.03.069s.004.035.013.048.009.03.009.043-.004.03-.009.043c0-.017.004-.035.004-.048s0-.03-.009-.043-.013-.03-.013-.052.009-.043.03-.069z" class="B"/><path d="M16.946 7.814c0 .009 0 .017-.004.026s-.009.013-.017.022-.013.017-.017.026 0 .022 0 .039c-.013-.013-.013-.03-.009-.039s.009-.022.017-.03.013-.013.017-.017.004-.013.004-.022z" class="B"/><path d="M16.755 7.833c.004.013.004.022 0 .035s-.009.022-.022.035-.017.017-.022.03-.004.026-.004.039c-.009-.013-.004-.03-.004-.043s.009-.026.022-.035a.13.13 0 0 0 .022-.03c.004-.009.004-.022 0-.03z" class="B"/><path d="M16.863 7.837c0 .017.004.022.004.026v.004c-.009-.017-.009-.022-.009-.026z" class="B"/><path d="M16.859 7.81c-.009.004-.017.013-.022.022s-.009.022-.009.039l.013.026c.004.009.004.022.004.035-.009-.013-.009-.026-.013-.035s-.004-.017-.009-.022c-.022.022-.03.039-.03.065a.14.14 0 0 0 .026.078v.004c-.022-.03-.035-.056-.035-.082s.013-.048.035-.069c0-.017.004-.03.009-.043s.013-.022.026-.026z" class="B"/><path d="M16.829 7.767c0 .017-.004.035-.013.043s-.009.013-.013.017-.004.013-.004.022c-.009-.009-.004-.017-.004-.022s.009-.013.013-.017.009-.022.013-.035zm.308.33c.004.009.004.013.009.022s.004.013.004.022c-.009-.009-.009-.013-.009-.022s-.004-.013-.009-.022z" class="B"/><path d="M17.136 8.197c.004.013.004.022 0 .035s-.004.026-.013.035-.009.022-.013.03c0-.013.004-.026.009-.035l.013-.035v-.035z" class="B"/><path d="M17.071 8.102a.16.16 0 0 1 .035.065c.004.022.004.048 0 .069.004-.03.004-.052-.004-.074-.004-.013-.017-.035-.03-.061z" class="B"/><path d="M17.067 8.214c-.004.013-.013.026-.022.035s-.017.026-.026.035-.013.013-.017.022l-.013.026c-.004-.009-.004-.017-.009-.026s-.004-.017-.013-.026-.013-.03-.013-.048.009-.03.017-.043.009-.022.013-.03.004-.022.004-.03c.009.013.009.022.004.035l-.013.035c-.009.013-.017.03-.017.043s.004.026.013.043l.013.026a.28.28 0 0 0 .03-.026l.026-.035c.009-.013.013-.022.017-.035zm-.169-.052c0 .013 0 .026.004.039l.013.035v.004c-.013-.013-.017-.022-.017-.035s-.004-.026-.004-.039z" class="B"/><path d="M16.803 8.214v.009.009l-.009-.009v-.009zm.03-.087c0 .009 0 .017-.004.026l-.013.026c0-.013.009-.022.009-.03s.004-.017.004-.026z" class="B"/><path d="M16.75 8.296c-.017-.039-.017-.069-.017-.095s.017-.043.03-.061c.009-.009.017-.022.026-.035s.009-.03.004-.048c.009.022.009.039 0 .052s-.017.026-.026.035-.026.035-.03.056 0 .052.013.091z" class="B"/><path d="M16.699 8.231c-.004.022 0 .03.004.035v.004c-.009-.009-.013-.013-.013-.022s0-.013.004-.022zm.242-.172c.009.013.017.03.017.043s-.004.03-.013.048c.004-.022.009-.035.004-.048s-.009-.03-.017-.043z" class="B"/><path d="M17.019 7.997c.004.013.009.03.009.043s0 .03-.004.048l-.013-.039c-.004-.013-.013-.022-.022-.03.017.004.022.013.03.026s.004.017.009.022c0-.009.004-.017 0-.026s-.004-.03-.009-.043zm.044-.06c.009.009.017.022.022.039s.004.035.004.056v.026c0 .009.004.017.009.022v.004c-.009-.009-.013-.017-.013-.026v-.026c0-.022 0-.039-.004-.056s-.009-.026-.017-.039z" class="B"/><path d="M16.946 7.924c-.009.009-.009.017-.013.026v.035c-.009-.013-.013-.026-.009-.035l.013-.03zm-.238.16c0 .022-.009.043-.017.056s-.026.026-.043.039h-.004c.017-.013.03-.026.043-.039s.017-.035.017-.056z" class="B"/><path d="M16.703 8.002v.026c0 .009-.004.017-.009.026 0-.013.004-.022.004-.03s.004-.017 0-.022zm.16-.008v.009c0 .013 0 .026.004.043v.004l-.013-.048z" class="B"/><path d="M16.902 7.919c-.013.013-.017.026-.017.039s.004.026.009.039c.013.022.017.043.017.065s-.009.043-.017.065c.004-.026.013-.048.013-.065a.12.12 0 0 0-.017-.061c-.004-.013-.009-.026-.009-.043s.004-.03.017-.043zm-.247-.438c.017-.013.039-.022.056-.026a.17.17 0 0 1 .061.013h.022.022c-.009.009-.013.009-.022.009h-.022a.13.13 0 0 1-.061.035.06.06 0 0 1-.048-.009c.017.004.03.009.048.004s.03-.013.052-.03c-.017-.009-.035-.013-.052-.009s-.035.009-.052.022h-.004z" class="B"/><path d="M16.708 7.469c.013.022.009.026 0 .026-.013-.017-.004-.026 0-.026zm.099.086c.009-.004.017-.013.026-.017l.017-.017c0 .009-.004.017-.013.022s-.013.013-.026.017zm.199-.082c.022 0 .026.004.03.009l-.03-.004zm-.112.004c.004-.009.013-.017.022-.022s.022-.009.035-.004c-.013.009-.026.009-.03.013s-.013.013-.017.022z" class="B"/><path d="M16.907 7.494c.009-.017.013-.017.017-.022h.004c-.017.013-.017.013-.017.017zm-.19.065l-.013.035c-.009-.009-.009-.013-.004-.022.013-.017.013-.017.017-.013zm.051.023v.009l-.009-.009zm-.035-.061c.022.004.03.004.035.004h.004c-.022.009-.03.009-.035.004zm.035-.1c-.017.009-.017.013-.022.013.009-.022.013-.022.017-.022zm-.056.004c-.022.009-.022.004-.017.004.009-.013.013-.013.017-.017zm-.035.001c-.013.013-.013.013-.013.017.009-.022.009-.022.013-.026z" class="B"/><path d="M16.634 7.463c-.013.013-.017.017-.017.022.009-.022.013-.026.017-.026zm.004.049l-.017.017-.004-.004.009-.009zm-.047.013v.017l-.009-.017zm.06.078c0 .009 0 .017-.004.03-.009-.009-.009-.017-.004-.03zm-.035-.026c0 .017 0 .022-.004.022-.004-.009-.004-.017-.004-.022zm-.034-.242c.022.013.026.017.026.026v.004c-.017-.017-.022-.017-.026-.022zm.281.363c.004.013.009.026.009.035s-.004.026-.009.035c0-.017.004-.026.004-.039s-.004-.022-.009-.035z" class="B"/><path d="M16.773 7.803c.004-.013.009-.026.017-.035s.013-.022.022-.03a.13.13 0 0 0 .017-.035c.004-.013.004-.026 0-.039.013.013.013.03.009.043s-.009.026-.017.039-.013.017-.022.03-.013.022-.017.035z" class="B"/><path d="M16.655 7.772c.013-.017.017-.022.022-.022h.004c-.017.017-.017.022-.022.026zm-.021-.008c.004-.004.009-.013.013-.017s.013-.009.017-.013h.004c-.004.009-.013.009-.017.013-.017.022-.017.026-.017.017zm.121-.122c.017.004.022.004.026.004h.004c-.017.004-.022.004-.03 0zm-.06-.004l.004-.004.004.004zm1.304.377l.013.017v.004c-.013-.013-.013-.017-.013-.022zm-1.452.681c.004.004.013.009.022.013s.013.004.022.004c-.009.009-.017.004-.026.004-.004-.009-.013-.013-.017-.022z" class="B"/><path d="M17.643 7.394l.091-.004c-.03.022-.065.035-.104.039.009-.004.013-.013.013-.017z" class="D"/><path d="M17.565 7.387c.022.004.043.004.065.009.004.017-.004.022-.009.03-.013.009-.03.013-.043.013h-.022c.013-.009.017-.017.017-.026s-.004-.022-.009-.026z" class="D"/><path d="M16.998 7.221c.035-.004.074-.004.113-.004.013.004.022.013.026.022s.009.026.004.043c.013-.022.009-.035 0-.048-.004-.004-.009-.013-.013-.017a.25.25 0 0 1 .121.035c.009.009.009.017.009.026s-.009.022-.017.03c.017-.004.026-.013.026-.026.03 0 .065.013.095.03.004.009 0 .017-.004.022s-.013.013-.026.017c.017.009.03 0 .035-.009s.009-.017.004-.026c.022.013.043.022.061.035.004.009.004.013 0 .022s-.009.013-.022.017c.017.004.026 0 .03-.009.013-.013.017-.013.026-.009.022.009.043.013.069.017.004.009.009.013.004.022s-.004.013-.013.022c-.082 0-.152-.039-.225-.065-.009-.004-.017-.009-.026-.009-.026-.009-.056-.026-.082-.035h-.004-.004-.004c-.026-.009-.052-.013-.078-.017a.29.29 0 0 0-.087 0h-.004c.004-.017 0-.03-.009-.043.017-.03.009-.035-.004-.043z" class="D"/><path d="M16.868 7.256a.56.56 0 0 1 .113-.035c.017.009.03.017.035.026s.009.022.004.035h-.048c-.017 0-.035.004-.052.013-.009-.017-.022-.03-.035-.035z" class="D"/><path d="M17.271 7.464c-.009-.004-.022-.013-.03-.017a.45.45 0 0 0-.165-.048c.022-.022.026-.039.017-.061-.004-.013-.017-.026-.035-.039.017 0 .039 0 .056.004.03.004.065.013.1.026.009.017.009.035.009.048s-.013.026-.03.035c.03-.004.039-.017.043-.035s.004-.026-.004-.043c.022.009.043.022.056.035l.056.039c0 .022-.009.035-.017.043s-.03.009-.048.004z" class="D"/><path d="M17.383 7.547l-.1-.078c.017 0 .035 0 .048-.009s.022-.022.022-.043l.061.052c.009.009.017.017.03.026.004.009.004.017.004.022-.009.017-.013.022-.017.022s-.022.004-.035 0z" class="D"/><path d="M17.497 7.619c-.013-.004-.022-.013-.035-.017-.026-.013-.048-.03-.074-.052.013 0 .026 0 .035-.004s.013-.004.022-.013.009-.013.009-.022c.022.009.048.026.074.039.013.009.026.017.039.022 0 .013-.004.022-.013.026s-.03.009-.052.009z" class="D"/><path d="M17.621 7.668c-.039-.009-.078-.026-.113-.043.022 0 .039-.004.048-.009s.022-.013.022-.03c.022.013.048.022.069.03.004.009.004.017 0 .022s-.013.013-.026.022z" class="D"/><path d="M17.877 7.642c.004 0 .026-.004.013 0-.074.048-.173.048-.26.026.013-.004.026-.013.03-.022s.004-.013.004-.026l.087.022c-.009.017-.017.026-.03.03.017.004.03 0 .035-.009.043-.013.078-.017.121-.022zm-.524 1.299c-.004.004-.009.013-.013.022-.022.009-.043.017-.065.017 0 .017.004.022.022.022l.039-.017c.004.004-.004.026-.03.039.022.039.074.03.104.022a.13.13 0 0 0 .069-.052c.004-.009-.004-.022-.013-.03-.022.004-.03-.009-.026-.013-.03-.009-.056-.009-.087-.009zm-.819-.254c-.017.013-.035.026-.056.03-.009.004-.026.009-.03.017s.013.013.022.009c.026-.022.035-.009.009.013a.11.11 0 0 0 .121.026c.022-.013.03-.026.013-.048l-.035-.017-.022-.013-.022-.017z" class="D"/><path d="M17.075 8.872h-.004c-.013.013.022.009.035.017s.009.013.009.026c-.013.035-.1.026-.126.009-.013-.009-.013-.013-.013-.026.026 0 .039-.004.048-.009-.013-.009-.022-.004-.03-.004h-.026-.004c.017-.013.03-.017.043-.022l.004-.004.065.013z" class="D"/><path d="M16.686 8.852c-.022.03-.039.039-.056.048s0 .013.009.022.022-.009.03-.022c.009.013 0 .026 0 .035s.03.017.039.017c.022 0 .048-.022.065-.03s.013-.026.004-.043c-.009 0-.017 0-.026-.004s-.022-.004-.03-.009l-.035-.013zm.151-1.431c.03 0 .039.004.048.009.035-.013.065-.022.091-.022a.34.34 0 0 1 .095-.013c.017-.026.022-.043.017-.056s-.022-.03-.043-.043c-.022.004-.043-.004-.069 0-.013 0-.03.004-.043.009.013.004.022.013.03.022s.017.03.022.052c-.013-.022-.017-.035-.03-.048s-.035-.022-.039-.022l-.069.009c-.017.004-.03.009-.039.017.017-.004.03-.004.048.004s.026.017.03.039l-.039-.03c-.022-.013-.069 0-.087.013s-.022.017-.035.03l-.004.004c.043.013.082.013.117.026zm-.126-.022c.013-.017.022-.03.035-.039s.026-.013.035-.017c.013-.013.03-.022.052-.03a.38.38 0 0 1 .069-.009.16.16 0 0 0-.026-.03c-.009-.008-.026-.004-.039-.004-.03.009-.056.026-.082.043h.03c0 .013-.013.013-.022.009h-.022-.004a.95.95 0 0 0-.069.052c.022.009.035.017.043.026z" class="D"/><path d="M19.819 10.476l1.122-2.548-.828-1.335-1.478.546-.685 2.691c.646.165 1.27.381 1.868.646z" class="H"/><path d="M18.384 8.119c.741.191 1.456.438 2.145.741l-.433.984a12.23 12.23 0 0 0-1.976-.685l.264-1.04z" class="E"/><path d="M20.166 9.686l.29-.654c-.676-.299-1.387-.546-2.115-.732l-.169.672a13.05 13.05 0 0 1 2.006.693l-.013.022z" class="D"/><path d="M18.549 8.811c.017-.013.039-.009.061-.004.017-.004.035-.009.056-.009.009-.004.017-.009.03-.009l-.009-.035c-.035-.017-.048-.048-.056-.078-.017-.004-.026-.013-.03-.017s-.017 0-.026-.004c-.043.004-.056-.009-.069-.022-.013-.004-.026-.013-.03-.026-.004-.004-.009-.013-.013-.017-.013-.013-.009-.035.009-.035s.026 0 .035-.004.035-.004.048-.004.03-.013.048-.03v-.022c.03-.009.048.004.056.017.026.004.048.017.065.039.035 0 .061.013.065.026s-.009.022-.026.035c.009.017.017.026.022.035.022.009.039.017.056.035.052-.004.139.03.26.108a.93.93 0 0 1 .221.065h.043c.13-.017.251-.004.368.082a.39.39 0 0 1 .121.035c.026.013.056.017.087.017a.44.44 0 0 1 .143.039c.052.013.104.03.134.065.022.026.017.052-.013.061-.017.035-.052.035-.1.017-.035.004-.074-.022-.108-.048a.58.58 0 0 1-.134-.074c-.022-.017-.043-.026-.069-.03-.017-.004-.035-.004-.043 0 .013.017.022.035.022.052s0 .035 0 .052.013.035.035.048c.013.009.03.017.056.022.013.004.013.009.013.017.009.03.013.065.026.091.004.009.009.013.017.017.03.022.017.048-.013.052-.026.022-.048.039-.074.043s-.03 0-.035-.013c-.013 0-.017-.004-.026-.013-.026-.017-.004-.052.056-.039.009-.026.009-.043.013-.056-.039-.017-.061-.026-.078-.039-.03-.03-.078-.052-.126-.078-.039 0-.065-.022-.095-.035h-.039c-.013-.004-.022 0-.03.009s-.026.013-.043.009-.039 0-.056 0c-.009.004-.017.004-.03.004-.022 0-.043 0-.056.009s-.022.013-.035.009-.017-.009-.017-.013c-.013-.004-.026-.009-.026-.013-.026-.009-.03-.013-.03-.022-.035-.009-.017-.035.004-.035s.048.004.074.009.048.004.065-.013c.013-.009.013-.017.03-.026-.043-.004-.074-.009-.1-.026-.065-.039-.113-.048-.152-.017-.009.004-.017.009-.03.004s-.022-.004-.03 0c-.022.004-.043.004-.069-.004-.035.009-.065.009-.1.004-.026.013-.048.017-.061.004s-.026-.013-.035-.022c-.017-.004-.026-.009-.026-.013-.022-.004-.026-.013-.026-.022-.009-.013-.004-.017.004-.026.017-.009.035-.009.052 0s.022.013.026.017c.013 0 .026 0 .035.004.009-.013.026-.013.052-.009.013-.009.026-.013.043-.013-.022-.013-.035-.03-.043-.048-.035 0-.061-.013-.082-.03-.022 0-.035-.004-.052-.013h-.039a.12.12 0 0 1-.078 0h-.043c-.017.017-.035.022-.052.013-.009-.013-.026-.022-.043-.026s-.017-.013-.022-.017c-.017-.013-.013-.022.004-.03s.03-.009.052.004z" class="B"/><path d="M19.394 9.067c-.056-.009-.104-.004-.134-.026s-.069-.043-.108-.039c.013-.013.026-.017.043-.022s.048-.004.078 0c.039.009.078.013.104.026s.048.022.056.039.026.017.03.026l.017.017c-.013 0-.026 0-.039-.004-.022-.004-.035-.009-.048-.017z" class="E"/><path d="M19.485 7.131l.004.013.052.26-.199.173-.009.009.013.004.251.087.052.26.004.013.009-.009.204-.173.251.087.013.004-.004-.013-.052-.26.199-.173.009-.009-.013-.004-.251-.087-.052-.26-.004-.013-.009.009-.204.173-.251-.087-.013-.004z" class="B"/><path d="M19.364 7.577l.186-.165.238.082-.425.082zm.455-.091l.191-.165.234.082-.425.082z" class="C"/><path d="M20.244 7.412l-.186.165-.238-.082.425-.082zm-.456.092l-.191.165-.234-.082.425-.082zm-.272-.352l.234.082.048.247-.282-.329z" class="C"/><path d="M19.819 7.504l.238.082.048.243-.286-.325z" class="C"/><path d="M20.096 7.837l-.234-.082-.048-.247.282.329zm-.303-.351l-.238-.082-.048-.243.286.325zm.16-.416l.048.243-.191.165.143-.407zm-.152.443l.048.247-.186.165.139-.412z" class="C"/><path d="M19.654 7.915l-.048-.243.191-.165-.143.407zm.152-.438l-.048-.247.186-.165-.139.412z" class="C"/><path d="M1 15C1 7.268 7.268 1 15 1s14 6.268 14 14-6.268 14-14 14S1 22.732 1 15z" stroke="#152361" stroke-width="2"/></g></svg>