<svg width="30" height="30" viewBox="0 0 30 30" fill="none" xmlns="http://www.w3.org/2000/svg">
<mask id="mask0_9235_42343" style="mask-type:alpha" maskUnits="userSpaceOnUse" x="0" y="0" width="30" height="30">
<path d="M0.5 15C0.5 6.99187 6.99187 0.5 15 0.5C23.0081 0.5 29.5 6.99187 29.5 15C29.5 23.0081 23.0081 29.5 15 29.5C6.99187 29.5 0.5 23.0081 0.5 15Z" fill="#C4C4C4" stroke="#152361"/>
</mask>
<g mask="url(#mask0_9235_42343)">
<rect x="-4.75391" y="0.25" width="41.5" height="29.5" rx="1.75" fill="white" stroke="#F5F5F5" stroke-width="0.5"/>
<mask id="mask1_9235_42343" style="mask-type:alpha" maskUnits="userSpaceOnUse" x="-6" y="0" width="43" height="30">
<rect x="-4.75391" y="0.25" width="41.5" height="29.5" rx="1.75" fill="white" stroke="white" stroke-width="0.5"/>
</mask>
<g mask="url(#mask1_9235_42343)">
<path fill-rule="evenodd" clip-rule="evenodd" d="M-5.00391 10H36.9961V0H-5.00391V10Z" fill="#CA2B39"/>
<path fill-rule="evenodd" clip-rule="evenodd" d="M-5.00391 29.9999H36.9961V19.9999H-5.00391V29.9999Z" fill="#2C56A2"/>
</g>
<path d="M-5.00391 0V-1H-6.00391V0H-5.00391ZM36.9961 0H37.9961V-1H36.9961V0ZM36.9961 30V31H37.9961V30H36.9961ZM-5.00391 30H-6.00391V31H-5.00391V30ZM-5.00391 1H36.9961V-1H-5.00391V1ZM35.9961 0V30H37.9961V0H35.9961ZM36.9961 29H-5.00391V31H36.9961V29ZM-4.00391 30V0H-6.00391V30H-4.00391Z" fill="#152361"/>
<path d="M1 15C1 7.26801 7.26801 1 15 1C22.732 1 29 7.26801 29 15C29 22.732 22.732 29 15 29C7.26801 29 1 22.732 1 15Z" stroke="#152361" stroke-width="2"/>
</g>
</svg>
