<svg width="30" height="30" viewBox="0 0 30 30" fill="none" xmlns="http://www.w3.org/2000/svg">
<mask id="mask0_10120_52168" style="mask-type:alpha" maskUnits="userSpaceOnUse" x="0" y="0" width="30" height="30">
<path d="M15 29.5C6.99187 29.5 0.5 23.0081 0.5 15C0.5 6.99187 6.99187 0.5 15 0.5C23.0081 0.5 29.5 6.99187 29.5 15C29.5 23.0081 23.0081 29.5 15 29.5Z" fill="#C4C4C4" stroke="#152361"/>
</mask>
<g mask="url(#mask0_10120_52168)">
<path d="M38 0H-9V30H38V0Z" fill="#DC143C"/>
<path d="M38 0H-9V15H38V0Z" fill="white"/>
<path d="M15 29C7.26801 29 1 22.732 1 15C1 7.26801 7.26801 1 15 1C22.732 1 29 7.26801 29 15C29 22.732 22.732 29 15 29Z" stroke="#152361" stroke-width="2"/>
</g>
</svg>
