<svg xmlns="http://www.w3.org/2000/svg" xmlns:xlink="http://www.w3.org/1999/xlink" width="30" height="30" fill="none" xmlns:v="https://vecta.io/nano"><style><![CDATA[.B{fill:#000}.C{fill:#ff0}.D{fill:#fff}.E{fill-rule:evenodd}]]></style><mask id="A" maskUnits="userSpaceOnUse" x="0" y="0" width="30" height="30" mask-type="alpha"><path d="M.5 15C.5 6.992 6.992.5 15 .5S29.5 6.992 29.5 15 23.008 29.5 15 29.5.5 23.008.5 15z" fill="#c4c4c4" stroke="#152361"/></mask><g mask="url(#A)"><path d="M42 0H-3V30H42V0Z" fill="red"/><path d="M15 0H-3V30H15V0Z" fill="#060"/><path d="M20.866 19.651c-2.265-.067-12.653-6.555-12.728-7.582l.57-.96c1.027 1.5 11.655 7.808 12.698 7.583l-.54.96z" class="C E"/><path d="M20.865 19.673c-1.208-.037-4.635-1.875-7.2-3.435-2.648-1.613-5.512-3.6-5.55-4.17L8.7 11.1c.023-.008.03-.008.03 0 .525.765 3.562 2.775 6.337 4.432 3.27 1.95 5.873 3.24 6.338 3.143.008 0 .015 0 .023.008s.007.015 0 .023l-.54.96c0 .008-.008.008-.022.008zM8.16 12.075c.053.473 2.37 2.213 5.527 4.132 2.55 1.553 5.955 3.375 7.163 3.428l.517-.915c-.652.03-3.615-1.545-6.322-3.15-2.745-1.635-5.745-3.622-6.33-4.417l-.555.923z" class="B"/><path d="M8.595 10.98c-.202.548 2.707 2.348 6.217 4.485 3.51 2.13 6.533 3.45 6.758 3.263.015-.023.113-.187.105-.187-.045.06-.143.082-.308.037-.945-.27-3.42-1.41-6.48-3.262s-5.722-3.562-6.135-4.29c-.03-.053-.053-.143-.045-.21H8.7l-.09.157-.015.008zm12.33 8.7c-.038.068-.113.075-.248.06-.848-.098-3.42-1.343-6.465-3.165-3.54-2.122-6.465-4.05-6.15-4.552l.09-.15.015.008c-.285.855 5.767 4.32 6.127 4.538 3.503 2.168 6.458 3.442 6.72 3.113l-.09.15z" class="C E"/><path d="M20.783 19.77c-.03 0-.067 0-.112-.008-.863-.098-3.465-1.372-6.473-3.172-4.02-2.407-6.038-3.855-6.173-4.425-.015-.06-.008-.113.022-.158l.082-.15c.008-.008.015-.015.023-.008l.015.008c.015.015.015.015.015.023-.098.285.54 1.23 5.88 4.373l.24.142c3.458 2.145 6.435 3.435 6.69 3.113.008-.008.023-.008.03-.008.008.008.015.023.008.03l-.098.165c-.03.06-.082.075-.15.075zM8.138 11.933l-.053.098c-.022.037-.03.075-.015.127.135.563 2.145 2.002 6.158 4.395 3 1.8 5.595 3.067 6.45 3.165.135.015.195.015.225-.045l.053-.09c-.03.008-.068.015-.105.015-.735 0-3.42-1.207-6.57-3.157-.03-.023-.112-.068-.24-.143-3.915-2.317-5.903-3.78-5.903-4.365zm13.358 6.825c-.555 0-3.405-1.275-6.698-3.277-3.772-2.295-6.428-3.96-6.225-4.507l.015-.022.09-.158c.007-.008.007-.008.022-.008h.008c.022.015.022.015.022.023-.007.067.015.15.045.202.435.773 3.503 2.693 6.128 4.283 2.88 1.747 5.438 2.962 6.473 3.262.143.038.24.03.277-.03.023-.008.03-.008.038 0 .008.015.008.015-.09.195l-.015.023c-.023.008-.045.015-.09.015zm-12.878-7.77c-.195.555 3.203 2.625 6.21 4.455 3.6 2.19 6.503 3.42 6.727 3.263l.008-.015.053-.09c-.06.022-.15.015-.255-.015-1.043-.3-3.6-1.515-6.48-3.263-2.625-1.59-5.7-3.525-6.143-4.297a.48.48 0 0 1-.045-.165l-.075.127z" class="B"/><path d="M15.015 12.69c2.265-.015 5.07-.307 6.675-.952l-.345-.562c-.953.525-3.765.87-6.352.922-3.052-.03-5.212-.315-6.292-1.035l-.33.6c1.987.84 4.027 1.02 6.645 1.027z" class="C E"/><path d="M15.016 12.713c-2.625-.008-4.65-.187-6.645-1.027-.007 0-.007-.008-.015-.015l.33-.615c.022-.008.03-.008.03-.008 1.005.675 3 1.005 6.278 1.035 2.333-.045 5.318-.353 6.338-.923.008-.007.023 0 .03.008l.345.563c0 .023-.008.023-.015.03-1.695.675-4.56.938-6.675.952zm-6.608-1.057c1.988.832 3.998 1.005 6.608 1.02 2.1-.015 4.95-.27 6.645-.937l-.322-.525c-1.05.563-4.012.87-6.337.915-3.27-.03-5.265-.36-6.285-1.027l-.307.555z" class="B"/><path d="M21.78 11.753c-.052.09-1.102.45-2.655.72-1.05.158-2.415.3-4.125.3-1.62 0-2.947-.113-3.952-.248-1.628-.255-2.46-.607-2.775-.735l.075-.158c.893.353 1.733.57 2.723.72.998.135 2.31.255 3.923.248 1.703 0 3.052-.15 4.095-.308 1.59-.255 2.453-.585 2.573-.735l.12.195zm-.3-.57c-.173.135-1.027.443-2.535.682a28.41 28.41 0 0 1-3.923.277c-1.553 0-2.82-.105-3.787-.24-1.53-.203-2.348-.562-2.64-.668l.09-.15c.225.113 1.013.435 2.565.652.953.135 2.228.232 3.773.232 1.627 0 2.895-.135 3.893-.277 1.515-.21 2.332-.592 2.453-.69l.113.18z" class="C E"/><path d="M14.97 12.787c-1.38 0-2.7-.082-3.922-.248-1.575-.248-2.422-.592-2.745-.72l-.03-.015c-.008 0-.008-.008-.015-.015l.03-.082.045-.09c.008-.008.015-.015.03-.008.855.338 1.695.563 2.715.72 1.23.165 2.535.247 3.885.247h.03a26.67 26.67 0 0 0 4.095-.307c1.567-.255 2.438-.578 2.565-.728.023-.007.03 0 .03 0l.112.195c.008.008.008.015 0 .023-.082.112-1.17.473-2.662.735a27.74 27.74 0 0 1-4.132.3c-.008-.008-.015-.008-.03-.008zm-6.66-1.012l.015.007c.322.128 1.17.473 2.737.72 1.223.165 2.542.248 3.915.248h.03a27.71 27.71 0 0 0 4.125-.3c1.53-.262 2.52-.615 2.633-.697l-.09-.158c-.173.158-.983.465-2.565.728a28.72 28.72 0 0 1-4.103.307c-1.365 0-2.685-.082-3.922-.247-1.02-.158-1.852-.375-2.707-.713-.015.022-.023.045-.037.075-.015 0-.023.015-.03.03zm6.682.382c-1.365 0-2.662-.082-3.758-.247-1.357-.18-2.145-.48-2.52-.623-.045-.015-.09-.037-.128-.045-.008 0-.008-.008-.015-.015.03-.067.06-.112.09-.165.007-.008.015-.015.03-.008.135.067.885.412 2.557.652.757.105 2.018.232 3.727.232h.037c1.77 0 3.068-.158 3.885-.277 1.448-.203 2.295-.578 2.445-.69.023-.008.03 0 .03 0l.113.188v.007c-.173.15-1.02.458-2.558.705-1.282.188-2.565.278-3.923.278zm-6.367-.937c.03.008.06.023.098.038.375.143 1.163.442 2.512.615 1.095.158 2.393.24 3.75.24h.03c1.358 0 2.64-.09 3.915-.277 1.485-.24 2.317-.532 2.512-.668l-.09-.15c-.165.105-.945.48-2.445.682-.825.12-2.122.277-3.892.277h-.037c-1.717 0-2.977-.127-3.735-.232-1.62-.232-2.377-.562-2.557-.645-.015.045-.037.082-.06.12z" class="B"/><path d="M7.568 15.427c1.395.75 4.493 1.125 7.425 1.155 2.67.008 6.15-.413 7.448-1.103l-.038-.75c-.405.638-4.132 1.245-7.44 1.223s-6.375-.533-7.403-1.2l.008.675z" class="C E"/><path d="M15.03 16.598h-.037c-2.595-.023-5.917-.337-7.432-1.155-.008-.008-.015-.015-.015-.022l-.007-.675c0-.008.007-.015.007-.023.008-.007.015 0 .022 0 1.035.668 4.14 1.17 7.387 1.193 3.278.023 7.02-.585 7.425-1.207.008-.008.015-.015.023-.008.008 0 .015.008.015.022l.037.75c0 .008-.008.015-.015.023-1.297.698-4.777 1.102-7.41 1.102zm-7.44-1.185c1.515.81 4.815 1.125 7.402 1.148h.037c2.617 0 6.075-.405 7.388-1.095l-.03-.675c-.562.63-4.155 1.207-7.425 1.185-3.225-.023-6.307-.518-7.38-1.178l.008.615z" class="B"/><path d="M22.507 15.315v.18c-.195.232-1.418.585-2.955.832-1.17.18-2.692.315-4.597.315-1.807 0-3.247-.128-4.357-.3-1.763-.255-2.895-.705-3.12-.84v-.21c.682.45 2.528.78 3.143.885 1.11.172 2.543.3 4.335.3 1.89 0 3.405-.135 4.567-.315 1.11-.158 2.678-.57 2.985-.848zm0-.638v.18c-.195.232-1.418.585-2.955.833-1.17.18-2.692.315-4.597.315-1.807 0-3.247-.127-4.357-.3-1.763-.255-2.895-.705-3.12-.84v-.21c.682.45 2.528.78 3.143.885 1.11.172 2.543.3 4.335.3 1.89 0 3.405-.135 4.567-.315 1.11-.157 2.678-.57 2.985-.848z" class="C E"/><path d="M14.955 16.665c-1.598 0-3.067-.098-4.365-.3-1.688-.247-2.858-.682-3.128-.847l-.008-.225c0-.007.008-.015.015-.022h.022c.682.45 2.573.788 3.135.885 1.29.195 2.745.3 4.335.3 1.68 0 3.217-.105 4.568-.315 1.095-.158 2.662-.57 2.97-.84.008-.008.015-.008.023-.008s.015.008.015.023v.18c-.21.255-1.463.615-2.978.855-1.365.21-2.917.315-4.605.315zM7.5 15.495c.203.113 1.282.57 3.105.833 1.297.202 2.76.3 4.358.3 1.687 0 3.233-.105 4.59-.315 1.47-.24 2.73-.593 2.94-.825v-.127c-.383.277-1.898.675-2.955.825-1.358.21-2.895.315-4.575.315-1.59 0-3.052-.098-4.342-.3-.555-.09-2.408-.42-3.12-.87v.165zm7.455.533c-1.598 0-3.067-.098-4.365-.3-1.688-.248-2.858-.682-3.128-.848l-.008-.225c0-.008.008-.015.015-.023s.015 0 .022 0c.682.458 2.573.788 3.135.885 1.29.195 2.745.3 4.335.3 1.68 0 3.217-.105 4.568-.315 1.095-.158 2.662-.57 2.97-.848.023-.008.03 0 .03.008v.008.18c-.21.255-1.463.615-2.977.855-1.358.217-2.91.322-4.598.322zM7.5 14.857c.203.112 1.282.57 3.105.832 1.297.203 2.76.3 4.358.3 1.687 0 3.233-.105 4.59-.315 1.47-.24 2.73-.592 2.94-.825v-.127c-.383.277-1.898.675-2.955.825-1.35.21-2.895.315-4.575.315-1.59 0-3.052-.098-4.342-.3-.555-.09-2.4-.42-3.12-.87v.165z" class="B"/><path d="M14.985 19.524c-3.21-.022-5.955-.877-6.54-1.012l.42.66c1.028.435 3.705 1.073 6.142 1.005s4.567-.263 6.067-.99l.435-.69c-1.012.48-4.5 1.027-6.525 1.027z" class="C E"/><path d="M14.64 20.198c-2.302 0-4.77-.585-5.775-1.012l-.428-.668c-.008-.008-.008-.015 0-.023s.015-.008.023-.008l.292.075c.93.255 3.413.922 6.24.938 2.04-.008 5.52-.555 6.525-1.027.008-.008.023 0 .023.008.008.008.008.015 0 .023l-.435.69-.008.008c-1.567.765-3.847.93-6.075.99l-.383.008zm-5.753-1.043c1.065.442 3.735 1.065 6.128.997 2.228-.067 4.5-.232 6.053-.982l.39-.623c-1.087.473-4.47.998-6.48.998-2.827-.015-5.31-.69-6.248-.937l-.24-.068.397.615z" class="B"/><path d="M21.248 19.028l-.195.285a16.94 16.94 0 0 1-2.295.585c-.96.195-2.453.345-3.772.345-2.842-.045-5.167-.6-6.262-1.072l-.09-.15.015-.022.15.06c1.942.697 4.132.975 6.202 1.027 1.312.008 2.632-.15 3.698-.337 1.635-.33 2.295-.57 2.497-.683l.053-.038zm.375-.622c-.045.09-.09.165-.143.247-.375.135-1.402.435-2.902.645-.982.135-1.598.263-3.562.3-3.675-.09-6.06-.81-6.622-.99l-.083-.158c2.13.555 4.305.945 6.705.983 1.793-.038 2.558-.172 3.54-.3 1.748-.27 2.625-.555 2.888-.645 0-.008-.008-.008-.015-.015l.195-.067z" class="C E"/><path d="M14.985 20.272c-2.895-.045-5.19-.607-6.27-1.072l-.098-.157c-.008-.008 0-.015 0-.023l.015-.023c.008-.008.015-.015.023-.008l.15.06c1.74.622 3.817.967 6.195 1.02h.06c1.425 0 2.76-.187 3.637-.338 1.823-.367 2.363-.615 2.49-.682l.052-.03c.008-.008.015 0 .023.008s.008.015 0 .023l-.195.285-.008.008a17.99 17.99 0 0 1-2.295.593c-1.005.195-2.52.337-3.78.337zm-6.247-1.11c1.162.503 3.547 1.027 6.247 1.065 1.253 0 2.768-.143 3.765-.345a16.6 16.6 0 0 0 2.288-.585l.142-.21c-.157.082-.742.33-2.483.675a21.76 21.76 0 0 1-3.697.345c-2.378-.06-4.47-.405-6.21-1.027l-.127-.052.075.135zm6.285.465c-3.285-.082-5.565-.66-6.63-.99l-.098-.165c-.008-.008 0-.015 0-.023.007-.008.015-.008.022-.008 2.437.637 4.567.945 6.697.983 1.598-.038 2.385-.143 3.225-.263l.308-.045c1.688-.262 2.565-.54 2.858-.63v-.008c0-.008.008-.015.015-.015l.188-.068c.008 0 .023 0 .023.008v.008c.008.008.008.015 0 .023l-.15.247c-.518.188-1.575.465-2.91.652l-.42.06c-.772.098-1.455.203-3.127.232zM8.415 18.6c1.065.338 3.337.9 6.607.983 1.673-.03 2.355-.128 3.143-.24l.42-.06c1.32-.187 2.377-.457 2.888-.637l.12-.195-.12.045c0 .023-.008.023-.015.03l-.03.008c-.293.09-1.178.367-2.865.63l-.308.045c-.832.12-1.627.225-3.232.262-2.13-.038-4.245-.345-6.667-.975l.06.105zm13.207-.195l.015-.015-.015.015z" class="B"/><path d="M21.66 14.835c.008 2.108-1.072 4.005-1.942 4.838-1.23 1.185-2.865 1.942-4.77 1.98-2.13.037-4.132-1.35-4.672-1.957-1.05-1.193-1.905-2.708-1.935-4.74.127-2.302 1.035-3.907 2.347-5.01s3.053-1.635 4.508-1.598c1.68.045 3.637.87 4.988 2.498.892 1.065 1.275 2.227 1.477 3.99zm-6.69-7.23c4.088 0 7.448 3.323 7.448 7.403s-3.36 7.403-7.447 7.403-7.417-3.323-7.417-7.403a7.43 7.43 0 0 1 7.417-7.403z" class="C E"/><path d="M14.97 22.433c-4.102 0-7.44-3.33-7.44-7.425s3.338-7.425 7.44-7.425c1.988 0 3.855.773 5.273 2.175 1.418 1.41 2.198 3.27 2.198 5.242s-.78 3.84-2.198 5.242c-1.41 1.418-3.285 2.19-5.273 2.19zm0-14.805c-4.08 0-7.395 3.307-7.395 7.38s3.315 7.38 7.395 7.38c4.095 0 7.425-3.315 7.425-7.38.008-4.065-3.33-7.38-7.425-7.38zm-.105 14.04c-2.183 0-4.125-1.433-4.597-1.965-1.283-1.455-1.92-3.008-1.943-4.755.12-2.123.915-3.818 2.355-5.025 1.23-1.027 2.963-1.642 4.522-1.605 1.845.045 3.765 1.013 5.002 2.505.848 1.027 1.268 2.145 1.478 3.997.008 2.04-1.005 3.945-1.943 4.852a6.94 6.94 0 0 1-4.785 1.98c-.03.015-.06.015-.09.015zm.188-13.305c-1.515 0-3.165.6-4.35 1.598-1.433 1.2-2.22 2.88-2.34 4.995.023 1.732.652 3.285 1.928 4.725.465.525 2.4 1.95 4.568 1.95h.09c1.8-.03 3.443-.713 4.755-1.973.938-.9 1.942-2.79 1.935-4.823-.21-1.845-.622-2.955-1.47-3.975-1.238-1.492-3.143-2.445-4.972-2.49-.045-.008-.09-.008-.143-.008z" class="B"/><path d="M14.992 7.583c4.088 0 7.425 3.337 7.425 7.425s-3.337 7.425-7.425 7.425-7.425-3.337-7.425-7.425 3.338-7.425 7.425-7.425zm-7.26 7.425a7.29 7.29 0 0 0 7.26 7.26c3.983 0 7.26-3.27 7.26-7.26a7.29 7.29 0 0 0-7.26-7.26 7.29 7.29 0 0 0-7.26 7.26z" class="C E"/><path d="M14.992 22.455c-4.11 0-7.447-3.337-7.447-7.447s3.337-7.448 7.447-7.448 7.448 3.338 7.448 7.448-3.338 7.448-7.448 7.448zm0-14.85c-4.08 0-7.402 3.323-7.402 7.403s3.322 7.403 7.402 7.403 7.403-3.323 7.403-7.403-3.323-7.403-7.402-7.403zm0 14.685c-1.935 0-3.758-.758-5.137-2.137s-2.145-3.21-2.145-5.145.765-3.765 2.145-5.145a7.23 7.23 0 0 1 5.137-2.137c1.935 0 3.758.758 5.137 2.137s2.145 3.21 2.145 5.145-.765 3.765-2.145 5.145-3.203 2.137-5.137 2.137zm0-14.528a7.25 7.25 0 0 0-7.237 7.245c0 3.99 3.247 7.245 7.237 7.245a7.25 7.25 0 0 0 7.238-7.245 7.25 7.25 0 0 0-7.238-7.245z" class="B"/><path d="M15 8.198c3.727 0 6.802 3.06 6.802 6.802S18.727 21.803 15 21.803s-6.803-3.06-6.803-6.802S11.272 8.198 15 8.198zm-6.638 6.802c0 3.652 3 6.638 6.638 6.638s6.637-2.985 6.637-6.638-3-6.637-6.637-6.637-6.638 2.985-6.638 6.637z" class="C E"/><path d="M15 21.825c-1.807 0-3.517-.712-4.815-2.003-1.298-1.297-2.01-3.007-2.01-4.822s.713-3.525 2.01-4.822A6.77 6.77 0 0 1 15 8.175c1.808 0 3.518.713 4.815 2.003 1.297 1.297 2.01 3.007 2.01 4.823s-.712 3.525-2.01 4.822c-1.297 1.29-3.008 2.003-4.815 2.003zM15 8.22A6.79 6.79 0 0 0 8.22 15 6.79 6.79 0 0 0 15 21.78 6.79 6.79 0 0 0 21.78 15c0-3.735-3.045-6.78-6.78-6.78zm0 13.44a6.63 6.63 0 0 1-4.702-1.957C9.03 18.442 8.34 16.77 8.34 15s.697-3.443 1.958-4.703S13.23 8.34 15 8.34a6.63 6.63 0 0 1 4.703 1.957C20.97 11.557 21.66 13.23 21.66 15s-.697 3.442-1.957 4.703A6.6 6.6 0 0 1 15 21.66zm0-13.275A6.63 6.63 0 0 0 8.385 15c0 3.653 2.97 6.615 6.615 6.615A6.63 6.63 0 0 0 21.615 15 6.63 6.63 0 0 0 15 8.385z" class="B"/><path d="M15.3 7.553h-.637v14.925h.637V7.553z" class="C E"/><path d="M15.3 22.493h-.638c-.015 0-.022-.008-.022-.023V7.545c.015-.022.015-.022.022-.022h.638c.015 0 .022.008.022.022V22.47c-.015.023-.015.023-.022.023zm-.615-.038h.592V7.575h-.592v14.88z" class="B"/><path d="M15.233 7.463h.165V22.56h-.165V7.463zm-.63 0h.165V22.56h-.165V7.463z" class="C E"/><path d="M14.768 22.582h-.165c-.015 0-.023-.008-.023-.023V7.469c0-.015.008-.022.023-.022h.165c.015 0 .023.007.023.022v15.098c-.015.023-.015.015-.023.015zm-.143-.045h.12V7.484h-.12v15.053zm.773.045h-.165c-.015 0-.022-.008-.022-.023V7.462c.015-.022.015-.022.022-.022h.165c.015 0 .022.008.022.022V22.56c-.015.023-.015.023-.022.023zm-.143-.045h.12V7.484h-.12v15.053z" class="B"/><path d="M22.425 15.292v-.555l-.45-.42-2.55-.675-3.675-.375-4.425.225-3.15.75-.637.473v.555l1.612-.72 3.825-.6h3.675l2.7.3 1.875.45 1.2.593z" class="C E"/><path d="M22.425 15.315h-.007l-1.2-.592-1.867-.45-2.7-.3h-3.675l-3.818.6-1.605.72h-.022l-.008-.57.645-.488h.008l3.15-.75 4.432-.225 3.675.375 2.55.675.457.428.008.57c-.015.008-.023.008-.023.008zm-5.775-1.387l2.7.3 1.875.45 1.17.585v-.51l-.435-.405-2.542-.675-3.675-.375-4.425.225-3.143.75-.622.465v.51l1.583-.712 3.833-.6 3.682-.007z" class="B"/><path d="M14.992 13.86c1.755 0 3.457.165 4.807.427 1.395.278 2.37.63 2.708 1.02v.195c-.405-.488-1.725-.84-2.738-1.05-1.343-.262-3.03-.428-4.77-.428-1.837 0-3.555.18-4.875.435-1.057.21-2.475.63-2.647 1.043V15.3c.098-.285 1.147-.713 2.625-1.005 1.328-.262 3.045-.435 4.89-.435zm.007-.638c1.755 0 3.458.165 4.807.428 1.395.277 2.37.63 2.708 1.02v.195c-.405-.487-1.725-.84-2.738-1.05-1.343-.263-3.03-.428-4.77-.428-1.838 0-3.547.18-4.867.435-1.02.195-2.49.63-2.655 1.043v-.203c.098-.285 1.17-.72 2.625-1.005 1.32-.262 3.037-.435 4.89-.435z" class="C E"/><path d="M7.478 15.518c-.015 0-.022-.015-.022-.022V15.3v-.008c.105-.307 1.215-.735 2.64-1.02 1.418-.277 3.157-.428 4.905-.435v.023-.023h.053c1.65 0 3.338.15 4.763.428 1.455.293 2.392.645 2.723 1.027l.008.21c0 .007-.008.015-.015.022-.008 0-.015 0-.023-.008-.427-.518-1.89-.87-2.73-1.043-1.425-.277-3.12-.427-4.77-.427-1.717 0-3.45.157-4.867.435-1.155.232-2.468.645-2.633 1.027-.015.008-.022.008-.03.008zm7.568-1.515c1.635 0 3.315.15 4.725.427.817.165 2.235.51 2.715 1.013v-.127c-.322-.368-1.252-.72-2.692-1.005-1.418-.277-3.105-.428-4.748-.428h-.053c-1.74 0-3.472.158-4.89.435-1.575.315-2.513.742-2.61.99v.12c.315-.428 1.77-.81 2.625-.982 1.425-.277 3.158-.435 4.875-.435.023-.007.037-.007.053-.007zm-7.568.885c-.015 0-.022-.008-.022-.023v-.203-.007c.105-.308 1.237-.75 2.64-1.02 1.418-.277 3.157-.427 4.905-.435h.045c1.65 0 3.338.15 4.763.428 1.455.292 2.392.645 2.723 1.027l.008.21c0 .008-.008.015-.015.023-.008 0-.015 0-.023-.008-.427-.518-1.89-.87-2.73-1.043-1.425-.277-3.12-.428-4.77-.428-1.71 0-3.442.158-4.86.435-1.17.225-2.49.66-2.64 1.027-.007.008-.015.015-.022.015zm7.568-1.523c1.635 0 3.315.15 4.725.428.817.165 2.235.51 2.715 1.012v-.127c-.322-.367-1.252-.72-2.692-1.005-1.433-.277-3.143-.435-4.8-.428-1.74 0-3.48.157-4.89.435-1.515.293-2.513.735-2.61.99v.12c.3-.405 1.703-.803 2.633-.982 1.425-.277 3.15-.435 4.868-.435.023-.008.037-.008.053-.008z" class="B"/><path d="M14.963 9.976c2.76-.015 5.175.39 6.278.953l.405.697c-.96-.518-3.562-1.057-6.675-.975-2.542.015-5.25.277-6.615 1.005l.48-.803c1.117-.585 3.75-.878 6.128-.878z" class="C E"/><path d="M8.355 11.669c-.022-.015-.022-.023-.015-.03l.48-.802.007-.008c1.163-.6 3.922-.877 6.135-.877 2.663-.015 5.13.36 6.285.952l.008.008.405.697c.008.008 0 .023 0 .023-.008.007-.015.007-.023.007-1.005-.54-3.615-1.05-6.667-.967-1.785.008-5.017.158-6.6 1.005zm.495-.803l-.435.735c1.62-.817 4.792-.96 6.555-.975 2.992-.075 5.565.412 6.622.945l-.36-.63c-1.155-.585-3.607-.96-6.262-.945-2.22 0-4.965.27-6.12.87z" class="B"/><path d="M15.001 10.545c1.575-.008 3.097.083 4.312.3 1.125.21 2.205.525 2.355.697l.12.21c-.375-.248-1.305-.518-2.497-.743-1.2-.225-2.722-.3-4.29-.3-1.777-.008-3.165.09-4.35.293-1.252.232-2.122.57-2.34.727l.12-.225c.42-.21 1.08-.473 2.19-.668 1.223-.217 2.618-.285 4.38-.293zm0-.638c1.507-.008 3 .082 4.163.293.915.18 1.823.457 2.153.705l.172.277c-.3-.33-1.41-.645-2.4-.818-1.155-.195-2.58-.277-4.088-.293-1.582.008-3.045.105-4.185.308-1.08.203-1.785.45-2.077.637l.15-.232c.405-.217 1.065-.412 1.897-.57 1.147-.202 2.618-.3 4.215-.308z" class="C E"/><path d="M21.787 11.775c-.383-.24-1.29-.51-2.505-.743-1.073-.202-2.512-.3-4.283-.292-1.777-.008-3.157.09-4.342.292-1.245.232-2.115.563-2.332.728-.008.008-.022.008-.03 0s-.008-.015-.008-.03l.12-.225c.57-.292 1.29-.518 2.205-.682 1.11-.203 2.385-.293 4.387-.3 1.695 0 3.188.098 4.313.3 1.147.217 2.212.525 2.37.705l.12.217c.008.008 0 .023-.008.03h-.008zm-6.675-1.08c1.725 0 3.127.097 4.178.3 1.155.218 2.032.473 2.438.705l-.075-.143c-.143-.157-1.223-.473-2.34-.682-1.125-.203-2.61-.308-4.305-.3-2.002.008-3.27.098-4.38.3-.907.165-1.62.383-2.182.667l-.075.143c.3-.172 1.133-.472 2.28-.69 1.193-.21 2.573-.3 4.35-.293.038-.007.075-.007.113-.007zm6.368.51c-.323-.345-1.492-.652-2.4-.818-1.05-.18-2.385-.277-4.087-.293-1.65.008-3.097.113-4.177.308-.96.18-1.732.42-2.07.637-.008.008-.022.008-.03 0s-.008-.015 0-.03l.15-.232.007-.008c.405-.21 1.065-.412 1.905-.578 1.08-.195 2.535-.3 4.215-.308 1.65 0 3.09.098 4.162.293.983.188 1.853.473 2.16.705l.18.285c.008.008 0 .023-.007.03zM15 10.05c1.703.015 3.045.113 4.095.293.832.15 1.875.42 2.295.728l-.098-.15c-.308-.225-1.17-.51-2.138-.697-1.072-.195-2.512-.293-4.155-.285-1.672.008-3.127.113-4.207.308-.832.165-1.485.36-1.89.57l-.098.15c.375-.203 1.11-.428 2.002-.593 1.088-.21 2.535-.315 4.192-.322z" class="B"/><path d="M18.682 18.097c-1.365-.255-2.737-.293-3.69-.277-4.605.052-6.09.945-6.277 1.215l-.345-.562c1.17-.848 3.682-1.328 6.645-1.275 1.537.023 2.865.128 3.983.345l-.315.555z" class="C E"/><path d="M8.722 19.05l-.36-.57c-.008-.008 0-.023.008-.03 1.178-.855 3.668-1.335 6.66-1.283 1.627.03 2.932.143 3.99.345.008 0 .015.007.015.015v.023l-.315.563c-.008.008-.015.015-.022.008-1.08-.203-2.325-.3-3.683-.277-4.478.052-6.06.907-6.255 1.207h-.038zm-.315-.577l.315.517c.27-.323 1.898-1.147 6.27-1.2 1.358-.015 2.595.075 3.683.277l.293-.518c-1.05-.203-2.34-.315-3.953-.337-2.963-.053-5.438.42-6.608 1.26z" class="B"/><path d="M14.971 17.737c1.283.023 2.535.075 3.75.3l-.09.157c-1.125-.21-2.333-.285-3.66-.285-1.702-.015-3.42.142-4.912.577-.472.135-1.252.435-1.335.683l-.09-.142c.022-.15.495-.458 1.38-.705 1.717-.495 3.323-.578 4.958-.585zm.06-.645c1.328.023 2.7.082 4.028.352l-.09.165c-1.2-.24-2.355-.315-3.93-.345-1.703 0-3.517.128-5.16.6-.533.157-1.447.488-1.477.758l-.09-.157c.023-.24.81-.555 1.53-.765 1.657-.48 3.465-.608 5.19-.608z" class="C E"/><path d="M8.722 19.185l-.105-.15c.03-.18.525-.495 1.395-.735 1.635-.473 3.165-.57 4.958-.585 1.215.015 2.512.068 3.75.3.008 0 .015.008.015.015v.023l-.09.157c-.008.008-.015.015-.023.008-1.057-.195-2.258-.293-3.66-.277-1.883-.015-3.533.18-4.913.578-.502.142-1.245.442-1.32.675zm-.067-.165l.06.105c.143-.247.878-.532 1.327-.66 1.38-.398 3.037-.592 4.92-.578 1.395-.008 2.588.083 3.652.277l.068-.12c-1.23-.225-2.513-.277-3.72-.293-1.785.015-3.308.12-4.943.585-.877.247-1.327.547-1.365.682zm-.255-.383l-.105-.165c.023-.33 1.185-.69 1.545-.795 1.417-.413 3.067-.608 5.197-.608 1.298.023 2.685.082 4.035.352.008 0 .015.008.015.015v.023l-.09.165c-.008.008-.015.015-.022.008-1.275-.255-2.498-.322-3.93-.345-2.115.008-3.75.195-5.152.6-.69.203-1.44.518-1.463.735-.015.007-.022.007-.03.015zm-.067-.18l.06.105c.15-.322 1.335-.683 1.478-.72 1.402-.405 3.045-.6 5.167-.6 1.432.023 2.647.09 3.923.338l.067-.12c-1.335-.262-2.707-.323-3.998-.345-2.122.008-3.772.195-5.182.607-.9.255-1.485.547-1.515.735z" class="B"/><path d="M21.571 18.556l-.555.855-1.59-1.41-4.125-2.775-4.65-2.55-2.415-.825.518-.952.173-.098 1.5.375 4.95 2.55 2.85 1.8 2.4 1.725.975 1.125-.03.18z" class="C E"/><path d="M21.015 19.432l-1.605-1.418-4.125-2.775-4.65-2.55-2.407-.825c-.008 0-.008-.008-.015-.015l.518-.967.008-.008.172-.098 1.515.375 4.958 2.55 2.85 1.8 2.4 1.725.975 1.125-.022.195v.008l-.555.855c0 .023-.008.023-.015.023zm-12.75-7.598l2.392.818 4.65 2.55 4.125 2.775 1.575 1.395.54-.832.03-.165-.968-1.117-2.4-1.725-2.85-1.8-4.95-2.55-1.485-.367-.165.09-.495.93z" class="B"/><path d="M8.145 11.873c.42-.285 3.533 1.102 6.795 3.06 3.248 1.973 6.353 4.192 6.068 4.613l-.09.142-.045.03c.008-.008.053-.06-.008-.218-.135-.457-2.34-2.212-5.992-4.417-3.562-2.123-6.525-3.405-6.825-3.037l.098-.172zm13.538 6.668c.27-.533-2.617-2.7-6.195-4.823-3.66-2.078-6.3-3.3-6.78-2.932l-.105.195c0 .007.008-.015.03-.03.09-.075.232-.075.3-.075.833.015 3.203 1.102 6.525 3.008 1.455.848 6.157 3.862 6.135 4.71 0 .075.008.09-.023.128l.113-.18z" class="C E"/><path d="M20.88 19.747c-.022-.015-.022-.03-.008-.038 0 0 .045-.052-.015-.195-.143-.465-2.468-2.288-5.985-4.41-3.735-2.227-6.532-3.367-6.795-3.045-.007.008-.022.008-.03.008-.008-.008-.015-.015-.008-.03l.09-.18.008-.007c.443-.3 3.562 1.102 6.817 3.06 2.925 1.77 5.955 3.893 6.09 4.522.008.045.008.09-.015.12l-.09.143-.053.037zM8.258 11.97c.817 0 3.577 1.275 6.637 3.098 3.57 2.153 5.858 3.945 6 4.433.023.06.03.105.03.142l.067-.105c.015-.022.015-.052.008-.082-.135-.607-3.232-2.767-6.075-4.492-3.172-1.912-6.322-3.338-6.765-3.067L8.108 12c.045-.022.09-.03.15-.03zm13.305 6.773c-.023-.015-.03-.03-.023-.038l.015-.015c.008-.015.008-.03.008-.067v-.03c.015-.84-4.77-3.9-6.127-4.687-3.315-1.898-5.685-2.992-6.517-3.008h-.015c-.068 0-.195 0-.27.067-.015.008-.015.023-.023.023-.008.008-.015.015-.03.015-.008 0-.015-.015-.015-.023v-.008l.105-.195c.585-.442 4.027 1.343 6.81 2.925 3.233 1.912 6.503 4.26 6.203 4.853l-.105.165c0 .008-.008.015-.015.023zM8.918 10.86c.84.015 3.217 1.11 6.54 3.015.96.555 6.165 3.803 6.15 4.725v.015l.06-.09c.247-.488-2.475-2.595-6.187-4.792-3.908-2.212-6.307-3.255-6.757-2.932l-.053.098c.082-.037.18-.037.24-.037h.007z" class="B"/><path d="M10.545 15.825c0 1.222.502 2.325 1.313 3.127.81.81 1.912 1.32 3.135 1.32 1.23 0 2.34-.503 3.15-1.305s1.305-1.92 1.305-3.142v-5.94l-8.902-.008v5.947z" class="D"/><path d="M14.993 20.302c-1.178 0-2.295-.473-3.15-1.328a4.44 4.44 0 0 1-1.32-3.12V9.862l8.955.008v5.962a4.43 4.43 0 0 1-1.312 3.157c-.855.848-1.98 1.313-3.173 1.313zm-4.425-4.5v.022c0 1.17.465 2.28 1.305 3.113.848.848 1.958 1.313 3.12 1.313 1.185 0 2.295-.457 3.135-1.297a4.37 4.37 0 0 0 1.297-3.105v-.015-5.917l-8.858-.007v5.895z" class="B"/><path d="M10.71 15.833c0 1.17.48 2.235 1.26 3.007s1.845 1.253 3.015 1.253c1.177 0 2.242-.48 3.015-1.245a4.23 4.23 0 0 0 1.252-3v-5.76h-8.535l-.008 5.745zm6.825-4.027v3.667.39l-.015.315a2.5 2.5 0 0 1-.727 1.477c-.465.457-1.103.742-1.8.742s-1.32-.293-1.785-.758a2.56 2.56 0 0 1-.75-1.793v-4.05l5.078.008z" fill="red"/><path d="M14.985 20.107a4.28 4.28 0 0 1-3.03-1.26c-.818-.81-1.267-1.883-1.267-3.015h.037a4.17 4.17 0 0 0 1.252 2.985 4.24 4.24 0 0 0 3 1.245c1.133 0 2.198-.443 3-1.245.802-.795 1.245-1.852 1.245-2.978v-.015-5.745h-8.497l-.008 5.738h-.037l.008-5.775h8.572v5.783A4.22 4.22 0 0 1 18 18.84c-.795.825-1.875 1.267-3.015 1.267zm0-1.687c-.668 0-1.305-.27-1.8-.765-.48-.48-.758-1.14-.758-1.807v-4.072h.023l5.1.008.008.008v.008 3.667.39l-.015.322c-.068.563-.323 1.08-.735 1.492a2.61 2.61 0 0 1-1.823.75zm-2.52-6.607v4.035c0 .66.27 1.313.75 1.785a2.5 2.5 0 0 0 1.777.75 2.52 2.52 0 0 0 1.793-.742 2.5 2.5 0 0 0 .727-1.47c.015-.098.015-.21.015-.315v-.39-3.645l-5.062-.008z" class="B"/><path d="M11.265 11.58c.008-.412.307-.51.307-.51s.315.105.315.518l-.623-.008z" class="C"/><path d="M11.01 11.078l-.052.473h.307c0-.39.3-.457.307-.457s.3.09.308.457h.315l-.053-.48-1.133.008z" class="C"/><path d="M11.288 11.572h-.352l.053-.503.008-.015h1.155l.06.518h-.353v-.015c-.008-.36-.285-.443-.293-.443 0 0-.277.053-.285.443l.008.015zm.615-.037h.27l-.052-.443h-.495c.03.015.075.045.12.082a.49.49 0 0 1 .157.36zm-.922 0h.27c.008-.21.098-.323.165-.383.03-.03.067-.045.098-.06h-.488l-.045.443z" class="B"/><use xlink:href="#C" class="C"/><path d="M12.21 11.693h-1.267c-.038 0-.068-.037-.068-.075 0-.045.03-.075.068-.075h1.268c.037 0 .067.038.067.075s-.03.075-.067.075zm-1.267-.12c-.015 0-.03.015-.03.037s.015.037.03.037h1.268c.015 0 .03-.015.03-.037s-.015-.037-.03-.037h-1.267z" class="B"/><path d="M11.4 11.551c0-.247.173-.322.173-.315 0 0 .172.075.18.315H11.4z" class="C"/><path d="M11.767 11.573H11.4v-.023h-.023c0-.158.068-.255.127-.3 0 0 .053-.038.068-.038s.188.083.195.338v.023zm-.345-.038h.308c-.008-.187-.128-.262-.158-.277-.03.015-.143.083-.15.277z" class="B"/><path d="M10.965 10.883h1.215c.023 0 .045.023.045.053s-.022.053-.045.053h-1.215c-.023 0-.045-.023-.045-.053s.022-.053.045-.053z" class="C"/><use xlink:href="#D" class="B"/><path d="M10.996 10.987h1.163c.022 0 .045.023.045.053s-.023.053-.045.053h-1.163c-.022 0-.045-.022-.045-.053s.015-.053.045-.053z" class="C"/><use xlink:href="#E" class="B"/><use xlink:href="#F" class="C"/><path d="M11.745 10.396h-.33c-.03 0-.06-.03-.06-.06v-.158l.015-.008h.008.113v.068h.03v-.068h.135v.068h.03v-.068h.135v.173c-.015.03-.045.052-.075.052zm-.36-.187v.128c0 .008.015.022.023.022h.33c.007 0 .022-.008.022-.022v-.135h-.06v.067h-.105v-.067h-.06v.067h-.105v-.067l-.045.007z" class="B"/><path d="M11.716 10.396l.022.487h-.322l.023-.487h.277z" class="C"/><path d="M11.753 10.897h-.36l.023-.525h.315l.022.525zm-.322-.037h.285l-.022-.45h-.248l-.015.45z" class="B"/><path d="M11.318 10.62l.008.262h-.308l.008-.262h.293z" class="C"/><path d="M11.002 10.898l.007-.3h.33l.008.3h-.345zm.045-.263l-.008.225h.27l-.008-.225h-.255z" class="B"/><path d="M12.113 10.62l.007.262h-.307l.008-.262h.293z" class="C"/><use xlink:href="#G" class="B"/><path d="M10.973 10.425h.09v.068h.068v-.068h.09v.068h.067v-.068h.09v.15c0 .023-.015.037-.038.037h-.322c-.022 0-.045-.015-.045-.037v-.15z" class="C"/><use xlink:href="#H" class="B"/><path d="M11.768 10.425h.09v.068h.068v-.068h.09v.068h.067v-.068h.09v.15c0 .023-.015.037-.037.037h-.322c-.022 0-.045-.015-.045-.037v-.15z" class="C"/><use xlink:href="#I" class="B"/><path d="M11.543 10.545c0-.045.068-.045.068 0v.113h-.068v-.113z" class="B"/><use xlink:href="#J" class="B"/><use xlink:href="#J" x="0.795" class="B"/><path d="M11.265 15.052c.008-.412.307-.51.307-.51s.315.105.315.518l-.623-.008z" class="C"/><path d="M11.01 14.55l-.052.473h.307c0-.39.3-.457.307-.457s.3.09.308.457h.315l-.053-.48-1.133.008z" class="C"/><path d="M11.288 15.045h-.352l.053-.503.008-.015h1.155l.06.518h-.353v-.015c-.008-.36-.285-.443-.293-.443 0 0-.277.052-.285.443l.008.015zm.615-.037h.27l-.052-.443h-.495c.03.015.075.045.12.082a.49.49 0 0 1 .157.36zm-.922 0h.27c.008-.21.098-.323.165-.383.03-.03.067-.045.098-.06h-.488l-.045.443z" class="B"/><use xlink:href="#C" y="3.471" class="C"/><path d="M12.21 15.165h-1.267c-.038 0-.068-.037-.068-.075 0-.045.03-.075.068-.075h1.268c.037 0 .067.037.067.075s-.03.075-.067.075zm-1.267-.12c-.015 0-.03.015-.03.037s.015.037.03.037h1.268c.015 0 .03-.015.03-.037s-.015-.037-.03-.037h-1.267z" class="B"/><path d="M11.4 15.023c0-.248.173-.323.173-.315 0 0 .172.075.18.315H11.4z" class="C"/><path d="M11.767 15.045H11.4v-.023h-.023c0-.158.068-.255.127-.3 0 0 .053-.037.068-.037s.188.082.195.338v.023zm-.345-.038h.308c-.008-.187-.128-.262-.158-.277-.03.015-.143.082-.15.277z" class="B"/><path d="M10.965 14.356h1.215c.023 0 .045.023.045.053s-.022.053-.045.053h-1.215c-.023 0-.045-.022-.045-.053s.022-.053.045-.053z" class="C"/><use xlink:href="#D" y="3.472" class="B"/><path d="M10.996 14.46h1.163c.022 0 .045.022.045.052s-.023.053-.045.053h-1.163c-.022 0-.045-.022-.045-.053s.015-.052.045-.052z" class="C"/><use xlink:href="#E" y="3.473" class="B"/><use xlink:href="#F" y="3.473" class="C"/><path d="M11.745 13.875h-.33c-.03 0-.06-.03-.06-.06v-.158l.015-.008h.008.113v.068h.03v-.068h.135v.068h.03v-.068h.135v.173c-.015.022-.045.053-.075.053zm-.36-.187v.127c0 .008.015.022.023.022h.33c.007 0 .022-.008.022-.022v-.135h-.06v.067h-.105v-.067h-.06v.067h-.105v-.067l-.045.008z" class="B"/><path d="M11.716 13.867l.022.487h-.322l.023-.487h.277z" class="C"/><path d="M11.753 14.371h-.36l.023-.525h.315l.022.525zm-.322-.037h.285l-.022-.45h-.248l-.015.45z" class="B"/><path d="M11.318 14.092l.008.263h-.308l.008-.263h.293z" class="C"/><path d="M11.002 14.37l.007-.3h.33l.008.3h-.345zm.045-.263l-.008.225h.27l-.008-.225h-.255z" class="B"/><path d="M12.113 14.092l.007.263h-.307l.008-.263h.293z" class="C"/><use xlink:href="#G" y="3.472" class="B"/><path d="M10.973 13.905h.09v.067h.068v-.067h.09v.067h.067v-.067h.09v.15c0 .022-.015.037-.038.037h-.322c-.022 0-.045-.015-.045-.037v-.15z" class="C"/><use xlink:href="#H" y="3.473" class="B"/><path d="M11.768 13.905h.09v.067h.068v-.067h.09v.067h.067v-.067h.09v.15c0 .022-.015.037-.037.037h-.322c-.022 0-.045-.015-.045-.037v-.15z" class="C"/><use xlink:href="#I" y="3.473" class="B"/><path d="M11.543 14.018c0-.045.068-.045.068 0v.112h-.068v-.112z" class="B"/><use xlink:href="#J" y="3.479" class="B"/><use xlink:href="#J" x="0.795" y="3.479" class="B"/><path d="M12.622 18.676c-.285-.3-.15-.578-.15-.578s.3-.15.592.143l-.442.435z" class="C"/><path d="M12.082 18.495l.3.375.218-.218c-.278-.277-.113-.532-.113-.54.008-.008.27-.15.54.105l.218-.218-.383-.3-.78.795z" class="C"/><path d="M12.383 18.893l-.315-.39-.008-.015.008-.008.803-.81.412.323-.247.247-.015-.015c-.263-.247-.518-.105-.518-.105s-.158.24.113.51l.015.015-.248.247zm-.277-.398l.277.345.195-.195c-.143-.15-.165-.293-.15-.39.007-.045.015-.082.03-.113l-.353.352zm.585-.45c.09 0 .217.03.345.143l.195-.195-.353-.277-.353.36c.038-.015.083-.023.143-.03h.023z" class="B"/><path d="M12.368 18.885l.893-.9c.022-.022.053-.015.075.008s.023.06.008.075l-.893.9c-.023.023-.053.015-.075-.008s-.023-.06-.008-.075z" class="C"/><path d="M12.42 18.998c-.022 0-.037-.007-.06-.022a.08.08 0 0 1-.008-.105l.893-.9c.015-.015.03-.022.053-.015.022 0 .037.007.053.022a.08.08 0 0 1 .007.105l-.893.9c-.007.008-.03.015-.045.015zm-.037-.098c-.015.015-.008.038.008.053s.037.015.053.008l.893-.9c.015-.015.008-.037-.008-.052-.008-.008-.015-.015-.03-.015-.008 0-.015 0-.023.008l-.893.9z" class="B"/><path d="M12.69 18.555c-.173-.172-.105-.345-.105-.345s.172-.075.352.098l-.247.248z" class="C"/><path d="M12.697 18.577l-.015-.015c-.113-.112-.127-.217-.127-.285 0-.03.008-.075.022-.083h.008c.008 0 .188-.075.367.105l.015.015-.27.262zm-.098-.352c-.008.03-.037.165.09.308l.217-.218c-.135-.135-.27-.105-.307-.09z" class="B"/><path d="M11.91 18.39l.855-.862c.015-.015.053-.015.067.008.023.022.023.052.008.067l-.855.862c-.015.015-.052.015-.067-.008-.023-.023-.03-.053-.008-.067z" class="C"/><path d="M11.955 18.495c-.015 0-.037-.007-.053-.022-.03-.03-.03-.075-.008-.098l.855-.863c.015-.015.03-.015.045-.015.022 0 .037.008.053.023.03.03.03.075.008.098l-.855.855c-.015.015-.03.022-.045.022zm-.03-.09c-.007.008-.007.03.008.045s.03.015.045.008l.855-.863c.008-.008.008-.03-.008-.045-.008-.008-.015-.008-.022-.008l-.878.862z" class="B"/><path d="M11.999 18.443l.818-.825c.015-.015.045-.015.067.008s.023.053.008.068l-.818.825c-.015.015-.045.015-.067-.008-.023-.015-.023-.045-.008-.067z" class="C"/><path d="M12.045 18.547c-.015 0-.037-.008-.053-.023-.03-.03-.03-.067-.008-.098l.818-.825c.022-.023.067-.023.098.008.015.015.022.037.022.052s-.008.03-.015.045l-.817.825c-.008.015-.023.015-.045.015zm.81-.922l-.832.832c-.008.008-.008.03.008.045s.03.015.045.008l.818-.825c.008-.023 0-.038-.008-.045-.015-.008-.023-.015-.03-.015z" class="B"/><path d="M11.708 17.617l.068-.068.045.045.045-.045-.045-.045.067-.068.045.045.045-.045-.045-.045.068-.067.105.105c.015.015.015.037 0 .06l-.232.232c-.015.015-.045.015-.06 0l-.105-.105z" class="C"/><path d="M11.835 17.752c-.015 0-.03-.008-.037-.015l-.12-.12.015-.015.015.015-.015-.015.075-.075.045.045.023-.023-.045-.045.09-.09.045.045.022-.022-.045-.045.09-.09.12.12c.008.008.015.022.015.037s-.008.03-.015.045l-.232.232c-.008.008-.03.015-.045.015zm-.105-.135l.09.09c.008.008.023.008.03 0l.233-.233c.007-.023.007-.023 0-.03l-.09-.09-.037.038.045.045-.075.075-.045-.045-.037.038.045.045-.075.075-.045-.045-.037.038z" class="B"/><path d="M12.09 17.512l.36.322-.225.225-.33-.352.195-.195z" class="C"/><path d="M12.218 18.098l-.353-.383.225-.225.383.352-.255.255zm-.3-.383l.3.33.202-.203-.33-.3-.172.172z" class="B"/><path d="M11.97 17.954l.195.18-.218.218-.18-.187.203-.21z" class="C"/><path d="M11.948 18.375l-.203-.218.232-.232.218.203-.248.247zm-.15-.218l.15.165.188-.195-.165-.15-.172.18z" class="B"/><path d="M12.533 17.386l.195.18-.218.218-.18-.187.203-.21z" class="C"/><path d="M12.511 17.813l-.203-.218.232-.233.218.203-.248.248zm-.158-.218l.15.165.188-.195-.165-.15-.173.18z" class="B"/><use xlink:href="#K" class="C"/><path d="M11.73 18.203c-.015 0-.03-.008-.037-.015l-.12-.12.015-.015.015.015-.015-.015.075-.075.045.045.022-.023-.045-.045.09-.09.045.045.022-.023-.045-.045.09-.09.12.12c.022.022.022.06 0 .082l-.225.232c-.022.008-.037.015-.053.015zm-.112-.135l.09.09c.008.008.022.008.03 0l.225-.233c.007-.008.007-.023 0-.03l-.09-.09-.037.038.045.045-.075.075-.045-.045-.037.038.045.045-.075.075-.045-.045-.03.038z" class="B"/><use xlink:href="#K" x="0.563" y="-0.562" class="C"/><path d="M12.285 17.633c-.015 0-.03-.008-.038-.015l-.112-.113v-.015l.082-.083.045.045.023-.023-.045-.045.09-.09.045.045.022-.023-.045-.045.09-.09.12.12c.022.022.022.06 0 .082l-.225.232c-.015.015-.038.015-.053.015zm-.105-.128l.09.09c.008.008.022.008.03 0l.225-.232c.007-.008.007-.023 0-.03l-.09-.09-.037.038.045.045-.075.075-.045-.045-.037.038.045.045-.075.075-.045-.045-.03.037zm-.097.241c-.037-.03.015-.082.045-.045l.083.082-.045.045-.083-.082zm-.166.397c-.03-.03.015-.075.045-.045l.06.06-.045.045-.06-.06z" class="B"/><path d="M12.481 17.579c-.03-.03.015-.075.045-.045l.06.06-.045.045-.06-.06z" class="B"/><path d="M14.693 11.58c.008-.412.308-.51.308-.51s.315.105.315.518l-.623-.008z" class="C"/><path d="M14.437 11.078l-.053.473h.307c0-.39.3-.457.308-.457s.3.09.307.457h.315l-.052-.48-1.133.008z" class="C"/><path d="M14.714 11.573h-.352l.053-.51h1.162l.06.518h-.352v-.015c-.008-.36-.285-.442-.293-.442 0 0-.277.053-.285.442l.008.008zm.615-.037h.27l-.053-.443h-.495c.03.015.075.045.12.083a.49.49 0 0 1 .158.36zm-.922 0h.27c.008-.21.098-.322.165-.383.03-.03.068-.045.098-.06h-.487l-.045.443z" class="B"/><path d="M14.369 11.558h1.268c.03 0 .045.03.045.06s-.022.06-.045.06h-1.267c-.03 0-.045-.03-.045-.06-.007-.037.015-.06.045-.06z" class="C"/><path d="M15.638 11.693H14.37c-.037 0-.068-.037-.068-.075 0-.045.03-.075.068-.075h1.268c.037 0 .067.038.067.075s-.03.075-.067.075zm-1.267-.12c-.015 0-.03.015-.03.037s.015.037.03.037h1.268c.015 0 .03-.015.03-.037s-.015-.037-.03-.037H14.37z" class="B"/><path d="M14.827 11.551c0-.247.172-.322.172-.315 0 0 .172.075.18.315h-.352z" class="C"/><path d="M15.195 11.573h-.367v-.023h-.022c0-.158.067-.255.127-.3 0 0 .053-.038.068-.038s.188.083.195.338v.023zm-.345-.038h.307c-.008-.187-.127-.262-.157-.277-.03.015-.143.083-.15.277z" class="B"/><path d="M14.393 10.883h1.215c.023 0 .045.023.045.053s-.022.053-.045.053h-1.215c-.022 0-.045-.023-.045-.053s.023-.053.045-.053z" class="C"/><path d="M15.615 11.003H14.4c-.037 0-.067-.03-.067-.075 0-.037.03-.075.067-.075h1.215c.037 0 .068.03.068.075-.008.045-.037.075-.068.075zm-1.223-.105c-.015 0-.03.015-.03.037s.015.037.03.037h1.215c.015 0 .03-.015.03-.037s-.015-.037-.03-.037h-1.215z" class="B"/><path d="M14.423 10.987h1.162c.022 0 .045.023.045.053s-.023.053-.045.053h-1.162c-.023 0-.045-.022-.045-.053s.015-.053.045-.053z" class="C"/><path d="M15.584 11.107h-1.163c-.037 0-.06-.03-.06-.075 0-.037.03-.075.06-.075h1.163c.037 0 .06.03.06.075s-.022.075-.06.075zm-1.163-.105c-.015 0-.022.015-.022.037 0 .015.015.037.022.037h1.163c.015 0 .022-.015.022-.037 0-.015-.015-.037-.022-.037h-1.163z" class="B"/><use xlink:href="#F" x="3.427" class="C"/><path d="M15.172 10.396h-.33c-.03 0-.06-.03-.06-.06v-.158l.015-.008h.008.113v.068h.03v-.068h.135v.068h.03v-.068h.135v.173c-.015.03-.045.052-.075.052zm-.36-.187v.128c0 .008.015.022.022.022h.33c.008 0 .023-.008.023-.022v-.135h-.06v.067h-.105v-.067h-.06v.067h-.105v-.067l-.045.007z" class="B"/><path d="M15.143 10.396l.023.487h-.323l.023-.487h.277z" class="C"/><path d="M15.18 10.897h-.36l.023-.525h.315l.023.525zm-.323-.037h.285l-.022-.45h-.248l-.015.45z" class="B"/><path d="M14.753 10.62l.008.262h-.308l.008-.262h.293z" class="C"/><path d="M14.43 10.898l.008-.3h.33l.007.3h-.345zm.045-.263l-.008.225h.27l-.008-.225h-.255z" class="B"/><path d="M15.547 10.62l.008.262h-.307l.007-.262h.293z" class="C"/><use xlink:href="#G" x="3.428" class="B"/><use xlink:href="#L" class="C"/><path d="M14.767 10.635h-.322c-.03 0-.06-.03-.06-.06v-.158l.015-.008h.007.105v.068h.03v-.068h.128v.068h.03v-.068h.127v.173c0 .03-.03.052-.06.052zm-.345-.187v.128c0 .008.008.022.023.022h.322c.008 0 .022-.008.022-.022v-.135h-.053v.067h-.105v-.067h-.053v.067h-.105v-.067l-.053.007z" class="B"/><use xlink:href="#L" x="0.795" class="C"/><path d="M15.562 10.635h-.323c-.03 0-.06-.03-.06-.06v-.158l.015-.008h.008.105v.068h.03v-.068h.128v.068h.03v-.068h.127v.173c0 .03-.03.052-.06.052zm-.345-.187v.128c0 .008.008.022.022.022h.323c.007 0 .022-.008.022-.022v-.135h-.053v.067h-.105v-.067h-.052v.067h-.105v-.067l-.053.007z" class="B"/><path d="M14.969 10.545c0-.045.067-.045.067 0v.113h-.067v-.113z" class="B"/><use xlink:href="#J" x="3.427" class="B"/><use xlink:href="#J" x="4.222" class="B"/><path d="M18.72 11.58c-.007-.412-.307-.51-.307-.51s-.315.105-.315.518l.622-.008z" class="C"/><use xlink:href="#M" class="C"/><path d="M18.698 11.572v-.015c0-.383-.285-.443-.285-.443s-.277.083-.285.443v.015h-.352l.06-.518h1.163v.015l.052.495-.352.008zm-.885-.037h.27a.49.49 0 0 1 .158-.36c.045-.037.09-.067.12-.082h-.495l-.053.443zm.652-.443c.03.015.068.03.098.06.075.06.165.172.165.383h.27l-.045-.435-.488-.008z" class="B"/><use xlink:href="#N" class="C"/><path d="M19.042 11.693h-1.268c-.038 0-.067-.037-.067-.075 0-.045.03-.075.067-.075h1.268c.037 0 .067.038.067.075s-.03.075-.067.075zm-1.268-.12c-.015 0-.03.015-.03.037s.015.037.03.037h1.268c.015 0 .03-.015.03-.037s-.015-.037-.03-.037h-1.268z" class="B"/><path d="M18.585 11.551c0-.247-.172-.322-.172-.315 0 0-.173.075-.18.315h.353z" class="C"/><path d="M18.601 11.573h-.383v-.023c0-.255.18-.338.195-.338a.27.27 0 0 1 .067.038c.06.045.128.135.128.3l-.008.023zm-.345-.038h.308c-.008-.195-.128-.262-.15-.277-.023.008-.15.083-.157.277z" class="B"/><path d="M19.02 10.883h-1.215c-.023 0-.045.023-.045.053s.023.053.045.053h1.215c.023 0 .045-.023.045-.053s-.023-.053-.045-.053z" class="C"/><use xlink:href="#O" class="B"/><path d="M18.989 10.987h-1.163c-.022 0-.045.023-.045.053s.023.053.045.053h1.163c.023 0 .045-.022.045-.053s-.015-.053-.045-.053z" class="C"/><use xlink:href="#P" class="B"/><use xlink:href="#Q" class="C"/><path d="M18.57 10.395h-.33c-.037 0-.06-.023-.06-.06v-.172h.135v.067h.03v-.067h.135v.067h.03v-.067h.12l.015.008v.157c-.008.045-.038.068-.075.068zm-.353-.187v.135c0 .015.015.022.023.022h.33c.015 0 .022-.007.022-.022v-.127h-.052v.067h-.105v-.067h-.06v.067h-.105v-.067h-.053v-.008z" class="B"/><path d="M18.27 10.396l-.023.487h.323l-.023-.487h-.277z" class="C"/><path d="M18.232 10.897l.023-.525h.315l.023.525h-.36zm.053-.488l-.023.45h.285l-.023-.45h-.24z" class="B"/><path d="M18.668 10.62l-.008.262h.308l-.008-.262h-.293z" class="C"/><path d="M18.982 10.898h-.345l.015-.3h.33v.3zm-.307-.037h.27l-.008-.225h-.255l-.008.225z" class="B"/><path d="M17.865 10.62l-.008.262h.308l-.008-.262h-.293z" class="C"/><path d="M18.187 10.898h-.345l.015-.3h.33v.3zm-.308-.037h.27l-.008-.225h-.255l-.008.225z" class="B"/><path d="M19.012 10.425h-.09v.068h-.067v-.068h-.09v.068h-.068v-.068h-.09v.15c0 .023.015.037.038.037h.323c.022 0 .045-.015.045-.037v-.15z" class="C"/><path d="M18.967 10.635h-.322c-.03 0-.06-.023-.06-.06v-.172h.128v.067h.03v-.067h.127v.067h.03v-.067h.113l.015.008v.157c0 .045-.023.068-.06.068zm-.345-.187v.135c0 .015.008.022.023.022h.322c.015 0 .023-.007.023-.022v-.127h-.052v.067h-.105v-.067h-.053v.067h-.105v-.067l-.052-.008z" class="B"/><path d="M18.218 10.425h-.09v.068h-.068v-.068h-.09v.068h-.067v-.068h-.09v.15c0 .023.015.037.038.037h.322c.023 0 .045-.015.045-.037v-.15z" class="C"/><path d="M18.172 10.635h-.323c-.03 0-.06-.023-.06-.06v-.172h.127v.067h.03v-.067h.128v.067h.03v-.067h.112l.015.008v.157c0 .045-.023.068-.06.068zm-.345-.187v.135c0 .015.007.022.022.022h.323c.015 0 .023-.007.023-.022v-.127h-.053v.067h-.105v-.067h-.052v.067h-.105v-.067l-.052-.008z" class="B"/><path d="M18.443 10.545c0-.045-.067-.045-.067 0v.113h.067v-.113zm.397.166a.03.03 0 0 0-.06 0v.09h.06v-.09zm-.796 0a.03.03 0 0 0-.06 0v.09h.06v-.09z" class="B"/><path d="M18.72 15.052c-.007-.412-.307-.51-.307-.51s-.315.105-.315.518l.622-.008z" class="C"/><use xlink:href="#M" y="3.472" class="C"/><path d="M18.698 15.045v-.015c0-.383-.285-.443-.285-.443s-.277.082-.285.443v.015h-.352l.06-.518h1.163v.015l.052.495-.352.008zm-.885-.037h.27a.49.49 0 0 1 .158-.36c.045-.037.09-.067.12-.082h-.495l-.053.443zm.652-.443c.03.015.068.03.098.06.075.06.165.173.165.383h.27l-.045-.435-.488-.008z" class="B"/><use xlink:href="#N" y="3.471" class="C"/><path d="M19.042 15.165h-1.268c-.038 0-.067-.037-.067-.075 0-.045.03-.075.067-.075h1.268c.037 0 .067.037.067.075s-.03.075-.067.075zm-1.268-.12c-.015 0-.03.015-.03.037s.015.037.03.037h1.268c.015 0 .03-.015.03-.037s-.015-.037-.03-.037h-1.268z" class="B"/><path d="M18.585 15.023c0-.248-.172-.323-.172-.315 0 0-.173.075-.18.315h.353z" class="C"/><path d="M18.601 15.045h-.383v-.023c0-.255.18-.338.195-.338a.27.27 0 0 1 .067.037c.06.045.128.135.128.3l-.008.023zm-.345-.038h.308c-.008-.195-.128-.262-.15-.277-.023.008-.15.082-.157.277z" class="B"/><path d="M19.02 14.356h-1.215c-.023 0-.045.023-.045.053s.023.053.045.053h1.215c.023 0 .045-.022.045-.053s-.023-.053-.045-.053z" class="C"/><use xlink:href="#O" y="3.472" class="B"/><path d="M18.989 14.46h-1.163c-.022 0-.045.022-.045.052s.023.053.045.053h1.163c.023 0 .045-.022.045-.053s-.015-.052-.045-.052z" class="C"/><use xlink:href="#P" y="3.473" class="B"/><use xlink:href="#Q" y="3.473" class="C"/><path d="M18.57 13.875h-.33c-.037 0-.06-.022-.06-.06v-.172h.135v.068h.03v-.068h.135v.068h.03v-.06h.12l.015.008v.157c-.008.03-.038.06-.075.06zm-.353-.195v.135c0 .015.015.023.023.023h.33c.015 0 .022-.008.022-.023v-.127h-.052v.068h-.105v-.068h-.06v.068h-.105v-.068h-.053v-.008z" class="B"/><path d="M18.27 13.867l-.023.487h.323l-.023-.487h-.277z" class="C"/><path d="M18.232 14.371l.023-.525h.315l.023.525h-.36zm.053-.487l-.023.45h.285l-.023-.45h-.24z" class="B"/><path d="M18.668 14.092l-.008.263h.308l-.008-.263h-.293z" class="C"/><path d="M18.982 14.37h-.345l.015-.3h.33v.3zm-.307-.037h.27l-.008-.225h-.255l-.008.225z" class="B"/><path d="M17.865 14.092l-.008.263h.308l-.008-.263h-.293z" class="C"/><path d="M18.187 14.37h-.345l.015-.3h.33v.3zm-.308-.037h.27l-.008-.225h-.255l-.008.225z" class="B"/><path d="M19.012 13.905h-.09v.067h-.067v-.067h-.09v.067h-.068v-.067h-.09v.15c0 .022.015.037.038.037h.323c.022 0 .045-.015.045-.037v-.15z" class="C"/><path d="M18.967 14.108h-.322c-.03 0-.06-.022-.06-.06v-.172h.128v.068h.03v-.068h.127v.068h.03v-.068h.113l.015.008v.157c0 .045-.023.068-.06.068zm-.345-.187v.135c0 .015.008.023.023.023h.322c.015 0 .023-.008.023-.023v-.127h-.052v.067h-.105v-.067h-.053v.067h-.105v-.067l-.052-.008z" class="B"/><path d="M18.218 13.905h-.09v.067h-.068v-.067h-.09v.067h-.067v-.067h-.09v.15c0 .022.015.037.038.037h.322c.023 0 .045-.015.045-.037v-.15z" class="C"/><path d="M18.172 14.108h-.323c-.03 0-.06-.022-.06-.06v-.172h.127v.068h.03v-.068h.128v.068h.03v-.068h.112l.015.008v.157c0 .045-.023.068-.06.068zm-.345-.187v.135c0 .015.007.023.022.023h.323c.015 0 .023-.008.023-.023v-.127h-.053v.067h-.105v-.067h-.052v.067h-.105v-.067l-.052-.008z" class="B"/><path d="M18.443 14.018c0-.045-.067-.045-.067 0v.112h.067v-.112zm.397.172a.03.03 0 0 0-.06 0v.09h.06v-.09zm-.796 0a.03.03 0 0 0-.06 0v.09h.06v-.09z" class="B"/><path d="M17.362 18.676c.285-.3.15-.578.15-.578s-.3-.15-.593.143l.443.435z" class="C"/><path d="M17.903 18.495l-.3.375-.217-.218c.277-.277.112-.532.112-.54-.007-.008-.27-.15-.54.105L16.74 18l.382-.3.78.795z" class="C"/><path d="M17.602 18.893l-.248-.247.015-.015c.27-.27.113-.51.113-.51s-.255-.142-.517.105l-.015.015-.248-.247.413-.323.817.825-.008.015-.322.383zm-.195-.247l.195.195.277-.345-.345-.345c.015.03.023.067.03.113.008.09-.015.232-.157.383zm-.645-.652l.195.195a.48.48 0 0 1 .367-.143c.06 0 .105.015.142.03l-.345-.352-.36.27z" class="B"/><path d="M17.618 18.885l-.892-.9c-.023-.022-.053-.015-.075.008s-.023.06-.008.075l.892.9c.023.023.053.015.075-.008s.023-.06.008-.075z" class="C"/><path d="M17.565 18.997c-.015 0-.03-.008-.045-.015l-.892-.9a.08.08 0 0 1 .007-.105c.015-.015.03-.023.053-.023s.038.008.052.015l.893.9a.08.08 0 0 1-.008.105c-.023.015-.045.023-.06.023zm-.878-1.012c-.015 0-.023.007-.03.015-.015.015-.015.038-.008.053l.893.9c.015.015.037.008.052-.008s.015-.037.008-.052l-.892-.9c-.008 0-.015-.007-.023-.007z" class="B"/><path d="M17.288 18.555c.172-.172.105-.345.105-.345s-.172-.075-.352.098l.247.248z" class="C"/><path d="M17.288 18.578l-.27-.27.015-.015c.18-.18.36-.105.367-.105h.008c.008.007.015.052.023.082 0 .068-.015.18-.127.285l-.015.022zm-.218-.27l.218.218c.135-.142.105-.27.09-.308-.03-.008-.165-.037-.308.09z" class="B"/><path d="M18.075 18.39l-.855-.862c-.015-.015-.052-.015-.067.008-.023.022-.023.052-.008.067l.855.862c.015.015.053.015.067-.008.023-.023.023-.053.008-.067z" class="C"/><path d="M18.031 18.495c-.015 0-.03-.007-.045-.015l-.855-.863c-.023-.023-.023-.067.008-.098.015-.015.03-.023.052-.023.015 0 .03.008.045.015l.855.863c.022.022.022.067-.008.098-.015.015-.03.022-.053.022zm-.848-.967c-.008 0-.015.008-.023.008-.015.015-.015.03-.007.045l.855.863c.008.008.03.008.045-.008s.015-.03.008-.045l-.855-.863c-.008.008-.015 0-.023 0z" class="B"/><path d="M17.985 18.443l-.817-.825c-.015-.015-.045-.015-.067.008s-.023.053-.008.068l.817.825c.015.015.045.015.067-.008.015-.015.023-.045.008-.067z" class="C"/><path d="M17.932 18.548c-.015 0-.03-.007-.045-.015l-.817-.825c-.008-.008-.015-.022-.015-.045s.008-.038.023-.053.03-.022.045-.022c.023 0 .038.008.045.015l.817.825c.023.022.023.067-.008.098-.008.015-.023.022-.045.022zm-.803-.922c-.008 0-.023.008-.03.015s-.015.015-.015.03l.825.84c.008.008.03.008.045-.008s.015-.03.008-.045l-.817-.825z" class="B"/><path d="M18.278 17.617l-.067-.068-.045.045-.045-.045.045-.045-.068-.068-.045.045-.045-.045.045-.045-.068-.067-.105.105c-.015.015-.015.037 0 .06l.232.232c.015.015.045.015.06 0l.105-.105z" class="C"/><path d="M18.15 17.752c-.015 0-.03-.008-.045-.015l-.233-.232c-.015-.015-.015-.03-.015-.045s.008-.03.015-.037l.12-.12.09.09-.045.045.022.022.045-.045.09.09-.045.045.023.023.045-.045.082.082.008.015-.113.112c-.015.008-.03.015-.045.015zm-.165-.405l-.09.09c-.008.022-.008.03 0 .03l.233.233c.007.008.022.008.03 0l.09-.09-.037-.038-.045.045-.075-.075.045-.045-.037-.038-.045.045-.075-.075.045-.045-.038-.037z" class="B"/><path d="M17.895 17.512l-.36.322.225.225.33-.352-.195-.195z" class="C"/><path d="M17.76 18.098l-.255-.255.382-.352.225.225-.352.383zm-.195-.255l.203.203.3-.33-.173-.172-.33.3z" class="B"/><path d="M18.008 17.954l-.195.18.218.218.18-.187-.203-.21z" class="C"/><path d="M18.037 18.374l-.247-.248.21-.187.015.015.015-.015.015.015.203.202-.21.218zm-.195-.248l.188.195.15-.165-.18-.18-.158.15z" class="B"/><path d="M17.453 17.386l-.195.18.218.218.18-.187-.203-.21z" class="C"/><path d="M17.475 17.813l-.247-.248.218-.203.232.233-.203.218zm-.188-.248l.188.195.15-.165-.18-.18-.158.15z" class="B"/><use xlink:href="#R" class="C"/><path d="M18.256 18.203c-.015 0-.03-.008-.045-.015l-.225-.232c-.023-.023-.023-.06 0-.082l.12-.12.09.09-.045.045.023.023.045-.045.09.09-.045.045.022.023.045-.045.082.082v.015l-.113.113c-.015.008-.03.015-.045.015zm-.15-.398l-.09.09c-.008.008-.008.023 0 .03l.225.233c.008.008.023.008.03 0l.09-.09-.038-.038-.045.045-.075-.075.045-.045-.038-.038-.045.045-.075-.075.045-.045-.03-.038z" class="B"/><use xlink:href="#R" x="-0.563" y="-0.562" class="C"/><path d="M17.7 17.633c-.015 0-.03-.008-.045-.015l-.225-.232c-.023-.023-.023-.06 0-.082l.12-.12.09.09-.045.045.023.023.045-.045.09.09-.045.045.023.023.045-.045.082.083-.008.015-.113.105c-.015.023-.022.023-.037.023zm-.157-.39l-.09.09c-.008.008-.008.023 0 .03l.225.232c.008.008.023.008.03 0l.09-.09-.038-.037-.045.045-.075-.075.045-.045-.038-.038-.045.045-.075-.075.045-.045-.03-.038z" class="B"/><path d="M17.903 17.746c.038-.03-.015-.082-.045-.045l-.082.082.045.045.082-.082zm.165.397c.03-.03-.015-.075-.045-.045l-.06.06.045.045.06-.06zm-.563-.564c.03-.03-.015-.075-.045-.045l-.06.06.045.045.06-.06z" class="B"/><path d="M14.445 15.18a.62.62 0 0 0 .165.428c.105.113.24.18.397.18s.293-.067.398-.18a.62.62 0 0 0 .165-.428v-.81h-1.125v.81z" fill="#039"/><use xlink:href="#S" class="D"/><use xlink:href="#T" class="D"/><use xlink:href="#U" class="D"/><use xlink:href="#S" y="0.615" class="D"/><use xlink:href="#T" y="0.615" class="D"/><path d="M14.445 13.231a.62.62 0 0 0 .165.428c.105.112.24.18.397.18s.293-.068.398-.18a.62.62 0 0 0 .165-.428v-.81h-1.125v.81z" fill="#039"/><use xlink:href="#V" class="D"/><use xlink:href="#W" class="D"/><use xlink:href="#X" class="D"/><use xlink:href="#V" y="0.615" class="D"/><use xlink:href="#W" y="0.615" class="D"/><path d="M12.885 15.18a.62.62 0 0 0 .165.428c.105.113.24.18.398.18s.293-.067.397-.18a.62.62 0 0 0 .165-.428v-.81h-1.125v.81z" fill="#039"/><use xlink:href="#S" x="-1.56" class="D"/><use xlink:href="#S" x="-0.938" class="D"/><use xlink:href="#W" x="-1.875" y="2.25" class="D"/><use xlink:href="#S" x="-1.56" y="0.615" class="D"/><use xlink:href="#S" x="-0.938" y="0.615" class="D"/><path d="M16.004 15.18a.62.62 0 0 0 .165.428c.105.113.24.18.398.18s.293-.067.398-.18a.62.62 0 0 0 .165-.428v-.81h-1.125v.81z" fill="#039"/><use xlink:href="#T" x="0.929" class="D"/><use xlink:href="#S" x="2.174" class="D"/><use xlink:href="#U" x="1.56" class="D"/><use xlink:href="#T" x="0.929" y="0.615" class="D"/><use xlink:href="#S" x="2.174" y="0.615" class="D"/><path d="M14.445 17.114a.62.62 0 0 0 .165.427c.105.113.24.18.397.18s.293-.067.398-.18a.62.62 0 0 0 .165-.427v-.81h-1.125v.81z" fill="#039"/><use xlink:href="#Y" class="D"/><use xlink:href="#Z" class="D"/><use xlink:href="#X" y="3.886" class="D"/><use xlink:href="#Y" y="0.615" class="D"/><use xlink:href="#Z" y="0.615" class="D"/><path d="M1 15C1 7.268 7.268 1 15 1s14 6.268 14 14-6.268 14-14 14S1 22.732 1 15z" stroke="#152361" stroke-width="2"/></g><defs ><path id="C" d="M10.942 11.558h1.268c.03 0 .045.03.045.06s-.023.06-.045.06h-1.268c-.03 0-.045-.03-.045-.06-.007-.037.015-.06.045-.06z"/><path id="D" d="M12.188 11.003h-1.215c-.037 0-.068-.03-.068-.075 0-.037.03-.075.068-.075h1.215c.037 0 .068.03.068.075-.008.045-.038.075-.068.075zm-1.223-.105c-.015 0-.03.015-.03.037s.015.037.03.037h1.215c.015 0 .03-.015.03-.037s-.015-.037-.03-.037h-1.215z"/><path id="E" d="M12.158 11.107h-1.162c-.038 0-.06-.03-.06-.075 0-.037.03-.075.06-.075h1.162c.037 0 .06.03.06.075s-.022.075-.06.075zm-1.17-.105c-.015 0-.023.015-.023.037 0 .015.015.037.023.037h1.162c.015 0 .022-.015.022-.037 0-.015-.015-.037-.022-.037h-1.162z"/><path id="F" d="M11.371 10.192h.09v.068h.068v-.068h.098v.068h.067v-.068h.098v.15c0 .023-.022.037-.037.037h-.33c-.022 0-.045-.015-.045-.037l-.008-.15z"/><path id="G" d="M11.797 10.898l.008-.3h.33l.008.3h-.345zm.045-.263l-.008.225h.27l-.008-.225h-.255z"/><path id="H" d="M11.34 10.635h-.322c-.03 0-.06-.03-.06-.06v-.158l.015-.008h.008.105v.068h.03v-.068h.128v.068h.03v-.068h.127v.173c0 .03-.03.052-.06.052zm-.352-.187v.128c0 .008.008.022.022.022h.323c.007 0 .022-.008.022-.022v-.135h-.053v.067h-.105v-.067h-.052v.067h-.105v-.067l-.053.007z"/><path id="I" d="M12.135 10.635h-.323c-.03 0-.06-.03-.06-.06v-.158l.015-.008h.008.105v.068h.03v-.068h.127v.068h.03v-.068h.128v.173c0 .03-.03.052-.06.052zm-.345-.187v.128c0 .008.008.022.023.022h.323c.008 0 .023-.008.023-.022v-.135h-.053v.067H12v-.067h-.053v.067h-.105v-.067l-.053.007z"/><path id="J" d="M11.145 10.711a.03.03 0 0 1 .06 0v.09h-.06v-.09z"/><path id="K" d="M11.594 18.068l.06-.06.045.045.045-.045-.045-.045.068-.067.045.045.045-.045-.045-.045.068-.067.105.105c.015.015.015.037 0 .052l-.225.233c-.015.015-.045.015-.06 0l-.105-.105z"/><path id="L" d="M14.4 10.425h.09v.068h.068v-.068h.09v.068h.068v-.068h.09v.15c0 .023-.015.037-.038.037h-.322c-.022 0-.045-.015-.045-.037v-.15z"/><path id="M" d="M18.975 11.078l.053.473h-.308c0-.39-.3-.457-.308-.457s-.3.09-.307.457h-.315l.052-.48 1.133.008z"/><path id="N" d="M19.043 11.558h-1.267c-.03 0-.045.03-.045.06s.023.06.045.06h1.267c.03 0 .045-.03.045-.06.008-.037-.015-.06-.045-.06z"/><path id="O" d="M19.019 11.003h-1.215c-.038 0-.068-.03-.068-.075 0-.037.03-.075.068-.075h1.215c.037 0 .067.03.067.075s-.03.075-.067.075zm-1.223-.105c-.015 0-.03.015-.03.037s.015.037.03.037h1.215c.015 0 .03-.015.03-.037s-.015-.037-.03-.037h-1.215z"/><path id="P" d="M18.99 11.107h-1.163c-.038 0-.06-.03-.06-.075 0-.037.03-.075.06-.075h1.163c.037 0 .06.03.06.075.008.045-.023.075-.06.075zm-1.163-.105c-.015 0-.023.015-.023.037 0 .015.015.037.023.037h1.163c.015 0 .022-.015.022-.037 0-.015-.015-.037-.022-.037h-1.163z"/><path id="Q" d="M18.615 10.192h-.09v.068h-.068v-.068h-.098v.068h-.067v-.068h-.098v.15c0 .023.023.037.038.037h.33c.023 0 .045-.015.045-.037l.008-.15z"/><path id="R" d="M18.39 18.068l-.06-.06-.045.045-.045-.045.045-.045-.068-.067-.045.045-.045-.045.045-.045-.067-.067-.105.105c-.015.015-.015.037 0 .052l.225.233c.015.015.045.015.06 0l.105-.105z"/><path id="S" d="M14.708 14.79c.062 0 .112-.05.112-.113s-.05-.112-.112-.112-.113.05-.113.112.05.113.113.113z"/><path id="T" d="M15.331 14.79c.062 0 .113-.05.113-.113s-.05-.112-.113-.112-.113.05-.113.112.05.113.113.113z"/><path id="U" d="M15.015 15.09c.062 0 .113-.05.113-.112s-.05-.113-.113-.113-.112.05-.112.113.05.112.112.112z"/><path id="V" d="M14.708 12.84c.062 0 .112-.05.112-.112s-.05-.113-.112-.113-.113.05-.113.113.05.112.113.112z"/><path id="W" d="M15.331 12.84c.062 0 .113-.05.113-.112s-.05-.113-.113-.113-.113.05-.113.113.05.112.113.112z"/><path id="X" d="M15.015 13.14c.062 0 .113-.05.113-.113s-.05-.113-.113-.113-.112.05-.112.113.05.113.112.113z"/><path id="Y" d="M14.708 16.724c.062 0 .112-.05.112-.113s-.05-.113-.112-.113-.113.05-.113.113.05.113.113.113z"/><path id="Z" d="M15.331 16.724c.062 0 .113-.05.113-.113s-.05-.113-.113-.113-.113.05-.113.113.05.113.113.113z"/></defs></svg>