<svg width="30" height="30" viewBox="0 0 30 30" fill="none" xmlns="http://www.w3.org/2000/svg">
<mask id="mask0_10264_45627" style="mask-type:alpha" maskUnits="userSpaceOnUse" x="0" y="0" width="30" height="30">
<path d="M0.5 15C0.5 6.99187 6.99187 0.5 15 0.5C23.0081 0.5 29.5 6.99187 29.5 15C29.5 23.0081 23.0081 29.5 15 29.5C6.99187 29.5 0.5 23.0081 0.5 15Z" fill="#C4C4C4" stroke="#152361"/>
</mask>
<g mask="url(#mask0_10264_45627)">
<path d="M34.0588 0H-4C-5.10457 0 -6 0.89543 -6 2V28C-6 29.1046 -5.10457 30 -4 30H34.0588C35.1634 30 36.0588 29.1046 36.0588 28V2C36.0588 0.89543 35.1634 0 34.0588 0Z" fill="white"/>
<mask id="mask1_10264_45627" style="mask-type:alpha" maskUnits="userSpaceOnUse" x="-6" y="0" width="43" height="30">
<path d="M34.0588 0H-4C-5.10457 0 -6 0.89543 -6 2V28C-6 29.1046 -5.10457 30 -4 30H34.0588C35.1634 30 36.0588 29.1046 36.0588 28V2C36.0588 0.89543 35.1634 0 34.0588 0Z" fill="white"/>
</mask>
<g mask="url(#mask1_10264_45627)">
</g>
<g clip-path="url(#clip0_10264_45627)">
<path d="M38.2277 -0.558594H-8.22754V15.0005H38.2277V-0.558594Z" fill="white"/>
<path d="M38.2277 15H-8.22754V30.5591H38.2277V15Z" fill="#D52B1E"/>
<path d="M38.2277 9.81519H-8.22754V20.1887H38.2277V9.81519Z" fill="#0039A6"/>
</g>
<path d="M1 15C1 7.26801 7.26801 1 15 1C22.732 1 29 7.26801 29 15C29 22.732 22.732 29 15 29C7.26801 29 1 22.732 1 15Z" stroke="#152361" stroke-width="2"/>
</g>
<defs>
<clipPath id="clip0_10264_45627">
<rect width="46" height="26" fill="white" transform="translate(-8 2)"/>
</clipPath>
</defs>
</svg>
