<svg width="40" height="40" viewBox="0 0 40 40" fill="none" xmlns="http://www.w3.org/2000/svg">
<g opacity="0.5">
<path fill-rule="evenodd" clip-rule="evenodd" d="M20 38C21.208 38 22.9678 36.8155 24.5401 33.3214C25.329 31.5684 25.9728 29.4214 26.4037 27H13.5963C14.0272 29.4214 14.671 31.5684 15.4599 33.3214C17.0322 36.8155 18.792 38 20 38ZM13.2976 25C13.1046 23.4166 13 21.7405 13 20C13 18.2595 13.1046 16.5834 13.2976 15H26.7024C26.8954 16.5834 27 18.2595 27 20C27 21.7405 26.8954 23.4166 26.7024 25H13.2976ZM28.4334 27C27.6838 31.4573 26.2392 35.1611 24.3926 37.4602C29.9069 36.0773 34.412 32.1507 36.5882 27H28.4334ZM37.2965 25H28.7165C28.9016 23.4019 29 21.7265 29 20C29 18.2735 28.9016 16.5981 28.7165 15H37.2965C37.7545 16.5875 38 18.2651 38 20C38 21.7349 37.7545 23.4125 37.2965 25ZM11.2835 25H2.70353C2.24546 23.4125 2 21.7349 2 20C2 18.2651 2.24546 16.5875 2.70353 15H11.2835C11.0984 16.5981 11 18.2735 11 20C11 21.7265 11.0984 23.4019 11.2835 25ZM3.41182 27H11.5666C12.3162 31.4573 13.7608 35.1611 15.6074 37.4602C10.0931 36.0773 5.58801 32.1507 3.41182 27ZM13.5963 13H26.4037C25.9728 10.5786 25.329 8.43159 24.5401 6.67859C22.9678 3.1845 21.208 2 20 2C18.792 2 17.0322 3.1845 15.4599 6.67859C14.671 8.43159 14.0272 10.5786 13.5963 13ZM28.4334 13H36.5882C34.412 7.84931 29.9069 3.92267 24.3926 2.5398C26.2392 4.83888 27.6838 8.54271 28.4334 13ZM15.6074 2.5398C13.7608 4.83888 12.3162 8.54271 11.5666 13H3.41182C5.58801 7.84932 10.0931 3.92268 15.6074 2.5398ZM20 0C31.0457 0 40 8.9543 40 20C40 31.0457 31.0457 40 20 40C8.9543 40 0 31.0457 0 20C0 8.9543 8.9543 0 20 0Z" fill="#152361"/>
</g>
</svg>
