<svg width="189" height="55" viewBox="0 0 189 55" fill="none" xmlns="http://www.w3.org/2000/svg">
<path d="M108.601 17.1616C108.601 23.1108 111.293 26.3674 116.089 26.3674C120.938 26.3674 123.837 21.7486 123.837 21.7486L124.731 24.8072C124.937 25.5011 125.586 25.9864 126.312 25.9864H132.355C132.789 25.9864 133.142 25.6352 133.142 25.1989C133.142 24.9988 133.142 24.7859 133.142 24.5859C133.142 24.1516 132.789 23.7983 132.355 23.7983H132.346C130.95 23.7983 129.818 22.6659 129.818 21.2696L129.82 1.84913C129.82 1.33616 129.337 0.959414 128.839 1.08712L120.791 3.13262C120.442 3.22202 120.199 3.53491 120.197 3.89463V4.68643C120.197 5.12065 120.548 5.47398 120.984 5.47398V5.47398C122.381 5.47398 123.511 6.60848 123.507 8.00265L123.473 19.7392C123.473 19.7392 121.502 21.9614 118.615 21.9614C116.202 21.9614 114.91 19.95 114.91 17.4532L114.899 1.8321C114.899 1.31913 114.414 0.942386 113.918 1.0701L105.864 3.13262C105.514 3.22202 105.272 3.53491 105.272 3.89463V4.68643C105.272 5.12065 105.623 5.47398 106.059 5.47398H106.066C107.458 5.47398 108.586 6.60209 108.588 7.99414L108.601 17.1616Z" fill="#00A885"/>
<path fill-rule="evenodd" clip-rule="evenodd" d="M143.238 5.59335C143.238 5.59335 146.167 1.03409 150.758 1.03409C156.416 1.03409 160.366 6.04673 160.366 13.2283C160.366 20.9676 155.964 26.3719 149.664 26.3719C145.726 26.3719 143.238 22.7576 143.238 22.7576V28.279C143.236 29.6774 144.37 30.8098 145.767 30.8077C146.203 30.8077 146.556 31.1589 146.556 31.5952V32.2104C146.558 32.6467 146.205 33 145.769 33H134.383C133.949 33 133.596 32.6467 133.596 32.2104V31.5931C133.596 31.1567 133.949 30.8055 134.383 30.8055H134.39C135.786 30.8055 136.918 29.6732 136.918 28.2769V8.00495C136.918 6.61291 135.795 5.4848 134.403 5.47842H134.379C133.945 5.47842 133.594 5.12508 133.594 4.69087V3.89693C133.594 3.53722 133.836 3.2222 134.185 3.1328L142.252 1.05325C142.753 0.925536 143.238 1.30228 143.238 1.81738V5.59335ZM143.24 18.5964C143.24 18.5964 144.76 22.1957 148.225 22.1957C152.265 22.1957 154.061 17.7408 154.061 13.4518C154.061 9.21395 152.75 5.22938 148.481 5.22938C145.324 5.22938 143.238 7.9709 143.238 7.9709L143.236 18.5709L143.24 18.5964Z" fill="#00A885"/>
<path d="M104.75 24.0432C104.593 23.8857 104.382 23.7985 104.159 23.7985H104.101C102.762 23.7985 101.672 22.7087 101.672 21.3698V14.4373C101.675 13.2581 101.677 11.3446 101.677 10.044C101.677 3.29453 98.4797 1 95.0337 1C90.1126 1 86.8283 5.22935 86.8283 5.22935L86.807 5.2485V1.81735C86.807 1.30225 86.3217 0.925502 85.8215 1.05321L77.7544 3.13277C77.4054 3.22216 77.1627 3.53718 77.1627 3.8969V4.69083C77.1627 5.12505 77.5139 5.47838 77.9481 5.47838H77.9694C79.3615 5.48477 80.4874 6.61288 80.4874 8.00492V21.2698C80.4874 22.6661 79.3551 23.7985 77.9588 23.7985H77.9524C77.5182 23.7985 77.1648 24.1497 77.1648 24.586C77.1648 24.7861 77.1648 25.0011 77.1648 25.2033C77.1648 25.6396 77.5182 25.993 77.9524 25.993H89.3378C89.7741 25.993 90.1275 25.6396 90.1253 25.2033V24.5881C90.1253 24.1518 89.772 23.8006 89.3356 23.8006V23.8006C87.9393 23.8027 86.8048 22.6703 86.807 21.2719V7.65372L86.8283 7.63243C86.8283 7.63243 88.9057 5.47625 91.494 5.47625C93.9098 5.47625 95.3529 7.16416 95.3529 9.99082V23.8368L95.3615 23.9389C95.4594 25.0883 96.4385 25.9866 97.5921 25.9866H104.156C104.616 25.9866 104.993 25.6119 104.993 25.1522V24.635C104.995 24.4115 104.908 24.2007 104.75 24.0432Z" fill="#0C8E77"/>
<path fill-rule="evenodd" clip-rule="evenodd" d="M33.6879 5.59335C33.6879 5.59335 36.6167 1.03409 41.2079 1.03409C46.8655 1.03409 50.816 6.04673 50.8139 13.2283C50.8139 20.9676 46.4121 26.3719 40.1118 26.3719C36.174 26.3719 33.6858 22.7576 33.6858 22.7576V28.279C33.6837 29.6774 34.8182 30.8098 36.2145 30.8077C36.6508 30.8077 37.0041 31.1589 37.0041 31.5952V32.2104C37.0063 32.6467 36.6529 33 36.2166 33H24.8312C24.397 33 24.0436 32.6467 24.0436 32.2104V31.5931C24.0436 31.1567 24.397 30.8055 24.8312 30.8055H24.8376C26.2339 30.8055 27.3662 29.6732 27.3662 28.2769V8.00495C27.3662 6.61291 26.2424 5.4848 24.8503 5.47842H24.8291C24.3948 5.47842 24.0436 5.12508 24.0436 4.69087V3.89693C24.0436 3.53722 24.2863 3.2222 24.6354 3.1328L32.7024 1.05325C33.2026 0.925536 33.6879 1.30228 33.6879 1.81738V5.59335ZM33.6922 18.5964C33.6922 18.5964 35.2119 22.1957 38.6771 22.1957C42.717 22.1957 44.5135 17.7408 44.5135 13.4518C44.5135 9.21395 43.2023 5.22938 38.9326 5.22938C35.776 5.22938 33.69 7.9709 33.69 7.9709L33.6879 18.5709L33.6922 18.5964Z" fill="#0C8E77"/>
<path fill-rule="evenodd" clip-rule="evenodd" d="M0 13.6984C0 6.69982 5.21272 1.02734 11.6451 1.02734C18.0774 1.02734 23.2923 6.69982 23.2901 13.6984C23.2901 20.6969 18.0753 26.3694 11.6451 26.3694C5.21485 26.3694 0 20.6969 0 13.6984ZM6.3685 13.8221C6.3685 19.0348 8.73114 23.2599 11.6451 23.2599C14.559 23.2599 16.9216 19.0348 16.9216 13.8221C16.9216 8.60939 14.559 4.3843 11.6451 4.3843C8.73114 4.3843 6.3685 8.60939 6.3685 13.8221Z" fill="#0C8E77"/>
<path fill-rule="evenodd" clip-rule="evenodd" d="M74.932 18.1345L75.4961 18.5581C75.826 18.805 75.9218 19.2434 75.7217 19.6032C74.6085 21.6423 71.3561 26.3888 65.2048 26.3888H65.2005C58.1402 26.3867 53.9173 20.0799 53.9173 13.986C53.9173 5.08673 59.6919 1.04895 64.9791 1.04895H64.9855C72.3289 1.04895 74.5361 9.70772 74.7447 10.9912C74.8128 11.4084 74.5404 11.8064 74.1253 11.9001L59.6366 15.1503L59.6685 15.2482C59.6728 15.2631 60.1389 16.6977 61.3415 18.1089C62.4547 19.4137 64.4385 20.9697 67.5802 20.9718H67.5844C70.6495 20.9718 72.812 19.2434 73.8295 18.2132C74.1232 17.9174 74.5957 17.8833 74.932 18.1345ZM59.2109 10.1356C59.164 11.5425 59.3322 11.8235 59.3662 11.866L59.4067 11.9107L68.1293 10.0994V10.0291C68.1293 9.26499 68.0059 8.40295 67.7888 7.66436C67.4929 6.66183 67.0395 5.87215 66.4393 5.31448C65.7752 4.69721 64.9451 4.38432 63.9723 4.38432H63.9702C60.8158 4.38432 59.2875 7.74737 59.2109 10.1356Z" fill="#0C8E77"/>
<path fill-rule="evenodd" clip-rule="evenodd" d="M113.737 38.2464C113.673 38.3034 113.608 38.3593 113.543 38.414C113.179 38.7169 112.785 38.9854 112.363 39.2195C112.358 39.2223 112.353 39.2252 112.348 39.228C112.241 39.286 112.136 39.3403 112.032 39.3909C111.323 39.7369 110.68 39.91 110.104 39.91C109.197 39.91 108.548 39.6468 108.156 39.1203C108.138 39.0968 108.121 39.0728 108.105 39.0482C108.073 39.0002 108.042 38.9501 108.014 38.898C108.031 38.8937 108.049 38.8894 108.066 38.8851C108.851 38.6898 109.53 38.464 110.104 38.2077C110.416 38.0684 110.697 37.92 110.947 37.7627C111.062 37.6906 111.17 37.6166 111.271 37.5407C111.279 37.535 111.286 37.5293 111.294 37.5236C111.439 37.4136 111.57 37.2998 111.688 37.182C111.831 37.0386 111.961 36.8899 112.076 36.7359C112.551 36.1021 112.788 35.3781 112.788 34.564C112.788 34.1511 112.73 33.78 112.613 33.4506C112.485 33.0896 112.286 32.7787 112.018 32.518C111.505 32.0046 110.823 31.748 109.972 31.748C109.019 31.748 108.161 32.0046 107.398 32.518C106.65 33.0313 106.063 33.728 105.638 34.608C105.213 35.4733 105 36.412 105 37.424C105 38.876 105.425 40.02 106.276 40.856C107.127 41.692 108.322 42.11 109.862 42.11C110.739 42.11 111.571 41.9421 112.359 41.6064C112.586 41.5095 112.81 41.3987 113.03 41.274C113.447 41.041 113.824 40.7991 114.161 40.5482C114.21 40.8125 114.269 41.0397 114.341 41.23C114.56 41.777 114.919 42.0689 115.418 42.106C115.454 42.1086 115.491 42.11 115.529 42.11C115.983 42.11 116.313 41.9926 116.519 41.758C116.722 41.5271 116.901 41.1076 117.054 40.4996C117.067 40.4509 117.079 40.401 117.091 40.35C117.219 39.8153 117.375 39.274 117.557 38.7259C117.621 38.5347 117.688 38.3426 117.758 38.1497C117.784 38.0766 117.811 38.0033 117.839 37.93C117.89 37.7987 117.942 37.6711 117.994 37.5473C118.002 37.5272 118.011 37.5072 118.019 37.4873C118.069 37.3701 118.119 37.2564 118.169 37.146C118.173 37.1374 118.177 37.1288 118.181 37.1202C118.184 37.1135 118.187 37.1067 118.19 37.1C118.269 36.9273 118.349 36.7631 118.429 36.6075C118.542 36.3877 118.656 36.1849 118.77 35.9992C118.79 35.9676 118.809 35.9366 118.829 35.906C118.941 35.73 119.047 35.5833 119.146 35.466C119.284 35.3034 119.409 35.1972 119.522 35.1472C119.531 35.1435 119.539 35.1401 119.547 35.137C119.588 35.1216 119.627 35.114 119.665 35.114C119.7 35.114 119.732 35.1197 119.76 35.1311C119.858 35.1714 119.907 35.283 119.907 35.466C119.907 35.6693 119.879 36.0275 119.822 36.5407C119.803 36.7134 119.781 36.9037 119.756 37.1116C119.748 37.1773 119.739 37.2448 119.731 37.314C119.665 37.7867 119.614 38.2094 119.578 38.5822C119.577 38.5922 119.576 38.6021 119.575 38.6121C119.557 38.7961 119.543 38.9677 119.533 39.127C119.518 39.3545 119.511 39.5568 119.511 39.734C119.511 40.394 119.628 40.9586 119.863 41.428C120.112 41.8826 120.479 42.11 120.963 42.11C121.432 42.11 121.769 41.9926 121.975 41.758C122.195 41.5233 122.385 41.054 122.547 40.35C122.665 39.8693 122.802 39.4013 122.958 38.946C123.093 38.5539 123.242 38.1712 123.405 37.798C123.443 37.7102 123.481 37.6244 123.52 37.5405C123.527 37.5244 123.534 37.5083 123.542 37.4923C123.591 37.3844 123.641 37.2798 123.691 37.1783C123.705 37.1483 123.72 37.1185 123.735 37.0891C123.737 37.0837 123.74 37.0783 123.743 37.0729C123.831 36.8971 123.919 36.7314 124.007 36.5757C124.091 36.427 124.175 36.2874 124.259 36.1571C124.26 36.1549 124.262 36.1527 124.263 36.1505C124.295 36.1016 124.327 36.0539 124.358 36.0076C124.392 35.9575 124.427 35.909 124.461 35.862C124.571 35.7054 124.674 35.5734 124.768 35.466C124.975 35.2313 125.144 35.114 125.275 35.114C125.297 35.114 125.317 35.1161 125.336 35.1204C125.456 35.1479 125.517 35.2631 125.517 35.466C125.517 35.6958 125.476 36.0476 125.395 36.5213C125.394 36.5272 125.393 36.5331 125.392 36.5391C125.361 36.7142 125.326 36.9059 125.285 37.114C125.268 37.1998 125.25 37.2885 125.231 37.38C125.147 37.8092 125.081 38.1851 125.031 38.5077C124.977 38.8578 124.944 39.1451 124.93 39.3696C124.925 39.4472 124.923 39.5174 124.923 39.58C124.923 40.4013 125.113 41.032 125.495 41.472C125.685 41.6846 125.922 41.8441 126.204 41.9505C126.486 42.0568 126.815 42.11 127.189 42.11C127.488 42.11 127.777 42.0838 128.055 42.0314C128.161 42.0115 128.265 41.9877 128.368 41.9602C128.095 42.5863 127.857 43.1936 127.654 43.782C127.617 43.889 127.581 43.9953 127.547 44.1009C127.492 44.266 127.44 44.4293 127.391 44.5908C126.955 46.0199 126.715 47.305 126.671 48.446C126.666 48.5724 126.664 48.6971 126.664 48.82C126.664 48.9907 126.669 49.1552 126.68 49.3134C126.734 50.093 126.919 50.7205 127.236 51.196C127.617 51.768 128.204 52.054 128.996 52.054C130.301 52.054 131.291 51.1006 131.966 49.194C132.64 47.302 133.073 44.9406 133.264 42.11C134.173 42.0953 135.046 41.8166 135.882 41.274C136.366 41.8313 136.996 42.11 137.774 42.11C138.353 42.11 138.891 42.0122 139.389 41.8165C139.686 41.6998 139.969 41.5483 140.238 41.362C140.549 41.1503 140.851 40.9134 141.144 40.6515C141.189 40.8722 141.242 41.065 141.304 41.23C141.538 41.8166 141.934 42.11 142.492 42.11C142.499 42.11 142.506 42.11 142.513 42.1099C142.957 42.1062 143.28 41.9889 143.482 41.758C143.69 41.5218 143.872 41.0882 144.028 40.4573C144.036 40.4221 144.045 40.3864 144.054 40.35C144.227 39.6448 144.441 38.9669 144.697 38.3163C144.765 38.1416 144.837 37.9688 144.912 37.798C144.936 37.7426 144.96 37.6879 144.984 37.6341C144.993 37.6136 145.003 37.5932 145.012 37.5729C145.022 37.5513 145.031 37.5299 145.041 37.5085C145.094 37.3934 145.147 37.282 145.2 37.1742C145.278 37.0148 145.356 36.8634 145.434 36.72C145.469 36.6558 145.503 36.5932 145.538 36.5323C145.589 36.4435 145.64 36.3582 145.691 36.2762C145.763 36.1594 145.835 36.0494 145.908 35.9462C145.928 35.9176 145.948 35.8895 145.968 35.862C145.971 35.8568 145.975 35.8517 145.979 35.8466C146.09 35.6968 146.194 35.5699 146.291 35.466C146.474 35.2708 146.633 35.1568 146.768 35.124C146.795 35.1175 146.821 35.1142 146.846 35.114C146.846 35.114 146.847 35.114 146.848 35.114C147.009 35.114 147.09 35.2313 147.09 35.466C147.09 35.5686 147.075 35.7666 147.046 36.06C147.01 36.2398 146.988 36.4197 146.982 36.5996C146.982 36.6022 146.982 36.6049 146.982 36.6075C146.98 36.645 146.98 36.6825 146.98 36.72C146.98 36.8545 146.987 36.9835 147.003 37.1069C147.032 37.3299 147.086 37.5349 147.166 37.7217C147.263 37.9502 147.399 38.1516 147.574 38.326C147.867 38.6087 148.254 38.7905 148.734 38.8714C148.926 38.9038 149.133 38.92 149.356 38.92C149.835 38.92 150.292 38.8311 150.727 38.6534C150.87 39.3566 151.143 39.9648 151.548 40.4781C151.653 40.6104 151.766 40.7363 151.887 40.856C152.738 41.692 153.933 42.11 155.473 42.11C155.985 42.11 156.482 42.0527 156.964 41.9383C156.964 41.9383 156.963 41.9383 156.964 41.9383C157.023 41.9242 157.082 41.9091 157.141 41.8933C157.659 41.754 158.159 41.5476 158.641 41.274C158.79 41.1909 158.934 41.1067 159.072 41.0214C159.153 40.9714 159.233 40.9209 159.311 40.8701C159.312 40.8696 159.314 40.8691 159.316 40.8687C159.521 40.8153 159.718 40.6937 159.908 40.504C159.947 40.4659 159.986 40.4276 160.025 40.3892C160.028 40.3863 160.031 40.3834 160.034 40.3805C160.1 40.3149 160.165 40.2488 160.23 40.1822C160.243 40.1706 160.256 40.1589 160.27 40.1473C160.301 40.1195 160.332 40.0916 160.363 40.0637C160.364 40.0627 160.365 40.0617 160.366 40.0608C160.511 39.9288 160.645 39.7945 160.769 39.6579C160.833 39.5885 160.893 39.5186 160.951 39.448C161.004 39.3865 161.052 39.3203 161.095 39.2493C161.119 39.2106 161.141 39.1704 161.161 39.1288C161.199 39.0819 161.236 39.0349 161.273 38.9876C161.302 38.9505 161.331 38.9133 161.36 38.876C161.429 38.7898 161.497 38.7002 161.566 38.6074C161.573 38.5976 161.58 38.5878 161.587 38.5779C161.598 38.5633 161.609 38.5485 161.619 38.5337C161.723 38.3913 161.826 38.2414 161.929 38.084C162.046 37.9057 162.162 37.7176 162.279 37.52C162.297 37.4898 162.315 37.4594 162.333 37.4288C162.344 37.4086 162.356 37.3882 162.368 37.3677C162.487 37.1618 162.605 36.9459 162.724 36.72C162.74 36.7385 162.757 36.7574 162.773 36.7765C162.946 36.978 163.13 37.2101 163.323 37.4728C163.326 37.4766 163.329 37.4803 163.331 37.484C163.349 37.5078 163.366 37.5317 163.384 37.556C163.533 37.752 163.665 37.9541 163.779 38.162C163.802 38.2044 163.824 38.247 163.846 38.2898C163.885 38.3671 163.922 38.4451 163.956 38.524C163.964 38.5406 163.972 38.5572 163.979 38.574C164.126 38.8967 164.206 39.2394 164.22 39.602L163.626 39.536C163.543 39.5213 163.463 39.5091 163.386 39.4993C163.311 39.4896 163.238 39.4824 163.169 39.4775C163.098 39.4725 163.03 39.47 162.966 39.47C162.7 39.47 162.466 39.5035 162.263 39.5705C162.256 39.5728 162.249 39.5751 162.242 39.5774C162.233 39.5808 162.223 39.5843 162.213 39.5878C162.024 39.6572 161.865 39.7573 161.734 39.888C161.696 39.9259 161.661 39.9647 161.628 40.0045C161.624 40.0099 161.619 40.0154 161.615 40.0209C161.416 40.2699 161.316 40.5556 161.316 40.878C161.316 41.1614 161.398 41.4266 161.563 41.6735C161.563 41.6747 161.564 41.6759 161.565 41.6771C161.655 41.8122 161.77 41.9418 161.91 42.066C162.321 42.418 162.907 42.594 163.67 42.594C164.032 42.594 164.371 42.5439 164.688 42.4437C165.079 42.3204 165.436 42.1211 165.76 41.846C165.888 41.8422 166.013 41.8359 166.135 41.8271C166.193 41.823 166.25 41.8183 166.307 41.813C166.69 41.7775 167.045 41.7165 167.372 41.6301C167.389 41.6257 167.406 41.6213 167.422 41.6167C167.712 41.5374 167.979 41.4378 168.224 41.318C168.537 41.1616 168.856 40.9437 169.181 40.6643C169.273 40.8257 169.378 40.9776 169.495 41.12C169.833 41.5312 170.242 41.8144 170.723 41.9694C171.013 42.0631 171.33 42.11 171.673 42.11C172.1 42.11 172.499 42.0264 172.873 41.8592C172.932 41.8328 172.99 41.8042 173.048 41.7736C173.615 41.4722 174.117 40.9684 174.555 40.262C174.62 40.4435 174.695 40.6132 174.779 40.7711C174.96 41.1108 175.186 41.3957 175.457 41.626C175.589 41.7298 175.725 41.8169 175.864 41.8873C176.159 42.0358 176.47 42.11 176.799 42.11C176.814 42.11 176.829 42.1098 176.845 42.1095C177.461 42.0974 178.098 41.8409 178.757 41.34C178.769 41.3303 178.782 41.3207 178.795 41.3109C178.879 41.246 178.963 41.1792 179.046 41.1105C179.091 41.074 179.135 41.0369 179.179 40.9993C179.226 40.9595 179.272 40.919 179.318 40.878C179.407 40.7994 179.495 40.7186 179.583 40.6356C179.592 40.6264 179.602 40.6172 179.612 40.608C179.632 40.5882 179.653 40.5682 179.674 40.5482C179.674 40.548 179.673 40.5484 179.674 40.5482C179.714 40.5089 179.755 40.4686 179.795 40.4284C179.798 40.4254 179.801 40.4224 179.804 40.4194C179.859 40.3641 179.914 40.3079 179.968 40.2509C180.019 40.1982 180.069 40.1448 180.119 40.0906C180.12 40.0895 180.121 40.0884 180.122 40.0874C180.308 39.8847 180.491 39.6716 180.671 39.448C180.724 39.386 180.773 39.319 180.816 39.2473C180.837 39.2124 180.857 39.1765 180.875 39.1394C180.916 39.0883 180.957 39.037 180.998 38.9855C181.026 38.9491 181.055 38.9126 181.083 38.876C181.151 38.7903 181.219 38.7013 181.287 38.6091C181.291 38.6031 181.296 38.597 181.3 38.591C181.314 38.572 181.328 38.5529 181.342 38.5337C181.445 38.3913 181.548 38.2414 181.651 38.084C181.768 37.9057 181.885 37.7176 182.002 37.52C182.02 37.4898 182.037 37.4594 182.055 37.4288C182.059 37.4226 182.062 37.4163 182.066 37.41C182.193 37.1914 182.32 36.9614 182.447 36.72C182.465 36.7412 182.484 36.7628 182.503 36.7847C182.673 36.9829 182.852 37.2104 183.042 37.4672C183.046 37.4728 183.05 37.4784 183.054 37.484C183.072 37.5078 183.089 37.5317 183.107 37.556C183.256 37.752 183.388 37.9541 183.501 38.162C183.525 38.2044 183.547 38.247 183.569 38.2898C183.608 38.3671 183.644 38.4451 183.679 38.524C183.687 38.5406 183.694 38.5572 183.702 38.574C183.849 38.8967 183.929 39.2394 183.943 39.602L183.349 39.536C183.266 39.5213 183.186 39.5091 183.109 39.4993C183.032 39.4895 182.959 39.4821 182.888 39.4773C182.819 39.4724 182.752 39.47 182.689 39.47C182.423 39.47 182.188 39.5035 181.986 39.5705C181.979 39.5728 181.972 39.5751 181.965 39.5774C181.955 39.5808 181.946 39.5843 181.936 39.5878C181.747 39.6572 181.587 39.7573 181.457 39.888C181.421 39.924 181.387 39.9609 181.356 39.9986C181.349 40.0066 181.343 40.0146 181.336 40.0226C181.138 40.2712 181.039 40.5563 181.039 40.878C181.039 41.1628 181.122 41.4292 181.288 41.6771C181.299 41.694 181.311 41.7109 181.323 41.7276C181.407 41.8446 181.511 41.9574 181.633 42.066C182.043 42.418 182.63 42.594 183.393 42.594C184.053 42.594 184.639 42.4253 185.153 42.088C185.291 41.9969 185.422 41.8982 185.543 41.7921C185.716 41.6413 185.871 41.4755 186.009 41.2944C186.134 41.1312 186.244 40.9558 186.341 40.768C186.634 40.2106 186.781 39.624 186.781 39.008C186.781 38.4946 186.656 38.0253 186.407 37.6C186.172 37.16 185.82 36.632 185.351 36.016C185.028 35.62 184.786 35.29 184.625 35.026C184.478 34.762 184.405 34.52 184.405 34.3C184.405 33.9333 184.537 33.486 184.801 32.958C184.903 32.7673 184.984 32.5766 185.043 32.386C185.101 32.1953 185.131 32.056 185.131 31.968C185.131 31.8066 185.05 31.6893 184.889 31.616C184.727 31.5426 184.441 31.506 184.031 31.506C183.151 31.506 182.571 31.8286 182.293 32.474C182.044 33.0455 181.821 33.5492 181.624 33.9851C181.473 34.321 181.336 34.6166 181.215 34.872C181.17 34.9724 181.124 35.0705 181.079 35.1663C180.968 35.4007 180.858 35.6209 180.747 35.8269C180.656 35.9971 180.564 36.1576 180.473 36.3084C180.456 36.3359 180.439 36.3631 180.423 36.39C180.246 36.6675 180.033 36.9775 179.783 37.3201C179.783 37.3205 179.783 37.3209 179.782 37.3213C179.705 37.4275 179.624 37.5368 179.539 37.6492C179.533 37.6576 179.527 37.6659 179.521 37.6743C179.421 37.8066 179.317 37.9431 179.207 38.084C179.192 38.1039 179.176 38.1238 179.161 38.1439C179.146 38.1623 179.132 38.1808 179.118 38.1993C179.117 38.1995 179.118 38.1992 179.118 38.1993C179.111 38.2082 179.103 38.2176 179.096 38.2265C179.09 38.2343 179.084 38.2421 179.078 38.25C178.949 38.4139 178.815 38.5834 178.674 38.7585C178.665 38.7694 178.656 38.7803 178.647 38.7912C178.645 38.7941 178.643 38.797 178.64 38.7999C178.624 38.8169 178.608 38.8335 178.592 38.8499C178.56 38.882 178.53 38.913 178.5 38.943C178.493 38.9501 178.486 38.9571 178.479 38.964C178.417 39.0257 178.357 39.083 178.301 39.136C178.294 39.1421 178.288 39.1482 178.281 39.1543C178.278 39.1569 178.275 39.1594 178.273 39.162C178.27 39.1642 178.268 39.1664 178.265 39.1686C178.265 39.1687 178.265 39.1685 178.265 39.1686C178.154 39.2671 178.047 39.3518 177.945 39.4224C177.687 39.6008 177.459 39.69 177.261 39.69C177.085 39.69 176.938 39.624 176.821 39.492C176.718 39.36 176.667 39.184 176.667 38.964C176.667 38.7079 176.692 38.3746 176.743 37.964C176.823 37.3162 176.966 36.4763 177.173 35.444C177.393 34.2853 177.503 33.552 177.503 33.244C177.503 32.9352 177.373 32.7193 177.113 32.5963C176.94 32.5147 176.711 32.474 176.425 32.474C176.087 32.474 175.765 32.5033 175.457 32.562C175.383 32.2393 175.288 32.0193 175.171 31.902C175.116 31.832 175.031 31.7805 174.915 31.7477C174.812 31.7185 174.684 31.704 174.533 31.704C173.521 31.704 172.56 32.0266 171.651 32.672C170.766 33.2957 170.053 34.1274 169.513 35.167C169.507 35.1787 169.501 35.1903 169.495 35.202C169.22 35.7286 169.015 36.2721 168.88 36.8325C168.877 36.8422 168.875 36.8519 168.873 36.8616C168.833 37.0266 168.8 37.193 168.773 37.3609C168.723 37.672 168.693 37.9881 168.684 38.3091C168.683 38.3344 168.682 38.3597 168.682 38.385C168.636 38.4325 168.59 38.4789 168.544 38.524C168.425 38.6419 168.308 38.7514 168.194 38.8523C168.132 38.9067 168.071 38.9586 168.011 39.008C167.655 39.2988 167.323 39.5041 167.014 39.624C167.043 39.36 167.058 39.1546 167.058 39.008C167.058 38.8421 167.045 38.6807 167.019 38.524C166.968 38.2197 166.869 37.9328 166.72 37.6631C166.708 37.642 166.696 37.6209 166.684 37.6C166.673 37.5788 166.661 37.5574 166.649 37.5359C166.415 37.109 166.075 36.6023 165.628 36.016C165.305 35.62 165.063 35.29 164.902 35.026C164.755 34.762 164.682 34.52 164.682 34.3C164.682 33.9333 164.814 33.486 165.078 32.958C165.181 32.7673 165.261 32.5766 165.32 32.386C165.379 32.1953 165.408 32.056 165.408 31.968C165.408 31.8066 165.327 31.6893 165.166 31.616C165.005 31.5426 164.719 31.506 164.308 31.506C163.428 31.506 162.849 31.8286 162.57 32.474C162.365 32.9575 162.158 33.4322 161.947 33.8981C161.826 34.167 161.704 34.433 161.58 34.696C161.502 34.8596 161.426 35.0158 161.352 35.1644C161.234 35.4031 161.121 35.6223 161.015 35.8222C160.923 35.9954 160.836 36.1541 160.753 36.2981C160.735 36.3294 160.718 36.3601 160.7 36.39C160.524 36.667 160.311 36.9765 160.062 37.3183C160.061 37.319 160.061 37.3197 160.06 37.3204C159.983 37.4269 159.901 37.5365 159.817 37.6492C159.81 37.6576 159.804 37.6659 159.798 37.6743C159.698 37.8066 159.594 37.9431 159.485 38.084C159.47 38.1033 159.455 38.1227 159.439 38.1422C159.43 38.1549 159.42 38.1676 159.41 38.1804C159.405 38.1858 159.401 38.1913 159.397 38.1968C159.394 38.201 159.39 38.2052 159.387 38.2094C159.385 38.2122 159.383 38.2149 159.381 38.2176C159.374 38.2236 159.367 38.2296 159.361 38.2355C159.357 38.2392 159.353 38.2428 159.348 38.2464C159.273 38.3138 159.196 38.3796 159.118 38.4438C158.993 38.5464 158.865 38.645 158.733 38.7395C158.733 38.7396 158.733 38.7394 158.733 38.7395C158.606 38.831 158.475 38.9189 158.341 39.0029C158.341 39.0033 158.34 39.0037 158.34 39.004C158.22 39.0788 158.099 39.1506 157.975 39.2195C157.97 39.2223 157.964 39.2252 157.959 39.228C157.355 39.5567 156.797 39.7666 156.284 39.8576C156.088 39.8925 155.898 39.91 155.715 39.91C154.808 39.91 154.159 39.6468 153.767 39.1203C153.75 39.0968 153.733 39.0728 153.716 39.0482C153.714 39.0452 153.712 39.0422 153.71 39.0392C153.68 38.9939 153.652 38.9468 153.625 38.898C153.643 38.8937 153.66 38.8894 153.677 38.8851C153.765 38.8633 153.851 38.8411 153.936 38.8185C154.612 38.639 155.205 38.4354 155.715 38.2077C156.027 38.0684 156.309 37.92 156.558 37.7627C156.673 37.6906 156.781 37.6166 156.882 37.5407C156.89 37.535 156.898 37.5293 156.905 37.5236C157.05 37.4136 157.182 37.2998 157.299 37.182C158.033 36.4486 158.399 35.576 158.399 34.564C158.399 33.6986 158.143 33.0166 157.629 32.518C157.116 32.0046 156.434 31.748 155.583 31.748C154.63 31.748 153.772 32.0046 153.009 32.518C152.725 32.7134 152.463 32.9353 152.225 33.1838C152.15 33.263 152.076 33.3448 152.005 33.4294C151.713 33.7768 151.461 34.1696 151.249 34.608C151.217 34.6732 151.186 34.7389 151.157 34.805C151.157 34.8053 151.157 34.8048 151.157 34.805C151.153 34.813 151.149 34.8217 151.146 34.8296C151.145 34.8311 151.144 34.8326 151.144 34.8341C151.024 35.1038 150.925 35.3804 150.846 35.664C150.788 35.8714 150.741 36.0825 150.704 36.2973C150.517 36.3884 150.346 36.434 150.192 36.434C149.825 36.434 149.642 36.1773 149.642 35.664C149.642 35.5173 149.7 35.1506 149.818 34.564C149.822 34.542 149.825 34.5203 149.829 34.4989C149.865 34.3003 149.895 34.1226 149.92 33.9657C149.921 33.9623 149.922 33.959 149.922 33.9556C149.984 33.5682 150.016 33.309 150.016 33.178C150.016 33.0402 150.006 32.9124 149.986 32.7946C149.868 32.0968 149.401 31.748 148.586 31.748C148.102 31.748 147.566 31.9166 146.98 32.254C146.813 32.3524 146.645 32.4701 146.475 32.6072C146.192 32.8366 145.905 33.1202 145.615 33.4581C145.484 33.6104 145.352 33.7737 145.22 33.948C145.183 33.9966 145.146 34.0461 145.11 34.0965C145.106 34.1012 145.103 34.1059 145.099 34.1106C144.932 34.3431 144.769 34.5943 144.611 34.8642C144.609 34.8668 144.608 34.8693 144.606 34.8719C144.491 35.0685 144.379 35.275 144.269 35.4914C144.184 35.6585 144.1 35.8316 144.018 36.0106C143.944 36.1718 143.871 36.3379 143.8 36.5087C143.78 36.555 143.761 36.6016 143.742 36.6486C143.691 36.7726 143.641 36.8991 143.592 37.028C143.601 36.9221 143.611 36.8191 143.622 36.7187C143.625 36.6857 143.629 36.6529 143.632 36.6205C143.668 36.2932 143.707 35.9964 143.752 35.7302C143.76 35.6804 143.768 35.6317 143.777 35.5841C143.788 35.5209 143.8 35.4595 143.812 35.4C143.9 34.96 144.017 34.4466 144.164 33.86C144.223 33.6398 144.274 33.4406 144.317 33.2626C144.435 32.7766 144.494 32.4477 144.494 32.276C144.494 32.0872 144.444 31.9542 144.345 31.877C144.336 31.8702 144.327 31.8639 144.318 31.858C144.2 31.7846 143.995 31.748 143.702 31.748C143.159 31.748 142.734 31.8506 142.426 32.056C142.132 32.2466 141.92 32.5546 141.788 32.98C141.556 33.7126 141.374 34.4626 141.241 35.2299C141.14 35.8105 141.068 36.401 141.025 37.0014C141.024 37.0041 141.024 37.0067 141.024 37.0093C141 37.3355 140.985 37.6646 140.978 37.9966C140.952 38.0262 140.925 38.0553 140.9 38.084C140.871 38.1159 140.842 38.1474 140.814 38.1783C140.8 38.1931 140.787 38.2078 140.773 38.2224C140.765 38.2315 140.756 38.2406 140.748 38.2497C140.695 38.3063 140.644 38.361 140.593 38.414C140.538 38.472 140.484 38.5279 140.431 38.5815C140.247 38.7673 140.077 38.9267 139.922 39.0595C139.879 39.0956 139.838 39.1298 139.798 39.162C139.542 39.367 139.278 39.5124 139.006 39.598C138.812 39.6593 138.614 39.69 138.412 39.69C138.206 39.69 137.95 39.646 137.642 39.558C137.943 39.1461 138.2 38.7032 138.412 38.2293C138.489 38.0562 138.561 37.8789 138.626 37.6975C138.643 37.6506 138.66 37.6034 138.676 37.556C138.686 37.5261 138.696 37.4961 138.706 37.4662C138.935 36.761 139.05 36.0356 139.05 35.29C139.05 34.2193 138.786 33.354 138.258 32.694C137.744 32.034 137.077 31.704 136.256 31.704C135.935 31.704 135.626 31.7556 135.328 31.8587C135.263 31.881 135.199 31.9057 135.136 31.9328C135.024 31.9809 134.913 32.0367 134.804 32.1C134.611 32.2054 134.418 32.3411 134.223 32.5069C134.21 32.5178 134.197 32.5288 134.184 32.54C133.931 32.7604 133.676 33.0318 133.418 33.354C133.404 33.1928 133.397 32.9516 133.396 32.6304C133.396 32.6009 133.396 32.5708 133.396 32.54C133.381 32.1733 133.3 31.9313 133.154 31.814C133.022 31.682 132.802 31.616 132.494 31.616C132.416 31.616 132.34 31.6187 132.267 31.6241C131.838 31.6553 131.474 31.7773 131.174 31.99C130.822 32.2393 130.653 32.5766 130.668 33.002C130.685 33.504 130.698 34.2414 130.705 35.2141C130.709 35.8018 130.711 36.4754 130.712 37.2349C130.712 37.2362 130.712 37.2376 130.712 37.2389C130.712 37.3144 130.712 37.3908 130.712 37.468C130.606 37.644 130.503 37.819 130.402 37.9927C130.375 38.0236 130.348 38.054 130.322 38.084C130.292 38.1175 130.263 38.1504 130.234 38.1828C130.22 38.1977 130.207 38.2125 130.194 38.2272C130.185 38.2375 130.175 38.2478 130.166 38.2581C129.822 38.6395 129.526 38.9408 129.279 39.162C129.102 39.3189 128.936 39.4408 128.78 39.5278C128.586 39.6359 128.407 39.69 128.245 39.69C127.846 39.69 127.634 39.4316 127.609 38.9147C127.608 38.8809 127.607 38.846 127.607 38.81C127.607 38.3993 127.746 37.556 128.025 36.28C128.347 34.784 128.509 33.75 128.509 33.178C128.509 32.2246 128.032 31.748 127.079 31.748C126.361 31.748 125.592 32.0985 124.774 32.7996C124.707 32.8573 124.639 32.9175 124.571 32.98C124.502 33.0431 124.434 33.1091 124.366 33.178C124.293 33.2521 124.221 33.3296 124.149 33.4104C123.789 33.8158 123.442 34.3055 123.11 34.8797C123.106 34.8865 123.102 34.8933 123.098 34.9002C122.939 35.1766 122.783 35.4723 122.63 35.7876C122.63 35.7879 122.63 35.7882 122.629 35.7885C122.459 36.1407 122.292 36.5172 122.129 36.918C122.173 36.654 122.253 36.258 122.371 35.73C122.41 35.5544 122.447 35.3865 122.481 35.2264C122.686 34.2632 122.789 33.5804 122.789 33.178C122.789 32.7622 122.708 32.4384 122.545 32.2066C122.519 32.1686 122.49 32.1331 122.459 32.1C122.253 31.8653 121.894 31.748 121.381 31.748C120.867 31.748 120.317 31.946 119.731 32.342C119.661 32.3883 119.592 32.4376 119.523 32.49C119.214 32.7231 118.908 33.0162 118.604 33.3694C118.421 33.5824 118.238 33.8173 118.057 34.0739C118.053 34.0782 118.05 34.0825 118.047 34.0868C118.044 34.0918 118.04 34.0969 118.037 34.102C117.839 34.391 117.65 34.7034 117.472 35.0392C117.396 35.182 117.322 35.3289 117.25 35.4802C117.249 35.481 117.249 35.4819 117.248 35.4827C117.174 35.6375 117.102 35.7967 117.032 35.9603C116.95 36.1509 116.871 36.3474 116.794 36.55C116.778 36.5928 116.762 36.6359 116.746 36.6792C116.706 36.7865 116.667 36.8954 116.629 37.006C116.637 36.9123 116.646 36.821 116.655 36.732C116.659 36.6996 116.662 36.6675 116.665 36.6358C116.702 36.2928 116.744 35.9856 116.79 35.7141C116.809 35.6035 116.828 35.4988 116.849 35.4C116.857 35.3602 116.865 35.3197 116.873 35.2787C116.958 34.8665 117.067 34.3936 117.201 33.86C117.227 33.7624 117.251 33.669 117.274 33.5797C117.275 33.5757 117.277 33.5717 117.278 33.5677C117.446 32.9121 117.531 32.4815 117.531 32.276C117.531 32.0706 117.472 31.9313 117.355 31.858C117.338 31.8474 117.319 31.8376 117.298 31.8285C117.176 31.7748 116.99 31.748 116.739 31.748C116.196 31.748 115.771 31.8506 115.463 32.056C115.169 32.2466 114.957 32.5546 114.825 32.98C114.775 33.1377 114.727 33.2962 114.682 33.4555C114.578 33.8208 114.486 34.1902 114.407 34.564C114.359 34.7868 114.316 35.011 114.277 35.2368C114.178 35.8102 114.107 36.3933 114.063 36.9861C114.062 36.9912 114.062 36.9963 114.062 37.0014C114.052 37.1311 114.044 37.2613 114.037 37.3919C114.027 37.5887 114.02 37.7865 114.015 37.9854C113.982 38.0186 113.948 38.0514 113.914 38.084C113.889 38.1071 113.865 38.13 113.84 38.1527C113.828 38.1637 113.817 38.1746 113.805 38.1855C113.799 38.1909 113.793 38.1962 113.787 38.2015C113.782 38.206 113.777 38.2104 113.772 38.2148C113.765 38.2217 113.757 38.2286 113.749 38.2355C113.745 38.2392 113.741 38.2428 113.737 38.2464ZM113.514 31.1864C113.738 30.8861 114.017 30.6118 114.363 30.3855C115.117 29.8864 115.979 29.748 116.739 29.748C117.072 29.748 117.782 29.7664 118.415 30.162C118.589 30.271 118.737 30.393 118.862 30.5228C119.602 30.0691 120.451 29.748 121.381 29.748C122.102 29.748 123.17 29.898 123.941 30.7566C123.968 30.7867 123.995 30.8172 124.021 30.8479C124.915 30.2007 125.941 29.748 127.079 29.748C127.864 29.748 128.82 29.9456 129.565 30.6913C129.574 30.6996 129.582 30.7079 129.59 30.7163C129.72 30.5873 129.863 30.4675 130.018 30.3579C130.777 29.82 131.646 29.616 132.494 29.616C132.93 29.616 133.632 29.6858 134.257 30.1349C134.883 29.8515 135.555 29.704 136.256 29.704C137.703 29.704 138.944 30.3252 139.828 31.4553C139.924 31.5753 140.013 31.6982 140.096 31.8238C140.354 31.2784 140.747 30.7647 141.326 30.3856C142.08 29.8864 142.941 29.748 143.702 29.748C144.035 29.748 144.745 29.7664 145.378 30.162C145.578 30.2873 145.744 30.4297 145.88 30.5816C145.908 30.5645 145.936 30.5478 145.964 30.5312L145.973 30.5257L145.983 30.5202C146.758 30.0744 147.64 29.748 148.586 29.748C149.371 29.748 150.327 29.9456 151.072 30.6913C151.226 30.8445 151.356 31.0066 151.466 31.1743C151.598 31.0681 151.736 30.9663 151.878 30.869L151.885 30.8638L151.893 30.8588C152.998 30.1148 154.248 29.748 155.583 29.748C156.862 29.748 158.082 30.1483 159.033 31.0936C159.592 31.6399 159.96 32.2815 160.171 32.9714C160.359 32.5536 160.545 32.1281 160.728 31.6947L160.731 31.6879L160.734 31.6811C161.037 30.9799 161.542 30.3898 162.24 30.0007C162.909 29.6282 163.635 29.506 164.308 29.506C164.724 29.506 165.402 29.5262 165.994 29.7952C166.325 29.9458 166.705 30.2025 166.996 30.6259C167.295 31.0612 167.408 31.5385 167.408 31.968C167.408 32.3819 167.294 32.7721 167.232 32.9742C167.135 33.2878 167.008 33.5879 166.856 33.8741C166.797 33.9935 166.757 34.0902 166.729 34.1657C166.832 34.3132 166.978 34.5071 167.179 34.7526L167.199 34.7779L167.219 34.8039C167.272 34.8742 167.325 34.9441 167.377 35.0136C167.48 34.7667 167.593 34.5229 167.719 34.2824C168.395 32.9674 169.318 31.8701 170.496 31.0392C171.707 30.1806 173.065 29.704 174.533 29.704C174.914 29.704 175.869 29.7451 176.578 30.4764C177.101 30.4929 177.785 30.603 178.396 31.039C179.192 31.6076 179.503 32.4616 179.503 33.244C179.503 33.4261 179.485 33.6546 179.453 33.9198C179.711 33.371 180.045 32.6272 180.457 31.6811M113.514 31.1864C113.484 31.1552 113.453 31.1242 113.422 31.0936C112.471 30.1483 111.25 29.748 109.972 29.748C108.636 29.748 107.387 30.1148 106.281 30.8588L106.274 30.8638L106.266 30.869C105.211 31.5931 104.405 32.566 103.84 33.7317C103.275 34.8835 103 36.1239 103 37.424C103 39.2878 103.56 40.9912 104.874 42.2824C106.199 43.5842 107.957 44.11 109.862 44.11C111.109 44.11 112.299 43.8469 113.412 43.3261C113.479 43.3852 113.549 43.4423 113.623 43.4971C114.21 43.9318 114.88 44.11 115.529 44.11C116.289 44.11 117.289 43.9126 118.021 43.078C118.124 42.9609 118.218 42.8357 118.303 42.7049C118.544 43.0572 118.861 43.3852 119.271 43.6393C119.808 43.9724 120.395 44.11 120.963 44.11C121.708 44.11 122.716 43.928 123.457 43.1004C123.599 42.9451 123.723 42.7745 123.831 42.5953C123.88 42.6584 123.93 42.7207 123.983 42.7818L123.994 42.7946L124.006 42.8071C124.449 43.3015 124.974 43.6304 125.532 43.8341C124.972 45.6197 124.664 47.2897 124.664 48.82C124.664 50.0507 124.891 51.2838 125.572 52.3054C126.385 53.5255 127.653 54.054 128.996 54.054C131.587 54.054 133.075 52.0546 133.851 49.8632C134.468 48.1316 134.884 46.1091 135.124 43.8215C135.314 43.7638 135.501 43.6976 135.685 43.6234C136.319 43.9485 137.026 44.11 137.774 44.11C138.762 44.11 139.702 43.9041 140.566 43.4821C140.573 43.4871 140.579 43.4921 140.586 43.4971C141.173 43.9318 141.843 44.11 142.492 44.11C143.252 44.11 144.252 43.9126 144.984 43.078C145.553 42.4318 145.829 41.5395 145.998 40.8174C146.08 40.4859 146.172 40.1628 146.273 39.8477C147.162 40.6531 148.287 40.92 149.356 40.92C149.386 40.92 149.416 40.9197 149.446 40.9193C149.719 41.4106 150.064 41.8678 150.485 42.2824C151.81 43.5842 153.568 44.11 155.473 44.11C156.946 44.11 158.34 43.7427 159.622 43.0169C159.728 42.9578 159.832 42.8976 159.935 42.8364C160.122 43.1053 160.341 43.3473 160.581 43.5608L160.595 43.5728L160.608 43.5845C161.506 44.3536 162.624 44.594 163.67 44.594C164.679 44.594 165.627 44.3346 166.461 43.8072C167.303 43.7316 168.107 43.5523 168.844 43.2338C169.658 43.821 170.626 44.11 171.673 44.11C172.701 44.11 173.601 43.8165 174.372 43.3121C175.073 43.8186 175.896 44.11 176.799 44.11C177.929 44.11 178.943 43.673 179.814 43.0456C179.963 43.2323 180.128 43.4042 180.304 43.5608L180.317 43.5728L180.331 43.5845C181.228 44.3535 182.346 44.594 183.393 44.594C184.413 44.594 185.387 44.3272 186.251 43.7594C187.048 43.2356 187.678 42.5383 188.115 41.6902C188.553 40.8549 188.781 39.9525 188.781 39.008C188.781 38.1685 188.576 37.3608 188.154 36.6257C187.85 36.0631 187.435 35.4514 186.942 34.8039L186.922 34.7779L186.901 34.7526C186.701 34.5071 186.555 34.3132 186.452 34.1657C186.479 34.0902 186.52 33.9934 186.579 33.8739C186.731 33.5878 186.858 33.2877 186.954 32.9742C187.016 32.7721 187.131 32.3819 187.131 31.968C187.131 31.5385 187.018 31.0611 186.718 30.6259C186.427 30.2025 186.047 29.9458 185.716 29.7952C185.124 29.5262 184.447 29.506 184.031 29.506C183.358 29.506 182.632 29.6282 181.963 30.0007C181.264 30.3898 180.759 30.9799 180.457 31.6811M129.375 44.3778C129.303 44.6139 129.236 44.8479 129.172 45.08C128.971 45.8113 128.825 46.4787 128.734 47.0824C128.734 47.083 128.734 47.0836 128.734 47.0842C128.686 47.4009 128.654 47.7 128.637 47.9815C128.627 48.1421 128.622 48.2969 128.622 48.446C128.622 48.5796 128.627 48.7042 128.636 48.82C128.644 48.9182 128.656 49.01 128.671 49.0953C128.7 49.2629 128.742 49.4058 128.798 49.524C128.9 49.7733 129.025 49.898 129.172 49.898C129.388 49.898 129.584 49.6412 129.76 49.1277C129.768 49.1058 129.775 49.0834 129.783 49.0605C129.84 48.8837 129.896 48.6788 129.95 48.446C129.973 48.3422 129.997 48.2328 130.02 48.1179C130.069 47.8715 130.116 47.5995 130.162 47.302C130.251 46.7221 130.329 46.0936 130.397 45.4165C130.467 44.714 130.525 43.9591 130.572 43.1519C130.579 43.018 130.587 42.8827 130.594 42.7459C130.594 42.7373 130.595 42.7287 130.595 42.7201C130.61 42.4219 130.624 42.1169 130.636 41.8051C130.648 41.5025 130.659 41.1934 130.668 40.878C130.49 41.2912 130.323 41.6992 130.166 42.102C130.165 42.1052 130.164 42.1084 130.162 42.1116C129.96 42.633 129.775 43.1456 129.607 43.6495C129.526 43.8929 129.449 44.1343 129.376 44.3737C129.376 44.375 129.375 44.3764 129.375 44.3778ZM135.601 33.9637C135.518 33.9385 135.428 33.926 135.332 33.926C135.095 33.926 134.836 34.0383 134.554 34.263C134.209 34.5388 133.83 34.9838 133.418 35.598C133.415 35.7164 133.413 35.8449 133.41 35.9835C133.409 36.1081 133.407 36.2408 133.405 36.3817C133.405 36.422 133.404 36.4629 133.404 36.5045C133.404 36.5274 133.403 36.5505 133.403 36.5738C133.4 36.9186 133.398 37.3076 133.397 37.7408C133.397 37.7457 133.397 37.7506 133.397 37.7554C133.397 37.7559 133.397 37.7564 133.397 37.7569C133.396 37.8633 133.396 37.9723 133.396 38.084C133.396 38.1985 133.396 38.3159 133.396 38.436C133.396 39.1106 133.388 39.6313 133.374 39.998C133.508 39.9682 133.639 39.9277 133.767 39.8763C134.144 39.7249 134.497 39.4794 134.826 39.14C135.033 38.9265 135.22 38.6919 135.387 38.436C135.39 38.4315 135.393 38.4269 135.396 38.4224C135.593 38.1192 135.762 37.7864 135.904 37.424C136.168 36.7346 136.3 36.016 136.3 35.268C136.3 34.828 136.212 34.498 136.036 34.278C135.917 34.1201 135.772 34.0153 135.601 33.9637ZM153.273 37.182C153.333 37.1678 153.392 37.1531 153.45 37.138C154.049 36.9813 154.555 36.7724 154.968 36.5112C155.094 36.4317 155.211 36.3473 155.319 36.258C155.349 36.2333 155.378 36.2085 155.406 36.1833C155.468 36.1282 155.526 36.0719 155.579 36.0145C155.904 35.6621 156.067 35.2666 156.067 34.828C156.067 34.5493 155.987 34.3293 155.825 34.168C155.679 33.992 155.473 33.904 155.209 33.904C154.908 33.904 154.631 34.0014 154.379 34.1962C154.252 34.2947 154.131 34.4179 154.017 34.5661C153.95 34.6523 153.886 34.7469 153.823 34.85C153.823 34.8513 153.822 34.8527 153.821 34.854C153.817 34.8608 153.813 34.8676 153.809 34.8744C153.6 35.2403 153.453 35.6502 153.366 36.104C153.316 36.3629 153.287 36.636 153.277 36.9235C153.275 36.9941 153.273 37.0656 153.273 37.138V37.182ZM172.303 39.8781C172.332 39.8817 172.361 39.8844 172.391 39.886C172.415 39.8873 172.44 39.888 172.465 39.888C172.743 39.888 173.009 39.7466 173.266 39.4639C173.307 39.4183 173.348 39.369 173.389 39.316C173.682 38.9346 173.895 38.4286 174.027 37.798L174.841 33.75C174.457 33.7591 174.09 33.8537 173.74 34.0338C173.529 34.1426 173.324 34.2827 173.125 34.454C172.909 34.6389 172.711 34.8497 172.532 35.0864C172.338 35.342 172.165 35.6279 172.014 35.944C171.972 36.0317 171.931 36.1217 171.893 36.214C171.843 36.3325 171.797 36.4522 171.755 36.5731C171.741 36.6135 171.728 36.6541 171.715 36.6948C171.571 37.1423 171.482 37.6054 171.447 38.084C171.436 38.2364 171.431 38.3904 171.431 38.546C171.431 39.0006 171.519 39.338 171.695 39.558C171.852 39.7399 172.055 39.8466 172.303 39.8781ZM107.662 37.182V37.138C107.662 37.0656 107.663 36.9941 107.666 36.9235C107.692 36.1321 107.87 35.449 108.198 34.8744C108.203 34.8662 108.207 34.8581 108.212 34.85C108.593 34.2193 109.055 33.904 109.598 33.904C109.862 33.904 110.067 33.992 110.214 34.168C110.375 34.3293 110.456 34.5493 110.456 34.828C110.456 35.2666 110.293 35.6621 109.967 36.0145C109.914 36.0719 109.857 36.1282 109.795 36.1833C109.767 36.2085 109.738 36.2333 109.708 36.258C109.244 36.6403 108.621 36.9336 107.839 37.138C107.781 37.1531 107.722 37.1678 107.662 37.182Z" fill="white"/>
<path d="M115.142 37.094C115.333 37.094 115.479 37.182 115.582 37.358C115.699 37.534 115.758 37.776 115.758 38.084C115.758 38.6706 115.619 39.1253 115.34 39.448C114.797 40.108 114.027 40.7166 113.03 41.274C112.047 41.8313 110.991 42.11 109.862 42.11C108.322 42.11 107.127 41.692 106.276 40.856C105.425 40.02 105 38.876 105 37.424C105 36.412 105.213 35.4733 105.638 34.608C106.063 33.728 106.65 33.0313 107.398 32.518C108.161 32.0046 109.019 31.748 109.972 31.748C110.823 31.748 111.505 32.0046 112.018 32.518C112.531 33.0166 112.788 33.6986 112.788 34.564C112.788 35.576 112.421 36.4486 111.688 37.182C110.969 37.9006 109.745 38.4726 108.014 38.898C108.381 39.5726 109.077 39.91 110.104 39.91C110.764 39.91 111.512 39.6826 112.348 39.228C113.199 38.7586 113.932 38.15 114.548 37.402C114.724 37.1966 114.922 37.094 115.142 37.094ZM109.598 33.904C109.055 33.904 108.593 34.2193 108.212 34.85C107.845 35.4806 107.662 36.2433 107.662 37.138V37.182C108.527 36.9766 109.209 36.6686 109.708 36.258C110.207 35.8473 110.456 35.3706 110.456 34.828C110.456 34.5493 110.375 34.3293 110.214 34.168C110.067 33.992 109.862 33.904 109.598 33.904Z" fill="#00A885"/>
<path d="M115.529 42.11C114.971 42.11 114.575 41.8166 114.341 41.23C114.121 40.6433 114.011 39.7046 114.011 38.414C114.011 36.5073 114.282 34.696 114.825 32.98C114.957 32.5546 115.169 32.2466 115.463 32.056C115.771 31.8506 116.196 31.748 116.739 31.748C117.032 31.748 117.237 31.7846 117.355 31.858C117.472 31.9313 117.531 32.0706 117.531 32.276C117.531 32.5106 117.421 33.0386 117.201 33.86C117.054 34.4466 116.937 34.96 116.849 35.4C116.761 35.8253 116.687 36.3606 116.629 37.006C117.025 35.862 117.494 34.894 118.037 34.102C118.594 33.31 119.159 32.7233 119.731 32.342C120.317 31.946 120.867 31.748 121.381 31.748C121.894 31.748 122.253 31.8653 122.459 32.1C122.679 32.3346 122.789 32.694 122.789 33.178C122.789 33.6473 122.649 34.498 122.371 35.73C122.253 36.258 122.173 36.654 122.129 36.918C122.862 35.114 123.676 33.8013 124.571 32.98C125.465 32.1586 126.301 31.748 127.079 31.748C128.032 31.748 128.509 32.2246 128.509 33.178C128.509 33.75 128.347 34.784 128.025 36.28C127.746 37.556 127.607 38.3993 127.607 38.81C127.607 39.3966 127.819 39.69 128.245 39.69C128.538 39.69 128.883 39.514 129.279 39.162C129.689 38.7953 130.232 38.2086 130.907 37.402C131.083 37.1966 131.281 37.094 131.501 37.094C131.691 37.094 131.838 37.182 131.941 37.358C132.058 37.534 132.117 37.776 132.117 38.084C132.117 38.6706 131.977 39.1253 131.699 39.448C131.068 40.2253 130.386 40.8633 129.653 41.362C128.934 41.8606 128.113 42.11 127.189 42.11C126.441 42.11 125.876 41.8973 125.495 41.472C125.113 41.032 124.923 40.4013 124.923 39.58C124.923 39.1693 125.025 38.436 125.231 37.38C125.421 36.456 125.517 35.818 125.517 35.466C125.517 35.2313 125.436 35.114 125.275 35.114C125.084 35.114 124.813 35.3633 124.461 35.862C124.109 36.346 123.757 36.9913 123.405 37.798C123.053 38.6046 122.767 39.4553 122.547 40.35C122.385 41.054 122.195 41.5233 121.975 41.758C121.769 41.9926 121.432 42.11 120.963 42.11C120.479 42.11 120.112 41.8826 119.863 41.428C119.628 40.9586 119.511 40.394 119.511 39.734C119.511 39.1766 119.584 38.37 119.731 37.314C119.848 36.3753 119.907 35.7593 119.907 35.466C119.907 35.2313 119.826 35.114 119.665 35.114C119.445 35.114 119.166 35.378 118.829 35.906C118.491 36.434 118.161 37.1086 117.839 37.93C117.531 38.7513 117.281 39.558 117.091 40.35C116.929 41.0393 116.739 41.5086 116.519 41.758C116.313 41.9926 115.983 42.11 115.529 42.11Z" fill="#00A885"/>
<path d="M142.086 37.094C142.276 37.094 142.423 37.182 142.526 37.358C142.643 37.534 142.702 37.776 142.702 38.084C142.702 38.6706 142.562 39.1253 142.284 39.448C141.653 40.2253 140.971 40.8633 140.238 41.362C139.519 41.8606 138.698 42.11 137.774 42.11C136.996 42.11 136.366 41.8313 135.882 41.274C135.046 41.8166 134.173 42.0953 133.264 42.11C133.073 44.9406 132.64 47.302 131.966 49.194C131.291 51.1006 130.301 52.054 128.996 52.054C128.204 52.054 127.617 51.768 127.236 51.196C126.854 50.624 126.664 49.832 126.664 48.82C126.664 47.3826 126.994 45.7033 127.654 43.782C128.314 41.8753 129.333 39.7706 130.712 37.468C130.712 35.3266 130.697 33.838 130.668 33.002C130.653 32.5766 130.822 32.2393 131.174 31.99C131.526 31.7406 131.966 31.616 132.494 31.616C132.802 31.616 133.022 31.682 133.154 31.814C133.3 31.9313 133.381 32.1733 133.396 32.54C133.396 32.9066 133.403 33.178 133.418 33.354C133.887 32.7673 134.349 32.3493 134.804 32.1C135.258 31.836 135.742 31.704 136.256 31.704C137.077 31.704 137.744 32.034 138.258 32.694C138.786 33.354 139.05 34.2193 139.05 35.29C139.05 36.0673 138.925 36.8226 138.676 37.556C138.426 38.2893 138.082 38.9566 137.642 39.558C137.95 39.646 138.206 39.69 138.412 39.69C138.896 39.69 139.358 39.514 139.798 39.162C140.238 38.81 140.802 38.2233 141.492 37.402C141.668 37.1966 141.866 37.094 142.086 37.094ZM133.374 39.998C133.902 39.8806 134.386 39.5946 134.826 39.14C135.28 38.6706 135.64 38.0986 135.904 37.424C136.168 36.7346 136.3 36.016 136.3 35.268C136.3 34.828 136.212 34.498 136.036 34.278C135.86 34.0433 135.625 33.926 135.332 33.926C134.804 33.926 134.166 34.4833 133.418 35.598C133.403 36.2433 133.396 37.1893 133.396 38.436C133.396 39.1106 133.388 39.6313 133.374 39.998ZM129.172 49.898C129.568 49.898 129.898 49.0326 130.162 47.302C130.426 45.586 130.594 43.4446 130.668 40.878C130.037 42.3446 129.538 43.7453 129.172 45.08C128.805 46.4146 128.622 47.5366 128.622 48.446C128.622 48.9153 128.68 49.2746 128.798 49.524C128.9 49.7733 129.025 49.898 129.172 49.898Z" fill="#00A885"/>
<path d="M142.492 42.11C141.934 42.11 141.538 41.8166 141.304 41.23C141.084 40.6433 140.974 39.7046 140.974 38.414C140.974 36.5073 141.245 34.696 141.788 32.98C141.92 32.5546 142.132 32.2466 142.426 32.056C142.734 31.8506 143.159 31.748 143.702 31.748C143.995 31.748 144.2 31.7846 144.318 31.858C144.435 31.9313 144.494 32.0706 144.494 32.276C144.494 32.5106 144.384 33.0386 144.164 33.86C144.017 34.4466 143.9 34.96 143.812 35.4C143.724 35.84 143.65 36.3826 143.592 37.028C144.076 35.7666 144.618 34.74 145.22 33.948C145.821 33.156 146.408 32.5913 146.98 32.254C147.566 31.9166 148.102 31.748 148.586 31.748C149.539 31.748 150.016 32.2246 150.016 33.178C150.016 33.3686 149.95 33.8306 149.818 34.564C149.7 35.1506 149.642 35.5173 149.642 35.664C149.642 36.1773 149.825 36.434 150.192 36.434C150.602 36.434 151.13 36.1113 151.776 35.466C151.966 35.2753 152.164 35.18 152.37 35.18C152.56 35.18 152.707 35.268 152.81 35.444C152.927 35.6053 152.986 35.8253 152.986 36.104C152.986 36.6466 152.839 37.072 152.546 37.38C152.135 37.8053 151.651 38.172 151.094 38.48C150.551 38.7733 149.972 38.92 149.356 38.92C148.578 38.92 147.984 38.722 147.574 38.326C147.178 37.93 146.98 37.3946 146.98 36.72C146.98 36.5 147.002 36.28 147.046 36.06C147.075 35.7666 147.09 35.5686 147.09 35.466C147.09 35.2313 147.009 35.114 146.848 35.114C146.628 35.114 146.334 35.3633 145.968 35.862C145.616 36.346 145.264 36.9913 144.912 37.798C144.56 38.6046 144.274 39.4553 144.054 40.35C143.892 41.0393 143.702 41.5086 143.482 41.758C143.276 41.9926 142.946 42.11 142.492 42.11Z" fill="#00A885"/>
<path d="M160.753 37.094C160.944 37.094 161.091 37.182 161.193 37.358C161.311 37.534 161.369 37.776 161.369 38.084C161.369 38.6706 161.23 39.1253 160.951 39.448C160.409 40.108 159.639 40.7166 158.641 41.274C157.659 41.8313 156.603 42.11 155.473 42.11C153.933 42.11 152.738 41.692 151.887 40.856C151.037 40.02 150.611 38.876 150.611 37.424C150.611 36.412 150.824 35.4733 151.249 34.608C151.675 33.728 152.261 33.0313 153.009 32.518C153.772 32.0046 154.63 31.748 155.583 31.748C156.434 31.748 157.116 32.0046 157.629 32.518C158.143 33.0166 158.399 33.6986 158.399 34.564C158.399 35.576 158.033 36.4486 157.299 37.182C156.581 37.9006 155.356 38.4726 153.625 38.898C153.992 39.5726 154.689 39.91 155.715 39.91C156.375 39.91 157.123 39.6826 157.959 39.228C158.81 38.7586 159.543 38.15 160.159 37.402C160.335 37.1966 160.533 37.094 160.753 37.094ZM155.209 33.904C154.667 33.904 154.205 34.2193 153.823 34.85C153.457 35.4806 153.273 36.2433 153.273 37.138V37.182C154.139 36.9766 154.821 36.6686 155.319 36.258C155.818 35.8473 156.067 35.3706 156.067 34.828C156.067 34.5493 155.987 34.3293 155.825 34.168C155.679 33.992 155.473 33.904 155.209 33.904Z" fill="#00A885"/>
<path d="M163.67 42.594C162.907 42.594 162.321 42.418 161.91 42.066C161.514 41.714 161.316 41.318 161.316 40.878C161.316 40.4966 161.455 40.1666 161.734 39.888C162.013 39.6093 162.423 39.47 162.966 39.47C163.157 39.47 163.377 39.492 163.626 39.536C163.89 39.5653 164.088 39.5873 164.22 39.602C164.205 39.2206 164.117 38.8613 163.956 38.524C163.809 38.1866 163.619 37.864 163.384 37.556C163.149 37.2333 162.929 36.9546 162.724 36.72C162.269 37.5853 161.815 38.304 161.36 38.876C160.92 39.448 160.436 39.9906 159.908 40.504C159.644 40.768 159.365 40.9 159.072 40.9C158.837 40.9 158.647 40.8193 158.5 40.658C158.353 40.482 158.28 40.2693 158.28 40.02C158.28 39.7266 158.383 39.4553 158.588 39.206L158.874 38.854C159.681 37.8566 160.289 37.0353 160.7 36.39C160.949 35.9646 161.243 35.4 161.58 34.696C161.917 33.9773 162.247 33.2366 162.57 32.474C162.849 31.8286 163.428 31.506 164.308 31.506C164.719 31.506 165.005 31.5426 165.166 31.616C165.327 31.6893 165.408 31.8066 165.408 31.968C165.408 32.056 165.379 32.1953 165.32 32.386C165.261 32.5766 165.181 32.7673 165.078 32.958C164.814 33.486 164.682 33.9333 164.682 34.3C164.682 34.52 164.755 34.762 164.902 35.026C165.063 35.29 165.305 35.62 165.628 36.016C166.097 36.632 166.449 37.16 166.684 37.6C166.933 38.0253 167.058 38.4946 167.058 39.008C167.058 39.1546 167.043 39.36 167.014 39.624C167.733 39.3453 168.576 38.6046 169.544 37.402C169.72 37.1966 169.918 37.094 170.138 37.094C170.329 37.094 170.475 37.182 170.578 37.358C170.695 37.534 170.754 37.776 170.754 38.084C170.754 38.6413 170.615 39.096 170.336 39.448C169.603 40.3573 168.899 40.9806 168.224 41.318C167.564 41.6406 166.743 41.8166 165.76 41.846C165.173 42.3446 164.477 42.594 163.67 42.594Z" fill="#00A885"/>
<path d="M171.673 42.11C170.763 42.11 170.037 41.78 169.495 41.12C168.952 40.46 168.681 39.5946 168.681 38.524C168.681 37.3506 168.952 36.2433 169.495 35.202C170.037 34.146 170.756 33.3026 171.651 32.672C172.56 32.0266 173.521 31.704 174.533 31.704C174.855 31.704 175.068 31.77 175.171 31.902C175.288 32.0193 175.383 32.2393 175.457 32.562C175.765 32.5033 176.087 32.474 176.425 32.474C177.143 32.474 177.503 32.7306 177.503 33.244C177.503 33.552 177.393 34.2853 177.173 35.444C176.835 37.1306 176.667 38.304 176.667 38.964C176.667 39.184 176.718 39.36 176.821 39.492C176.938 39.624 177.085 39.69 177.261 39.69C177.539 39.69 177.877 39.514 178.273 39.162C178.669 38.7953 179.204 38.2086 179.879 37.402C180.055 37.1966 180.253 37.094 180.473 37.094C180.663 37.094 180.81 37.182 180.913 37.358C181.03 37.534 181.089 37.776 181.089 38.084C181.089 38.6706 180.949 39.1253 180.671 39.448C180.069 40.196 179.431 40.8266 178.757 41.34C178.082 41.8533 177.429 42.11 176.799 42.11C176.315 42.11 175.867 41.9486 175.457 41.626C175.061 41.2886 174.76 40.834 174.555 40.262C173.792 41.494 172.831 42.11 171.673 42.11ZM172.465 39.888C172.787 39.888 173.095 39.6973 173.389 39.316C173.682 38.9346 173.895 38.4286 174.027 37.798L174.841 33.75C174.225 33.7646 173.653 33.9993 173.125 34.454C172.611 34.894 172.201 35.4806 171.893 36.214C171.585 36.9473 171.431 37.7246 171.431 38.546C171.431 39.0006 171.519 39.338 171.695 39.558C171.885 39.778 172.142 39.888 172.465 39.888Z" fill="#00A885"/>
<path d="M183.393 42.594C182.63 42.594 182.043 42.418 181.633 42.066C181.237 41.714 181.039 41.318 181.039 40.878C181.039 40.4966 181.178 40.1666 181.457 39.888C181.735 39.6093 182.146 39.47 182.689 39.47C182.879 39.47 183.099 39.492 183.349 39.536C183.613 39.5653 183.811 39.5873 183.943 39.602C183.928 39.2206 183.84 38.8613 183.679 38.524C183.532 38.1866 183.341 37.864 183.107 37.556C182.872 37.2333 182.652 36.9546 182.447 36.72C181.992 37.5853 181.537 38.304 181.083 38.876C180.643 39.448 180.159 39.9906 179.631 40.504C179.367 40.768 179.088 40.9 178.795 40.9C178.56 40.9 178.369 40.8193 178.223 40.658C178.076 40.482 178.003 40.2693 178.003 40.02C178.003 39.7266 178.105 39.4553 178.311 39.206L178.597 38.854C179.403 37.8566 180.012 37.0353 180.423 36.39C180.687 35.9646 180.951 35.4586 181.215 34.872C181.493 34.2853 181.853 33.486 182.293 32.474C182.571 31.8286 183.151 31.506 184.031 31.506C184.441 31.506 184.727 31.5426 184.889 31.616C185.05 31.6893 185.131 31.8066 185.131 31.968C185.131 32.056 185.101 32.1953 185.043 32.386C184.984 32.5766 184.903 32.7673 184.801 32.958C184.537 33.486 184.405 33.9333 184.405 34.3C184.405 34.52 184.478 34.762 184.625 35.026C184.786 35.29 185.028 35.62 185.351 36.016C185.82 36.632 186.172 37.16 186.407 37.6C186.656 38.0253 186.781 38.4946 186.781 39.008C186.781 39.624 186.634 40.2106 186.341 40.768C186.062 41.3106 185.666 41.7506 185.153 42.088C184.639 42.4253 184.053 42.594 183.393 42.594Z" fill="#00A885"/>
</svg>
