<svg width="186" height="55" viewBox="0 0 186 55" fill="none" xmlns="http://www.w3.org/2000/svg">
<path d="M108.601 17.1616C108.601 23.1108 111.293 26.3674 116.089 26.3674C120.938 26.3674 123.837 21.7486 123.837 21.7486L124.731 24.8072C124.937 25.5011 125.586 25.9864 126.312 25.9864H132.355C132.789 25.9864 133.142 25.6352 133.142 25.1989C133.142 24.9988 133.142 24.7859 133.142 24.5859C133.142 24.1516 132.789 23.7983 132.355 23.7983H132.346C130.95 23.7983 129.818 22.6659 129.818 21.2696L129.82 1.84913C129.82 1.33616 129.337 0.959414 128.839 1.08712L120.791 3.13262C120.442 3.22202 120.199 3.53491 120.197 3.89463V4.68643C120.197 5.12065 120.548 5.47398 120.984 5.47398C122.381 5.47398 123.511 6.60848 123.507 8.00265L123.473 19.7392C123.473 19.7392 121.502 21.9614 118.615 21.9614C116.202 21.9614 114.91 19.95 114.91 17.4532L114.899 1.8321C114.899 1.31913 114.414 0.942386 113.918 1.0701L105.864 3.13262C105.514 3.22202 105.272 3.53491 105.272 3.89463V4.68643C105.272 5.12065 105.623 5.47398 106.059 5.47398H106.066C107.458 5.47398 108.586 6.60209 108.588 7.99414L108.601 17.1616Z" fill="#00A885"/>
<path fill-rule="evenodd" clip-rule="evenodd" d="M143.238 5.59335C143.238 5.59335 146.167 1.03409 150.758 1.03409C156.416 1.03409 160.366 6.04673 160.366 13.2283C160.366 20.9676 155.964 26.3719 149.664 26.3719C145.726 26.3719 143.238 22.7576 143.238 22.7576V28.279C143.236 29.6774 144.37 30.8098 145.767 30.8077C146.203 30.8077 146.556 31.1589 146.556 31.5952V32.2104C146.558 32.6467 146.205 33 145.769 33H134.383C133.949 33 133.596 32.6467 133.596 32.2104V31.5931C133.596 31.1567 133.949 30.8055 134.383 30.8055H134.39C135.786 30.8055 136.918 29.6732 136.918 28.2769V8.00495C136.918 6.61291 135.795 5.4848 134.403 5.47842H134.379C133.945 5.47842 133.594 5.12508 133.594 4.69087V3.89693C133.594 3.53722 133.836 3.2222 134.185 3.1328L142.252 1.05325C142.753 0.925536 143.238 1.30228 143.238 1.81738V5.59335ZM143.24 18.5964C143.24 18.5964 144.76 22.1957 148.225 22.1957C152.265 22.1957 154.061 17.7408 154.061 13.4518C154.061 9.21395 152.75 5.22938 148.481 5.22938C145.324 5.22938 143.238 7.9709 143.238 7.9709L143.236 18.5709L143.24 18.5964Z" fill="#00A885"/>
<path d="M104.75 24.0432C104.593 23.8857 104.382 23.7985 104.159 23.7985H104.101C102.762 23.7985 101.672 22.7087 101.672 21.3698V14.4373C101.675 13.2581 101.677 11.3446 101.677 10.044C101.677 3.29453 98.4797 1 95.0337 1C90.1126 1 86.8283 5.22935 86.8283 5.22935L86.807 5.2485V1.81735C86.807 1.30225 86.3217 0.925502 85.8215 1.05321L77.7544 3.13277C77.4054 3.22216 77.1627 3.53718 77.1627 3.8969V4.69083C77.1627 5.12505 77.5139 5.47838 77.9481 5.47838H77.9694C79.3615 5.48477 80.4874 6.61288 80.4874 8.00492V21.2698C80.4874 22.6661 79.3551 23.7985 77.9588 23.7985H77.9524C77.5182 23.7985 77.1648 24.1497 77.1648 24.586C77.1648 24.7861 77.1648 25.0011 77.1648 25.2033C77.1648 25.6396 77.5182 25.993 77.9524 25.993H89.3378C89.7741 25.993 90.1275 25.6396 90.1253 25.2033V24.5881C90.1253 24.1518 89.772 23.8006 89.3356 23.8006C87.9393 23.8027 86.8048 22.6703 86.807 21.2719V7.65372L86.8283 7.63243C86.8283 7.63243 88.9057 5.47625 91.494 5.47625C93.9098 5.47625 95.3529 7.16416 95.3529 9.99082V23.8368L95.3615 23.9389C95.4594 25.0883 96.4385 25.9866 97.5921 25.9866H104.156C104.616 25.9866 104.993 25.6119 104.993 25.1522V24.635C104.995 24.4115 104.908 24.2007 104.75 24.0432Z" fill="#0C8E77"/>
<path fill-rule="evenodd" clip-rule="evenodd" d="M33.6879 5.59335C33.6879 5.59335 36.6167 1.03409 41.2079 1.03409C46.8655 1.03409 50.816 6.04673 50.8139 13.2283C50.8139 20.9676 46.4121 26.3719 40.1118 26.3719C36.174 26.3719 33.6858 22.7576 33.6858 22.7576V28.279C33.6837 29.6774 34.8182 30.8098 36.2145 30.8077C36.6508 30.8077 37.0041 31.1589 37.0041 31.5952V32.2104C37.0063 32.6467 36.6529 33 36.2166 33H24.8312C24.397 33 24.0436 32.6467 24.0436 32.2104V31.5931C24.0436 31.1567 24.397 30.8055 24.8312 30.8055H24.8376C26.2339 30.8055 27.3662 29.6732 27.3662 28.2769V8.00495C27.3662 6.61291 26.2424 5.4848 24.8503 5.47842H24.8291C24.3948 5.47842 24.0436 5.12508 24.0436 4.69087V3.89693C24.0436 3.53722 24.2863 3.2222 24.6354 3.1328L32.7024 1.05325C33.2026 0.925536 33.6879 1.30228 33.6879 1.81738V5.59335ZM33.6922 18.5964C33.6922 18.5964 35.2119 22.1957 38.6771 22.1957C42.717 22.1957 44.5135 17.7408 44.5135 13.4518C44.5135 9.21395 43.2023 5.22938 38.9326 5.22938C35.776 5.22938 33.69 7.9709 33.69 7.9709L33.6879 18.5709L33.6922 18.5964Z" fill="#0C8E77"/>
<path fill-rule="evenodd" clip-rule="evenodd" d="M0 13.6984C0 6.69982 5.21272 1.02734 11.6451 1.02734C18.0774 1.02734 23.2923 6.69982 23.2901 13.6984C23.2901 20.6969 18.0753 26.3694 11.6451 26.3694C5.21485 26.3694 0 20.6969 0 13.6984ZM6.3685 13.8221C6.3685 19.0348 8.73114 23.2599 11.6451 23.2599C14.559 23.2599 16.9216 19.0348 16.9216 13.8221C16.9216 8.60939 14.559 4.3843 11.6451 4.3843C8.73114 4.3843 6.3685 8.60939 6.3685 13.8221Z" fill="#0C8E77"/>
<path fill-rule="evenodd" clip-rule="evenodd" d="M74.932 18.1345L75.4961 18.5581C75.826 18.805 75.9218 19.2434 75.7217 19.6032C74.6085 21.6423 71.3561 26.3888 65.2048 26.3888H65.2005C58.1402 26.3867 53.9173 20.0799 53.9173 13.986C53.9173 5.08673 59.6919 1.04895 64.9791 1.04895H64.9855C72.3289 1.04895 74.5361 9.70772 74.7447 10.9912C74.8128 11.4084 74.5404 11.8064 74.1253 11.9001L59.6366 15.1503L59.6685 15.2482C59.6728 15.2631 60.1389 16.6977 61.3415 18.1089C62.4547 19.4137 64.4385 20.9697 67.5802 20.9718H67.5844C70.6495 20.9718 72.812 19.2434 73.8295 18.2132C74.1232 17.9174 74.5957 17.8833 74.932 18.1345ZM59.2109 10.1356C59.164 11.5425 59.3322 11.8235 59.3662 11.866L59.4067 11.9107L68.1293 10.0994V10.0291C68.1293 9.26499 68.0059 8.40295 67.7888 7.66436C67.4929 6.66183 67.0395 5.87215 66.4393 5.31448C65.7752 4.69721 64.9451 4.38432 63.9723 4.38432H63.9702C60.8158 4.38432 59.2875 7.74737 59.2109 10.1356Z" fill="#0C8E77"/>
<path d="M156.739 29.7604C156.951 29.7352 157.157 29.7259 157.347 29.7259C157.965 29.7259 158.839 29.8586 159.539 30.5184C159.707 30.67 159.846 30.8332 159.96 31.0023C160.109 30.8528 160.269 30.712 160.44 30.5807C161.173 30.0167 162.035 29.7259 162.957 29.7259C163.927 29.7259 164.831 30.1052 165.495 30.8686C165.652 31.0464 165.784 31.2338 165.894 31.4271C166.117 31.2275 166.354 31.0412 166.605 30.8689L166.612 30.8638L166.62 30.8588C167.725 30.1147 168.975 29.7479 170.31 29.7479C171.589 29.7479 172.809 30.1483 173.76 31.0938C173.764 31.0971 173.767 31.1004 173.771 31.1037L174.3 30.6947C174.422 30.5842 174.556 30.4806 174.701 30.3855C175.455 29.8864 176.317 29.7479 177.077 29.7479C177.41 29.7479 178.12 29.7663 178.753 30.162C178.953 30.2873 179.119 30.4297 179.255 30.5815C179.283 30.5645 179.311 30.5477 179.339 30.5312L179.349 30.5256L179.358 30.5201C180.133 30.0744 181.015 29.7479 181.961 29.7479C182.755 29.7479 183.701 29.9606 184.431 30.7075C185.178 31.4383 185.391 32.3836 185.391 33.1779C185.391 33.7338 185.285 34.5976 185.126 35.636L185.124 35.6468L185.123 35.6575C184.981 36.5208 184.869 37.3357 184.785 38.1028L184.785 38.1068C184.707 38.8109 184.665 39.6228 184.665 40.5479C184.665 41.311 184.517 42.3324 183.772 43.1258C183 43.9496 181.959 44.1099 181.213 44.1099C180.422 44.1099 179.404 43.9049 178.657 43.0592C178.607 43.0023 178.56 42.9444 178.515 42.8857C178.466 42.9519 178.414 43.0163 178.359 43.0783L178.357 43.0806C177.625 43.913 176.627 44.1099 175.867 44.1099C175.218 44.1099 174.548 43.9317 173.962 43.4971C173.888 43.4423 173.817 43.3852 173.75 43.326C172.637 43.8468 171.447 44.1099 170.2 44.1099C168.295 44.1099 166.537 43.5842 165.212 42.2824C164.361 41.4475 163.831 40.2428 163.672 39.7448C163.613 39.8358 163.553 39.9271 163.492 40.0187C163.261 40.3681 163.02 40.7215 162.77 41.0789L162.769 41.0808C162.151 41.9606 161.49 42.7581 160.786 43.2678C160.008 43.8316 159.11 44.1099 158.161 44.1099C158.114 44.1099 158.066 44.1091 158.019 44.1075C157.708 44.097 157.407 44.0521 157.119 43.9737C156.424 43.7841 155.805 43.3986 155.311 42.8281C155.249 42.7569 155.189 42.6829 155.131 42.6059L155.119 42.5897L155.107 42.5732C154.945 43.8264 153.136 48.2573 152.251 50.3161C151.154 52.4228 149.442 54.0099 147.002 54.0099C145.806 54.0099 144.653 53.6274 143.762 52.7203C142.862 51.8363 142.472 50.6959 142.472 49.5019C142.472 47.9344 143.078 46.432 144.027 45.0344L144.034 45.0249C144.38 44.5216 144.816 43.9977 145.333 43.4538C144.84 43.1498 144.403 42.7334 144.049 42.1905L144.04 42.1776L144.032 42.1646C143.785 41.7735 143.594 41.356 143.451 40.9195C142.404 40.9078 141.308 40.6351 140.439 39.8477C140.338 40.1627 140.246 40.4859 140.165 40.8173C139.995 41.5396 139.719 42.4321 139.15 43.0783L139.148 43.0806C138.416 43.913 137.418 44.1099 136.658 44.1099C136.014 44.1099 135.349 43.9344 134.766 43.5069C134.023 43.8847 133.215 44.1099 132.354 44.1099C131.375 44.1099 130.451 43.8127 129.662 43.2072C129.644 43.1934 129.626 43.1794 129.608 43.1653C129.464 43.2698 129.316 43.3652 129.166 43.4502C128.361 43.9149 127.471 44.1099 126.568 44.1099C125.476 44.1099 124.48 43.7913 123.64 43.1717C122.437 43.7948 121.141 44.1099 119.776 44.1099C117.871 44.1099 116.113 43.5842 114.789 42.2824C114.547 42.0449 114.331 41.7934 114.139 41.5296C113.884 41.8612 113.599 42.1722 113.283 42.4606C112.156 43.5035 110.792 44.1099 109.246 44.1099C107.167 44.1099 105.382 43.2611 104.295 41.4417C103.353 39.8647 103 37.8088 103 35.5099C103 33.455 103.255 31.2614 103.747 28.9366C104.249 26.5549 104.993 24.4545 106.017 22.6764L106.02 22.6712C107.108 20.7935 108.727 19.3199 110.984 19.3199C112.353 19.3199 113.486 19.9665 114.244 21.0432C114.959 22.0453 115.228 23.2351 115.228 24.4439C115.228 25.9048 114.951 27.3419 114.414 28.7448C114.14 29.4592 113.785 30.1716 113.355 30.882C113.665 31.1242 113.953 31.4048 114.216 31.723L116.196 30.8588C117.301 30.1147 118.551 29.7479 119.886 29.7479C121.165 29.7479 122.385 30.1483 123.336 31.0935C123.636 31.3868 123.881 31.7075 124.076 32.0485C124.392 31.73 124.733 31.4358 125.101 31.1674C125.815 30.6443 126.586 30.25 127.407 29.9877C127.725 27.6117 128.232 25.487 128.948 23.6343L128.951 23.6271C129.811 21.43 131.325 19.3199 133.916 19.3199C135.267 19.3199 136.357 19.9811 137.093 20.9982C137.883 22.0693 138.116 23.4382 138.116 24.7739C138.116 26.318 137.818 27.9925 137.272 29.7785C137.475 29.7569 137.675 29.7479 137.868 29.7479C138.201 29.7479 138.911 29.7663 139.544 30.162C139.744 30.2873 139.91 30.4297 140.046 30.5815C140.074 30.5645 140.102 30.5477 140.13 30.5312L140.14 30.5256L140.149 30.5201C140.924 30.0744 141.806 29.7479 142.752 29.7479C143.264 29.7479 143.848 29.8319 144.4 30.097C144.219 29.6348 144.142 29.147 144.142 28.6679C144.142 27.5597 144.604 26.5809 145.439 25.8695C146.252 25.1743 147.234 24.8639 148.254 24.8639C149.077 24.8639 149.938 25.0575 150.685 25.5938C151.421 25.0916 152.266 24.8639 153.14 24.8639C154.008 24.8639 154.918 25.0792 155.692 25.6849C156.581 26.3807 156.966 27.3737 156.966 28.3819C156.966 28.8543 156.893 29.32 156.739 29.7604Z" fill="white"/>
<path d="M116.55 35.2459C116.741 35.2459 116.887 35.3413 116.99 35.5319C117.093 35.7226 117.144 35.9646 117.144 36.2579C117.144 36.6246 117.093 36.9106 116.99 37.1159C116.887 37.3066 116.726 37.4386 116.506 37.5119C115.626 37.8199 114.658 37.9959 113.602 38.0399C113.309 39.2573 112.751 40.2399 111.93 40.9879C111.123 41.7359 110.229 42.1099 109.246 42.1099C107.765 42.1099 106.687 41.5453 106.012 40.4159C105.337 39.2866 105 37.6513 105 35.5099C105 33.6179 105.235 31.5646 105.704 29.3499C106.173 27.1206 106.855 25.2286 107.75 23.6739C108.659 22.1046 109.737 21.3199 110.984 21.3199C111.659 21.3199 112.201 21.6133 112.612 22.1999C113.023 22.7719 113.228 23.5199 113.228 24.4439C113.228 25.6466 113.001 26.8419 112.546 28.0299C112.091 29.2179 111.336 30.4646 110.28 31.7699C111.263 31.8433 112.062 32.2539 112.678 33.0019C113.294 33.7353 113.661 34.6446 113.778 35.7299C114.467 35.6859 115.289 35.5393 116.242 35.2899C116.33 35.2606 116.433 35.2459 116.55 35.2459ZM110.478 23.4979C110.185 23.4979 109.862 23.9379 109.51 24.8179C109.173 25.6833 108.857 26.8639 108.564 28.3599C108.271 29.8559 108.051 31.4913 107.904 33.2659C108.872 31.4913 109.642 29.9293 110.214 28.5799C110.801 27.2159 111.094 26.0059 111.094 24.9499C111.094 24.4806 111.035 24.1213 110.918 23.8719C110.815 23.6226 110.669 23.4979 110.478 23.4979ZM109.334 39.7779C109.789 39.7779 110.192 39.5873 110.544 39.2059C110.896 38.8246 111.131 38.2746 111.248 37.5559C110.793 37.2479 110.441 36.8446 110.192 36.3459C109.957 35.8473 109.84 35.3193 109.84 34.7619C109.84 34.5566 109.869 34.2779 109.928 33.9259H109.862C109.261 33.9259 108.755 34.2266 108.344 34.8279C107.948 35.4146 107.75 36.2066 107.75 37.2039C107.75 38.0399 107.904 38.6779 108.212 39.1179C108.535 39.5579 108.909 39.7779 109.334 39.7779Z" fill="#00A885"/>
<path d="M125.056 37.0939C125.247 37.0939 125.394 37.1819 125.496 37.3579C125.614 37.5339 125.672 37.7759 125.672 38.0839C125.672 38.6706 125.533 39.1253 125.254 39.4479C124.712 40.1079 123.942 40.7166 122.944 41.2739C121.962 41.8313 120.906 42.1099 119.776 42.1099C118.236 42.1099 117.041 41.6919 116.19 40.8559C115.34 40.0199 114.914 38.8759 114.914 37.4239C114.914 36.4119 115.127 35.4733 115.552 34.6079C115.978 33.7279 116.564 33.0313 117.312 32.5179C118.075 32.0046 118.933 31.7479 119.886 31.7479C120.737 31.7479 121.419 32.0046 121.932 32.5179C122.446 33.0166 122.702 33.6986 122.702 34.5639C122.702 35.5759 122.336 36.4486 121.602 37.1819C120.884 37.9006 119.659 38.4726 117.928 38.8979C118.295 39.5726 118.992 39.9099 120.018 39.9099C120.678 39.9099 121.426 39.6826 122.262 39.2279C123.113 38.7586 123.846 38.1499 124.462 37.4019C124.638 37.1966 124.836 37.0939 125.056 37.0939ZM119.512 33.9039C118.97 33.9039 118.508 34.2193 118.126 34.8499C117.76 35.4806 117.576 36.2433 117.576 37.1379V37.1819C118.442 36.9766 119.124 36.6686 119.622 36.2579C120.121 35.8473 120.37 35.3706 120.37 34.8279C120.37 34.5493 120.29 34.3293 120.128 34.1679C119.982 33.9919 119.776 33.9039 119.512 33.9039Z" fill="#00A885"/>
<path d="M136.27 37.0939C136.46 37.0939 136.607 37.1819 136.71 37.3579C136.827 37.5339 136.886 37.7759 136.886 38.0839C136.886 38.6706 136.746 39.1253 136.468 39.4479C135.866 40.1813 135.206 40.8119 134.488 41.3399C133.769 41.8533 133.058 42.1099 132.354 42.1099C131.239 42.1099 130.388 41.4573 129.802 40.1519C129.186 40.9293 128.643 41.4499 128.174 41.7139C127.719 41.9779 127.184 42.1099 126.568 42.1099C125.673 42.1099 124.932 41.7799 124.346 41.1199C123.774 40.4453 123.488 39.5726 123.488 38.5019C123.488 37.3286 123.737 36.2433 124.236 35.2459C124.734 34.2339 125.416 33.4126 126.282 32.7819C127.162 32.1366 128.144 31.7553 129.23 31.6379C129.508 28.7926 130.036 26.3653 130.814 24.3559C131.606 22.3319 132.64 21.3199 133.916 21.3199C134.546 21.3199 135.067 21.6059 135.478 22.1779C135.903 22.7499 136.116 23.6153 136.116 24.7739C136.116 26.4166 135.712 28.3379 134.906 30.5379C134.099 32.7379 133.021 34.9966 131.672 37.3139C131.73 38.1646 131.855 38.7733 132.046 39.1399C132.251 39.5066 132.508 39.6899 132.816 39.6899C133.212 39.6899 133.615 39.5139 134.026 39.1619C134.436 38.8099 134.986 38.2233 135.676 37.4019C135.852 37.1966 136.05 37.0939 136.27 37.0939ZM133.674 23.4759C133.395 23.4759 133.116 23.9746 132.838 24.9719C132.559 25.9546 132.317 27.2453 132.112 28.8439C131.921 30.4426 131.782 32.1146 131.694 33.8599C133.336 30.2813 134.158 27.4066 134.158 25.2359C134.158 24.6786 134.106 24.2459 134.004 23.9379C133.916 23.6299 133.806 23.4759 133.674 23.4759ZM127.338 39.8879C127.616 39.8879 127.895 39.7779 128.174 39.5579C128.452 39.3233 128.804 38.8979 129.23 38.2819C129.083 37.4899 129.01 36.6026 129.01 35.6199C129.01 35.2679 129.024 34.6959 129.054 33.9039C128.247 34.1533 127.572 34.6959 127.03 35.5319C126.502 36.3533 126.238 37.2699 126.238 38.2819C126.238 39.3526 126.604 39.8879 127.338 39.8879Z" fill="#00A885"/>
<path d="M136.658 42.1099C136.101 42.1099 135.705 41.8166 135.47 41.2299C135.25 40.6433 135.14 39.7046 135.14 38.4139C135.14 36.5073 135.411 34.6959 135.954 32.9799C136.086 32.5546 136.299 32.2466 136.592 32.0559C136.9 31.8506 137.325 31.7479 137.868 31.7479C138.161 31.7479 138.367 31.7846 138.484 31.8579C138.601 31.9313 138.66 32.0706 138.66 32.2759C138.66 32.5106 138.55 33.0386 138.33 33.8599C138.183 34.4466 138.066 34.9599 137.978 35.3999C137.89 35.8399 137.817 36.3826 137.758 37.0279C138.242 35.7666 138.785 34.7399 139.386 33.9479C139.987 33.1559 140.574 32.5913 141.146 32.2539C141.733 31.9166 142.268 31.7479 142.752 31.7479C143.705 31.7479 144.182 32.2246 144.182 33.1779C144.182 33.3686 144.116 33.8306 143.984 34.5639C143.867 35.1506 143.808 35.5173 143.808 35.6639C143.808 36.1773 143.991 36.4339 144.358 36.4339C144.769 36.4339 145.297 36.1113 145.942 35.4659C146.133 35.2753 146.331 35.1799 146.536 35.1799C146.727 35.1799 146.873 35.2679 146.976 35.4439C147.093 35.6053 147.152 35.8253 147.152 36.1039C147.152 36.6466 147.005 37.0719 146.712 37.3799C146.301 37.8053 145.817 38.1719 145.26 38.4799C144.717 38.7733 144.138 38.9199 143.522 38.9199C142.745 38.9199 142.151 38.7219 141.74 38.3259C141.344 37.9299 141.146 37.3946 141.146 36.7199C141.146 36.4999 141.168 36.2799 141.212 36.0599C141.241 35.7666 141.256 35.5686 141.256 35.4659C141.256 35.2313 141.175 35.1139 141.014 35.1139C140.794 35.1139 140.501 35.3633 140.134 35.8619C139.782 36.3459 139.43 36.9913 139.078 37.7979C138.726 38.6046 138.44 39.4553 138.22 40.3499C138.059 41.0393 137.868 41.5086 137.648 41.7579C137.443 41.9926 137.113 42.1099 136.658 42.1099Z" fill="#00A885"/>
<path d="M147.99 30.2959C147.374 30.2959 146.912 30.1566 146.604 29.8779C146.296 29.5846 146.142 29.1813 146.142 28.6679C146.142 28.1546 146.34 27.7293 146.736 27.3919C147.146 27.0399 147.652 26.8639 148.254 26.8639C148.796 26.8639 149.236 26.9959 149.574 27.2599C149.911 27.5239 150.08 27.8979 150.08 28.3819C150.08 28.9686 149.889 29.4379 149.508 29.7899C149.126 30.1273 148.62 30.2959 147.99 30.2959ZM147.814 42.1099C146.86 42.1099 146.164 41.7726 145.724 41.0979C145.298 40.4233 145.086 39.5286 145.086 38.4139C145.086 37.7539 145.166 36.9106 145.328 35.8839C145.504 34.8426 145.724 33.8746 145.988 32.9799C146.12 32.5106 146.296 32.1879 146.516 32.0119C146.736 31.8359 147.088 31.7479 147.572 31.7479C148.32 31.7479 148.694 31.9973 148.694 32.4959C148.694 32.8626 148.554 33.7133 148.276 35.0479C147.924 36.6613 147.748 37.7539 147.748 38.3259C147.748 38.7659 147.806 39.1033 147.924 39.3379C148.041 39.5726 148.239 39.6899 148.518 39.6899C148.782 39.6899 149.112 39.5066 149.508 39.1399C149.904 38.7733 150.432 38.1939 151.092 37.4019C151.268 37.1966 151.466 37.0939 151.686 37.0939C151.876 37.0939 152.023 37.1819 152.126 37.3579C152.243 37.5339 152.302 37.7759 152.302 38.0839C152.302 38.6706 152.162 39.1253 151.884 39.4479C150.432 41.2226 149.075 42.1099 147.814 42.1099Z" fill="#00A885"/>
<path d="M152.876 30.2959C152.26 30.2959 151.798 30.1566 151.49 29.8779C151.182 29.5846 151.028 29.1813 151.028 28.6679C151.028 28.1546 151.226 27.7293 151.622 27.3919C152.032 27.0399 152.538 26.8639 153.14 26.8639C153.682 26.8639 154.122 26.9959 154.46 27.2599C154.797 27.5239 154.966 27.8979 154.966 28.3819C154.966 28.9686 154.775 29.4379 154.394 29.7899C154.012 30.1273 153.506 30.2959 152.876 30.2959ZM156.836 37.1379C157.026 37.1379 157.173 37.2333 157.276 37.4239C157.393 37.5999 157.452 37.8273 157.452 38.1059C157.452 38.4433 157.4 38.7073 157.298 38.8979C157.195 39.0886 157.034 39.2573 156.814 39.4039C155.787 40.0786 154.416 41.0099 152.7 42.1979C152.128 45.2486 151.387 47.6466 150.478 49.3919C149.568 51.1373 148.41 52.0099 147.002 52.0099C146.239 52.0099 145.63 51.7753 145.176 51.3059C144.706 50.8513 144.472 50.2499 144.472 49.5019C144.472 48.4606 144.875 47.3459 145.682 46.1579C146.488 44.9846 148.006 43.5326 150.236 41.8019L150.39 40.6799C150.595 39.2719 150.756 37.8859 150.874 36.5219C150.962 35.7299 151.101 34.5493 151.292 32.9799C151.35 32.5546 151.512 32.2466 151.776 32.0559C152.04 31.8506 152.443 31.7479 152.986 31.7479C153.426 31.7479 153.712 31.8139 153.844 31.9459C153.99 32.0779 154.064 32.2613 154.064 32.4959C154.064 33.1706 153.822 35.0333 153.338 38.0839L153.118 39.6019C154.291 38.7219 155.362 37.9593 156.33 37.3139C156.52 37.1966 156.689 37.1379 156.836 37.1379ZM147.244 49.8759C147.625 49.8759 148.043 49.4433 148.498 48.5779C148.952 47.7126 149.378 46.3193 149.774 44.3979C148.659 45.3513 147.86 46.2093 147.376 46.9719C146.877 47.7493 146.628 48.4313 146.628 49.0179C146.628 49.5899 146.833 49.8759 147.244 49.8759Z" fill="#00A885"/>
<path d="M166.675 35.3119C166.719 35.2973 166.793 35.2899 166.895 35.2899C167.115 35.2899 167.284 35.3633 167.401 35.5099C167.519 35.6566 167.577 35.8546 167.577 36.1039C167.577 36.5586 167.489 36.9179 167.313 37.1819C167.137 37.4313 166.873 37.6146 166.521 37.7319C165.847 37.9519 165.128 38.0619 164.365 38.0619C163.72 38.0619 163.111 37.9739 162.539 37.7979C162.114 38.4873 161.645 39.1986 161.131 39.9319C160.545 40.7679 160.039 41.3399 159.613 41.6479C159.188 41.9559 158.704 42.1099 158.161 42.1099C157.56 42.1099 157.083 41.8753 156.731 41.4059C156.394 40.9366 156.181 40.1959 156.093 39.1839C155.917 37.1306 155.829 35.3339 155.829 33.7939V33.0239C155.844 32.5399 155.976 32.2026 156.225 32.0119C156.475 31.8213 156.849 31.7259 157.347 31.7259C157.729 31.7259 158.007 31.8139 158.183 31.9899C158.374 32.1513 158.469 32.4299 158.469 32.8259C158.469 34.5126 158.572 36.7053 158.777 39.4039C159.657 38.0986 160.317 37.0573 160.757 36.2799C160.537 35.8546 160.427 35.3486 160.427 34.7619C160.427 34.2633 160.537 33.7793 160.757 33.3099C160.977 32.8406 161.278 32.4593 161.659 32.1659C162.041 31.8726 162.473 31.7259 162.957 31.7259C163.383 31.7259 163.727 31.8799 163.991 32.1879C164.255 32.4813 164.387 32.9139 164.387 33.4859C164.387 34.1459 164.211 34.9013 163.859 35.7519C164.417 35.7226 165.157 35.6126 166.081 35.4219L166.675 35.3119Z" fill="#00A885"/>
<path d="M175.48 37.0939C175.671 37.0939 175.818 37.1819 175.92 37.3579C176.038 37.5339 176.096 37.7759 176.096 38.0839C176.096 38.6706 175.957 39.1253 175.678 39.4479C175.136 40.1079 174.366 40.7166 173.368 41.2739C172.386 41.8313 171.33 42.1099 170.2 42.1099C168.66 42.1099 167.465 41.6919 166.614 40.8559C165.764 40.0199 165.338 38.8759 165.338 37.4239C165.338 36.4119 165.551 35.4733 165.976 34.6079C166.402 33.7279 166.988 33.0313 167.736 32.5179C168.499 32.0046 169.357 31.7479 170.31 31.7479C171.161 31.7479 171.843 32.0046 172.356 32.5179C172.87 33.0166 173.126 33.6986 173.126 34.5639C173.126 35.5759 172.76 36.4486 172.026 37.1819C171.308 37.9006 170.083 38.4726 168.352 38.8979C168.719 39.5726 169.416 39.9099 170.442 39.9099C171.102 39.9099 171.85 39.6826 172.686 39.2279C173.537 38.7586 174.27 38.1499 174.886 37.4019C175.062 37.1966 175.26 37.0939 175.48 37.0939ZM169.936 33.9039C169.394 33.9039 168.932 34.2193 168.55 34.8499C168.184 35.4806 168 36.2433 168 37.1379V37.1819C168.866 36.9766 169.548 36.6686 170.046 36.2579C170.545 35.8473 170.794 35.3706 170.794 34.8279C170.794 34.5493 170.714 34.3293 170.552 34.1679C170.406 33.9919 170.2 33.9039 169.936 33.9039Z" fill="#00A885"/>
<path d="M175.867 42.1099C175.31 42.1099 174.914 41.8166 174.679 41.2299C174.459 40.6433 174.349 39.7046 174.349 38.4139C174.349 36.5073 174.62 34.6959 175.163 32.9799C175.295 32.5546 175.508 32.2466 175.801 32.0559C176.109 31.8506 176.534 31.7479 177.077 31.7479C177.37 31.7479 177.576 31.7846 177.693 31.8579C177.81 31.9313 177.869 32.0706 177.869 32.2759C177.869 32.5106 177.759 33.0386 177.539 33.8599C177.392 34.4466 177.275 34.9599 177.187 35.3999C177.099 35.8399 177.026 36.3826 176.967 37.0279C177.451 35.7666 177.994 34.7399 178.595 33.9479C179.196 33.1559 179.783 32.5913 180.355 32.2539C180.942 31.9166 181.477 31.7479 181.961 31.7479C182.43 31.7479 182.782 31.8726 183.017 32.1219C183.266 32.3566 183.391 32.7086 183.391 33.1779C183.391 33.5593 183.31 34.2779 183.149 35.3339C183.002 36.2286 182.885 37.0793 182.797 37.8859C182.709 38.6779 182.665 39.5653 182.665 40.5479C182.665 41.1053 182.548 41.5086 182.313 41.7579C182.093 41.9926 181.726 42.1099 181.213 42.1099C180.729 42.1099 180.377 41.9853 180.157 41.7359C179.937 41.4866 179.827 41.1126 179.827 40.6139C179.827 40.0273 179.93 39.0593 180.135 37.7099C180.311 36.5366 180.399 35.7886 180.399 35.4659C180.399 35.2313 180.318 35.1139 180.157 35.1139C179.966 35.1139 179.695 35.3633 179.343 35.8619C179.006 36.3459 178.654 36.9913 178.287 37.7979C177.935 38.6046 177.649 39.4553 177.429 40.3499C177.268 41.0393 177.077 41.5086 176.857 41.7579C176.652 41.9926 176.322 42.1099 175.867 42.1099Z" fill="#00A885"/>
</svg>
