<svg width="182" height="45" viewBox="0 0 182 45" fill="none" xmlns="http://www.w3.org/2000/svg">
<g clip-path="url(#clip0_16018_95475)">
<path d="M109.601 17.1616C109.601 23.1107 112.293 26.3674 117.089 26.3674C121.938 26.3674 124.837 21.7485 124.837 21.7485L125.731 24.8072C125.937 25.5011 126.586 25.9864 127.312 25.9864H133.355C133.789 25.9864 134.142 25.6352 134.142 25.1988C134.142 24.9987 134.142 24.7859 134.142 24.5858C134.142 24.1516 133.789 23.7983 133.355 23.7983H133.346C131.95 23.7983 130.818 22.6659 130.818 21.2696L130.82 1.84907C130.82 1.3361 130.337 0.959353 129.839 1.08706L121.791 3.13256C121.442 3.22196 121.199 3.53485 121.197 3.89457V4.68637C121.197 5.12059 121.548 5.47392 121.984 5.47392V5.47392C123.381 5.47392 124.511 6.60842 124.507 8.00259L124.473 19.7392C124.473 19.7392 122.502 21.9614 119.615 21.9614C117.202 21.9614 115.91 19.9499 115.91 17.4532L115.899 1.83204C115.899 1.31907 115.414 0.942325 114.918 1.07004L106.864 3.13256C106.514 3.22196 106.272 3.53485 106.272 3.89457V4.68637C106.272 5.12059 106.623 5.47392 107.059 5.47392H107.066C108.458 5.47392 109.586 6.60203 109.588 7.99408L109.601 17.1616Z" fill="#00A885"/>
<path fill-rule="evenodd" clip-rule="evenodd" d="M144.238 5.59329C144.238 5.59329 147.167 1.03403 151.758 1.03403C157.416 1.03403 161.366 6.04667 161.366 13.2283C161.366 20.9675 156.964 26.3718 150.664 26.3718C146.726 26.3718 144.238 22.7576 144.238 22.7576V28.2789C144.236 29.6774 145.37 30.8097 146.767 30.8076C147.203 30.8076 147.556 31.1588 147.556 31.5952V32.2103C147.558 32.6466 147.205 33 146.769 33H135.383C134.949 33 134.596 32.6466 134.596 32.2103V31.593C134.596 31.1567 134.949 30.8055 135.383 30.8055H135.39C136.786 30.8055 137.918 29.6731 137.918 28.2768V8.00489C137.918 6.61285 136.795 5.48474 135.403 5.47835H135.379C134.945 5.47835 134.594 5.12502 134.594 4.69081V3.89687C134.594 3.53715 134.836 3.22214 135.185 3.13274L143.252 1.05319C143.753 0.925474 144.238 1.30222 144.238 1.81732V5.59329ZM144.24 18.5964C144.24 18.5964 145.76 22.1957 149.225 22.1957C153.265 22.1957 155.061 17.7407 155.061 13.4517C155.061 9.21389 153.75 5.22932 149.481 5.22932C146.324 5.22932 144.238 7.97084 144.238 7.97084L144.236 18.5708L144.24 18.5964Z" fill="#00A885"/>
<path d="M105.75 24.0432C105.593 23.8857 105.382 23.7985 105.159 23.7985H105.101C103.762 23.7985 102.672 22.7087 102.672 21.3698V14.4373C102.675 13.2581 102.677 11.3446 102.677 10.044C102.677 3.29453 99.4797 1 96.0337 1C91.1126 1 87.8283 5.22935 87.8283 5.22935L87.807 5.2485V1.81735C87.807 1.30225 87.3217 0.925502 86.8215 1.05321L78.7544 3.13277C78.4054 3.22216 78.1627 3.53718 78.1627 3.8969V4.69083C78.1627 5.12505 78.5139 5.47838 78.9481 5.47838H78.9694C80.3615 5.48477 81.4875 6.61288 81.4875 8.00492V21.2698C81.4875 22.6661 80.3551 23.7985 78.9588 23.7985H78.9524C78.5182 23.7985 78.1648 24.1497 78.1648 24.586C78.1648 24.7861 78.1648 25.0011 78.1648 25.2033C78.1648 25.6396 78.5182 25.993 78.9524 25.993H90.3378C90.7741 25.993 91.1275 25.6396 91.1253 25.2033V24.5881C91.1253 24.1518 90.772 23.8006 90.3357 23.8006V23.8006C88.9394 23.8027 87.8049 22.6703 87.807 21.2719V7.65372L87.8283 7.63243C87.8283 7.63243 89.9057 5.47625 92.494 5.47625C94.9098 5.47625 96.353 7.16416 96.353 9.99082V23.8368L96.3615 23.9389C96.4594 25.0883 97.4385 25.9866 98.5921 25.9866H105.156C105.616 25.9866 105.993 25.6119 105.993 25.1522V24.635C105.995 24.4115 105.908 24.2007 105.75 24.0432Z" fill="#0C8E77"/>
<path fill-rule="evenodd" clip-rule="evenodd" d="M34.6879 5.59329C34.6879 5.59329 37.6167 1.03403 42.2079 1.03403C47.8655 1.03403 51.816 6.04667 51.8139 13.2283C51.8139 20.9675 47.4121 26.3718 41.1118 26.3718C37.174 26.3718 34.6858 22.7576 34.6858 22.7576V28.2789C34.6837 29.6774 35.8182 30.8097 37.2145 30.8076C37.6508 30.8076 38.0041 31.1588 38.0041 31.5952V32.2103C38.0063 32.6466 37.6529 33 37.2166 33H25.8312C25.397 33 25.0436 32.6466 25.0436 32.2103V31.593C25.0436 31.1567 25.397 30.8055 25.8312 30.8055H25.8376C27.2339 30.8055 28.3662 29.6731 28.3662 28.2768V8.00489C28.3662 6.61285 27.2424 5.48474 25.8503 5.47835H25.8291C25.3948 5.47835 25.0436 5.12502 25.0436 4.69081V3.89687C25.0436 3.53715 25.2863 3.22214 25.6354 3.13274L33.7024 1.05319C34.2026 0.925474 34.6879 1.30222 34.6879 1.81732V5.59329ZM34.6922 18.5964C34.6922 18.5964 36.2119 22.1957 39.6771 22.1957C43.717 22.1957 45.5135 17.7407 45.5135 13.4517C45.5135 9.21389 44.2023 5.22932 39.9326 5.22932C36.776 5.22932 34.69 7.97084 34.69 7.97084L34.6879 18.5708L34.6922 18.5964Z" fill="#0C8E77"/>
<path fill-rule="evenodd" clip-rule="evenodd" d="M1 13.6984C1 6.69982 6.21272 1.02734 12.6451 1.02734C19.0774 1.02734 24.2923 6.69982 24.2901 13.6984C24.2901 20.6969 19.0753 26.3694 12.6451 26.3694C6.21485 26.3694 1 20.6969 1 13.6984ZM7.3685 13.8221C7.3685 19.0348 9.73114 23.2599 12.6451 23.2599C15.559 23.2599 17.9216 19.0348 17.9216 13.8221C17.9216 8.60939 15.559 4.3843 12.6451 4.3843C9.73114 4.3843 7.3685 8.60939 7.3685 13.8221Z" fill="#0C8E77"/>
<path fill-rule="evenodd" clip-rule="evenodd" d="M75.932 18.1345L76.4961 18.5581C76.826 18.805 76.9218 19.2434 76.7217 19.6032C75.6085 21.6423 72.3561 26.3888 66.2048 26.3888H66.2005C59.1402 26.3867 54.9173 20.0799 54.9173 13.986C54.9173 5.08673 60.6919 1.04895 65.9791 1.04895H65.9855C73.3289 1.04895 75.5361 9.70772 75.7447 10.9912C75.8128 11.4084 75.5404 11.8064 75.1253 11.9001L60.6366 15.1503L60.6685 15.2482C60.6728 15.2631 61.1389 16.6977 62.3415 18.1089C63.4547 19.4137 65.4385 20.9697 68.5802 20.9718H68.5844C71.6495 20.9718 73.812 19.2434 74.8295 18.2132C75.1232 17.9174 75.5957 17.8833 75.932 18.1345ZM60.2109 10.1356C60.164 11.5425 60.3322 11.8235 60.3662 11.866L60.4067 11.9107L69.1293 10.0994V10.0291C69.1293 9.26499 69.0059 8.40295 68.7888 7.66436C68.4929 6.66183 68.0395 5.87215 67.4393 5.31448C66.7752 4.69721 65.9451 4.38432 64.9723 4.38432H64.9702C61.8158 4.38432 60.2875 7.74737 60.2109 10.1356Z" fill="#0C8E77"/>
<path d="M117.01 35.246C117.201 35.246 117.347 35.3413 117.45 35.532C117.553 35.7227 117.604 35.9647 117.604 36.258C117.604 36.6247 117.553 36.9107 117.45 37.116C117.347 37.3067 117.186 37.4387 116.966 37.512C116.086 37.82 115.118 37.996 114.062 38.04C113.769 39.2573 113.211 40.24 112.39 40.988C111.583 41.736 110.689 42.11 109.706 42.11C108.225 42.11 107.147 41.5453 106.472 40.416C105.797 39.2867 105.46 37.6513 105.46 35.51C105.46 33.618 105.695 31.5647 106.164 29.35C106.633 27.1207 107.315 25.2287 108.21 23.674C109.119 22.1047 110.197 21.32 111.444 21.32C112.119 21.32 112.661 21.6133 113.072 22.2C113.483 22.772 113.688 23.52 113.688 24.444C113.688 25.6467 113.461 26.842 113.006 28.03C112.551 29.218 111.796 30.4647 110.74 31.77C111.723 31.8433 112.522 32.254 113.138 33.002C113.754 33.7353 114.121 34.6447 114.238 35.73C114.927 35.686 115.749 35.5393 116.702 35.29C116.79 35.2607 116.893 35.246 117.01 35.246ZM110.938 23.498C110.645 23.498 110.322 23.938 109.97 24.818C109.633 25.6833 109.317 26.864 109.024 28.36C108.731 29.856 108.511 31.4913 108.364 33.266C109.332 31.4913 110.102 29.9293 110.674 28.58C111.261 27.216 111.554 26.006 111.554 24.95C111.554 24.4807 111.495 24.1213 111.378 23.872C111.275 23.6227 111.129 23.498 110.938 23.498ZM109.794 39.778C110.249 39.778 110.652 39.5873 111.004 39.206C111.356 38.8247 111.591 38.2747 111.708 37.556C111.253 37.248 110.901 36.8447 110.652 36.346C110.417 35.8473 110.3 35.3193 110.3 34.762C110.3 34.5567 110.329 34.278 110.388 33.926H110.322C109.721 33.926 109.215 34.2267 108.804 34.828C108.408 35.4147 108.21 36.2067 108.21 37.204C108.21 38.04 108.364 38.678 108.672 39.118C108.995 39.558 109.369 39.778 109.794 39.778Z" fill="#00A885"/>
<path d="M117.948 42.11C117.288 42.11 116.746 41.8093 116.32 41.208C115.91 40.592 115.704 39.8293 115.704 38.92C115.704 37.82 115.778 36.8153 115.924 35.906C116.071 34.982 116.313 34.0067 116.65 32.98C116.797 32.54 117.002 32.2247 117.266 32.034C117.53 31.8433 117.948 31.748 118.52 31.748C118.843 31.748 119.063 31.7993 119.18 31.902C119.312 32.0047 119.378 32.1587 119.378 32.364C119.378 32.4813 119.298 32.8773 119.136 33.552C118.99 34.0947 118.872 34.586 118.784 35.026C118.491 36.566 118.344 37.5927 118.344 38.106C118.344 38.414 118.381 38.634 118.454 38.766C118.528 38.8833 118.645 38.942 118.806 38.942C119.026 38.942 119.298 38.722 119.62 38.282C119.958 37.842 120.31 37.1747 120.676 36.28C121.058 35.3853 121.424 34.2853 121.776 32.98C121.894 32.54 122.07 32.2247 122.304 32.034C122.554 31.8433 122.92 31.748 123.404 31.748C123.742 31.748 123.976 31.792 124.108 31.88C124.24 31.9533 124.306 32.1 124.306 32.32C124.306 32.6867 124.123 33.6913 123.756 35.334C123.346 37.2113 123.14 38.37 123.14 38.81C123.14 39.0887 123.199 39.3087 123.316 39.47C123.434 39.6167 123.588 39.69 123.778 39.69C124.072 39.69 124.416 39.514 124.812 39.162C125.223 38.7953 125.766 38.2087 126.44 37.402C126.616 37.1967 126.814 37.094 127.034 37.094C127.225 37.094 127.372 37.182 127.474 37.358C127.592 37.534 127.65 37.776 127.65 38.084C127.65 38.6707 127.511 39.1253 127.232 39.448C126.602 40.2253 125.92 40.8633 125.186 41.362C124.468 41.8607 123.646 42.11 122.722 42.11C122.018 42.11 121.498 41.8387 121.16 41.296C120.838 40.7533 120.676 39.9907 120.676 39.008C120.427 40.0053 120.053 40.7753 119.554 41.318C119.056 41.846 118.52 42.11 117.948 42.11Z" fill="#00A885"/>
<path d="M129.959 42.594C129.196 42.594 128.609 42.418 128.199 42.066C127.803 41.714 127.605 41.318 127.605 40.878C127.605 40.4967 127.744 40.1667 128.023 39.888C128.301 39.6093 128.712 39.47 129.255 39.47C129.445 39.47 129.665 39.492 129.915 39.536C130.179 39.5653 130.377 39.5873 130.509 39.602C130.494 39.2207 130.406 38.8613 130.245 38.524C130.098 38.1867 129.907 37.864 129.673 37.556C129.438 37.2333 129.218 36.9547 129.013 36.72C128.558 37.5853 128.103 38.304 127.649 38.876C127.209 39.448 126.725 39.9907 126.197 40.504C125.933 40.768 125.654 40.9 125.361 40.9C125.126 40.9 124.935 40.8193 124.789 40.658C124.642 40.482 124.569 40.2693 124.569 40.02C124.569 39.7267 124.671 39.4553 124.877 39.206L125.163 38.854C125.969 37.8567 126.578 37.0353 126.989 36.39C127.238 35.9647 127.531 35.4 127.869 34.696C128.206 33.9773 128.536 33.2367 128.859 32.474C129.137 31.8287 129.717 31.506 130.597 31.506C131.007 31.506 131.293 31.5427 131.455 31.616C131.616 31.6893 131.697 31.8067 131.697 31.968C131.697 32.056 131.667 32.1953 131.609 32.386C131.55 32.5767 131.469 32.7673 131.367 32.958C131.103 33.486 130.971 33.9333 130.971 34.3C130.971 34.52 131.044 34.762 131.191 35.026C131.352 35.29 131.594 35.62 131.917 36.016C132.386 36.632 132.738 37.16 132.973 37.6C133.222 38.0253 133.347 38.4947 133.347 39.008C133.347 39.1547 133.332 39.36 133.303 39.624C134.021 39.3453 134.865 38.6047 135.833 37.402C136.009 37.1967 136.207 37.094 136.427 37.094C136.617 37.094 136.764 37.182 136.867 37.358C136.984 37.534 137.043 37.776 137.043 38.084C137.043 38.6413 136.903 39.096 136.625 39.448C135.891 40.3573 135.187 40.9807 134.513 41.318C133.853 41.6407 133.031 41.8167 132.049 41.846C131.462 42.3447 130.765 42.594 129.959 42.594Z" fill="#00A885"/>
<path d="M138.137 30.296C137.521 30.296 137.059 30.1567 136.751 29.878C136.443 29.5847 136.289 29.1813 136.289 28.668C136.289 28.1547 136.487 27.7293 136.883 27.392C137.294 27.04 137.8 26.864 138.401 26.864C138.944 26.864 139.384 26.996 139.721 27.26C140.059 27.524 140.227 27.898 140.227 28.382C140.227 28.9687 140.037 29.438 139.655 29.79C139.274 30.1273 138.768 30.296 138.137 30.296ZM137.961 42.11C137.008 42.11 136.311 41.7727 135.871 41.098C135.446 40.4233 135.233 39.5287 135.233 38.414C135.233 37.754 135.314 36.9107 135.475 35.884C135.651 34.8427 135.871 33.8747 136.135 32.98C136.267 32.5107 136.443 32.188 136.663 32.012C136.883 31.836 137.235 31.748 137.719 31.748C138.467 31.748 138.841 31.9973 138.841 32.496C138.841 32.8627 138.702 33.7133 138.423 35.048C138.071 36.6613 137.895 37.754 137.895 38.326C137.895 38.766 137.954 39.1033 138.071 39.338C138.189 39.5727 138.387 39.69 138.665 39.69C138.929 39.69 139.259 39.5067 139.655 39.14C140.051 38.7733 140.579 38.194 141.239 37.402C141.415 37.1967 141.613 37.094 141.833 37.094C142.024 37.094 142.171 37.182 142.273 37.358C142.391 37.534 142.449 37.776 142.449 38.084C142.449 38.6707 142.31 39.1253 142.031 39.448C140.579 41.2227 139.223 42.11 137.961 42.11Z" fill="#00A885"/>
<path d="M142.231 42.11C141.674 42.11 141.278 41.8167 141.043 41.23C140.823 40.6433 140.713 39.7047 140.713 38.414C140.713 36.5073 140.985 34.696 141.527 32.98C141.659 32.5547 141.872 32.2467 142.165 32.056C142.473 31.8507 142.899 31.748 143.441 31.748C143.735 31.748 143.94 31.7847 144.057 31.858C144.175 31.9313 144.233 32.0707 144.233 32.276C144.233 32.5107 144.123 33.0387 143.903 33.86C143.757 34.4467 143.639 34.96 143.551 35.4C143.463 35.84 143.39 36.3827 143.331 37.028C143.815 35.7667 144.358 34.74 144.959 33.948C145.561 33.156 146.147 32.5913 146.719 32.254C147.306 31.9167 147.841 31.748 148.325 31.748C149.279 31.748 149.755 32.2247 149.755 33.178C149.755 33.75 149.594 34.784 149.271 36.28C148.993 37.556 148.853 38.3993 148.853 38.81C148.853 39.3967 149.066 39.69 149.491 39.69C149.785 39.69 150.129 39.514 150.525 39.162C150.936 38.7953 151.479 38.2087 152.153 37.402C152.329 37.1967 152.527 37.094 152.747 37.094C152.938 37.094 153.085 37.182 153.187 37.358C153.305 37.534 153.363 37.776 153.363 38.084C153.363 38.6707 153.224 39.1253 152.945 39.448C152.315 40.2253 151.633 40.8633 150.899 41.362C150.181 41.8607 149.359 42.11 148.435 42.11C147.687 42.11 147.123 41.8973 146.741 41.472C146.36 41.032 146.169 40.4013 146.169 39.58C146.169 39.1693 146.272 38.436 146.477 37.38C146.668 36.456 146.763 35.818 146.763 35.466C146.763 35.2313 146.683 35.114 146.521 35.114C146.331 35.114 146.059 35.3633 145.707 35.862C145.37 36.346 145.018 36.9913 144.651 37.798C144.299 38.6047 144.013 39.4553 143.793 40.35C143.632 41.0393 143.441 41.5087 143.221 41.758C143.016 41.9927 142.686 42.11 142.231 42.11Z" fill="#00A885"/>
<path d="M161.395 37.094C161.586 37.094 161.733 37.182 161.835 37.358C161.953 37.534 162.011 37.776 162.011 38.084C162.011 38.6707 161.872 39.1253 161.593 39.448C161.051 40.108 160.281 40.7167 159.283 41.274C158.301 41.8313 157.245 42.11 156.115 42.11C154.575 42.11 153.38 41.692 152.529 40.856C151.679 40.02 151.253 38.876 151.253 37.424C151.253 36.412 151.466 35.4733 151.891 34.608C152.317 33.728 152.903 33.0313 153.651 32.518C154.414 32.0047 155.272 31.748 156.225 31.748C157.076 31.748 157.758 32.0047 158.271 32.518C158.785 33.0167 159.041 33.6987 159.041 34.564C159.041 35.576 158.675 36.4487 157.941 37.182C157.223 37.9007 155.998 38.4727 154.267 38.898C154.634 39.5727 155.331 39.91 156.357 39.91C157.017 39.91 157.765 39.6827 158.601 39.228C159.452 38.7587 160.185 38.15 160.801 37.402C160.977 37.1967 161.175 37.094 161.395 37.094ZM155.851 33.904C155.309 33.904 154.847 34.2193 154.465 34.85C154.099 35.4807 153.915 36.2433 153.915 37.138V37.182C154.781 36.9767 155.463 36.6687 155.961 36.258C156.46 35.8473 156.709 35.3707 156.709 34.828C156.709 34.5493 156.629 34.3293 156.467 34.168C156.321 33.992 156.115 33.904 155.851 33.904Z" fill="#00A885"/>
<path d="M164.312 42.594C163.549 42.594 162.963 42.418 162.552 42.066C162.156 41.714 161.958 41.318 161.958 40.878C161.958 40.4967 162.097 40.1667 162.376 39.888C162.655 39.6093 163.065 39.47 163.608 39.47C163.799 39.47 164.019 39.492 164.268 39.536C164.532 39.5653 164.73 39.5873 164.862 39.602C164.847 39.2207 164.759 38.8613 164.598 38.524C164.451 38.1867 164.261 37.864 164.026 37.556C163.791 37.2333 163.571 36.9547 163.366 36.72C162.911 37.5853 162.457 38.304 162.002 38.876C161.562 39.448 161.078 39.9907 160.55 40.504C160.286 40.768 160.007 40.9 159.714 40.9C159.479 40.9 159.289 40.8193 159.142 40.658C158.995 40.482 158.922 40.2693 158.922 40.02C158.922 39.7267 159.025 39.4553 159.23 39.206L159.516 38.854C160.323 37.8567 160.931 37.0353 161.342 36.39C161.591 35.9647 161.885 35.4 162.222 34.696C162.559 33.9773 162.889 33.2367 163.212 32.474C163.491 31.8287 164.07 31.506 164.95 31.506C165.361 31.506 165.647 31.5427 165.808 31.616C165.969 31.6893 166.05 31.8067 166.05 31.968C166.05 32.056 166.021 32.1953 165.962 32.386C165.903 32.5767 165.823 32.7673 165.72 32.958C165.456 33.486 165.324 33.9333 165.324 34.3C165.324 34.52 165.397 34.762 165.544 35.026C165.705 35.29 165.947 35.62 166.27 36.016C166.739 36.632 167.091 37.16 167.326 37.6C167.575 38.0253 167.7 38.4947 167.7 39.008C167.7 39.1547 167.685 39.36 167.656 39.624C168.375 39.3453 169.218 38.6047 170.186 37.402C170.362 37.1967 170.56 37.094 170.78 37.094C170.971 37.094 171.117 37.182 171.22 37.358C171.337 37.534 171.396 37.776 171.396 38.084C171.396 38.6413 171.257 39.096 170.978 39.448C170.245 40.3573 169.541 40.9807 168.866 41.318C168.206 41.6407 167.385 41.8167 166.402 41.846C165.815 42.3447 165.119 42.594 164.312 42.594Z" fill="#00A885"/>
<path d="M173.701 42.594C172.938 42.594 172.351 42.418 171.941 42.066C171.545 41.714 171.347 41.318 171.347 40.878C171.347 40.4967 171.486 40.1667 171.765 39.888C172.043 39.6093 172.454 39.47 172.997 39.47C173.187 39.47 173.407 39.492 173.657 39.536C173.921 39.5653 174.119 39.5873 174.251 39.602C174.236 39.2207 174.148 38.8613 173.987 38.524C173.84 38.1867 173.649 37.864 173.415 37.556C173.18 37.2333 172.96 36.9547 172.755 36.72C172.3 37.5853 171.845 38.304 171.391 38.876C170.951 39.448 170.467 39.9907 169.939 40.504C169.675 40.768 169.396 40.9 169.103 40.9C168.868 40.9 168.677 40.8193 168.531 40.658C168.384 40.482 168.311 40.2693 168.311 40.02C168.311 39.7267 168.413 39.4553 168.619 39.206L168.905 38.854C169.711 37.8567 170.32 37.0353 170.731 36.39C170.98 35.9647 171.273 35.4 171.611 34.696C171.948 33.9773 172.278 33.2367 172.601 32.474C172.879 31.8287 173.459 31.506 174.339 31.506C174.749 31.506 175.035 31.5427 175.197 31.616C175.358 31.6893 175.439 31.8067 175.439 31.968C175.439 32.056 175.409 32.1953 175.351 32.386C175.292 32.5767 175.211 32.7673 175.109 32.958C174.845 33.486 174.713 33.9333 174.713 34.3C174.713 34.52 174.786 34.762 174.933 35.026C175.094 35.29 175.336 35.62 175.659 36.016C176.128 36.632 176.48 37.16 176.715 37.6C176.964 38.0253 177.089 38.4947 177.089 39.008C177.089 39.1547 177.074 39.36 177.045 39.624C177.763 39.3453 178.607 38.6047 179.575 37.402C179.751 37.1967 179.949 37.094 180.169 37.094C180.359 37.094 180.506 37.182 180.609 37.358C180.726 37.534 180.785 37.776 180.785 38.084C180.785 38.6413 180.645 39.096 180.367 39.448C179.633 40.3573 178.929 40.9807 178.255 41.318C177.595 41.6407 176.773 41.8167 175.791 41.846C175.204 42.3447 174.507 42.594 173.701 42.594Z" fill="#00A885"/>
<path fill-rule="evenodd" clip-rule="evenodd" d="M118.444 38.766C118.371 38.634 118.334 38.414 118.334 38.106C118.334 37.9751 118.344 37.8108 118.363 37.613C118.364 37.6019 118.365 37.5906 118.366 37.5792C118.373 37.5177 118.38 37.453 118.388 37.3852C118.389 37.3729 118.39 37.3604 118.392 37.3478C118.406 37.2341 118.422 37.1118 118.44 36.981C118.471 36.7635 118.508 36.5225 118.553 36.258C118.564 36.1898 118.576 36.1199 118.588 36.0485C118.642 35.7374 118.704 35.3966 118.774 35.026C118.79 34.9479 118.807 34.8681 118.824 34.7867C118.824 34.7867 118.824 34.7867 118.824 34.7867C118.864 34.6026 118.908 34.4101 118.957 34.2094C119.008 33.9993 119.065 33.7802 119.126 33.552C119.288 32.8773 119.368 32.4813 119.368 32.364C119.368 32.1587 119.302 32.0047 119.17 31.902C119.053 31.7993 118.833 31.748 118.51 31.748C117.938 31.748 117.52 31.8433 117.256 32.034C116.992 32.2247 116.787 32.54 116.64 32.98C116.608 33.0799 116.576 33.1793 116.545 33.2782C116.473 33.5074 116.406 33.734 116.344 33.958C116.329 34.0107 116.315 34.0632 116.301 34.1156C116.234 34.3645 116.173 34.6101 116.118 34.8525C116.072 35.0573 116.03 35.2598 115.992 35.46C115.636 35.539 115.302 35.6016 114.989 35.6477C114.86 35.6667 114.735 35.6828 114.614 35.6962C114.61 35.6967 114.605 35.6971 114.601 35.6976C114.473 35.7115 114.348 35.7223 114.228 35.73C114.225 35.6987 114.221 35.6676 114.217 35.6366C114.217 35.6351 114.217 35.6337 114.217 35.6322C114.184 35.3641 114.135 35.107 114.071 34.8608C113.886 34.1499 113.572 33.5303 113.128 33.002C112.985 32.829 112.833 32.674 112.671 32.537C112.661 32.5287 112.651 32.5204 112.641 32.5122C112.319 32.2467 111.96 32.0513 111.561 31.926C111.49 31.9035 111.417 31.8833 111.344 31.8653C111.148 31.8177 110.943 31.7859 110.73 31.77C111.225 31.1587 111.653 30.5602 112.016 29.9747C112.151 29.7561 112.277 29.5393 112.394 29.3243C112.396 29.3214 112.398 29.3184 112.399 29.3155C112.636 28.8797 112.835 28.4511 112.996 28.03C113.026 27.9511 113.055 27.8722 113.084 27.7933C113.48 26.6832 113.678 25.5668 113.678 24.444C113.678 23.52 113.473 22.772 113.062 22.2C112.651 21.6133 112.109 21.32 111.434 21.32C110.974 21.32 110.537 21.4269 110.123 21.6407C109.555 21.9337 109.03 22.4274 108.549 23.122C108.43 23.2938 108.314 23.4777 108.2 23.674C107.305 25.2287 106.623 27.1207 106.154 29.35C105.685 31.5647 105.45 33.618 105.45 35.51C105.45 37.6513 105.787 39.2867 106.462 40.416C107.137 41.5453 108.215 42.11 109.696 42.11C110.679 42.11 111.573 41.736 112.38 40.988C112.943 40.4752 113.382 39.8522 113.697 39.1188C113.725 39.0534 113.752 38.9872 113.778 38.92C113.886 38.6417 113.978 38.3484 114.052 38.04C114.634 38.0157 115.19 37.9513 115.719 37.8467C115.71 38.0401 115.703 38.2369 115.699 38.4369C115.696 38.5959 115.694 38.7569 115.694 38.92C115.694 39.0994 115.702 39.273 115.718 39.441C115.732 39.588 115.753 39.7306 115.779 39.8689C115.874 40.3735 116.052 40.8199 116.31 41.208C116.736 41.8093 117.278 42.11 117.938 42.11C118.352 42.11 118.747 41.9718 119.123 41.6953C119.266 41.5897 119.407 41.4639 119.544 41.318C119.739 41.1061 119.915 40.8595 120.072 40.5782C120.307 40.1562 120.499 39.6561 120.649 39.078C120.651 39.0683 120.654 39.0586 120.656 39.0488C120.66 39.0353 120.663 39.0217 120.666 39.008C120.666 39.0242 120.666 39.0404 120.667 39.0565C120.667 39.0683 120.667 39.0801 120.667 39.0919C120.67 39.437 120.694 39.7543 120.738 40.0437C120.814 40.5445 120.952 40.962 121.15 41.296C121.289 41.5182 121.457 41.6949 121.657 41.8261C121.945 42.0154 122.297 42.11 122.712 42.11C122.934 42.11 123.149 42.0957 123.358 42.0671C124.024 41.9763 124.63 41.7413 125.176 41.362C125.235 41.3223 125.293 41.2818 125.351 41.2403C125.37 41.2264 125.389 41.2124 125.409 41.1982C125.472 41.1515 125.536 41.1037 125.599 41.0548C125.673 40.9974 125.747 40.9385 125.82 40.878C125.916 40.7979 126.012 40.7151 126.107 40.6297C126.108 40.6287 126.109 40.6277 126.11 40.6268C126.145 40.5955 126.179 40.564 126.214 40.532C126.214 40.5319 126.214 40.5321 126.214 40.532C126.255 40.4941 126.296 40.4552 126.336 40.4163C126.339 40.4134 126.342 40.4104 126.345 40.4075C126.408 40.347 126.47 40.2853 126.532 40.2224C126.577 40.1768 126.622 40.1305 126.666 40.0837C126.667 40.0826 126.668 40.0816 126.669 40.0805C126.858 39.8811 127.042 39.6702 127.222 39.448C127.277 39.3852 127.326 39.3175 127.369 39.2447C127.387 39.215 127.404 39.1845 127.42 39.1531C127.466 39.0966 127.511 39.0399 127.556 38.9828C127.583 38.9473 127.611 38.9117 127.639 38.876C127.706 38.791 127.774 38.7028 127.841 38.6113C127.846 38.6052 127.85 38.5992 127.855 38.5931C127.869 38.5735 127.884 38.5537 127.898 38.5337C128.001 38.3914 128.104 38.2415 128.207 38.084C128.324 37.9057 128.441 37.7177 128.558 37.52C128.575 37.4898 128.593 37.4595 128.611 37.4289C128.623 37.4086 128.635 37.3882 128.646 37.3677C128.765 37.1618 128.884 36.9459 129.003 36.72C129.019 36.7386 129.035 36.7574 129.052 36.7765C129.222 36.9748 129.402 37.2026 129.592 37.4601C129.598 37.4681 129.604 37.476 129.61 37.4841C129.627 37.5078 129.645 37.5318 129.663 37.556C129.812 37.7521 129.943 37.9541 130.057 38.162C130.08 38.2044 130.103 38.247 130.124 38.2898C130.164 38.3671 130.2 38.4451 130.235 38.524C130.242 38.5406 130.25 38.5573 130.258 38.574C130.404 38.8968 130.485 39.2394 130.499 39.602L129.905 39.536C129.821 39.5213 129.742 39.5091 129.665 39.4993C129.587 39.4893 129.512 39.4819 129.44 39.477C129.372 39.4723 129.307 39.47 129.245 39.47C128.978 39.47 128.744 39.5035 128.541 39.5705C128.535 39.5728 128.528 39.5751 128.521 39.5774C128.511 39.5808 128.501 39.5843 128.492 39.5879C128.303 39.6573 128.143 39.7573 128.013 39.888C127.975 39.9256 127.94 39.9642 127.907 40.0037C127.902 40.0107 127.896 40.0177 127.89 40.0248C127.693 40.2729 127.595 40.5573 127.595 40.878C127.595 41.1628 127.678 41.4292 127.843 41.6771C127.852 41.6896 127.86 41.702 127.869 41.7144C127.955 41.8361 128.062 41.9533 128.189 42.066C128.599 42.418 129.186 42.594 129.949 42.594C130.31 42.594 130.65 42.5439 130.967 42.4437C131.358 42.3204 131.715 42.1212 132.039 41.846C132.166 41.8422 132.291 41.8359 132.414 41.8271C132.471 41.823 132.529 41.8183 132.585 41.813C132.968 41.7775 133.324 41.7165 133.651 41.6301C133.718 41.6126 133.783 41.594 133.847 41.5743C134.081 41.5027 134.299 41.4173 134.503 41.318C134.855 41.1418 135.215 40.8875 135.584 40.5552C135.663 40.7497 135.756 40.9306 135.861 41.098C136.139 41.5232 136.518 41.8144 136.999 41.9716C137.281 42.0639 137.599 42.11 137.951 42.11C138.337 42.11 138.731 42.0271 139.135 41.8613C139.534 41.6973 139.941 41.4523 140.357 41.1262C140.53 40.9911 140.704 40.842 140.879 40.679C140.882 40.6907 140.884 40.7023 140.887 40.7138C140.928 40.9087 140.977 41.0807 141.033 41.23C141.268 41.8167 141.664 42.11 142.221 42.11C142.24 42.11 142.259 42.1098 142.277 42.1094C142.703 42.1 143.015 41.9829 143.211 41.758C143.418 41.524 143.598 41.0962 143.753 40.4746C143.763 40.4339 143.773 40.3924 143.783 40.35C143.902 39.8693 144.039 39.4013 144.195 38.946C144.271 38.7259 144.351 38.5087 144.435 38.2944C144.501 38.1272 144.57 37.9617 144.641 37.798C144.666 37.7428 144.691 37.6884 144.716 37.6347C144.726 37.6144 144.735 37.5942 144.745 37.5742C144.809 37.436 144.874 37.3029 144.938 37.1749C144.952 37.1466 144.966 37.1186 144.98 37.0908C144.983 37.0854 144.985 37.0801 144.988 37.0748C145.076 36.9009 145.164 36.7369 145.25 36.5827C145.306 36.4825 145.362 36.3865 145.418 36.2947C145.512 36.1384 145.605 35.9942 145.697 35.862C145.808 35.7054 145.91 35.5734 146.005 35.466C146.199 35.2458 146.36 35.1289 146.487 35.1153C146.495 35.1145 146.503 35.114 146.511 35.114C146.532 35.114 146.552 35.116 146.571 35.1201C146.692 35.1469 146.753 35.2622 146.753 35.466C146.753 35.6946 146.713 36.0439 146.633 36.5139C146.632 36.5164 146.632 36.5189 146.631 36.5213C146.6 36.7013 146.564 36.8988 146.521 37.114C146.504 37.1999 146.486 37.2885 146.467 37.38C146.384 37.8092 146.317 38.1851 146.268 38.5078C146.266 38.517 146.265 38.5262 146.264 38.5354C146.212 38.873 146.18 39.151 146.166 39.3696C146.162 39.4472 146.159 39.5174 146.159 39.58C146.159 40.4013 146.35 41.032 146.731 41.472C147.113 41.8973 147.677 42.11 148.425 42.11C149.193 42.11 149.889 41.938 150.515 41.594C150.643 41.5238 150.768 41.4465 150.889 41.362C150.967 41.309 151.045 41.2544 151.121 41.1982C151.36 41.0239 151.593 40.8344 151.82 40.6297C151.821 40.6287 151.822 40.6277 151.823 40.6268C151.915 40.5435 152.007 40.4577 152.097 40.3694C152.105 40.3796 152.112 40.3897 152.12 40.3998C152.241 40.5609 152.374 40.713 152.519 40.856C152.848 41.1787 153.227 41.4392 153.659 41.6373C154.344 41.9524 155.16 42.11 156.105 42.11C156.617 42.11 157.114 42.0528 157.596 41.9383C157.596 41.9383 157.596 41.9383 157.596 41.9383C157.655 41.9242 157.714 41.9092 157.773 41.8933C158.291 41.754 158.791 41.5476 159.273 41.274C159.422 41.191 159.566 41.1068 159.704 41.0214C159.785 40.9714 159.865 40.9209 159.943 40.8701C159.944 40.8696 159.946 40.8692 159.948 40.8687C160.153 40.8153 160.35 40.6938 160.54 40.504C160.579 40.4659 160.618 40.4277 160.657 40.3893C160.66 40.3864 160.663 40.3834 160.666 40.3805C160.732 40.3149 160.797 40.2488 160.862 40.1822C160.875 40.1706 160.888 40.159 160.902 40.1473C160.933 40.1195 160.964 40.0917 160.995 40.0637C160.996 40.0627 160.997 40.0618 160.998 40.0608C161.143 39.9288 161.277 39.7945 161.401 39.6579C161.465 39.5886 161.525 39.5186 161.583 39.448C161.636 39.3866 161.684 39.3203 161.727 39.2493C161.751 39.2106 161.773 39.1704 161.793 39.1289C161.831 39.082 161.868 39.0349 161.905 38.9876C161.934 38.9505 161.963 38.9133 161.992 38.876C162.061 38.7898 162.129 38.7003 162.198 38.6074C162.205 38.5976 162.212 38.5878 162.219 38.578C162.23 38.5633 162.241 38.5486 162.251 38.5337C162.355 38.3914 162.458 38.2415 162.561 38.084C162.678 37.9057 162.794 37.7177 162.911 37.52C162.929 37.4898 162.947 37.4595 162.965 37.4289C162.976 37.4086 162.988 37.3882 163 37.3677C163.119 37.1618 163.237 36.9459 163.356 36.72C163.372 36.7386 163.389 36.7574 163.405 36.7765C163.578 36.978 163.762 37.2102 163.955 37.4729C163.958 37.4766 163.961 37.4803 163.963 37.4841C163.981 37.5078 163.998 37.5318 164.016 37.556C164.165 37.7521 164.297 37.9541 164.411 38.162C164.434 38.2044 164.456 38.247 164.478 38.2898C164.517 38.3671 164.554 38.4451 164.588 38.524C164.596 38.5406 164.604 38.5573 164.611 38.574C164.758 38.8968 164.838 39.2394 164.852 39.602L164.258 39.536C164.175 39.5213 164.095 39.5091 164.018 39.4993C163.943 39.4897 163.87 39.4824 163.801 39.4775C163.73 39.4725 163.662 39.47 163.598 39.47C163.332 39.47 163.098 39.5035 162.895 39.5705C162.888 39.5728 162.881 39.5751 162.875 39.5774C162.865 39.5808 162.855 39.5843 162.845 39.5879C162.657 39.6573 162.497 39.7573 162.366 39.888C162.328 39.9259 162.293 39.9647 162.26 40.0045C162.256 40.01 162.251 40.0155 162.247 40.021C162.048 40.27 161.948 40.5556 161.948 40.878C161.948 41.1614 162.03 41.4266 162.195 41.6735C162.195 41.6747 162.196 41.6759 162.197 41.6771C162.287 41.8122 162.402 41.9419 162.542 42.066C162.953 42.418 163.539 42.594 164.302 42.594C164.664 42.594 165.003 42.5439 165.32 42.4437C165.711 42.3204 166.068 42.1212 166.392 41.846C166.52 41.8422 166.645 41.8359 166.767 41.8271C166.808 41.8242 166.849 41.821 166.889 41.8175C166.905 41.8161 166.922 41.8146 166.939 41.813C167.015 41.806 167.09 41.7979 167.164 41.7888C167.208 41.7834 167.252 41.7775 167.296 41.7714C167.545 41.7361 167.781 41.689 168.004 41.6301C168.313 41.5487 168.597 41.4446 168.856 41.318C168.935 41.2788 169.013 41.2356 169.093 41.1887C169.175 41.1401 169.257 41.0873 169.34 41.0304C169.41 40.9826 169.48 40.9317 169.55 40.878C169.685 40.7747 169.822 40.6605 169.959 40.5354C169.959 40.5353 169.959 40.5355 169.959 40.5354C170 40.4981 170.042 40.4594 170.083 40.4202C170.086 40.4172 170.089 40.4143 170.092 40.4114C170.127 40.3781 170.162 40.3441 170.197 40.3094C170.222 40.2851 170.246 40.2604 170.271 40.2353C170.318 40.1873 170.366 40.1381 170.413 40.0876C170.414 40.0866 170.415 40.0855 170.416 40.0844C170.598 39.8907 170.782 39.6785 170.968 39.448C171.02 39.3828 171.067 39.3141 171.109 39.2418C171.122 39.2187 171.135 39.1952 171.147 39.1714C171.198 39.1096 171.247 39.0475 171.296 38.985C171.324 38.9488 171.353 38.9125 171.381 38.876C171.449 38.7904 171.517 38.7016 171.585 38.6095C171.596 38.5941 171.607 38.5787 171.619 38.5632C171.626 38.5534 171.633 38.5436 171.64 38.5337C171.743 38.3914 171.846 38.2415 171.949 38.084C172.066 37.9057 172.183 37.7177 172.3 37.52C172.318 37.4898 172.335 37.4595 172.353 37.4289C172.365 37.4086 172.377 37.3882 172.389 37.3677C172.507 37.1618 172.626 36.9459 172.745 36.72C172.761 36.7386 172.777 36.7574 172.794 36.7765C172.965 36.9763 173.147 37.2061 173.339 37.466C173.343 37.472 173.348 37.478 173.352 37.4841C173.37 37.5078 173.387 37.5318 173.405 37.556C173.554 37.7521 173.686 37.9541 173.799 38.162C173.823 38.2044 173.845 38.247 173.867 38.2898C173.906 38.3671 173.942 38.4451 173.977 38.524C173.985 38.5406 173.992 38.5573 174 38.574C174.147 38.8968 174.227 39.2394 174.241 39.602L173.647 39.536C173.564 39.5213 173.484 39.5091 173.407 39.4993C173.328 39.4892 173.251 39.4817 173.179 39.4768C173.112 39.4723 173.048 39.47 172.987 39.47C172.721 39.47 172.486 39.5035 172.284 39.5705C172.277 39.5728 172.27 39.5751 172.263 39.5774C172.253 39.5808 172.244 39.5843 172.234 39.5879C172.045 39.6573 171.885 39.7573 171.755 39.888C171.72 39.9225 171.688 39.9578 171.658 39.9939C171.656 39.9959 171.654 39.998 171.653 40C171.442 40.2539 171.337 40.5466 171.337 40.878C171.337 41.1628 171.42 41.4292 171.586 41.6772C171.595 41.6914 171.605 41.7057 171.615 41.7198C171.701 41.8396 171.806 41.955 171.931 42.066C172.341 42.418 172.928 42.594 173.691 42.594C174.052 42.594 174.392 42.5439 174.709 42.4437C175.1 42.3204 175.457 42.1212 175.781 41.846C175.909 41.8422 176.034 41.8359 176.156 41.8271C176.214 41.823 176.271 41.8183 176.327 41.813C176.71 41.7775 177.066 41.7165 177.393 41.6301C177.702 41.5487 177.986 41.4446 178.245 41.318C178.68 41.1006 179.127 40.7644 179.586 40.3094C179.839 40.0584 180.096 39.7713 180.357 39.448C180.46 39.3178 180.544 39.1735 180.609 39.0151C180.682 38.8358 180.731 38.6385 180.756 38.4232C180.758 38.4042 180.76 38.385 180.762 38.3657C180.771 38.2749 180.775 38.181 180.775 38.084C180.775 37.776 180.716 37.534 180.599 37.358C180.496 37.182 180.349 37.094 180.159 37.094C179.939 37.094 179.741 37.1967 179.565 37.402C179.368 37.6459 179.177 37.8708 178.991 38.0767C178.989 38.0792 178.987 38.0816 178.985 38.084C178.939 38.1344 178.894 38.1837 178.849 38.2318C178.845 38.2361 178.841 38.2404 178.837 38.2446C178.832 38.2491 178.828 38.2535 178.824 38.258C178.614 38.4811 178.411 38.6792 178.214 38.8523C178.153 38.9067 178.092 38.9586 178.031 39.008C177.676 39.2988 177.344 39.5041 177.035 39.624C177.064 39.36 177.079 39.1547 177.079 39.008C177.079 38.4947 176.954 38.0253 176.705 37.6C176.693 37.5788 176.682 37.5575 176.67 37.5359C176.436 37.109 176.095 36.6024 175.649 36.016C175.326 35.62 175.084 35.29 174.923 35.026C174.776 34.762 174.703 34.52 174.703 34.3C174.703 33.9333 174.835 33.486 175.099 32.958C175.201 32.7673 175.282 32.5767 175.341 32.386C175.399 32.1953 175.429 32.056 175.429 31.968C175.429 31.8067 175.348 31.6893 175.187 31.616C175.025 31.5427 174.739 31.506 174.329 31.506C173.449 31.506 172.869 31.8287 172.591 32.474C172.386 32.9576 172.179 33.4323 171.968 33.8981C171.847 34.167 171.724 34.433 171.601 34.696C171.522 34.86 171.446 35.0164 171.372 35.1652C171.254 35.4036 171.142 35.6226 171.036 35.8222C170.943 35.9982 170.854 36.1592 170.77 36.305C170.753 36.334 170.737 36.3623 170.721 36.39C170.544 36.6676 170.331 36.9777 170.081 37.3204C170.08 37.3215 170.079 37.3225 170.079 37.3236C170.002 37.4291 169.921 37.5376 169.837 37.6493C169.831 37.6576 169.825 37.666 169.819 37.6743C169.743 37.7747 169.665 37.8776 169.583 37.9829C169.558 38.0164 169.532 38.0501 169.505 38.084C169.476 38.1215 169.447 38.1592 169.417 38.1973C169.416 38.1983 169.416 38.1994 169.415 38.2004C169.412 38.2041 169.409 38.2078 169.406 38.2115C169.308 38.3373 169.206 38.4664 169.1 38.5988C169.018 38.6779 168.937 38.753 168.858 38.824C168.858 38.824 168.858 38.8239 168.858 38.824C168.847 38.8335 168.836 38.8429 168.826 38.8523C168.767 38.9037 168.71 38.9529 168.653 38.9998C168.649 39.0025 168.646 39.0053 168.643 39.008C168.611 39.034 168.579 39.0592 168.548 39.0838C168.541 39.0896 168.533 39.0954 168.526 39.1011C168.518 39.1071 168.511 39.113 168.503 39.1189C168.503 39.1191 168.503 39.1187 168.503 39.1189C168.2 39.3513 167.914 39.5201 167.646 39.624C167.675 39.36 167.69 39.1547 167.69 39.008C167.69 38.8017 167.67 38.6026 167.63 38.4105C167.629 38.4062 167.628 38.4018 167.627 38.3974C167.568 38.1219 167.467 37.861 167.325 37.6148C167.322 37.6099 167.319 37.6049 167.316 37.6C167.305 37.5788 167.293 37.5575 167.281 37.5359C167.047 37.109 166.707 36.6024 166.26 36.016C165.937 35.62 165.695 35.29 165.534 35.026C165.387 34.762 165.314 34.52 165.314 34.3C165.314 33.9333 165.446 33.486 165.71 32.958C165.813 32.7673 165.893 32.5767 165.952 32.386C166.011 32.1953 166.04 32.056 166.04 31.968C166.04 31.8067 165.959 31.6893 165.798 31.616L166.626 29.7953C166.957 29.9458 167.337 30.2025 167.628 30.6259C167.927 31.0612 168.04 31.5385 168.04 31.968C168.04 32.3819 167.926 32.7721 167.864 32.9742C167.767 33.2878 167.64 33.588 167.488 33.8742C167.429 33.9935 167.389 34.0902 167.361 34.1657C167.464 34.3132 167.61 34.5071 167.811 34.7527L167.831 34.778L167.851 34.8039C168.141 35.185 168.405 35.5536 168.634 35.9072C168.779 35.702 168.906 35.5155 169.014 35.3471C169.22 34.9921 169.479 34.4949 169.794 33.8391C170.118 33.1469 170.437 32.4322 170.749 31.6947L170.752 31.6879L170.755 31.6811C171.057 30.9799 171.562 30.3898 172.261 30.0007C172.93 29.6282 173.656 29.506 174.329 29.506C174.745 29.506 175.422 29.5262 176.014 29.7953C176.346 29.9458 176.725 30.2025 177.016 30.6259C177.316 31.0612 177.429 31.5385 177.429 31.968C177.429 32.3819 177.314 32.7721 177.252 32.9742C177.156 33.2878 177.029 33.5878 176.877 33.874C176.818 33.9934 176.777 34.0902 176.75 34.1657C176.853 34.3132 176.999 34.5071 177.199 34.7527L177.22 34.778L177.24 34.8039C177.565 35.231 177.856 35.6425 178.104 36.0346C178.566 35.5249 179.262 35.094 180.159 35.094C181.095 35.094 181.857 35.5865 182.294 36.2968C182.683 36.9062 182.775 37.5658 182.775 38.084C182.775 38.9806 182.545 39.9057 181.925 40.6894L181.919 40.6965L181.914 40.7035C181.089 41.726 180.172 42.5903 179.139 43.1069L179.131 43.1109L179.123 43.1148C178.318 43.5084 177.423 43.7227 176.482 43.8072C175.647 44.3346 174.7 44.594 173.691 44.594C172.644 44.594 171.526 44.3536 170.629 43.5845L170.615 43.5728L170.602 43.5608C170.397 43.3783 170.207 43.175 170.039 42.9518C169.944 43.0065 169.848 43.0582 169.751 43.1069L169.743 43.1109L169.734 43.1148C168.929 43.5084 168.035 43.7227 167.093 43.8072C166.259 44.3346 165.311 44.594 164.302 44.594C163.256 44.594 162.138 44.3536 161.24 43.5845L161.227 43.5728L161.213 43.5608C160.973 43.3473 160.754 43.1054 160.568 42.8365C160.465 42.8976 160.36 42.9577 160.255 43.0168C158.973 43.7426 157.579 44.11 156.105 44.11C154.606 44.11 153.198 43.7844 152.021 43.0114C150.95 43.7516 149.729 44.11 148.425 44.11C147.295 44.11 146.111 43.7767 145.242 42.8071L145.231 42.7946L145.22 42.7819C145.166 42.7197 145.115 42.6564 145.066 42.5922C144.962 42.7641 144.846 42.9279 144.713 43.0784C143.981 43.9127 142.982 44.11 142.221 44.11C141.579 44.11 140.917 43.9355 140.334 43.5107C139.589 43.889 138.794 44.11 137.951 44.11C136.925 44.11 135.941 43.8391 135.14 43.2263C134.399 43.5495 133.588 43.731 132.74 43.8072C131.905 44.3346 130.957 44.594 129.949 44.594C128.902 44.594 127.784 44.3536 126.887 43.5845L126.873 43.5728L126.86 43.5608C126.668 43.3904 126.49 43.2017 126.331 42.9958C126.323 43.0008 126.316 43.0058 126.308 43.0108C125.238 43.7515 124.016 44.11 122.712 44.11C121.822 44.11 120.981 43.8518 120.3 43.3113C119.641 43.7938 118.851 44.11 117.938 44.11C116.546 44.11 115.427 43.4228 114.678 42.3629L114.662 42.3404L114.646 42.3174C114.539 42.1557 114.441 41.99 114.353 41.8207C114.161 42.0446 113.955 42.2582 113.733 42.4605C112.606 43.5035 111.242 44.11 109.696 44.11C107.617 44.11 105.832 43.2612 104.745 41.4417C103.803 39.8647 103.45 37.8088 103.45 35.51C103.45 33.455 103.705 31.2614 104.197 28.9366C104.699 26.555 105.443 24.4545 106.467 22.6765L106.47 22.6713C107.558 20.7936 109.177 19.32 111.434 19.32C112.803 19.32 113.936 19.9666 114.694 21.0432C115.409 22.0453 115.678 23.2352 115.678 24.444C115.678 25.9049 115.401 27.342 114.864 28.7449C114.59 29.4593 114.235 30.1717 113.805 30.8821C114.115 31.1243 114.403 31.4049 114.666 31.723C114.739 31.8105 114.809 31.8994 114.877 31.9897C115.116 31.4211 115.491 30.8422 116.085 30.4126C116.864 29.8506 117.8 29.748 118.51 29.748C118.875 29.748 119.735 29.7727 120.439 30.3554C120.572 30.4636 120.689 30.58 120.79 30.702C120.866 30.6257 120.947 30.5521 121.033 30.4818L121.056 30.4632L121.08 30.4453C121.822 29.8779 122.696 29.748 123.394 29.748C123.756 29.748 124.485 29.7697 125.134 30.1686C126.112 30.7495 126.296 31.7536 126.296 32.32C126.296 32.6982 126.22 33.1919 126.135 33.6599C126.431 33.0238 126.721 32.3687 127.007 31.6947L127.01 31.6879L127.012 31.6811C127.315 30.9799 127.82 30.3898 128.519 30.0007C129.188 29.6282 129.913 29.506 130.587 29.506C131.003 29.506 131.68 29.5262 132.272 29.7953L131.445 31.616C131.283 31.5427 130.997 31.506 130.587 31.506C129.707 31.506 129.127 31.8287 128.849 32.474C128.644 32.9575 128.436 33.4322 128.226 33.8981C128.104 34.167 127.982 34.433 127.859 34.696C127.78 34.8603 127.704 35.0169 127.63 35.166C127.512 35.4041 127.4 35.6228 127.294 35.8222C127.199 36.0006 127.109 36.1636 127.024 36.311C127.009 36.3379 126.994 36.3642 126.979 36.39C126.802 36.6681 126.588 36.9788 126.337 37.3223C126.337 37.3227 126.337 37.3231 126.337 37.3235C126.26 37.429 126.179 37.5376 126.095 37.6493C126.089 37.6576 126.083 37.666 126.076 37.6743C125.977 37.8066 125.872 37.9432 125.763 38.084C125.747 38.1046 125.731 38.1253 125.715 38.1461C125.702 38.1621 125.69 38.1782 125.677 38.1944C125.675 38.1974 125.673 38.2005 125.67 38.2035C125.66 38.2167 125.649 38.23 125.639 38.2432C125.636 38.2477 125.632 38.2522 125.628 38.2567C125.513 38.4036 125.393 38.555 125.268 38.7108C125.224 38.7564 125.181 38.8003 125.138 38.8425C125.138 38.8425 125.138 38.8425 125.138 38.8425C125.101 38.8804 125.064 38.9168 125.027 38.9519C124.964 39.0135 124.903 39.0708 124.845 39.1239C124.838 39.13 124.831 39.1361 124.825 39.1421C124.819 39.1472 124.813 39.1524 124.808 39.1574C124.807 39.1575 124.808 39.1573 124.808 39.1574C124.806 39.1588 124.804 39.1606 124.802 39.162C124.626 39.3189 124.46 39.4409 124.303 39.5278C124.109 39.6359 123.931 39.69 123.768 39.69C123.578 39.69 123.424 39.6167 123.306 39.47C123.189 39.3087 123.13 39.0887 123.13 38.81C123.13 38.6561 123.156 38.4142 123.206 38.0844C123.299 37.4714 123.479 36.5546 123.746 35.334C124.113 33.6913 124.296 32.6867 124.296 32.32C124.296 32.1 124.23 31.9533 124.098 31.88C123.966 31.792 123.732 31.748 123.394 31.748C122.91 31.748 122.544 31.8433 122.294 32.034C122.06 32.2247 121.884 32.54 121.766 32.98C121.414 34.2853 121.048 35.3853 120.666 36.28C120.617 36.4012 120.567 36.5182 120.518 36.631C120.361 36.9912 120.207 37.3089 120.056 37.5841C120.003 37.6804 119.95 37.7715 119.898 37.8574C119.865 37.9113 119.833 37.963 119.8 38.0128C119.779 38.0447 119.759 38.0758 119.738 38.106C119.695 38.1682 119.653 38.2269 119.61 38.282C119.52 38.4052 119.434 38.5112 119.351 38.5999C119.331 38.6223 119.31 38.6436 119.29 38.6638C119.104 38.8493 118.939 38.942 118.796 38.942C118.729 38.942 118.668 38.9316 118.616 38.9109C118.591 38.901 118.568 38.8887 118.547 38.8741C118.506 38.8465 118.472 38.8105 118.444 38.766ZM108.927 32.1971C108.744 32.5444 108.553 32.9007 108.354 33.266C108.377 32.9913 108.401 32.7198 108.427 32.4518C108.466 32.0529 108.509 31.6613 108.556 31.2772C108.681 30.2522 108.834 29.2798 109.014 28.36C109.044 28.2096 109.073 28.0624 109.103 27.9183C109.104 27.9154 109.104 27.9124 109.105 27.9095C109.342 26.7703 109.593 25.8309 109.858 25.0912C109.867 25.0993 109.876 25.1073 109.886 25.1154C110.17 25.3572 110.544 25.498 110.928 25.498C111.129 25.498 111.305 25.4635 111.452 25.4149L109.96 24.818L111.473 25.4078C111.492 25.4014 111.51 25.3947 111.528 25.3878C111.527 25.4012 111.526 25.4146 111.525 25.428C111.524 25.4332 111.524 25.4383 111.524 25.4434C111.48 25.9808 111.367 26.5547 111.184 27.1652C111.169 27.2161 111.153 27.2672 111.137 27.3185C111.009 27.7232 110.852 28.1438 110.664 28.58C110.651 28.6117 110.637 28.6436 110.623 28.6756C110.334 29.352 109.996 30.081 109.608 30.8627C109.396 31.2917 109.169 31.7365 108.927 32.1971ZM110.906 23.4988C110.703 23.5138 110.485 23.7389 110.253 24.1742C110.502 23.8289 110.721 23.6221 110.906 23.4988ZM108.376 35.7587C108.259 36.1797 108.2 36.6615 108.2 37.204C108.2 38.04 108.354 38.678 108.662 39.118C108.985 39.558 109.359 39.778 109.784 39.778C110.239 39.778 110.642 39.5873 110.994 39.206C111.346 38.8247 111.581 38.2747 111.698 37.556M110.463 35.8913C110.466 35.9005 110.469 35.9097 110.472 35.9189C110.519 36.0636 110.576 36.2059 110.642 36.346M110.463 35.8913C110.43 35.7874 110.402 35.6823 110.378 35.576C110.349 35.444 110.327 35.3102 110.312 35.1745C110.297 35.0388 110.29 34.9013 110.29 34.762C110.29 34.6593 110.297 34.5383 110.312 34.399C110.327 34.2597 110.349 34.102 110.378 33.926H110.312C110.298 33.926 110.285 33.9262 110.271 33.9265C110.087 33.9307 109.912 33.9636 109.746 34.0251C109.703 34.0407 109.662 34.0581 109.621 34.0774C109.332 34.2136 109.071 34.4418 108.84 34.762C108.825 34.7836 108.809 34.8056 108.794 34.828C108.613 35.0955 108.474 35.4058 108.376 35.7587C108.462 36.2537 108.615 36.7349 108.832 37.1976L108.843 37.2191L108.853 37.2404C109.066 37.6661 109.33 38.0541 109.641 38.3998M110.378 35.9098V35.9185C110.381 35.9178 110.384 35.9171 110.388 35.9164L110.378 35.9098ZM110.401 35.9129L110.378 35.8972ZM131.907 36.016C132.353 36.6024 132.694 37.109 132.928 37.5359C132.94 37.5575 132.951 37.5788 132.963 37.6C133.076 37.7933 133.163 37.9958 133.225 38.2073C133.245 38.2752 133.262 38.3442 133.277 38.414C133.317 38.605 133.337 38.803 133.337 39.008C133.337 39.15 133.323 39.3471 133.295 39.5991C133.294 39.6073 133.293 39.6156 133.293 39.624C133.294 39.6233 133.296 39.6225 133.298 39.6218C133.606 39.5016 133.936 39.297 134.289 39.008C134.349 38.9586 134.411 38.9067 134.472 38.8523C134.622 38.7207 134.775 38.5746 134.932 38.414C134.982 38.3634 135.032 38.3114 135.082 38.258C135.086 38.2535 135.09 38.2491 135.094 38.2446C135.098 38.2404 135.102 38.2361 135.106 38.2318C135.147 38.1884 135.188 38.1442 135.229 38.0989C135.229 38.094 135.229 38.089 135.229 38.084C135.23 38.0552 135.232 38.0261 135.233 37.9967C135.246 37.6935 135.273 37.3588 135.314 36.9929C135.315 36.9848 135.316 36.9767 135.317 36.9686C135.355 36.6332 135.404 36.2717 135.465 35.884C135.503 35.6613 135.543 35.4418 135.584 35.2258C135.737 34.4319 135.918 33.6833 136.125 32.98C136.246 32.5507 136.404 32.2441 136.598 32.0603C136.616 32.0431 136.634 32.027 136.653 32.012C136.873 31.836 137.225 31.748 137.709 31.748C137.865 31.748 138.004 31.7588 138.127 31.7803C138.491 31.844 138.714 32.0015 138.796 32.2529C138.819 32.326 138.831 32.407 138.831 32.496C138.831 32.8627 138.692 33.7133 138.413 35.048C138.349 35.3438 138.29 35.6222 138.237 35.883C138.192 36.1083 138.151 36.3205 138.114 36.5197C138.107 36.5593 138.1 36.5984 138.093 36.637C137.982 37.2496 137.916 37.732 137.894 38.084C137.888 38.173 137.885 38.2537 137.885 38.326C137.885 38.766 137.944 39.1033 138.061 39.338C138.179 39.5727 138.377 39.69 138.655 39.69C138.683 39.69 138.712 39.6879 138.742 39.6838C138.746 39.6832 138.75 39.6826 138.754 39.682C138.885 39.6612 139.031 39.5999 139.192 39.498C139.332 39.4094 139.483 39.2901 139.645 39.14C139.847 38.9532 140.083 38.7112 140.353 38.414C140.398 38.3648 140.444 38.3142 140.49 38.262C140.502 38.2492 140.513 38.2364 140.525 38.2234C140.536 38.2107 140.547 38.1978 140.559 38.1849C140.588 38.1519 140.618 38.1182 140.648 38.084C140.667 38.0615 140.687 38.0387 140.707 38.0157C140.714 37.676 140.73 37.3394 140.754 37.0059C140.754 37.0023 140.754 36.9988 140.755 36.9952C140.798 36.3979 140.87 35.8104 140.97 35.2327C141.103 34.4644 141.285 33.7135 141.517 32.98C141.649 32.5547 141.862 32.2467 142.155 32.056C142.463 31.8507 142.889 31.748 143.431 31.748C143.725 31.748 143.93 31.7847 144.047 31.858C144.057 31.8639 144.066 31.8702 144.074 31.877C144.174 31.9542 144.223 32.0872 144.223 32.276C144.223 32.4478 144.164 32.7766 144.047 33.2626C144.003 33.4406 143.952 33.6398 143.893 33.86C143.747 34.4467 143.629 34.96 143.541 35.4C143.528 35.4683 143.514 35.539 143.501 35.6122C143.495 35.6489 143.489 35.6862 143.482 35.7241C143.437 35.9935 143.397 36.2941 143.361 36.6261C143.358 36.6583 143.354 36.6908 143.351 36.7236C143.341 36.8224 143.331 36.9239 143.321 37.028C143.37 36.9012 143.419 36.7767 143.469 36.6546C143.488 36.608 143.507 36.5618 143.526 36.5159C143.6 36.3404 143.674 36.1699 143.75 36.0045C143.832 35.8277 143.914 35.6567 143.998 35.4914C144.103 35.2857 144.21 35.089 144.319 34.9012C144.32 34.8983 144.322 34.8954 144.324 34.8925C144.487 34.6119 144.656 34.3512 144.829 34.1106C144.832 34.1059 144.836 34.1012 144.839 34.0965C144.876 34.0461 144.912 33.9966 144.949 33.948C145.096 33.7554 145.241 33.5761 145.386 33.4104C145.662 33.0935 145.935 32.8258 146.205 32.6072C146.374 32.4701 146.542 32.3524 146.709 32.254C147.296 31.9167 147.831 31.748 148.315 31.748C149.269 31.748 149.745 32.2247 149.745 33.178C149.745 33.75 149.584 34.784 149.261 36.28C148.983 37.556 148.843 38.3993 148.843 38.81C148.843 39.3967 149.056 39.69 149.481 39.69C149.507 39.69 149.533 39.6887 149.559 39.686C149.7 39.6716 149.853 39.6189 150.016 39.5278C150.172 39.4409 150.339 39.3189 150.515 39.162C150.74 38.9612 151.005 38.6945 151.309 38.3618C151.305 38.3379 151.302 38.3138 151.299 38.2896C151.262 38.0144 151.243 37.7259 151.243 37.424C151.243 37.1723 151.257 36.925 151.283 36.6824C151.283 36.6769 151.284 36.6715 151.285 36.666C151.335 36.2154 151.43 35.7805 151.571 35.3613C151.657 35.1043 151.761 34.8532 151.881 34.608C152.307 33.728 152.893 33.0313 153.641 32.518C154.404 32.0047 155.262 31.748 156.215 31.748C157.066 31.748 157.748 32.0047 158.261 32.518C158.775 33.0167 159.031 33.6987 159.031 34.564C159.031 35.576 158.665 36.4487 157.931 37.182C157.814 37.2998 157.682 37.4137 157.537 37.5236C157.53 37.5293 157.522 37.535 157.514 37.5407C157.413 37.6166 157.305 37.6906 157.19 37.7627C156.941 37.9201 156.66 38.0684 156.347 38.2078C156.038 38.3457 155.699 38.4748 155.329 38.5951C155.011 38.6983 154.672 38.795 154.309 38.8851C154.292 38.8894 154.275 38.8937 154.257 38.898C154.286 38.9501 154.316 39.0002 154.348 39.0483C154.365 39.0728 154.382 39.0968 154.399 39.1203C154.576 39.3577 154.805 39.5416 155.086 39.6719C155.429 39.8306 155.849 39.91 156.347 39.91C156.53 39.91 156.72 39.8926 156.916 39.8577C157.429 39.7666 157.987 39.5567 158.591 39.228C158.596 39.2252 158.602 39.2223 158.607 39.2195C158.731 39.1507 158.852 39.0789 158.972 39.0041C158.972 39.0037 158.973 39.0033 158.973 39.0029C159.107 38.9189 159.238 38.8312 159.365 38.7398C159.365 38.7399 159.365 38.7397 159.365 38.7398C159.496 38.6452 159.625 38.5464 159.75 38.4439C159.828 38.3797 159.905 38.3138 159.98 38.2465C159.985 38.2428 159.989 38.2392 159.993 38.2355C159.999 38.2296 160.006 38.2236 160.013 38.2177C160.015 38.2149 160.017 38.2122 160.019 38.2095C160.022 38.2052 160.026 38.201 160.029 38.1968C160.033 38.1913 160.037 38.1859 160.042 38.1804C160.052 38.1677 160.062 38.1549 160.071 38.1423C160.087 38.1228 160.102 38.1033 160.117 38.084C160.226 37.9432 160.33 37.8066 160.43 37.6743C160.436 37.666 160.442 37.6576 160.449 37.6493C160.533 37.5365 160.615 37.4269 160.692 37.3204C160.693 37.3197 160.693 37.319 160.694 37.3184C160.943 36.9765 161.156 36.667 161.332 36.39C161.35 36.3601 161.367 36.3295 161.385 36.2982C161.468 36.1541 161.555 35.9955 161.647 35.8222C161.753 35.6224 161.866 35.4031 161.984 35.1644C162.058 35.0158 162.134 34.8597 162.212 34.696C162.336 34.433 162.458 34.167 162.58 33.8981C162.79 33.4322 162.998 32.9576 163.202 32.474C163.481 31.8287 164.06 31.506 164.94 31.506C165.351 31.506 165.637 31.5427 165.798 31.616L166.626 29.7953C166.034 29.5262 165.356 29.506 164.94 29.506C164.267 29.506 163.541 29.6282 162.872 30.0007C162.174 30.3898 161.669 30.9799 161.366 31.6811L161.363 31.6879L161.36 31.6947C161.177 32.1281 160.991 32.5537 160.803 32.9714C160.592 32.2815 160.224 31.6399 159.665 31.0936C158.714 30.1483 157.494 29.748 156.215 29.748C154.88 29.748 153.63 30.1148 152.525 30.8588L152.517 30.8639L152.51 30.869C152.136 31.1251 151.794 31.4123 151.483 31.7281C151.337 31.364 151.119 31.0086 150.802 30.6913C150.056 29.9456 149.1 29.748 148.315 29.748C147.369 29.748 146.488 30.0745 145.712 30.5202L145.703 30.5257L145.693 30.5313C145.665 30.5478 145.637 30.5646 145.61 30.5816C145.473 30.4298 145.308 30.2873 145.107 30.162C144.474 29.7664 143.765 29.748 143.431 29.748C142.947 29.748 142.421 29.8043 141.907 29.9746C142.119 29.4724 142.217 28.9316 142.217 28.382C142.217 27.3737 141.833 26.3807 140.944 25.685C140.17 25.0793 139.26 24.864 138.391 24.864C137.372 24.864 136.39 25.1743 135.576 25.8695C134.741 26.581 134.279 27.5597 134.279 28.668C134.279 29.4295 134.475 30.213 134.968 30.8807C134.556 31.3797 134.336 31.9598 134.204 32.4254C133.969 33.2213 133.769 34.0609 133.602 34.9424C133.568 34.8965 133.533 34.8503 133.497 34.8039L133.478 34.778L133.457 34.7527C133.257 34.5071 133.111 34.3132 133.008 34.1657C133.035 34.0902 133.076 33.9935 133.135 33.8741C133.286 33.5879 133.414 33.2878 133.51 32.9742C133.572 32.7721 133.687 32.3819 133.687 31.968C133.687 31.5385 133.573 31.0612 133.274 30.6259C132.983 30.2025 132.603 29.9458 132.272 29.7953L131.445 31.616C131.606 31.6893 131.687 31.8067 131.687 31.968C131.687 32.056 131.657 32.1953 131.599 32.386C131.54 32.5767 131.459 32.7673 131.357 32.958C131.093 33.486 130.961 33.9333 130.961 34.3C130.961 34.52 131.034 34.762 131.181 35.026C131.342 35.29 131.584 35.62 131.907 36.016ZM136.71 29.8474C136.72 29.8577 136.731 29.8679 136.741 29.878C136.975 30.0896 137.298 30.2209 137.709 30.2718C137.84 30.2879 137.979 30.296 138.127 30.296C138.566 30.296 138.945 30.2142 139.263 30.0507C139.402 29.9793 139.529 29.8925 139.645 29.79C140.027 29.438 140.217 28.9687 140.217 28.382C140.217 27.898 140.049 27.524 139.711 27.26C139.374 26.996 138.934 26.864 138.391 26.864C137.79 26.864 137.284 27.04 136.873 27.392C136.477 27.7293 136.279 28.1547 136.279 28.668C136.279 29.1637 136.423 29.5568 136.71 29.8474ZM155.117 36.7735C154.81 36.9164 154.465 37.0379 154.082 37.138C154.024 37.1532 153.965 37.1678 153.905 37.182V37.138C153.905 37.0683 153.906 36.9994 153.909 36.9314C153.909 36.9288 153.909 36.9261 153.909 36.9235C153.91 36.9052 153.91 36.887 153.911 36.8688C153.932 36.3802 154.011 35.9334 154.149 35.5285C154.227 35.2968 154.325 35.0788 154.441 34.8744C154.446 34.8663 154.451 34.8581 154.455 34.85C154.837 34.2193 155.299 33.904 155.841 33.904C156.105 33.904 156.311 33.992 156.457 34.168C156.619 34.3293 156.699 34.5493 156.699 34.828C156.699 35.2666 156.536 35.6621 156.211 36.0145C156.158 36.0719 156.1 36.1282 156.038 36.1834C156.01 36.2085 155.981 36.2334 155.951 36.258C155.715 36.453 155.437 36.6248 155.117 36.7735Z" fill="white"/>
</g>
<defs>
<clipPath id="clip0_16018_95475">
<rect width="182" height="45" fill="white"/>
</clipPath>
</defs>
</svg>
