<svg width="179" height="45" viewBox="0 0 179 45" fill="none" xmlns="http://www.w3.org/2000/svg">
<path d="M108.601 17.1616C108.601 23.1108 111.293 26.3674 116.089 26.3674C120.938 26.3674 123.837 21.7486 123.837 21.7486L124.731 24.8072C124.937 25.5011 125.586 25.9864 126.312 25.9864H132.355C132.789 25.9864 133.142 25.6352 133.142 25.1989C133.142 24.9988 133.142 24.7859 133.142 24.5859C133.142 24.1516 132.789 23.7983 132.355 23.7983H132.346C130.95 23.7983 129.818 22.6659 129.818 21.2696L129.82 1.84913C129.82 1.33616 129.337 0.959414 128.839 1.08712L120.791 3.13262C120.442 3.22202 120.199 3.53491 120.197 3.89463V4.68643C120.197 5.12065 120.548 5.47398 120.984 5.47398C122.381 5.47398 123.511 6.60848 123.507 8.00265L123.473 19.7392C123.473 19.7392 121.502 21.9614 118.615 21.9614C116.202 21.9614 114.91 19.95 114.91 17.4532L114.899 1.8321C114.899 1.31913 114.414 0.942386 113.918 1.0701L105.864 3.13262C105.514 3.22202 105.272 3.53491 105.272 3.89463V4.68643C105.272 5.12065 105.623 5.47398 106.059 5.47398H106.066C107.458 5.47398 108.586 6.60209 108.588 7.99414L108.601 17.1616Z" fill="#00A885"/>
<path fill-rule="evenodd" clip-rule="evenodd" d="M143.238 5.59335C143.238 5.59335 146.167 1.03409 150.758 1.03409C156.416 1.03409 160.366 6.04673 160.366 13.2283C160.366 20.9676 155.964 26.3719 149.664 26.3719C145.726 26.3719 143.238 22.7576 143.238 22.7576V28.279C143.236 29.6774 144.37 30.8098 145.767 30.8077C146.203 30.8077 146.556 31.1589 146.556 31.5952V32.2104C146.558 32.6467 146.205 33 145.769 33H134.383C133.949 33 133.596 32.6467 133.596 32.2104V31.5931C133.596 31.1567 133.949 30.8055 134.383 30.8055H134.39C135.786 30.8055 136.918 29.6732 136.918 28.2769V8.00495C136.918 6.61291 135.795 5.4848 134.403 5.47842H134.379C133.945 5.47842 133.594 5.12508 133.594 4.69087V3.89693C133.594 3.53722 133.836 3.2222 134.185 3.1328L142.252 1.05325C142.753 0.925536 143.238 1.30228 143.238 1.81738V5.59335ZM143.24 18.5964C143.24 18.5964 144.76 22.1957 148.225 22.1957C152.265 22.1957 154.061 17.7408 154.061 13.4518C154.061 9.21395 152.75 5.22938 148.481 5.22938C145.324 5.22938 143.238 7.9709 143.238 7.9709L143.236 18.5709L143.24 18.5964Z" fill="#00A885"/>
<path d="M104.75 24.0432C104.593 23.8857 104.382 23.7985 104.159 23.7985H104.101C102.762 23.7985 101.672 22.7087 101.672 21.3698V14.4373C101.675 13.2581 101.677 11.3446 101.677 10.044C101.677 3.29453 98.4797 1 95.0337 1C90.1126 1 86.8283 5.22935 86.8283 5.22935L86.807 5.2485V1.81735C86.807 1.30225 86.3217 0.925502 85.8215 1.05321L77.7544 3.13277C77.4054 3.22216 77.1627 3.53718 77.1627 3.8969V4.69083C77.1627 5.12505 77.5139 5.47838 77.9481 5.47838H77.9694C79.3615 5.48477 80.4874 6.61288 80.4874 8.00492V21.2698C80.4874 22.6661 79.3551 23.7985 77.9588 23.7985H77.9524C77.5182 23.7985 77.1648 24.1497 77.1648 24.586C77.1648 24.7861 77.1648 25.0011 77.1648 25.2033C77.1648 25.6396 77.5182 25.993 77.9524 25.993H89.3378C89.7741 25.993 90.1275 25.6396 90.1253 25.2033V24.5881C90.1253 24.1518 89.772 23.8006 89.3356 23.8006C87.9393 23.8027 86.8048 22.6703 86.807 21.2719V7.65372L86.8283 7.63243C86.8283 7.63243 88.9057 5.47625 91.494 5.47625C93.9098 5.47625 95.3529 7.16416 95.3529 9.99082V23.8368L95.3615 23.9389C95.4594 25.0883 96.4385 25.9866 97.5921 25.9866H104.156C104.616 25.9866 104.993 25.6119 104.993 25.1522V24.635C104.995 24.4115 104.908 24.2007 104.75 24.0432Z" fill="#0C8E77"/>
<path fill-rule="evenodd" clip-rule="evenodd" d="M33.6879 5.59335C33.6879 5.59335 36.6167 1.03409 41.2079 1.03409C46.8655 1.03409 50.816 6.04673 50.8139 13.2283C50.8139 20.9676 46.4121 26.3719 40.1118 26.3719C36.174 26.3719 33.6858 22.7576 33.6858 22.7576V28.279C33.6837 29.6774 34.8182 30.8098 36.2145 30.8077C36.6508 30.8077 37.0041 31.1589 37.0041 31.5952V32.2104C37.0063 32.6467 36.6529 33 36.2166 33H24.8312C24.397 33 24.0436 32.6467 24.0436 32.2104V31.5931C24.0436 31.1567 24.397 30.8055 24.8312 30.8055H24.8376C26.2339 30.8055 27.3662 29.6732 27.3662 28.2769V8.00495C27.3662 6.61291 26.2424 5.4848 24.8503 5.47842H24.8291C24.3948 5.47842 24.0436 5.12508 24.0436 4.69087V3.89693C24.0436 3.53722 24.2863 3.2222 24.6354 3.1328L32.7024 1.05325C33.2026 0.925536 33.6879 1.30228 33.6879 1.81738V5.59335ZM33.6922 18.5964C33.6922 18.5964 35.2119 22.1957 38.6771 22.1957C42.717 22.1957 44.5135 17.7408 44.5135 13.4518C44.5135 9.21395 43.2023 5.22938 38.9326 5.22938C35.776 5.22938 33.69 7.9709 33.69 7.9709L33.6879 18.5709L33.6922 18.5964Z" fill="#0C8E77"/>
<path fill-rule="evenodd" clip-rule="evenodd" d="M0 13.6984C0 6.69982 5.21272 1.02734 11.6451 1.02734C18.0774 1.02734 23.2923 6.69982 23.2901 13.6984C23.2901 20.6969 18.0753 26.3694 11.6451 26.3694C5.21485 26.3694 0 20.6969 0 13.6984ZM6.3685 13.8221C6.3685 19.0348 8.73114 23.2599 11.6451 23.2599C14.559 23.2599 16.9216 19.0348 16.9216 13.8221C16.9216 8.60939 14.559 4.3843 11.6451 4.3843C8.73114 4.3843 6.3685 8.60939 6.3685 13.8221Z" fill="#0C8E77"/>
<path fill-rule="evenodd" clip-rule="evenodd" d="M74.932 18.1345L75.4961 18.5581C75.826 18.805 75.9218 19.2434 75.7217 19.6032C74.6085 21.6423 71.3561 26.3888 65.2048 26.3888H65.2005C58.1402 26.3867 53.9173 20.0799 53.9173 13.986C53.9173 5.08673 59.6919 1.04895 64.9791 1.04895H64.9855C72.3289 1.04895 74.5361 9.70772 74.7447 10.9912C74.8128 11.4084 74.5404 11.8064 74.1253 11.9001L59.6366 15.1503L59.6685 15.2482C59.6728 15.2631 60.1389 16.6977 61.3415 18.1089C62.4547 19.4137 64.4385 20.9697 67.5802 20.9718H67.5844C70.6495 20.9718 72.812 19.2434 73.8295 18.2132C74.1232 17.9174 74.5957 17.8833 74.932 18.1345ZM59.2109 10.1356C59.164 11.5425 59.3322 11.8235 59.3662 11.866L59.4067 11.9107L68.1293 10.0994V10.0291C68.1293 9.26499 68.0059 8.40295 67.7888 7.66436C67.4929 6.66183 67.0395 5.87215 66.4393 5.31448C65.7752 4.69721 64.9451 4.38432 63.9723 4.38432H63.9702C60.8158 4.38432 59.2875 7.74737 59.2109 10.1356Z" fill="#0C8E77"/>
<path d="M131.821 29.7953C132.152 29.9459 132.532 30.2026 132.823 30.626C133.122 31.0613 133.236 31.5386 133.236 31.9681C133.236 32.382 133.121 32.7721 133.059 32.9742C132.963 33.2879 132.835 33.588 132.684 33.8741C132.625 33.9935 132.584 34.0903 132.557 34.1658C132.66 34.3132 132.806 34.5072 133.006 34.7527L133.027 34.778L133.046 34.804C133.082 34.8503 133.117 34.8965 133.151 34.9425C133.318 34.0609 133.518 33.2214 133.753 32.4254C133.885 31.9598 134.106 31.3797 134.517 30.8808C134.024 30.2131 133.828 29.4296 133.828 28.6681C133.828 27.5598 134.29 26.581 135.125 25.8696C135.939 25.1744 136.921 24.8641 137.94 24.8641C138.809 24.8641 139.719 25.0793 140.493 25.6851C141.382 26.3808 141.766 27.3738 141.766 28.3821C141.766 28.9317 141.668 29.4725 141.456 29.9746C141.97 29.8044 142.496 29.7481 142.98 29.7481C143.314 29.7481 144.023 29.7665 144.656 30.1621C144.857 30.2874 145.022 30.4298 145.159 30.5817C145.187 30.5646 145.214 30.5478 145.242 30.5313L145.252 30.5257L145.261 30.5203C146.037 30.0745 146.918 29.7481 147.864 29.7481C148.649 29.7481 149.605 29.9457 150.351 30.6914C150.668 31.0087 150.886 31.3641 151.032 31.7282C151.344 31.4124 151.686 31.1251 152.059 30.869L152.066 30.8639L152.074 30.8589C153.179 30.1149 154.429 29.7481 155.764 29.7481C157.043 29.7481 158.263 30.1484 159.214 31.0937C159.773 31.64 160.141 32.2816 160.352 32.9715C160.54 32.5537 160.726 32.1282 160.909 31.6948L160.912 31.688L160.915 31.6812C161.218 30.98 161.723 30.3899 162.421 30.0008C163.09 29.6283 163.816 29.5061 164.489 29.5061C164.905 29.5061 165.583 29.5263 166.175 29.7953C166.506 29.9459 166.886 30.2026 167.177 30.626C167.476 31.0613 167.589 31.5386 167.589 31.9681C167.589 32.382 167.475 32.7721 167.413 32.9742C167.316 33.2879 167.189 33.588 167.037 33.8742C166.978 33.9936 166.938 34.0903 166.91 34.1658C167.013 34.3132 167.16 34.5072 167.36 34.7527L167.38 34.778L167.4 34.804C167.69 35.185 167.954 35.5537 168.183 35.9072C168.335 35.6934 168.465 35.4998 168.576 35.3259C168.781 34.9948 169.003 34.5738 169.238 34.0513L169.246 34.0326L169.255 34.014C169.645 33.0837 170.702 30.9787 171.81 30.0008C172.479 29.6283 173.205 29.5061 173.878 29.5061C174.294 29.5061 174.971 29.5263 175.563 29.7953C175.895 29.9459 176.274 30.2026 176.565 30.626C176.865 31.0612 176.978 31.5386 176.978 31.9681C176.978 32.382 176.864 32.7722 176.801 32.9742C176.705 33.2878 176.578 33.5879 176.426 33.874C176.367 33.9935 176.326 34.0903 176.299 34.1658C176.402 34.3132 176.548 34.5072 176.748 34.7527L176.769 34.778L176.789 34.804C177.282 35.4515 177.697 36.0632 178.001 36.6258C178.423 37.3609 178.628 38.1686 178.628 39.0081C178.628 39.9526 178.4 40.855 177.963 41.6903C177.525 42.5384 176.895 43.2357 176.098 43.7595C175.234 44.3273 174.26 44.5941 173.24 44.5941C172.193 44.5941 171.075 44.3536 170.178 43.5846L170.165 43.5729L170.151 43.5609C169.946 43.3784 169.756 43.175 169.588 42.9519C169.493 43.0065 169.397 43.0583 169.3 43.1069L169.292 43.1109L169.284 43.1148C168.478 43.5085 167.584 43.7228 166.643 43.8073C165.808 44.3347 164.86 44.5941 163.851 44.5941C162.805 44.5941 161.687 44.3536 160.79 43.5846L160.776 43.5729L160.762 43.5609C160.522 43.3474 160.303 43.1054 160.117 42.8365C160.014 42.8977 159.909 42.9579 159.803 43.017C158.521 43.7428 157.128 44.1101 155.654 44.1101C154.155 44.1101 152.747 43.7845 151.57 43.0114C150.499 43.7517 149.278 44.1101 147.974 44.1101C146.844 44.1101 145.661 43.7768 144.791 42.8072L144.78 42.7946L144.769 42.7819C144.715 42.7197 144.664 42.6565 144.615 42.5922C144.512 42.7641 144.395 42.928 144.263 43.0784C143.53 43.9127 142.531 44.1101 141.77 44.1101C141.128 44.1101 140.466 43.9356 139.883 43.5107C139.138 43.889 138.343 44.1101 137.5 44.1101C136.474 44.1101 135.49 43.8392 134.689 43.2263C133.948 43.5496 133.137 43.7311 132.289 43.8073C131.454 44.3347 130.506 44.5941 129.498 44.5941C128.451 44.5941 127.333 44.3536 126.436 43.5846L126.422 43.5729L126.409 43.5609C126.217 43.3904 126.039 43.2018 125.88 42.9958L125.858 43.0107C124.787 43.7515 123.566 44.1101 122.262 44.1101C121.371 44.1101 120.53 43.8519 119.849 43.3113C119.191 43.7939 118.4 44.1101 117.488 44.1101C116.096 44.1101 114.976 43.4229 114.227 42.363L114.211 42.3405L114.195 42.3175C114.088 42.1558 113.99 41.99 113.902 41.8207C113.71 42.0447 113.504 42.2583 113.282 42.4607C112.155 43.5036 110.791 44.1101 109.245 44.1101C107.166 44.1101 105.381 43.2613 104.294 41.4418C103.352 39.8648 102.999 37.8089 102.999 35.5101C102.999 33.4551 103.254 31.2615 103.746 28.9367C104.248 26.555 104.992 24.4546 106.016 22.6765L106.019 22.6714C107.107 20.7936 108.726 19.3201 110.983 19.3201C112.352 19.3201 113.485 19.9667 114.243 21.0433C114.958 22.0454 115.227 23.2353 115.227 24.4441C115.227 25.9049 114.95 27.342 114.413 28.7449C114.14 29.4593 113.784 30.1717 113.354 30.8821C113.664 31.1244 113.952 31.4049 114.215 31.7231C114.288 31.8106 114.359 31.8995 114.426 31.9898C114.666 31.4212 115.04 30.8422 115.635 30.4127C116.413 29.8507 117.349 29.7481 118.06 29.7481C118.424 29.7481 119.284 29.7728 119.988 30.3555C120.121 30.4637 120.238 30.5801 120.339 30.7021C120.415 30.6258 120.496 30.5522 120.582 30.4818L120.605 30.4633L120.629 30.4454C121.371 29.8779 122.245 29.7481 122.944 29.7481C123.305 29.7481 124.034 29.7698 124.683 30.1686C125.661 30.7495 125.846 31.7537 125.846 32.3201C125.846 32.6982 125.769 33.1919 125.684 33.66C125.98 33.0238 126.271 32.3688 126.556 31.6948L126.559 31.688L126.561 31.6812C126.864 30.98 127.369 30.3899 128.068 30.0008C128.737 29.6283 129.463 29.5061 130.136 29.5061C130.552 29.5061 131.229 29.5263 131.821 29.7953Z" fill="white"/>
<path d="M116.549 35.2461C116.74 35.2461 116.886 35.3414 116.989 35.5321C117.092 35.7227 117.143 35.9647 117.143 36.2581C117.143 36.6247 117.092 36.9107 116.989 37.1161C116.886 37.3067 116.725 37.4387 116.505 37.5121C115.625 37.8201 114.657 37.9961 113.601 38.0401C113.308 39.2574 112.75 40.2401 111.929 40.9881C111.122 41.7361 110.228 42.1101 109.245 42.1101C107.764 42.1101 106.686 41.5454 106.011 40.4161C105.336 39.2867 104.999 37.6514 104.999 35.5101C104.999 33.6181 105.234 31.5647 105.703 29.3501C106.172 27.1207 106.854 25.2287 107.749 23.6741C108.658 22.1047 109.736 21.3201 110.983 21.3201C111.658 21.3201 112.2 21.6134 112.611 22.2001C113.022 22.7721 113.227 23.5201 113.227 24.4441C113.227 25.6467 113 26.8421 112.545 28.0301C112.09 29.2181 111.335 30.4647 110.279 31.7701C111.262 31.8434 112.061 32.2541 112.677 33.0021C113.293 33.7354 113.66 34.6447 113.777 35.7301C114.466 35.6861 115.288 35.5394 116.241 35.2901C116.329 35.2607 116.432 35.2461 116.549 35.2461ZM110.477 23.4981C110.184 23.4981 109.861 23.9381 109.509 24.8181C109.172 25.6834 108.856 26.8641 108.563 28.3601C108.27 29.8561 108.05 31.4914 107.903 33.2661C108.871 31.4914 109.641 29.9294 110.213 28.5801C110.8 27.2161 111.093 26.0061 111.093 24.9501C111.093 24.4807 111.034 24.1214 110.917 23.8721C110.814 23.6227 110.668 23.4981 110.477 23.4981ZM109.333 39.7781C109.788 39.7781 110.191 39.5874 110.543 39.2061C110.895 38.8247 111.13 38.2747 111.247 37.5561C110.792 37.2481 110.44 36.8447 110.191 36.3461C109.956 35.8474 109.839 35.3194 109.839 34.7621C109.839 34.5567 109.868 34.2781 109.927 33.9261H109.861C109.26 33.9261 108.754 34.2267 108.343 34.8281C107.947 35.4147 107.749 36.2067 107.749 37.2041C107.749 38.0401 107.903 38.6781 108.211 39.1181C108.534 39.5581 108.908 39.7781 109.333 39.7781Z" fill="#00A885"/>
<path d="M117.488 42.1101C116.828 42.1101 116.285 41.8094 115.86 41.2081C115.449 40.5921 115.244 39.8294 115.244 38.9201C115.244 37.8201 115.317 36.8154 115.464 35.9061C115.61 34.9821 115.852 34.0067 116.19 32.9801C116.336 32.5401 116.542 32.2247 116.806 32.0341C117.07 31.8434 117.488 31.7481 118.06 31.7481C118.382 31.7481 118.602 31.7994 118.72 31.9021C118.852 32.0047 118.918 32.1587 118.918 32.3641C118.918 32.4814 118.837 32.8774 118.676 33.5521C118.529 34.0947 118.412 34.5861 118.324 35.0261C118.03 36.5661 117.884 37.5927 117.884 38.1061C117.884 38.4141 117.92 38.6341 117.994 38.7661C118.067 38.8834 118.184 38.9421 118.346 38.9421C118.566 38.9421 118.837 38.7221 119.16 38.2821C119.497 37.8421 119.849 37.1747 120.216 36.2801C120.597 35.3854 120.964 34.2854 121.316 32.9801C121.433 32.5401 121.609 32.2247 121.844 32.0341C122.093 31.8434 122.46 31.7481 122.944 31.7481C123.281 31.7481 123.516 31.7921 123.648 31.8801C123.78 31.9534 123.846 32.1001 123.846 32.3201C123.846 32.6867 123.662 33.6914 123.296 35.3341C122.885 37.2114 122.68 38.3701 122.68 38.8101C122.68 39.0887 122.738 39.3087 122.856 39.4701C122.973 39.6167 123.127 39.6901 123.318 39.6901C123.611 39.6901 123.956 39.5141 124.352 39.1621C124.762 38.7954 125.305 38.2087 125.98 37.4021C126.156 37.1967 126.354 37.0941 126.574 37.0941C126.764 37.0941 126.911 37.1821 127.014 37.3581C127.131 37.5341 127.19 37.7761 127.19 38.0841C127.19 38.6707 127.05 39.1254 126.772 39.4481C126.141 40.2254 125.459 40.8634 124.726 41.3621C124.007 41.8607 123.186 42.1101 122.262 42.1101C121.558 42.1101 121.037 41.8387 120.7 41.2961C120.377 40.7534 120.216 39.9907 120.216 39.0081C119.966 40.0054 119.592 40.7754 119.094 41.3181C118.595 41.8461 118.06 42.1101 117.488 42.1101Z" fill="#00A885"/>
<path d="M129.498 42.5941C128.735 42.5941 128.148 42.4181 127.738 42.0661C127.342 41.7141 127.144 41.3181 127.144 40.8781C127.144 40.4967 127.283 40.1667 127.562 39.8881C127.84 39.6094 128.251 39.4701 128.794 39.4701C128.984 39.4701 129.204 39.4921 129.454 39.5361C129.718 39.5654 129.916 39.5874 130.048 39.6021C130.033 39.2207 129.945 38.8614 129.784 38.5241C129.637 38.1867 129.446 37.8641 129.212 37.5561C128.977 37.2334 128.757 36.9547 128.552 36.7201C128.097 37.5854 127.642 38.3041 127.188 38.8761C126.748 39.4481 126.264 39.9907 125.736 40.5041C125.472 40.7681 125.193 40.9001 124.9 40.9001C124.665 40.9001 124.474 40.8194 124.328 40.6581C124.181 40.4821 124.108 40.2694 124.108 40.0201C124.108 39.7267 124.21 39.4554 124.416 39.2061L124.702 38.8541C125.508 37.8567 126.117 37.0354 126.528 36.3901C126.777 35.9647 127.07 35.4001 127.408 34.6961C127.745 33.9774 128.075 33.2367 128.398 32.4741C128.676 31.8287 129.256 31.5061 130.136 31.5061C130.546 31.5061 130.832 31.5427 130.994 31.6161C131.155 31.6894 131.236 31.8067 131.236 31.9681C131.236 32.0561 131.206 32.1954 131.148 32.3861C131.089 32.5767 131.008 32.7674 130.906 32.9581C130.642 33.4861 130.51 33.9334 130.51 34.3001C130.51 34.5201 130.583 34.7621 130.73 35.0261C130.891 35.2901 131.133 35.6201 131.456 36.0161C131.925 36.6321 132.277 37.1601 132.512 37.6001C132.761 38.0254 132.886 38.4947 132.886 39.0081C132.886 39.1547 132.871 39.3601 132.842 39.6241C133.56 39.3454 134.404 38.6047 135.372 37.4021C135.548 37.1967 135.746 37.0941 135.966 37.0941C136.156 37.0941 136.303 37.1821 136.406 37.3581C136.523 37.5341 136.582 37.7761 136.582 38.0841C136.582 38.6414 136.442 39.0961 136.164 39.4481C135.43 40.3574 134.726 40.9807 134.052 41.3181C133.392 41.6407 132.57 41.8167 131.588 41.8461C131.001 42.3447 130.304 42.5941 129.498 42.5941Z" fill="#00A885"/>
<path d="M137.676 30.2961C137.06 30.2961 136.598 30.1567 136.29 29.8781C135.982 29.5847 135.828 29.1814 135.828 28.6681C135.828 28.1547 136.026 27.7294 136.422 27.3921C136.833 27.0401 137.339 26.8641 137.94 26.8641C138.483 26.8641 138.923 26.9961 139.26 27.2601C139.598 27.5241 139.766 27.8981 139.766 28.3821C139.766 28.9687 139.576 29.4381 139.194 29.7901C138.813 30.1274 138.307 30.2961 137.676 30.2961ZM137.5 42.1101C136.547 42.1101 135.85 41.7727 135.41 41.0981C134.985 40.4234 134.772 39.5287 134.772 38.4141C134.772 37.7541 134.853 36.9107 135.014 35.8841C135.19 34.8427 135.41 33.8747 135.674 32.9801C135.806 32.5107 135.982 32.1881 136.202 32.0121C136.422 31.8361 136.774 31.7481 137.258 31.7481C138.006 31.7481 138.38 31.9974 138.38 32.4961C138.38 32.8627 138.241 33.7134 137.962 35.0481C137.61 36.6614 137.434 37.7541 137.434 38.3261C137.434 38.7661 137.493 39.1034 137.61 39.3381C137.728 39.5727 137.926 39.6901 138.204 39.6901C138.468 39.6901 138.798 39.5067 139.194 39.1401C139.59 38.7734 140.118 38.1941 140.778 37.4021C140.954 37.1967 141.152 37.0941 141.372 37.0941C141.563 37.0941 141.71 37.1821 141.812 37.3581C141.93 37.5341 141.988 37.7761 141.988 38.0841C141.988 38.6707 141.849 39.1254 141.57 39.4481C140.118 41.2227 138.762 42.1101 137.5 42.1101Z" fill="#00A885"/>
<path d="M141.77 42.1101C141.213 42.1101 140.817 41.8167 140.582 41.2301C140.362 40.6434 140.252 39.7047 140.252 38.4141C140.252 36.5074 140.524 34.6961 141.066 32.9801C141.198 32.5547 141.411 32.2467 141.704 32.0561C142.012 31.8507 142.438 31.7481 142.98 31.7481C143.274 31.7481 143.479 31.7847 143.596 31.8581C143.714 31.9314 143.772 32.0707 143.772 32.2761C143.772 32.5107 143.662 33.0387 143.442 33.8601C143.296 34.4467 143.178 34.9601 143.09 35.4001C143.002 35.8401 142.929 36.3827 142.87 37.0281C143.354 35.7667 143.897 34.7401 144.498 33.9481C145.1 33.1561 145.686 32.5914 146.258 32.2541C146.845 31.9167 147.38 31.7481 147.864 31.7481C148.818 31.7481 149.294 32.2247 149.294 33.1781C149.294 33.7501 149.133 34.7841 148.81 36.2801C148.532 37.5561 148.392 38.3994 148.392 38.8101C148.392 39.3967 148.605 39.6901 149.03 39.6901C149.324 39.6901 149.668 39.5141 150.064 39.1621C150.475 38.7954 151.018 38.2087 151.692 37.4021C151.868 37.1967 152.066 37.0941 152.286 37.0941C152.477 37.0941 152.624 37.1821 152.726 37.3581C152.844 37.5341 152.902 37.7761 152.902 38.0841C152.902 38.6707 152.763 39.1254 152.484 39.4481C151.854 40.2254 151.172 40.8634 150.438 41.3621C149.72 41.8607 148.898 42.1101 147.974 42.1101C147.226 42.1101 146.662 41.8974 146.28 41.4721C145.899 41.0321 145.708 40.4014 145.708 39.5801C145.708 39.1694 145.811 38.4361 146.016 37.3801C146.207 36.4561 146.302 35.8181 146.302 35.4661C146.302 35.2314 146.222 35.1141 146.06 35.1141C145.87 35.1141 145.598 35.3634 145.246 35.8621C144.909 36.3461 144.557 36.9914 144.19 37.7981C143.838 38.6047 143.552 39.4554 143.332 40.3501C143.171 41.0394 142.98 41.5087 142.76 41.7581C142.555 41.9927 142.225 42.1101 141.77 42.1101Z" fill="#00A885"/>
<path d="M160.934 37.0941C161.125 37.0941 161.272 37.1821 161.374 37.3581C161.492 37.5341 161.55 37.7761 161.55 38.0841C161.55 38.6707 161.411 39.1254 161.132 39.4481C160.59 40.1081 159.82 40.7167 158.822 41.2741C157.84 41.8314 156.784 42.1101 155.654 42.1101C154.114 42.1101 152.919 41.6921 152.068 40.8561C151.218 40.0201 150.792 38.8761 150.792 37.4241C150.792 36.4121 151.005 35.4734 151.43 34.6081C151.856 33.7281 152.442 33.0314 153.19 32.5181C153.953 32.0047 154.811 31.7481 155.764 31.7481C156.615 31.7481 157.297 32.0047 157.81 32.5181C158.324 33.0167 158.58 33.6987 158.58 34.5641C158.58 35.5761 158.214 36.4487 157.48 37.1821C156.762 37.9007 155.537 38.4727 153.806 38.8981C154.173 39.5727 154.87 39.9101 155.896 39.9101C156.556 39.9101 157.304 39.6827 158.14 39.2281C158.991 38.7587 159.724 38.1501 160.34 37.4021C160.516 37.1967 160.714 37.0941 160.934 37.0941ZM155.39 33.9041C154.848 33.9041 154.386 34.2194 154.004 34.8501C153.638 35.4807 153.454 36.2434 153.454 37.1381V37.1821C154.32 36.9767 155.002 36.6687 155.5 36.2581C155.999 35.8474 156.248 35.3707 156.248 34.8281C156.248 34.5494 156.168 34.3294 156.006 34.1681C155.86 33.9921 155.654 33.9041 155.39 33.9041Z" fill="#00A885"/>
<path d="M163.851 42.5941C163.088 42.5941 162.502 42.4181 162.091 42.0661C161.695 41.7141 161.497 41.3181 161.497 40.8781C161.497 40.4967 161.636 40.1667 161.915 39.8881C162.194 39.6094 162.604 39.4701 163.147 39.4701C163.338 39.4701 163.558 39.4921 163.807 39.5361C164.071 39.5654 164.269 39.5874 164.401 39.6021C164.386 39.2207 164.298 38.8614 164.137 38.5241C163.99 38.1867 163.8 37.8641 163.565 37.5561C163.33 37.2334 163.11 36.9547 162.905 36.7201C162.45 37.5854 161.996 38.3041 161.541 38.8761C161.101 39.4481 160.617 39.9907 160.089 40.5041C159.825 40.7681 159.546 40.9001 159.253 40.9001C159.018 40.9001 158.828 40.8194 158.681 40.6581C158.534 40.4821 158.461 40.2694 158.461 40.0201C158.461 39.7267 158.564 39.4554 158.769 39.2061L159.055 38.8541C159.862 37.8567 160.47 37.0354 160.881 36.3901C161.13 35.9647 161.424 35.4001 161.761 34.6961C162.098 33.9774 162.428 33.2367 162.751 32.4741C163.03 31.8287 163.609 31.5061 164.489 31.5061C164.9 31.5061 165.186 31.5427 165.347 31.6161C165.508 31.6894 165.589 31.8067 165.589 31.9681C165.589 32.0561 165.56 32.1954 165.501 32.3861C165.442 32.5767 165.362 32.7674 165.259 32.9581C164.995 33.4861 164.863 33.9334 164.863 34.3001C164.863 34.5201 164.936 34.7621 165.083 35.0261C165.244 35.2901 165.486 35.6201 165.809 36.0161C166.278 36.6321 166.63 37.1601 166.865 37.6001C167.114 38.0254 167.239 38.4947 167.239 39.0081C167.239 39.1547 167.224 39.3601 167.195 39.6241C167.914 39.3454 168.757 38.6047 169.725 37.4021C169.901 37.1967 170.099 37.0941 170.319 37.0941C170.51 37.0941 170.656 37.1821 170.759 37.3581C170.876 37.5341 170.935 37.7761 170.935 38.0841C170.935 38.6414 170.796 39.0961 170.517 39.4481C169.784 40.3574 169.08 40.9807 168.405 41.3181C167.745 41.6407 166.924 41.8167 165.941 41.8461C165.354 42.3447 164.658 42.5941 163.851 42.5941Z" fill="#00A885"/>
<path d="M173.24 42.5941C172.477 42.5941 171.89 42.4181 171.48 42.0661C171.084 41.7141 170.886 41.3181 170.886 40.8781C170.886 40.4967 171.025 40.1667 171.304 39.8881C171.582 39.6094 171.993 39.4701 172.536 39.4701C172.726 39.4701 172.946 39.4921 173.196 39.5361C173.46 39.5654 173.658 39.5874 173.79 39.6021C173.775 39.2207 173.687 38.8614 173.526 38.5241C173.379 38.1867 173.188 37.8641 172.954 37.5561C172.719 37.2334 172.499 36.9547 172.294 36.7201C171.839 37.5854 171.384 38.3041 170.93 38.8761C170.49 39.4481 170.006 39.9907 169.478 40.5041C169.214 40.7681 168.935 40.9001 168.642 40.9001C168.407 40.9001 168.216 40.8194 168.07 40.6581C167.923 40.4821 167.85 40.2694 167.85 40.0201C167.85 39.7267 167.952 39.4554 168.158 39.2061L168.444 38.8541C169.25 37.8567 169.859 37.0354 170.27 36.3901C170.534 35.9647 170.798 35.4587 171.062 34.8721C171.34 34.2854 171.7 33.4861 172.14 32.4741C172.418 31.8287 172.998 31.5061 173.878 31.5061C174.288 31.5061 174.574 31.5427 174.736 31.6161C174.897 31.6894 174.978 31.8067 174.978 31.9681C174.978 32.0561 174.948 32.1954 174.89 32.3861C174.831 32.5767 174.75 32.7674 174.648 32.9581C174.384 33.4861 174.252 33.9334 174.252 34.3001C174.252 34.5201 174.325 34.7621 174.472 35.0261C174.633 35.2901 174.875 35.6201 175.198 36.0161C175.667 36.6321 176.019 37.1601 176.254 37.6001C176.503 38.0254 176.628 38.4947 176.628 39.0081C176.628 39.6241 176.481 40.2107 176.188 40.7681C175.909 41.3107 175.513 41.7507 175 42.0881C174.486 42.4254 173.9 42.5941 173.24 42.5941Z" fill="#00A885"/>
</svg>
