<svg width="221" height="45" viewBox="0 0 221 45" fill="none" xmlns="http://www.w3.org/2000/svg">
<path d="M108.601 17.1616C108.601 23.1108 111.293 26.3674 116.089 26.3674C120.938 26.3674 123.837 21.7486 123.837 21.7486L124.731 24.8072C124.937 25.5011 125.586 25.9864 126.312 25.9864H132.355C132.789 25.9864 133.142 25.6352 133.142 25.1989C133.142 24.9988 133.142 24.7859 133.142 24.5859C133.142 24.1516 132.789 23.7983 132.355 23.7983H132.346C130.95 23.7983 129.818 22.6659 129.818 21.2696L129.82 1.84913C129.82 1.33616 129.337 0.959414 128.839 1.08712L120.791 3.13262C120.442 3.22202 120.199 3.53491 120.197 3.89463V4.68643C120.197 5.12065 120.548 5.47398 120.984 5.47398V5.47398C122.381 5.47398 123.511 6.60848 123.507 8.00265L123.473 19.7392C123.473 19.7392 121.502 21.9614 118.615 21.9614C116.202 21.9614 114.91 19.95 114.91 17.4532L114.899 1.8321C114.899 1.31913 114.414 0.942386 113.918 1.0701L105.864 3.13262C105.514 3.22202 105.272 3.53491 105.272 3.89463V4.68643C105.272 5.12065 105.623 5.47398 106.059 5.47398H106.066C107.458 5.47398 108.586 6.60209 108.588 7.99414L108.601 17.1616Z" fill="#00A885"/>
<path fill-rule="evenodd" clip-rule="evenodd" d="M143.238 5.59335C143.238 5.59335 146.167 1.03409 150.758 1.03409C156.416 1.03409 160.366 6.04673 160.366 13.2283C160.366 20.9676 155.964 26.3719 149.664 26.3719C145.726 26.3719 143.238 22.7576 143.238 22.7576V28.279C143.236 29.6774 144.37 30.8098 145.767 30.8077C146.203 30.8077 146.556 31.1589 146.556 31.5952V32.2104C146.558 32.6467 146.205 33 145.769 33H134.383C133.949 33 133.596 32.6467 133.596 32.2104V31.5931C133.596 31.1567 133.949 30.8055 134.383 30.8055H134.39C135.786 30.8055 136.918 29.6732 136.918 28.2769V8.00495C136.918 6.61291 135.795 5.4848 134.403 5.47842H134.379C133.945 5.47842 133.594 5.12508 133.594 4.69087V3.89693C133.594 3.53722 133.836 3.2222 134.185 3.1328L142.252 1.05325C142.753 0.925536 143.238 1.30228 143.238 1.81738V5.59335ZM143.24 18.5964C143.24 18.5964 144.76 22.1957 148.225 22.1957C152.265 22.1957 154.061 17.7408 154.061 13.4518C154.061 9.21395 152.75 5.22938 148.481 5.22938C145.324 5.22938 143.238 7.9709 143.238 7.9709L143.236 18.5709L143.24 18.5964Z" fill="#00A885"/>
<path d="M104.75 24.0432C104.593 23.8857 104.382 23.7985 104.159 23.7985H104.101C102.762 23.7985 101.672 22.7087 101.672 21.3698V14.4373C101.675 13.2581 101.677 11.3446 101.677 10.044C101.677 3.29453 98.4797 1 95.0337 1C90.1126 1 86.8283 5.22935 86.8283 5.22935L86.807 5.2485V1.81735C86.807 1.30225 86.3217 0.925502 85.8215 1.05321L77.7544 3.13277C77.4054 3.22216 77.1627 3.53718 77.1627 3.8969V4.69083C77.1627 5.12505 77.5139 5.47838 77.9481 5.47838H77.9694C79.3615 5.48477 80.4874 6.61288 80.4874 8.00492V21.2698C80.4874 22.6661 79.3551 23.7985 77.9588 23.7985H77.9524C77.5182 23.7985 77.1648 24.1497 77.1648 24.586C77.1648 24.7861 77.1648 25.0011 77.1648 25.2033C77.1648 25.6396 77.5182 25.993 77.9524 25.993H89.3378C89.7741 25.993 90.1275 25.6396 90.1253 25.2033V24.5881C90.1253 24.1518 89.772 23.8006 89.3356 23.8006V23.8006C87.9393 23.8027 86.8048 22.6703 86.807 21.2719V7.65372L86.8283 7.63243C86.8283 7.63243 88.9057 5.47625 91.494 5.47625C93.9098 5.47625 95.3529 7.16416 95.3529 9.99082V23.8368L95.3615 23.9389C95.4594 25.0883 96.4385 25.9866 97.5921 25.9866H104.156C104.616 25.9866 104.993 25.6119 104.993 25.1522V24.635C104.995 24.4115 104.908 24.2007 104.75 24.0432Z" fill="#0C8E77"/>
<path fill-rule="evenodd" clip-rule="evenodd" d="M33.6879 5.59335C33.6879 5.59335 36.6167 1.03409 41.2079 1.03409C46.8655 1.03409 50.816 6.04673 50.8139 13.2283C50.8139 20.9676 46.4121 26.3719 40.1118 26.3719C36.174 26.3719 33.6858 22.7576 33.6858 22.7576V28.279C33.6837 29.6774 34.8182 30.8098 36.2145 30.8077C36.6508 30.8077 37.0041 31.1589 37.0041 31.5952V32.2104C37.0063 32.6467 36.6529 33 36.2166 33H24.8312C24.397 33 24.0436 32.6467 24.0436 32.2104V31.5931C24.0436 31.1567 24.397 30.8055 24.8312 30.8055H24.8376C26.2339 30.8055 27.3662 29.6732 27.3662 28.2769V8.00495C27.3662 6.61291 26.2424 5.4848 24.8503 5.47842H24.8291C24.3948 5.47842 24.0436 5.12508 24.0436 4.69087V3.89693C24.0436 3.53722 24.2863 3.2222 24.6354 3.1328L32.7024 1.05325C33.2026 0.925536 33.6879 1.30228 33.6879 1.81738V5.59335ZM33.6922 18.5964C33.6922 18.5964 35.2119 22.1957 38.6771 22.1957C42.717 22.1957 44.5135 17.7408 44.5135 13.4518C44.5135 9.21395 43.2023 5.22938 38.9326 5.22938C35.776 5.22938 33.69 7.9709 33.69 7.9709L33.6879 18.5709L33.6922 18.5964Z" fill="#0C8E77"/>
<path fill-rule="evenodd" clip-rule="evenodd" d="M0 13.6984C0 6.69982 5.21272 1.02734 11.6451 1.02734C18.0774 1.02734 23.2923 6.69982 23.2901 13.6984C23.2901 20.6969 18.0753 26.3694 11.6451 26.3694C5.21485 26.3694 0 20.6969 0 13.6984ZM6.3685 13.8221C6.3685 19.0348 8.73114 23.2599 11.6451 23.2599C14.559 23.2599 16.9216 19.0348 16.9216 13.8221C16.9216 8.60939 14.559 4.3843 11.6451 4.3843C8.73114 4.3843 6.3685 8.60939 6.3685 13.8221Z" fill="#0C8E77"/>
<path fill-rule="evenodd" clip-rule="evenodd" d="M74.932 18.1345L75.4961 18.5581C75.826 18.805 75.9218 19.2434 75.7217 19.6032C74.6085 21.6423 71.3561 26.3888 65.2048 26.3888H65.2005C58.1402 26.3867 53.9173 20.0799 53.9173 13.986C53.9173 5.08673 59.6919 1.04895 64.9791 1.04895H64.9855C72.3289 1.04895 74.5361 9.70772 74.7447 10.9912C74.8128 11.4084 74.5404 11.8064 74.1253 11.9001L59.6366 15.1503L59.6685 15.2482C59.6728 15.2631 60.1389 16.6977 61.3415 18.1089C62.4547 19.4137 64.4385 20.9697 67.5802 20.9718H67.5844C70.6495 20.9718 72.812 19.2434 73.8295 18.2132C74.1232 17.9174 74.5957 17.8833 74.932 18.1345ZM59.2109 10.1356C59.164 11.5425 59.3322 11.8235 59.3662 11.866L59.4067 11.9107L68.1293 10.0994V10.0291C68.1293 9.26499 68.0059 8.40295 67.7888 7.66436C67.4929 6.66183 67.0395 5.87215 66.4393 5.31448C65.7752 4.69721 64.9451 4.38432 63.9723 4.38432H63.9702C60.8158 4.38432 59.2875 7.74737 59.2109 10.1356Z" fill="#0C8E77"/>
<path fill-rule="evenodd" clip-rule="evenodd" d="M103.967 42.3403L103.952 42.3173C103.277 41.3046 103 40.1333 103 38.9199C103 37.734 103.079 36.6218 103.245 35.5899C103.411 34.5466 103.681 33.4677 104.046 32.3556L104.049 32.3475C104.274 31.6726 104.671 30.9329 105.391 30.4126C106.169 29.8506 107.105 29.7479 107.816 29.7479C108.181 29.7479 109.041 29.7727 109.744 30.3554C109.878 30.4636 109.994 30.5799 110.095 30.7019C110.171 30.6257 110.252 30.5521 110.339 30.4817L110.362 30.4631L110.385 30.4452C111.127 29.8778 112.001 29.7479 112.7 29.7479C113.062 29.7479 113.791 29.7696 114.44 30.1685C114.719 30.3344 114.933 30.5348 115.097 30.7497C115.236 30.6185 115.389 30.4962 115.558 30.3855C116.313 29.8864 117.174 29.7479 117.934 29.7479C118.267 29.7479 118.977 29.7663 119.61 30.162C119.811 30.2873 119.976 30.4297 120.113 30.5815C120.14 30.5645 120.168 30.5477 120.196 30.5312L120.206 30.5256L120.215 30.5201C120.99 30.0744 121.872 29.7479 122.818 29.7479C123.304 29.7479 123.856 29.8237 124.383 30.0586C124.776 29.8042 125.207 29.6704 125.621 29.6191C125.867 28.5075 126.18 27.4515 126.563 26.454C127.137 24.9618 127.867 23.6633 128.797 22.638L128.804 22.6305L128.811 22.6231C129.806 21.5482 131.088 20.7939 132.632 20.7939C133.966 20.7939 135.064 21.4426 135.762 22.5196C136.374 23.4634 136.612 24.5499 136.612 25.6539C136.612 27.1973 136.261 28.6246 135.593 29.9251C135.779 30.0275 135.963 30.1608 136.136 30.3337C136.188 30.3851 136.236 30.4375 136.28 30.4908C137.226 29.9937 138.262 29.7479 139.355 29.7479C140.633 29.7479 141.854 30.1483 142.805 31.0935C142.836 31.1242 142.867 31.1551 142.897 31.1864C143.121 30.8861 143.4 30.6119 143.746 30.3856C144.5 29.8864 145.361 29.7479 146.122 29.7479C146.455 29.7479 147.165 29.7663 147.798 30.162C147.998 30.2873 148.164 30.4297 148.3 30.5815C148.328 30.5645 148.356 30.5477 148.384 30.5312L148.393 30.5256L148.403 30.5201C149.178 30.0744 150.06 29.7479 151.006 29.7479C151.769 29.7479 152.694 29.9347 153.43 30.6303C153.532 30.5438 153.641 30.462 153.757 30.3856C154.512 29.8864 155.373 29.7479 156.133 29.7479C156.467 29.7479 157.176 29.7663 157.809 30.162C158.01 30.2873 158.175 30.4297 158.312 30.5815C158.34 30.5645 158.367 30.5477 158.395 30.5312L158.405 30.5256L158.414 30.5201C159.19 30.0744 160.071 29.7479 161.017 29.7479C161.802 29.7479 162.758 29.9455 163.504 30.6912C163.821 31.0085 164.039 31.364 164.185 31.7281C164.496 31.4122 164.839 31.125 165.212 30.8689L165.219 30.8638L165.227 30.8588C166.332 30.1147 167.582 29.7479 168.917 29.7479C169.884 29.7479 170.819 29.9771 171.628 30.498C171.676 30.2074 171.727 29.9157 171.782 29.6229L171.784 29.6116C172.28 27.0226 173.017 24.7623 174.034 22.8779L174.037 22.8724C175.101 20.9159 176.722 19.3199 179.05 19.3199C180.413 19.3199 181.542 19.9611 182.3 21.0295C183.036 22.0318 183.316 23.2269 183.316 24.4439C183.316 26.2862 182.788 28.1133 181.838 29.9025C182.309 30.0398 182.779 30.2837 183.187 30.6912C183.325 30.8299 183.445 30.9758 183.548 31.1266C183.764 30.8496 184.029 30.5967 184.351 30.3855C185.105 29.8864 185.967 29.7479 186.727 29.7479C187.06 29.7479 187.77 29.7663 188.403 30.162C188.577 30.2709 188.725 30.3929 188.851 30.5228C189.59 30.069 190.439 29.7479 191.369 29.7479C192.09 29.7479 193.159 29.898 193.929 30.7563C193.956 30.7865 193.983 30.817 194.009 30.8479C194.904 30.2007 195.929 29.7479 197.067 29.7479C197.852 29.7479 198.808 29.9455 199.554 30.6912C199.871 31.0088 200.089 31.3644 200.235 31.7288C200.547 31.4127 200.889 31.1252 201.262 30.8689L201.27 30.8638L201.277 30.8588C202.383 30.1147 203.633 29.7479 204.968 29.7479C206.247 29.7479 207.467 30.1483 208.418 31.0938C208.45 31.1243 208.48 31.1552 208.51 31.1864C208.734 30.8861 209.014 30.6118 209.359 30.3855C210.113 29.8864 210.975 29.7479 211.735 29.7479C212.068 29.7479 212.778 29.7663 213.411 30.162C213.611 30.2873 213.777 30.4297 213.913 30.5815C213.941 30.5645 213.969 30.5477 213.997 30.5312L214.006 30.5256L214.016 30.5201C214.791 30.0744 215.673 29.7479 216.619 29.7479C217.413 29.7479 218.359 29.9606 219.089 30.7075C219.836 31.4383 220.049 32.3836 220.049 33.1779C220.049 33.7338 219.943 34.5976 219.784 35.636L219.782 35.6468L219.781 35.6575C219.639 36.5208 219.527 37.3357 219.443 38.1028L219.443 38.1068C219.364 38.8109 219.323 39.6228 219.323 40.5479C219.323 41.311 219.175 42.3324 218.43 43.1258C217.658 43.9496 216.617 44.1099 215.871 44.1099C215.08 44.1099 214.061 43.9049 213.315 43.0592C213.265 43.0023 213.218 42.9444 213.173 42.8857C213.124 42.9519 213.072 43.0163 213.017 43.0783C212.285 43.9126 211.286 44.1099 210.525 44.1099C209.876 44.1099 209.206 43.9317 208.619 43.4971C208.545 43.4423 208.475 43.3852 208.408 43.326C207.295 43.8468 206.105 44.1099 204.858 44.1099C203.359 44.1099 201.95 43.7843 200.773 43.011C199.702 43.7515 198.481 44.1099 197.177 44.1099C196.047 44.1099 194.863 43.7767 193.994 42.807L193.983 42.7945L193.972 42.7818C193.919 42.7206 193.868 42.6584 193.82 42.5952C193.711 42.7748 193.587 42.9456 193.445 43.1011C192.704 43.9281 191.696 44.1099 190.951 44.1099C190.383 44.1099 189.796 43.9724 189.259 43.6393C188.849 43.3851 188.532 43.0571 188.291 42.7048C188.206 42.8358 188.112 42.9611 188.009 43.0783C187.277 43.9126 186.278 44.1099 185.517 44.1099C184.868 44.1099 184.198 43.9317 183.612 43.4971C183.602 43.4899 183.592 43.4827 183.583 43.4754C182.727 43.9016 181.793 44.1099 180.81 44.1099C179.68 44.1099 178.496 43.7767 177.627 42.807L177.616 42.7945L177.605 42.7818C177.524 42.6882 177.448 42.5921 177.378 42.4939C177.199 42.7454 176.987 42.9811 176.738 43.193C175.958 43.8568 175.019 44.1099 174.1 44.1099C173.457 44.1099 172.713 43.9312 172.12 43.4326C171.076 43.8827 169.966 44.1099 168.807 44.1099C167.308 44.1099 165.9 43.7844 164.723 43.0113C163.652 43.7516 162.431 44.1099 161.127 44.1099C159.997 44.1099 158.814 43.7767 157.944 42.807L157.933 42.7945L157.922 42.7818C157.868 42.7196 157.817 42.6563 157.768 42.5921C157.665 42.764 157.548 42.9278 157.416 43.0783C156.683 43.9126 155.684 44.1099 154.923 44.1099C154.275 44.1099 153.605 43.9317 153.018 43.4971C152.449 43.0754 152.095 42.5146 151.878 41.9727L151.87 41.9525L151.863 41.9322C151.747 41.6237 151.658 41.2828 151.591 40.9172C150.579 40.8875 149.531 40.6067 148.693 39.8477C148.592 40.1627 148.5 40.4859 148.418 40.8174C148.249 41.5395 147.973 42.432 147.404 43.0783C146.672 43.9126 145.672 44.1099 144.912 44.1099C144.263 44.1099 143.593 43.9317 143.006 43.4971C142.932 43.4423 142.862 43.3852 142.795 43.326C141.682 43.8468 140.492 44.1099 139.245 44.1099C137.743 44.1099 136.333 43.7834 135.155 43.0078C135.146 43.0139 135.137 43.02 135.128 43.026C134.026 43.7607 132.775 44.1099 131.444 44.1099C129.797 44.1099 128.31 43.6137 127.173 42.5305C126.962 42.6995 126.746 42.8596 126.524 43.0106C125.453 43.7514 124.232 44.1099 122.928 44.1099C121.798 44.1099 120.614 43.7767 119.745 42.807L119.734 42.7945L119.723 42.7818C119.669 42.7196 119.617 42.6563 119.568 42.5921C119.465 42.764 119.349 42.9279 119.216 43.0783C118.484 43.9126 117.485 44.1099 116.724 44.1099C116.075 44.1099 115.405 43.9317 114.819 43.4971C114.813 43.4932 114.808 43.4894 114.803 43.4855C113.941 43.9052 113.003 44.1099 112.018 44.1099C111.128 44.1099 110.287 43.8517 109.606 43.3112C108.947 43.7938 108.156 44.1099 107.244 44.1099C105.852 44.1099 104.733 43.4228 103.983 42.3629L103.967 42.3403ZM116.758 42.1097C117.195 42.1041 117.514 41.9868 117.714 41.7579C117.92 41.525 118.1 41.1002 118.254 40.4833C118.265 40.4398 118.275 40.3954 118.286 40.3499C118.404 39.8692 118.542 39.4012 118.698 38.946C118.775 38.722 118.856 38.5011 118.942 38.2833C119.007 38.1198 119.074 37.958 119.144 37.7979C119.169 37.7428 119.194 37.6883 119.219 37.6346C119.229 37.6143 119.238 37.5942 119.247 37.5741C119.312 37.4359 119.377 37.3028 119.44 37.1749C119.454 37.1466 119.469 37.1185 119.483 37.0907C119.485 37.0854 119.488 37.08 119.491 37.0747C119.579 36.9008 119.666 36.7368 119.753 36.5826C119.809 36.4824 119.865 36.3864 119.92 36.2946C120.015 36.1383 120.108 35.9941 120.2 35.8619C120.311 35.7054 120.413 35.5734 120.508 35.4659C120.702 35.2457 120.862 35.1288 120.99 35.1153C120.998 35.1144 121.006 35.1139 121.014 35.1139C121.035 35.1139 121.055 35.116 121.073 35.12C121.195 35.1468 121.256 35.2621 121.256 35.4659C121.256 35.6946 121.216 36.0439 121.135 36.5138C121.135 36.5163 121.135 36.5188 121.134 36.5213C121.103 36.7012 121.067 36.8988 121.024 37.1139C121.007 37.1998 120.989 37.2885 120.97 37.3799C120.887 37.8092 120.82 38.1851 120.771 38.5077C120.769 38.517 120.768 38.5262 120.766 38.5353C120.715 38.8729 120.683 39.1509 120.669 39.3695C120.664 39.4472 120.662 39.5173 120.662 39.5799C120.662 40.4013 120.853 41.0319 121.234 41.4719C121.615 41.8973 122.18 42.1099 122.928 42.1099C123.852 42.1099 124.673 41.8606 125.392 41.3619C125.47 41.3089 125.547 41.2543 125.624 41.1982C125.744 41.1103 125.863 41.0185 125.981 40.9229C126.096 40.8288 126.21 40.7311 126.323 40.6296C126.324 40.6287 126.325 40.6277 126.326 40.6267C126.713 40.2778 127.084 39.8849 127.438 39.4479C127.455 39.4289 127.471 39.4094 127.486 39.3894C127.495 39.4134 127.504 39.4372 127.513 39.4609C127.522 39.4845 127.531 39.508 127.541 39.5313C127.542 39.534 127.543 39.5368 127.544 39.5395C127.812 40.2032 128.171 40.7384 128.621 41.145C129.333 41.7883 130.275 42.1099 131.444 42.1099C132.256 42.1099 132.99 41.9346 133.647 41.584C133.774 41.5165 133.897 41.4425 134.018 41.3619C134.445 41.0777 134.852 40.7482 135.24 40.3734C135.366 40.5443 135.505 40.7051 135.659 40.8559C135.989 41.1801 136.37 41.4415 136.804 41.6399C137.488 41.9533 138.302 42.1099 139.245 42.1099C140.121 42.1099 140.954 41.9421 141.742 41.6063C141.969 41.5095 142.193 41.3987 142.413 41.2739C142.83 41.041 143.207 40.7991 143.544 40.5482C143.593 40.8125 143.652 41.0397 143.724 41.2299C143.942 41.7769 144.301 42.0689 144.801 42.1059C144.837 42.1086 144.874 42.1099 144.912 42.1099C145.366 42.1099 145.696 41.9926 145.902 41.7579C146.105 41.5271 146.284 41.1076 146.437 40.4995C146.45 40.4509 146.462 40.401 146.474 40.3499C146.652 39.6254 146.873 38.9297 147.138 38.2629C147.2 38.1063 147.265 37.9513 147.332 37.7979C147.356 37.7425 147.38 37.6879 147.404 37.634C147.413 37.6135 147.423 37.5932 147.432 37.5729C147.442 37.5513 147.451 37.5298 147.461 37.5085C147.514 37.3934 147.567 37.2819 147.62 37.1741C147.698 37.0148 147.776 36.8634 147.854 36.7199C147.889 36.6558 147.923 36.5932 147.958 36.5322C148.009 36.4435 148.06 36.3581 148.111 36.2761C148.183 36.1593 148.255 36.0493 148.328 35.9461C148.348 35.9176 148.368 35.8895 148.388 35.8619C148.391 35.8568 148.395 35.8517 148.399 35.8466C148.51 35.6967 148.614 35.5698 148.711 35.4659C148.894 35.2708 149.053 35.1568 149.188 35.1239C149.215 35.1174 149.241 35.1141 149.266 35.114C149.266 35.114 149.267 35.1139 149.268 35.1139C149.429 35.1139 149.51 35.2313 149.51 35.4659C149.51 35.5686 149.495 35.7666 149.466 36.0599C149.43 36.2398 149.408 36.4197 149.402 36.5995C149.402 36.6022 149.402 36.6048 149.402 36.6075C149.4 36.645 149.4 36.6825 149.4 36.7199C149.4 36.8545 149.407 36.9834 149.423 37.1068C149.452 37.3299 149.506 37.5348 149.586 37.7217C149.683 37.9501 149.819 38.1516 149.994 38.3259C150.337 38.6574 150.81 38.8502 151.41 38.9042C151.527 38.9147 151.649 38.9199 151.776 38.9199C152.351 38.9199 152.894 38.792 153.406 38.5361C153.41 39.3951 153.466 40.0925 153.571 40.6286C153.617 40.8588 153.671 41.0593 153.735 41.2299C153.97 41.8166 154.366 42.1099 154.923 42.1099C155.378 42.1099 155.708 41.9926 155.913 41.7579C156.133 41.5086 156.324 41.0393 156.485 40.3499C156.604 39.8692 156.741 39.4013 156.897 38.946C157.032 38.5539 157.18 38.1712 157.343 37.7979C157.368 37.7428 157.393 37.6883 157.418 37.6346C157.428 37.6143 157.437 37.5942 157.447 37.5741C157.511 37.4359 157.576 37.3028 157.64 37.1749C157.654 37.1466 157.668 37.1185 157.682 37.0907C157.685 37.0854 157.687 37.08 157.69 37.0747C157.778 36.9008 157.866 36.7368 157.952 36.5826C158.008 36.4825 158.064 36.3864 158.12 36.2946C158.214 36.1384 158.307 35.9941 158.399 35.8619C158.51 35.7054 158.612 35.5734 158.707 35.4659C158.901 35.2457 159.062 35.1288 159.189 35.1153C159.197 35.1144 159.205 35.1139 159.213 35.1139C159.235 35.1139 159.254 35.116 159.273 35.12C159.394 35.1468 159.455 35.2621 159.455 35.4659C159.455 35.6946 159.415 36.0439 159.335 36.5138C159.334 36.5163 159.334 36.5188 159.333 36.5213C159.303 36.7012 159.266 36.8988 159.223 37.1139C159.206 37.1998 159.188 37.2885 159.169 37.3799C159.086 37.8092 159.019 38.1851 158.97 38.5077C158.968 38.517 158.967 38.5262 158.966 38.5353C158.914 38.8729 158.882 39.1509 158.868 39.3695C158.864 39.4472 158.861 39.5173 158.861 39.5799C158.861 40.4013 159.052 41.0319 159.433 41.4719C159.815 41.8973 160.379 42.1099 161.127 42.1099C161.895 42.1099 162.591 41.9379 163.217 41.5939C163.345 41.5238 163.47 41.4464 163.591 41.3619C163.669 41.3089 163.747 41.2543 163.824 41.1982C164.062 41.0238 164.295 40.8343 164.522 40.6296C164.523 40.6287 164.524 40.6277 164.525 40.6267C164.618 40.5434 164.709 40.4576 164.8 40.3693C164.807 40.3795 164.815 40.3896 164.822 40.3998C164.943 40.5608 165.076 40.7129 165.221 40.8559C165.55 41.1787 165.93 41.4391 166.361 41.6372C167.046 41.9524 167.862 42.1099 168.807 42.1099C169.629 42.1099 170.412 41.9625 171.156 41.6675C171.434 41.557 171.708 41.4258 171.975 41.2739C172.365 41.0564 172.719 40.8309 173.04 40.5977C173.067 41.071 173.127 41.4211 173.22 41.6479C173.367 41.9559 173.66 42.1099 174.1 42.1099C174.195 42.1099 174.287 42.1056 174.375 42.0969C175.316 42.0046 175.913 41.4223 176.168 40.3499C176.185 40.2831 176.201 40.2165 176.219 40.1501C176.325 39.7393 176.445 39.3379 176.58 38.9459C176.609 38.8624 176.638 38.7793 176.668 38.6966C176.779 38.3912 176.898 38.0917 177.026 37.7979C177.053 37.7366 177.08 37.6762 177.106 37.6167C177.119 37.5888 177.132 37.5612 177.144 37.5337C177.215 37.379 177.285 37.2308 177.356 37.0891C177.359 37.0837 177.361 37.0783 177.364 37.0729C177.379 37.043 177.394 37.0133 177.409 36.9839C177.482 36.8409 177.555 36.7048 177.628 36.5757C177.663 36.5142 177.698 36.4544 177.732 36.3961C177.849 36.2004 177.965 36.0223 178.082 35.8619C178.193 35.7054 178.295 35.5734 178.39 35.4659C178.584 35.2457 178.744 35.1288 178.872 35.1153C178.874 35.115 178.877 35.1147 178.88 35.1145C178.885 35.1141 178.891 35.1139 178.896 35.1139C178.917 35.1139 178.937 35.116 178.955 35.12C179.077 35.1468 179.138 35.2621 179.138 35.4659C179.138 35.6958 179.097 36.0476 179.016 36.5213C179.015 36.5272 179.014 36.5331 179.013 36.539C178.983 36.7142 178.947 36.9058 178.906 37.1139C178.889 37.1998 178.871 37.2885 178.852 37.3799C178.769 37.8092 178.702 38.1851 178.653 38.5077C178.599 38.8577 178.565 39.145 178.551 39.3695C178.547 39.4471 178.544 39.5173 178.544 39.5799C178.544 40.4013 178.735 41.0319 179.116 41.4719C179.497 41.8973 180.062 42.1099 180.81 42.1099C181.385 42.1099 181.92 42.0101 182.413 41.8105C182.699 41.6947 182.972 41.5451 183.23 41.3619C183.249 41.3488 183.268 41.3356 183.287 41.3223C183.583 41.1134 183.875 40.8807 184.164 40.6244C184.169 40.65 184.174 40.6752 184.18 40.7001C184.222 40.9006 184.272 41.0772 184.329 41.2299C184.562 41.8118 184.953 42.1051 185.503 42.1099C185.508 42.1099 185.512 42.1099 185.517 42.1099C185.972 42.1099 186.302 41.9926 186.507 41.7579C186.713 41.5248 186.893 41.0993 187.047 40.4814C187.058 40.4385 187.069 40.3947 187.079 40.3499C187.208 39.8153 187.363 39.2739 187.545 38.7259C187.606 38.5425 187.67 38.3582 187.737 38.1733C187.767 38.0923 187.797 38.0112 187.827 37.9299C187.879 37.7986 187.93 37.6711 187.982 37.5473C187.991 37.5272 187.999 37.5072 188.008 37.4873C188.057 37.3701 188.107 37.2563 188.157 37.146C188.161 37.1374 188.165 37.1288 188.169 37.1202C188.172 37.1134 188.175 37.1067 188.178 37.1C188.258 36.9272 188.337 36.7631 188.417 36.6074C188.53 36.3876 188.644 36.1849 188.759 35.9992C188.778 35.9676 188.798 35.9365 188.817 35.9059C188.93 35.7299 189.035 35.5833 189.135 35.4659C189.273 35.3034 189.398 35.1972 189.51 35.1472C189.519 35.1435 189.527 35.14 189.536 35.1369C189.576 35.1216 189.616 35.1139 189.653 35.1139C189.689 35.1139 189.72 35.1196 189.748 35.131C189.846 35.1714 189.895 35.283 189.895 35.4659C189.895 35.6692 189.867 36.0275 189.811 36.5407C189.792 36.7134 189.769 36.9037 189.744 37.1116C189.736 37.1773 189.728 37.2447 189.719 37.3139C189.653 37.7866 189.602 38.2094 189.566 38.5821C189.565 38.5921 189.564 38.6021 189.563 38.612C189.546 38.796 189.532 38.9677 189.521 39.127C189.506 39.3545 189.499 39.5568 189.499 39.7339C189.499 40.3939 189.616 40.9586 189.851 41.4279C190.1 41.8826 190.467 42.1099 190.951 42.1099C191.42 42.1099 191.758 41.9926 191.963 41.7579C192.183 41.5233 192.374 41.0539 192.535 40.3499C192.653 39.8692 192.791 39.4013 192.947 38.946C193.081 38.5539 193.23 38.1712 193.393 37.7979C193.431 37.7102 193.47 37.6244 193.508 37.5405C193.515 37.5243 193.523 37.5083 193.53 37.4923C193.58 37.3844 193.629 37.2797 193.679 37.1783C193.694 37.1482 193.708 37.1185 193.723 37.0891C193.726 37.0837 193.728 37.0783 193.731 37.0729C193.819 36.8971 193.907 36.7313 193.995 36.5757C194.079 36.4269 194.163 36.2874 194.247 36.157C194.249 36.1549 194.25 36.1527 194.252 36.1505C194.283 36.1015 194.315 36.0539 194.347 36.0075C194.381 35.9575 194.415 35.909 194.449 35.8619C194.56 35.7054 194.662 35.5734 194.757 35.4659C194.964 35.2313 195.132 35.1139 195.263 35.1139C195.285 35.1139 195.305 35.1161 195.324 35.1204C195.445 35.1479 195.505 35.2631 195.505 35.4659C195.505 35.6958 195.464 36.0476 195.383 36.5213C195.382 36.5272 195.381 36.5331 195.38 36.539C195.35 36.7142 195.314 36.9058 195.273 37.1139C195.256 37.1998 195.238 37.2885 195.219 37.3799C195.136 37.8092 195.069 38.1851 195.02 38.5077C194.966 38.8577 194.932 39.145 194.918 39.3695C194.913 39.4472 194.911 39.5173 194.911 39.5799C194.911 40.4013 195.102 41.0319 195.483 41.4719C195.864 41.8973 196.429 42.1099 197.177 42.1099C197.945 42.1099 198.642 41.9378 199.268 41.5935C199.395 41.5235 199.52 41.4463 199.641 41.3619C199.719 41.3089 199.796 41.2544 199.873 41.1982C200.112 41.0238 200.344 40.8343 200.572 40.6296C200.573 40.6287 200.574 40.6277 200.575 40.6267C200.667 40.5432 200.759 40.4572 200.85 40.3687C200.857 40.3789 200.865 40.3891 200.872 40.3992C200.993 40.5605 201.126 40.7127 201.272 40.8559C201.6 41.1785 201.98 41.4388 202.411 41.6369C203.097 41.9523 203.912 42.1099 204.858 42.1099C205.735 42.1099 206.567 41.9421 207.355 41.6063C207.583 41.5095 207.806 41.3987 208.026 41.2739C208.443 41.041 208.82 40.7991 209.158 40.5482C209.206 40.8125 209.266 41.0397 209.337 41.2299C209.556 41.7769 209.915 42.0689 210.414 42.1059C210.45 42.1086 210.487 42.1099 210.525 42.1099C210.98 42.1099 211.31 41.9926 211.515 41.7579C211.719 41.5271 211.897 41.1076 212.051 40.4995C212.063 40.4509 212.075 40.401 212.087 40.3499C212.244 39.7091 212.436 39.0908 212.661 38.495C212.691 38.4173 212.721 38.3399 212.751 38.2629C212.813 38.1063 212.878 37.9513 212.945 37.7979C212.97 37.7428 212.995 37.6883 213.02 37.6346C213.029 37.6143 213.039 37.5942 213.048 37.5741C213.067 37.5345 213.085 37.4953 213.104 37.4566C213.104 37.4554 213.105 37.4543 213.105 37.4532C213.151 37.3579 213.196 37.2651 213.241 37.1749C213.347 36.9635 213.451 36.7661 213.554 36.5826C213.61 36.4825 213.666 36.3864 213.721 36.2946C213.816 36.1383 213.909 35.9941 214.001 35.8619C214.111 35.7054 214.214 35.5734 214.309 35.4659C214.503 35.2457 214.663 35.1288 214.79 35.1153C214.799 35.1144 214.807 35.1139 214.815 35.1139C214.836 35.1139 214.856 35.116 214.874 35.12C214.996 35.1468 215.057 35.2621 215.057 35.4659C215.057 35.6626 215.024 36.0171 214.959 36.5296C214.959 36.5322 214.958 36.5348 214.958 36.5375C214.936 36.7112 214.91 36.903 214.88 37.1128C214.854 37.2978 214.825 37.4969 214.793 37.7099C214.747 38.0092 214.707 38.2896 214.671 38.5513C214.67 38.5612 214.669 38.5711 214.667 38.5809C214.648 38.7226 214.631 38.8588 214.615 38.9894C214.528 39.6916 214.485 40.2331 214.485 40.6139C214.485 41.1126 214.595 41.4866 214.815 41.7359C215.035 41.9853 215.387 42.1099 215.871 42.1099C216.384 42.1099 216.751 41.9926 216.971 41.7579C217.206 41.5086 217.323 41.1053 217.323 40.5479C217.323 39.5653 217.367 38.6779 217.455 37.8859C217.543 37.0793 217.66 36.2286 217.807 35.3339C217.968 34.2779 218.049 33.5593 218.049 33.1779C218.049 32.7086 217.924 32.3566 217.675 32.1219C217.44 31.8726 217.088 31.7479 216.619 31.7479C216.135 31.7479 215.6 31.9166 215.013 32.2539C214.846 32.3523 214.678 32.4701 214.509 32.6071C214.239 32.8257 213.965 33.0934 213.689 33.4103C213.545 33.5761 213.399 33.7553 213.253 33.9479C213.216 33.9966 213.179 34.0461 213.143 34.0964C213.139 34.1011 213.136 34.1059 213.133 34.1106C212.959 34.3512 212.791 34.6118 212.627 34.8925C212.626 34.8954 212.624 34.8983 212.622 34.9012C212.513 35.089 212.406 35.2857 212.302 35.4913C212.219 35.6539 212.138 35.822 212.058 35.9957C211.979 36.1671 211.902 36.344 211.826 36.5263C211.807 36.5716 211.788 36.6172 211.769 36.6632C211.72 36.7825 211.672 36.9041 211.625 37.0279C211.634 36.9263 211.644 36.8271 211.654 36.7305C211.657 36.6981 211.66 36.666 211.664 36.6341C211.7 36.2953 211.742 35.989 211.787 35.7152C211.793 35.6803 211.799 35.646 211.805 35.6121C211.818 35.5389 211.831 35.4682 211.845 35.3999C211.933 34.9599 212.05 34.4466 212.197 33.8599C212.256 33.6397 212.307 33.4406 212.35 33.2625C212.468 32.7765 212.527 32.4477 212.527 32.2759C212.527 32.0871 212.477 31.9541 212.378 31.8769C212.369 31.8702 212.36 31.8638 212.351 31.8579C212.234 31.7846 212.028 31.7479 211.735 31.7479C211.192 31.7479 210.767 31.8506 210.459 32.0559C210.166 32.2466 209.953 32.5546 209.821 32.9799C209.771 33.1376 209.723 33.2962 209.678 33.4555C209.574 33.8207 209.483 34.1902 209.403 34.5639C209.355 34.7867 209.312 35.011 209.273 35.2368C209.174 35.8101 209.103 36.3932 209.059 36.986C209.059 36.9911 209.058 36.9963 209.058 37.0014C209.048 37.1311 209.04 37.2612 209.033 37.3918C209.023 37.5886 209.016 37.7864 209.011 37.9853C208.978 38.0185 208.944 38.0514 208.91 38.0839C208.885 38.107 208.861 38.13 208.836 38.1527C208.825 38.1637 208.813 38.1746 208.801 38.1855C208.795 38.1908 208.789 38.1962 208.783 38.2015C208.778 38.2059 208.773 38.2104 208.769 38.2148C208.761 38.2217 208.753 38.2286 208.746 38.2355C208.741 38.2391 208.737 38.2428 208.733 38.2464C208.669 38.3034 208.605 38.3592 208.539 38.4139C208.175 38.7169 207.782 38.9853 207.36 39.2194C207.354 39.2223 207.349 39.2251 207.344 39.2279C207.238 39.2859 207.132 39.3402 207.029 39.3908C206.319 39.7369 205.676 39.9099 205.1 39.9099C204.602 39.9099 204.181 39.8304 203.838 39.6714C203.557 39.5411 203.328 39.3574 203.152 39.1203C203.134 39.0968 203.117 39.0727 203.101 39.0482C203.069 39.0001 203.038 38.95 203.01 38.8979C203.028 38.8937 203.045 38.8894 203.062 38.8851C203.424 38.795 203.764 38.6984 204.081 38.5954C204.451 38.475 204.791 38.3458 205.1 38.2077C205.412 38.0684 205.693 37.92 205.943 37.7626C206.058 37.6905 206.166 37.6165 206.267 37.5406C206.275 37.5349 206.282 37.5293 206.29 37.5235C206.435 37.4136 206.566 37.2997 206.684 37.1819C206.828 37.0386 206.957 36.8899 207.072 36.7359C207.547 36.1021 207.784 35.3781 207.784 34.5639C207.784 34.1511 207.726 33.78 207.609 33.4506C207.481 33.0896 207.283 32.7787 207.014 32.5179C206.501 32.0046 205.819 31.7479 204.968 31.7479C204.015 31.7479 203.157 32.0046 202.394 32.5179C201.646 33.0313 201.06 33.7279 200.634 34.6079C200.514 34.853 200.41 35.1039 200.324 35.3607C200.183 35.7803 200.087 36.2157 200.037 36.6668C200.037 36.6722 200.036 36.6776 200.036 36.6831C200.009 36.9255 199.996 37.1725 199.996 37.4239C199.996 37.7254 200.015 38.0136 200.051 38.2885C200.054 38.3127 200.058 38.3368 200.061 38.3608C199.757 38.6939 199.492 38.961 199.267 39.1619C199.091 39.3189 198.924 39.4408 198.768 39.5278C198.605 39.6186 198.453 39.6713 198.312 39.6858C198.285 39.6886 198.259 39.6899 198.233 39.6899C197.808 39.6899 197.595 39.3966 197.595 38.8099C197.595 38.3993 197.734 37.5559 198.013 36.2799C198.336 34.7839 198.497 33.7499 198.497 33.1779C198.497 32.2246 198.02 31.7479 197.067 31.7479C196.349 31.7479 195.581 32.0985 194.762 32.7996C194.695 32.8573 194.627 32.9174 194.559 32.9799C194.49 33.043 194.422 33.109 194.354 33.1779C194.281 33.2521 194.209 33.3295 194.137 33.4104C193.777 33.8157 193.431 34.3055 193.098 34.8796C193.094 34.8864 193.09 34.8933 193.087 34.9001C192.927 35.1765 192.771 35.4723 192.618 35.7875C192.618 35.7878 192.618 35.7881 192.618 35.7885C192.447 36.1407 192.28 36.5172 192.117 36.9179C192.161 36.6539 192.242 36.2579 192.359 35.7299C192.399 35.5543 192.436 35.3865 192.47 35.2264C192.675 34.2632 192.777 33.5804 192.777 33.1779C192.777 32.7622 192.696 32.4384 192.534 32.2066C192.507 32.1686 192.478 32.133 192.447 32.0999C192.242 31.8653 191.882 31.7479 191.369 31.7479C190.856 31.7479 190.306 31.9459 189.719 32.3419C189.65 32.3882 189.58 32.4376 189.511 32.4899C189.203 32.723 188.897 33.0162 188.593 33.3694C188.409 33.5824 188.227 33.8172 188.045 34.0739C188.042 34.0782 188.039 34.0825 188.036 34.0867C188.032 34.0918 188.029 34.0969 188.025 34.1019C187.827 34.3909 187.639 34.7033 187.46 35.0392C187.384 35.1819 187.31 35.3289 187.238 35.4801C187.238 35.481 187.237 35.4818 187.237 35.4827C187.162 35.6395 187.089 35.8008 187.018 35.9667C186.938 36.1529 186.86 36.3449 186.785 36.5426C186.769 36.5858 186.752 36.6293 186.736 36.6731C186.696 36.7823 186.656 36.8933 186.617 37.0059C186.626 36.9105 186.635 36.8174 186.644 36.7268C186.647 36.6942 186.651 36.6618 186.654 36.6298C186.691 36.292 186.731 35.9888 186.777 35.7205C186.796 35.6075 186.816 35.5006 186.837 35.3999C186.845 35.3601 186.853 35.3197 186.862 35.2787C186.947 34.8664 187.056 34.3935 187.189 33.8599C187.215 33.7624 187.24 33.669 187.263 33.5797C187.264 33.5757 187.265 33.5717 187.266 33.5677C187.435 32.9121 187.519 32.4815 187.519 32.2759C187.519 32.0706 187.46 31.9313 187.343 31.8579C187.326 31.8474 187.307 31.8376 187.287 31.8285C187.165 31.7748 186.978 31.7479 186.727 31.7479C186.184 31.7479 185.759 31.8506 185.451 32.0559C185.158 32.2466 184.945 32.5546 184.813 32.9799C184.581 33.7138 184.399 34.4651 184.266 35.2338C184.166 35.8103 184.094 36.3966 184.051 36.9927C184.05 36.9958 184.05 36.9989 184.05 37.002C184.026 37.3368 184.01 37.6747 184.003 38.0157C183.983 38.0387 183.963 38.0615 183.943 38.0839C183.914 38.1162 183.886 38.148 183.858 38.1792C183.857 38.1804 183.856 38.1816 183.855 38.1827C183.832 38.2082 183.81 38.2333 183.788 38.2581C183.739 38.3116 183.692 38.3636 183.646 38.4139C183.362 38.7225 183.113 38.9718 182.9 39.1619C182.668 39.3683 182.454 39.5141 182.257 39.5995C182.181 39.6325 182.107 39.6564 182.037 39.6714C181.978 39.6838 181.921 39.6899 181.866 39.6899C181.441 39.6899 181.228 39.3966 181.228 38.8099C181.228 38.3993 181.367 37.5559 181.646 36.2799C181.969 34.7839 182.13 33.7499 182.13 33.1779C182.13 32.2263 181.655 31.7497 180.705 31.748C180.704 31.748 180.702 31.7479 180.7 31.7479C180.216 31.7479 179.681 31.9166 179.094 32.2539C178.661 32.5092 178.22 32.8947 177.77 33.4103C177.626 33.5761 177.48 33.7553 177.334 33.9479C177.163 34.1752 176.995 34.4225 176.833 34.6899C176.796 34.7501 176.76 34.8114 176.723 34.8738C176.719 34.8806 176.715 34.8875 176.711 34.8944C176.64 35.0179 176.569 35.1454 176.499 35.277C176.361 35.5379 176.226 35.8145 176.094 36.1068C176.051 36.2024 176.009 36.2996 175.967 36.3985C175.944 36.4511 175.922 36.5041 175.899 36.5576C175.842 36.6965 175.785 36.8386 175.728 36.9839C175.728 36.8745 175.729 36.7655 175.729 36.6568C175.73 36.6232 175.73 36.5896 175.73 36.5561C175.733 36.3201 175.737 36.0861 175.743 35.854C175.744 35.8107 175.745 35.7674 175.747 35.7242C175.751 35.5796 175.756 35.4358 175.762 35.2927C175.771 35.0699 175.781 34.849 175.794 34.6299C176.139 34.2541 176.467 33.8867 176.777 33.5278C176.778 33.5273 176.778 33.5268 176.779 33.5263C176.951 33.3272 177.118 33.1307 177.28 32.9368C177.512 32.6594 177.733 32.3874 177.944 32.1207C177.975 32.0811 178.006 32.0416 178.037 32.0022C178.215 31.7738 178.386 31.5494 178.549 31.3289C178.551 31.3254 178.554 31.3219 178.556 31.3185C178.916 30.8304 179.237 30.3617 179.519 29.9125C179.676 29.6623 179.821 29.4181 179.954 29.18C179.957 29.1748 179.96 29.1697 179.963 29.1645C179.981 29.1309 180 29.0974 180.018 29.0639C180.421 28.32 180.73 27.5888 180.945 26.8703C181.192 26.0448 181.316 25.236 181.316 24.4439C181.316 23.5199 181.103 22.7719 180.678 22.1999C180.267 21.6133 179.725 21.3199 179.05 21.3199C178.577 21.3199 178.129 21.4376 177.705 21.6728C177.173 21.9683 176.68 22.4494 176.226 23.116C176.078 23.3336 175.934 23.5709 175.794 23.8279C174.899 25.4853 174.217 27.5386 173.748 29.9879C173.588 30.8522 173.456 31.7045 173.352 32.545C173.268 33.2258 173.202 33.8987 173.155 34.5639C173.138 34.8028 173.124 35.0406 173.112 35.2775C173.082 35.8698 173.066 36.4559 173.066 37.0357C173.066 37.0405 173.066 37.0452 173.066 37.0499L173.056 37.8899C172.991 37.9559 172.926 38.0206 172.859 38.0839C172.835 38.107 172.81 38.13 172.786 38.1527C172.774 38.1637 172.762 38.1746 172.75 38.1855C172.744 38.1908 172.738 38.1962 172.732 38.2015C172.728 38.2059 172.723 38.2104 172.718 38.2148C172.71 38.2217 172.702 38.2286 172.695 38.2355C172.691 38.2391 172.687 38.2428 172.683 38.2464C172.479 38.4281 172.265 38.5984 172.042 38.7572C172.024 38.7705 172.005 38.7836 171.986 38.7967C171.769 38.9483 171.544 39.0892 171.309 39.2194C171.304 39.2223 171.299 39.2251 171.293 39.2279C171.203 39.277 171.114 39.3233 171.026 39.367C170.297 39.729 169.638 39.9099 169.049 39.9099C168.551 39.9099 168.131 39.8306 167.788 39.6718C167.507 39.5415 167.278 39.3576 167.101 39.1203C167.084 39.0968 167.067 39.0727 167.05 39.0482C167.018 39.0001 166.988 38.95 166.959 38.8979C166.977 38.8937 166.994 38.8894 167.012 38.8851C167.374 38.7949 167.713 38.6982 168.031 38.5951C168.401 38.4748 168.74 38.3457 169.049 38.2077C169.362 38.0684 169.643 37.92 169.893 37.7626C170.007 37.6905 170.115 37.6165 170.216 37.5406C170.224 37.5349 170.232 37.5292 170.239 37.5235C170.384 37.4136 170.516 37.2997 170.633 37.1819C170.796 37.0189 170.941 36.849 171.068 36.6722C171.512 36.0537 171.733 35.351 171.733 34.5639C171.733 33.9111 171.587 33.3625 171.295 32.9184C171.2 32.7739 171.089 32.6404 170.963 32.5179C170.45 32.0046 169.768 31.7479 168.917 31.7479C167.964 31.7479 167.106 32.0046 166.343 32.5179C165.595 33.0313 165.009 33.7279 164.583 34.6079C164.463 34.8532 164.359 35.1043 164.273 35.3613C164.132 35.7805 164.037 36.2154 163.987 36.666C163.986 36.6714 163.985 36.6768 163.985 36.6823C163.959 36.925 163.945 37.1722 163.945 37.4239C163.945 37.7258 163.964 38.0143 164.001 38.2896C164.004 38.3137 164.007 38.3378 164.011 38.3618C163.707 38.6944 163.442 38.9612 163.217 39.1619C163.041 39.3189 162.874 39.4408 162.718 39.5278C162.555 39.6188 162.403 39.6716 162.261 39.6859C162.235 39.6886 162.209 39.6899 162.183 39.6899C161.758 39.6899 161.545 39.3966 161.545 38.8099C161.545 38.3993 161.685 37.5559 161.963 36.2799C162.286 34.7839 162.447 33.7499 162.447 33.1779C162.447 32.2246 161.971 31.7479 161.017 31.7479C160.533 31.7479 159.998 31.9166 159.411 32.2539C159.244 32.3523 159.076 32.4701 158.907 32.6071C158.637 32.8257 158.364 33.0934 158.088 33.4103C157.943 33.5761 157.798 33.7553 157.651 33.9479C157.614 33.9966 157.578 34.0461 157.541 34.0964C157.538 34.1011 157.534 34.1059 157.531 34.1106C157.391 34.305 157.254 34.5124 157.121 34.733C157.089 34.7854 157.057 34.8386 157.026 34.8925C157.024 34.8954 157.023 34.8983 157.021 34.9012C156.912 35.089 156.805 35.2857 156.7 35.4913C156.601 35.6874 156.503 35.8916 156.407 36.1039C156.275 36.3965 156.147 36.7045 156.023 37.0279C156.054 36.6921 156.088 36.3841 156.127 36.1039C156.151 35.9292 156.176 35.7653 156.203 35.6121C156.216 35.5389 156.23 35.4682 156.243 35.3999C156.282 35.2058 156.327 34.9974 156.377 34.7747C156.392 34.7098 156.407 34.6438 156.422 34.5765C156.469 34.3733 156.521 34.159 156.577 33.9337C156.583 33.9092 156.589 33.8847 156.595 33.8599C156.654 33.6397 156.705 33.4406 156.749 33.2625C156.866 32.7765 156.925 32.4477 156.925 32.2759C156.925 32.0871 156.876 31.9541 156.777 31.8769C156.768 31.8702 156.759 31.8638 156.749 31.8579C156.632 31.7846 156.427 31.7479 156.133 31.7479C155.591 31.7479 155.165 31.8506 154.857 32.0559C154.67 32.1779 154.515 32.3479 154.393 32.5658C154.325 32.6886 154.267 32.8267 154.219 32.9799C154.199 33.0458 154.178 33.1118 154.158 33.1779C154.15 33.2058 154.141 33.2336 154.133 33.2615C153.98 33.7776 153.85 34.3022 153.746 34.8354C153.744 34.8451 153.742 34.8547 153.74 34.8644C153.734 34.8929 153.729 34.9215 153.723 34.95C153.721 34.9623 153.719 34.9746 153.716 34.9868C153.674 35.211 153.637 35.4367 153.603 35.6639C153.586 35.7814 153.57 35.8993 153.555 36.0175C153.554 36.0221 153.553 36.0266 153.553 36.0312C153.552 36.0316 153.552 36.0321 153.551 36.0326C153.517 36.0575 153.484 36.0813 153.451 36.1039C153.445 36.1082 153.439 36.1124 153.432 36.1166C153.424 36.1222 153.416 36.1278 153.408 36.1333C153.407 36.1338 153.406 36.1344 153.405 36.1349C153.376 36.1543 153.347 36.1727 153.318 36.1903C153.053 36.3527 152.818 36.4339 152.612 36.4339C152.245 36.4339 152.062 36.1773 152.062 35.6639C152.062 35.5173 152.12 35.1506 152.238 34.5639C152.242 34.542 152.245 34.5203 152.249 34.4988C152.373 33.8032 152.436 33.3629 152.436 33.1779C152.436 32.8811 152.389 32.6305 152.297 32.426C152.093 31.974 151.662 31.7479 151.006 31.7479C150.522 31.7479 149.986 31.9166 149.4 32.2539C149.233 32.3523 149.065 32.4701 148.895 32.6071C148.612 32.8366 148.325 33.1202 148.035 33.458C147.904 33.6103 147.772 33.7736 147.64 33.9479C147.603 33.9966 147.566 34.0461 147.53 34.0964C147.526 34.1011 147.523 34.1059 147.519 34.1106C147.352 34.3431 147.189 34.5943 147.031 34.8642C147.029 34.8668 147.028 34.8693 147.026 34.8718C146.911 35.0684 146.799 35.2749 146.689 35.4913C146.606 35.6539 146.525 35.822 146.445 35.9957C146.366 36.1671 146.288 36.344 146.212 36.5263C146.193 36.5716 146.175 36.6172 146.156 36.6632C146.107 36.7825 146.059 36.9041 146.012 37.0279C146.021 36.9263 146.03 36.8271 146.04 36.7305C146.044 36.6981 146.047 36.666 146.051 36.6341C146.087 36.2953 146.128 35.989 146.174 35.7152C146.181 35.6707 146.189 35.6269 146.197 35.5841C146.208 35.5208 146.22 35.4595 146.232 35.3999C146.32 34.9599 146.437 34.4466 146.584 33.8599C146.643 33.6397 146.694 33.4406 146.737 33.2625C146.855 32.7765 146.914 32.4477 146.914 32.2759C146.914 32.0871 146.864 31.9541 146.765 31.8769C146.756 31.8702 146.747 31.8638 146.738 31.8579C146.62 31.7846 146.415 31.7479 146.122 31.7479C145.579 31.7479 145.154 31.8506 144.846 32.0559C144.552 32.2466 144.34 32.5546 144.208 32.9799C144.158 33.1376 144.11 33.2961 144.065 33.4555C143.961 33.8207 143.869 34.1902 143.79 34.5639C143.742 34.7867 143.699 35.011 143.66 35.2368C143.561 35.8101 143.489 36.3932 143.446 36.986C143.445 36.9911 143.445 36.9963 143.445 37.0014C143.435 37.1311 143.427 37.2612 143.42 37.3918C143.41 37.5886 143.403 37.7864 143.398 37.9853C143.365 38.0185 143.331 38.0514 143.296 38.0839C143.272 38.107 143.248 38.13 143.223 38.1527C143.211 38.1637 143.199 38.1746 143.187 38.1855C143.182 38.1908 143.176 38.1962 143.17 38.2015C143.165 38.2059 143.16 38.2104 143.155 38.2148C143.148 38.2217 143.14 38.2286 143.132 38.2355C143.128 38.2391 143.124 38.2428 143.12 38.2464C143.056 38.3034 142.991 38.3592 142.926 38.4139C142.561 38.7169 142.168 38.9854 141.746 39.2194C141.741 39.2223 141.736 39.2251 141.731 39.2279C141.624 39.2859 141.519 39.3402 141.415 39.3908C140.705 39.7369 140.063 39.9099 139.487 39.9099C138.994 39.9099 138.576 39.8321 138.236 39.6763C137.95 39.5457 137.717 39.3604 137.539 39.1203C137.521 39.0968 137.504 39.0727 137.488 39.0482C137.455 39.0001 137.425 38.95 137.397 38.8979C137.414 38.8937 137.432 38.8894 137.449 38.8851C137.816 38.7938 138.159 38.6958 138.48 38.5912C138.846 38.472 139.181 38.3442 139.487 38.2077C139.799 38.0684 140.08 37.92 140.33 37.7626C140.445 37.6905 140.553 37.6165 140.654 37.5406C140.662 37.5349 140.669 37.5293 140.677 37.5235C140.822 37.4136 140.953 37.2997 141.071 37.1819C141.214 37.0386 141.344 36.8899 141.459 36.7359C141.934 36.1021 142.171 35.3781 142.171 34.5639C142.171 34.1511 142.112 33.78 141.996 33.4506C141.868 33.0896 141.669 32.7787 141.401 32.5179C140.888 32.0046 140.206 31.7479 139.355 31.7479C138.44 31.7479 137.613 31.9843 136.874 32.4571C136.843 32.4769 136.812 32.4972 136.781 32.5179C136.033 33.0313 135.446 33.7279 135.021 34.6079C134.899 34.8553 134.795 35.1086 134.708 35.3679C134.697 35.4024 134.686 35.4369 134.675 35.4716C134.555 35.8518 134.472 36.2448 134.426 36.6506C134.426 36.6527 134.425 36.6549 134.425 36.6571C134.397 36.9078 134.383 37.1635 134.383 37.4239C134.383 37.73 134.402 38.0225 134.44 38.3012C134.441 38.3105 134.442 38.3198 134.443 38.3291C134.374 38.3998 134.305 38.4677 134.238 38.5329C134.003 38.7619 133.783 38.9569 133.578 39.1179C133.3 39.3374 132.997 39.4937 132.67 39.5869C132.428 39.6556 132.174 39.6899 131.906 39.6899C131.129 39.6899 130.557 39.3819 130.19 38.7659C130.045 38.512 129.93 38.1808 129.845 37.7724C129.805 37.5848 129.773 37.381 129.746 37.1608C129.69 36.6974 129.662 36.1618 129.662 35.5539C129.662 35.1949 129.673 34.7125 129.696 34.1067C129.699 34.0197 129.702 33.9301 129.706 33.8379H132.39C132.684 33.8379 132.953 33.822 133.195 33.7901C133.23 33.7855 133.264 33.7805 133.298 33.7752C133.305 33.7741 133.313 33.773 133.32 33.7718C133.572 33.7312 133.793 33.6719 133.984 33.5939C134.002 33.5867 134.019 33.5793 134.036 33.5718C134.1 33.5438 134.16 33.5136 134.216 33.4813C134.656 33.2285 134.876 32.8414 134.876 32.3199C134.876 32.0413 134.825 31.8506 134.722 31.7479C134.703 31.7283 134.68 31.7105 134.656 31.6946C134.608 31.6637 134.551 31.6399 134.486 31.6232C134.408 31.6037 134.319 31.5939 134.216 31.5939H131.752C131.779 31.5703 131.806 31.5465 131.832 31.5227C131.862 31.4959 131.891 31.469 131.92 31.442C132.552 30.8602 133.072 30.2442 133.482 29.5939C133.494 29.5736 133.507 29.5533 133.52 29.5329C133.522 29.5293 133.524 29.5256 133.526 29.522C133.928 28.8683 134.218 28.1802 134.397 27.4579C134.54 26.8786 134.612 26.2773 134.612 25.6539C134.612 24.8326 134.436 24.1506 134.084 23.6079C133.732 23.0653 133.248 22.7939 132.632 22.7939C132.367 22.7939 132.107 22.8337 131.853 22.9133C131.304 23.0847 130.779 23.4409 130.278 23.9819C130.033 24.2519 129.8 24.5534 129.579 24.8864C129.575 24.8922 129.571 24.898 129.567 24.9039C129.456 25.0732 129.347 25.2506 129.241 25.4361C128.947 25.9521 128.677 26.5307 128.43 27.1719C127.917 28.5066 127.536 29.9806 127.286 31.5939H126.032C125.997 31.5939 125.963 31.5951 125.93 31.5974C125.338 31.6385 125.042 32.048 125.042 32.8259C125.042 32.9564 125.052 33.0737 125.072 33.1779C125.107 33.3551 125.17 33.4944 125.262 33.5959C125.318 33.6522 125.392 33.6986 125.482 33.7352C125.65 33.8037 125.878 33.8379 126.164 33.8379H127.022C126.994 34.2643 126.975 34.6876 126.964 35.1078C126.959 35.3381 126.956 35.5675 126.956 35.7959C126.956 35.81 126.956 35.824 126.956 35.8379C126.957 36.2947 126.976 36.7264 127.013 37.1333C126.881 37.1804 126.759 37.27 126.646 37.4019C126.439 37.6501 126.244 37.8774 126.061 38.0839C126.031 38.1174 126.002 38.1504 125.973 38.1827C125.96 38.1977 125.947 38.2125 125.933 38.2271C125.924 38.2375 125.915 38.2478 125.906 38.2581C125.671 38.5182 125.459 38.741 125.269 38.9266C125.181 39.0132 125.097 39.0916 125.018 39.1619C124.842 39.3189 124.675 39.4408 124.519 39.5278C124.325 39.6359 124.147 39.6899 123.984 39.6899C123.559 39.6899 123.346 39.3966 123.346 38.8099C123.346 38.3993 123.485 37.5559 123.764 36.2799C123.853 35.8666 123.93 35.4886 123.995 35.1458C124.017 35.0265 124.038 34.9114 124.058 34.8006C124.065 34.7566 124.073 34.7133 124.08 34.6706C124.192 34.0126 124.248 33.5151 124.248 33.1779C124.248 33.0523 124.24 32.935 124.223 32.8259C124.131 32.2167 123.78 31.8657 123.171 31.7729C123.062 31.7563 122.944 31.7479 122.818 31.7479C122.334 31.7479 121.799 31.9166 121.212 32.2539C121.045 32.3523 120.877 32.4701 120.708 32.6071C120.438 32.8257 120.165 33.0934 119.888 33.4103C119.744 33.5761 119.598 33.7553 119.452 33.9479C119.415 33.9966 119.379 34.0461 119.342 34.0964C119.339 34.1011 119.335 34.1059 119.332 34.1106C119.158 34.3512 118.99 34.6118 118.827 34.8925C118.825 34.8954 118.823 34.8983 118.822 34.9012C118.713 35.089 118.606 35.2857 118.501 35.4913C118.418 35.6557 118.335 35.8257 118.255 36.0014C118.178 36.1689 118.102 36.3416 118.028 36.5195C118.009 36.5652 117.99 36.6112 117.971 36.6576C117.921 36.7787 117.872 36.9021 117.824 37.0279C117.833 36.9247 117.843 36.824 117.853 36.726C117.857 36.6933 117.86 36.6609 117.864 36.6288C117.9 36.2945 117.94 35.9919 117.986 35.721C117.992 35.6841 117.998 35.6478 118.004 35.6121C118.017 35.5389 118.03 35.4682 118.044 35.3999C118.132 34.9599 118.249 34.4466 118.396 33.8599C118.455 33.6397 118.506 33.4406 118.549 33.2625C118.667 32.7765 118.726 32.4477 118.726 32.2759C118.726 32.0871 118.676 31.9541 118.577 31.8769C118.569 31.8702 118.56 31.8638 118.55 31.8579C118.433 31.7846 118.227 31.7479 117.934 31.7479C117.391 31.7479 116.966 31.8506 116.658 32.0559C116.365 32.2466 116.152 32.5546 116.02 32.9799C115.788 33.7139 115.606 34.4653 115.473 35.2341C115.373 35.8103 115.301 36.3962 115.258 36.992C115.257 36.9951 115.257 36.9982 115.257 37.0013C115.233 37.3367 115.217 37.6752 115.21 38.0167C115.19 38.0394 115.17 38.0618 115.151 38.0839C115.121 38.1174 115.092 38.1504 115.063 38.1827C115.05 38.1977 115.036 38.2125 115.023 38.2271C115.014 38.2375 115.005 38.2478 114.995 38.2581C114.947 38.3116 114.9 38.3636 114.853 38.4139C114.569 38.7225 114.321 38.9718 114.108 39.1619C113.931 39.3189 113.765 39.4408 113.609 39.5278C113.48 39.5995 113.359 39.6474 113.244 39.6715C113.185 39.6838 113.129 39.6899 113.074 39.6899C112.883 39.6899 112.729 39.6166 112.612 39.4699C112.495 39.3086 112.436 39.0886 112.436 38.8099C112.436 38.3699 112.641 37.2113 113.052 35.3339C113.419 33.6913 113.602 32.6866 113.602 32.3199C113.602 32.0999 113.536 31.9533 113.404 31.8799C113.272 31.7919 113.037 31.7479 112.7 31.7479C112.216 31.7479 111.849 31.8433 111.6 32.0339C111.365 32.2246 111.189 32.5399 111.072 32.9799C110.72 34.2853 110.353 35.3853 109.972 36.2799C109.922 36.4011 109.873 36.5181 109.824 36.631C109.667 36.9911 109.513 37.3088 109.362 37.584C109.309 37.6803 109.256 37.7715 109.204 37.8574C109.171 37.9112 109.138 37.963 109.106 38.0127C109.085 38.0446 109.064 38.0757 109.043 38.1059C109.001 38.1682 108.958 38.2268 108.916 38.2819C108.826 38.4052 108.739 38.5111 108.657 38.5999C108.636 38.6223 108.616 38.6436 108.595 38.6638C108.409 38.8492 108.245 38.9419 108.102 38.9419C108.034 38.9419 107.974 38.9316 107.922 38.9108C107.85 38.8822 107.792 38.8339 107.75 38.7659C107.677 38.6339 107.64 38.4139 107.64 38.1059C107.64 37.9276 107.658 37.6874 107.693 37.3852C107.695 37.3728 107.696 37.3603 107.698 37.3478C107.711 37.234 107.727 37.1117 107.746 36.9809C107.784 36.7073 107.834 36.3965 107.894 36.0485C107.947 35.7374 108.009 35.3965 108.08 35.0259C108.168 34.5859 108.285 34.0946 108.432 33.5519C108.593 32.8773 108.674 32.4813 108.674 32.3639C108.674 32.1586 108.608 32.0046 108.476 31.9019C108.359 31.7993 108.139 31.7479 107.816 31.7479C107.244 31.7479 106.826 31.8433 106.562 32.0339C106.298 32.2246 106.093 32.5399 105.946 32.9799C105.609 34.0066 105.367 34.9819 105.22 35.9059C105.073 36.8153 105 37.8199 105 38.9199C105 39.8293 105.205 40.5919 105.616 41.2079C106.041 41.8093 106.584 42.1099 107.244 42.1099C107.658 42.1099 108.053 41.9717 108.428 41.6952C108.572 41.5896 108.712 41.4639 108.85 41.3179C109.045 41.106 109.22 40.8594 109.377 40.5781C109.612 40.1561 109.805 39.656 109.954 39.0779C109.957 39.0682 109.959 39.0585 109.962 39.0488C109.965 39.0352 109.969 39.0216 109.972 39.0079C109.972 39.0242 109.972 39.0403 109.972 39.0564C109.972 39.0683 109.972 39.0801 109.972 39.0919C109.976 39.437 109.999 39.7542 110.044 40.0437C110.12 40.5445 110.257 40.9619 110.456 41.2959C110.594 41.5181 110.763 41.6948 110.963 41.826C111.25 42.0153 111.602 42.1099 112.018 42.1099C112.593 42.1099 113.128 42.0135 113.623 41.8205C113.924 41.7033 114.21 41.5504 114.482 41.3619C114.56 41.3089 114.637 41.2543 114.714 41.1982C114.941 41.0326 115.162 40.8533 115.378 40.6603C115.381 40.6739 115.384 40.6874 115.387 40.7007C115.429 40.9009 115.479 41.0774 115.536 41.2299C115.771 41.8166 116.167 42.1099 116.724 42.1099C116.735 42.1099 116.747 42.1099 116.758 42.1097ZM138.266 36.769C137.957 36.9138 137.609 37.0368 137.222 37.1379C137.164 37.1531 137.105 37.1678 137.045 37.1819V37.1379C137.045 37.0706 137.046 37.0039 137.048 36.938C137.048 36.9332 137.048 36.9283 137.048 36.9235C137.049 36.9078 137.05 36.8922 137.05 36.8766C137.071 36.3823 137.151 35.9308 137.29 35.5221C137.368 35.2927 137.465 35.0768 137.581 34.8744C137.585 34.8662 137.59 34.8581 137.595 34.8499C137.976 34.2193 138.438 33.9039 138.981 33.9039C139.245 33.9039 139.45 33.9919 139.597 34.1679C139.758 34.3293 139.839 34.5493 139.839 34.8279C139.839 35.2666 139.676 35.6621 139.35 36.0145C139.297 36.0719 139.24 36.1282 139.178 36.1833C139.15 36.2084 139.121 36.2333 139.091 36.2579C138.857 36.451 138.582 36.6213 138.266 36.769ZM129.926 31.2639C129.965 30.9801 130.005 30.7025 130.048 30.4311C130.178 29.605 130.328 28.8371 130.497 28.1274C130.498 28.124 130.498 28.1205 130.499 28.1171C130.506 28.0879 130.513 28.0589 130.52 28.0299C130.667 27.451 130.816 26.9485 130.968 26.5223C130.995 26.4486 131.021 26.3773 131.047 26.3082C131.061 26.2728 131.075 26.2381 131.088 26.2039C131.155 26.0354 131.222 25.8814 131.29 25.7419C131.4 25.5218 131.506 25.3452 131.607 25.212C131.61 25.2071 131.614 25.2023 131.618 25.1975C131.768 25.0031 131.908 24.9059 132.038 24.9059C132.096 24.9059 132.148 24.9196 132.195 24.947C132.413 25.0735 132.522 25.4925 132.522 26.2039C132.522 26.249 132.521 26.2945 132.52 26.3402C132.52 26.3456 132.519 26.3511 132.519 26.3565C132.513 26.5174 132.498 26.682 132.473 26.8505C132.464 26.9073 132.455 26.9646 132.444 27.0223C132.364 27.4553 132.224 27.9126 132.023 28.3942C132.021 28.3993 132.018 28.4044 132.016 28.4095C131.968 28.5237 131.917 28.6391 131.862 28.7559C131.584 29.3602 131.212 29.9269 130.745 30.4559C130.499 30.7358 130.226 31.0051 129.926 31.2639ZM132.526 35.837C132.481 35.8376 132.435 35.8379 132.39 35.8379H131.665C131.674 36.3956 131.712 36.8374 131.768 37.1765C131.8 37.3717 131.835 37.5172 131.868 37.6212C131.876 37.6476 131.884 37.6704 131.891 37.6898C131.896 37.6899 131.901 37.6899 131.906 37.6899C132.099 37.6899 132.218 37.6434 132.34 37.547C132.354 37.5359 132.369 37.5245 132.383 37.5127C132.383 37.4832 132.383 37.4536 132.383 37.4239C132.383 36.884 132.43 36.3543 132.526 35.837ZM176.036 31.8799C176.945 30.8093 177.693 29.6433 178.28 28.3819C178.313 28.3127 178.345 28.2438 178.376 28.1753C178.377 28.1731 178.378 28.1709 178.379 28.1687C178.391 28.1438 178.402 28.1188 178.413 28.0939C178.415 28.0896 178.417 28.0852 178.419 28.0808C178.688 27.4762 178.886 26.8993 179.013 26.3503C179.088 26.023 179.139 25.7056 179.164 25.3981C179.167 25.3564 179.17 25.3149 179.172 25.2736C179.173 25.2696 179.173 25.2657 179.173 25.2617C179.179 25.1566 179.182 25.0527 179.182 24.9499C179.182 24.4806 179.131 24.1213 179.028 23.8719C178.925 23.6226 178.779 23.4979 178.588 23.4979C178.577 23.4979 178.565 23.4987 178.554 23.5001C178.363 23.5236 178.158 23.742 177.937 24.1555C177.902 24.2203 177.868 24.29 177.832 24.3644C177.791 24.4505 177.75 24.543 177.708 24.6419C177.666 24.74 177.624 24.8426 177.582 24.9499C177.563 24.9982 177.544 25.0473 177.525 25.0974C177.269 25.7786 177.018 26.6336 176.771 27.6625C176.77 27.6678 176.769 27.673 176.767 27.6783C176.766 27.6855 176.764 27.6927 176.762 27.6999C176.514 28.7791 176.303 29.9423 176.128 31.1893C176.096 31.4167 176.066 31.6469 176.036 31.8799ZM167.819 36.7734C167.512 36.9163 167.167 37.0378 166.784 37.1379C166.726 37.1531 166.667 37.1678 166.607 37.1819V37.1379C166.607 37.0683 166.609 36.9994 166.611 36.9313C166.611 36.9287 166.611 36.9261 166.611 36.9235C166.612 36.9052 166.612 36.887 166.613 36.8688C166.634 36.3801 166.713 35.9334 166.851 35.5284C166.929 35.2967 167.027 35.0787 167.143 34.8744C167.148 34.8662 167.153 34.8581 167.157 34.8499C167.539 34.2193 168.001 33.9039 168.543 33.9039C168.807 33.9039 169.013 33.9919 169.159 34.1679C169.321 34.3293 169.401 34.5493 169.401 34.8279C169.401 35.2666 169.238 35.6621 168.913 36.0145C168.86 36.0719 168.802 36.1282 168.74 36.1833C168.712 36.2084 168.683 36.2333 168.653 36.2579C168.417 36.4529 168.139 36.6247 167.819 36.7734ZM203.869 36.7738C203.562 36.9165 203.218 37.0379 202.835 37.1379C202.777 37.1531 202.718 37.1678 202.658 37.1819V37.1379C202.658 37.0681 202.659 36.999 202.662 36.9307C202.662 36.9283 202.662 36.9259 202.662 36.9235C202.662 36.9049 202.663 36.8865 202.664 36.8681C202.685 36.3799 202.764 35.9336 202.901 35.529C202.98 35.2971 203.077 35.0789 203.194 34.8744C203.199 34.8662 203.203 34.8581 203.208 34.8499C203.59 34.2193 204.052 33.9039 204.594 33.9039C204.858 33.9039 205.064 33.9919 205.21 34.1679C205.372 34.3293 205.452 34.5493 205.452 34.8279C205.452 35.2666 205.289 35.6621 204.963 36.0145C204.91 36.0719 204.853 36.1282 204.791 36.1833C204.763 36.2084 204.734 36.2333 204.704 36.2579C204.467 36.4531 204.189 36.625 203.869 36.7738Z" fill="white"/>
<path d="M107.244 42.1099C106.584 42.1099 106.041 41.8093 105.616 41.2079C105.205 40.5919 105 39.8293 105 38.9199C105 37.8199 105.073 36.8153 105.22 35.9059C105.367 34.9819 105.609 34.0066 105.946 32.9799C106.093 32.5399 106.298 32.2246 106.562 32.0339C106.826 31.8433 107.244 31.7479 107.816 31.7479C108.139 31.7479 108.359 31.7993 108.476 31.9019C108.608 32.0046 108.674 32.1586 108.674 32.3639C108.674 32.4813 108.593 32.8773 108.432 33.5519C108.285 34.0946 108.168 34.5859 108.08 35.0259C107.787 36.5659 107.64 37.5926 107.64 38.1059C107.64 38.4139 107.677 38.6339 107.75 38.7659C107.823 38.8833 107.941 38.9419 108.102 38.9419C108.322 38.9419 108.593 38.7219 108.916 38.2819C109.253 37.8419 109.605 37.1746 109.972 36.2799C110.353 35.3853 110.72 34.2853 111.072 32.9799C111.189 32.5399 111.365 32.2246 111.6 32.0339C111.849 31.8433 112.216 31.7479 112.7 31.7479C113.037 31.7479 113.272 31.7919 113.404 31.8799C113.536 31.9533 113.602 32.0999 113.602 32.3199C113.602 32.6866 113.419 33.6913 113.052 35.3339C112.641 37.2113 112.436 38.3699 112.436 38.8099C112.436 39.0886 112.495 39.3086 112.612 39.4699C112.729 39.6166 112.883 39.6899 113.074 39.6899C113.367 39.6899 113.712 39.5139 114.108 39.1619C114.519 38.7953 115.061 38.2086 115.736 37.4019C115.912 37.1966 116.11 37.0939 116.33 37.0939C116.521 37.0939 116.667 37.1819 116.77 37.3579C116.887 37.5339 116.946 37.7759 116.946 38.0839C116.946 38.6706 116.807 39.1253 116.528 39.4479C115.897 40.2253 115.215 40.8633 114.482 41.3619C113.763 41.8606 112.942 42.1099 112.018 42.1099C111.314 42.1099 110.793 41.8386 110.456 41.2959C110.133 40.7533 109.972 39.9906 109.972 39.0079C109.723 40.0053 109.349 40.7753 108.85 41.3179C108.351 41.8459 107.816 42.1099 107.244 42.1099Z" fill="#00A885"/>
<path d="M116.724 42.1099C116.167 42.1099 115.771 41.8166 115.536 41.2299C115.316 40.6433 115.206 39.7046 115.206 38.4139C115.206 36.5073 115.477 34.6959 116.02 32.9799C116.152 32.5546 116.365 32.2466 116.658 32.0559C116.966 31.8506 117.391 31.7479 117.934 31.7479C118.227 31.7479 118.433 31.7846 118.55 31.8579C118.667 31.9313 118.726 32.0706 118.726 32.2759C118.726 32.5106 118.616 33.0386 118.396 33.8599C118.249 34.4466 118.132 34.9599 118.044 35.3999C117.956 35.8399 117.883 36.3826 117.824 37.0279C118.308 35.7666 118.851 34.7399 119.452 33.9479C120.053 33.1559 120.64 32.5913 121.212 32.2539C121.799 31.9166 122.334 31.7479 122.818 31.7479C123.771 31.7479 124.248 32.2246 124.248 33.1779C124.248 33.7499 124.087 34.7839 123.764 36.2799C123.485 37.5559 123.346 38.3993 123.346 38.8099C123.346 39.3966 123.559 39.6899 123.984 39.6899C124.277 39.6899 124.622 39.5139 125.018 39.1619C125.429 38.7953 125.971 38.2086 126.646 37.4019C126.822 37.1966 127.02 37.0939 127.24 37.0939C127.431 37.0939 127.577 37.1819 127.68 37.3579C127.797 37.5339 127.856 37.7759 127.856 38.0839C127.856 38.6706 127.717 39.1253 127.438 39.4479C126.807 40.2253 126.125 40.8633 125.392 41.3619C124.673 41.8606 123.852 42.1099 122.928 42.1099C122.18 42.1099 121.615 41.8973 121.234 41.4719C120.853 41.0319 120.662 40.4013 120.662 39.5799C120.662 39.1693 120.765 38.4359 120.97 37.3799C121.161 36.4559 121.256 35.8179 121.256 35.4659C121.256 35.2313 121.175 35.1139 121.014 35.1139C120.823 35.1139 120.552 35.3633 120.2 35.8619C119.863 36.3459 119.511 36.9913 119.144 37.7979C118.792 38.6046 118.506 39.4553 118.286 40.3499C118.125 41.0393 117.934 41.5086 117.714 41.7579C117.509 41.9926 117.179 42.1099 116.724 42.1099Z" fill="#00A885"/>
<path d="M135.888 37.0939C136.079 37.0939 136.226 37.1819 136.328 37.3579C136.446 37.5339 136.504 37.7759 136.504 38.0839C136.504 38.6706 136.365 39.1253 136.086 39.4479C135.456 40.2253 134.766 40.8633 134.018 41.3619C133.27 41.8606 132.412 42.1099 131.444 42.1099C128.452 42.1099 126.956 40.0053 126.956 35.7959C126.956 35.1506 126.978 34.4979 127.022 33.8379H126.164C125.724 33.8379 125.424 33.7573 125.262 33.5959C125.116 33.4346 125.042 33.1779 125.042 32.8259C125.042 32.0046 125.372 31.5939 126.032 31.5939H127.286C127.536 29.9806 127.917 28.5066 128.43 27.1719C128.944 25.8373 129.56 24.7739 130.278 23.9819C131.012 23.1899 131.796 22.7939 132.632 22.7939C133.248 22.7939 133.732 23.0653 134.084 23.6079C134.436 24.1506 134.612 24.8326 134.612 25.6539C134.612 27.9273 133.659 29.9073 131.752 31.5939H134.216C134.451 31.5939 134.62 31.6453 134.722 31.7479C134.825 31.8506 134.876 32.0413 134.876 32.3199C134.876 33.3319 134.048 33.8379 132.39 33.8379H129.706C129.677 34.5713 129.662 35.1433 129.662 35.5539C129.662 37.0793 129.838 38.1499 130.19 38.7659C130.557 39.3819 131.129 39.6899 131.906 39.6899C132.537 39.6899 133.094 39.4993 133.578 39.1179C134.062 38.7366 134.634 38.1646 135.294 37.4019C135.47 37.1966 135.668 37.0939 135.888 37.0939ZM132.038 24.9059C131.818 24.9059 131.569 25.1846 131.29 25.7419C131.026 26.2846 130.77 27.0473 130.52 28.0299C130.286 28.9979 130.088 30.0759 129.926 31.2639C130.792 30.5159 131.437 29.6799 131.862 28.7559C132.302 27.8173 132.522 26.9666 132.522 26.2039C132.522 25.3386 132.361 24.9059 132.038 24.9059Z" fill="#00A885"/>
<path d="M144.525 37.0939C144.716 37.0939 144.862 37.1819 144.965 37.3579C145.082 37.5339 145.141 37.7759 145.141 38.0839C145.141 38.6706 145.002 39.1253 144.723 39.4479C144.18 40.1079 143.41 40.7166 142.413 41.2739C141.43 41.8313 140.374 42.1099 139.245 42.1099C137.705 42.1099 136.51 41.6919 135.659 40.8559C134.808 40.0199 134.383 38.8759 134.383 37.4239C134.383 36.4119 134.596 35.4733 135.021 34.6079C135.446 33.7279 136.033 33.0313 136.781 32.5179C137.544 32.0046 138.402 31.7479 139.355 31.7479C140.206 31.7479 140.888 32.0046 141.401 32.5179C141.914 33.0166 142.171 33.6986 142.171 34.5639C142.171 35.5759 141.804 36.4486 141.071 37.1819C140.352 37.9006 139.128 38.4726 137.397 38.8979C137.764 39.5726 138.46 39.9099 139.487 39.9099C140.147 39.9099 140.895 39.6826 141.731 39.2279C142.582 38.7586 143.315 38.1499 143.931 37.4019C144.107 37.1966 144.305 37.0939 144.525 37.0939ZM138.981 33.9039C138.438 33.9039 137.976 34.2193 137.595 34.8499C137.228 35.4806 137.045 36.2433 137.045 37.1379V37.1819C137.91 36.9766 138.592 36.6686 139.091 36.2579C139.59 35.8473 139.839 35.3706 139.839 34.8279C139.839 34.5493 139.758 34.3293 139.597 34.1679C139.45 33.9919 139.245 33.9039 138.981 33.9039Z" fill="#00A885"/>
<path d="M144.912 42.1099C144.354 42.1099 143.958 41.8166 143.724 41.2299C143.504 40.6433 143.394 39.7046 143.394 38.4139C143.394 36.5073 143.665 34.6959 144.208 32.9799C144.34 32.5546 144.552 32.2466 144.846 32.0559C145.154 31.8506 145.579 31.7479 146.122 31.7479C146.415 31.7479 146.62 31.7846 146.738 31.8579C146.855 31.9313 146.914 32.0706 146.914 32.2759C146.914 32.5106 146.804 33.0386 146.584 33.8599C146.437 34.4466 146.32 34.9599 146.232 35.3999C146.144 35.8399 146.07 36.3826 146.012 37.0279C146.496 35.7666 147.038 34.7399 147.64 33.9479C148.241 33.1559 148.828 32.5913 149.4 32.2539C149.986 31.9166 150.522 31.7479 151.006 31.7479C151.959 31.7479 152.436 32.2246 152.436 33.1779C152.436 33.3686 152.37 33.8306 152.238 34.5639C152.12 35.1506 152.062 35.5173 152.062 35.6639C152.062 36.1773 152.245 36.4339 152.612 36.4339C153.022 36.4339 153.55 36.1113 154.196 35.4659C154.386 35.2753 154.584 35.1799 154.79 35.1799C154.98 35.1799 155.127 35.2679 155.23 35.4439C155.347 35.6053 155.406 35.8253 155.406 36.1039C155.406 36.6466 155.259 37.0719 154.966 37.3799C154.555 37.8053 154.071 38.1719 153.514 38.4799C152.971 38.7733 152.392 38.9199 151.776 38.9199C150.998 38.9199 150.404 38.7219 149.994 38.3259C149.598 37.9299 149.4 37.3946 149.4 36.7199C149.4 36.4999 149.422 36.2799 149.466 36.0599C149.495 35.7666 149.51 35.5686 149.51 35.4659C149.51 35.2313 149.429 35.1139 149.268 35.1139C149.048 35.1139 148.754 35.3633 148.388 35.8619C148.036 36.3459 147.684 36.9913 147.332 37.7979C146.98 38.6046 146.694 39.4553 146.474 40.3499C146.312 41.0393 146.122 41.5086 145.902 41.7579C145.696 41.9926 145.366 42.1099 144.912 42.1099Z" fill="#00A885"/>
<path d="M154.923 42.1099C154.366 42.1099 153.97 41.8166 153.735 41.2299C153.515 40.6433 153.405 39.7046 153.405 38.4139C153.405 36.5073 153.677 34.6959 154.219 32.9799C154.351 32.5546 154.564 32.2466 154.857 32.0559C155.165 31.8506 155.591 31.7479 156.133 31.7479C156.427 31.7479 156.632 31.7846 156.749 31.8579C156.867 31.9313 156.925 32.0706 156.925 32.2759C156.925 32.5106 156.815 33.0386 156.595 33.8599C156.449 34.4466 156.331 34.9599 156.243 35.3999C156.155 35.8399 156.082 36.3826 156.023 37.0279C156.507 35.7666 157.05 34.7399 157.651 33.9479C158.253 33.1559 158.839 32.5913 159.411 32.2539C159.998 31.9166 160.533 31.7479 161.017 31.7479C161.971 31.7479 162.447 32.2246 162.447 33.1779C162.447 33.7499 162.286 34.7839 161.963 36.2799C161.685 37.5559 161.545 38.3993 161.545 38.8099C161.545 39.3966 161.758 39.6899 162.183 39.6899C162.477 39.6899 162.821 39.5139 163.217 39.1619C163.628 38.7953 164.171 38.2086 164.845 37.4019C165.021 37.1966 165.219 37.0939 165.439 37.0939C165.63 37.0939 165.777 37.1819 165.879 37.3579C165.997 37.5339 166.055 37.7759 166.055 38.0839C166.055 38.6706 165.916 39.1253 165.637 39.4479C165.007 40.2253 164.325 40.8633 163.591 41.3619C162.873 41.8606 162.051 42.1099 161.127 42.1099C160.379 42.1099 159.815 41.8973 159.433 41.4719C159.052 41.0319 158.861 40.4013 158.861 39.5799C158.861 39.1693 158.964 38.4359 159.169 37.3799C159.36 36.4559 159.455 35.8179 159.455 35.4659C159.455 35.2313 159.375 35.1139 159.213 35.1139C159.023 35.1139 158.751 35.3633 158.399 35.8619C158.062 36.3459 157.71 36.9913 157.343 37.7979C156.991 38.6046 156.705 39.4553 156.485 40.3499C156.324 41.0393 156.133 41.5086 155.913 41.7579C155.708 41.9926 155.378 42.1099 154.923 42.1099Z" fill="#00A885"/>
<path d="M174.087 37.0939C174.278 37.0939 174.425 37.1819 174.527 37.3579C174.645 37.5339 174.703 37.7759 174.703 38.0839C174.703 38.6706 174.564 39.1253 174.285 39.4479C173.743 40.1079 172.973 40.7166 171.975 41.2739C170.993 41.8313 169.937 42.1099 168.807 42.1099C167.267 42.1099 166.072 41.6919 165.221 40.8559C164.371 40.0199 163.945 38.8759 163.945 37.4239C163.945 36.4119 164.158 35.4733 164.583 34.6079C165.009 33.7279 165.595 33.0313 166.343 32.5179C167.106 32.0046 167.964 31.7479 168.917 31.7479C169.768 31.7479 170.45 32.0046 170.963 32.5179C171.477 33.0166 171.733 33.6986 171.733 34.5639C171.733 35.5759 171.367 36.4486 170.633 37.1819C169.915 37.9006 168.69 38.4726 166.959 38.8979C167.326 39.5726 168.023 39.9099 169.049 39.9099C169.709 39.9099 170.457 39.6826 171.293 39.2279C172.144 38.7586 172.877 38.1499 173.493 37.4019C173.669 37.1966 173.867 37.0939 174.087 37.0939ZM168.543 33.9039C168.001 33.9039 167.539 34.2193 167.157 34.8499C166.791 35.4806 166.607 36.2433 166.607 37.1379V37.1819C167.473 36.9766 168.155 36.6686 168.653 36.2579C169.152 35.8473 169.401 35.3706 169.401 34.8279C169.401 34.5493 169.321 34.3293 169.159 34.1679C169.013 33.9919 168.807 33.9039 168.543 33.9039Z" fill="#00A885"/>
<path d="M185.122 37.0939C185.313 37.0939 185.459 37.1819 185.562 37.3579C185.679 37.5339 185.738 37.7759 185.738 38.0839C185.738 38.6706 185.599 39.1253 185.32 39.4479C184.645 40.2253 183.949 40.8633 183.23 41.3619C182.526 41.8606 181.719 42.1099 180.81 42.1099C180.062 42.1099 179.497 41.8973 179.116 41.4719C178.735 41.0319 178.544 40.4013 178.544 39.5799C178.544 39.1693 178.647 38.4359 178.852 37.3799C179.043 36.4559 179.138 35.8179 179.138 35.4659C179.138 35.2313 179.057 35.1139 178.896 35.1139C178.705 35.1139 178.434 35.3633 178.082 35.8619C177.73 36.3459 177.378 36.9913 177.026 37.7979C176.674 38.6046 176.388 39.4553 176.168 40.3499C175.889 41.5233 175.2 42.1099 174.1 42.1099C173.66 42.1099 173.367 41.9559 173.22 41.6479C173.088 41.3253 173.022 40.7533 173.022 39.9319C173.022 39.4626 173.029 39.0886 173.044 38.8099L173.066 37.0499C173.066 34.7913 173.293 32.4373 173.748 29.9879C174.217 27.5386 174.899 25.4853 175.794 23.8279C176.703 22.1559 177.789 21.3199 179.05 21.3199C179.725 21.3199 180.267 21.6133 180.678 22.1999C181.103 22.7719 181.316 23.5199 181.316 24.4439C181.316 25.9253 180.883 27.4653 180.018 29.0639C179.153 30.6479 177.745 32.5033 175.794 34.6299C175.75 35.3926 175.728 36.1773 175.728 36.9839C176.212 35.7373 176.747 34.7253 177.334 33.9479C177.935 33.1559 178.522 32.5913 179.094 32.2539C179.681 31.9166 180.216 31.7479 180.7 31.7479C181.653 31.7479 182.13 32.2246 182.13 33.1779C182.13 33.7499 181.969 34.7839 181.646 36.2799C181.367 37.5559 181.228 38.3993 181.228 38.8099C181.228 39.3966 181.441 39.6899 181.866 39.6899C182.159 39.6899 182.504 39.5139 182.9 39.1619C183.311 38.7953 183.853 38.2086 184.528 37.4019C184.704 37.1966 184.902 37.0939 185.122 37.0939ZM178.588 23.4979C178.324 23.4979 178.031 23.8793 177.708 24.6419C177.385 25.3899 177.07 26.4093 176.762 27.6999C176.469 28.9759 176.227 30.3693 176.036 31.8799C176.945 30.8093 177.693 29.6433 178.28 28.3819C178.881 27.1206 179.182 25.9766 179.182 24.9499C179.182 24.4806 179.131 24.1213 179.028 23.8719C178.925 23.6226 178.779 23.4979 178.588 23.4979Z" fill="#00A885"/>
<path d="M185.517 42.1099C184.96 42.1099 184.564 41.8166 184.329 41.2299C184.109 40.6433 183.999 39.7046 183.999 38.4139C183.999 36.5073 184.27 34.6959 184.813 32.9799C184.945 32.5546 185.158 32.2466 185.451 32.0559C185.759 31.8506 186.184 31.7479 186.727 31.7479C187.02 31.7479 187.226 31.7846 187.343 31.8579C187.46 31.9313 187.519 32.0706 187.519 32.2759C187.519 32.5106 187.409 33.0386 187.189 33.8599C187.042 34.4466 186.925 34.9599 186.837 35.3999C186.749 35.8253 186.676 36.3606 186.617 37.0059C187.013 35.8619 187.482 34.8939 188.025 34.1019C188.582 33.3099 189.147 32.7233 189.719 32.3419C190.306 31.9459 190.856 31.7479 191.369 31.7479C191.882 31.7479 192.242 31.8653 192.447 32.0999C192.667 32.3346 192.777 32.6939 192.777 33.1779C192.777 33.6473 192.638 34.4979 192.359 35.7299C192.242 36.2579 192.161 36.6539 192.117 36.9179C192.85 35.1139 193.664 33.8013 194.559 32.9799C195.454 32.1586 196.29 31.7479 197.067 31.7479C198.02 31.7479 198.497 32.2246 198.497 33.1779C198.497 33.7499 198.336 34.7839 198.013 36.2799C197.734 37.5559 197.595 38.3993 197.595 38.8099C197.595 39.3966 197.808 39.6899 198.233 39.6899C198.526 39.6899 198.871 39.5139 199.267 39.1619C199.678 38.7953 200.22 38.2086 200.895 37.4019C201.071 37.1966 201.269 37.0939 201.489 37.0939C201.68 37.0939 201.826 37.1819 201.929 37.3579C202.046 37.5339 202.105 37.7759 202.105 38.0839C202.105 38.6706 201.966 39.1253 201.687 39.4479C201.056 40.2253 200.374 40.8633 199.641 41.3619C198.922 41.8606 198.101 42.1099 197.177 42.1099C196.429 42.1099 195.864 41.8973 195.483 41.4719C195.102 41.0319 194.911 40.4013 194.911 39.5799C194.911 39.1693 195.014 38.4359 195.219 37.3799C195.41 36.4559 195.505 35.8179 195.505 35.4659C195.505 35.2313 195.424 35.1139 195.263 35.1139C195.072 35.1139 194.801 35.3633 194.449 35.8619C194.097 36.3459 193.745 36.9913 193.393 37.7979C193.041 38.6046 192.755 39.4553 192.535 40.3499C192.374 41.0539 192.183 41.5233 191.963 41.7579C191.758 41.9926 191.42 42.1099 190.951 42.1099C190.467 42.1099 190.1 41.8826 189.851 41.4279C189.616 40.9586 189.499 40.3939 189.499 39.7339C189.499 39.1766 189.572 38.3699 189.719 37.3139C189.836 36.3753 189.895 35.7593 189.895 35.4659C189.895 35.2313 189.814 35.1139 189.653 35.1139C189.433 35.1139 189.154 35.3779 188.817 35.9059C188.48 36.4339 188.15 37.1086 187.827 37.9299C187.519 38.7513 187.27 39.5579 187.079 40.3499C186.918 41.0393 186.727 41.5086 186.507 41.7579C186.302 41.9926 185.972 42.1099 185.517 42.1099Z" fill="#00A885"/>
<path d="M210.138 37.0939C210.329 37.0939 210.476 37.1819 210.578 37.3579C210.696 37.5339 210.754 37.7759 210.754 38.0839C210.754 38.6706 210.615 39.1253 210.336 39.4479C209.794 40.1079 209.024 40.7166 208.026 41.2739C207.044 41.8313 205.988 42.1099 204.858 42.1099C203.318 42.1099 202.123 41.6919 201.272 40.8559C200.422 40.0199 199.996 38.8759 199.996 37.4239C199.996 36.4119 200.209 35.4733 200.634 34.6079C201.06 33.7279 201.646 33.0313 202.394 32.5179C203.157 32.0046 204.015 31.7479 204.968 31.7479C205.819 31.7479 206.501 32.0046 207.014 32.5179C207.528 33.0166 207.784 33.6986 207.784 34.5639C207.784 35.5759 207.418 36.4486 206.684 37.1819C205.966 37.9006 204.741 38.4726 203.01 38.8979C203.377 39.5726 204.074 39.9099 205.1 39.9099C205.76 39.9099 206.508 39.6826 207.344 39.2279C208.195 38.7586 208.928 38.1499 209.544 37.4019C209.72 37.1966 209.918 37.0939 210.138 37.0939ZM204.594 33.9039C204.052 33.9039 203.59 34.2193 203.208 34.8499C202.842 35.4806 202.658 36.2433 202.658 37.1379V37.1819C203.524 36.9766 204.206 36.6686 204.704 36.2579C205.203 35.8473 205.452 35.3706 205.452 34.8279C205.452 34.5493 205.372 34.3293 205.21 34.1679C205.064 33.9919 204.858 33.9039 204.594 33.9039Z" fill="#00A885"/>
<path d="M210.525 42.1099C209.968 42.1099 209.572 41.8166 209.337 41.2299C209.117 40.6433 209.007 39.7046 209.007 38.4139C209.007 36.5073 209.278 34.6959 209.821 32.9799C209.953 32.5546 210.166 32.2466 210.459 32.0559C210.767 31.8506 211.192 31.7479 211.735 31.7479C212.028 31.7479 212.234 31.7846 212.351 31.8579C212.468 31.9313 212.527 32.0706 212.527 32.2759C212.527 32.5106 212.417 33.0386 212.197 33.8599C212.05 34.4466 211.933 34.9599 211.845 35.3999C211.757 35.8399 211.684 36.3826 211.625 37.0279C212.109 35.7666 212.652 34.7399 213.253 33.9479C213.854 33.1559 214.441 32.5913 215.013 32.2539C215.6 31.9166 216.135 31.7479 216.619 31.7479C217.088 31.7479 217.44 31.8726 217.675 32.1219C217.924 32.3566 218.049 32.7086 218.049 33.1779C218.049 33.5593 217.968 34.2779 217.807 35.3339C217.66 36.2286 217.543 37.0793 217.455 37.8859C217.367 38.6779 217.323 39.5653 217.323 40.5479C217.323 41.1053 217.206 41.5086 216.971 41.7579C216.751 41.9926 216.384 42.1099 215.871 42.1099C215.387 42.1099 215.035 41.9853 214.815 41.7359C214.595 41.4866 214.485 41.1126 214.485 40.6139C214.485 40.0273 214.588 39.0593 214.793 37.7099C214.969 36.5366 215.057 35.7886 215.057 35.4659C215.057 35.2313 214.976 35.1139 214.815 35.1139C214.624 35.1139 214.353 35.3633 214.001 35.8619C213.664 36.3459 213.312 36.9913 212.945 37.7979C212.593 38.6046 212.307 39.4553 212.087 40.3499C211.926 41.0393 211.735 41.5086 211.515 41.7579C211.31 41.9926 210.98 42.1099 210.525 42.1099Z" fill="#00A885"/>
</svg>
