<svg width="207" height="55" viewBox="0 0 207 55" fill="none" xmlns="http://www.w3.org/2000/svg">
<path d="M108.601 17.1616C108.601 23.1108 111.293 26.3674 116.089 26.3674C120.938 26.3674 123.837 21.7485 123.837 21.7485L124.731 24.8072C124.937 25.5011 125.586 25.9864 126.312 25.9864H132.355C132.789 25.9864 133.142 25.6352 133.142 25.1988C133.142 24.9988 133.142 24.7859 133.142 24.5858C133.142 24.1516 132.789 23.7983 132.355 23.7983H132.346C130.95 23.7983 129.818 22.6659 129.818 21.2696L129.82 1.84909C129.82 1.33612 129.337 0.959376 128.839 1.08709L120.791 3.13258C120.442 3.22198 120.199 3.53487 120.197 3.89459V4.6864C120.197 5.12061 120.548 5.47394 120.984 5.47394V5.47394C122.381 5.47394 123.511 6.60844 123.507 8.00261L123.473 19.7392C123.473 19.7392 121.502 21.9614 118.615 21.9614C116.202 21.9614 114.91 19.9499 114.91 17.4532L114.899 1.83206C114.899 1.31909 114.414 0.942348 113.918 1.07006L105.863 3.13258C105.514 3.22198 105.272 3.53487 105.272 3.89459V4.6864C105.272 5.12061 105.623 5.47394 106.059 5.47394H106.066C107.458 5.47394 108.586 6.60205 108.588 7.9941L108.601 17.1616Z" fill="white"/>
<path fill-rule="evenodd" clip-rule="evenodd" d="M143.238 5.59332C143.238 5.59332 146.167 1.03406 150.758 1.03406C156.416 1.03406 160.366 6.0467 160.366 13.2283C160.366 20.9675 155.964 26.3718 149.664 26.3718C145.726 26.3718 143.238 22.7576 143.238 22.7576V28.279C143.236 29.6774 144.37 30.8098 145.767 30.8076C146.203 30.8076 146.556 31.1588 146.556 31.5952V32.2103C146.558 32.6467 146.205 33 145.769 33H134.383C133.949 33 133.596 32.6467 133.596 32.2103V31.5931C133.596 31.1567 133.949 30.8055 134.383 30.8055H134.39C135.786 30.8055 136.918 29.6731 136.918 28.2768V8.00492C136.918 6.61288 135.795 5.48477 134.403 5.47838H134.379C133.945 5.47838 133.594 5.12505 133.594 4.69084V3.8969C133.594 3.53719 133.836 3.22217 134.185 3.13277L142.253 1.05322C142.753 0.925505 143.238 1.30225 143.238 1.81735V5.59332ZM143.24 18.5964C143.24 18.5964 144.76 22.1957 148.225 22.1957C152.265 22.1957 154.061 17.7407 154.061 13.4518C154.061 9.21392 152.75 5.22935 148.481 5.22935C145.324 5.22935 143.238 7.97087 143.238 7.97087L143.236 18.5708L143.24 18.5964Z" fill="white"/>
<path d="M104.75 24.0432C104.593 23.8857 104.382 23.7985 104.159 23.7985H104.101C102.762 23.7985 101.672 22.7087 101.672 21.3698V14.4373C101.675 13.2581 101.677 11.3446 101.677 10.044C101.677 3.29453 98.4797 1 95.0337 1C90.1126 1 86.8283 5.22935 86.8283 5.22935L86.807 5.2485V1.81735C86.807 1.30225 86.3217 0.925502 85.8215 1.05321L77.7544 3.13277C77.4054 3.22216 77.1627 3.53718 77.1627 3.8969V4.69083C77.1627 5.12505 77.5139 5.47838 77.9481 5.47838H77.9694C79.3615 5.48477 80.4875 6.61288 80.4875 8.00492V21.2698C80.4875 22.6661 79.3551 23.7985 77.9588 23.7985H77.9524C77.5182 23.7985 77.1648 24.1497 77.1648 24.586C77.1648 24.7861 77.1648 25.0011 77.1648 25.2033C77.1648 25.6396 77.5182 25.993 77.9524 25.993H89.3378C89.7741 25.993 90.1275 25.6396 90.1253 25.2033V24.5881C90.1253 24.1518 89.772 23.8006 89.3357 23.8006V23.8006C87.9394 23.8027 86.8049 22.6703 86.807 21.2719V7.65372L86.8283 7.63243C86.8283 7.63243 88.9057 5.47625 91.494 5.47625C93.9098 5.47625 95.353 7.16416 95.353 9.99082V23.8368L95.3615 23.9389C95.4594 25.0883 96.4385 25.9866 97.5921 25.9866H104.156C104.616 25.9866 104.993 25.6119 104.993 25.1522V24.635C104.995 24.4115 104.908 24.2007 104.75 24.0432Z" fill="white"/>
<path fill-rule="evenodd" clip-rule="evenodd" d="M33.6879 5.59332C33.6879 5.59332 36.6167 1.03406 41.2079 1.03406C46.8654 1.03406 50.816 6.0467 50.8138 13.2283C50.8138 20.9675 46.4121 26.3718 40.1117 26.3718C36.174 26.3718 33.6857 22.7576 33.6857 22.7576V28.279C33.6836 29.6774 34.8181 30.8098 36.2144 30.8076C36.6507 30.8076 37.0041 31.1588 37.0041 31.5952V32.2103C37.0062 32.6467 36.6529 33 36.2165 33H24.8311C24.3969 33 24.0436 32.6467 24.0436 32.2103V31.5931C24.0436 31.1567 24.3969 30.8055 24.8311 30.8055H24.8375C26.2338 30.8055 27.3662 29.6731 27.3662 28.2768V8.00492C27.3662 6.61288 26.2423 5.48477 24.8503 5.47838H24.829C24.3948 5.47838 24.0436 5.12505 24.0436 4.69084V3.8969C24.0436 3.53719 24.2862 3.22217 24.6353 3.13277L32.7024 1.05322C33.2026 0.925505 33.6879 1.30225 33.6879 1.81735V5.59332ZM33.6921 18.5964C33.6921 18.5964 35.2119 22.1957 38.6771 22.1957C42.717 22.1957 44.5134 17.7407 44.5134 13.4518C44.5134 9.21392 43.2023 5.22935 38.9325 5.22935C35.7759 5.22935 33.69 7.97087 33.69 7.97087L33.6879 18.5708L33.6921 18.5964Z" fill="white"/>
<path fill-rule="evenodd" clip-rule="evenodd" d="M0 13.6984C0 6.69984 5.21272 1.02737 11.6451 1.02737C18.0774 1.02737 23.2923 6.69984 23.2901 13.6984C23.2901 20.6969 18.0753 26.3694 11.6451 26.3694C5.21485 26.3694 0 20.6969 0 13.6984ZM6.3685 13.8221C6.3685 19.0349 8.73114 23.2599 11.6451 23.2599C14.559 23.2599 16.9216 19.0349 16.9216 13.8221C16.9216 8.60942 14.559 4.38433 11.6451 4.38433C8.73114 4.38433 6.3685 8.60942 6.3685 13.8221Z" fill="white"/>
<path fill-rule="evenodd" clip-rule="evenodd" d="M74.932 18.1345L75.4961 18.5581C75.826 18.805 75.9218 19.2435 75.7217 19.6032C74.6085 21.6423 71.3561 26.3889 65.2047 26.3889H65.2005C58.1402 26.3867 53.9172 20.08 53.9172 13.986C53.9172 5.08674 59.6919 1.04896 64.9791 1.04896H64.9855C72.3288 1.04896 74.5361 9.70773 74.7447 10.9912C74.8128 11.4084 74.5404 11.8064 74.1253 11.9001L59.6365 15.1503L59.6685 15.2482C59.6727 15.2631 60.1389 16.6978 61.3415 18.109C62.4547 19.4137 64.4385 20.9697 67.5801 20.9718H67.5844C70.6494 20.9718 72.812 19.2435 73.8294 18.2133C74.1232 17.9174 74.5957 17.8833 74.932 18.1345ZM59.2108 10.1356C59.164 11.5425 59.3322 11.8235 59.3662 11.866L59.4067 11.9107L68.1293 10.0994V10.0291C68.1293 9.265 68.0058 8.40296 67.7887 7.66436C67.4929 6.66184 67.0395 5.87216 66.4393 5.31449C65.7752 4.69722 64.945 4.38433 63.9723 4.38433H63.9702C60.8157 4.38433 59.2875 7.74738 59.2108 10.1356Z" fill="white"/>
<path d="M134.567 22.5196C135.179 23.4634 135.417 24.5499 135.417 25.6539C135.417 27.1973 135.065 28.6246 134.398 29.9251C134.46 29.9596 134.523 29.9977 134.585 30.0395C135.154 29.8183 135.748 29.7479 136.289 29.7479C136.623 29.7479 137.333 29.7663 137.965 30.1619C138.166 30.2872 138.332 30.4297 138.468 30.5815C138.496 30.5645 138.524 30.5477 138.552 30.5312L138.561 30.5256L138.571 30.5201C139.346 30.0744 140.228 29.7479 141.174 29.7479C141.958 29.7479 142.915 29.9455 143.66 30.6912C143.813 30.8445 143.944 31.0066 144.054 31.1743C144.186 31.0681 144.324 30.9663 144.466 30.8689L144.473 30.8638L144.48 30.8588C145.586 30.1147 146.836 29.7479 148.171 29.7479C149.424 29.7479 150.622 30.1325 151.564 31.0379C151.76 30.7826 151.999 30.5539 152.276 30.3579C153.035 29.82 153.904 29.6159 154.752 29.6159C155.188 29.6159 155.89 29.6857 156.514 30.1348C157.141 29.8515 157.813 29.7039 158.514 29.7039C159.96 29.7039 161.202 30.3252 162.086 31.4552C162.181 31.5753 162.271 31.6982 162.354 31.8237C162.612 31.2784 163.005 30.7646 163.584 30.3855C164.338 29.8864 165.199 29.7479 165.959 29.7479C166.293 29.7479 167.002 29.7663 167.635 30.1619C167.836 30.2872 168.001 30.4297 168.138 30.5815C168.166 30.5645 168.193 30.5477 168.221 30.5312L168.231 30.5256L168.24 30.5201C169.016 30.0744 169.897 29.7479 170.843 29.7479C171.355 29.7479 171.94 29.8319 172.491 30.097C172.311 29.6348 172.233 29.147 172.233 28.6679C172.233 27.5596 172.695 26.5809 173.53 25.8695C174.344 25.1743 175.325 24.8639 176.345 24.8639C177.213 24.8639 178.124 25.0792 178.898 25.6849C179.787 26.3806 180.171 27.3737 180.171 28.3819C180.171 29.4464 179.803 30.4776 178.956 31.2596L178.94 31.2739L178.924 31.2879C178.824 31.3765 178.721 31.4585 178.616 31.534C178.731 31.8447 178.785 32.1718 178.785 32.4959C178.785 32.9311 178.688 33.5934 178.538 34.3905C178.623 34.2207 178.713 34.0367 178.808 33.8383C179.133 33.1463 179.451 32.4318 179.763 31.6947L179.766 31.6879L179.769 31.6811C180.072 30.9799 180.577 30.3898 181.276 30.0007C181.944 29.6281 182.67 29.5059 183.343 29.5059C183.759 29.5059 184.437 29.5262 185.029 29.7952C185.36 29.9457 185.74 30.2024 186.031 30.6259C186.33 31.0611 186.443 31.5384 186.443 31.9679C186.443 32.3819 186.329 32.7721 186.267 32.9741C186.17 33.2877 186.043 33.5878 185.891 33.8739C185.832 33.9934 185.792 34.0901 185.764 34.1656C185.852 34.2916 185.972 34.4515 186.13 34.6485C186.238 34.3371 186.365 34.0312 186.512 33.7313C187.077 32.5658 187.883 31.593 188.938 30.8689L188.946 30.8638L188.953 30.8588C190.059 30.1147 191.308 29.7479 192.644 29.7479C193.922 29.7479 195.143 30.1483 196.094 31.0938C196.65 31.6377 197.017 32.2762 197.229 32.9627C197.458 32.3544 198.192 30.9103 199.301 30.0007C199.97 29.6281 200.696 29.5059 201.369 29.5059C201.785 29.5059 202.462 29.5262 203.054 29.7952C203.385 29.9457 203.765 30.2024 204.056 30.6259C204.355 31.0611 204.469 31.5384 204.469 31.9679C204.469 32.3819 204.354 32.7721 204.292 32.9741C204.196 33.2877 204.068 33.5878 203.917 33.8739C203.858 33.9934 203.817 34.0901 203.79 34.1656C203.893 34.3131 204.039 34.5071 204.239 34.7526L204.26 34.7779L204.279 34.8039C204.773 35.4514 205.188 36.0631 205.492 36.6256C205.914 37.3607 206.119 38.1685 206.119 39.0079C206.119 39.9525 205.891 40.8549 205.453 41.6902C205.016 42.5383 204.386 43.2356 203.589 43.7594C202.725 44.3272 201.75 44.5939 200.731 44.5939C199.684 44.5939 198.566 44.3535 197.669 43.5845L197.655 43.5727L197.642 43.5608C197.402 43.3473 197.182 43.1053 196.996 42.8364C196.893 42.8975 196.789 42.9576 196.683 43.0167C195.401 43.7426 194.007 44.1099 192.534 44.1099C191.013 44.1099 189.585 43.7748 188.398 42.9772C188.317 43.0225 188.236 43.0658 188.154 43.1068L188.146 43.1108L188.138 43.1147C187.332 43.5084 186.438 43.7226 185.497 43.8071C184.662 44.3345 183.714 44.5939 182.705 44.5939C181.659 44.5939 180.541 44.3535 179.644 43.5845L179.63 43.5727L179.616 43.5608C179.433 43.3975 179.261 43.2175 179.107 43.0216C178.132 43.6918 177.065 44.1099 175.905 44.1099C174.42 44.1099 173.021 43.542 172.14 42.1905L172.132 42.1776L172.123 42.1645C171.877 41.7735 171.686 41.356 171.542 40.9195C170.495 40.9078 169.4 40.6351 168.531 39.8477C168.429 40.1627 168.338 40.4859 168.256 40.8174C168.086 41.5395 167.81 42.432 167.242 43.0783C166.509 43.9126 165.51 44.1099 164.749 44.1099C164.101 44.1099 163.431 43.9317 162.844 43.4971L162.824 43.4821C161.96 43.9041 161.02 44.1099 160.032 44.1099C159.284 44.1099 158.577 43.9485 157.943 43.6234C157.758 43.6976 157.571 43.7637 157.382 43.8215C157.142 46.1094 156.725 48.1322 156.108 49.864C155.332 52.055 153.844 54.0539 151.254 54.0539C149.911 54.0539 148.643 53.5255 147.83 52.3053C147.148 51.2838 146.922 50.0506 146.922 48.8199C146.922 47.367 147.2 45.788 147.707 44.1038C145.938 44.0414 144.315 43.503 143.073 42.2824C142.651 41.8677 142.307 41.4106 142.034 40.9192C142.004 40.9197 141.974 40.9199 141.944 40.9199C140.875 40.9199 139.75 40.6531 138.861 39.8477C138.76 40.1627 138.668 40.4859 138.586 40.8174C138.416 41.5396 138.14 42.432 137.572 43.0783C136.839 43.9126 135.84 44.1099 135.079 44.1099C134.431 44.1099 133.761 43.9317 133.174 43.4971L133.144 43.4746C132.247 43.9036 131.272 44.1099 130.249 44.1099C128.602 44.1099 127.114 43.6137 125.978 42.5305C125.767 42.6995 125.551 42.8596 125.329 43.0106C124.258 43.7514 123.037 44.1099 121.733 44.1099C120.602 44.1099 119.419 43.7767 118.55 42.807L118.538 42.7945L118.527 42.7818C118.473 42.7196 118.422 42.6563 118.373 42.5921C118.27 42.764 118.153 42.9279 118.021 43.0783C117.289 43.9126 116.289 44.1099 115.529 44.1099C114.88 44.1099 114.21 43.9317 113.623 43.4971C113.549 43.4423 113.479 43.3852 113.412 43.326C112.299 43.8468 111.109 44.1099 109.862 44.1099C107.957 44.1099 106.199 43.5842 104.874 42.2824C103.56 40.9912 103 39.2878 103 37.4239C103 36.1239 103.275 34.8835 103.84 33.7317C104.405 32.566 105.211 31.5931 106.266 30.8689L106.274 30.8638L106.281 30.8588C107.387 30.1147 108.636 29.7479 109.972 29.7479C111.25 29.7479 112.471 30.1483 113.422 31.0935C113.453 31.1242 113.484 31.1551 113.514 31.1864C113.738 30.886 114.017 30.6117 114.363 30.3854C115.117 29.8864 115.979 29.7479 116.739 29.7479C117.072 29.7479 117.782 29.7663 118.415 30.1619C118.615 30.2872 118.781 30.4297 118.917 30.5815C118.945 30.5645 118.973 30.5477 119.001 30.5312L119.01 30.5256L119.02 30.5201C119.795 30.0744 120.677 29.7479 121.623 29.7479C122.109 29.7479 122.661 29.8237 123.187 30.0586C123.581 29.8042 124.011 29.6704 124.426 29.6191C124.671 28.5075 124.984 27.4515 125.368 26.454C125.942 24.9618 126.671 23.6633 127.602 22.638L127.608 22.6305L127.615 22.6231C128.611 21.5482 129.893 20.7939 131.437 20.7939C132.77 20.7939 133.868 21.4426 134.567 22.5196Z" fill="#00A885"/>
<path d="M115.142 37.0939C115.333 37.0939 115.479 37.1819 115.582 37.3579C115.699 37.5339 115.758 37.7759 115.758 38.0839C115.758 38.6706 115.619 39.1253 115.34 39.4479C114.797 40.1079 114.027 40.7166 113.03 41.2739C112.047 41.8313 110.991 42.1099 109.862 42.1099C108.322 42.1099 107.127 41.6919 106.276 40.8559C105.425 40.0199 105 38.8759 105 37.4239C105 36.4119 105.213 35.4733 105.638 34.6079C106.063 33.7279 106.65 33.0313 107.398 32.5179C108.161 32.0046 109.019 31.7479 109.972 31.7479C110.823 31.7479 111.505 32.0046 112.018 32.5179C112.531 33.0166 112.788 33.6986 112.788 34.5639C112.788 35.5759 112.421 36.4486 111.688 37.1819C110.969 37.9006 109.745 38.4726 108.014 38.8979C108.381 39.5726 109.077 39.9099 110.104 39.9099C110.764 39.9099 111.512 39.6826 112.348 39.2279C113.199 38.7586 113.932 38.1499 114.548 37.4019C114.724 37.1966 114.922 37.0939 115.142 37.0939ZM109.598 33.9039C109.055 33.9039 108.593 34.2193 108.212 34.8499C107.845 35.4806 107.662 36.2433 107.662 37.1379V37.1819C108.527 36.9766 109.209 36.6686 109.708 36.2579C110.207 35.8473 110.456 35.3706 110.456 34.8279C110.456 34.5493 110.375 34.3293 110.214 34.1679C110.067 33.9919 109.862 33.9039 109.598 33.9039Z" fill="white"/>
<path d="M115.529 42.1099C114.971 42.1099 114.575 41.8166 114.341 41.2299C114.121 40.6433 114.011 39.7046 114.011 38.4139C114.011 36.5073 114.282 34.6959 114.825 32.9799C114.957 32.5546 115.169 32.2466 115.463 32.0559C115.771 31.8506 116.196 31.7479 116.739 31.7479C117.032 31.7479 117.237 31.7846 117.355 31.8579C117.472 31.9313 117.531 32.0706 117.531 32.2759C117.531 32.5106 117.421 33.0386 117.201 33.8599C117.054 34.4466 116.937 34.9599 116.849 35.3999C116.761 35.8399 116.687 36.3826 116.629 37.0279C117.113 35.7666 117.655 34.7399 118.257 33.9479C118.858 33.1559 119.445 32.5913 120.017 32.2539C120.603 31.9166 121.139 31.7479 121.623 31.7479C122.576 31.7479 123.053 32.2246 123.053 33.1779C123.053 33.7499 122.891 34.7839 122.569 36.2799C122.29 37.5559 122.151 38.3993 122.151 38.8099C122.151 39.3966 122.363 39.6899 122.789 39.6899C123.082 39.6899 123.427 39.5139 123.823 39.1619C124.233 38.7953 124.776 38.2086 125.451 37.4019C125.627 37.1966 125.825 37.0939 126.045 37.0939C126.235 37.0939 126.382 37.1819 126.485 37.3579C126.602 37.5339 126.661 37.7759 126.661 38.0839C126.661 38.6706 126.521 39.1253 126.243 39.4479C125.612 40.2253 124.93 40.8633 124.197 41.3619C123.478 41.8606 122.657 42.1099 121.733 42.1099C120.985 42.1099 120.42 41.8973 120.039 41.4719C119.657 41.0319 119.467 40.4013 119.467 39.5799C119.467 39.1693 119.569 38.4359 119.775 37.3799C119.965 36.4559 120.061 35.8179 120.061 35.4659C120.061 35.2313 119.98 35.1139 119.819 35.1139C119.628 35.1139 119.357 35.3633 119.005 35.8619C118.667 36.3459 118.315 36.9913 117.949 37.7979C117.597 38.6046 117.311 39.4553 117.091 40.3499C116.929 41.0393 116.739 41.5086 116.519 41.7579C116.313 41.9926 115.983 42.1099 115.529 42.1099Z" fill="white"/>
<path d="M134.693 37.0939C134.883 37.0939 135.03 37.1819 135.133 37.3579C135.25 37.5339 135.309 37.7759 135.309 38.0839C135.309 38.6706 135.169 39.1253 134.891 39.4479C134.26 40.2253 133.571 40.8633 132.823 41.3619C132.075 41.8606 131.217 42.1099 130.249 42.1099C127.257 42.1099 125.761 40.0053 125.761 35.7959C125.761 35.1506 125.783 34.4979 125.827 33.8379H124.969C124.529 33.8379 124.228 33.7573 124.067 33.5959C123.92 33.4346 123.847 33.1779 123.847 32.8259C123.847 32.0046 124.177 31.5939 124.837 31.5939H126.091C126.34 29.9806 126.721 28.5066 127.235 27.1719C127.748 25.8373 128.364 24.7739 129.083 23.9819C129.816 23.1899 130.601 22.7939 131.437 22.7939C132.053 22.7939 132.537 23.0653 132.889 23.6079C133.241 24.1506 133.417 24.8326 133.417 25.6539C133.417 27.9273 132.463 29.9073 130.557 31.5939H133.021C133.255 31.5939 133.424 31.6453 133.527 31.7479C133.629 31.8506 133.681 32.0413 133.681 32.3199C133.681 33.3319 132.852 33.8379 131.195 33.8379H128.511C128.481 34.5713 128.467 35.1433 128.467 35.5539C128.467 37.0793 128.643 38.1499 128.995 38.7659C129.361 39.3819 129.933 39.6899 130.711 39.6899C131.341 39.6899 131.899 39.4993 132.383 39.1179C132.867 38.7366 133.439 38.1646 134.099 37.4019C134.275 37.1966 134.473 37.0939 134.693 37.0939ZM130.843 24.9059C130.623 24.9059 130.373 25.1846 130.095 25.7419C129.831 26.2846 129.574 27.0473 129.325 28.0299C129.09 28.9979 128.892 30.0759 128.731 31.2639C129.596 30.5159 130.241 29.6799 130.667 28.7559C131.107 27.8173 131.327 26.9666 131.327 26.2039C131.327 25.3386 131.165 24.9059 130.843 24.9059Z" fill="white"/>
<path d="M135.08 42.1099C134.522 42.1099 134.126 41.8166 133.892 41.2299C133.672 40.6433 133.562 39.7046 133.562 38.4139C133.562 36.5073 133.833 34.6959 134.375 32.9799C134.507 32.5546 134.72 32.2466 135.014 32.0559C135.322 31.8506 135.747 31.7479 136.289 31.7479C136.583 31.7479 136.788 31.7846 136.906 31.8579C137.023 31.9313 137.082 32.0706 137.082 32.2759C137.082 32.5106 136.972 33.0386 136.752 33.8599C136.605 34.4466 136.487 34.9599 136.399 35.3999C136.311 35.8399 136.238 36.3826 136.18 37.0279C136.664 35.7666 137.206 34.7399 137.807 33.9479C138.409 33.1559 138.996 32.5913 139.568 32.2539C140.154 31.9166 140.689 31.7479 141.174 31.7479C142.127 31.7479 142.604 32.2246 142.604 33.1779C142.604 33.3686 142.538 33.8306 142.406 34.5639C142.288 35.1506 142.229 35.5173 142.229 35.6639C142.229 36.1773 142.413 36.4339 142.779 36.4339C143.19 36.4339 143.718 36.1113 144.363 35.4659C144.554 35.2753 144.752 35.1799 144.958 35.1799C145.148 35.1799 145.295 35.2679 145.397 35.4439C145.515 35.6053 145.574 35.8253 145.574 36.1039C145.574 36.6466 145.427 37.0719 145.133 37.3799C144.723 37.8053 144.239 38.1719 143.681 38.4799C143.139 38.7733 142.56 38.9199 141.944 38.9199C141.166 38.9199 140.572 38.7219 140.161 38.3259C139.765 37.9299 139.568 37.3946 139.568 36.7199C139.568 36.4999 139.589 36.2799 139.633 36.0599C139.663 35.7666 139.678 35.5686 139.678 35.4659C139.678 35.2313 139.597 35.1139 139.436 35.1139C139.216 35.1139 138.922 35.3633 138.556 35.8619C138.204 36.3459 137.852 36.9913 137.5 37.7979C137.148 38.6046 136.862 39.4553 136.642 40.3499C136.48 41.0393 136.289 41.5086 136.069 41.7579C135.864 41.9926 135.534 42.1099 135.08 42.1099Z" fill="white"/>
<path d="M153.341 37.0939C153.532 37.0939 153.679 37.1819 153.781 37.3579C153.899 37.5339 153.957 37.7759 153.957 38.0839C153.957 38.6706 153.818 39.1253 153.539 39.4479C152.997 40.1079 152.227 40.7166 151.229 41.2739C150.247 41.8313 149.191 42.1099 148.061 42.1099C146.521 42.1099 145.326 41.6919 144.475 40.8559C143.625 40.0199 143.199 38.8759 143.199 37.4239C143.199 36.4119 143.412 35.4733 143.837 34.6079C144.263 33.7279 144.849 33.0313 145.597 32.5179C146.36 32.0046 147.218 31.7479 148.171 31.7479C149.022 31.7479 149.704 32.0046 150.217 32.5179C150.731 33.0166 150.987 33.6986 150.987 34.5639C150.987 35.5759 150.621 36.4486 149.887 37.1819C149.169 37.9006 147.944 38.4726 146.213 38.8979C146.58 39.5726 147.277 39.9099 148.303 39.9099C148.963 39.9099 149.711 39.6826 150.547 39.2279C151.398 38.7586 152.131 38.1499 152.747 37.4019C152.923 37.1966 153.121 37.0939 153.341 37.0939ZM147.797 33.9039C147.255 33.9039 146.793 34.2193 146.411 34.8499C146.045 35.4806 145.861 36.2433 145.861 37.1379V37.1819C146.727 36.9766 147.409 36.6686 147.907 36.2579C148.406 35.8473 148.655 35.3706 148.655 34.8279C148.655 34.5493 148.575 34.3293 148.413 34.1679C148.267 33.9919 148.061 33.9039 147.797 33.9039Z" fill="white"/>
<path d="M164.344 37.0939C164.534 37.0939 164.681 37.1819 164.784 37.3579C164.901 37.5339 164.96 37.7759 164.96 38.0839C164.96 38.6706 164.82 39.1253 164.542 39.4479C163.911 40.2253 163.229 40.8633 162.496 41.3619C161.777 41.8606 160.956 42.1099 160.032 42.1099C159.254 42.1099 158.624 41.8313 158.14 41.2739C157.304 41.8166 156.431 42.0953 155.522 42.1099C155.331 44.9406 154.898 47.3019 154.224 49.1939C153.549 51.1006 152.559 52.0539 151.254 52.0539C150.462 52.0539 149.875 51.7679 149.494 51.1959C149.112 50.6239 148.922 49.8319 148.922 48.8199C148.922 47.3826 149.252 45.7033 149.912 43.7819C150.572 41.8753 151.591 39.7706 152.97 37.4679C152.97 35.3266 152.955 33.8379 152.926 33.0019C152.911 32.5766 153.08 32.2393 153.432 31.9899C153.784 31.7406 154.224 31.6159 154.752 31.6159C155.06 31.6159 155.28 31.6819 155.412 31.8139C155.558 31.9313 155.639 32.1733 155.654 32.5399C155.654 32.9066 155.661 33.1779 155.676 33.3539C156.145 32.7673 156.607 32.3493 157.062 32.0999C157.516 31.8359 158 31.7039 158.514 31.7039C159.335 31.7039 160.002 32.0339 160.516 32.6939C161.044 33.3539 161.308 34.2193 161.308 35.2899C161.308 36.0673 161.183 36.8226 160.934 37.5559C160.684 38.2893 160.34 38.9566 159.9 39.5579C160.208 39.6459 160.464 39.6899 160.67 39.6899C161.154 39.6899 161.616 39.5139 162.056 39.1619C162.496 38.8099 163.06 38.2233 163.75 37.4019C163.926 37.1966 164.124 37.0939 164.344 37.0939ZM155.632 39.9979C156.16 39.8806 156.644 39.5946 157.084 39.1399C157.538 38.6706 157.898 38.0986 158.162 37.4239C158.426 36.7346 158.558 36.0159 158.558 35.2679C158.558 34.8279 158.47 34.4979 158.294 34.2779C158.118 34.0433 157.883 33.9259 157.59 33.9259C157.062 33.9259 156.424 34.4833 155.676 35.5979C155.661 36.2433 155.654 37.1893 155.654 38.4359C155.654 39.1106 155.646 39.6313 155.632 39.9979ZM151.43 49.8979C151.826 49.8979 152.156 49.0326 152.42 47.3019C152.684 45.5859 152.852 43.4446 152.926 40.8779C152.295 42.3446 151.796 43.7453 151.43 45.0799C151.063 46.4146 150.88 47.5366 150.88 48.4459C150.88 48.9153 150.938 49.2746 151.056 49.5239C151.158 49.7733 151.283 49.8979 151.43 49.8979Z" fill="white"/>
<path d="M164.749 42.1099C164.192 42.1099 163.796 41.8166 163.561 41.2299C163.341 40.6433 163.231 39.7046 163.231 38.4139C163.231 36.5073 163.503 34.6959 164.045 32.9799C164.177 32.5546 164.39 32.2466 164.683 32.0559C164.991 31.8506 165.417 31.7479 165.959 31.7479C166.253 31.7479 166.458 31.7846 166.575 31.8579C166.693 31.9313 166.751 32.0706 166.751 32.2759C166.751 32.5106 166.641 33.0386 166.421 33.8599C166.275 34.4466 166.157 34.9599 166.069 35.3999C165.981 35.8399 165.908 36.3826 165.849 37.0279C166.333 35.7666 166.876 34.7399 167.477 33.9479C168.079 33.1559 168.665 32.5913 169.237 32.2539C169.824 31.9166 170.359 31.7479 170.843 31.7479C171.797 31.7479 172.273 32.2246 172.273 33.1779C172.273 33.3686 172.207 33.8306 172.075 34.5639C171.958 35.1506 171.899 35.5173 171.899 35.6639C171.899 36.1773 172.083 36.4339 172.449 36.4339C172.86 36.4339 173.388 36.1113 174.033 35.4659C174.224 35.2753 174.422 35.1799 174.627 35.1799C174.818 35.1799 174.965 35.2679 175.067 35.4439C175.185 35.6053 175.243 35.8253 175.243 36.1039C175.243 36.6466 175.097 37.0719 174.803 37.3799C174.393 37.8053 173.909 38.1719 173.351 38.4799C172.809 38.7733 172.229 38.9199 171.613 38.9199C170.836 38.9199 170.242 38.7219 169.831 38.3259C169.435 37.9299 169.237 37.3946 169.237 36.7199C169.237 36.4999 169.259 36.2799 169.303 36.0599C169.333 35.7666 169.347 35.5686 169.347 35.4659C169.347 35.2313 169.267 35.1139 169.105 35.1139C168.885 35.1139 168.592 35.3633 168.225 35.8619C167.873 36.3459 167.521 36.9913 167.169 37.7979C166.817 38.6046 166.531 39.4553 166.311 40.3499C166.15 41.0393 165.959 41.5086 165.739 41.7579C165.534 41.9926 165.204 42.1099 164.749 42.1099Z" fill="white"/>
<path d="M176.081 30.2959C175.465 30.2959 175.003 30.1566 174.695 29.8779C174.387 29.5846 174.233 29.1813 174.233 28.6679C174.233 28.1546 174.431 27.7293 174.827 27.3919C175.238 27.0399 175.744 26.8639 176.345 26.8639C176.888 26.8639 177.328 26.9959 177.665 27.2599C178.002 27.5239 178.171 27.8979 178.171 28.3819C178.171 28.9686 177.98 29.4379 177.599 29.7899C177.218 30.1273 176.712 30.2959 176.081 30.2959ZM175.905 42.1099C174.952 42.1099 174.255 41.7726 173.815 41.0979C173.39 40.4233 173.177 39.5286 173.177 38.4139C173.177 37.7539 173.258 36.9106 173.419 35.8839C173.595 34.8426 173.815 33.8746 174.079 32.9799C174.211 32.5106 174.387 32.1879 174.607 32.0119C174.827 31.8359 175.179 31.7479 175.663 31.7479C176.411 31.7479 176.785 31.9973 176.785 32.4959C176.785 32.8626 176.646 33.7133 176.367 35.0479C176.015 36.6613 175.839 37.7539 175.839 38.3259C175.839 38.7659 175.898 39.1033 176.015 39.3379C176.132 39.5726 176.33 39.6899 176.609 39.6899C176.873 39.6899 177.203 39.5066 177.599 39.1399C177.995 38.7733 178.523 38.1939 179.183 37.4019C179.359 37.1966 179.557 37.0939 179.777 37.0939C179.968 37.0939 180.114 37.1819 180.217 37.3579C180.334 37.5339 180.393 37.7759 180.393 38.0839C180.393 38.6706 180.254 39.1253 179.975 39.4479C178.523 41.2226 177.166 42.1099 175.905 42.1099Z" fill="white"/>
<path d="M182.705 42.5939C181.943 42.5939 181.356 42.4179 180.945 42.0659C180.549 41.7139 180.351 41.3179 180.351 40.8779C180.351 40.4966 180.491 40.1666 180.769 39.8879C181.048 39.6093 181.459 39.4699 182.001 39.4699C182.192 39.4699 182.412 39.4919 182.661 39.5359C182.925 39.5653 183.123 39.5873 183.255 39.6019C183.241 39.2206 183.153 38.8613 182.991 38.5239C182.845 38.1866 182.654 37.8639 182.419 37.5559C182.185 37.2333 181.965 36.9546 181.759 36.7199C181.305 37.5853 180.85 38.3039 180.395 38.8759C179.955 39.4479 179.471 39.9906 178.943 40.5039C178.679 40.7679 178.401 40.8999 178.107 40.8999C177.873 40.8999 177.682 40.8193 177.535 40.6579C177.389 40.4819 177.315 40.2693 177.315 40.0199C177.315 39.7266 177.418 39.4553 177.623 39.2059L177.909 38.8539C178.716 37.8566 179.325 37.0353 179.735 36.3899C179.985 35.9646 180.278 35.3999 180.615 34.6959C180.953 33.9773 181.283 33.2366 181.605 32.4739C181.884 31.8286 182.463 31.5059 183.343 31.5059C183.754 31.5059 184.04 31.5426 184.201 31.6159C184.363 31.6893 184.443 31.8066 184.443 31.9679C184.443 32.0559 184.414 32.1953 184.355 32.3859C184.297 32.5766 184.216 32.7673 184.113 32.9579C183.849 33.4859 183.717 33.9333 183.717 34.2999C183.717 34.5199 183.791 34.7619 183.937 35.0259C184.099 35.2899 184.341 35.6199 184.663 36.0159C185.133 36.6319 185.485 37.1599 185.719 37.5999C185.969 38.0253 186.093 38.4946 186.093 39.0079C186.093 39.1546 186.079 39.3599 186.049 39.6239C186.768 39.3453 187.611 38.6046 188.579 37.4019C188.755 37.1966 188.953 37.0939 189.173 37.0939C189.364 37.0939 189.511 37.1819 189.613 37.3579C189.731 37.5339 189.789 37.7759 189.789 38.0839C189.789 38.6413 189.65 39.0959 189.371 39.4479C188.638 40.3573 187.934 40.9806 187.259 41.3179C186.599 41.6406 185.778 41.8166 184.795 41.8459C184.209 42.3446 183.512 42.5939 182.705 42.5939Z" fill="white"/>
<path d="M197.814 37.0939C198.005 37.0939 198.151 37.1819 198.254 37.3579C198.371 37.5339 198.43 37.7759 198.43 38.0839C198.43 38.6706 198.291 39.1253 198.012 39.4479C197.469 40.1079 196.699 40.7166 195.702 41.2739C194.719 41.8313 193.663 42.1099 192.534 42.1099C190.994 42.1099 189.799 41.6919 188.948 40.8559C188.097 40.0199 187.672 38.8759 187.672 37.4239C187.672 36.4119 187.885 35.4733 188.31 34.6079C188.735 33.7279 189.322 33.0313 190.07 32.5179C190.833 32.0046 191.691 31.7479 192.644 31.7479C193.495 31.7479 194.177 32.0046 194.69 32.5179C195.203 33.0166 195.46 33.6986 195.46 34.5639C195.46 35.5759 195.093 36.4486 194.36 37.1819C193.641 37.9006 192.417 38.4726 190.686 38.8979C191.053 39.5726 191.749 39.9099 192.776 39.9099C193.436 39.9099 194.184 39.6826 195.02 39.2279C195.871 38.7586 196.604 38.1499 197.22 37.4019C197.396 37.1966 197.594 37.0939 197.814 37.0939ZM192.27 33.9039C191.727 33.9039 191.265 34.2193 190.884 34.8499C190.517 35.4806 190.334 36.2433 190.334 37.1379V37.1819C191.199 36.9766 191.881 36.6686 192.38 36.2579C192.879 35.8473 193.128 35.3706 193.128 34.8279C193.128 34.5493 193.047 34.3293 192.886 34.1679C192.739 33.9919 192.534 33.9039 192.27 33.9039Z" fill="white"/>
<path d="M200.731 42.5939C199.968 42.5939 199.381 42.4179 198.971 42.0659C198.575 41.7139 198.377 41.3179 198.377 40.8779C198.377 40.4966 198.516 40.1666 198.795 39.8879C199.073 39.6093 199.484 39.4699 200.027 39.4699C200.217 39.4699 200.437 39.4919 200.687 39.5359C200.951 39.5653 201.149 39.5873 201.281 39.6019C201.266 39.2206 201.178 38.8613 201.017 38.5239C200.87 38.1866 200.679 37.8639 200.445 37.5559C200.21 37.2333 199.99 36.9546 199.785 36.7199C199.33 37.5853 198.875 38.3039 198.421 38.8759C197.981 39.4479 197.497 39.9906 196.969 40.5039C196.705 40.7679 196.426 40.8999 196.133 40.8999C195.898 40.8999 195.707 40.8193 195.561 40.6579C195.414 40.4819 195.341 40.2693 195.341 40.0199C195.341 39.7266 195.443 39.4553 195.649 39.2059L195.935 38.8539C196.741 37.8566 197.35 37.0353 197.761 36.3899C198.025 35.9646 198.289 35.4586 198.553 34.8719C198.831 34.2853 199.191 33.4859 199.631 32.4739C199.909 31.8286 200.489 31.5059 201.369 31.5059C201.779 31.5059 202.065 31.5426 202.227 31.6159C202.388 31.6893 202.469 31.8066 202.469 31.9679C202.469 32.0559 202.439 32.1953 202.381 32.3859C202.322 32.5766 202.241 32.7673 202.139 32.9579C201.875 33.4859 201.743 33.9333 201.743 34.2999C201.743 34.5199 201.816 34.7619 201.963 35.0259C202.124 35.2899 202.366 35.6199 202.689 36.0159C203.158 36.6319 203.51 37.1599 203.745 37.5999C203.994 38.0253 204.119 38.4946 204.119 39.0079C204.119 39.6239 203.972 40.2106 203.679 40.7679C203.4 41.3106 203.004 41.7506 202.491 42.0879C201.977 42.4253 201.391 42.5939 200.731 42.5939Z" fill="white"/>
</svg>
