<svg width="172" height="210" viewBox="0 0 172 210" fill="none" xmlns="http://www.w3.org/2000/svg">
<path d="M97.3947 39.3803L93.2731 41.0236L76.2624 36.3025L69.4378 34.7101L71.7528 29.9837L61.374 16.8697C60.4187 15.0279 59.9577 12.9696 60.0359 10.8962C60.2018 7.55614 60.5203 7.62038 60.5203 7.62038L72.6146 2.38281L86.9356 13.0613L87.6662 28.1638C87.6662 28.1638 91.1936 32.7564 93.2731 34.0919L94.1884 35.0554H94.4186C94.4186 35.0554 96.656 36.3775 97.3331 37.4641L98.0102 38.5506L97.3947 39.3803Z" fill="#404B69"/>
<path d="M55.2266 85.0773L62.7711 71.5859L98.4198 89.2336L95.4196 105.053L64.3689 98.8416L55.2266 85.0773Z" fill="#00818A"/>
<path d="M29.1949 80.692C29.3967 80.6477 29.6025 80.7484 29.6913 80.935C29.7801 81.1216 29.7286 81.3448 29.5669 81.4735C29.0973 81.8555 28.5102 82.0635 27.9049 82.0623H12.0584C11.0614 82.0624 10.0822 81.7973 9.22148 81.2942C8.29736 80.7561 7.55257 79.9573 7.08042 78.9979C5.93227 76.6641 7.32932 75.3822 11.5686 77.8444C17.4565 81.2728 15.733 77.5768 15.8802 75.0316C16.0274 72.4864 23.3364 77.9327 26.5855 79.9533C27.7577 80.6813 28.5981 80.8178 29.1949 80.692Z" fill="#ACDDEA"/>
<path d="M112.527 125.647C112.007 125.533 111.476 125.793 111.248 126.274C111.019 126.755 111.152 127.331 111.569 127.662C112.779 128.647 114.291 129.184 115.851 129.183H156.713C159.285 129.184 161.811 128.499 164.03 127.199C166.412 125.811 168.332 123.752 169.551 121.279C172.514 115.255 168.915 111.947 157.979 118.301C142.77 127.133 147.236 117.621 146.862 111.048C146.487 104.475 127.63 118.542 119.245 123.742C116.226 125.618 114.058 125.968 112.527 125.647Z" fill="#ACDDEA"/>
<path d="M69.4223 34.7039C69.4142 37.2667 69.076 39.8177 68.416 42.294C67.2678 46.6002 65.2365 50.1704 62.8813 51.3935C62.8813 51.3935 49.5399 52.7798 42.7714 47.8206C41.7968 47.1232 40.9609 46.25 40.3065 45.246C35.5213 37.7523 41.6233 20.9182 41.6233 20.9182L43.7189 19.002L45.1989 20.9182L47.6076 37.7282L69.4223 34.7039Z" fill="#222C3F"/>
<path d="M68.416 42.2946C67.2679 46.6008 65.2365 50.1711 62.8814 51.3941C62.8814 51.3941 49.5399 52.7805 42.7715 47.8212C60.5102 55.1437 67.5328 39.166 67.5328 39.166C67.5328 39.166 67.945 40.6139 68.416 42.2946Z" fill="#10162B"/>
<path d="M86.5423 103.974C83.0844 105.641 79.4949 107.019 75.8103 108.095C64.0666 111.652 52.3469 112.731 52.3469 112.731L51.9749 123.436L51.1212 148.147L48.4957 150.78L45.6856 148.147C45.6856 148.147 32.7081 120.615 33.7599 108.692C34.8117 96.7692 55.2267 85.079 55.2267 85.079L59.4472 78.043L86.5423 103.974Z" fill="#00818A"/>
<path d="M131.194 35.0566C131.194 35.0566 114.54 41.3433 97.395 39.3789C96.7845 37.7104 95.7605 36.2242 94.4189 35.0593C94.7374 35.2761 100.475 38.6884 110.927 38.3566C121.423 38.0247 131.194 35.0566 131.194 35.0566Z" fill="#283149"/>
<path d="M131.67 41.1133C109.315 58.2203 94.4053 57.2462 94.4053 57.2462C94.614 56.5789 94.8442 55.8937 95.0958 55.1907C112.971 54.519 130.841 41.7235 131.67 41.1133V41.1133Z" fill="#283149"/>
<path d="M111.534 160.509L109.197 164.274L105.651 161.087C105.651 161.087 92.39 135.153 77.2821 110.504C74.2552 105.564 71.156 100.674 68.0729 96.052L55.2266 85.079C55.2266 85.079 62.3509 82.938 72.1704 86.8079C73.2409 87.2308 74.3114 87.651 75.3525 88.0524C83.8819 91.3283 91.5362 93.5603 98.4171 89.2327C102.541 104.346 107.958 127.55 111.504 160.265C111.515 160.345 111.526 160.428 111.534 160.509Z" fill="#00818A"/>
<path d="M41.6172 20.9124L43.0035 15.5517L47.5292 15.3242L48.1768 18.0889L45.1928 20.9124H41.6172Z" fill="#EFA08D"/>
<path d="M59.0891 16.6703L58.6128 19.5367C58.5409 19.975 58.178 20.307 57.7349 20.3396C57.6851 20.3449 57.6349 20.3449 57.5851 20.3396L5.60284 16.119L3.80703 15.9745C3.53885 15.9526 3.29203 15.8196 3.12631 15.6076C2.96058 15.3956 2.89106 15.124 2.93455 14.8584L4.8963 3.08262C4.93982 2.81728 5.09254 2.58232 5.31735 2.43482C5.54217 2.28732 5.8185 2.24077 6.07923 2.30648L11.199 3.60718L14.3732 4.41007L55.254 14.7862L56.0783 14.9949H56.0917L58.3799 15.5757C58.8649 15.7008 59.1732 16.1766 59.0891 16.6703Z" fill="#404B69"/>
<path d="M14.4452 3.98759L14.3729 4.41581V4.43989L13.9527 6.93155L12.3336 16.6546L12.2613 17.0855C12.1861 17.5352 11.7881 17.8586 11.3326 17.8402L1.72728 17.4441C1.46848 17.4331 1.22684 17.3116 1.06359 17.1105C0.900337 16.9093 0.83114 16.6479 0.873527 16.3923L1.67643 11.6392L2.88077 4.41313L3.45618 0.957997C3.49852 0.702308 3.64849 0.477061 3.86807 0.339379C4.08764 0.201697 4.35573 0.164808 4.60433 0.238066L13.835 2.96791C14.2644 3.10782 14.5249 3.54303 14.4452 3.98759Z" fill="#283149"/>
<path d="M62.8676 15.6074L62.7418 16.3675L61.8453 21.7656C61.8009 22.0301 61.6387 22.2602 61.4045 22.3908C61.1702 22.5215 60.8893 22.5386 60.6409 22.4374L55.5559 20.3846C55.427 20.3331 55.3123 20.2514 55.2214 20.1464C55.0487 19.9471 54.9733 19.6815 55.0153 19.4211L55.5827 16.0088C55.5811 16.0018 55.5811 15.9945 55.5827 15.9874L55.6201 15.7546L55.6415 15.6261C55.686 15.3662 55.8439 15.1396 56.0724 15.0079C56.1915 14.9357 56.3267 14.8943 56.4659 14.8875L61.9443 14.5797C62.2127 14.5637 62.4738 14.671 62.6536 14.8711C62.8333 15.0711 62.9121 15.3422 62.8676 15.6074Z" fill="#283149"/>
<path d="M74.1401 26.8133C72.1771 27.7952 70.1522 28.6481 68.0782 29.3665C67.6554 29.511 67.2299 29.6342 66.8043 29.7707C62.747 30.9509 63.5499 26.8963 61.9281 24.5946C61.8863 24.5356 61.8398 24.4801 61.7889 24.4287C61.1198 23.7382 59.5167 23.1708 59.5274 21.9933C59.5274 21.5998 59.7147 21.1395 60.1751 20.5828C61.2456 19.3009 61.4356 18.2196 61.3634 16.8815C61.3072 15.8324 61.0823 14.6253 60.978 13.0356C60.978 12.9045 60.9619 12.768 60.9592 12.6475C60.9579 12.6288 60.9579 12.61 60.9592 12.5913C60.9592 12.5672 60.9592 12.5432 60.9592 12.5191C60.9592 12.3157 60.9592 12.1149 60.9592 11.9196C61.077 11.8286 63.9273 9.69019 67.7544 11.9196C69.6064 12.9901 71.4103 15.5273 73.7761 18.4739C73.4737 19.7478 73.3467 21.057 73.3988 22.3653C73.4603 23.873 73.7093 25.3672 74.1401 26.8133Z" fill="#EFA08D"/>
<path d="M76.2628 31.3856C74.3321 33.1012 71.9647 34.2497 69.4221 34.7042L68.084 29.3677C70.1579 28.6492 72.1829 27.7964 74.1458 26.8145C74.4098 27.7132 74.7298 28.5946 75.104 29.4533C75.1789 29.6273 75.2592 29.7959 75.3448 29.9645C75.6019 30.4681 75.9095 30.9442 76.2628 31.3856Z" fill="#EFA08D"/>
<path d="M97.395 39.38C97.376 39.353 97.3555 39.327 97.3335 39.3024C93.0514 33.6821 88.7371 35.2879 85.7878 31.9906C82.0811 27.845 80.0203 28.937 76.8221 25.8833C74.7319 23.8867 74.681 21.3603 74.9005 19.8535C75.6338 20.7287 76.4206 21.6252 77.2771 22.5298C79.4254 24.8198 81.8753 26.8069 84.5594 28.4365C88.6756 30.9014 91.3974 32.6249 93.2735 34.1049C93.3779 34.1906 93.4367 34.2334 93.4367 34.2334C93.79 34.5171 94.1112 34.7901 94.4056 35.0604H94.419C95.7605 36.2252 96.7845 37.7115 97.395 39.38Z" fill="#DBEDF3"/>
<path d="M93.2731 34.0938C91.3997 32.6138 88.6752 30.8822 84.559 28.4254C81.875 26.7958 79.4251 24.8087 77.2767 22.5187C76.4203 21.6248 75.6335 20.7283 74.9002 19.8424C74.5094 19.374 74.1321 18.911 73.7681 18.4587C71.4022 15.5148 69.5984 12.9857 67.7464 11.9044C67.5055 11.7653 67.27 11.6422 67.0398 11.5351C63.5606 9.92931 61.0609 11.8027 60.9512 11.9018C60.9641 10.9851 61.0808 10.0729 61.2991 9.18261C61.7567 9.71788 62.3884 10.0337 63.3599 10.3655L63.7024 10.478C65.3216 10.9891 67.8909 10.9008 70.1256 10.1568C71.445 9.7152 72.644 9.04344 73.4576 8.13082C73.8936 7.58327 74.1305 6.90378 74.1294 6.20387C74.1428 5.89161 74.1257 5.57879 74.0785 5.26983C73.9182 4.17346 73.4042 3.15946 72.6146 2.38208C86.8151 0.299901 90.9019 9.72055 91.868 12.2069C92.8342 14.6932 91.7637 16.6656 90.1258 18.82C89.7969 19.2523 89.5144 19.7178 89.2827 20.2091C89.1231 20.5472 88.9975 20.9004 88.908 21.2635C88.6115 22.437 88.6702 23.6722 89.0766 24.8123C89.1421 24.9953 89.1756 25.1881 89.1757 25.3824C89.1749 25.9459 88.9004 26.4738 88.4397 26.7982C88.3077 26.8905 88.2288 27.0412 88.2282 27.2023C88.2282 27.2617 88.2391 27.3207 88.2604 27.3762C89.7029 31.0375 92.5639 33.5184 93.2731 34.0938Z" fill="#3E3939"/>
<path d="M98.4198 89.2347C91.5389 93.5623 83.8846 91.3303 75.3552 88.0545C74.3088 87.653 73.2463 87.2328 72.173 86.81C62.3509 82.94 55.2266 85.0811 55.2266 85.0811C55.2266 85.0811 55.2961 73.233 62.8808 51.3942C64.6312 46.3547 66.7803 40.7852 69.4218 34.7073C71.9643 34.2528 74.3317 33.1043 76.2625 31.3887C77.3211 32.7085 78.76 33.6709 80.384 34.1453C83.3066 34.9964 86.949 35.5584 90.3587 35.9625C95.0449 36.5219 97.1298 39.0376 97.3706 39.3507L97.392 39.3775C97.4095 43.2199 97.0437 47.0544 96.3001 50.8241C95.9976 52.3047 95.5952 53.763 95.0958 55.1892C94.8442 55.8922 94.614 56.5773 94.4053 57.2446C92.5318 63.1673 92.3338 67.8616 94.2286 74.6595C94.9084 77.0976 96.4687 82.0381 98.4198 89.2347Z" fill="#404B69"/>
<path d="M131.221 74.9603L131.419 77.6902L129.091 77.278C129.091 77.278 106.878 70.1804 94.4059 57.2431C94.6146 56.5767 91.5235 53.8013 91.7751 53.0975C92.2782 51.6924 82.3036 44.6216 82.4989 43.1255C84.1609 30.3942 97.3954 39.3786 97.3954 39.3786C97.3954 39.3786 116.949 66.6129 131.221 74.9603Z" fill="#404B69"/>
<path d="M131.222 74.9609L138.22 78.2314C138.358 78.2985 138.426 78.4562 138.381 78.6026C138.335 78.7489 138.19 78.8402 138.038 78.8175L134.987 78.3144C134.841 78.2894 134.693 78.349 134.605 78.4683C134.517 78.5877 134.503 78.7465 134.57 78.8791L135.464 80.6669C135.576 80.8954 135.517 81.1712 135.321 81.3339C135.125 81.4967 134.844 81.5042 134.639 81.352L132.766 79.9362C132.766 79.9362 129.528 80.1155 129.107 77.2786L131.222 74.9609Z" fill="#EFA08D"/>
<path d="M45.6858 148.164L39.4821 150.251C38.8984 150.459 38.5217 151.028 38.557 151.646C38.5922 152.265 39.031 152.787 39.6347 152.927L49.5371 155.068C50.0481 155.178 50.5809 155.04 50.9742 154.696C51.3675 154.352 51.5749 153.842 51.5336 153.321L51.1268 148.158L45.6858 148.164Z" fill="#222222"/>
<path d="M111.47 160.48L117.283 166.738C117.733 167.222 117.817 167.941 117.491 168.516C117.166 169.09 116.505 169.388 115.859 169.251L106.329 167.225C105.81 167.115 105.358 166.802 105.072 166.356C104.786 165.91 104.69 165.368 104.806 164.851L105.652 161.104L111.47 160.48Z" fill="#222222"/>
<path d="M49.3659 16.0315V17.9424C49.3659 18.5699 49.1097 19.1703 48.6566 19.6044C48.3917 19.8582 48.0708 20.0461 47.7199 20.1531L45.2015 20.9051H43.2799C43.1967 20.3291 43.223 19.7425 43.3575 19.1762C43.8125 17.4982 45.4558 17.5196 46.4674 17.7069C46.7447 17.7567 47.0177 17.8283 47.2837 17.921L48.1776 16.6391L48.7396 15.8362C48.8262 15.7147 48.9811 15.6627 49.1235 15.7071C49.2659 15.7515 49.3637 15.8824 49.3659 16.0315Z" fill="#EFA08D"/>
<path d="M49.6579 13.3918L49.0343 14.1947C48.8405 14.4387 48.5428 14.5767 48.2314 14.5667L43.7458 14.3927C43.5263 14.3838 43.3214 14.2803 43.1839 14.109C43.0463 13.9376 42.9897 13.7151 43.0286 13.4988L43.2721 12.1419C43.3584 11.6654 43.7901 11.3307 44.2731 11.3658L48.9379 11.6977C49.4154 11.7323 49.8036 12.096 49.8693 12.5702C49.9124 12.8613 49.8362 13.1576 49.6579 13.3918Z" fill="#EFA08D"/>
<path d="M86.9353 51.3049C86.9147 51.9077 86.8421 52.5076 86.7185 53.098C83.2254 50.8134 80.003 48.1396 77.1132 45.1279C71.8034 39.5826 69.5124 34.891 69.4375 34.709C74.9739 40.5451 80.8147 46.0847 86.9353 51.3049Z" fill="#283149"/>
<path d="M146.559 44.055C146.558 44.4333 146.276 44.7519 145.901 44.799L131.665 46.1372C131.275 46.1689 130.926 45.8966 130.862 45.5109L130.241 41.4402C130.237 41.4118 130.237 41.383 130.241 41.3546C130.239 41.3243 130.239 41.2938 130.241 41.2636L131.175 31.3799C131.209 31.0235 131.491 30.7409 131.847 30.7055L144.72 29.3887C144.922 29.3679 145.123 29.4296 145.278 29.5597C145.434 29.6898 145.53 29.8772 145.545 30.0792L146.281 40.0913L146.559 44.055Z" fill="#404B69"/>
<path d="M146.559 44.055C146.558 44.4333 146.276 44.7519 145.901 44.799L131.665 46.1372C131.275 46.1689 130.926 45.8967 130.862 45.5109L130.279 41.6945C130.266 41.6067 130.29 41.5175 130.345 41.448C130.4 41.3785 130.482 41.335 130.571 41.3279L145.761 40.1182C146.037 40.1012 146.275 40.3085 146.297 40.5838L146.559 44.055Z" fill="#222C3F"/>
<path d="M133.188 35.8008L133.17 36.1674C133.157 36.045 133.163 35.9213 133.188 35.8008Z" fill="#222C3F"/>
<path d="M143.957 34.9869C144.104 36.325 141.816 37.6792 138.827 38.0058C138.605 38.0298 138.388 38.0486 138.174 38.0593H138.104C135.449 38.1904 133.303 37.3956 133.169 36.1644L133.188 35.7978L133.412 31.3818L133.495 29.7279L141.698 28.834L143.856 34.6363L143.92 34.8075C143.938 34.8659 143.951 34.926 143.957 34.9869Z" fill="#222C3F"/>
<path d="M137.834 31.479C140.1 31.2313 141.83 30.0538 141.698 28.8489C141.567 27.644 139.623 26.8682 137.357 27.1159C135.092 27.3636 133.362 28.5412 133.493 29.746C133.625 30.9509 135.569 31.7268 137.834 31.479Z" fill="#DBEDF3"/>
<path d="M141.699 28.8344C141.662 28.5576 141.539 28.2993 141.348 28.0957C141.363 28.1457 141.374 28.1967 141.38 28.2483C141.511 29.4526 139.775 30.6302 137.516 30.8791C135.757 31.0718 134.2 30.6462 133.525 29.8835C133.793 31.0022 135.666 31.7034 137.834 31.4652C140.093 31.2163 141.835 30.0387 141.699 28.8344Z" fill="#ACDDEA"/>
<path d="M137.005 30.5409C138.492 30.3783 139.628 29.6057 139.541 28.8152C139.455 28.0247 138.179 27.5157 136.692 27.6783C135.205 27.8409 134.07 28.6135 134.157 29.404C134.243 30.1945 135.518 30.7035 137.005 30.5409Z" fill="#F0FCFF"/>
<path d="M73.4529 8.13989C72.65 9.05252 71.4403 9.72428 70.1208 10.1659C67.8915 10.9099 65.3222 10.9982 63.6977 10.487L63.3551 10.3746C62.3836 10.0428 61.7493 9.71357 61.2943 9.19169C61.2488 9.13816 61.206 9.08463 61.1632 9.02843C60.9654 8.76894 60.8009 8.48572 60.6734 8.18539C60.5932 8.00518 60.5331 7.81671 60.4941 7.62336C60.427 7.3281 60.4353 7.02069 60.5182 6.72947C60.5396 6.65988 60.561 6.5903 60.5878 6.52072C61.8965 2.7471 67.4739 0.437429 70.7578 1.33667C71.4543 1.52375 72.0922 1.88369 72.6125 2.38312C73.4011 3.16265 73.9133 4.17861 74.0711 5.27622C74.2557 6.39493 74.0283 7.49757 73.4529 8.13989Z" fill="#060915"/>
<path d="M74.0734 5.27622C74.0029 5.79613 73.7878 6.28578 73.4525 6.68932C71.2633 9.14886 66.28 9.85006 63.7027 9.03645C62.4314 8.63501 61.682 8.26032 61.1682 7.58053C61.12 7.5163 61.0745 7.44939 61.029 7.37981C60.8472 7.11341 60.7006 6.82466 60.5928 6.52071C61.9015 2.7471 67.4789 0.43743 70.7628 1.33667C71.4593 1.52374 72.0972 1.88369 72.6175 2.38312C73.4051 3.16302 73.9164 4.17895 74.0734 5.27622Z" fill="#283149"/>
<path d="M62.8332 5.84479C62.2283 4.43705 66.1866 1.95342 69.6257 2.46995C73.0647 2.98648 71.0441 6.36935 67.969 6.97955C65.2793 7.51214 63.3283 7.00097 62.8332 5.84479Z" fill="#DBEDF3"/>
<path d="M69.6249 2.46927C69.1695 2.40372 68.7086 2.38489 68.2493 2.41307C68.4367 2.42378 68.6213 2.44251 68.8033 2.46927C72.221 2.98313 70.2244 6.36867 67.1467 6.97887C66.6269 7.08402 66.1 7.15022 65.5703 7.17692C66.3783 7.21108 67.1874 7.14456 67.979 6.97887C71.0434 6.36867 73.0426 2.98313 69.6249 2.46927Z" fill="#ACDDEA"/>
<path d="M63.422 5.44743C63.0473 4.57495 65.5015 3.03874 67.6319 3.35722C69.7622 3.6757 68.5124 5.76592 66.6068 6.15131C64.9395 6.48049 63.7298 6.16469 63.422 5.44743Z" fill="#F0FCFF"/>
<path d="M61.3611 16.874C61.012 16.8202 60.6924 16.6471 60.4565 16.3842C58.6232 14.4358 59.1986 8.70047 59.8517 7.81996C60.1915 7.35695 60.4993 7.62726 60.4993 7.62726C60.5383 7.82061 60.5985 8.00908 60.6786 8.18929C60.8061 8.48962 60.9706 8.77284 61.1684 9.03233C61.2112 9.08854 61.254 9.14206 61.2995 9.19559C61.0812 10.0859 60.9645 10.9981 60.9516 11.9147V12.5142V12.5865C60.9503 12.6052 60.9503 12.624 60.9516 12.6427C60.9516 12.7712 60.9516 12.9103 60.9704 13.0308C61.0801 14.6178 61.3049 15.8248 61.3611 16.874Z" fill="#060915"/>
<path d="M61.7899 24.4237C61.1208 23.7332 59.5177 23.1659 59.5284 21.9883C59.993 22.7695 60.8043 23.2802 61.7096 23.3612C63.3127 23.5673 62.5633 24.595 61.7899 24.4237Z" fill="#E06855"/>
<path d="M68.0791 29.3683L72.0909 27.7812L68.8659 32.4943L68.0791 29.3683Z" fill="#E06855"/>
<path d="M47.2763 17.9289L46.923 18.5418L46.46 17.7148C46.7373 17.7646 47.0102 17.8362 47.2763 17.9289Z" fill="#E06855"/>
<path d="M111.507 160.265L111.47 160.479C108.082 134.506 101.032 133.668 98.0159 122.791C95.1522 112.493 102.079 98.3352 90.1341 95.1129C81.0587 92.6667 75.516 88.216 75.3555 88.0527C83.8849 91.3286 91.5392 93.5606 98.42 89.233C102.544 104.349 107.961 127.55 111.507 160.265Z" fill="#00414B"/>
<path d="M75.8112 108.096C64.0675 111.653 52.3479 112.732 52.3479 112.732L51.9759 123.437L48.6171 112.665C48.1883 111.278 48.9435 109.802 50.3193 109.338C63.0372 105.085 68.0793 96.0527 68.0793 96.0527C70.662 99.9227 73.258 103.985 75.8112 108.096Z" fill="#00414B"/>
<path d="M94.3998 57.2466C94.2339 57.1824 91.0169 55.9085 86.7188 53.1037C86.8424 52.5133 86.9149 51.9134 86.9355 51.3105C89.3362 53.3365 91.8546 55.3732 94.3998 57.2466Z" fill="#060915"/>
<path d="M94.4058 57.2459C92.5323 63.1686 92.3343 67.8628 94.2291 74.6607C94.9089 77.0988 96.4585 82.0393 98.4203 89.2359C91.5394 93.5636 83.8851 91.3315 75.3557 88.0557C75.1951 87.9031 69.0797 82.058 71.4162 73.1165C73.41 65.4889 84.9664 61.5253 86.7221 53.1029C91.0202 55.9184 94.2372 57.1816 94.4031 57.2459C91.8579 55.3724 89.3395 53.3411 86.9388 51.3098C86.9741 50.1372 86.8416 48.9656 86.5454 47.8306C84.7469 40.6874 78.7841 37.5481 76.2657 31.3926C77.3243 32.7124 78.7631 33.6748 80.3872 34.1492C83.3097 35.0003 86.9522 35.5623 90.3619 35.9664C95.0481 36.5258 97.1329 39.0415 97.3738 39.3546L97.3952 39.3814C97.3952 39.3814 87.4687 36.4374 96.2979 50.8227C106.297 67.1108 129.717 76.5957 129.717 76.5957L129.088 77.2781C129.088 77.2781 106.877 70.1805 94.4058 57.2459Z" fill="#222C3F"/>
<path d="M97.3336 39.3149C96.5801 38.4464 95.6589 37.7391 94.6252 37.2354C93.2908 36.5609 91.8456 36.133 90.3591 35.9722C86.9495 35.5681 83.307 35.006 80.3845 34.155C78.7604 33.6805 77.3216 32.7182 76.263 31.3984C75.9078 30.9572 75.5984 30.481 75.3396 29.9772C75.254 29.8086 75.1737 29.64 75.0988 29.466C74.7246 28.6073 74.4046 27.726 74.1406 26.8272C73.7067 25.3797 73.4549 23.8836 73.3913 22.3738C73.3392 21.0655 73.4661 19.7563 73.7686 18.4824C74.1326 18.9347 74.51 19.3977 74.9007 19.8661C74.6839 21.3728 74.7321 23.8993 76.8223 25.8958C80.0205 28.9495 82.0813 27.8576 85.788 32.0032C88.7373 35.3004 93.0462 33.6732 97.3336 39.3149Z" fill="#ACDDEA"/>
<path d="M48.17 16.6467L47.2761 17.9286C47.01 17.8359 46.7371 17.7643 46.4598 17.7145C45.4481 17.5272 43.8049 17.5058 43.3499 19.1838L12.334 16.6654L13.9532 6.93164C13.7792 9.47147 14.2904 13.138 18.4226 14.0881C24.9154 15.5815 29.6016 10.1432 37.4245 13.8419C42.737 16.371 45.9486 16.8822 48.17 16.6467Z" fill="#222C3F"/>
<path d="M56.0886 14.9995C55.8601 15.1311 55.7022 15.3578 55.6577 15.6177L55.0261 19.4207C54.9841 19.6811 55.0596 19.9467 55.2322 20.146L48.6484 19.6108C49.1015 19.1766 49.3577 18.5763 49.3577 17.9488V16.4286C51.8092 15.805 52.9466 14.3224 55.2456 14.7854C55.5293 14.8442 55.8049 14.9111 56.0699 14.9941L56.0886 14.9995Z" fill="#222C3F"/>
<path d="M60.1726 20.5809C59.7123 21.1376 59.5276 21.5979 59.5249 21.9914L55.5666 20.3856C55.4377 20.334 55.323 20.2523 55.2321 20.1474C55.0595 19.948 54.984 19.6824 55.026 19.4221L55.5934 16.0098C55.4596 16.9197 55.2749 19.1411 56.498 19.5479C58.0423 20.0644 61.3609 19.5131 61.3609 16.8715C61.4332 18.2124 61.2324 19.2936 60.1726 20.5809Z" fill="#10162B"/>
<path d="M10.693 15.325C12.5075 12.9779 14.2605 4.93016 14.3675 4.42969L13.9527 6.93205L12.3335 16.6551L12.2613 17.086C12.1861 17.5357 11.7881 17.8591 11.3326 17.8407L1.72727 17.4446C1.46847 17.4336 1.22684 17.3121 1.06359 17.111C0.900337 16.9098 0.83114 16.6484 0.873527 16.3928L1.67642 11.6397C2.65596 17.1021 9.28521 17.1476 10.693 15.325Z" fill="#10162B"/>
<path d="M93.2731 34.0931C91.3997 32.6131 88.6752 30.8815 84.559 28.4246C81.875 26.7951 79.4251 24.808 77.2767 22.518C76.4203 21.6241 75.6335 20.7275 74.9002 19.8417C74.5094 19.3733 74.1321 18.9103 73.7681 18.458C71.4022 15.514 69.5984 12.9849 67.7464 11.9037C67.5055 11.7645 67.27 11.6414 67.0398 11.5344C63.5606 9.92856 61.0609 11.802 60.9512 11.901C60.9641 10.9844 61.0808 10.0722 61.2991 9.18187C61.7567 9.71713 62.3884 10.0329 63.3599 10.3648L63.7024 10.4772C65.3216 10.9884 67.8909 10.9001 70.1256 10.1561C71.445 9.71446 72.644 9.0427 73.4576 8.13008C73.8936 7.58253 74.1305 6.90304 74.1294 6.20312C74.3216 7.85135 73.8444 9.50779 72.8046 10.801C70.8857 13.2873 73.3265 16.5739 80.5097 16.4053C87.693 16.2367 88.9455 21.1076 88.9107 21.2494C88.6142 22.4229 88.6728 23.6581 89.0793 24.7982C89.1448 24.9811 89.1783 25.174 89.1783 25.3683C89.1782 25.8596 88.969 26.3277 88.6029 26.6556C88.5533 26.7019 88.5005 26.7448 88.445 26.784C88.313 26.8763 88.2341 27.0271 88.2336 27.1882C88.2336 27.2476 88.2445 27.3066 88.2657 27.3621C88.3728 27.6297 88.4852 27.8974 88.6056 28.149C89.7223 30.4389 91.3134 32.4651 93.2731 34.0931Z" fill="#222222"/>
<path d="M88.6009 28.1653C87.8515 27.7215 87.2229 27.1002 86.7703 26.3561C86.702 26.252 86.7211 26.1136 86.815 26.0319C86.9088 25.9502 87.0486 25.9503 87.1423 26.0323C87.5705 26.3989 88.0843 26.704 88.5982 26.6719C88.5485 26.7183 88.4958 26.7612 88.4403 26.8004C88.3083 26.8927 88.2294 27.0434 88.2288 27.2045C88.2288 27.264 88.2397 27.3229 88.261 27.3785C88.368 27.6488 88.4804 27.911 88.6009 28.1653Z" fill="#0B0B0B"/>
<path d="M138.104 38.0622C135.449 38.1933 133.303 37.3985 133.169 36.1674L133.188 35.8007L133.412 31.3848C133.412 31.3848 135.353 33.1993 138.415 32.2599C137.517 32.9532 136.536 33.5313 135.495 33.9808C133.977 34.6097 134.017 38.18 138.104 38.0622Z" fill="#10162B"/>
<path d="M139.788 175.415L137.792 184.675L136.421 191.037L135.246 196.483L122.082 194.647L9.87402 168.114L14.1347 148.336C14.2922 147.615 15.0033 147.158 15.7245 147.314L138.755 173.828C139.103 173.901 139.407 174.11 139.601 174.407C139.794 174.705 139.862 175.068 139.788 175.415Z" fill="#3E3939"/>
<path d="M136.02 192.896L132.653 208.518C132.497 209.239 131.787 209.697 131.066 209.543L21.029 185.828L8.02743 183.034C7.30688 182.878 6.84851 182.168 7.0024 181.447L10.3692 165.828L122.472 189.985L136.02 192.896Z" fill="#211E1E"/>
<path d="M24.2915 150.588L23.9088 152.36C23.8312 152.722 23.6126 153.039 23.3013 153.24C22.9899 153.441 22.6115 153.509 22.2495 153.431L19.3189 152.791C18.9565 152.712 18.5777 152.781 18.266 152.982C17.9542 153.183 17.7351 153.499 17.6569 153.862L17.0253 156.806C16.8623 157.559 16.1197 158.038 15.3659 157.876L13.5915 157.493C13.2293 157.416 12.9128 157.197 12.7119 156.886C12.5111 156.575 12.4424 156.196 12.521 155.834L13.447 151.536L13.9823 149.058L14.1241 148.397C14.2897 147.643 15.032 147.165 15.7861 147.326L18.9255 148.003L19.8408 148.201L23.2236 148.929C23.9761 149.093 24.4538 149.836 24.2915 150.588Z" fill="#FF7517"/>
<path d="M19.838 148.199L19.8219 148.271C19.6577 149.025 18.9143 149.504 18.1599 149.342L15.2293 148.71C14.7813 148.613 14.3138 148.742 13.9795 149.056L14.1213 148.395C14.2869 147.642 15.0292 147.163 15.7833 147.324L18.9227 148.001L19.838 148.199Z" fill="#FFB55C"/>
<path d="M17.566 181.798L17.1833 183.57C17.1057 183.932 16.8871 184.249 16.5758 184.45C16.2645 184.651 15.886 184.719 15.524 184.641L11.2258 183.715L8.08645 183.035C7.33286 182.872 6.85375 182.129 7.01591 181.376L7.69303 178.236L8.54945 174.259L8.61903 173.938C8.78198 173.184 9.52461 172.705 10.2784 172.867L12.0528 173.25C12.1972 173.281 12.3355 173.335 12.4622 173.411C12.9848 173.715 13.2518 174.321 13.1233 174.912L12.4917 177.856C12.4131 178.218 12.4818 178.597 12.6826 178.908C12.8835 179.219 13.1999 179.438 13.5622 179.515L16.4928 180.147C17.2436 180.309 17.723 181.047 17.566 181.798Z" fill="#FF7517"/>
<path d="M12.4616 173.412L12.4081 173.68C12.3299 174.042 12.1107 174.359 11.799 174.56C11.4872 174.76 11.1085 174.829 10.7461 174.75L8.54883 174.277L8.61841 173.956C8.78136 173.202 9.52398 172.723 10.2777 172.885L12.0521 173.268C12.1956 173.293 12.3339 173.342 12.4616 173.412Z" fill="#FFB55C"/>
<path d="M129.605 173.284C129.769 172.53 130.512 172.051 131.267 172.213L135.562 173.131L138.702 173.808C139.455 173.973 139.934 174.716 139.772 175.47L139.095 178.61L138.169 182.892C138.005 183.646 137.261 184.125 136.507 183.962L134.741 183.601C133.988 183.435 133.509 182.693 133.67 181.939L134.296 179.019C134.375 178.657 134.306 178.279 134.105 177.967C133.905 177.656 133.588 177.437 133.226 177.36L130.282 176.728C129.528 176.564 129.049 175.821 129.211 175.066L129.605 173.284Z" fill="#FF7517"/>
<path d="M129.604 173.283L129.505 173.746C129.705 174.005 129.989 174.184 130.308 174.255L132.082 174.635C132.444 174.713 132.823 174.645 133.134 174.444C133.445 174.243 133.664 173.927 133.742 173.564L133.91 172.78L131.261 172.21C130.507 172.051 129.767 172.531 129.604 173.283Z" fill="#FFB55C"/>
<path d="M126.473 188.891C125.224 189.258 123.888 189.625 122.459 189.975L10.3691 165.819L10.7706 163.945L126.473 188.891Z" fill="#2C2727"/>
<path d="M86.232 172.063C86.682 169.974 88.74 168.646 90.8287 169.096C92.9173 169.546 94.2456 171.604 93.7956 173.693C93.3455 175.782 91.2875 177.11 89.1989 176.66C87.1103 176.21 85.7819 174.152 86.232 172.063Z" fill="#FF7517"/>
<path d="M87.9581 169.784L93.1529 170.903C93.3052 170.936 93.4497 170.999 93.5784 171.087C93.639 170.535 93.267 170.028 92.722 169.921L88.7396 169.061C88.1978 168.94 87.6527 169.252 87.4844 169.781C87.6408 169.75 87.802 169.751 87.9581 169.784Z" fill="#FFB55C"/>
<path d="M56.7632 165.713C57.2133 163.625 59.2713 162.296 61.3599 162.747C63.4486 163.197 64.7769 165.255 64.3269 167.343C63.8768 169.432 61.8188 170.76 59.7302 170.31C57.6415 169.86 56.3132 167.802 56.7632 165.713Z" fill="#FF7517"/>
<path d="M57.8656 166.959L58.4651 164.208C58.5679 163.742 59.0262 163.446 59.4928 163.544L62.244 164.138C62.2889 164.147 62.3328 164.161 62.3752 164.178C62.3644 163.781 62.0836 163.443 61.6954 163.359L58.9441 162.765C58.4773 162.666 58.0179 162.963 57.9164 163.429L57.3169 166.172C57.2283 166.588 57.4555 167.005 57.8522 167.157C57.8506 167.091 57.8551 167.024 57.8656 166.959Z" fill="#FFB55C"/>
<path d="M90.2305 171.857L90.0057 172.898L89.7782 173.907C89.6607 174.443 89.1322 174.784 88.5953 174.67L61.08 168.736C60.8222 168.681 60.597 168.526 60.4539 168.304C60.3108 168.083 60.2617 167.814 60.3172 167.556L60.534 166.547L60.7588 165.506C60.875 164.969 61.4045 164.627 61.9418 164.743L89.4677 170.674C90.0049 170.79 90.3463 171.32 90.2305 171.857Z" fill="#211E1E"/>
<path d="M90.0057 172.898L89.7782 173.907C89.6607 174.443 89.1322 174.784 88.5953 174.67L61.08 168.736C60.8222 168.681 60.597 168.526 60.4539 168.304C60.3108 168.083 60.2617 167.814 60.3172 167.556L60.534 166.547L90.0057 172.898Z" fill="#191515"/>
<path d="M136.422 191.035L136.02 192.908L122.473 189.988C123.888 189.638 125.224 189.271 126.487 188.904L136.422 191.035Z" fill="#231E1E"/>
<path d="M122.472 189.975L136.019 192.895L132.652 208.517C132.496 209.237 131.786 209.696 131.065 209.542L21.0283 185.827C21.3869 185.805 54.3245 183.804 83.119 190.666C98.1519 194.252 112.326 192.494 122.472 189.975Z" fill="#191515"/>
<path d="M137.792 184.674L136.422 191.035L126.474 188.894C133.51 186.82 137.792 184.674 137.792 184.674Z" fill="#352C2C"/>
<path d="M122.496 206.264C122.334 207.018 122.813 207.762 123.567 207.926L127.849 208.852L130.994 209.529C131.748 209.69 132.49 209.211 132.656 208.458L133.333 205.319L134.259 201.021C134.421 200.267 133.942 199.525 133.188 199.362L131.417 198.979C130.662 198.817 129.919 199.295 129.755 200.049L129.12 202.98C129.043 203.342 128.824 203.659 128.513 203.86C128.201 204.06 127.823 204.129 127.461 204.05L124.517 203.419C123.763 203.258 123.021 203.736 122.855 204.489L122.496 206.264Z" fill="#994710"/>
<path d="M127.677 204.358L127.736 204.091C127.646 204.09 127.557 204.08 127.469 204.061L124.525 203.43C123.771 203.269 123.028 203.747 122.863 204.5L122.785 204.861L125.863 205.525C126.259 205.615 126.674 205.542 127.015 205.322C127.356 205.103 127.595 204.755 127.677 204.358Z" fill="#FF7517"/>
<path d="M45.0828 148.16L45.511 148.564C45.6708 148.72 45.7386 148.947 45.69 149.165C45.6415 149.383 45.4837 149.561 45.2728 149.634L44.585 149.859C44.339 149.942 44.0672 149.868 43.8972 149.672L43.5172 149.236C43.3747 149.071 43.3252 148.845 43.3857 148.635C43.4461 148.426 43.6084 148.261 43.8169 148.197L44.4539 148.002C44.6767 147.938 44.9168 147.998 45.0828 148.16Z" fill="#00818A"/>
<path d="M42.6024 149.119L43.0306 149.523C43.1904 149.679 43.2581 149.906 43.2096 150.124C43.1611 150.342 43.0032 150.52 42.7924 150.593L42.1046 150.821C41.8579 150.901 41.5873 150.826 41.4168 150.631L41.0367 150.195C40.8942 150.03 40.8447 149.804 40.9052 149.594C40.9657 149.385 41.1279 149.22 41.3365 149.156L41.9734 148.961C42.1962 148.897 42.4363 148.957 42.6024 149.119Z" fill="#00818A"/>
<path d="M112.824 161.685L112.26 161.891C112.045 161.967 111.887 162.15 111.843 162.373C111.798 162.596 111.874 162.826 112.043 162.978L112.578 163.46C112.771 163.634 113.05 163.676 113.285 163.564L113.82 163.318C114.018 163.225 114.155 163.039 114.184 162.822C114.213 162.606 114.131 162.389 113.964 162.247L113.459 161.811C113.285 161.658 113.043 161.61 112.824 161.685Z" fill="#00818A"/>
<path d="M114.7 163.559L114.146 163.757C113.937 163.834 113.784 164.014 113.739 164.232C113.695 164.45 113.767 164.675 113.929 164.828L114.464 165.312C114.658 165.485 114.936 165.526 115.171 165.416L115.706 165.17C115.903 165.077 116.039 164.89 116.068 164.674C116.097 164.458 116.016 164.242 115.851 164.1L115.345 163.666C115.165 163.515 114.918 163.474 114.7 163.559Z" fill="#00818A"/>
</svg>
