<svg width="699" height="454" viewBox="0 0 699 454" fill="none" xmlns="http://www.w3.org/2000/svg">
<path d="M674.032 355.869C674.034 364.176 673.151 372.459 671.398 380.579C671.079 382.062 670.732 383.542 670.356 385.019C669.939 386.698 669.481 388.371 668.981 390.039C667.911 393.678 666.67 397.295 665.259 400.888C664.333 403.251 663.344 405.606 662.271 407.938C661.128 410.456 659.906 412.955 658.603 415.436C658.294 416.023 657.978 416.618 657.653 417.212C657.491 417.521 657.313 417.83 657.151 418.139C656.595 419.151 656.016 420.162 655.437 421.174C655.229 421.537 655.02 421.9 654.804 422.255C654.078 423.498 653.337 424.726 652.565 425.954C652.178 426.579 651.792 427.197 651.383 427.822L651.259 428.015C650.827 428.695 650.379 429.374 649.931 430.046C649.591 430.564 649.252 431.066 648.904 431.591C648.557 432.116 648.232 432.579 647.885 433.066C647.306 433.907 646.711 434.749 646.109 435.583C645.777 436.046 645.437 436.517 645.097 436.973C644.758 437.429 644.595 437.66 644.325 438C644.055 438.34 643.646 438.911 643.298 439.367L642.263 440.71C641.09 442.255 639.885 443.763 638.649 445.235C635.561 448.958 632.302 452.615 628.873 456.208C626.902 458.268 624.873 460.309 622.788 462.332C622.078 463.019 621.368 463.699 620.649 464.371C612.621 471.896 604.086 478.862 595.105 485.22C585.419 492.105 575.3 498.359 564.812 503.946C545.167 514.395 524.483 522.76 503.097 528.903C491.787 532.185 480.315 534.884 468.727 536.988C422.441 545.436 377.607 544.077 338.503 534.757C325.475 531.636 311.929 531.352 298.781 533.923C297.159 534.247 295.538 534.548 293.908 534.842L289.97 535.537L286.04 536.193C284.959 536.355 283.893 536.525 282.812 536.679C282.534 536.741 282.248 536.764 281.963 536.811C280.719 536.996 279.461 537.174 278.202 537.344C277.352 537.459 276.503 537.575 275.623 537.683L273.453 537.954L272.681 538.054C271.546 538.193 270.426 538.317 269.291 538.432L268.758 538.502C267.499 538.641 266.233 538.764 264.966 538.888C263.7 539.011 262.434 539.127 261.167 539.228C260.905 539.228 260.627 539.282 260.349 539.297L257.746 539.506L255.831 539.645C255.214 539.691 254.596 539.737 253.97 539.761C253.345 539.784 252.688 539.853 252.04 539.884C251.02 539.954 249.978 540.008 248.951 540.054H248.573C247.715 540.108 246.866 540.154 246.032 540.185C245.198 540.216 244.387 540.247 243.576 540.262H243.329C242.14 540.309 240.959 540.332 239.77 540.363C237.198 540.417 234.642 540.448 232.094 540.44C229.546 540.432 227.19 540.44 224.773 540.347L221.005 540.216C219.87 540.216 218.742 540.139 217.623 540.085C216.241 540.023 214.858 539.954 213.476 539.869L210.789 539.683C209.244 539.575 207.7 539.459 206.156 539.336C205.329 539.259 204.511 539.197 203.677 539.104C202.032 538.965 200.387 538.795 198.758 538.618C197.685 538.502 196.634 538.371 195.561 538.247C194.719 538.154 193.87 538.039 193.036 537.938C192.403 537.845 191.746 537.776 191.105 537.676L188.882 537.374C188.642 537.374 188.372 537.305 188.109 537.259C187.19 537.135 186.271 536.996 185.353 536.849L184.287 536.679C183.515 536.564 182.743 536.432 182.017 536.301L180.781 536.1L178.04 535.614C176.897 535.413 175.723 535.189 174.611 534.957C172.748 534.592 170.889 534.211 169.036 533.815C168.109 533.606 167.19 533.413 166.264 533.197L163.522 532.564C162.225 532.262 160.936 531.93 159.661 531.614L155.8 530.602C155.6 530.548 155.383 530.494 155.19 530.432C154.356 530.208 153.538 529.977 152.727 529.745C151.916 529.513 151.036 529.274 150.187 528.973C148.395 528.448 146.604 527.9 144.843 527.336C144.287 527.166 143.746 526.988 143.206 526.811L141.183 526.139C140.457 525.884 139.716 525.652 138.99 525.367C138.264 525.081 137.746 524.942 137.121 524.718C136.078 524.347 135.028 523.946 133.978 523.567C133.136 523.259 132.318 522.942 131.492 522.625L130.519 522.247L128.797 521.568C128.302 521.374 127.816 521.181 127.337 520.973C125.245 520.123 123.175 519.243 121.113 518.317C120.441 518.023 119.731 517.714 119.051 517.39L118.202 517.012L116.256 516.1C114.233 515.127 112.238 514.136 110.272 513.127C109.708 512.842 109.152 512.556 108.604 512.262L108.009 511.946C107.438 511.645 106.851 511.336 106.287 511.027C104.743 510.193 103.219 509.338 101.716 508.463L99.816 507.351C99.7001 507.282 99.5534 507.205 99.4222 507.112C98.7581 506.718 98.0785 506.34 97.4376 505.907C96.7967 505.475 96.0168 505.035 95.3218 504.595L92.3488 502.687C90.8816 501.714 89.4453 500.726 88.0245 499.73C87.6075 499.452 87.2059 499.158 86.8044 498.873C85.6538 498.046 84.4878 497.205 83.3758 496.363C83.0592 496.124 82.7581 495.892 82.4415 495.637C80.843 494.417 79.2677 493.174 77.7311 491.9C76.9975 491.297 76.2793 490.695 75.5535 490.085C74.8276 489.475 74.0091 488.749 73.2369 488.085C72.4647 487.421 71.9009 486.888 71.2523 486.286L69.3527 484.502L69.1751 484.332L67.5149 482.741L67.3604 482.579C66.7658 481.992 66.1867 481.405 65.5998 480.803L65.3836 480.579C65.0232 480.219 64.668 479.848 64.3179 479.467C64.04 479.181 63.762 478.88 63.4917 478.595C63.2214 478.309 63.0515 478.131 62.843 477.9L62.1481 477.127C62.0649 477.045 61.9875 476.958 61.9164 476.865C61.4917 476.386 61.0747 475.907 60.6423 475.436C59.9318 474.664 59.2446 473.83 58.5882 473.012C58.0245 472.355 57.4762 471.683 56.9203 471.004C56.3643 470.324 55.7542 469.537 55.1828 468.78C55.154 468.745 55.1231 468.711 55.0901 468.679C54.65 468.1 54.2098 467.513 53.7774 466.927L53.2446 466.208L52.4724 465.151L52.2871 464.865C52.1522 464.693 52.0284 464.512 51.9164 464.324C51.6616 463.985 51.4145 463.637 51.1905 463.297C51.1485 463.243 51.1098 463.186 51.0747 463.127C50.9125 462.911 50.7736 462.703 50.6268 462.479C50.2253 461.884 49.8546 461.282 49.4376 460.679C49.4376 460.679 49.3913 460.633 49.3836 460.602C49.0284 460.046 48.6577 459.49 48.3102 458.927C47.9627 458.363 47.4763 457.591 47.0593 456.903L46.8122 456.486L46.3102 455.629C45.6384 454.471 44.9743 453.313 44.3334 452.139C44.1404 451.753 43.9473 451.367 43.7465 451.019C43.5458 450.672 43.3295 450.201 43.1056 449.784L42.8739 449.344C42.6655 448.934 42.4724 448.571 42.2716 448.124L42.0477 447.676C41.901 447.367 41.7543 447.05 41.5921 446.734C41.4299 446.417 41.3141 446.124 41.1751 445.822C40.9357 445.305 40.6809 444.78 40.4492 444.278C40.3991 444.132 40.3371 443.99 40.2639 443.853C40.0245 443.274 39.762 442.687 39.4917 442.093C39.4917 442.023 39.4299 441.946 39.4068 441.876C39.1442 441.274 38.9048 440.656 38.6346 440.031C38.5661 439.877 38.5068 439.72 38.457 439.56C38.2253 438.988 37.9936 438.417 37.7851 437.83C37.2601 436.425 36.7581 435.012 36.2871 433.575C35.816 432.139 35.3682 430.703 34.9512 429.259C34.7581 428.486 34.5496 427.799 34.3489 427.058C34.1481 426.317 34.0014 425.714 33.8392 425.027C33.8199 424.975 33.807 424.92 33.8006 424.865C33.6462 424.286 33.5072 423.707 33.3991 423.112C33.2755 422.649 33.1751 422.162 33.0825 421.691C32.8508 420.656 32.65 419.614 32.4647 418.602C32.372 418.116 32.2871 417.637 32.1944 417.143C32.1944 416.888 32.1095 416.649 32.0709 416.371C32.0323 416.093 31.9782 415.784 31.9473 415.498C31.9473 415.498 31.9473 415.498 31.9473 415.444C31.9473 415.22 31.8701 414.988 31.8392 414.772C31.8083 414.556 31.7543 414.185 31.7234 413.9C31.6925 413.614 31.6075 413.127 31.5612 412.749C31.3991 411.529 31.2601 410.293 31.1442 409.066C31.1442 408.695 31.067 408.293 31.0438 407.946C31.04 407.9 31.04 407.853 31.0438 407.807C30.9975 407.344 30.9743 406.88 30.928 406.417C30.874 405.552 30.8122 404.68 30.7736 403.822C30.7736 403.714 30.7736 403.606 30.7736 403.506C30.7736 403.066 30.7736 402.625 30.7272 402.201C30.6732 400.479 30.6577 398.772 30.6732 397.058C30.6732 396.548 30.6732 396.031 30.6732 395.514C30.6732 394.996 30.6732 394.687 30.6732 394.278C30.6732 393.66 30.7195 393.058 30.7581 392.448C30.7967 391.838 30.8122 391.452 30.8353 390.942C30.8894 390.131 30.9512 389.305 31.0361 388.494C31.0361 388.162 31.0747 387.846 31.1211 387.514C31.1983 386.641 31.2909 385.776 31.3913 384.896C31.3913 384.78 31.3913 384.672 31.4454 384.564C31.484 384.139 31.5303 383.707 31.5998 383.282C31.7388 382.263 31.8778 381.259 32.0323 380.263C32.1867 379.266 32.372 378.201 32.5651 377.174C32.6655 376.664 32.7504 376.162 32.8508 375.629C33.0593 374.618 33.2755 373.606 33.4994 372.602C33.7234 371.598 33.9705 370.587 34.2176 369.583C34.5934 368.07 35.0027 366.561 35.4454 365.058C35.7079 364.1 36.0245 363.135 36.318 362.185C36.8045 360.641 37.3141 359.097 37.8624 357.552C38.0245 357.104 38.1944 356.672 38.3643 356.224C40.2339 351.127 42.3918 346.141 44.8276 341.29C45.5458 339.861 46.3025 338.425 47.0747 337.004C47.7311 335.815 48.372 334.641 49.067 333.459C49.0951 333.423 49.1161 333.381 49.1288 333.336L49.955 331.915C50.2639 331.39 50.5728 330.873 50.8971 330.371L51.8392 328.826C52.04 328.502 52.2407 328.178 52.4492 327.853C52.7195 327.405 53.0129 326.958 53.2986 326.517C53.4685 326.255 53.6384 325.985 53.816 325.745C54.2562 325.058 54.7118 324.371 55.1674 323.691L55.6693 322.919C55.6801 322.893 55.6958 322.869 55.7156 322.849C56.1712 322.178 56.6346 321.521 57.0979 320.857C57.2832 320.595 57.4685 320.324 57.6616 320.085L57.9396 319.683C58.2793 319.197 58.6191 318.726 58.9666 318.263L59.1365 318.031C59.3218 317.761 59.5149 317.498 59.7156 317.259C60.2021 316.595 60.6963 315.923 61.1983 315.266C61.2092 315.243 61.225 315.222 61.2446 315.205C61.4376 314.934 61.6384 314.672 61.816 314.432C62.2772 313.773 62.7 313.087 63.0824 312.378C63.2369 312.116 63.3681 311.853 63.5071 311.606C63.8392 310.934 64.1403 310.247 64.4106 309.552C64.511 309.29 64.6037 309.027 64.6963 308.78C64.928 308.1 65.1288 307.421 65.2986 306.726C65.3604 306.463 65.4222 306.193 65.4685 305.954C65.5689 305.506 65.6461 305.058 65.7002 304.618C66.4159 299.715 65.5446 294.712 63.2137 290.34C63.0129 289.954 62.7967 289.568 62.565 289.189C62.3334 288.811 62.2253 288.649 62.0477 288.417C61.5723 287.704 61.0567 287.018 60.5033 286.363C60.2793 286.1 60.0477 285.83 59.8083 285.591C59.5689 285.351 59.1983 284.95 58.8894 284.641C58.5805 284.332 58.1172 283.907 57.762 283.529L56.9898 282.757C56.3488 282.108 55.7234 281.467 55.1056 280.811L55.0052 280.703C54.7427 280.44 54.4878 280.17 54.233 279.931L54.1481 279.838C53.8006 279.475 53.4685 279.12 53.1519 278.757C53.1402 278.735 53.1209 278.719 53.0979 278.71L52.3257 277.877C52.1403 277.66 51.955 277.46 51.762 277.251L51.6153 277.081C51.0129 276.409 50.4492 275.738 49.8624 275.066V275.027C49.6307 274.757 49.399 274.494 49.1828 274.255C49.0902 274.154 49.0052 274.039 48.9126 273.931C48.4338 273.359 47.955 272.78 47.4917 272.209C47.2755 271.938 47.067 271.676 46.8662 271.436C46.6654 271.197 46.4338 270.904 46.2253 270.664C45.8855 270.247 45.5689 269.83 45.26 269.405C45.1857 269.319 45.1161 269.229 45.0516 269.135C44.9975 269.066 44.9512 268.996 44.8894 268.927L44.6577 268.618C44.3411 268.201 44.0322 267.799 43.7388 267.375C43.7388 267.313 43.6616 267.282 43.6307 267.228C43.5998 267.189 43.5714 267.147 43.5458 267.104C43.1983 266.641 42.8739 266.185 42.5496 265.714C42.457 265.606 42.3875 265.49 42.3102 265.382L41.538 264.27C41.345 263.946 41.1211 263.637 40.9048 263.313C40.6886 262.988 40.3489 262.479 40.0786 262.054C39.8083 261.629 39.4994 261.174 39.2214 260.718C38.9434 260.263 38.6268 259.792 38.318 259.321L37.8315 258.51C37.2601 257.56 36.6809 256.587 36.1404 255.614C35.5998 254.641 35.1519 253.877 34.6809 253.004C34.6218 252.908 34.5702 252.807 34.5265 252.703C34.3797 252.433 34.233 252.162 34.094 251.931C33.955 251.699 33.7388 251.251 33.5689 250.904C33.2755 250.34 32.9975 249.776 32.7118 249.22C32.5033 248.78 32.2871 248.34 32.0786 247.892C31.9319 247.606 31.8006 247.313 31.6616 247.012C31.5226 246.711 31.3373 246.317 31.1674 245.946C30.8971 245.313 30.6191 244.695 30.3411 244.07C30.1944 243.73 30.04 243.39 29.9087 243.035C29.7774 242.68 29.5612 242.224 29.3991 241.799C28.789 240.255 28.2021 238.772 27.6616 237.236C27.5226 236.85 27.3836 236.463 27.2523 236.085C27.0104 235.385 26.7787 234.682 26.5574 233.977C26.4029 233.506 26.2562 233.05 26.1095 232.587C25.9628 232.124 25.8469 231.707 25.7079 231.259C25.6955 231.183 25.6775 231.108 25.6539 231.035C25.5612 230.749 25.484 230.448 25.3991 230.155C25.3141 229.861 25.2523 229.622 25.1751 229.382C25.0979 229.143 24.9898 228.718 24.9049 228.386C24.8199 228.054 24.6886 227.56 24.5883 227.143C24.5122 226.889 24.4503 226.631 24.4029 226.371C24.3103 226.031 24.233 225.714 24.1481 225.367C24.0245 224.873 23.9087 224.386 23.8083 223.884C23.6539 223.197 23.4994 222.517 23.3682 221.822C23.3682 221.822 23.3682 221.784 23.3682 221.761C23.2369 221.089 23.1056 220.425 22.9821 219.753C22.2168 215.506 21.7011 211.218 21.4377 206.911C21.094 201.606 21.1249 196.282 21.5303 190.981C21.7311 188.258 22.0323 185.534 22.4338 182.811C24.3952 169.911 28.2652 157.375 33.9164 145.614C34.5651 144.247 35.2292 142.904 35.9164 141.552C38.2176 137.063 40.7658 132.636 43.5612 128.27C43.8392 127.815 44.1326 127.367 44.4261 126.919C45.1056 125.889 45.7954 124.86 46.4956 123.83C47.0824 122.965 47.677 122.108 48.2871 121.259C49.5483 119.467 50.8585 117.691 52.2176 115.931C53.0824 114.78 53.9859 113.614 54.8971 112.51C55.5689 111.668 56.2485 110.834 56.9434 110.008C58.9589 107.568 61.0593 105.166 63.2214 102.796C65.2677 100.564 67.3681 98.3554 69.5457 96.1778C75.2686 90.2908 81.3058 84.7177 87.6307 79.4828C87.6896 79.4449 87.7463 79.4036 87.8005 79.3593C92.5316 75.5291 97.4736 71.82 102.627 68.2318C105.16 66.4867 107.734 64.7621 110.349 63.0581C132.065 49.1804 155.444 38.0944 179.932 30.062C188.132 27.3387 196.544 24.9037 205.167 22.757C212.163 21.0324 219.278 19.506 226.511 18.1778C311.731 2.62571 391.962 20.3477 440.951 59.6604C442.773 61.1173 444.547 62.6051 446.271 64.1237C468.163 83.3206 482.951 107.174 487.97 134.487L488.148 135.444C489.359 142.46 491.183 149.357 493.599 156.054C494.191 157.691 494.817 159.31 495.476 160.911C496.294 162.888 497.162 164.842 498.078 166.772C502.138 175.311 507.184 183.345 513.113 190.711C514.001 191.823 514.92 192.911 515.846 193.992C516.773 195.073 517.53 195.915 518.402 196.857C530.678 210.29 545.775 220.839 562.611 227.745C564.217 228.409 565.862 229.043 567.514 229.645L567.8 229.745C583.53 235.279 598.536 242.686 612.495 251.807C624.08 259.35 634.612 268.396 643.815 278.71C644.657 279.645 645.483 280.602 646.279 281.568C647.936 283.55 649.525 285.573 651.043 287.637C651.429 288.154 651.815 288.672 652.171 289.182C652.773 290.008 653.352 290.849 653.924 291.691L654.526 292.587C655.591 294.178 656.611 295.799 657.615 297.436C657.885 297.876 658.148 298.324 658.387 298.765C658.626 299.205 659.028 299.861 659.337 300.417C660.021 301.647 660.691 302.886 661.344 304.131C661.561 304.564 661.785 304.988 661.993 305.413L662.649 306.734C662.943 307.344 663.236 307.961 663.522 308.587C663.669 308.888 663.808 309.189 663.939 309.498C664.286 310.27 664.611 310.988 664.927 311.738L665.205 312.386C665.591 313.282 665.978 314.185 666.302 315.097C666.518 315.645 666.734 316.201 666.935 316.757C667.136 317.313 667.352 317.869 667.545 318.432C667.738 318.996 667.954 319.568 668.14 320.139C668.175 320.227 668.206 320.318 668.232 320.409C668.418 320.958 668.595 321.506 668.765 322.062C668.935 322.618 669.113 323.158 669.275 323.707C669.313 323.807 669.344 323.91 669.368 324.015C669.483 324.394 669.591 324.788 669.7 325.143C669.703 325.179 669.703 325.215 669.7 325.251C669.724 325.319 669.744 325.389 669.761 325.46C669.761 325.583 669.831 325.699 669.862 325.822C669.859 325.846 669.859 325.869 669.862 325.892C670.256 327.282 670.634 328.68 670.951 330.093C670.997 330.301 671.051 330.517 671.097 330.734C671.144 330.95 671.229 331.297 671.29 331.575C671.29 331.691 671.337 331.799 671.368 331.907V332.031C671.364 332.075 671.364 332.119 671.368 332.162C671.371 332.221 671.371 332.281 671.368 332.34C671.445 332.703 671.514 333.058 671.591 333.421C671.591 333.506 671.591 333.606 671.653 333.707C671.8 334.417 671.931 335.127 672.063 335.846C672.902 340.414 673.451 345.03 673.707 349.668C673.918 351.748 674.026 353.815 674.032 355.869Z" fill="#FCF7E4"/>
<path d="M67.5159 130.726C71.0525 128.626 76.6047 126.996 83.2379 126.186C85.0272 125.991 86.6728 125.114 87.8324 123.738C93.1679 117.402 101.056 113.782 109.338 113.869C115.452 113.837 121.412 115.784 126.327 119.421C126.491 119.541 126.661 119.651 126.836 119.753C129.128 118.982 131.53 118.591 133.948 118.595C140.301 118.527 146.351 121.303 150.442 126.162C151.336 127.216 152.599 127.887 153.971 128.039C159.06 128.664 163.323 129.915 166.033 131.529C166.615 131.854 166.889 132.543 166.689 133.178C166.489 133.814 165.87 134.222 165.207 134.155H68.5738C67.7152 134.224 66.9237 133.688 66.6698 132.865C66.4158 132.042 66.7675 131.153 67.5159 130.726Z" fill="#FEFCF6"/>
<path d="M247.022 272.124C250.559 270.023 256.111 268.394 262.744 267.583C264.545 267.391 266.204 266.515 267.377 265.135C272.71 258.8 280.595 255.18 288.875 255.266C294.99 255.231 300.951 257.179 305.864 260.818C306.028 260.938 306.198 261.049 306.373 261.151C308.665 260.379 311.067 259.988 313.485 259.992C319.838 259.925 325.888 262.7 329.979 267.56C330.875 268.615 332.141 269.287 333.516 269.436C338.597 270.062 342.86 271.305 345.57 272.919C346.145 273.249 346.413 273.935 346.215 274.567C346.016 275.2 345.404 275.61 344.744 275.552H248.103C247.24 275.635 246.436 275.103 246.175 274.275C245.914 273.448 246.267 272.551 247.022 272.124Z" fill="#FEFCF6"/>
<path d="M166.851 202.595C168.458 201.763 170.214 201.256 172.017 201.104C172.618 201.045 173.172 200.755 173.562 200.293C175.32 198.211 177.917 197.022 180.643 197.05C182.651 197.041 184.609 197.68 186.226 198.873C186.279 198.914 186.336 198.95 186.396 198.981C187.143 198.734 187.925 198.606 188.712 198.602C190.795 198.588 192.776 199.503 194.118 201.097C194.413 201.44 194.826 201.661 195.276 201.714C196.661 201.83 198.01 202.218 199.245 202.857C199.435 202.965 199.525 203.19 199.459 203.399C199.394 203.607 199.192 203.742 198.975 203.722H167.206C166.92 203.754 166.652 203.579 166.565 203.304C166.479 203.03 166.598 202.732 166.851 202.595Z" fill="#FEFCF6"/>
<path d="M247.655 131.406C249.266 130.575 251.023 130.066 252.829 129.907C253.424 129.859 253.977 129.582 254.373 129.135C256.129 127.054 258.723 125.865 261.446 125.892C263.458 125.876 265.421 126.516 267.037 127.714C267.091 127.755 267.148 127.791 267.207 127.823C267.954 127.571 268.736 127.444 269.524 127.444C271.606 127.427 273.587 128.339 274.929 129.931C275.218 130.281 275.635 130.503 276.087 130.548C277.472 130.671 278.821 131.062 280.056 131.699C280.247 131.806 280.336 132.032 280.271 132.241C280.206 132.449 280.004 132.584 279.786 132.564H248.01C247.69 132.662 247.351 132.482 247.253 132.162C247.155 131.842 247.335 131.504 247.655 131.406Z" fill="#FEFCF6"/>
<path d="M540.728 344.857C542.337 344.029 544.092 343.522 545.894 343.367C546.495 343.308 547.049 343.017 547.439 342.556C549.193 340.472 551.788 339.282 554.512 339.313C556.522 339.301 558.482 339.943 560.095 341.143L560.265 341.251C561.011 340.998 561.793 340.868 562.581 340.865C564.664 340.851 566.646 341.765 567.987 343.359C568.28 343.705 568.694 343.926 569.145 343.977C570.53 344.096 571.878 344.484 573.114 345.119C573.304 345.227 573.394 345.453 573.329 345.661C573.264 345.87 573.062 346.004 572.844 345.984H541.083C540.797 346.016 540.528 345.841 540.442 345.567C540.355 345.292 540.475 344.995 540.728 344.857Z" fill="#FEFCF6"/>
<path d="M600.488 300.27C602.096 299.442 603.851 298.936 605.654 298.78C606.249 298.731 606.802 298.454 607.198 298.008C608.952 295.922 611.546 294.729 614.272 294.757C616.284 294.743 618.247 295.386 619.862 296.587L620.032 296.695C620.778 296.441 621.561 296.311 622.349 296.309C624.432 296.295 626.413 297.209 627.754 298.803C628.046 299.151 628.461 299.373 628.912 299.421C630.297 299.541 631.645 299.929 632.882 300.564C633.072 300.671 633.161 300.897 633.096 301.105C633.031 301.314 632.829 301.449 632.611 301.429H600.835C600.515 301.524 600.178 301.343 600.082 301.023C599.986 300.703 600.168 300.366 600.488 300.27Z" fill="#FEFCF6"/>
<path d="M210.372 297.081C211.982 296.256 213.736 295.75 215.538 295.591C216.133 295.542 216.686 295.265 217.083 294.818C218.838 292.73 221.436 291.537 224.164 291.567C226.174 291.556 228.133 292.198 229.747 293.398L229.916 293.506C230.663 293.252 231.445 293.122 232.233 293.12C234.316 293.106 236.297 294.02 237.638 295.614C237.932 295.96 238.346 296.181 238.797 296.232C240.181 296.354 241.529 296.742 242.766 297.374C242.95 297.487 243.035 297.71 242.971 297.916C242.907 298.122 242.711 298.259 242.496 298.247H210.727C210.411 298.329 210.087 298.147 209.991 297.834C209.896 297.522 210.064 297.19 210.372 297.081Z" fill="#FEFCF6"/>
<path d="M138.945 325.158C140.555 324.333 142.309 323.827 144.111 323.668C144.704 323.613 145.255 323.337 145.655 322.896C147.407 320.807 150.003 319.614 152.728 319.645C154.739 319.633 156.698 320.275 158.311 321.475L158.481 321.583C159.228 321.33 160.01 321.2 160.798 321.197C162.881 321.183 164.862 322.097 166.203 323.691C166.498 324.039 166.916 324.26 167.369 324.309C168.751 324.432 170.096 324.82 171.331 325.452C171.515 325.564 171.599 325.787 171.536 325.993C171.472 326.199 171.276 326.336 171.06 326.324H139.331C139.009 326.431 138.661 326.256 138.555 325.934C138.448 325.612 138.623 325.265 138.945 325.158Z" fill="#FEFCF6"/>
<path d="M420.109 312.78C421.72 311.951 423.478 311.444 425.283 311.29C425.884 311.231 426.438 310.94 426.827 310.479C428.582 308.395 431.176 307.205 433.901 307.235C435.913 307.226 437.874 307.868 439.491 309.066L439.653 309.174C440.4 308.921 441.182 308.791 441.97 308.788C444.053 308.773 446.035 309.687 447.375 311.282C447.671 311.629 448.088 311.85 448.541 311.9C449.924 312.02 451.269 312.408 452.503 313.042C452.693 313.15 452.783 313.376 452.717 313.584C452.652 313.793 452.45 313.927 452.233 313.907H420.464C420.178 313.939 419.909 313.764 419.823 313.49C419.736 313.215 419.856 312.918 420.109 312.78Z" fill="#FEFCF6"/>
<path d="M370.99 213.513C372.6 212.682 374.358 212.173 376.163 212.015C376.759 211.967 377.312 211.69 377.708 211.243C379.46 209.155 382.056 207.962 384.781 207.992C386.793 207.983 388.755 208.625 390.372 209.822L390.534 209.931C391.281 209.681 392.063 209.553 392.851 209.552C394.934 209.529 396.918 210.441 398.256 212.039C398.552 212.385 398.969 212.606 399.422 212.656C400.805 212.779 402.15 213.169 403.383 213.807C403.574 213.914 403.663 214.14 403.598 214.349C403.533 214.557 403.331 214.692 403.113 214.672H371.376C371.169 214.741 370.941 214.694 370.778 214.549C370.615 214.405 370.541 214.184 370.585 213.97C370.628 213.757 370.783 213.582 370.99 213.513Z" fill="#FEFCF6"/>
<path d="M337.554 140.023C339.165 139.194 340.922 138.688 342.727 138.533C343.323 138.484 343.876 138.208 344.272 137.761C346.024 135.673 348.62 134.48 351.345 134.51C353.358 134.499 355.319 135.141 356.936 136.34L357.106 136.448C357.852 136.194 358.634 136.064 359.422 136.062C361.507 136.04 363.491 136.956 364.828 138.556C365.124 138.903 365.541 139.124 365.994 139.174C367.378 139.299 368.725 139.687 369.963 140.317C370.149 140.43 370.234 140.655 370.168 140.862C370.101 141.07 369.902 141.205 369.685 141.189H337.909C337.593 141.271 337.268 141.089 337.173 140.776C337.078 140.464 337.246 140.132 337.554 140.023Z" fill="#FEFCF6"/>
<path d="M408.241 106.433C409.853 105.605 411.61 105.099 413.415 104.942C414.01 104.893 414.563 104.617 414.959 104.17C416.713 102.084 419.308 100.891 422.033 100.919C424.045 100.908 426.007 101.551 427.623 102.749L427.793 102.857C428.539 102.604 429.322 102.473 430.11 102.471C432.193 102.457 434.174 103.372 435.515 104.965C435.807 105.314 436.222 105.535 436.674 105.583C438.057 105.707 439.405 106.095 440.643 106.726C440.827 106.838 440.911 107.061 440.848 107.268C440.784 107.474 440.588 107.61 440.372 107.599H408.596C408.28 107.68 407.956 107.498 407.861 107.186C407.765 106.873 407.933 106.541 408.241 106.433Z" fill="#FEFCF6"/>
<path d="M518.372 196.911H502.827C502.541 196.943 502.273 196.768 502.186 196.494C502.1 196.219 502.22 195.922 502.472 195.784C504.083 194.955 505.841 194.448 507.646 194.293C508.239 194.239 508.791 193.963 509.19 193.521C510.223 192.27 511.58 191.327 513.113 190.795C514.001 191.907 514.92 192.996 515.847 194.077C516.773 195.158 517.499 195.969 518.372 196.911Z" fill="#FEFCF6"/>
<path d="M395.554 228.162C399.083 226.054 404.643 224.432 411.268 223.614C413.071 223.427 414.731 222.55 415.901 221.166C421.236 214.834 429.121 211.218 437.399 211.305C443.512 211.269 449.473 213.214 454.388 216.849C454.551 216.97 454.721 217.081 454.897 217.181C457.189 216.411 459.591 216.02 462.009 216.023C468.365 215.956 474.419 218.735 478.511 223.598C479.405 224.652 480.667 225.323 482.04 225.475C487.121 226.093 491.384 227.344 494.094 228.958C494.669 229.288 494.937 229.973 494.739 230.606C494.54 231.239 493.929 231.648 493.268 231.591H396.627C395.765 231.669 394.966 231.135 394.707 230.31C394.449 229.484 394.801 228.589 395.554 228.162Z" fill="#FEFCF6"/>
<path d="M303.245 85.2743C306.774 83.1739 312.334 81.5445 318.959 80.7337C320.761 80.5441 322.421 79.6674 323.593 78.2859C328.928 71.9503 336.816 68.3307 345.098 68.4172C351.213 68.3826 357.173 70.3306 362.087 73.9693C362.251 74.0888 362.421 74.1997 362.597 74.3013C364.888 73.5302 367.291 73.139 369.708 73.143C376.061 73.0764 382.11 75.852 386.203 80.7106C387.096 81.7639 388.359 82.4354 389.732 82.587C394.82 83.2125 399.083 84.4557 401.786 86.0696C402.359 86.3995 402.626 87.0825 402.43 87.7137C402.234 88.345 401.626 88.7559 400.967 88.7028H304.319C303.457 88.781 302.657 88.2474 302.399 87.4216C302.14 86.5958 302.493 85.7015 303.245 85.2743Z" fill="#FEFCF6"/>
<path d="M58.3105 221.367H23.4071C23.2758 220.695 23.1445 220.031 23.021 219.359C22.2557 215.112 21.74 210.825 21.4766 206.517C23.3091 206.037 25.196 205.796 27.0905 205.799C33.4412 205.737 39.4877 208.515 43.5769 213.375C44.4703 214.428 45.733 215.099 47.1059 215.251C52.187 215.869 56.4495 217.12 59.1599 218.734C59.7416 219.065 60.0112 219.759 59.8057 220.396C59.6003 221.033 58.9761 221.438 58.3105 221.367Z" fill="#FEFCF6"/>
<path d="M674.03 355.869C674.033 364.176 673.15 372.459 671.397 380.579C671.078 382.062 670.73 383.542 670.355 385.019C669.938 386.697 669.479 388.37 668.98 390.038C667.909 393.678 666.669 397.295 665.258 400.888C664.331 403.251 663.343 405.606 662.27 407.938C661.127 410.455 659.904 412.955 658.602 415.436C658.293 416.023 657.976 416.618 657.652 417.212C657.49 417.521 657.312 417.83 657.15 418.139C656.594 419.15 656.015 420.162 655.436 421.173C655.227 421.536 655.019 421.899 654.802 422.255C654.077 423.498 653.335 424.726 652.563 425.953C652.177 426.579 651.791 427.197 651.382 427.822L651.258 428.015C650.826 428.695 650.378 429.374 649.93 430.046C649.59 430.563 649.25 431.065 648.903 431.59C648.555 432.116 648.231 432.579 647.884 433.065C647.304 433.907 646.71 434.749 646.108 435.583C645.775 436.046 645.436 436.517 645.096 436.973C644.756 437.428 644.594 437.66 644.324 438C644.053 438.339 643.644 438.911 643.297 439.367L642.262 440.71C641.088 442.255 639.884 443.763 638.648 445.235C635.559 448.957 632.301 452.615 628.872 456.208C626.9 458.267 624.872 460.309 622.787 462.332C622.077 463.019 621.366 463.699 620.648 464.37C612.62 471.896 604.085 478.862 595.104 485.22C585.418 492.104 575.299 498.359 564.81 503.946C523.722 496.494 481.575 496.131 440.1 490.865C422.702 488.664 405.034 485.459 389.745 476.88C385.953 474.756 382.255 472.247 379.706 468.71C376.942 464.849 375.737 460.162 373.351 456.085C368.841 448.409 358.579 440.432 359.544 430.509C359.93 426.556 362.409 423.521 365.336 420.996C366.61 419.899 378.895 415.652 378.355 416.934C388.56 392.696 402.644 370.282 420.054 350.571C429.436 339.938 441.59 329.413 455.745 330.34C465.119 330.95 473.505 336.641 479.961 343.467C496.239 360.564 502.895 384.394 508.795 407.274C508.278 402.757 513.127 398.208 517.891 398.733C523.212 399.313 527.158 404.486 527.845 409.791C529.351 399.83 537.884 392.664 545.837 386.471C549.498 383.614 553.297 380.687 557.783 379.459C566.918 376.957 576.586 382.185 582.965 389.197C589.343 396.208 593.505 404.934 599.274 412.455C598.378 408.471 600.469 404.419 604.234 402.839C608 401.26 612.356 402.608 614.571 406.038C611.884 392.648 616.81 378.965 622.563 366.587C628.88 353.004 636.88 339.328 649.791 331.745C653.289 329.691 657.219 328.108 661.274 328.208C664.992 328.385 668.558 329.737 671.459 332.069C671.455 332.113 671.455 332.157 671.459 332.201C671.462 332.26 671.462 332.319 671.459 332.378C671.536 332.741 671.606 333.096 671.683 333.459C671.683 333.544 671.683 333.645 671.745 333.745C671.891 334.455 672.023 335.166 672.154 335.884C672.993 340.452 673.543 345.069 673.799 349.706C673.948 351.76 674.025 353.815 674.03 355.869Z" fill="#FAF2DB"/>
<path d="M348.1 452.973C345.721 456.255 342.015 458.27 338.401 460.108C271.558 493.955 195.694 505.703 121.745 493.66C102.702 490.509 83.9766 485.791 65.3743 480.579C65.0139 480.218 64.6587 479.848 64.3086 479.467C64.0306 479.181 63.7526 478.88 63.4824 478.594C63.2121 478.309 63.0422 478.131 62.8337 477.899L62.1387 477.127C62.0556 477.045 61.9782 476.957 61.9071 476.865C61.4824 476.386 61.0654 475.907 60.633 475.436C59.9225 474.664 59.2353 473.83 58.5789 473.011C58.0152 472.355 57.4669 471.683 56.911 471.004C56.355 470.324 55.7449 469.536 55.1735 468.78C55.1447 468.744 55.1138 468.711 55.0808 468.679C54.6407 468.1 54.2005 467.513 53.7681 466.926L53.2353 466.208L52.4631 465.15L52.2778 464.865C52.1429 464.692 52.0191 464.512 51.9071 464.324C51.6523 463.984 51.4052 463.637 51.1812 463.297C51.1392 463.243 51.1005 463.186 51.0654 463.127C50.9032 462.911 50.7642 462.702 50.6175 462.478C50.216 461.884 49.8453 461.282 49.4283 460.679C49.4283 460.679 49.382 460.633 49.3743 460.602C49.0191 460.046 48.6484 459.49 48.3009 458.926C47.9534 458.363 47.4669 457.59 47.05 456.903L46.8029 456.486L46.3009 455.629C45.6291 454.471 44.965 453.312 44.3241 452.139C44.131 451.753 43.938 451.367 43.7372 451.019C43.5365 450.672 43.3202 450.2 43.0963 449.784L42.8646 449.343C42.6561 448.934 42.4631 448.571 42.2623 448.123L42.0384 447.675C41.8917 447.367 41.7449 447.05 41.5828 446.733C41.4206 446.417 41.3048 446.123 41.1658 445.822C40.9264 445.305 40.6716 444.78 40.4399 444.278C40.3898 444.131 40.3278 443.989 40.2546 443.853C40.0152 443.274 39.7527 442.687 39.4824 442.092C39.4824 442.023 39.4206 441.946 39.3975 441.876C39.1349 441.274 38.8955 440.656 38.6253 440.031C38.5568 439.877 38.4975 439.72 38.4477 439.56C38.216 438.988 37.9843 438.417 37.7758 437.83C37.2507 436.424 36.7488 435.011 36.2778 433.575C35.8067 432.139 35.3589 430.702 34.9419 429.258C34.7488 428.486 34.5403 427.799 34.3396 427.058C34.1388 426.316 33.9921 425.714 33.8299 425.027C33.8106 424.974 33.7977 424.92 33.7913 424.865C33.6368 424.285 33.4979 423.706 33.3897 423.112C33.2662 422.648 33.1658 422.162 33.0731 421.691C32.8415 420.656 32.6407 419.614 32.4554 418.602C32.3627 418.116 32.2778 417.637 32.1851 417.143C32.1851 416.888 32.1002 416.648 32.0616 416.37C32.023 416.092 31.9689 415.784 31.938 415.498C31.938 415.498 31.938 415.498 31.938 415.444C31.938 415.22 31.8608 414.988 31.8299 414.772C31.799 414.556 31.745 414.185 31.7141 413.899C31.6832 413.614 31.5982 413.127 31.5519 412.749C31.3897 411.529 31.2508 410.293 31.1349 409.065C31.1349 408.695 31.0577 408.293 31.0345 407.946C31.0307 407.899 31.0307 407.853 31.0345 407.807C30.9882 407.343 30.965 406.88 30.9187 406.417C30.8647 405.552 30.8029 404.679 30.7643 403.822C30.7643 403.714 30.7643 403.606 30.7643 403.506C30.7643 403.065 30.7643 402.625 30.7179 402.201C30.6639 400.479 30.6484 398.772 30.6639 397.058C30.6639 396.548 30.6639 396.031 30.6639 395.513C30.6639 394.996 30.6639 394.687 30.6639 394.278C30.6639 393.66 30.7102 393.058 30.7488 392.448C30.7874 391.838 30.8029 391.452 30.826 390.942C30.8801 390.131 30.9419 389.305 31.0268 388.494C31.0268 388.162 31.0654 387.845 31.1118 387.513C31.189 386.641 31.2816 385.776 31.382 384.896C31.382 384.78 31.382 384.672 31.4361 384.564C31.4747 384.139 31.521 383.706 31.5905 383.282C31.7295 382.262 31.8685 381.259 32.023 380.262C32.1774 379.266 32.3627 378.201 32.5558 377.174C32.6562 376.664 32.7411 376.162 32.8415 375.629C33.05 374.618 33.2662 373.606 33.4901 372.602C33.7141 371.598 33.9612 370.587 34.2083 369.583C34.5841 368.069 34.9933 366.561 35.4361 365.058C35.6986 364.1 36.0152 363.135 36.3087 362.185C36.7951 360.641 37.3048 359.096 37.8531 357.552C38.0152 357.104 38.1851 356.672 38.355 356.224C40.2246 351.127 42.3825 346.141 44.8183 341.289C45.5364 339.861 46.2932 338.425 47.0654 337.004C47.7218 335.815 48.3627 334.641 49.0577 333.459C49.0858 333.422 49.1068 333.38 49.1195 333.336L49.9457 331.915C50.2546 331.39 50.5635 330.872 50.8878 330.371L51.8299 328.826C52.0307 328.502 52.2314 328.178 52.4399 327.853C52.7102 327.405 53.0036 326.957 53.2893 326.517C53.4592 326.255 53.6291 325.984 53.8067 325.745C54.2469 325.058 54.7025 324.371 55.1581 323.691L55.66 322.919C67.714 327.452 78.9264 338.363 85.382 350.054C91.51 361.157 96.5006 372.851 100.278 384.957C104.525 375.475 108.88 365.83 115.807 358.085C122.733 350.34 132.795 344.672 143.127 345.56C153.459 346.448 162.432 353.776 167.938 362.61C173.444 371.444 176.123 381.753 178.71 391.838C177.976 385.984 184.185 380.525 189.976 381.66C195.768 382.795 199.49 389.722 197.598 395.313C207.598 378.842 221.868 364.425 239.745 357.235C257.621 350.046 279.335 351.058 294.81 362.579C302.239 368.093 307.938 375.645 312.664 383.583C319.761 395.483 324.971 408.411 328.108 421.907C328.293 415.683 337.451 413.32 342.486 416.965C347.521 420.61 349.173 427.282 350.208 433.421C351.358 440.1 352.061 447.513 348.1 452.973Z" fill="#FAF2DB"/>
<path d="M628.905 456.17C626.269 458.934 623.527 461.655 620.681 464.332C612.652 471.857 604.118 478.824 595.136 485.181C569.214 503.66 537.993 518.78 503.121 528.888C491.81 532.17 480.338 534.868 468.75 536.973C422.465 545.421 377.631 544.062 338.526 534.741C325.498 531.621 311.952 531.336 298.805 533.907C297.183 534.231 295.561 534.533 293.932 534.826L289.994 535.521L286.063 536.177C284.982 536.34 283.916 536.509 282.835 536.664C282.557 536.726 282.272 536.749 281.986 536.795C280.743 536.981 279.484 537.158 278.225 537.328C277.376 537.444 276.527 537.56 275.646 537.668L273.476 537.938L272.704 538.038C271.569 538.177 270.449 538.301 269.314 538.417L268.781 538.486C267.523 538.625 266.256 538.749 264.99 538.872C263.723 538.996 262.457 539.112 261.191 539.212C260.928 539.212 260.65 539.266 260.372 539.282L257.77 539.49L255.855 539.629C255.237 539.675 254.619 539.722 253.994 539.745C253.368 539.768 252.712 539.838 252.063 539.869C251.044 539.938 250.001 539.992 248.974 540.038H248.596C247.739 540.092 246.89 540.139 246.056 540.17C245.222 540.201 244.411 540.231 243.6 540.247H243.353C242.164 540.293 240.982 540.316 239.793 540.347C237.222 540.401 234.666 540.432 232.117 540.425C229.569 540.417 227.214 540.425 224.797 540.332L221.029 540.201C219.893 540.201 218.766 540.123 217.646 540.069C216.264 540.008 214.882 539.938 213.5 539.853L210.812 539.668C209.268 539.56 207.724 539.444 206.179 539.32C205.353 539.243 204.534 539.181 203.7 539.089C202.056 538.95 200.411 538.78 198.781 538.602C197.708 538.486 196.658 538.355 195.585 538.231C194.743 538.139 193.893 538.023 193.059 537.923C192.426 537.83 191.77 537.76 191.129 537.66L188.905 537.359C188.666 537.359 188.395 537.289 188.133 537.243C187.214 537.12 186.295 536.981 185.376 536.834L184.31 536.664C183.538 536.548 182.766 536.417 182.04 536.286L180.805 536.085L178.063 535.598C176.92 535.397 175.747 535.174 174.635 534.942C172.771 534.576 170.913 534.195 169.059 533.799C168.133 533.591 167.214 533.398 166.287 533.181L163.546 532.548C162.249 532.247 160.959 531.915 159.685 531.598L155.824 530.587C155.623 530.533 155.407 530.479 155.214 530.417C154.38 530.193 153.561 529.961 152.751 529.73C151.94 529.498 151.059 529.258 150.21 528.957C148.419 528.432 146.627 527.884 144.866 527.32C144.31 527.15 143.77 526.973 143.229 526.795L141.206 526.123C140.48 525.869 139.739 525.637 139.013 525.351C138.287 525.065 137.77 524.926 137.144 524.703C136.102 524.332 135.052 523.93 134.002 523.552C133.16 523.243 132.341 522.926 131.515 522.61L130.542 522.231L128.82 521.552C128.326 521.359 127.839 521.166 127.361 520.957C125.268 520.108 123.199 519.228 121.137 518.301C120.465 518.008 119.754 517.699 119.075 517.374L118.226 516.996L116.28 516.085C114.256 515.112 112.262 514.121 110.295 513.112C109.731 512.826 109.175 512.54 108.627 512.247L108.032 511.93C107.461 511.629 106.874 511.32 106.31 511.011C104.766 510.177 103.242 509.323 101.739 508.448L99.8395 507.336C99.7236 507.266 99.5769 507.189 99.4456 507.096C98.7815 506.702 98.102 506.324 97.4611 505.892C96.8201 505.459 96.0402 505.019 95.3452 504.579L92.3723 502.672C90.9051 501.699 89.4688 500.71 88.048 499.714C87.631 499.436 87.2294 499.143 86.8279 498.857C85.6773 498.031 84.5113 497.189 83.3993 496.347C83.0827 496.108 82.7816 495.876 82.465 495.621C80.8665 494.401 79.2912 493.158 77.7545 491.884C77.0209 491.282 76.3028 490.679 75.5769 490.069C74.8511 489.459 74.0325 488.733 73.2603 488.069C72.4881 487.405 71.9244 486.872 71.2758 486.27L69.3762 484.486L69.1986 484.316L67.5152 482.741L67.3607 482.579C66.7661 481.992 66.187 481.405 65.6001 480.803C65.1677 480.363 64.7352 479.923 64.3183 479.467C64.0403 479.181 63.7623 478.88 63.492 478.594C63.2217 478.309 63.0518 478.131 62.8433 477.899L62.1484 477.127C62.0652 477.045 61.9878 476.957 61.9167 476.865C61.492 476.386 61.075 475.907 60.6426 475.436C59.9322 474.664 59.2449 473.83 58.5885 473.011C58.0248 472.355 57.4766 471.683 56.9206 471.004C56.3646 470.324 55.7546 469.536 55.1831 468.78C55.1544 468.744 55.1234 468.711 55.0905 468.679C54.6503 468.1 54.2102 467.513 53.7777 466.926L53.2449 466.208L52.4727 465.15L52.2874 464.865C52.1525 464.692 52.0287 464.512 51.9167 464.324C51.6619 463.984 51.4148 463.637 51.1909 463.297C51.1488 463.243 51.1101 463.186 51.075 463.127C50.9129 462.911 50.7739 462.702 50.6271 462.479C50.2256 461.884 49.8549 461.282 49.438 460.679C49.438 460.679 49.3916 460.633 49.3839 460.602C49.0287 460.046 48.658 459.49 48.3105 458.926C47.9631 458.363 47.4766 457.59 47.0596 456.903L46.8125 456.486L46.3105 455.629C72.6426 451.135 102.295 447.251 134.55 444.1H134.588C194.334 438.255 263.013 434.934 336.071 434.934C450.117 434.95 553.492 443.042 628.905 456.17Z" fill="#FCECCD"/>
<path d="M161.012 469.536C249.617 469.536 321.445 463.808 321.445 456.741C321.445 449.674 249.617 443.946 161.012 443.946C72.4081 443.946 0.580078 449.674 0.580078 456.741C0.580078 463.808 72.4081 469.536 161.012 469.536Z" fill="#FAE2B7"/>
<path d="M53.244 466.224C20.8888 463.907 0.572266 460.502 0.572266 456.741C0.572266 453.421 16.3638 450.409 42.2711 448.139C42.4718 448.548 42.6649 448.949 42.8734 449.359L43.105 449.799C43.329 450.216 43.5375 450.625 43.746 451.034C43.9545 451.444 44.1398 451.807 44.3328 452.154C44.9738 453.328 45.6379 454.471 46.3097 455.644L46.8116 456.502L47.0587 456.919C47.4757 457.606 47.8772 458.27 48.3097 458.942C48.7421 459.614 49.0278 460.061 49.383 460.617C49.383 460.617 49.383 460.617 49.4371 460.695C49.8232 461.297 50.2093 461.899 50.6263 462.494C50.773 462.718 50.912 462.926 51.0741 463.143C51.1092 463.201 51.1479 463.258 51.19 463.312C51.4139 463.652 51.661 464 51.9158 464.339C52.0278 464.527 52.1516 464.708 52.2865 464.88L52.4718 465.166L53.244 466.224Z" fill="#FCECCD"/>
<path d="M321.437 456.741C321.437 463.807 249.623 469.536 161.005 469.536C119.522 469.536 81.7232 468.285 53.2444 466.224L52.4722 465.166L52.2869 464.88C52.152 464.708 52.0282 464.527 51.9163 464.34C51.6614 464 51.4143 463.652 51.1904 463.313C51.1483 463.258 51.1097 463.202 51.0746 463.143C50.9124 462.926 50.7734 462.718 50.6267 462.494C50.2251 461.899 49.8545 461.297 49.4375 460.695C49.4375 460.695 49.3912 460.648 49.3834 460.618C49.0282 460.062 48.6576 459.506 48.3101 458.942C47.9626 458.378 47.4761 457.606 47.0591 456.919L46.812 456.502L46.3101 455.645C45.6383 454.486 44.9742 453.328 44.3333 452.154C44.1402 451.768 43.9472 451.382 43.7464 451.035C43.5456 450.687 43.3294 450.216 43.1055 449.799L42.8738 449.359C42.6653 448.95 42.4723 448.587 42.2715 448.139C66.0012 446.054 98.2097 444.602 134.549 444.116H134.588C143.183 444.008 152.009 443.946 161.005 443.946C249.607 443.961 321.437 449.675 321.437 456.741Z" fill="#FAE2B7"/>
<path d="M558.494 463.722C635.805 463.722 698.479 457.993 698.479 450.926C698.479 443.86 635.805 438.131 558.494 438.131C481.183 438.131 418.51 443.86 418.51 450.926C418.51 457.993 481.183 463.722 558.494 463.722Z" fill="#FCECCD"/>
<path d="M642.27 440.672C641.096 442.216 639.892 443.724 638.656 445.197C635.567 448.919 632.309 452.576 628.88 456.17C626.908 458.229 624.88 460.27 622.795 462.293C603.544 463.204 581.675 463.722 558.486 463.722C481.174 463.722 418.502 457.992 418.502 450.926C418.502 443.861 481.174 438.131 558.486 438.131C589.907 438.131 618.903 439.081 642.27 440.672Z" fill="#FAE2B7"/>
<path d="M191.283 233.761L280.858 444.054C281.106 444.687 280.795 445.401 280.163 445.652L243.576 461.204C243.281 461.343 242.942 461.357 242.636 461.244C242.329 461.131 242.081 460.9 241.947 460.602L152.457 250.309C152.336 250.008 152.34 249.671 152.469 249.374C152.599 249.076 152.842 248.843 153.144 248.726L189.661 233.151C189.957 233.013 190.295 233 190.6 233.115C190.905 233.229 191.151 233.462 191.283 233.761Z" fill="#F4E5C6"/>
<path d="M192.065 312.979C190.076 308.305 192.251 302.904 196.925 300.914C201.598 298.925 207 301.1 208.989 305.774L241.181 381.392C243.17 386.066 240.995 391.467 236.321 393.456C231.648 395.446 226.246 393.27 224.257 388.597L192.065 312.979Z" fill="#EFD6A8"/>
<path d="M165.265 280.488C163.014 275.201 165.476 269.09 170.763 266.839L190.48 258.445C195.767 256.194 201.878 258.656 204.129 263.943C206.38 269.231 203.919 275.342 198.631 277.593L178.915 285.987C173.627 288.238 167.516 285.776 165.265 280.488Z" fill="#EFD6A8"/>
<path d="M229.119 430.43C226.868 425.143 229.329 419.032 234.617 416.781L254.333 408.387C259.621 406.136 265.732 408.598 267.983 413.885C270.234 419.173 267.772 425.284 262.485 427.535L242.768 435.929C237.481 438.18 231.37 435.718 229.119 430.43Z" fill="#EFD6A8"/>
<path d="M213.83 417.575V456.741H39.6445C34.4551 456.743 29.4786 454.678 25.8144 451.004C25.6136 450.803 25.4206 450.602 25.2353 450.394C25.0499 450.185 24.8646 449.992 24.6947 449.776C24.5248 449.56 24.3549 449.367 24.1928 449.158C24.0306 448.95 23.8685 448.741 23.7217 448.525C23.575 448.309 23.436 448.123 23.3048 447.923L23.0808 447.575C22.8955 447.282 22.7179 446.98 22.548 446.672C22.4476 446.494 22.355 446.316 22.2623 446.131C22.1696 445.946 22.077 445.776 21.992 445.591C21.9071 445.405 21.8144 445.22 21.7372 445.035C21.66 444.849 21.575 444.656 21.4978 444.471C21.474 444.423 21.4533 444.374 21.436 444.324L21.2739 443.899C21.2473 443.834 21.2241 443.767 21.2044 443.699C21.0885 443.382 20.9882 443.05 20.8878 442.726C20.8878 442.672 20.8878 442.625 20.8878 442.579L20.7488 442.069C20.6793 441.83 20.6175 441.591 20.5712 441.343C20.5712 441.343 20.5712 441.305 20.5712 441.289C20.4862 440.88 20.409 440.471 20.3472 440.054C20.3472 440.054 20.3472 440.007 20.3472 439.984C20.3472 439.961 20.3472 439.892 20.3472 439.845C20.3009 439.5 20.2623 439.145 20.2314 438.78C20.2314 438.664 20.2314 438.556 20.2314 438.44C20.2276 438.378 20.2276 438.316 20.2314 438.255C20.2314 438.1 20.2314 437.953 20.2314 437.799C20.2276 437.742 20.2276 437.686 20.2314 437.629C20.2314 437.467 20.2314 437.313 20.2314 437.15C20.2314 436.648 20.2314 436.139 20.2932 435.645C20.355 435.15 20.3858 434.656 20.4631 434.17C20.5171 433.845 20.5712 433.529 20.6329 433.212C20.6947 432.896 20.7797 432.517 20.8723 432.177C20.9264 431.969 20.9804 431.76 21.0499 431.56C21.0644 431.502 21.0825 431.445 21.104 431.39L21.1503 431.235C21.2275 430.996 21.3048 430.764 21.3897 430.533C21.5133 430.183 21.6445 429.843 21.7835 429.513C22.0306 428.934 22.3009 428.37 22.6021 427.822C22.7488 427.544 22.9032 427.274 23.0731 427.004C23.243 426.733 23.3356 426.579 23.4746 426.37C23.6136 426.162 23.5905 426.193 23.6445 426.108L24.0847 425.482C24.2855 425.22 24.4862 424.957 24.7024 424.71C24.9187 424.463 25.0577 424.293 25.243 424.092L25.3434 423.977C25.5132 423.784 25.6986 423.598 25.8839 423.413C25.9289 423.36 25.9779 423.311 26.0306 423.266C26.2082 423.081 26.3936 422.911 26.5789 422.733L26.7797 422.556L27.2816 422.116C27.7986 421.647 28.3399 421.207 28.9032 420.795C29.158 420.625 29.4206 420.463 29.6754 420.309C29.7239 420.269 29.7787 420.238 29.8376 420.216C30.07 420.07 30.3097 419.936 30.5557 419.814C30.6793 419.748 30.8028 419.686 30.9264 419.629L31.2198 419.482C31.7722 419.211 32.3394 418.972 32.9186 418.764C33.2121 418.656 33.521 418.548 33.8221 418.455C34.1233 418.363 34.5943 418.231 34.9727 418.139C35.2121 418.077 35.4515 418.023 35.6986 417.977C35.9457 417.93 36.2391 417.869 36.4708 417.83C36.8569 417.76 37.243 417.714 37.6445 417.675C37.8839 417.675 38.1233 417.629 38.3704 417.614H38.7488H39.5673H213.83V417.575Z" fill="#FDFBF1"/>
<path d="M19.4453 425.482H213.831V426.108H19.4453L19.4453 425.482Z" fill="#EFD6A8"/>
<path d="M19.4453 431.56H213.831V432.177H19.4453L19.4453 431.56Z" fill="#EFD6A8"/>
<path d="M19.4453 437.629H213.831V438.255H19.4453L19.4453 437.629Z" fill="#EFD6A8"/>
<path d="M19.4453 443.699H213.831V444.324H19.4453L19.4453 443.699Z" fill="#EFD6A8"/>
<path d="M19.4453 449.776H213.831V450.394H19.4453L19.4453 449.776Z" fill="#EFD6A8"/>
<path d="M213.831 417.575V428.718H67.6534C63.3893 428.709 59.1804 429.682 55.3523 431.56C54.9507 431.753 54.5801 431.961 54.1631 432.177C51.5571 433.613 49.1956 435.453 47.1669 437.629C46.9739 437.838 46.7886 438.038 46.6032 438.255C45.1463 439.903 43.8892 441.717 42.8581 443.66C42.75 443.869 42.6418 444.077 42.5415 444.286C41.6639 446.038 40.9754 447.878 40.4874 449.776C40.4334 449.984 40.3793 450.185 40.333 450.394C40.194 450.988 40.0781 451.598 39.9778 452.216C39.7353 453.71 39.6139 455.22 39.6148 456.733C34.4373 456.729 29.4735 454.668 25.8156 451.004C25.6148 450.803 25.4218 450.602 25.2365 450.394C25.0511 450.185 24.8658 449.992 24.6959 449.776C24.526 449.575 24.3562 449.367 24.2017 449.158C24.0473 448.95 23.8774 448.741 23.7307 448.525C23.584 448.309 23.445 448.123 23.3137 447.923L23.0897 447.575C22.9044 447.282 22.7268 446.981 22.5569 446.672C22.4565 446.494 22.3639 446.316 22.2712 446.131C22.1785 445.946 22.0859 445.776 22.0009 445.591C21.916 445.405 21.8233 445.22 21.7461 445.035C21.6689 444.849 21.584 444.656 21.5067 444.471C21.4853 444.423 21.4673 444.374 21.4527 444.324L21.2905 443.899C21.2639 443.834 21.2407 443.767 21.221 443.699C21.1052 443.382 21.0048 443.05 20.9044 442.726C20.9044 442.672 20.9044 442.625 20.9044 442.579L20.7654 442.069C20.7191 441.899 20.6805 441.73 20.6419 441.552C20.6033 441.374 20.6419 441.413 20.5878 441.343C20.5338 441.274 20.5878 441.305 20.5878 441.289C20.5029 440.88 20.4257 440.471 20.3639 440.054C20.3639 440.054 20.3639 440.008 20.3639 439.984C20.3639 439.961 20.3639 439.892 20.3639 439.845C20.3175 439.5 20.2789 439.145 20.248 438.78C20.248 438.664 20.248 438.556 20.248 438.44C20.248 438.324 20.248 438.316 20.248 438.255V437.799V437.629C20.248 437.467 20.248 437.313 20.248 437.15C20.2482 436.153 20.3231 435.156 20.472 434.17C20.526 433.845 20.5801 433.529 20.6419 433.212C20.7036 432.896 20.7963 432.517 20.889 432.177C20.943 431.969 20.9971 431.76 21.0666 431.56C21.0737 431.501 21.0893 431.444 21.1129 431.39L21.1592 431.235C21.2365 430.996 21.3137 430.764 21.3986 430.533C21.5222 430.183 21.6535 429.843 21.7924 429.513C22.0396 428.934 22.3098 428.37 22.611 427.822C22.7577 427.544 22.9121 427.274 23.082 427.004C23.2519 426.733 23.3446 426.579 23.4836 426.37C23.6226 426.162 23.5994 426.193 23.6534 426.108L24.1013 425.482C24.3021 425.22 24.5029 424.957 24.7114 424.71C24.9199 424.463 25.0666 424.293 25.2519 424.092L25.3523 423.977C25.5222 423.784 25.7075 423.598 25.8928 423.413C25.9378 423.36 25.9868 423.311 26.0395 423.266C26.2172 423.081 26.4025 422.911 26.5878 422.733L26.7886 422.556L27.2905 422.116C27.805 421.648 28.3437 421.207 28.9044 420.795C29.1592 420.625 29.4218 420.463 29.6766 420.309C29.7251 420.269 29.7799 420.238 29.8388 420.216C30.0712 420.07 30.3109 419.936 30.5569 419.814C30.6805 419.748 30.804 419.686 30.9276 419.629L31.221 419.482C31.7734 419.211 32.3406 418.972 32.9198 418.764C33.2133 418.656 33.5222 418.548 33.8233 418.455C34.1245 418.363 34.5955 418.231 34.9739 418.139C35.2133 418.077 35.4527 418.023 35.6998 417.977C35.9469 417.93 36.2403 417.869 36.472 417.83C36.8581 417.76 37.2442 417.714 37.6457 417.675C37.8851 417.675 38.1245 417.629 38.3716 417.614H38.75H39.5685H213.831V417.575Z" fill="#F7F0E2"/>
<path d="M222.888 456.741C222.887 457.092 222.846 457.442 222.765 457.784C222.279 459.825 220.454 461.266 218.356 461.266H39.653C26.3385 461.266 15.5449 450.473 15.5449 437.158C15.5449 423.844 26.3385 413.05 39.653 413.05H218.356C220.856 413.05 222.884 415.075 222.888 417.575C222.887 417.929 222.846 418.281 222.765 418.625C222.275 420.664 220.452 422.101 218.356 422.1H39.653C36.2914 422.102 33.0278 423.233 30.3866 425.313C28.3479 426.915 26.753 429.013 25.7534 431.405C24.1712 435.23 24.2333 439.538 25.9249 443.315C27.6165 447.093 30.7885 450.008 34.6955 451.374C36.2881 451.935 37.9647 452.219 39.653 452.216H218.356C219.557 452.214 220.71 452.69 221.56 453.539C222.411 454.388 222.888 455.54 222.888 456.741Z" fill="#EFD6A8"/>
<path d="M222.14 417.575C222.139 417.929 222.097 418.281 222.016 418.625C221.527 420.664 219.703 422.101 217.607 422.1H38.9428C35.5812 422.102 32.3176 423.233 29.6764 425.313C28.6301 426.144 27.6957 427.107 26.8965 428.177C31.3734 421.548 38.8506 417.575 46.8501 417.575H222.14Z" fill="#E8CB9C"/>
<path d="M213.83 425.483V426.108H23.498L23.9382 425.483H213.83Z" fill="#EFD6A8"/>
<path d="M213.83 431.56V432.177H20.7109C20.765 431.969 20.819 431.76 20.8885 431.56H213.83Z" fill="#F9E5C7"/>
<path d="M213.83 437.629V438.255H20.1005C20.1005 438.1 20.1005 437.954 20.1005 437.799C20.0967 437.743 20.0967 437.686 20.1005 437.629H213.83Z" fill="#F9E5C7"/>
<path d="M213.83 443.699V444.324H21.4289L21.2668 443.899C21.2402 443.834 21.217 443.767 21.1973 443.699H213.83Z" fill="#F9E5C7"/>
<path d="M213.83 449.776V450.394H25.228C25.0427 450.193 24.8574 449.992 24.6875 449.776H213.83Z" fill="#F9E5C7"/>
<path d="M213.83 425.482V426.108H23.498L23.9382 425.482H213.83Z" fill="#EFD6A8"/>
<path d="M55.3518 431.56C54.9503 431.753 54.5796 431.961 54.1627 432.177H20.7109C20.765 431.969 20.819 431.76 20.8885 431.56H55.3518Z" fill="#EFD6A8"/>
<path d="M47.1661 437.629C46.9731 437.838 46.7878 438.038 46.6024 438.255H20.1005C20.1005 438.1 20.1005 437.954 20.1005 437.799C20.0967 437.742 20.0967 437.686 20.1005 437.629H47.1661Z" fill="#EFD6A8"/>
<path d="M42.8575 443.699C42.7494 443.907 42.6413 444.116 42.5409 444.324H21.4289L21.2668 443.899C21.2402 443.834 21.217 443.767 21.1973 443.699H42.8575Z" fill="#EFD6A8"/>
<path d="M40.4867 449.776C40.4327 449.984 40.3786 450.185 40.3323 450.394H25.228C25.0427 450.193 24.8574 449.992 24.6875 449.776H40.4867Z" fill="#EFD6A8"/>
<path d="M550.402 296.008L582.572 273.652L681.993 416.656C684.969 420.926 686.117 426.208 685.182 431.328C685.128 431.606 685.074 431.876 685.012 432.154C684.95 432.432 684.896 432.687 684.811 432.926C684.726 433.166 684.672 433.436 684.595 433.699C684.518 433.961 684.433 434.201 684.34 434.471C684.248 434.741 684.178 434.934 684.086 435.158C683.993 435.382 683.977 435.405 683.931 435.536C683.792 435.853 683.645 436.177 683.491 436.494L683.213 437.035C683.12 437.212 683.02 437.39 682.92 437.567C682.819 437.745 682.719 437.923 682.611 438.092L682.286 438.61L682.201 438.741L681.939 439.119C681.902 439.179 681.861 439.236 681.815 439.289C681.622 439.567 681.406 439.838 681.198 440.108L681.097 440.224L680.757 440.625C680.603 440.818 680.441 441.004 680.263 441.189C679.977 441.498 679.684 441.791 679.375 442.085C679.375 442.085 679.375 442.085 679.321 442.085C679.289 442.12 679.252 442.151 679.213 442.177C678.958 442.417 678.688 442.648 678.441 442.88L678.178 443.104C678.133 443.147 678.084 443.186 678.032 443.22C677.916 443.312 677.8 443.405 677.669 443.498L677.537 443.598L677.143 443.876C676.734 444.162 676.31 444.44 675.877 444.648C675.445 444.857 675.012 445.135 674.564 445.351L673.684 445.76C673.36 445.899 673.028 446.031 672.696 446.154C672.495 446.224 672.294 446.301 672.086 446.355C672.032 446.381 671.975 446.399 671.916 446.409L671.761 446.463L671.051 446.664C670.696 446.764 670.34 446.849 669.993 446.926C669.375 447.05 668.757 447.15 668.132 447.22C667.823 447.22 667.514 447.282 667.19 447.297C666.866 447.312 666.696 447.297 666.418 447.297H666.109H665.337C665.004 447.297 664.672 447.297 664.34 447.235C664.008 447.173 663.8 447.181 663.53 447.143H663.375C663.12 447.143 662.858 447.065 662.603 447.019H662.394L661.622 446.872L661.367 446.803L660.719 446.648C660.009 446.45 659.31 446.213 658.626 445.938L657.777 445.575C657.72 445.556 657.665 445.53 657.615 445.498C657.351 445.39 657.093 445.269 656.842 445.135C656.718 445.074 656.597 445.007 656.479 444.934L656.186 444.78C655.655 444.476 655.14 444.146 654.642 443.791C654.387 443.614 654.124 443.421 653.869 443.228C653.615 443.034 653.252 442.733 652.95 442.455C652.649 442.177 652.58 442.131 652.402 441.953C652.225 441.776 652.008 441.567 651.823 441.374C651.638 441.181 651.283 440.795 651.051 440.494C650.889 440.316 650.742 440.131 650.588 439.938L650.356 439.645C650.194 439.428 650.032 439.212 649.877 438.98L550.402 296.008Z" fill="#FDFBF1"/>
<path d="M556.895 291.529L557.408 291.172L668.375 450.773L667.861 451.13L556.895 291.529Z" fill="#EFD6A8"/>
<path d="M560.857 288.193L561.364 287.841L672.164 447.237L671.657 447.589L560.857 288.193Z" fill="#EFD6A8"/>
<path d="M566.873 284.596L567.387 284.239L678.353 443.84L677.84 444.197L566.873 284.596Z" fill="#EFD6A8"/>
<path d="M571.855 281.13L572.369 280.773L683.336 440.374L682.822 440.731L571.855 281.13Z" fill="#EFD6A8"/>
<path d="M576.844 277.66L577.351 277.307L688.317 436.908L687.81 437.26L576.844 277.66Z" fill="#EFD6A8"/>
<path d="M550.402 296.008L559.553 289.645L643.005 409.66C645.429 413.172 648.628 416.078 652.356 418.154C652.75 418.378 653.128 418.579 653.545 418.78C656.22 420.1 659.087 420.989 662.039 421.413C662.317 421.452 662.588 421.49 662.873 421.513C665.069 421.78 667.288 421.78 669.483 421.513L670.178 421.421C672.099 421.13 673.986 420.644 675.808 419.969L676.402 419.737C676.974 419.513 677.537 419.259 678.101 418.965C679.468 418.303 680.777 417.528 682.016 416.649C684.993 420.918 686.141 426.2 685.205 431.32C685.151 431.598 685.097 431.869 685.035 432.147C684.974 432.425 684.92 432.679 684.835 432.919C684.765 433.166 684.688 433.428 684.611 433.691C684.534 433.954 684.449 434.193 684.356 434.463C684.263 434.733 684.194 434.927 684.101 435.15C684.008 435.374 683.993 435.398 683.947 435.529C683.808 435.845 683.661 436.17 683.506 436.486L683.228 437.027C683.136 437.205 683.035 437.382 682.935 437.56C682.835 437.737 682.734 437.915 682.626 438.085L682.302 438.602L682.209 438.726L681.947 439.104C681.91 439.164 681.869 439.221 681.823 439.274C681.63 439.552 681.414 439.822 681.205 440.093L681.105 440.208L680.765 440.61C680.657 440.749 680.541 440.872 680.418 441.011C680.294 441.15 680.325 441.12 680.271 441.174C679.985 441.483 679.692 441.776 679.383 442.069C679.383 442.069 679.383 442.069 679.329 442.069C679.296 442.104 679.26 442.135 679.221 442.162C678.966 442.401 678.696 442.633 678.449 442.865L678.186 443.089C678.132 443.089 678.086 443.166 678.039 443.197L677.676 443.483L677.537 443.575L677.151 443.853C676.333 444.434 675.47 444.95 674.572 445.398L673.692 445.807C673.36 445.938 673.035 446.077 672.703 446.193L672.093 446.401C672.04 446.427 671.982 446.446 671.923 446.456L671.769 446.51L671.059 446.71C670.703 446.811 670.348 446.896 670.001 446.973C669.383 447.096 668.765 447.197 668.14 447.266C667.831 447.266 667.522 447.328 667.198 447.344C666.873 447.359 666.703 447.344 666.425 447.344H666.117H665.344L664.356 447.289C664.088 447.289 663.818 447.259 663.545 447.197H663.391C663.136 447.197 662.873 447.12 662.618 447.073H662.41L661.638 446.927L661.383 446.857L660.734 446.703C660.024 446.504 659.326 446.267 658.642 445.992L657.792 445.629C657.735 445.61 657.681 445.584 657.63 445.552C657.367 445.444 657.109 445.323 656.858 445.189C656.734 445.128 656.612 445.061 656.495 444.988L656.201 444.834C655.67 444.53 655.155 444.201 654.657 443.845C654.402 443.668 654.14 443.475 653.885 443.282C653.63 443.089 653.267 442.788 652.966 442.51C652.665 442.232 652.595 442.185 652.418 442.008C652.24 441.83 652.024 441.622 651.839 441.428C651.653 441.235 651.298 440.849 651.066 440.548C650.904 440.371 650.757 440.185 650.603 439.992L650.371 439.699C650.209 439.483 650.047 439.266 649.893 439.035L550.402 296.008Z" fill="#F7F0E2"/>
<path d="M577.391 266.216C577.679 266.015 577.99 265.85 578.318 265.722C580.279 264.943 582.519 265.618 583.723 267.351L685.738 414.069C690.738 421.138 691.563 430.345 687.899 438.191C684.236 446.036 676.647 451.314 668.017 452.018C659.387 452.723 651.043 448.745 646.155 441.598L544.132 294.88C543.447 293.894 543.181 292.676 543.394 291.494C543.607 290.312 544.281 289.264 545.267 288.579C545.555 288.375 545.866 288.206 546.194 288.077C548.155 287.295 550.397 287.971 551.599 289.706L653.615 436.424C655.538 439.192 658.337 441.232 661.561 442.216C664.035 442.973 666.662 443.082 669.19 442.532C671.128 442.126 672.965 441.339 674.596 440.216C681.395 435.439 683.043 426.059 678.279 419.251L576.256 272.533C575.567 271.545 575.3 270.324 575.513 269.139C575.726 267.954 576.402 266.902 577.391 266.216Z" fill="#EFD6A8"/>
<path d="M545.66 289.197C545.95 288.992 546.264 288.824 546.595 288.695C548.556 287.91 550.799 288.586 552 290.324L653.984 437.011C655.901 439.783 658.699 441.824 661.923 442.803C663.205 443.188 664.531 443.406 665.869 443.452C657.876 443.554 650.354 439.683 645.791 433.12L545.66 289.197Z" fill="#E8CB9C"/>
<path d="M556.896 291.498L557.406 291.135L666.078 447.421H665.306L556.896 291.498Z" fill="#EFD6A8"/>
<path d="M561.885 288.023L562.394 287.676L672.642 446.231C672.441 446.301 672.24 446.378 672.032 446.432L561.885 288.023Z" fill="#F9E5C7"/>
<path d="M566.865 284.564L567.383 284.201L677.977 443.274C677.861 443.367 677.745 443.459 677.614 443.552L677.483 443.652L566.865 284.564Z" fill="#F9E5C7"/>
<path d="M571.854 281.096L572.363 280.741L682.186 438.702L681.923 439.081C681.886 439.141 681.845 439.197 681.8 439.251L571.854 281.096Z" fill="#F9E5C7"/>
<path d="M576.842 277.629L577.351 277.274L685.019 432.123C684.957 432.386 684.903 432.656 684.818 432.895L576.842 277.629Z" fill="#F9E5C7"/>
<path d="M556.896 291.498L557.406 291.135L666.078 447.421H665.306L556.896 291.498Z" fill="#EFD6A8"/>
<path d="M652.355 418.139C652.749 418.363 653.128 418.564 653.545 418.764L672.641 446.232C672.44 446.301 672.24 446.378 672.031 446.432L652.355 418.139Z" fill="#EFD6A8"/>
<path d="M662.016 421.397C662.294 421.436 662.564 421.475 662.85 421.498L677.977 443.258C677.861 443.351 677.745 443.444 677.614 443.536L677.483 443.637L662.016 421.397Z" fill="#EFD6A8"/>
<path d="M669.461 421.467L670.156 421.374L682.187 438.702L681.924 439.081C681.888 439.141 681.846 439.197 681.801 439.251L669.461 421.467Z" fill="#EFD6A8"/>
<path d="M675.785 419.923L676.38 419.691L685.021 432.123C684.959 432.386 684.905 432.656 684.82 432.896L675.785 419.923Z" fill="#EFD6A8"/>
<path d="M152.217 184.247V411.876C152.219 412.254 152.07 412.618 151.804 412.886C151.537 413.154 151.174 413.305 150.796 413.305H114.827C114.041 413.301 113.406 412.662 113.406 411.876V184.247C113.406 183.461 114.041 182.823 114.827 182.819H150.796C151.174 182.819 151.537 182.969 151.804 183.237C152.07 183.506 152.219 183.869 152.217 184.247Z" fill="#F4E5C6"/>
<path d="M152.216 184.247V411.876C152.218 412.254 152.069 412.618 151.803 412.886C151.536 413.154 151.173 413.305 150.795 413.305H145.32C145.698 413.305 146.061 413.154 146.328 412.886C146.594 412.618 146.743 412.254 146.741 411.876V184.247C146.743 183.869 146.594 183.506 146.328 183.237C146.061 182.969 145.698 182.819 145.32 182.819H150.795C151.173 182.819 151.536 182.969 151.803 183.237C152.069 183.506 152.218 183.869 152.216 184.247Z" fill="#EFD6A8"/>
<path d="M113.406 204.626H152.217V221.444H113.406V204.626Z" fill="#EFD6A8"/>
<path d="M113.406 374.687H152.217V391.506H113.406V374.687Z" fill="#EFD6A8"/>
<path d="M113.405 184.626V411.529C113.497 412.417 112.869 413.219 111.985 413.344H72.4325C71.5456 413.223 70.9157 412.419 71.0116 411.529V184.626C70.9159 183.737 71.5467 182.935 72.4325 182.819H111.985C112.868 182.939 113.497 183.739 113.405 184.626Z" fill="#F4E5C6"/>
<g opacity="0.69">
<path d="M71.0137 211.22H113.407V222.479H71.0137V211.22Z" fill="#EFD6A8"/>
<path d="M71.0137 234.178H113.407V245.436H71.0137V234.178Z" fill="#EFD6A8"/>
</g>
<path d="M71.0137 350.687H113.407V361.946H71.0137V350.687Z" fill="#EFD6A8"/>
<path d="M71.0137 373.637H113.407V384.896H71.0137V373.637Z" fill="#EFD6A8"/>
<path d="M113.409 184.626V411.529C113.5 412.417 112.873 413.219 111.988 413.344H102.451C105.185 413.344 107.409 410.533 107.409 407.05V189.135C107.409 185.653 105.185 182.842 102.451 182.842H111.988C112.862 182.962 113.487 183.747 113.409 184.626Z" fill="#EFD6A8"/>
<g opacity="0.69">
<path d="M107.406 211.22H113.406V222.479H107.406V211.22Z" fill="#E8CB9C"/>
<path d="M107.406 234.178H113.406V245.436H107.406V234.178Z" fill="#E8CB9C"/>
</g>
<path d="M107.406 350.679H113.406V361.946H107.406V350.679Z" fill="#E8CB9C"/>
<path d="M107.406 373.637H113.406V384.903H107.406V373.637Z" fill="#E8CB9C"/>
<path d="M146.742 204.626H152.217V221.444H146.742V204.626Z" fill="#E8CB9C"/>
<path d="M146.742 374.679H152.217V391.498H146.742V374.679Z" fill="#E8CB9C"/>
<path d="M493.994 139.761V449.984C494.012 450.482 493.833 450.967 493.494 451.332C493.155 451.697 492.685 451.912 492.187 451.93H446.503C445.469 451.889 444.662 451.019 444.696 449.984V139.761C444.662 138.726 445.469 137.857 446.503 137.815H492.225C493.247 137.873 494.033 138.739 493.994 139.761Z" fill="#F4E5C6"/>
<path d="M493.993 139.761V449.984C494.028 451.019 493.221 451.888 492.186 451.93H485.236C485.734 451.912 486.204 451.697 486.543 451.332C486.882 450.967 487.062 450.482 487.043 449.984V139.761C487.062 139.263 486.882 138.778 486.543 138.413C486.204 138.048 485.734 137.833 485.236 137.815H492.186C493.221 137.857 494.028 138.726 493.993 139.761Z" fill="#EFD6A8"/>
<path d="M444.695 167.537H493.993V190.456H444.695V167.537Z" fill="#EFD6A8"/>
<path d="M444.695 399.297H493.993V422.216H444.695V399.297Z" fill="#EFD6A8"/>
<path d="M487.035 167.529H493.993V190.456H487.035V167.529Z" fill="#E8CB9C"/>
<path d="M487.035 399.289H493.993V422.216H487.035V399.289Z" fill="#E8CB9C"/>
<rect x="458.447" y="209.027" width="4.91113" height="171.699" rx="2.45557" fill="#EFD6A8"/>
<rect x="470.418" y="234.911" width="4.91119" height="119.93" rx="2.4556" fill="#EFD6A8"/>
<path d="M543.29 214.517V450.455C543.192 451.355 542.392 452.011 541.49 451.93H495.799C494.897 452.007 494.097 451.354 493.992 450.455V214.517C494.094 213.615 494.895 212.958 495.799 213.035H541.49C542.395 212.954 543.196 213.614 543.29 214.517Z" fill="#F4E5C6"/>
<path d="M543.29 214.517V450.448C543.192 451.352 542.389 452.011 541.483 451.93H534.533C535.439 452.011 536.243 451.352 536.34 450.448V214.517C536.243 213.613 535.439 212.954 534.533 213.035H541.483C542.389 212.954 543.192 213.613 543.29 214.517Z" fill="#EFD6A8"/>
<path d="M493.992 287.776H543.29V377.197H493.992V287.776Z" fill="#EFD6A8"/>
<path d="M536.332 287.768H543.29V377.197H536.332V287.768Z" fill="#E8CB9C"/>
<path d="M518.641 364.177C524.859 364.177 529.9 349.989 529.9 332.486C529.9 314.984 524.859 300.795 518.641 300.795C512.423 300.795 507.383 314.984 507.383 332.486C507.383 349.989 512.423 364.177 518.641 364.177Z" fill="#F4E5C6"/>
<path d="M375.406 273.706C375.081 272.162 374.749 270.618 374.402 269.073C371.467 265.838 368.008 264.44 365.653 265.475C360.657 267.691 356.047 266.448 348.927 267.791C346.842 268.178 341.892 264.587 338.394 263.089C335.607 258.795 331.684 256.139 328.842 255.969C318.927 255.274 307.545 262.44 295.251 257.992C293.375 257.32 289.159 267.359 286.896 269.575C286.672 270.911 286.448 272.293 286.217 273.745C283.074 294.154 280.039 326.579 285.004 359.784C286.244 368.224 288.037 376.574 290.371 384.78L260.703 486.718L263.792 491.405L268.116 486.718C268.116 486.718 313.676 438.123 333.591 367.452C335.668 373.065 338.116 378.842 340.981 384.741L344.61 486.718L348.363 491.737L352.062 486.718C352.062 486.718 400.78 393.899 375.406 273.706Z" fill="#1E394E"/>
<path d="M374.395 269.058C372.518 270.116 370.402 271.189 368.047 272.232C359.589 275.935 350.577 278.215 341.375 278.981C336.238 279.421 331.074 279.452 325.931 279.073C322.024 278.794 318.134 278.307 314.279 277.614C306.908 276.283 299.664 274.325 292.626 271.761C290.75 271.089 288.827 270.363 286.889 269.568C287.414 266.417 287.931 263.637 288.433 261.282C290.039 253.107 291.375 244.891 292.441 236.633L293.476 228.656L300.001 178.463H360.781L363.954 202.857L366.008 218.626L367.313 228.664C367.313 228.618 367.406 228.579 367.445 228.541L368.163 234.039C368.678 237.961 369.252 241.879 369.885 245.792C371.141 253.55 372.644 261.272 374.395 268.958V269.058Z" fill="#939393"/>
<path d="M369.846 245.753C348.904 228.185 357.753 200.795 357.753 200.795L363.931 202.849L365.985 218.618L367.29 228.656C367.29 228.61 367.382 228.571 367.421 228.533L368.139 234.031C368.638 237.933 369.207 241.84 369.846 245.753Z" fill="#665C5E"/>
<path d="M324.657 212.834C317.553 225.961 296.132 248.919 314.279 277.614C306.908 276.283 299.664 274.325 292.626 271.761C290.75 271.089 288.827 270.363 286.889 269.568C287.414 266.417 287.931 263.637 288.433 261.282C290.039 253.107 291.375 244.891 292.441 236.633L293.476 228.656L300.001 178.463H310.526L324.657 192.656C326.158 194.383 327.149 196.492 327.522 198.749C327.599 199.151 327.661 199.56 327.715 199.992C328.086 203.243 327.53 207.544 324.657 212.834Z" fill="#665C5E"/>
<path d="M345.739 178.456L336.179 194.209C335.255 195.731 333.677 196.739 331.907 196.937C330.137 197.135 328.375 196.501 327.137 195.22L319.415 187.189L310.982 178.456H345.739Z" fill="#B1C0C9"/>
<path d="M338.37 178.456C338.37 178.456 333.003 185.622 325.181 185.351C323.099 185.279 321.056 185.928 319.397 187.189L310.965 178.456H338.37Z" fill="#96A8B3"/>
<path d="M346.279 134.309L343.005 129.29C343.005 129.29 334.048 128.888 331.986 129.9C329.924 130.911 315.623 143.722 315.623 143.722L315.275 158.247L319.291 164.564L323.677 174.417L336.341 170.402L341.252 164.564L346.279 134.309Z" fill="#DF7D7A"/>
<path d="M346.279 134.309C339.607 132.108 335.012 134.865 332.271 137.707C330.918 139.138 329.933 140.877 329.398 142.772C329.225 143.368 329.091 143.974 328.997 144.587C328.542 146.998 327.717 149.325 326.549 151.483C326.416 151.744 326.167 151.927 325.878 151.975C325.588 152.024 325.293 151.933 325.082 151.73C324.147 150.826 322.51 150.077 320.951 153.421C320.266 154.773 319.977 156.29 320.117 157.799C320.208 158.617 320.471 159.407 320.889 160.116C321.212 160.65 321.212 161.319 320.889 161.853L320.85 161.915L319.306 164.572C319.306 164.572 312.897 158.525 310.093 150.286C307.29 142.046 310.441 130.371 322.279 124.672C325.32 123.207 328.622 122.359 331.993 122.178C340.14 121.707 347.035 125.12 348.943 127.653C351.56 131.128 346.279 134.309 346.279 134.309Z" fill="#C1C1C1"/>
<path d="M352.293 152.433C352.106 152.044 351.781 151.739 351.382 151.575C348.046 149.9 349.166 145.166 347.521 137.583C347.277 136.434 346.858 135.33 346.278 134.309C334.409 130.386 329.112 142.193 329.112 142.193C329.366 145.529 327.567 149.514 326.548 151.46C326.415 151.721 326.166 151.903 325.876 151.952C325.587 152.001 325.292 151.91 325.081 151.707C324.146 150.803 322.509 150.054 320.949 153.398C320.265 154.75 319.976 156.267 320.115 157.776C320.206 158.594 320.47 159.384 320.888 160.093C321.211 160.627 321.211 161.296 320.888 161.83L320.849 161.892L319.305 164.548V178.448C320.022 179.087 320.784 179.675 321.583 180.209C327.184 183.972 332.785 183.385 338.386 178.448L336.355 170.363C336.625 170.363 336.903 170.363 337.173 170.324C350.919 169.398 348.957 161.591 348.957 159.251C348.957 159.189 348.957 159.128 348.957 159.058C349.027 158.66 349.174 158.28 349.39 157.938C349.758 157.327 350.168 156.741 350.617 156.185C351.683 154.834 352.725 153.46 352.293 152.433Z" fill="#DF7D7A"/>
<path d="M402.65 82.8032L401.515 79.1198C401.169 77.9933 401.379 76.7698 402.08 75.8225C402.78 74.8752 403.889 74.3164 405.067 74.3167H427.87C428.437 74.3123 428.92 74.7302 428.996 75.2923C429.072 75.8545 428.719 76.3858 428.171 76.533L426.48 76.9886C423.186 77.8818 420.037 79.2418 417.129 81.0272C415.936 81.8084 414.635 82.4094 413.268 82.8109L402.65 82.8032Z" fill="#DF7D7A"/>
<path d="M303.034 196.409C302.773 190.318 301.735 184.284 299.946 178.456C297.549 177.038 295.285 175.407 293.181 173.583C287.243 168.61 265.784 149.49 265.784 149.49C265.784 149.49 258.062 109.992 258.062 82.8033L252.409 78.0079L247.436 82.8033C247.436 82.8033 236.046 124.842 243.289 158.533C247.544 178.27 267.513 212.247 293.405 228.626C301.783 218.857 303.459 206.44 303.034 196.409Z" fill="#B1C0C9"/>
<path d="M413.244 82.8033L407.769 78.0079L402.649 82.8033C402.649 109.992 394.927 149.49 394.927 149.49C394.927 149.49 373.468 168.602 367.529 173.583C365.429 175.41 363.165 177.038 360.765 178.448L360.804 178.741C359.946 181.444 353.807 202.363 361.916 219.985C363.312 223.022 365.109 225.858 367.259 228.417V228.61L367.344 228.556L367.39 228.61V228.517C379.529 220.795 390.363 209.212 398.873 197.058C398.889 197.031 398.907 197.005 398.927 196.981C408.472 183.321 415.089 168.95 417.336 158.541C424.634 124.85 413.244 82.8033 413.244 82.8033Z" fill="#B1C0C9"/>
<path d="M350.61 156.193C350.161 156.749 349.751 157.334 349.382 157.946C349.166 158.287 349.019 158.668 348.95 159.066C347.405 158.788 346.857 156.564 348.803 156.564C349.424 156.566 350.04 156.44 350.61 156.193Z" fill="#D15D5A"/>
<path d="M336.341 170.371H333.87C333.202 170.39 332.622 170.838 332.434 171.48C332.245 172.122 332.492 172.812 333.044 173.189L337.824 176.278L336.341 170.371Z" fill="#D15D5A"/>
<path d="M342.797 307.235C346.588 338.046 348.604 366.849 341.013 384.741C338.148 378.842 335.7 373.066 333.623 367.452C339.239 347.87 342.312 327.648 342.766 307.282L342.797 307.235Z" fill="#1C2231"/>
<path d="M290.363 384.741L296.17 388.44L288.209 392.154L290.363 384.741Z" fill="#1C2231"/>
<path d="M341.012 384.741L347.12 386.934L341.274 392.154L341.012 384.741Z" fill="#1C2231"/>
<path d="M398.927 197.05C390.433 209.205 379.622 220.788 367.453 228.51H367.398V228.625L367.352 228.571C367.352 228.571 367.306 228.618 367.283 228.641V228.448C365.121 225.892 363.311 223.059 361.9 220.023C378.317 217.035 397.584 198.757 398.927 197.05V197.05Z" fill="#96A8B3"/>
<path d="M329.391 142.757C329.218 143.352 329.084 143.959 328.989 144.572C328.535 146.983 327.709 149.309 326.541 151.467C326.408 151.728 326.159 151.911 325.87 151.96C325.581 152.008 325.286 151.917 325.074 151.714C324.14 150.811 322.503 150.062 320.943 153.405C320.258 154.757 319.969 156.275 320.109 157.784C320.2 158.602 320.463 159.391 320.881 160.1C321.205 160.634 321.205 161.304 320.881 161.838L320.842 161.9L319.298 164.556C319.298 164.556 312.889 158.51 310.086 150.27C307.283 142.031 310.433 130.355 322.271 124.656C325.313 123.192 328.614 122.344 331.985 122.162C330.672 122.548 321.174 125.637 317.313 134.904C313.151 144.826 330.171 135.413 329.391 142.757Z" fill="#939393"/>
<path d="M336.239 143.336C336.069 151.969 338.741 160.919 330.262 163.691C328.327 164.293 326.538 165.292 325.011 166.626C321.521 169.714 320.224 174.502 321.583 180.216C320.784 179.683 320.022 179.094 319.305 178.456V164.556L320.849 161.9L320.888 161.838C321.211 161.304 321.211 160.634 320.888 160.1C320.47 159.391 320.206 158.602 320.115 157.784C319.976 156.275 320.265 154.757 320.949 153.405C322.494 150.062 324.146 150.811 325.081 151.714C325.292 151.917 325.587 152.008 325.876 151.96C326.166 151.911 326.415 151.728 326.548 151.467C327.575 149.498 329.366 145.514 329.112 142.201C329.112 142.201 334.409 130.394 346.278 134.317C346.278 134.309 336.401 134.703 336.239 143.336Z" fill="#D15D5A"/>
<path d="M327.537 198.749C326.995 198.417 326.496 198.018 326.055 197.56L307.614 178.456H306.217L325.337 198.263C326.021 198.982 326.833 199.568 327.73 199.992C327.676 199.56 327.615 199.174 327.537 198.749Z" fill="#3F3235"/>
<path d="M349.568 178.456L338.417 196.803C337.085 199.008 334.801 200.467 332.24 200.749C331.925 200.787 331.607 200.803 331.29 200.795C330.06 200.809 328.844 200.545 327.73 200.023C327.676 199.591 327.614 199.182 327.537 198.78C330.99 200.87 335.483 199.767 337.576 196.317L348.387 178.487L349.568 178.456Z" fill="#665C5E"/>
<path d="M293.436 228.625C267.544 212.247 247.575 178.27 243.32 158.533C243.32 158.533 249.112 182.819 273.436 199.992C282.703 206.517 291.397 204.062 297.035 200.834C299.198 199.61 301.203 198.123 303.004 196.409C303.459 206.44 301.784 218.857 293.436 228.625Z" fill="#96A8B3"/>
<path d="M355.899 280.587C355.899 280.587 351.969 284.008 342.185 287.313C336.201 289.276 330.057 290.71 323.822 291.598C317.68 292.496 311.493 293.048 305.289 293.251C300.24 293.437 295.712 296.412 293.536 300.973C288.695 311.066 281.953 331.011 284.965 359.722C280.015 326.517 283.034 294.085 286.177 273.683C286.409 272.232 286.633 270.849 286.857 269.513C288.795 270.286 290.718 271.058 292.594 271.707C303.31 275.684 314.527 278.156 325.922 279.05C331.065 279.429 336.229 279.398 341.366 278.957C344.347 278.695 347.173 278.301 349.861 277.799L355.899 280.587Z" fill="#1C2231"/>
<path d="M375.398 273.707C359.69 281.073 342.394 284.407 325.074 283.405C301.908 282.1 286.317 273.707 286.209 273.707C286.441 272.255 286.665 270.873 286.881 269.544C288.827 270.317 290.742 271.089 292.634 271.737C303.348 275.71 314.562 278.179 325.954 279.073C331.096 279.452 336.261 279.421 341.398 278.981C350.601 278.216 359.613 275.933 368.07 272.224C370.235 271.276 372.351 270.219 374.41 269.058C374.742 270.61 375.074 272.154 375.398 273.707Z" fill="#3F3235"/>
<path d="M258.079 82.8032L259.214 79.1198C259.56 77.9933 259.35 76.7698 258.649 75.8225C257.949 74.8752 256.84 74.3164 255.662 74.3167H232.859C232.292 74.3123 231.809 74.7302 231.733 75.2923C231.657 75.8545 232.01 76.3858 232.558 76.533L234.249 76.9886C237.535 77.8839 240.676 79.2438 243.577 81.0272C244.769 81.8084 246.07 82.4094 247.438 82.8109L258.079 82.8032Z" fill="#DF7D7A"/>
<path d="M526.356 63.9925C527.537 66.8715 528.87 69.6862 530.348 72.4249H163.553C161.825 68.0296 160.461 63.4995 159.476 58.8805C155.785 41.7274 157.136 22.8548 163.53 2.26279H530.325C528.532 5.57815 526.956 9.00618 525.607 12.5253C525.306 13.2975 525.012 14.1161 524.75 14.9114C523.904 17.3469 523.193 19.8268 522.618 22.34C522.428 23.1328 522.258 23.9282 522.109 24.7261C521.627 27.1805 521.289 29.6609 521.097 32.1547C521.028 32.9269 520.981 33.6991 520.95 34.533C520.837 37.009 520.871 39.4896 521.051 41.9616C521.105 42.7338 521.174 43.5523 521.267 44.3477C521.535 46.8447 521.942 49.3248 522.487 51.7763C522.657 52.5485 522.858 53.3207 523.066 54.1546C523.704 56.6707 524.478 59.1505 525.383 61.5832C525.715 62.4018 526.031 63.1971 526.356 63.9925Z" fill="#FDFBF1"/>
<path d="M525.631 12.5485C525.33 13.3207 525.037 14.1392 524.774 14.9346H229.678C233.338 14.0774 237.068 13.2821 240.836 12.5485H525.631Z" fill="#F9E5C7"/>
<path d="M522.641 22.34C522.451 23.1328 522.281 23.9282 522.132 24.7262H199.051C200.943 23.8922 202.912 23.1045 204.889 22.34H522.641Z" fill="#F9E5C7"/>
<path d="M521.122 32.1778C521.052 32.95 521.006 33.7222 520.975 34.5562H181.686C182.774 33.7377 183.909 32.95 185.083 32.1778H521.122Z" fill="#F9E5C7"/>
<path d="M521.291 44.3709H171.686C172.288 43.5601 172.929 42.7647 173.601 41.9848H521.091C521.129 42.7802 521.199 43.5755 521.291 44.3709Z" fill="#F9E5C7"/>
<path d="M523.113 54.1778H170.472C169.816 54.1778 169.283 53.6454 169.283 52.9886C169.283 52.3319 169.816 51.7994 170.472 51.7994H522.51C522.68 52.5948 522.881 53.3825 523.113 54.1778Z" fill="#F9E5C7"/>
<path d="M526.356 63.9925H170.472C169.814 63.9925 169.28 63.4613 169.275 62.8033C169.275 62.4863 169.403 62.1827 169.631 61.9616C169.853 61.7366 170.156 61.6088 170.472 61.6064H525.429C525.715 62.4017 526.032 63.1971 526.356 63.9925Z" fill="#F9E5C7"/>
<path d="M173.6 41.9848C172.928 42.757 172.287 43.5292 171.684 44.3709H170.472C169.987 44.3748 169.549 44.0838 169.363 43.6356C169.178 43.1874 169.284 42.6717 169.63 42.3323C169.856 42.1129 170.157 41.9885 170.472 41.9848L173.6 41.9848Z" fill="#EFD6A8"/>
<path d="M185.082 32.1778C183.909 32.95 182.766 33.7222 181.685 34.5562H170.472C169.814 34.5562 169.28 34.025 169.275 33.367C169.275 33.0503 169.402 32.7466 169.626 32.5234C169.851 32.3001 170.156 32.1758 170.472 32.1778H185.082Z" fill="#EFD6A8"/>
<path d="M204.89 22.34C202.897 23.1122 200.944 23.8844 199.052 24.7261H170.48C170.031 24.7623 169.6 24.5431 169.364 24.1591C169.129 23.775 169.129 23.2911 169.364 22.907C169.6 22.523 170.031 22.3038 170.48 22.34H204.89Z" fill="#EFD6A8"/>
<path d="M240.851 12.5485C237.082 13.3207 233.353 14.0929 229.692 14.9346H170.472C169.814 14.9346 169.28 14.4034 169.275 13.7454C169.275 13.0844 169.811 12.5485 170.472 12.5485H240.851Z" fill="#EFD6A8"/>
<path d="M169.631 12.896C169.406 13.1219 169.278 13.4267 169.276 13.7454C169.28 14.4034 169.814 14.9346 170.472 14.9346H229.677C221.26 16.8547 212.98 19.3286 204.889 22.34H170.472C170.023 22.3038 169.592 22.523 169.356 22.907C169.121 23.2911 169.121 23.775 169.356 24.159C169.592 24.5431 170.023 24.7623 170.472 24.7261H199.044C194.187 26.8053 189.514 29.2902 185.075 32.1547H170.472C170.156 32.1526 169.851 32.277 169.627 32.5002C169.402 32.7235 169.276 33.0271 169.276 33.3438C169.28 34.0019 169.814 34.5331 170.472 34.533H181.685C178.73 36.7113 176.02 39.2019 173.6 41.9616H170.472C170.158 41.9653 169.856 42.0897 169.631 42.3091C169.284 42.6485 169.179 43.1642 169.364 43.6124C169.549 44.0606 169.988 44.3516 170.472 44.3477H171.685C166.333 51.5755 163.963 60.0929 165.623 70.1315C158.443 48.8415 158.443 25.7845 165.623 4.49445H324.279C301.885 5.01954 270.125 6.85738 240.882 12.5099H170.472C170.152 12.5238 169.85 12.6624 169.631 12.896Z" fill="#F7F0E2"/>
<path d="M543.715 70.1701H175.376C169.41 70.1831 164.225 66.0792 162.866 60.2705C159.372 45.1988 159.372 29.5275 162.866 14.4559C164.225 8.64288 169.414 4.53565 175.384 4.54853H543.623C544.796 4.55797 545.791 3.68903 545.939 2.52536C546 1.89149 545.791 1.26131 545.363 0.789528C544.936 0.317744 544.329 0.0480325 543.692 0.0466003H166.357C163.563 0.0495187 161.051 1.74845 160.009 4.34003C150.871 26.8728 151.082 49.4082 160.642 71.9461C161.355 73.6079 162.989 74.6858 164.797 74.6875H543.715C544.961 74.6875 545.97 73.6779 545.97 72.4326C545.972 71.8333 545.735 71.2578 545.312 70.8332C544.889 70.4087 544.315 70.1701 543.715 70.1701Z" fill="#E8CB9C"/>
<path d="M58.4408 455.498C54.2477 450.154 50.5875 444.046 49.9466 437.282C49.7458 435.181 50.3481 432.44 52.4331 432.139C54.2091 431.884 55.5605 433.645 56.4639 435.228C62.3911 445.407 67.5707 456.004 71.962 466.934C69.5458 458.18 70.4051 448.845 74.379 440.679C75.8307 437.737 77.738 434.919 80.4407 433.065C83.1434 431.212 86.765 430.448 89.7921 431.737C92.8191 433.027 94.8423 436.633 93.7921 439.745C93.1357 441.691 91.4755 443.119 89.9311 444.463C83.182 450.347 76.4794 457.482 75.5527 466.394C75.0199 471.567 72.5025 473.591 69.3133 469.011C66.016 464.216 61.9929 460.038 58.4408 455.498Z" fill="#FCECCD"/>
<path d="M404.703 419.73C406.95 417.583 410.355 416.015 413.112 417.413C414.764 418.27 415.76 420.023 416.363 421.784C417.672 425.69 417.454 429.947 415.753 433.699C416.425 431.382 418.479 429.359 420.896 429.22C423.313 429.081 425.768 431.243 425.529 433.66C426.17 432.116 427.282 430.664 428.888 430.27C431.498 429.621 434.023 432.509 433.699 435.181C433.374 437.853 431.011 439.907 428.448 440.741C425.884 441.575 423.127 441.428 420.432 441.359C415.673 441.226 410.91 441.337 406.162 441.691C402.934 441.93 399.351 442.98 399.089 438.95C398.633 432.255 399.56 424.656 404.703 419.73Z" fill="#FCECCD"/>
<path d="M388.866 414.679C388.03 412.994 387.472 411.184 387.214 409.32C386.971 407.425 387.665 405.53 389.075 404.239C389.719 403.625 390.669 403.458 391.484 403.815C391.946 404.146 392.294 404.613 392.48 405.15C396.009 412.873 396.882 421.537 397.708 430C396.09 419.458 398.122 408.68 403.468 399.452C405.955 395.197 409.507 391.096 414.326 390.069C415.263 389.792 416.27 389.88 417.144 390.316C419.098 391.521 418.248 394.564 416.928 396.44C413.77 400.95 409.268 404.355 405.893 408.703C398.943 417.645 399.368 426.88 401.036 437.328C401.376 439.483 401.468 441.027 399.569 439.297C398.109 437.954 397.252 434.116 396.48 432.347C393.952 426.458 391.414 420.569 388.866 414.679Z" fill="#FCECCD"/>
<path d="M528.178 449.969C528.95 444.618 531.815 439.436 536.44 436.648C537.661 435.923 539.236 435.374 540.448 436.116C542.294 437.266 541.56 440.085 540.61 442.046L532.116 459.452C536.018 452.956 541.288 447.388 547.56 443.135C550.487 441.15 553.738 439.436 557.228 438.988C559.877 438.656 563.182 439.56 563.784 442.154C564.386 444.749 561.792 447.011 559.39 448.262C555.529 450.262 551.383 451.621 547.506 453.575C543.63 455.529 539.931 458.208 537.939 462.069C530.958 475.552 527.298 456.448 528.178 449.969Z" fill="#FCECCD"/>
</svg>
