<svg width="794" height="670" viewBox="0 0 794 670" fill="none" xmlns="http://www.w3.org/2000/svg">
<path d="M246.575 160.666H185.937L186.82 159.349L187.506 158.321C187.579 158.23 187.645 158.133 187.703 158.031H245.916C246.153 158.927 246.364 159.796 246.575 160.666Z" fill="#F6DFC6"/>
<path d="M793.742 452.891C793.601 454.077 793.443 455.262 793.268 456.448C793.017 458.226 792.74 459.978 792.437 461.717C792.437 461.994 792.358 462.231 792.305 462.481C791.778 465.63 791.172 468.778 790.526 471.874C789.726 475.694 788.847 479.471 787.889 483.203L787.691 483.954C787.322 485.271 786.953 486.72 786.545 488.09C786.347 488.841 786.123 489.579 785.912 490.33C785.529 491.647 785.147 492.965 784.752 494.19C784.752 494.361 784.646 494.532 784.607 494.69C784.198 496.008 783.776 497.325 783.354 498.537C783.236 498.919 783.117 499.288 782.985 499.657C782.194 502.002 781.377 504.32 780.52 506.639C780.125 507.732 779.716 508.799 779.294 509.879C779.057 510.525 778.807 511.197 778.556 511.816C777.937 513.383 777.238 514.938 776.632 516.479L776.038 517.902C775.221 519.799 774.391 521.696 773.507 523.58C772.308 526.214 771.042 528.849 769.737 531.484C728.675 613.501 643.439 669.883 545.785 669.238C526.196 669.143 506.689 666.71 487.678 661.992C436.399 649.359 383.169 648.358 331.231 657.184C322.628 658.633 314.072 660.363 305.566 662.375L304.564 662.598C302.367 663.125 300.17 663.613 297.973 664.061C266.046 670.648 233.14 670.952 201.097 664.957C199.343 664.627 197.603 664.298 195.824 663.916C177.506 660.069 159.687 654.146 142.713 646.263L140.538 645.236C116.634 633.866 94.7072 618.745 75.5888 600.446C71.3969 596.494 67.3631 592.332 63.4612 588.05C60.8247 585.161 58.2586 582.206 55.7628 579.184C54.8664 578.104 53.9832 577.024 53.1263 575.931C51.0172 573.296 48.9739 570.635 46.9966 567.948C40.9265 559.705 35.3791 551.09 30.387 542.154C27.2497 536.595 24.3364 530.886 21.6472 525.029C19.0987 519.522 16.7522 513.915 14.6079 508.206C14.4102 507.706 14.2256 507.205 14.0543 506.691C13.0524 504.057 12.1165 501.317 11.2201 498.59C10.0864 495.151 9.01867 491.66 8.04319 488.143C7.30499 485.508 6.61512 482.874 5.97359 480.239C5.86813 479.804 5.76267 479.383 5.6704 478.922C4.35217 473.477 3.23169 467.961 2.30893 462.376C1.9662 460.387 1.66301 458.424 1.373 456.395C1.19723 455.21 1.03905 454.024 0.898438 452.838L793.742 452.891Z" fill="#CCAE92"/>
<path d="M112.051 490.857L110.403 492.411C109.668 493.1 109.415 494.16 109.76 495.106C110.104 496.052 110.979 496.702 111.985 496.759H128.845C129.83 496.703 130.692 496.077 131.049 495.159C131.407 494.24 131.195 493.197 130.506 492.491L129.346 491.279C127.114 488.921 124.033 487.551 120.786 487.472C117.54 487.393 114.395 488.611 112.051 490.857Z" fill="#BA987B"/>
<path d="M130.506 492.491L129.346 491.279C126.301 488.079 121.763 486.774 117.482 487.867C119.71 488.434 121.734 489.617 123.322 491.279L124.495 492.491C125.183 493.197 125.396 494.24 125.038 495.159C124.681 496.077 123.819 496.703 122.834 496.759H128.898C129.873 496.684 130.718 496.052 131.062 495.137C131.407 494.221 131.19 493.19 130.506 492.491Z" fill="#AF8D74"/>
<path d="M714.965 520.537L713.318 522.091C712.583 522.78 712.33 523.84 712.674 524.786C713.018 525.732 713.894 526.382 714.9 526.438H731.76C732.751 526.394 733.622 525.769 733.982 524.845C734.341 523.921 734.121 522.872 733.421 522.17L732.247 520.958C730.018 518.602 726.939 517.232 723.694 517.153C720.45 517.073 717.308 518.292 714.965 520.537Z" fill="#BA987B"/>
<path d="M733.42 522.17L732.247 520.958C729.205 517.754 724.664 516.448 720.383 517.547C722.607 518.124 724.628 519.305 726.223 520.958L727.396 522.17C728.086 522.878 728.297 523.924 727.936 524.844C727.575 525.764 726.709 526.388 725.722 526.439H731.799C732.783 526.38 733.641 525.749 733.99 524.828C734.34 523.907 734.117 522.867 733.42 522.17Z" fill="#AF8D74"/>
<path d="M600.465 626.346L598.817 627.9C598.082 628.589 597.829 629.649 598.173 630.595C598.517 631.541 599.393 632.191 600.399 632.247H617.259C618.25 632.203 619.121 631.578 619.481 630.654C619.841 629.73 619.62 628.681 618.92 627.979L617.799 626.78C615.569 624.406 612.48 623.023 609.223 622.941C605.965 622.86 602.811 624.086 600.465 626.346Z" fill="#BA987B"/>
<path d="M618.919 627.978L617.799 626.78C614.757 623.576 610.216 622.27 605.935 623.368C608.159 623.946 610.18 625.126 611.775 626.78L612.935 627.992C613.635 628.693 613.856 629.743 613.496 630.667C613.136 631.591 612.265 632.215 611.274 632.26H617.351C618.331 632.187 619.178 631.547 619.516 630.624C619.854 629.702 619.621 628.667 618.919 627.978Z" fill="#AF8D74"/>
<path d="M320.079 608.93L318.431 610.485C317.697 611.173 317.444 612.233 317.788 613.179C318.132 614.126 319.008 614.776 320.013 614.832H336.873C337.858 614.776 338.72 614.151 339.078 613.232C339.435 612.313 339.223 611.27 338.534 610.564L337.361 609.352C335.131 606.995 332.053 605.625 328.808 605.546C325.563 605.467 322.421 606.685 320.079 608.93Z" fill="#BA987B"/>
<path d="M338.534 610.564L337.361 609.352C334.319 606.148 329.778 604.842 325.497 605.94C327.721 606.518 329.742 607.699 331.337 609.352L332.497 610.564C333.185 611.27 333.398 612.313 333.04 613.232C332.683 614.151 331.821 614.776 330.836 614.832H336.913C337.891 614.762 338.739 614.131 339.087 613.215C339.435 612.299 339.219 611.265 338.534 610.564Z" fill="#AF8D74"/>
<path d="M585.226 504.715L584.409 505.492C584.09 505.854 583.994 506.361 584.158 506.814C584.323 507.267 584.723 507.594 585.199 507.666H593.623C594.092 507.597 594.487 507.281 594.659 506.84C594.831 506.399 594.752 505.899 594.453 505.532L593.873 504.926C592.756 503.749 591.216 503.065 589.593 503.025C587.971 502.986 586.399 503.594 585.226 504.715Z" fill="#BA987B"/>
<path d="M594.453 505.585L593.873 504.979C592.342 503.375 590.065 502.72 587.915 503.266C589.027 503.553 590.037 504.147 590.828 504.979L591.421 505.585C591.72 505.952 591.799 506.452 591.627 506.893C591.455 507.334 591.06 507.65 590.591 507.719H593.623C594.092 507.65 594.487 507.334 594.659 506.893C594.831 506.452 594.752 505.952 594.453 505.585Z" fill="#AF8D74"/>
<path d="M136.741 501.343L135.924 502.12C135.546 502.458 135.412 502.992 135.587 503.468C135.761 503.944 136.208 504.266 136.715 504.28H145.138C145.602 504.209 145.993 503.896 146.164 503.459C146.335 503.022 146.261 502.527 145.969 502.159L145.376 501.554C144.265 500.371 142.725 499.683 141.103 499.643C139.48 499.603 137.909 500.216 136.741 501.343Z" fill="#BA987B"/>
<path d="M145.969 502.16L145.375 501.554C143.855 499.942 141.576 499.286 139.43 499.841C140.542 500.129 141.552 500.722 142.343 501.554L142.937 502.16C143.229 502.527 143.303 503.022 143.132 503.459C142.961 503.896 142.57 504.209 142.106 504.28H145.138C145.602 504.209 145.993 503.896 146.164 503.459C146.335 503.022 146.26 502.527 145.969 502.16Z" fill="#AF8D74"/>
<path d="M299.027 604.912L298.21 605.69C297.891 606.051 297.795 606.558 297.96 607.011C298.125 607.464 298.524 607.791 299.001 607.863H307.424C307.893 607.794 308.289 607.479 308.46 607.038C308.632 606.596 308.554 606.097 308.255 605.729L307.675 605.123C306.558 603.946 305.017 603.262 303.395 603.223C301.772 603.183 300.2 603.791 299.027 604.912Z" fill="#BA987B"/>
<path d="M308.255 605.703L307.675 605.097C306.145 603.49 303.864 602.84 301.716 603.398C302.832 603.678 303.847 604.267 304.643 605.097L305.223 605.703C305.522 606.071 305.6 606.57 305.428 607.011C305.257 607.453 304.861 607.768 304.392 607.837H307.424C307.893 607.768 308.289 607.453 308.46 607.011C308.632 606.57 308.554 606.071 308.255 605.703Z" fill="#AF8D74"/>
<path d="M585.226 637.319L584.409 638.096C584.09 638.458 583.994 638.965 584.158 639.418C584.323 639.871 584.723 640.198 585.199 640.27H593.623C594.092 640.201 594.487 639.885 594.659 639.444C594.831 639.003 594.752 638.503 594.453 638.136L593.873 637.53C592.756 636.353 591.216 635.669 589.593 635.629C587.971 635.59 586.399 636.198 585.226 637.319Z" fill="#BA987B"/>
<path d="M594.453 638.07L593.873 637.464C592.342 635.86 590.065 635.205 587.915 635.751C589.027 636.039 590.037 636.632 590.828 637.464L591.421 638.07C591.72 638.437 591.799 638.937 591.627 639.378C591.455 639.82 591.06 640.135 590.591 640.204H593.623C594.092 640.135 594.487 639.82 594.659 639.378C594.831 638.937 594.752 638.437 594.453 638.07Z" fill="#AF8D74"/>
<path d="M428.727 491.476L427.896 492.253C427.577 492.615 427.481 493.122 427.646 493.575C427.811 494.028 428.21 494.355 428.687 494.427H437.124C437.593 494.358 437.988 494.043 438.16 493.601C438.332 493.16 438.253 492.66 437.954 492.293L437.361 491.687C436.246 490.511 434.708 489.827 433.088 489.787C431.467 489.748 429.898 490.356 428.727 491.476Z" fill="#BA987B"/>
<path d="M437.954 492.293L437.361 491.687C435.838 490.08 433.56 489.429 431.416 489.988C432.525 490.275 433.533 490.863 434.329 491.687L434.909 492.293C435.208 492.661 435.287 493.16 435.115 493.602C434.943 494.043 434.548 494.358 434.079 494.427H437.124C437.593 494.358 437.988 494.043 438.16 493.602C438.332 493.16 438.253 492.661 437.954 492.293Z" fill="#AF8D74"/>
<path d="M171.463 616.518L170.646 617.295C170.327 617.657 170.231 618.163 170.396 618.617C170.561 619.07 170.96 619.396 171.437 619.469H179.86C180.329 619.4 180.725 619.084 180.896 618.643C181.068 618.202 180.99 617.702 180.691 617.335L180.111 616.729C178.994 615.552 177.454 614.868 175.831 614.828C174.208 614.788 172.636 615.397 171.463 616.518Z" fill="#BA987B"/>
<path d="M180.691 617.335L180.111 616.729C178.581 615.122 176.3 614.471 174.152 615.029C175.261 615.317 176.27 615.905 177.066 616.729L177.659 617.335C177.958 617.702 178.036 618.202 177.864 618.643C177.693 619.085 177.297 619.4 176.828 619.469H179.86C180.329 619.4 180.725 619.085 180.896 618.643C181.068 618.202 180.99 617.702 180.691 617.335Z" fill="#AF8D74"/>
<path d="M49.2771 517.717L48.4598 518.495C48.1408 518.856 48.0449 519.363 48.2098 519.816C48.3746 520.269 48.7739 520.596 49.2508 520.668H57.6742C58.143 520.599 58.5385 520.284 58.7103 519.842C58.882 519.401 58.8035 518.902 58.5047 518.534L57.9115 517.928C56.7968 516.752 55.2588 516.068 53.6381 516.029C52.0175 515.989 50.4479 516.597 49.2771 517.717Z" fill="#BA987B"/>
<path d="M58.5047 518.534L57.9115 517.928C56.3878 516.321 54.1099 515.67 51.9663 516.229C53.0755 516.517 54.0836 517.105 54.8796 517.928L55.4728 518.534C55.7721 518.904 55.8492 519.405 55.6745 519.847C55.4997 520.29 55.1002 520.603 54.6291 520.668H57.6742C58.143 520.599 58.5386 520.284 58.7103 519.843C58.8821 519.401 58.8036 518.902 58.5047 518.534Z" fill="#AF8D74"/>
<path d="M735.464 515.649L735.055 516.031C734.87 516.204 734.806 516.47 734.892 516.708C734.978 516.946 735.198 517.11 735.45 517.125H739.655C739.908 517.122 740.133 516.967 740.226 516.733C740.318 516.499 740.26 516.232 740.077 516.058L739.787 515.755C739.23 515.165 738.459 514.821 737.647 514.802C736.835 514.782 736.049 515.087 735.464 515.649Z" fill="#BA987B"/>
<path d="M740.077 516.124L739.787 515.821C739.02 515.021 737.883 514.694 736.808 514.964C737.365 515.111 737.871 515.407 738.271 515.821L738.561 516.124C738.744 516.298 738.802 516.565 738.71 516.799C738.617 517.034 738.392 517.188 738.139 517.191H739.655C739.908 517.188 740.133 517.034 740.226 516.799C740.318 516.565 740.26 516.298 740.077 516.124Z" fill="#AF8D74"/>
<path d="M202.982 621.511L202.56 621.893C202.375 622.066 202.311 622.332 202.397 622.57C202.483 622.808 202.702 622.972 202.955 622.986H207.174C207.417 622.968 207.628 622.81 207.715 622.582C207.803 622.354 207.751 622.096 207.582 621.919L207.292 621.616C206.737 621.027 205.969 620.684 205.159 620.664C204.349 620.645 203.565 620.95 202.982 621.511Z" fill="#BA987B"/>
<path d="M207.582 621.893L207.292 621.59C206.534 620.785 205.397 620.457 204.326 620.734C204.878 620.884 205.379 621.179 205.776 621.59L206.066 621.893C206.235 622.07 206.287 622.328 206.199 622.556C206.112 622.784 205.901 622.941 205.658 622.96H207.174C207.417 622.941 207.628 622.784 207.715 622.556C207.803 622.328 207.751 622.07 207.582 621.893Z" fill="#AF8D74"/>
<path d="M417.43 605.228L417.021 605.61C416.836 605.783 416.772 606.05 416.858 606.288C416.944 606.526 417.164 606.689 417.417 606.704H421.635C421.879 606.685 422.09 606.528 422.177 606.299C422.264 606.071 422.212 605.813 422.044 605.637L421.754 605.334C421.196 604.744 420.426 604.401 419.614 604.381C418.802 604.361 418.016 604.666 417.43 605.228Z" fill="#BA987B"/>
<path d="M422.03 605.703L421.74 605.4C420.978 604.593 419.836 604.265 418.761 604.544C419.318 604.69 419.824 604.986 420.224 605.4L420.514 605.703C420.683 605.88 420.735 606.137 420.648 606.366C420.56 606.594 420.349 606.751 420.106 606.77H421.622C421.865 606.751 422.076 606.594 422.164 606.366C422.251 606.137 422.199 605.88 422.03 605.703Z" fill="#AF8D74"/>
<path d="M658.519 495.257L658.111 495.64C657.922 495.809 657.855 496.076 657.942 496.314C658.029 496.552 658.253 496.712 658.506 496.72H662.711C662.957 496.712 663.176 496.559 663.267 496.331C663.359 496.102 663.306 495.841 663.133 495.666L662.843 495.363C662.287 494.769 661.516 494.424 660.703 494.404C659.89 494.384 659.103 494.692 658.519 495.257Z" fill="#BA987B"/>
<path d="M663.133 495.665L662.842 495.362C662.082 494.553 660.938 494.224 659.863 494.506C660.421 494.65 660.928 494.946 661.327 495.362L661.617 495.665C661.79 495.84 661.842 496.102 661.751 496.33C661.659 496.559 661.441 496.712 661.195 496.719H662.711C662.957 496.712 663.175 496.559 663.267 496.33C663.358 496.102 663.306 495.84 663.133 495.665Z" fill="#AF8D74"/>
<path d="M522.532 493.136L522.123 493.531C521.934 493.7 521.867 493.967 521.954 494.205C522.041 494.443 522.265 494.604 522.518 494.611H526.724C526.97 494.597 527.185 494.441 527.275 494.212C527.366 493.983 527.315 493.722 527.145 493.544L526.855 493.241C526.298 492.651 525.527 492.308 524.715 492.288C523.903 492.268 523.117 492.573 522.532 493.136Z" fill="#BA987B"/>
<path d="M527.145 493.544L526.855 493.241C526.087 492.444 524.951 492.118 523.876 492.385C524.429 492.532 524.931 492.828 525.326 493.241L525.629 493.544C525.799 493.723 525.85 493.984 525.759 494.213C525.669 494.442 525.453 494.597 525.207 494.611H526.723C526.969 494.597 527.185 494.442 527.275 494.213C527.366 493.984 527.315 493.723 527.145 493.544Z" fill="#AF8D74"/>
<path d="M587.322 532.077L586.913 532.459C586.728 532.632 586.664 532.898 586.75 533.136C586.836 533.374 587.056 533.538 587.309 533.552H591.514C591.76 533.538 591.975 533.382 592.066 533.153C592.156 532.924 592.105 532.664 591.936 532.485L591.632 532.182C591.077 531.593 590.309 531.25 589.499 531.23C588.689 531.211 587.905 531.515 587.322 532.077Z" fill="#BA987B"/>
<path d="M591.936 532.485L591.632 532.182C590.874 531.378 589.737 531.049 588.667 531.326C589.219 531.473 589.721 531.769 590.117 532.182L590.42 532.485C590.59 532.664 590.64 532.924 590.55 533.153C590.459 533.382 590.244 533.538 589.998 533.552H591.514C591.76 533.538 591.975 533.382 592.066 533.153C592.156 532.924 592.105 532.664 591.936 532.485Z" fill="#AF8D74"/>
<path d="M96.4826 507.35L96.0739 507.732C95.8889 507.905 95.8247 508.171 95.9107 508.409C95.9968 508.647 96.2166 508.811 96.4694 508.826H100.675C100.921 508.811 101.136 508.656 101.226 508.427C101.317 508.198 101.266 507.937 101.096 507.759L100.806 507.456C100.249 506.865 99.4784 506.522 98.6664 506.502C97.8545 506.483 97.0683 506.788 96.4826 507.35Z" fill="#BA987B"/>
<path d="M101.057 507.758L100.767 507.455C99.9983 506.658 98.8624 506.332 97.7876 506.599C98.3432 506.749 98.8485 507.044 99.2508 507.455L99.5408 507.758C99.7106 507.937 99.7614 508.198 99.6708 508.427C99.5803 508.656 99.365 508.811 99.119 508.826H100.635C100.881 508.811 101.096 508.656 101.187 508.427C101.277 508.198 101.227 507.937 101.057 507.758Z" fill="#AF8D74"/>
<path d="M107.529 575.522L107.12 575.917C106.931 576.086 106.865 576.353 106.952 576.591C107.039 576.83 107.262 576.99 107.516 576.998H111.721C111.967 576.983 112.182 576.828 112.273 576.599C112.363 576.37 112.313 576.109 112.143 575.931L111.84 575.628C111.283 575.041 110.515 574.701 109.706 574.681C108.898 574.661 108.114 574.964 107.529 575.522Z" fill="#BA987B"/>
<path d="M112.143 575.931L111.84 575.628C111.079 574.829 109.945 574.501 108.874 574.772C109.427 574.919 109.929 575.215 110.324 575.628L110.627 575.931C110.797 576.11 110.848 576.37 110.757 576.599C110.667 576.828 110.451 576.984 110.205 576.998H111.721C111.967 576.984 112.183 576.828 112.273 576.599C112.364 576.37 112.313 576.11 112.143 575.931Z" fill="#AF8D74"/>
<path d="M697.486 247.518L690.96 253.327L443.214 251.984L440.815 247.518L462.684 240.852L629.281 237.888L697.486 247.518Z" fill="#F3CF7A"/>
<path d="M320.897 45.4251L278.819 53.619L266.599 51.4322L261.985 49.522L264.516 43.0671L264.292 40.8012L265.861 38.2851L263.712 35.0181L268.471 26.4817L286.979 14.2173L306.278 19.4471L316.652 22.7273L315.123 28.8266L319.75 32.2517V33.9115L323.243 36.5989L320.897 45.4251Z" fill="#45B7B8"/>
<path d="M318.853 75.0653L312.961 51.5376L277.685 61.4572L276.828 69.2953L286.517 84.7873L313.949 90.2279L318.853 75.0653Z" fill="#EFA08D"/>
<path d="M278.054 83.812L318.853 83.1401L331.324 95.2465L310.048 109.316L295.297 108.644L275.365 88.3831L278.054 83.812Z" fill="#706381"/>
<path d="M447.459 204.454C447.459 204.454 443.873 209.17 443.412 208.933C442.95 208.696 434.751 202.544 434.672 202.227C434.593 201.911 431.482 183.482 432.259 182.467C433.037 181.453 452.375 161.838 452.692 161.68C453.008 161.522 457.807 170.809 457.807 170.809C457.807 170.809 457.807 185.682 457.807 185.998C457.807 186.314 447.459 204.454 447.459 204.454Z" fill="#45B7B8"/>
<path d="M238.863 172.166L226.34 191.136L228.014 210.988L278.054 208.38L263.29 177.817L238.863 172.166Z" fill="#28999A"/>
<path d="M238.864 172.166L215.136 162.721L224.68 118.616L255.671 99.0143C256.792 98.2898 334.896 121.962 334.896 121.962L389.352 144.502L379.294 99.0143L395.785 126.929L407.899 147.598C407.899 147.598 403.944 178.015 403.233 177.818C402.521 177.62 340.037 182.494 340.037 182.494L238.864 172.166Z" fill="#28999A"/>
<path d="M249.739 319.221L282.549 329.523L437.308 292.532L418.603 279.727L416.349 275.117L403.997 228.983L284.658 262.602L253.219 305.732L249.739 319.221Z" fill="#171E2A"/>
<path d="M212.671 255.857L282.549 229.8L431.732 243.118L440.815 227.771L447.459 204.454L444.822 201.556L433.947 201.161L263.066 209.816L226.472 206.246L217.812 191.162L238.864 172.166L237.677 157.794L207.767 147.98L190.155 204.072L183.024 218.945L182.299 225.255L190.155 245.279L212.671 255.857Z" fill="#171E2A"/>
<path d="M431.416 574.719C600.269 574.719 737.151 564.634 737.151 552.193C737.151 539.751 600.269 529.666 431.416 529.666C262.563 529.666 125.681 539.751 125.681 552.193C125.681 564.634 262.563 574.719 431.416 574.719Z" fill="#B79272"/>
<path d="M569.157 406.706C568.199 406.706 567.28 406.325 566.603 405.649C565.925 404.972 565.545 404.054 565.545 403.096V251.984C565.464 250.645 566.133 249.371 567.281 248.677C568.43 247.983 569.87 247.983 571.019 248.677C572.168 249.371 572.836 250.645 572.755 251.984V403.096C572.759 404.052 572.381 404.97 571.706 405.648C571.031 406.325 570.113 406.706 569.157 406.706Z" fill="#B57E37"/>
<path d="M668.696 553.181H660.786L568.814 409.275L564.543 402.582L469.513 253.973C468.442 252.296 468.935 250.07 470.613 249C472.291 247.931 474.519 248.423 475.59 250.1L568.814 395.93L573.098 402.635L668.129 551.284C668.49 551.851 668.686 552.508 668.696 553.181Z" fill="#F3CF7A"/>
<path d="M668.129 253.973L573.098 402.582L568.814 409.274L476.829 553.18H468.919C468.919 552.49 469.116 551.813 469.486 551.23L564.543 402.582L568.814 395.877L662.052 250.021C663.122 248.344 665.35 247.851 667.028 248.921C668.706 249.99 669.199 252.217 668.129 253.894V253.973Z" fill="#F3CF7A"/>
<path d="M440.815 247.584H697.486V256.384H440.815V247.584Z" fill="#D39D48"/>
<path d="M697.486 247.518H440.815L464.411 232.447H673.889L697.486 247.518Z" fill="#F3CF7A"/>
<path d="M292.779 553.179H285.45L259.823 449.821L257.002 438.4L236.557 355.934V355.803L220.619 262.588C220.346 260.653 221.662 258.852 223.589 258.524C225.516 258.196 227.355 259.46 227.738 261.376L243.649 354.459L261.814 427.703L264.622 439.072L292.7 552.257C292.762 552.561 292.789 552.87 292.779 553.179Z" fill="#F3CF7A"/>
<path d="M300.029 359.821L283.775 396.246L275.932 413.806L272.716 421.012L264.595 439.164L259.823 449.861L213.686 553.22H206.119C206.12 552.711 206.228 552.208 206.436 551.744L257.029 438.453L261.814 427.769L264.846 420.985L268.049 413.792L279.201 388.829L293.464 356.91C294.328 355.181 296.401 354.439 298.167 355.226C299.932 356.013 300.765 358.05 300.055 359.847L300.029 359.821Z" fill="#F3CF7A"/>
<path d="M423.783 553.18H416.428L396.114 481.043L380.032 423.91L361.84 359.36C361.42 358.098 361.729 356.707 362.644 355.74C363.559 354.774 364.931 354.389 366.216 354.738C367.5 355.087 368.488 356.114 368.787 357.41L385.028 415.097L402.402 476.735L423.652 552.205C423.742 552.522 423.786 552.851 423.783 553.18Z" fill="#F3CF7A"/>
<path d="M385.542 417.322C385.542 419.316 383.925 420.932 381.93 420.932H264.819L268.023 413.739H381.93C383.915 413.739 385.527 415.339 385.542 417.322Z" fill="#F3CF7A"/>
<rect x="220.541" y="346.41" width="173.069" height="11.9483" rx="4.535" fill="#D39D48"/>
<path d="M321.911 63.209C321.912 67.3559 320.859 71.4352 318.853 75.0651C318.55 75.6184 318.22 76.1716 317.864 76.6986C312.805 84.4887 302.617 87.1056 294.426 82.7188H294.281L291.131 80.9931C285.698 78.0353 280.851 74.1112 276.828 69.4137C276.551 69.0975 276.275 68.7814 276.011 68.4389C275.567 67.9292 274.865 67.7279 274.218 67.9251C270.263 68.9526 265.452 60.7983 264.674 56.899C264.257 55.4271 264.523 53.8457 265.399 52.5913C265.876 52.3621 266.295 52.029 266.625 51.6164L266.401 51.0895C265.689 48.5997 266.48 38.97 320.448 36.7832L320.975 45.6094L321.951 61.918C321.898 62.2342 321.911 62.7216 321.911 63.209Z" fill="#EFA08D"/>
<path d="M320.896 45.4251L320.369 36.5989C266.493 38.7857 265.65 48.3891 266.322 50.892C266.378 51.0749 266.453 51.2515 266.546 51.419C266.065 51.6411 265.645 51.9755 265.32 52.3938C264.002 53.1052 261.3 53.5926 256.844 51.419C249.581 47.8753 255.684 43.5149 263.831 40.8803L264.213 40.7485C283.182 34.5834 305.552 31.8565 319.67 32.199C327.725 32.3834 333.09 33.5163 333.604 35.6636C334.738 39.9186 325.905 43.6598 320.896 45.4251Z" fill="#28999A"/>
<path d="M319.749 32.2518C311.075 32.1647 302.409 32.777 293.833 34.0829C283.816 35.4976 273.935 37.7448 264.292 40.8013C264.147 39.4181 263.923 37.3762 263.725 35.0182C270.806 30.59 278.48 27.1882 286.517 24.9142C296.292 22.0501 306.566 21.3045 316.652 22.7274C318.081 25.7592 319.122 28.9593 319.749 32.2518Z" fill="#F7DE1C"/>
<path d="M316.652 22.7271C306.565 21.3043 296.292 22.0498 286.517 24.9139C278.48 27.1879 270.806 30.5898 263.725 35.0179C263.132 28.4312 262.605 19.4074 263.725 15.7321C266.362 6.81368 281.297 2.203 293.24 0.846141C299.91 0.0952578 305.644 0.345552 307.833 1.43894C310.285 2.66407 305.987 7.86756 308.927 11.7142C311.141 14.6782 314.173 17.5895 316.652 22.7271Z" fill="#45B7B8"/>
<path d="M237.69 171.731C236.499 171.378 235.248 171.266 234.013 171.402L222.149 172.719C218.174 173.186 215.175 176.545 215.162 180.544V192.097C215.162 192.097 195.283 203.716 182.299 211.489C183.881 181.901 194.941 143.329 210.219 118.577C216.876 129.05 230.243 151.22 237.69 171.731Z" fill="#171E2A"/>
<path d="M397.063 154.857C393.359 157.359 390.551 159.283 388.956 160.389C388.016 161.045 386.779 161.091 385.793 160.508C381.64 158.11 377.132 155.713 372.36 153.342C332.26 133.318 274.205 114.809 259.283 110.172C258.443 109.914 257.531 110.068 256.822 110.587C256.113 111.106 255.691 111.929 255.684 112.807V115.718L254.366 115.323L252.705 114.836C251.946 114.593 251.118 114.706 250.453 115.144C249.787 115.581 249.355 116.296 249.278 117.088C246.89 135.63 243.399 154.013 238.824 172.14C238.443 171.97 238.051 171.825 237.651 171.705C230.256 151.181 216.836 129.024 210.179 118.59C216.454 108.407 223.44 100.556 230.783 96.6433C238.957 92.4406 247.642 89.3144 256.62 87.3429C263.676 85.7172 270.825 84.5294 278.028 83.7861C282.228 89.9705 288.04 94.8902 294.835 98.0133C296.23 98.6065 297.386 99.6502 298.118 100.977C299.349 103.334 300.892 105.514 302.705 107.459C303.161 107.913 303.799 108.134 304.439 108.06C305.078 107.986 305.648 107.623 305.987 107.077C307.314 104.926 308.359 102.615 309.098 100.2C309.568 98.6125 310.611 97.2557 312.025 96.393C316.813 93.8032 319.516 88.5379 318.827 83.1406L318.919 83.0747C344.506 84.7346 367.166 90.2015 377.422 97.5654C378.068 98.0323 378.688 98.5336 379.281 99.0672C382.719 106.534 385.772 114.171 388.429 121.949C392.056 132.708 394.941 143.703 397.063 154.857Z" fill="#706381"/>
<path d="M318.853 83.1402V75.0649C318.55 75.6182 318.22 76.1715 317.864 76.6984C312.806 84.4885 302.617 87.1055 294.427 82.7187C288.943 82.9031 283.472 83.2851 278.067 83.8516C279.025 85.3077 280.097 86.6863 281.271 87.9749C285.029 92.2444 289.652 95.6662 294.835 98.013C296.23 98.6062 297.386 99.6498 298.118 100.977C299.348 103.334 300.891 105.514 302.705 107.458C303.161 107.913 303.799 108.134 304.438 108.06C305.078 107.985 305.648 107.623 305.987 107.076C307.314 104.926 308.359 102.615 309.098 100.2C309.568 98.6121 310.611 97.2554 312.025 96.3927C316.823 93.8106 319.537 88.5436 318.853 83.1402Z" fill="#ED8B7B"/>
<path d="M407.912 147.598C403.786 150.325 400.121 152.788 397.063 154.856C393.385 135.603 387.425 116.857 379.307 99.0142C388.534 107.248 399.37 128.444 407.912 147.598Z" fill="#2C3848"/>
<path d="M228.014 210.988C222.359 229.26 216.77 244.936 212.67 255.857C205.292 257.415 197.603 255.604 191.697 250.917C190.464 249.954 189.38 248.813 188.481 247.531C184.869 242.473 182.892 234.635 182.299 225.071C182.035 220.561 182.035 216.039 182.299 211.529C191.632 205.943 204.524 198.355 211.049 194.548L211.458 194.311L214.806 192.335L215.03 192.216C215.03 192.216 215.109 192.216 215.135 192.216C215.162 192.216 214.542 202.755 222.425 208.459C224.124 209.626 226.016 210.483 228.014 210.988Z" fill="#2C3848"/>
<path d="M467.944 114.335C466.507 117.168 464.688 121.028 462.842 125.757C461.077 130.326 459.558 134.988 458.294 139.721C440.789 144.542 424.021 150.404 411.3 155.278C406.212 157.202 401.743 158.993 398.118 160.548C393.609 162.392 390.34 163.788 388.692 164.5C387.912 164.848 387.021 164.848 386.241 164.5C340.406 142.276 275.51 121.871 255.737 115.837V112.926C255.744 112.048 256.166 111.225 256.874 110.706C257.583 110.187 258.496 110.033 259.336 110.291C276.037 115.468 346.707 138.034 385.885 160.627C386.871 161.21 388.108 161.164 389.048 160.508C390.643 159.402 393.451 157.478 397.155 154.975C400.214 152.907 403.878 150.444 408.004 147.717C423.533 137.442 445.534 123.346 465.597 112.149C466.235 111.888 466.967 112.022 467.471 112.491C467.975 112.961 468.16 113.681 467.944 114.335Z" fill="#28999A"/>
<path d="M485.595 137.006C479.148 142.552 468.352 153.381 457.806 170.835C456.645 170.797 455.492 171.056 454.458 171.586L448.632 174.55C444.112 176.833 440.718 180.857 439.233 185.695L438.56 187.829C437.628 190.853 439.121 194.094 442.027 195.351L444.914 196.603C443.952 198.974 443.003 201.411 442.093 203.94C440.775 207.589 439.457 211.396 438.284 215.361C435.535 224.474 433.334 233.743 431.693 243.118C430.612 249.265 429.733 255.676 429.056 262.351C428.829 264.622 427.663 266.694 425.84 268.068C423.691 269.689 420.435 272.126 416.335 275.116C411.062 278.936 404.471 283.639 396.971 288.658C382.101 298.657 364.015 309.854 347.168 317.64C346.258 318.056 345.28 318.301 344.281 318.364C343.173 318.428 342.064 318.257 341.025 317.864L338.863 317.034C329.135 313.358 307.081 305.178 282.602 296.483C271.305 292.531 259.48 288.434 248.091 284.706C234.553 280.267 221.661 276.302 211.023 273.509C209.835 273.196 208.839 272.39 208.284 271.295C207.73 270.2 207.671 268.92 208.122 267.778C209.243 264.973 210.825 260.915 212.723 255.843C215.649 248.032 219.314 237.796 223.269 225.9C224.837 221.171 226.446 216.178 228.054 210.975C229.293 206.957 230.545 202.794 231.784 198.552C232.865 198.552 233.946 198.407 235.027 198.289L241.21 197.564C244.584 197.182 247.318 194.652 247.959 191.32L248.671 187.697C249.319 184.313 248.271 180.825 245.863 178.357L241.658 174.089C240.866 173.28 239.932 172.624 238.903 172.153C243.478 154.026 246.968 135.643 249.356 117.101C249.434 116.309 249.866 115.594 250.532 115.157C251.197 114.719 252.025 114.606 252.784 114.848L255.723 115.731C275.497 121.765 340.406 142.17 386.227 164.394C387.007 164.742 387.899 164.742 388.679 164.394C390.327 163.669 393.596 162.273 398.104 160.442C401.756 158.953 406.225 157.161 411.286 155.172C424.073 150.298 440.775 144.436 458.281 139.614C466.784 137.283 475.418 135.188 483.986 133.581C484.897 133.3 485.876 133.732 486.281 134.595C486.686 135.457 486.393 136.486 485.595 137.006Z" fill="#45B7B8"/>
<path d="M248.698 187.711L247.986 191.334C247.344 194.666 244.611 197.195 241.236 197.578L235.054 198.302C233.973 198.421 232.892 198.513 231.811 198.566C230.572 202.808 229.32 206.971 228.081 210.988C226.059 210.46 224.152 209.568 222.452 208.354C214.648 202.702 215.228 192.164 215.228 192.164V180.611C215.241 176.612 218.24 173.252 222.215 172.786L234.079 171.468C235.314 171.332 236.565 171.444 237.756 171.798C238.156 171.919 238.547 172.064 238.93 172.232C239.959 172.703 240.893 173.36 241.685 174.169L245.89 178.437C246.215 178.777 246.523 179.133 246.813 179.504C248.565 181.854 249.249 184.832 248.698 187.711Z" fill="#ED8B7B"/>
<path d="M282.549 296.496C264.674 303.241 254.788 312.726 249.739 319.22C247.611 307.85 247.039 296.244 248.038 284.719C259.428 288.447 271.252 292.518 282.549 296.496Z" fill="#706381"/>
<path d="M437.308 292.532C427.079 291.306 412.895 289.791 396.971 288.659C404.432 283.639 411.076 278.937 416.335 275.116C422.281 279.766 429.518 285.76 437.308 292.532Z" fill="#706381"/>
<path d="M441.395 448.175C421.938 463.694 395.837 481.451 376.024 494.467L370.461 468.489L366.164 448.452L368.985 443.473L375.471 431.998L410.601 369.794C394.581 363.263 379.032 355.631 364.068 346.951C363.712 347.425 363.369 347.886 363.04 348.347L357.279 356.159L348.882 367.594L366.19 448.452L351.993 473.587L345.402 485.153C322.992 454.854 285.238 402.161 266.441 366.672C258.449 351.821 252.806 335.824 249.712 319.247C254.128 313.57 262.249 305.587 276.182 299.171C278.168 298.293 280.282 297.415 282.523 296.536C309.085 305.89 332.773 314.808 340.986 317.93C342.024 318.323 343.134 318.494 344.242 318.431C345.241 318.368 346.219 318.122 347.129 317.706C363.949 309.894 382.062 298.697 396.931 288.725C412.855 289.858 427.039 291.359 437.269 292.598C463.435 315.361 481.759 335.358 490.696 354.816C504.432 384.574 477.277 419.563 441.395 448.175Z" fill="#2C3848"/>
<path d="M377.474 501.251L363.29 508.958C363.29 508.958 362.143 507.482 360.1 504.782C364.595 501.91 370.013 498.406 376.024 494.467L377.474 501.251Z" fill="#171E2A"/>
<path d="M387.321 525.042L365.9 549.835C364.6 551.383 362.427 551.877 360.585 551.042C358.743 550.208 357.682 548.249 357.991 546.251L363.264 508.957L377.448 501.251L387.229 512.343C390.433 515.958 390.472 521.381 387.321 525.042Z" fill="#0C1016"/>
<path d="M376.024 494.467C370.013 498.419 364.595 501.91 360.1 504.782C352.085 509.919 347.036 513.054 347.036 513.054L336.662 500.711L345.428 485.18L352.019 473.613L366.217 448.479L370.514 468.515L376.024 494.467Z" fill="#2C3848"/>
<path d="M347.037 513.054L338.336 549.702C337.881 551.655 336.189 553.072 334.186 553.179C332.182 553.286 330.349 552.056 329.689 550.163L318.787 519.272C317.179 514.722 319.184 509.685 323.48 507.482L336.662 500.71L347.037 513.054Z" fill="#171E2A"/>
<path d="M463.963 176.461C463.962 176.942 463.896 177.42 463.765 177.883L460.074 190.965C459.795 191.96 459.42 192.926 458.954 193.85C457.716 196.361 455.866 198.522 453.575 200.133L447.459 204.441L442.094 203.927C443.003 201.398 443.952 198.961 444.915 196.59L442.028 195.338C439.122 194.081 437.628 190.84 438.561 187.816L439.233 185.682C440.146 182.682 441.806 179.962 444.058 177.778C445.407 176.472 446.944 175.375 448.619 174.524L454.445 171.56C456.977 170.273 460.038 170.66 462.17 172.535C463.31 173.522 463.964 174.954 463.963 176.461Z" fill="#ED8B7B"/>
<path d="M431.732 243.118C434.019 229.77 437.487 216.65 442.094 203.914L447.459 204.428C447.459 204.428 459.072 224.82 431.732 243.118Z" fill="#2C3848"/>
<path d="M348.882 367.594L366.19 448.452L351.993 473.587C352.336 472.678 362.539 443.881 342.159 417.363C325.721 395.982 325.391 373.891 326.828 350.561C327.713 337.068 321.773 324.029 311.01 315.835C300.693 307.912 288.836 302.227 276.195 299.145C278.181 298.267 280.295 297.388 282.536 296.51C309.098 305.863 332.787 314.782 340.999 317.904C342.037 318.297 343.147 318.468 344.255 318.404C345.254 318.341 346.232 318.096 347.142 317.68C363.962 309.868 382.075 298.671 396.944 288.698C396.944 288.698 395.442 304.928 363.989 346.991C363.633 347.465 363.29 347.926 362.961 348.387L348.882 367.594Z" fill="#171E2A"/>
<path d="M375.471 431.998L410.601 369.793C394.581 363.263 379.032 355.63 364.068 346.95C363.712 347.425 363.369 347.886 363.04 348.347L357.279 356.159L356.343 346.397L396.971 288.658C396.971 288.658 390.063 330.154 421.846 348.241C452.732 365.802 401.782 387.327 368.985 443.472L375.471 431.998Z" fill="#171E2A"/>
<path d="M317.864 76.6989C312.805 84.489 302.617 87.1059 294.426 82.7192H294.281L291.131 80.9935C285.698 78.0357 280.851 74.1115 276.828 69.4141L278.067 83.9048C279.025 85.3609 280.096 86.7395 281.271 88.028C281.89 88.3047 293.939 93.6926 305.961 91.4268C310.725 90.5791 314.76 87.426 316.731 83.009C317.914 80.527 318.624 77.8467 318.827 75.105C318.563 75.6187 318.22 76.1325 317.864 76.6989Z" fill="#E06855"/>
<path d="M318.853 75.0651C318.55 75.6184 318.22 76.1716 317.864 76.6986C312.805 84.4887 302.617 87.1056 294.426 82.7188H294.281L291.131 80.9931C285.698 78.0353 280.851 74.1112 276.828 69.4137C276.551 69.0975 276.275 68.7814 276.011 68.4389C275.567 67.9292 274.865 67.7279 274.218 67.9251C270.263 68.9526 265.452 60.7983 264.674 56.899C264.257 55.4271 264.523 53.8457 265.399 52.5913C265.876 52.3621 266.295 52.029 266.625 51.6164L266.401 51.0895C265.689 48.5997 266.48 38.97 320.448 36.7832L320.975 45.6094C320.975 45.6094 300.886 39.3257 284.21 47.2692C267.535 55.2128 292.12 64.9084 293.293 73.2208C294.466 81.5332 312.341 83.5619 318.853 75.0651Z" fill="#ED8B7B"/>
<path d="M286.517 24.914C278.48 27.1879 270.806 30.5898 263.725 35.018C263.132 28.4313 262.605 19.4075 263.725 15.7321C266.361 6.81374 281.297 2.20305 293.24 0.846191C293.24 0.846191 281.376 4.9036 279.32 15.9561C278.252 21.5943 282.378 23.1751 286.517 24.914Z" fill="#28999A"/>
<path d="M293.833 34.0823C283.816 35.497 273.935 37.7443 264.292 40.8007C264.147 39.4175 263.923 37.3756 263.725 35.0176C270.806 30.5894 278.48 27.1875 286.517 24.9136C290.485 26.5734 294.466 28.3914 293.833 34.0823Z" fill="#F2CD0D"/>
<path d="M254.406 115.349L252.745 114.862C251.986 114.619 251.158 114.733 250.492 115.17C249.827 115.608 249.395 116.322 249.317 117.115C246.929 135.656 243.439 154.039 238.864 172.166C238.482 171.996 238.091 171.851 237.69 171.732C230.295 151.207 216.876 129.05 210.219 118.616C216.493 108.433 223.48 100.582 230.823 96.6696C238.997 92.4669 247.681 89.3407 256.66 87.3691C253.051 96.2434 252.264 106.013 254.406 115.349Z" fill="#4B405C"/>
<path d="M228.014 210.988C222.359 229.26 216.77 244.936 212.67 255.857C205.292 257.415 197.603 255.604 191.697 250.917C190.464 249.954 189.38 248.813 188.481 247.531C203.205 257.662 222.451 208.38 222.451 208.38C224.136 209.572 226.02 210.455 228.014 210.988Z" fill="#171E2A"/>
<path d="M211.049 194.548C202.876 199.593 185.185 211.858 182.299 225.071C182.035 220.56 182.035 216.039 182.299 211.528C191.632 205.943 204.524 198.368 211.049 194.548V194.548Z" fill="#171E2A"/>
<path d="M397.063 154.856C393.359 157.359 390.551 159.283 388.956 160.389C388.016 161.045 386.779 161.091 385.793 160.508C381.64 158.11 377.132 155.713 372.36 153.341C389.365 141.999 388.429 122.476 388.429 121.962C392.055 132.717 394.94 143.708 397.063 154.856Z" fill="#4B405C"/>
<path d="M248.697 187.711L247.986 191.334C247.344 194.666 244.61 197.195 241.236 197.578L235.054 198.302C233.973 198.421 232.892 198.513 231.811 198.566C230.572 202.808 229.32 206.971 228.08 210.988C226.059 210.46 224.152 209.568 222.452 208.354C223.207 205.018 223.762 201.639 224.113 198.237C224.521 193.441 231.508 191.162 239.813 189.621C247.867 188.119 246.878 179.978 246.812 179.491C248.569 181.844 249.253 184.828 248.697 187.711Z" fill="#E06855"/>
<path d="M458.954 193.85C457.716 196.361 455.866 198.522 453.575 200.134L447.459 204.441L442.094 203.928C443.003 201.398 443.952 198.961 444.915 196.59L442.028 195.338C439.122 194.081 437.628 190.84 438.561 187.816L439.233 185.682C440.146 182.682 441.806 179.962 444.058 177.778C443.913 178.174 440.209 187.685 444.058 190.333C447.907 192.98 459.481 186.789 458.954 193.85Z" fill="#E06855"/>
<path d="M386.201 164.394L351.387 292.334L344.281 318.391L338.864 317.073C329.135 313.398 307.081 305.217 282.602 296.523C271.305 292.571 259.48 288.474 248.091 284.746C234.553 280.306 221.661 276.341 211.023 273.548C209.835 273.235 208.839 272.429 208.284 271.334C207.73 270.239 207.671 268.959 208.122 267.818C209.243 265.012 210.825 260.955 212.723 255.883C215.649 248.071 219.314 237.835 223.269 225.94C224.837 221.211 226.446 216.218 228.054 211.014C229.293 206.996 230.545 202.834 231.784 198.592C232.865 198.592 233.946 198.447 235.027 198.328L241.21 197.604C244.584 197.221 247.318 194.692 247.959 191.36L248.671 187.737C249.319 184.352 248.271 180.864 245.863 178.397L241.658 174.129C240.866 173.32 239.932 172.663 238.903 172.192C243.478 154.065 246.968 135.682 249.356 117.141C249.434 116.348 249.866 115.634 250.532 115.196C251.197 114.759 252.025 114.645 252.784 114.888L255.723 115.771C275.51 121.778 340.366 142.183 386.201 164.394Z" fill="#28999A"/>
<path d="M240.986 205.812C232.628 210.91 228.015 210.989 228.015 210.989C229.254 206.971 230.506 202.808 231.745 198.566C232.826 198.566 233.907 198.421 234.988 198.303L241.17 197.578C244.545 197.196 247.278 194.666 247.92 191.334C247.92 191.334 249.343 200.727 240.986 205.812Z" fill="#23827F"/>
<path d="M462.842 125.796C461.078 130.353 459.56 135.001 458.295 139.721C440.789 144.542 424.021 150.404 411.3 155.278C406.212 157.202 401.743 158.993 398.118 160.548C393.609 162.392 390.34 163.788 388.693 164.5C387.912 164.848 387.021 164.848 386.241 164.5C340.406 142.276 275.51 121.871 255.737 115.837V112.926C255.744 112.048 256.166 111.225 256.874 110.706C257.583 110.187 258.496 110.033 259.336 110.291C276.037 115.468 346.707 138.034 385.885 160.627C386.871 161.21 388.108 161.164 389.048 160.508L462.842 125.796Z" fill="#23827F"/>
<path d="M613.844 247.518H440.815L464.411 232.447H620.673C620.673 232.447 525.01 236.044 545.258 238.652C565.505 241.26 644.836 237.137 613.844 247.518Z" fill="#EBB44E"/>
<path d="M438.284 215.362C435.535 224.474 433.334 233.743 431.693 243.118C430.612 249.266 429.733 255.677 429.056 262.351C428.829 264.622 427.663 266.694 425.84 268.068C423.691 269.689 420.435 272.126 416.336 275.116C411.063 278.937 404.472 283.639 396.971 288.658C382.101 298.657 364.015 309.854 347.169 317.64C346.259 318.056 345.28 318.302 344.282 318.365L351.387 292.308C355.118 305.138 361.049 308.919 374.495 294.942C399.911 268.635 406.66 193.731 438.284 215.362Z" fill="#28999A"/>
<path d="M351.387 292.333L344.281 318.39C343.173 318.454 342.064 318.283 341.025 317.89L338.864 317.06C329.135 313.384 307.081 305.204 282.602 296.509C271.305 292.557 259.48 288.46 248.091 284.732C234.553 280.293 221.661 276.328 211.023 273.535C209.835 273.222 208.839 272.416 208.284 271.321C207.73 270.226 207.671 268.946 208.122 267.804C209.243 264.999 210.825 260.941 212.723 255.869C215.649 248.058 219.314 237.822 223.269 225.926C223.269 225.926 218.708 262.324 244.598 259.255C270.487 256.186 335.225 200.91 342.897 242.683C346.47 262.338 348.052 280.912 351.387 292.333Z" fill="#23827F"/>
<path d="M344.281 519.904C341.194 519.853 338.175 518.99 335.528 517.401C335.023 517.098 334.854 516.446 335.149 515.935C335.444 515.425 336.094 515.245 336.609 515.531C342.291 518.785 346.536 517.507 346.707 517.441C347.265 517.293 347.843 517.605 348.025 518.152C348.19 518.704 347.887 519.287 347.34 519.47C346.346 519.76 345.316 519.907 344.281 519.904Z" fill="#45B7B8"/>
<path d="M343.267 526.517C340.184 526.465 337.169 525.602 334.527 524.014C334.158 523.842 333.918 523.477 333.905 523.071C333.892 522.664 334.109 522.285 334.465 522.089C334.822 521.894 335.258 521.915 335.594 522.144C341.289 525.397 345.521 524.12 345.705 524.067C346.078 523.928 346.498 524.005 346.797 524.268C347.096 524.531 347.227 524.937 347.136 525.324C347.046 525.712 346.749 526.019 346.364 526.122C345.356 526.403 344.313 526.536 343.267 526.517Z" fill="#45B7B8"/>
<path d="M341.962 532.617C338.879 532.563 335.865 531.7 333.222 530.114C332.716 529.81 332.547 529.158 332.842 528.648C333.137 528.137 333.787 527.957 334.303 528.243C339.984 531.497 344.216 530.219 344.4 530.166C344.968 529.981 345.579 530.291 345.765 530.858C345.95 531.426 345.64 532.036 345.073 532.222C344.06 532.501 343.012 532.634 341.962 532.617Z" fill="#45B7B8"/>
<path d="M362.064 518.758C364.987 519.75 368.12 519.955 371.147 519.351C371.737 519.246 372.129 518.682 372.024 518.093C371.918 517.504 371.354 517.111 370.765 517.217C364.319 518.376 360.746 515.742 360.601 515.636C360.374 515.461 360.087 515.384 359.802 515.421C359.518 515.458 359.26 515.607 359.085 515.834C358.729 516.309 358.816 516.981 359.283 517.349C360.135 517.954 361.073 518.429 362.064 518.758Z" fill="#45B7B8"/>
<path d="M360.746 525.345C363.67 526.33 366.801 526.534 369.829 525.938C370.418 525.832 370.811 525.269 370.705 524.68C370.6 524.09 370.036 523.698 369.446 523.804C363 524.963 359.428 522.328 359.283 522.21C358.808 521.853 358.135 521.941 357.767 522.407C357.41 522.882 357.498 523.555 357.965 523.922C358.817 524.529 359.754 525.009 360.746 525.345Z" fill="#45B7B8"/>
<path d="M359.916 531.484C362.838 532.476 365.971 532.68 368.998 532.077C369.588 531.971 369.98 531.408 369.875 530.819C369.769 530.229 369.205 529.837 368.616 529.943C362.17 531.102 358.61 528.467 358.452 528.362C358.225 528.187 357.938 528.11 357.653 528.147C357.369 528.184 357.111 528.332 356.936 528.559C356.58 529.034 356.668 529.707 357.134 530.074C357.989 530.674 358.926 531.149 359.916 531.484Z" fill="#45B7B8"/>
<path d="M18.8658 491.252C23.5982 507.864 26.7751 525.055 30.2816 542.115C27.1442 536.556 24.2309 530.847 21.5418 524.989C18.9932 519.483 16.6468 513.875 14.5025 508.167C14.3047 507.666 14.1202 507.166 13.9488 506.652C12.947 504.017 12.011 501.277 11.1147 498.55C9.98098 495.112 8.91322 491.621 7.93774 488.104C7.19953 485.469 6.50967 482.834 5.86813 480.2C5.76267 479.765 5.65722 479.343 5.56494 478.882C7.01656 478.467 8.55572 478.467 10.0073 478.882C15.0957 480.384 17.4157 486.154 18.8658 491.252Z" fill="#A37A5F"/>
<path d="M62.9074 559.596C62.3645 569.083 62.5143 578.598 63.3556 588.063C60.7191 585.174 58.153 582.219 55.6572 579.198C54.7608 578.118 53.8776 577.037 53.0207 575.944C50.9116 573.309 48.8683 570.648 46.891 567.961C45.854 559.293 45.085 550.607 44.5841 541.904C44.0964 533.789 43.9382 525.345 47.1283 517.876C47.7793 515.915 49.0999 514.245 50.8588 513.16C53.4975 512.068 56.5362 512.712 58.5045 514.78C60.3867 516.847 61.6796 519.381 62.2483 522.117C65.4647 534.184 63.6192 547.002 62.9074 559.596Z" fill="#A37A5F"/>
<path d="M55.6573 579.145C54.761 578.065 53.8777 576.985 53.0209 575.892C51.3264 559.509 50.6396 543.037 50.9645 526.57C50.9645 525.095 53.2845 524.976 53.2582 526.452C52.9087 544.05 53.7101 561.652 55.6573 579.145Z" fill="#8E6149"/>
<path d="M389.286 604.175C359.481 610.287 329.412 615.662 300.108 623.935C269.789 632.471 238.837 643.247 213.949 663.126C217.008 660.689 223.73 659.819 227.474 658.752C248.723 652.677 270.778 649.891 292.871 650.493C297.933 650.637 321.872 651.072 331.205 657.145C322.601 658.594 314.046 660.324 305.539 662.335L304.537 662.559C302.34 663.086 300.143 663.574 297.946 664.022C266.019 670.609 233.114 670.913 201.07 664.917C199.317 664.588 197.577 664.259 195.797 663.877C199.559 655.261 203.584 646.764 207.872 638.386C221.89 610.882 238.977 585.051 258.808 561.388C277.474 539.256 300.108 518.456 328.278 511.724C331.274 510.858 334.417 510.629 337.506 511.052C342.779 512.08 347.024 516.545 348.711 521.657C351.15 529.06 348.83 537.373 344.4 543.775C339.971 550.177 333.657 555.012 327.369 559.583C304.168 576.537 279.663 591.739 257.622 610.195C238.587 626.109 221.595 644.288 204.643 662.401C238.42 627.721 279.999 601.606 325.919 586.233C338.561 582.004 351.532 578.618 364.806 577.472C372.716 576.787 381.047 576.972 387.967 580.845C392.621 583.479 397.037 588.551 398.17 593.873C399.528 600.21 394.717 603.068 389.286 604.175Z" fill="#A37A5F"/>
<path d="M333.617 525.451C294.823 550.005 260.498 580.984 232.114 617.058C231.205 618.218 232.879 619.785 233.802 618.626C262.066 582.693 296.254 551.838 334.896 527.387C335.242 527.166 335.444 526.777 335.425 526.367C335.407 525.957 335.171 525.587 334.806 525.398C334.441 525.21 334.003 525.229 333.657 525.451H333.617Z" fill="#8E6149"/>
<path d="M371.477 593.227C330.869 597.465 291.32 608.79 254.63 626.688C253.311 627.333 254.537 629.322 255.856 628.624C292.201 610.91 331.375 599.705 371.595 595.519C373.059 595.375 372.914 593.082 371.477 593.227Z" fill="#8E6149"/>
<path d="M305.513 662.348L304.511 662.572C302.314 663.099 300.117 663.586 297.92 664.034C282.914 663.033 267.857 663.033 252.85 664.034C252.217 664.063 251.68 663.574 251.651 662.941C251.622 662.308 252.111 661.771 252.745 661.742C270.323 660.578 287.966 660.781 305.513 662.348Z" fill="#8E6149"/>
<path d="M214.121 595.823C196.068 600.287 177.63 603.022 159.059 603.99C176.103 608.799 193.978 613.067 211.616 617.085C210.575 624.119 209.309 631.233 207.74 638.426C205.877 647.164 203.597 656.008 200.899 664.957C199.146 664.628 197.406 664.298 195.626 663.916C177.308 660.069 159.489 654.147 142.515 646.264L140.34 645.236C116.437 633.867 94.5095 618.745 75.3911 600.447C75.6548 598.682 75.9448 596.89 76.248 595.072C95.6522 593.913 114.964 590.527 132.813 582.702C115.241 579.923 99.4354 569.279 82.2327 564.879C85.4887 550.717 89.5488 536.003 94.5844 520.932C114.358 518.298 133.643 514.648 154.049 512.896C136.135 509.919 121.595 498.643 105.275 492.293C107.2 487.643 109.23 482.98 111.326 478.29C113.294 473.96 115.346 469.626 117.482 465.288C118.391 463.444 119.327 461.626 120.263 459.795C133.024 461.323 145.876 462.864 158.492 461.823C152.692 458.807 146.746 455.869 140.735 452.958C136.319 450.81 131.877 448.65 127.448 446.463C127.817 445.791 128.199 445.146 128.581 444.461C138.034 427.807 148.682 411.861 160.443 396.747C162.354 394.257 164.397 391.767 166.361 389.304C166.361 389.304 168.55 392.637 172.017 398.907C173.796 402.135 175.905 406.139 178.239 410.869C171.331 419.813 164.094 428.679 156.87 437.558C166.836 435.081 176.472 431.274 186.438 428.811C189.457 435.951 192.568 443.947 195.56 452.734L195.639 452.971C198.935 462.574 202.085 473.1 204.867 484.442C193.095 485.641 181.336 486.774 169.815 486.866C180.862 493.453 193.965 494.401 205.697 499.749C206.686 500.184 207.661 500.658 208.61 501.172C211.305 514.815 213.185 528.605 214.239 542.471C198.908 546.001 182.813 547.292 166.783 550.889C182.048 559.346 199.462 564.668 215.241 572.216C215.144 579.918 214.771 587.787 214.121 595.823Z" fill="#A37A5F"/>
<path d="M161.458 518.126L159.836 529.1C159.718 529.982 159.586 530.852 159.441 531.734C156.857 549.299 154.269 566.903 151.677 584.547C151.571 585.337 151.452 586.114 151.334 586.905C148.697 605.207 146.004 623.505 143.253 641.798C143.148 642.575 143.029 643.353 142.924 644.13L142.607 646.238L140.432 645.21L143.714 622.907C143.846 622.13 143.952 621.406 144.057 620.642C147.168 599.564 150.266 578.487 153.351 557.409C153.456 556.645 153.588 555.894 153.693 555.13C155.521 542.616 157.358 530.105 159.204 517.599C159.428 516.124 161.695 516.664 161.458 518.126Z" fill="#8E6149"/>
<path d="M142.066 644.249C150.107 643.363 158.073 641.893 165.9 639.849C167.323 639.467 166.625 637.28 165.201 637.662C157.555 639.652 149.775 641.087 141.921 641.956C140.471 642.115 140.603 644.42 142.04 644.249H142.066Z" fill="#8E6149"/>
<path d="M144.558 620.747C132.088 617.375 119.481 614.621 106.738 612.487C105.288 612.237 104.774 614.463 106.237 614.701C118.98 616.835 131.587 619.588 144.057 622.96C145.481 623.342 145.982 621.129 144.558 620.747Z" fill="#8E6149"/>
<path d="M150.503 587.023L193.464 580.344C194.901 580.12 194.782 577.828 193.345 578.052L150.384 584.731C148.948 584.955 149.066 587.247 150.503 587.023Z" fill="#8E6149"/>
<path d="M154.669 555.42C142.418 551.819 130.071 548.64 117.627 545.882C117.226 545.793 116.809 545.924 116.531 546.225C116.253 546.527 116.158 546.954 116.281 547.345C116.403 547.736 116.725 548.032 117.126 548.122C129.587 550.888 141.935 554.067 154.168 557.659C155.591 558.081 156.079 555.841 154.669 555.42Z" fill="#8E6149"/>
<path d="M159.441 531.721C171.181 526.978 183.107 522.772 195.217 519.101C195.767 518.867 196.05 518.253 195.869 517.683C195.688 517.114 195.103 516.775 194.518 516.901C182.408 520.572 170.483 524.783 158.742 529.534C157.424 530.087 158.07 532.274 159.441 531.721Z" fill="#8E6149"/>
</svg>
