<svg width="180" height="308" viewBox="0 0 180 308" fill="none" xmlns="http://www.w3.org/2000/svg">
<path d="M20.6795 277.882L24.592 281.387V281.46L47.634 251.713C52.6793 243.198 57.2067 234.386 61.1914 225.325C59.0987 221.944 48.897 213.544 45.4867 215.222C39.2667 220.157 36.3514 229.227 32.9011 245.129C28.4499 265.641 20.6795 277.882 20.6795 277.882Z" fill="#361446"/>
<path d="M109.896 103.548L174.891 81.3947C177.479 80.512 179.575 76.6824 179.575 72.8419V5.73279C179.575 1.89226 177.479 -0.507622 174.891 0.375008L109.896 22.5392C107.312 23.4219 105.212 27.2478 105.212 31.092V98.2011C105.212 102.027 107.312 104.427 109.896 103.548Z" fill="#EBF0C2"/>
<path d="M146.852 62.4398L145.895 63.2787L147.518 67.3855L148.115 67.5642L148.952 66.7363L147.343 62.4398L146.852 62.4398Z" fill="#C3D8B7"/>
<path d="M105.215 70.3215L112.003 72.8637L105.215 89.8196L102.416 90.2208L99.0862 77.5066L105.215 70.3215Z" fill="#9BBFAB"/>
<path d="M73.1767 68.2109L65.5664 77.4567L80.2738 96.7906L86.5666 96.4843L89.1943 81.1987L73.1767 68.2109Z" fill="#9BBFAB"/>
<path d="M15.4678 139.573C22.8415 141.907 28.5265 141.192 32.9049 138.818C46.0073 128.77 45.9345 124.838 43.9292 118.437C38.397 100.792 50.2984 103.651 54.9061 96.4845C58.7203 90.5395 43.3505 87.753 50.5859 83.0079C51.6778 82.2785 51.1755 79.3279 52.2819 78.7224C55.3283 77.0629 55.816 69.9691 54.9061 66.6319C54.9061 66.6136 55.3974 64.1663 55.3938 64.1481C54.735 61.719 55.1681 61.544 55.3938 60.6723C55.5503 60.0741 53.443 59.1623 53.0026 58.7283C51.5468 57.2986 49.6906 57.0688 51.3138 56.3248C52.7369 55.6756 53.7669 56.2117 54.5421 56.8719C54.9607 57.2366 58.4692 56.0184 58.5238 55.475C58.9169 51.401 60.0852 52.4186 63.9213 51.5907C65.2824 51.2989 66.4107 47.5787 66.8911 46.1964C67.7974 45.4451 68.4307 44.3181 68.4307 42.5492C68.4307 38.9019 64.6783 34.5581 57.0425 33.3436H56.9187C55.9268 33.1883 54.9266 33.0909 53.9234 33.0518C38.8665 32.439 35.176 50.5585 25.3055 58.3271C15.435 66.0957 12.2031 69.5934 13.4005 80.7065C14.5979 91.8197 17.5787 98.7166 10.7 105.84C1.09518 115.778 -8.53873 131.957 15.4678 139.573Z" fill="#693C87"/>
<path d="M23.478 110.278C23.973 114.706 25.1049 119.827 26.9865 125.834C28.9919 132.234 30.3968 136.341 32.9044 138.818C34.029 139.913 35.4032 140.717 36.9079 141.159C37.3192 152.973 50.9348 147.812 50.9348 147.812L80.2915 143.461L86.042 109.943C86.6152 108.305 87.0535 106.623 87.3522 104.913C87.8344 102.082 87.5581 99.1733 86.5515 96.4843C85.9819 94.9388 85.1938 93.4833 84.2113 92.1623C80.397 87.0306 74.49 77.774 73.1616 68.2109C69.9803 68.2553 66.8061 68.5234 63.6623 69.0133C63.7533 69.1847 66.6104 74.6556 60.7507 77.9272C54.7818 81.2498 46.4654 78.6347 45.359 75.706C45.0351 75.9066 44.7112 76.1145 44.3909 76.326C31.3977 84.846 21.3197 90.9077 23.478 110.278Z" fill="#9BBFAB"/>
<path d="M67.1206 176.473C68.3981 188.899 65.0679 201.373 71.7319 212.314C74.5502 204.27 76.3203 195.895 76.9983 187.396L80.707 140.632L65.6939 140.938L67.1206 176.473Z" fill="#361446"/>
<path d="M46.5565 75.5801C46.9495 76.6743 52.9876 78.4213 54.9056 77.5715C57.8464 76.2694 60.5287 71.5317 60.0701 69.7008L60.1684 68.6066L60.5324 64.5946L61.9081 64.8025C62.9216 64.9559 63.9528 64.676 64.7505 64.0312C65.5483 63.3864 66.0395 62.4357 66.1045 61.4106L66.2719 58.7992C66.3368 57.8072 66.7721 56.8762 67.4912 56.1914C67.7613 55.9355 67.9532 55.6079 68.0444 55.2468C68.1927 54.6857 68.076 54.0875 67.7278 53.6238C66.3848 51.8476 66.8652 48.7146 66.887 46.198C65.9529 46.8879 64.8756 47.3579 63.7352 47.573C63.3712 47.6605 63.0073 47.7335 62.6833 47.8064C58.8472 48.6344 54.851 50.013 54.4579 54.087C54.4348 54.3341 54.2774 54.5483 54.0487 54.6438C53.8201 54.7393 53.5575 54.7005 53.3661 54.5429C52.4688 53.6903 51.1396 53.4814 50.025 54.0177C48.4017 54.7471 49.0532 57.8254 50.5054 59.2551C50.955 59.678 51.1439 60.31 51.0004 60.9109C50.7747 61.7826 50.6801 63.2889 51.3388 65.718C51.8484 67.5854 48.1033 72.0168 47.601 74.4057C47.1849 74.7307 46.831 75.1286 46.5565 75.5801Z" fill="#EFA08D"/>
<path d="M39.7323 203.806C41.3919 207.453 43.299 211.25 45.4864 215.24C47.214 218.401 49.1211 221.669 51.2078 225.044C51.2078 225.044 43.4664 231.342 47.6519 251.741C47.692 251.935 47.732 252.128 47.7757 252.325C52.2596 273.289 52.3288 289.786 51.175 296.074L56.2304 297.777L65.6022 260.426C69.0901 244.607 71.1414 228.504 71.7312 212.315C72.1872 199.855 71.7761 187.378 70.5011 174.974L67.2 142.802L66.1955 142.558C65.0117 142.271 64.2752 141.087 64.5395 139.895V139.859L64.5031 139.884L59.6152 143.116C54.1205 146.749 46.8865 146.283 41.9014 141.974C40.2022 141.915 38.5172 141.642 36.8861 141.161C32.2748 147.183 22.4881 166.006 39.7323 203.806Z" fill="#693C87"/>
<path d="M48.5148 300.878C48.6008 301.918 49.2351 302.833 50.1781 303.277L50.826 303.58L51.0225 303.671L59.2988 307.537C60.0488 307.881 60.9351 307.687 61.4732 307.06C62.0113 306.434 62.0715 305.527 61.6209 304.835L60.7765 303.566L56.409 297.001L51.2227 295.771L50.0362 297.515L49.1226 298.861L49.0135 299.021C48.6372 299.567 48.4622 300.227 48.5185 300.889L48.5148 300.878Z" fill="#9BBFAB"/>
<path d="M84.8051 122.554L86.1408 125.567L89.3654 123.47C90.8777 122.485 91.9097 120.911 92.2116 119.13L92.8121 115.636C92.8626 115.328 92.7015 115.024 92.4184 114.893C92.1354 114.763 91.8004 114.838 91.6001 115.078L88.6885 118.561C88.5811 118.661 88.4243 118.686 88.2908 118.626C88.1573 118.565 88.073 118.43 88.077 118.283L88.2481 117.189C88.2775 117.015 88.1865 116.843 88.0261 116.769C87.8658 116.696 87.6761 116.739 87.5638 116.876L87.0397 117.492C85.8201 118.926 85.0435 120.685 84.8051 122.554Z" fill="#EFA08D"/>
<path fill-rule="evenodd" clip-rule="evenodd" d="M64.5395 139.856V139.892C64.2631 141.085 64.9943 142.28 66.1809 142.573L67.1855 142.817L80.2879 145.994L85.5507 147.271C86.7439 147.56 87.9464 146.83 88.2439 145.637L95.9962 114.661C96.1418 114.08 96.049 113.464 95.7384 112.952C95.4279 112.44 94.9256 112.074 94.3438 111.936L86.0238 109.96L74.1152 107.133C73.5334 106.996 72.921 107.097 72.4144 107.415C71.9078 107.733 71.5491 108.241 71.4183 108.825L67.6732 125.756L82.4243 122.995L84.8046 122.553C85.043 120.684 85.8196 118.925 87.0392 117.491L87.5633 116.875C87.6756 116.738 87.8653 116.695 88.0256 116.768C88.186 116.842 88.277 117.014 88.2476 117.188L88.0765 118.283C88.0725 118.429 88.1568 118.564 88.2903 118.625C88.4238 118.685 88.5806 118.66 88.688 118.56L91.5996 115.077C91.7999 114.838 92.1349 114.762 92.4179 114.892C92.701 115.023 92.8621 115.327 92.8116 115.635L92.2038 119.129C91.9019 120.91 90.8699 122.484 89.3576 123.469L86.133 125.566L83.1122 127.565L66.7342 138.397L65.5149 139.207L64.5395 139.856ZM74.592 112.269C74.592 111.546 75.177 110.96 75.8986 110.96C76.6202 110.96 77.2052 111.546 77.2052 112.269C77.2052 112.992 76.6202 113.579 75.8986 113.579C75.177 113.579 74.592 112.992 74.592 112.269Z" fill="#D9D9D9"/>
<path d="M65.693 140.936L66.6975 141.18L79.7999 144.357L85.0627 145.634C86.2559 145.923 87.4585 145.193 87.756 144L95.5082 113.024C95.5362 112.91 95.5556 112.794 95.5665 112.677C96.0175 113.225 96.1823 113.954 96.0105 114.643L88.2582 145.619C87.9607 146.813 86.7582 147.542 85.565 147.253L80.3022 145.977L67.1998 142.8L66.1952 142.555C65.1205 142.294 64.3978 141.285 64.4956 140.181C64.8013 140.557 65.222 140.823 65.693 140.936Z" fill="#CCCCCC"/>
<path d="M74.5883 112.261C74.5872 112.547 74.6806 112.825 74.854 113.053C75.1944 113.499 75.7806 113.679 76.3121 113.5C76.8435 113.321 77.2025 112.823 77.2051 112.261C77.2048 112.089 77.1715 111.918 77.1068 111.758C76.8659 111.182 76.2534 110.856 75.6422 110.978C75.0311 111.1 74.5903 111.637 74.5883 112.261Z" fill="white"/>
<path d="M74.8544 113.061C75.0954 113.637 75.7079 113.963 76.319 113.841C76.9302 113.719 77.371 113.183 77.373 112.558C77.3741 112.272 77.2807 111.994 77.1073 111.767C77.172 111.927 77.2054 112.097 77.2056 112.27C77.2031 112.832 76.8441 113.33 76.3126 113.509C75.7811 113.688 75.1949 113.508 74.8544 113.061Z" fill="#CCCCCC"/>
<path d="M25.1848 104.602C25.6798 113.028 31.2265 125.242 37.2281 135.604C37.7934 136.577 38.36 137.532 38.9278 138.471C39.7295 139.794 40.7342 140.983 41.9049 141.994C46.89 146.302 54.124 146.768 59.6186 143.135L64.543 139.879L65.5147 139.207L66.734 138.398L83.112 127.565L86.1328 125.567L84.7971 122.554L82.4168 122.995L67.673 125.756L55.2366 128.065C55.2366 128.065 55.8553 103.202 46.3634 94.5105C44.5847 92.8127 42.4477 91.5375 40.1106 90.7794C32.1946 88.3686 24.5515 93.9233 25.1848 104.602Z" fill="#9BBFAB"/>
<path d="M73.1577 68.2118C73.1904 68.4379 73.2232 68.6677 73.2632 68.8938C73.2851 69.0324 73.3069 69.171 73.3324 69.3059C73.4088 69.7509 73.4962 70.1995 73.5944 70.6408C73.6308 70.8208 73.6709 70.9995 73.7145 71.177C73.8201 71.6329 73.9329 72.0851 74.0567 72.5337C74.0785 72.6103 74.0967 72.6869 74.1222 72.7635C74.2022 73.0553 74.2896 73.3507 74.3769 73.6425V73.6753C74.4643 73.9598 74.5553 74.2443 74.6499 74.5288C74.7955 74.981 74.952 75.4296 75.1194 75.8746C75.1813 76.0497 75.2432 76.2211 75.3087 76.3925C75.3341 76.4655 75.3633 76.5421 75.3924 76.615C75.4506 76.7718 75.5125 76.925 75.5744 77.0782C75.6362 77.2314 75.7309 77.4794 75.8182 77.68C75.8619 77.7894 75.9056 77.8952 75.9529 78.0046C76.0511 78.249 76.1567 78.4897 76.2622 78.734C76.2729 78.7603 76.285 78.7858 76.2986 78.8106C76.4224 79.0988 76.5534 79.3869 76.6808 79.6714L76.79 79.9012C76.8919 80.1236 76.9938 80.3461 77.103 80.5649V80.5941C77.2158 80.8348 77.3323 81.0683 77.4669 81.3017C77.6016 81.5351 77.6489 81.6664 77.7435 81.8524C77.8746 82.1114 78.0092 82.3703 78.1439 82.6256C78.2785 82.8809 78.4132 83.1326 78.5515 83.3806L78.9555 84.1101C79.5124 85.0985 80.0765 86.0504 80.6406 86.9476C80.8517 87.2904 81.0628 87.626 81.2775 87.9506C81.3394 88.0491 81.4013 88.1475 81.4668 88.2424C81.576 88.4101 81.6815 88.5743 81.7907 88.7347C82.6387 90.0149 83.4613 91.1675 84.2001 92.1631C85.1826 93.4841 85.9707 94.9396 86.5403 96.4851C92.8894 94.6562 99.118 92.4307 105.189 89.8216V70.3199C102.385 70.4355 99.5767 70.3294 96.7893 70.0026C88.786 68.9777 80.8699 68.0622 73.1577 68.2118Z" fill="#9BBFAB"/>
<path d="M45.3592 75.7072C46.4511 78.625 54.7821 81.251 60.7509 77.9284C66.6252 74.6459 63.7681 69.175 63.6626 69.0145C62.4494 69.2042 61.2471 69.434 60.0558 69.7039C57.5558 70.2702 55.1038 71.0311 52.7221 71.9797L52.2598 72.1657C50.654 72.8217 49.0876 73.5707 47.5684 74.4088C46.8369 74.8136 46.0981 75.2476 45.3592 75.7072Z" fill="#EFA08D"/>
<path d="M76.2915 78.7278C76.3022 78.754 76.3143 78.7796 76.3279 78.8044C76.4517 79.0925 76.5827 79.3806 76.7101 79.6651L76.8193 79.8949C76.9212 80.1174 77.0231 80.3399 77.1323 80.5587V80.5879C77.2451 80.8286 77.3616 81.062 77.4962 81.2954C77.6309 81.5289 77.6782 81.6602 77.7728 81.8462C77.9039 82.1051 78.0385 82.3641 78.1732 82.6194C78.3079 82.8747 78.4425 83.1263 78.5808 83.3744L78.9848 84.1038C79.5417 85.0922 80.1058 86.0441 80.6699 86.9414C80.881 87.2842 81.0921 87.6197 81.3068 87.9443C81.3687 88.0428 81.4306 88.1413 81.4961 88.2361C81.6053 88.4039 81.7108 88.568 81.82 88.7285C82.668 90.0087 83.4906 91.1612 84.2294 92.1569C85.2119 93.4779 86 94.9334 86.5697 96.4789C92.9187 94.6499 99.1473 92.4244 105.219 89.8154V87.131C84.3168 90.3479 76.5026 79.0378 76.2915 78.7278Z" fill="#7FA992"/>
<path fill-rule="evenodd" clip-rule="evenodd" d="M106.351 70.2742C108.993 70.1502 111.737 69.9095 114.5 69.5448L114.831 69.501V65.5182L118.416 64.2964V68.9904L118.827 68.9248L120.017 68.7278V52.2824L123.602 51.0606V68.1005C123.969 68.0339 124.334 67.9633 124.697 67.8932C124.831 67.8673 124.965 67.8415 125.098 67.816L125.364 67.7649V36.1726L128.949 34.9471V67.0428C129.839 66.8531 130.712 66.6598 131.566 66.4629C138.736 64.8253 144.523 63.1512 146.852 62.4509C146.751 61.5316 146.701 60.6075 146.703 59.6827C146.714 54.1457 148.319 48.7295 151.325 44.0834C153.349 41.0562 155.893 38.7986 158.655 37.8576C165.239 35.5963 170.611 41.7346 170.611 51.5238C170.611 61.313 165.257 71.0985 158.655 73.3488C155.775 74.4311 152.527 73.6301 150.477 71.3319C149.463 70.2337 148.662 68.9561 148.115 67.5643C143.591 70.3107 132.792 76.6934 120.028 83.0067C115.643 85.1732 111.024 87.336 106.351 89.3383L105.215 89.8197V98.1829C105.215 102.027 107.312 104.423 109.9 103.544L174.891 81.391C177.479 80.4974 179.575 76.6788 179.575 72.8382V5.72913C179.575 1.8886 177.479 -0.511285 174.891 0.371346L109.9 22.5246C107.312 23.4182 105.215 27.2369 105.215 31.0774V70.318L106.351 70.2742ZM142.393 36.9887L139.977 37.813L139.951 37.368L142.368 36.5438V36.5L141.276 36.8647V32.7908L142.597 32.3421L143.325 27.4403C143.245 27.3649 143.195 27.2621 143.187 27.1521C143.16 26.9172 143.263 26.6864 143.456 26.5503H143.478C143.569 26.5065 143.675 26.5065 143.766 26.5503C143.882 26.6105 143.964 26.723 143.984 26.8531C143.998 26.9781 143.977 27.1046 143.922 27.2178L146.31 31.0693L147.336 30.7045L149.396 18.3039C149.319 18.2282 149.273 18.1271 149.265 18.0195C149.238 17.7829 149.345 17.5508 149.542 17.4177C149.637 17.363 149.755 17.363 149.851 17.4177C149.972 17.4868 150.049 17.6136 150.055 17.7532C150.065 17.8544 150.052 17.9565 150.018 18.0523L154.262 23.1584C154.324 23.1198 154.397 23.1043 154.47 23.1146L158.411 17.0347C158.409 17.0031 158.409 16.9715 158.411 16.9399C158.384 16.7033 158.491 16.4713 158.688 16.3381C158.784 16.2834 158.901 16.2834 158.997 16.3381C159.116 16.4092 159.193 16.5348 159.201 16.6736C159.215 16.8239 159.181 16.9748 159.103 17.104L161.527 25.8792L161.891 25.7552L164.002 20.4996C163.975 20.4458 163.958 20.3878 163.951 20.3282C163.922 20.0922 164.027 19.8599 164.224 19.7264C164.289 19.6875 164.366 19.6721 164.442 19.6826L166.589 16.4694V16.4074C166.562 16.1716 166.667 15.9402 166.862 15.8056C166.959 15.751 167.078 15.751 167.175 15.8056C167.294 15.8767 167.371 16.0023 167.379 16.1411C167.389 16.2516 167.373 16.3629 167.332 16.4657L169.781 20.8643C169.856 20.842 169.937 20.8498 170.007 20.8862C170.128 20.9575 170.204 21.0851 170.211 21.2254C170.239 21.4614 170.134 21.6936 169.938 21.8272C169.887 21.858 169.829 21.8744 169.77 21.8746C169.719 21.8751 169.669 21.8625 169.625 21.8381C169.505 21.7681 169.429 21.6414 169.424 21.5026C169.415 21.391 169.431 21.2786 169.472 21.1743L167.026 16.7976C166.997 16.8012 166.968 16.8012 166.939 16.7976H166.899L164.74 20.0108C164.742 20.0315 164.742 20.0522 164.74 20.0729C164.767 20.3095 164.661 20.5415 164.464 20.6746C164.433 20.6948 164.398 20.7084 164.362 20.7148L162.404 25.5729L170.953 22.6551V21.178L170.666 21.2764V20.8242L170.953 20.7257V18.1544L170.666 18.2529V17.797L170.953 17.6985V15.1454L170.666 15.2439V14.8135L170.953 14.7151V12.162L170.666 12.2605V11.8046L171.655 11.4654V11.9213L171.364 12.0198V14.5728L171.655 14.4743V14.9266L171.364 15.0251V17.5964L171.655 17.4979V17.9502L171.364 18.0486V20.6199L171.655 20.5215V20.9774L171.364 21.0758V23.6289L171.655 23.5304V23.9863L171.364 24.0848V27.1084L169.909 27.6044V28.0348L169.497 28.177V27.7466L167.186 28.5344V28.9648L166.775 29.1034V28.6803L164.46 29.4681V29.8985L164.049 30.0371V29.6067L161.716 30.4018V30.8322L161.308 30.9708V30.5404L159.015 31.3209V31.7513L158.604 31.8935V31.4632L156.315 32.2437V32.674L155.903 32.8126V32.3823L153.611 33.1664V33.5931L153.203 33.7354V33.305L150.91 34.0855V34.5159L150.499 34.6545V34.2241L148.209 35.0046V35.435L147.798 35.5772V35.1469L145.505 35.9274V36.3577L145.098 36.4963V36.066L142.805 36.8501V37.2768L142.393 37.4191V36.9887Z" fill="#F5F7E0"/>
<path d="M147.729 30.599L161.13 26.0326L158.731 17.3376H158.688L154.761 23.3921C154.776 23.4318 154.786 23.4735 154.79 23.5161C154.819 23.7532 154.714 23.9868 154.517 24.1215C154.464 24.1499 154.405 24.165 154.346 24.1653C154.297 24.1653 154.248 24.154 154.204 24.1324C154.084 24.0602 154.008 23.9332 154 23.7932C153.992 23.6957 154.004 23.5975 154.036 23.5051L149.789 18.399H149.767L147.729 30.599Z" fill="#F5F7E0"/>
<path d="M169.905 27.1171V27.1608L170.949 26.8034V26.7596L169.905 27.1171Z" fill="#F5F7E0"/>
<path d="M167.182 28.0427V28.0864L169.493 27.2986V27.2549L167.182 28.0427Z" fill="#F5F7E0"/>
<path d="M164.457 28.9736V29.0174L166.771 28.2259V28.1858L164.457 28.9736Z" fill="#F5F7E0"/>
<path d="M161.712 29.9076V29.9514L164.045 29.1563V29.1125L161.712 29.9076Z" fill="#F5F7E0"/>
<path d="M159.012 30.828V30.8717L161.305 30.0876V30.0438L159.012 30.828Z" fill="#F5F7E0"/>
<path d="M156.311 31.7489V31.7926L158.601 31.0122V30.9684L156.311 31.7489Z" fill="#F5F7E0"/>
<path d="M153.606 32.6722V32.716L155.899 31.9355V31.8881L153.606 32.6722Z" fill="#F5F7E0"/>
<path d="M150.906 33.5907V33.6344L153.199 32.8539V32.8102L150.906 33.5907Z" fill="#F5F7E0"/>
<path d="M148.206 34.5103V34.5577L150.495 33.7772V33.7334L148.206 34.5103Z" fill="#F5F7E0"/>
<path d="M145.502 35.4321V35.4759L147.795 34.6954V34.6516L145.502 35.4321Z" fill="#F5F7E0"/>
<path d="M142.801 36.3547V36.3985L145.094 35.6143V35.5706L142.801 36.3547Z" fill="#F5F7E0"/>
<path d="M142.994 32.2108L145.957 31.2042L143.686 27.5387L142.994 32.2108Z" fill="#F5F7E0"/>
<path d="M105.216 70.3184V87.1321C110.289 86.3002 115.256 84.9158 120.029 83.0035C132.793 76.6901 143.591 70.3075 148.115 67.5611C147.461 65.9258 147.035 64.2074 146.852 62.455C144.523 63.1552 138.736 64.8293 131.566 66.4669C130.712 66.6639 129.84 66.8572 128.949 67.0468V75.7017L125.364 76.9235V67.7653L125.099 67.8164C124.604 67.9112 124.105 68.0097 123.603 68.1009V77.5034L120.018 78.7253V68.7318L118.828 68.9288L118.416 68.9944V79.2687L114.831 80.4942V69.5014L114.489 69.5452C111.727 69.9099 108.983 70.1506 106.34 70.2746L105.216 70.3184Z" fill="#C3D8B7"/>
<path d="M105.215 87.1339V89.8183L106.351 89.3369C111.024 87.3345 115.643 85.1717 120.028 83.0052C115.255 84.9176 110.288 86.302 105.215 87.1339Z" fill="#B5CDAA"/>
<path d="M150.477 71.3313C152.527 73.6294 155.775 74.4304 158.655 73.3482C165.258 71.0978 170.611 61.3123 170.611 51.5231C170.611 41.7339 165.239 35.5957 158.655 37.8569C155.893 38.7979 153.349 41.0556 151.325 44.0828L158.655 55.608L150.477 71.3313Z" fill="#CDDFD5"/>
<path d="M125.375 67.7658V76.8839L128.96 75.6621V67.0364L127.242 67.4011C126.628 67.5202 126.006 67.6418 125.375 67.7658Z" fill="#747086"/>
<path d="M125.375 36.1389V67.7641C126.003 67.6401 126.626 67.5185 127.242 67.3993L128.96 67.0346V34.939L125.375 36.1389Z" fill="#A690B0"/>
<path d="M120.028 68.7273V78.7061L123.613 77.4843V68.0963C122.674 68.275 121.724 68.461 120.771 68.6069C120.523 68.6507 120.276 68.6908 120.028 68.7273Z" fill="#747086"/>
<path d="M120.028 52.2833V68.7287C120.271 68.6922 120.513 68.6521 120.756 68.6084C121.71 68.4479 122.66 68.2765 123.599 68.0977V51.0615L120.028 52.2833Z" fill="#A690B0"/>
<path d="M114.842 69.5024V80.4915L118.427 79.2661V68.9918C117.233 69.1778 116.036 69.3492 114.842 69.5024Z" fill="#747086"/>
<path d="M114.842 65.5182V69.501C116.036 69.3478 117.233 69.1764 118.427 68.9904V64.2964L114.842 65.5182Z" fill="#A690B0"/>
<g opacity="0.44">
<path d="M146.31 31.0837L147.074 32.3164L147.336 30.7335L146.31 31.0837Z" fill="#9BBFAB"/>
<path d="M161.527 25.8981L161.654 26.3613L161.891 25.774L161.527 25.8981Z" fill="#9BBFAB"/>
<path d="M141.287 32.7947V36.8687L142.379 36.504V36.1064L142.79 35.9678V36.3544L145.083 35.5703V35.1837L145.491 35.0451V35.4317L147.783 34.6512V34.2646L148.195 34.126V34.4907L150.484 33.7138V33.3236L150.895 33.185V33.5716L153.188 32.7911V32.4227L153.596 32.2841V32.6707L155.889 31.8866V31.5L156.3 31.3614V31.748L158.589 30.9675V30.5809L159.001 30.4423V30.8289L161.293 30.0447V29.6581L161.701 29.5195V29.9061L164.045 29.1037V28.739L164.456 28.6004V28.987L166.771 28.1992V27.809L167.182 27.6704V28.057L169.493 27.2692V26.8826L169.905 26.744V27.1306L170.949 26.7659V24.2383L170.662 24.3368V23.8845L170.949 23.7861V22.6919L162.4 25.6097L161.96 26.7038C161.986 26.7575 162.002 26.8156 162.007 26.8753C162.036 27.1113 161.93 27.3435 161.734 27.4771C161.704 27.4944 161.67 27.5056 161.636 27.5099H161.566H161.541C161.499 27.5094 161.458 27.4994 161.421 27.4807C161.301 27.4095 161.225 27.2815 161.221 27.1415C161.207 26.9924 161.241 26.8426 161.319 26.7148L161.13 26.0328L147.729 30.5991L147.43 32.3826C147.521 32.4561 147.575 32.5651 147.58 32.6817C147.609 32.9178 147.504 33.1505 147.307 33.2835H147.281H147.259C147.222 33.3006 147.181 33.3094 147.139 33.309C147.088 33.3095 147.038 33.2969 146.994 33.2725C146.873 33.203 146.798 33.076 146.793 32.937C146.784 32.8254 146.8 32.713 146.841 32.6087L145.956 31.1826L142.994 32.1893L142.83 33.2835C142.911 33.3592 142.96 33.464 142.965 33.5752C143.003 33.8261 142.888 34.0757 142.673 34.2099C142.623 34.241 142.565 34.2574 142.506 34.2573C142.456 34.2581 142.407 34.2455 142.364 34.2208C142.243 34.1512 142.167 34.0246 142.16 33.8852C142.131 33.6481 142.236 33.4145 142.433 33.2798H142.451L142.59 32.3461L141.287 32.7947Z" fill="#DBD4BE"/>
</g>
<path d="M169.905 27.1605V27.6128L171.361 27.1168V24.0932L171.652 23.9947V23.5388L171.361 23.6373V21.0696L171.652 20.9712V20.5153L171.361 20.6137L170.95 20.756L170.662 20.8545V21.3067L170.95 21.2082V23.7795L170.662 23.878V24.3303L170.95 24.2318V26.8031L169.905 27.1605Z" fill="#A690B0"/>
<path d="M170.95 12.1373V14.7049L170.662 14.8034V15.2593L170.95 15.1609V17.7285L170.662 17.827V18.2829L170.95 18.1844V20.7557L171.361 20.6135V18.0422L171.652 17.9437V17.4914L171.361 17.5899V15.0186L171.652 14.9201V14.4679L171.361 14.5664V11.9951L171.652 11.8966V11.4407L170.662 11.7799V12.2358L170.95 12.1373Z" fill="#A690B0"/>
<path d="M139.974 37.3615V37.8174L142.39 36.9932V37.4235L142.802 37.2813V36.8546L145.094 36.0704V36.5008L145.502 36.3622V35.9318L147.795 35.1513V35.5817L148.206 35.4394V35.0091L150.496 34.2286V34.6589L150.907 34.5203V34.09L153.2 33.3095V33.7398L153.607 33.5976V33.1709L155.9 32.3867V32.8171L156.312 32.6785V32.2481L158.601 31.4676V31.898L159.012 31.7557V31.3254L161.305 30.5449V30.9752L161.713 30.8366V30.4063L164.046 29.6112V30.0415L164.457 29.9029V29.4689L166.772 28.6811V29.1115L167.183 28.9729V28.5425L169.494 27.7547V28.1851L169.905 28.0429V26.7299L169.494 26.8685V27.2988L167.183 28.0866V27.6563L166.772 27.7948V28.2252L164.457 29.0167V28.5863L164.046 28.7249V29.1553L161.713 29.9504V29.52L161.305 29.6586V30.089L159.012 30.8731V30.4427L158.601 30.5813V31.0117L156.312 31.7922V31.3618L155.9 31.5004V31.9345L153.607 32.715V32.2846L153.2 32.4232V32.8536L150.907 33.6341V33.2037L150.496 33.3423V33.7763L148.206 34.5568V34.1264L147.795 34.265V34.6954L145.502 35.4759V35.0455L145.094 35.1841V35.6145L142.802 36.3987V35.9683L142.39 36.1069V36.5373L139.974 37.3615Z" fill="#A690B0"/>
<path d="M167.015 16.7855L169.461 21.1622C169.503 21.0468 169.582 20.949 169.687 20.885C169.713 20.8709 169.741 20.8599 169.771 20.8522L167.321 16.4536C167.28 16.5705 167.201 16.6698 167.095 16.7345C167.071 16.7549 167.044 16.7721 167.015 16.7855Z" fill="#9BBFAB"/>
<path d="M166.578 16.4265V16.4885C166.598 16.6041 166.669 16.7046 166.771 16.7621C166.802 16.78 166.837 16.7912 166.873 16.7949H166.913C166.942 16.7984 166.971 16.7984 167 16.7949C167.028 16.7872 167.055 16.7762 167.08 16.7621C167.186 16.6974 167.266 16.5981 167.306 16.4812C167.347 16.3783 167.364 16.2671 167.353 16.1566C167.345 16.0178 167.269 15.8922 167.15 15.8211C167.052 15.7665 166.934 15.7665 166.837 15.8211C166.646 15.9599 166.547 16.1924 166.578 16.4265Z" fill="#A690B0"/>
<path d="M164.442 19.7006C164.475 19.706 164.507 19.7171 164.536 19.7335C164.64 19.7888 164.71 19.8906 164.726 20.007L166.884 16.7938C166.848 16.7901 166.813 16.7789 166.782 16.761C166.68 16.7035 166.609 16.603 166.589 16.4874L164.442 19.7006Z" fill="#9BBFAB"/>
<path d="M158.731 17.339L161.129 26.034L161.319 26.716C161.361 26.644 161.421 26.5838 161.493 26.5409C161.591 26.4863 161.709 26.4863 161.806 26.5409C161.876 26.5768 161.93 26.6363 161.959 26.7087L162.4 25.6145L164.361 20.7163H164.296C164.246 20.7168 164.197 20.7042 164.154 20.6798C164.086 20.6443 164.032 20.5864 164.001 20.5157L161.89 25.7714L161.653 26.3586L161.526 25.8954L159.102 17.1201C159.059 17.1921 158.999 17.2523 158.927 17.2952C158.875 17.3236 158.816 17.3387 158.756 17.339H158.731Z" fill="#9BBFAB"/>
<path d="M169.413 21.5117C169.418 21.6506 169.494 21.7772 169.613 21.8473C169.658 21.8716 169.708 21.8842 169.759 21.8837C169.818 21.8835 169.876 21.8671 169.926 21.8363C170.123 21.7028 170.228 21.4705 170.199 21.2345C170.193 21.0942 170.116 20.9666 169.996 20.8953C169.926 20.859 169.845 20.8511 169.77 20.8734C169.741 20.8812 169.713 20.8922 169.686 20.9063C169.582 20.9703 169.502 21.068 169.461 21.1835C169.42 21.2878 169.404 21.4001 169.413 21.5117Z" fill="#A690B0"/>
<path d="M163.95 20.3516C163.957 20.4112 163.974 20.4692 164.001 20.523C164.032 20.5937 164.086 20.6516 164.154 20.6871C164.197 20.7115 164.246 20.7241 164.296 20.7236H164.361C164.398 20.7172 164.432 20.7036 164.463 20.6835C164.66 20.5503 164.767 20.3183 164.74 20.0817C164.742 20.0611 164.742 20.0403 164.74 20.0197C164.725 19.9033 164.654 19.8015 164.551 19.7461C164.521 19.7298 164.489 19.7187 164.456 19.7133C164.38 19.7028 164.304 19.7182 164.238 19.7571C164.038 19.8857 163.927 20.1151 163.95 20.3516Z" fill="#A690B0"/>
<path d="M161.236 27.1419C161.24 27.2818 161.315 27.4099 161.436 27.4811C161.473 27.4997 161.514 27.5097 161.556 27.5102H161.581H161.65C161.685 27.506 161.718 27.4948 161.749 27.4774C161.945 27.3439 162.05 27.1116 162.022 26.8756C162.017 26.816 162.001 26.7578 161.974 26.7042C161.945 26.6318 161.891 26.5723 161.822 26.5364C161.724 26.4818 161.606 26.4818 161.509 26.5364C161.437 26.5793 161.377 26.6395 161.334 26.7115C161.255 26.8404 161.221 26.9915 161.236 27.1419Z" fill="#A690B0"/>
<path d="M154.487 23.1451C154.523 23.1488 154.558 23.16 154.589 23.1779C154.673 23.223 154.736 23.2989 154.764 23.3895L158.688 17.3351C158.661 17.3299 158.635 17.3213 158.611 17.3095C158.519 17.2566 158.452 17.1685 158.425 17.0652L154.487 23.1451Z" fill="#9BBFAB"/>
<path d="M149.792 18.3792L154.04 23.4853C154.077 23.363 154.156 23.2574 154.262 23.1862L150.018 18.0801C149.98 18.2033 149.9 18.3092 149.792 18.3792Z" fill="#9BBFAB"/>
<path d="M142.47 33.2804C142.563 33.2348 142.672 33.2348 142.765 33.2804C142.789 33.2919 142.811 33.308 142.83 33.3279L142.994 32.2337L143.685 27.5616L145.956 31.2088L146.841 32.6349C146.883 32.5205 146.962 32.424 147.066 32.3613C147.164 32.3068 147.282 32.3068 147.379 32.3613C147.398 32.3714 147.415 32.3836 147.43 32.3978L147.729 30.6143L149.76 18.407C149.714 18.4314 149.663 18.4439 149.611 18.4435C149.561 18.444 149.512 18.4314 149.469 18.407L149.396 18.356L147.336 30.7566L147.074 32.3395L146.309 31.1067L143.922 27.2552C143.88 27.3588 143.806 27.4459 143.711 27.5032C143.614 27.5593 143.495 27.5593 143.398 27.5032C143.373 27.4917 143.351 27.4756 143.332 27.4558L142.604 32.3577L142.47 33.2804Z" fill="#9BBFAB"/>
<path d="M158.411 16.9686C158.409 17.0002 158.409 17.0319 158.411 17.0634C158.437 17.1667 158.504 17.2549 158.596 17.3078C158.621 17.3196 158.646 17.3282 158.673 17.3333H158.738C158.798 17.333 158.857 17.318 158.909 17.2896C158.981 17.2467 159.041 17.1865 159.084 17.1145C159.162 16.9853 159.197 16.8344 159.182 16.6841C159.174 16.5454 159.098 16.4197 158.979 16.3486C158.883 16.294 158.765 16.294 158.669 16.3486C158.473 16.4894 158.373 16.7296 158.411 16.9686Z" fill="#A690B0"/>
<path d="M154.003 23.7893C154.011 23.9292 154.087 24.0562 154.207 24.1285C154.251 24.1501 154.3 24.1613 154.349 24.1613C154.409 24.161 154.467 24.146 154.52 24.1176C154.717 23.9829 154.822 23.7492 154.793 23.5121C154.789 23.4696 154.78 23.4278 154.764 23.3881C154.735 23.2975 154.673 23.2216 154.589 23.1766C154.558 23.1586 154.523 23.1475 154.487 23.1438C154.415 23.1334 154.342 23.1489 154.28 23.1875C154.174 23.2588 154.095 23.3644 154.058 23.4866C154.017 23.5822 153.999 23.6856 154.003 23.7893Z" fill="#A690B0"/>
<path d="M149.265 18.056C149.272 18.1636 149.319 18.2647 149.396 18.3405L149.468 18.3915C149.512 18.4159 149.561 18.4285 149.61 18.428C149.662 18.4285 149.714 18.4159 149.76 18.3915H149.781C149.889 18.3216 149.969 18.2157 150.007 18.0925C150.041 17.9967 150.054 17.8946 150.044 17.7934C150.038 17.6538 149.961 17.527 149.84 17.4578C149.744 17.4032 149.626 17.4032 149.53 17.4578C149.339 17.5931 149.237 17.8228 149.265 18.056Z" fill="#A690B0"/>
<path d="M146.793 32.9555C146.797 33.0946 146.873 33.2215 146.993 33.291C147.038 33.3154 147.088 33.328 147.139 33.3275C147.18 33.3279 147.221 33.3192 147.259 33.302H147.281H147.306C147.503 33.169 147.609 32.9363 147.579 32.7002C147.575 32.5836 147.52 32.4746 147.43 32.4011C147.414 32.3869 147.397 32.3747 147.379 32.3647C147.282 32.3101 147.163 32.3101 147.066 32.3647C146.962 32.4273 146.882 32.5238 146.84 32.6382C146.801 32.7391 146.785 32.8475 146.793 32.9555Z" fill="#A690B0"/>
<path d="M143.194 27.1543C143.203 27.2643 143.252 27.3671 143.332 27.4425C143.351 27.4623 143.373 27.4784 143.398 27.4899C143.495 27.5459 143.614 27.5459 143.711 27.4899C143.806 27.4325 143.881 27.3454 143.922 27.2419C143.977 27.1287 143.998 27.0021 143.984 26.8771C143.971 26.7376 143.889 26.614 143.766 26.5489C143.675 26.505 143.569 26.505 143.478 26.5489H143.456C143.265 26.6873 143.164 26.9196 143.194 27.1543Z" fill="#A690B0"/>
<path d="M142.179 33.8913C142.185 34.0307 142.262 34.1573 142.382 34.2269C142.426 34.2516 142.475 34.2642 142.524 34.2634C142.578 34.2581 142.629 34.2393 142.674 34.2086C142.87 34.0751 142.975 33.8429 142.947 33.6069C142.942 33.4956 142.893 33.3908 142.812 33.3151C142.793 33.2953 142.771 33.2792 142.746 33.2677C142.653 33.222 142.545 33.222 142.452 33.2677H142.433C142.237 33.41 142.138 33.6518 142.179 33.8913Z" fill="#A690B0"/>
<path d="M146.703 59.6712C146.701 60.596 146.751 61.5202 146.852 62.4394C147.58 62.2243 147.944 62.1002 147.944 62.1002L151.532 54.1529C151.631 53.9442 151.864 53.8352 152.087 53.8931C152.31 53.951 152.461 54.1595 152.446 54.39L152.162 57.8038C152.12 58.3232 152.212 58.8448 152.431 59.3174L153.228 61.0061C153.549 61.7002 153.549 62.5003 153.228 63.1944C152.726 64.2739 151.925 65.1865 150.921 65.8241L150.39 66.1596C150.39 66.1596 149.582 66.6702 148.111 67.5638C148.659 68.9556 149.46 70.2331 150.473 71.3314L158.651 55.5972L151.325 44.0574C148.317 48.7076 146.712 54.1292 146.703 59.6712Z" fill="#BBA692"/>
<path d="M147.962 62.1021L150.394 66.1614L150.925 65.8259C151.929 65.1883 152.73 64.2757 153.233 63.1962C153.553 62.5021 153.553 61.702 153.233 61.0079L152.45 59.3192C152.231 58.8466 152.138 58.325 152.181 57.8056L152.465 54.3918C152.479 54.1613 152.329 53.9528 152.106 53.8949C151.882 53.8371 151.65 53.9461 151.551 54.1547L147.962 62.1021Z" fill="#B37759"/>
<path d="M146.852 62.4401C147.035 64.1925 147.46 65.9109 148.115 67.5462C149.571 66.6526 150.394 66.142 150.394 66.142L147.962 62.0826C147.962 62.0826 147.573 62.2249 146.852 62.4401Z" fill="#898668"/>
<path d="M25.1848 104.603C25.6798 113.028 31.2265 125.243 37.2281 135.604C37.7934 136.577 38.36 137.533 38.9278 138.471C39.7295 139.795 40.7342 140.984 41.9049 141.994C46.89 146.303 54.124 146.769 59.6186 143.136L64.543 139.879C46.2724 150.908 40.693 132.03 40.107 123.211C39.521 114.392 29.4431 109.352 29.9162 99.9417C30.3894 90.5318 40.107 90.8054 40.107 90.8054C32.1946 88.369 24.5515 93.9238 25.1848 104.603Z" fill="#7FA992"/>
<path d="M66.1954 142.555L67.1999 142.799L86.1475 125.566L83.1266 127.565L66.7486 138.397L65.5293 139.207L64.5539 139.856V139.892C64.2888 141.079 65.0175 142.261 66.1954 142.555Z" fill="#CCCCCC"/>
<path d="M55.2366 128.046L67.6729 125.756L71.0723 110.386C69.0246 114.284 66.3052 117.788 63.0398 120.737C61.92 121.704 60.3682 121.994 58.976 121.496C57.5838 120.998 56.5659 119.789 56.3102 118.33C55.4768 113.621 53.9554 107.177 51.3932 102.453C55.6078 113.202 55.2366 128.046 55.2366 128.046Z" fill="#7FA992"/>
<path d="M39.7327 203.808C28.996 173.014 41.0939 156.689 51.3793 151.802C61.6647 146.914 64.5254 139.912 64.5254 139.912H64.4963L59.6083 143.143C54.1137 146.776 46.8797 146.31 41.8946 142.001C40.1954 141.943 38.5104 141.669 36.8793 141.188C32.2753 147.184 22.4885 166.008 39.7327 203.808Z" fill="#4E2161"/>
<path d="M15.4678 139.57C22.8415 141.904 28.5265 141.189 32.9049 138.815C30.3972 136.338 28.9923 132.231 26.987 125.83C21.4548 108.185 22.4011 98.1625 27.0088 90.9957C28.683 75.7722 38.1349 71.5961 44.8426 62.106C51.5503 52.6159 42.3204 47.5863 46.2511 39.8579C49.8689 32.7275 55.976 33.2162 56.915 33.3366C55.9231 33.1814 54.9229 33.084 53.9197 33.0448C38.8628 32.4321 35.1723 50.5515 25.3018 58.3202C15.4314 66.0888 12.1994 69.5865 13.3968 80.6996C14.5943 91.8127 17.5751 98.7096 10.6963 105.833C1.09514 115.775 -8.53877 131.954 15.4678 139.57Z" fill="#4E2161"/>
<path d="M57.9481 65.6472L60.1683 68.6014L60.5322 64.5895L58.9381 64.17C58.5497 64.0619 58.1358 64.2152 57.9111 64.5505C57.6863 64.8859 57.7012 65.3278 57.9481 65.6472Z" fill="#ED8B7B"/>
<path d="M65.8573 57.2823C66.0956 57.4115 66.3739 57.4454 66.6362 57.3771C66.8444 56.9336 67.1332 56.5329 67.4878 56.1954C67.7579 55.9395 67.9498 55.6118 68.041 55.2507C67.6828 55.4981 67.2712 55.6568 66.84 55.7139C65.6535 55.8525 65.2277 56.8227 65.8573 57.2823Z" fill="#ED8B7B"/>
<path d="M45.3594 75.7026C48.9662 75.4437 51.0408 74.3167 52.2127 72.7848C52.4109 72.5284 52.5863 72.255 52.7368 71.9679C54.8951 67.934 52.3073 61.9781 54.2399 60.8803C57.097 59.2609 57.1516 56.0732 57.7594 52.5609C58.3453 49.1581 63.408 47.6554 63.7246 47.5642C63.3607 47.6517 62.9967 47.7247 62.6728 47.7976C58.8367 48.6256 54.8405 50.0042 54.4474 54.0782C54.4243 54.3253 54.2669 54.5395 54.0382 54.635C53.8095 54.7305 53.5469 54.6917 53.3555 54.5341C52.4583 53.6815 51.129 53.4726 50.0144 54.0089C48.3912 54.7383 49.0426 57.8166 50.4948 59.2463C50.9444 59.6692 51.1333 60.3012 50.9898 60.9021C50.7642 61.7738 50.6695 63.2801 51.3283 65.7092C51.8378 67.5766 48.0927 72.008 47.5905 74.3969C46.8371 74.809 46.0982 75.2431 45.3594 75.7026Z" fill="#ED8B7B"/>
<path d="M23.4786 110.278C23.9736 114.706 25.1055 119.826 26.9871 125.833C28.9925 132.234 30.3974 136.341 32.905 138.818C34.0295 139.913 35.4038 140.717 36.9085 141.159C38.5396 141.64 40.2246 141.913 41.9238 141.972C40.7531 140.962 39.7484 139.773 38.9467 138.449C38.3789 137.513 37.8123 136.557 37.247 135.582C31.2454 125.228 25.6987 113.013 25.2037 104.581C25.1006 103.009 25.1997 101.43 25.4985 99.8833V99.9015C25.3275 100.27 23.9153 103.954 23.4786 110.278Z" fill="#7FA992"/>
<path d="M36.89 141.159C38.521 141.64 40.2061 141.913 41.9053 141.972C40.7345 140.962 39.7299 139.773 38.9281 138.449C38.3604 137.513 37.7938 136.557 37.2285 135.582C31.2268 125.228 25.6802 113.013 25.1852 104.581C25.082 103.009 25.1811 101.43 25.48 99.8833V99.9015C25.2289 100.693 20.4428 116.923 36.89 141.159Z" fill="#57846A"/>
<path d="M48.638 299.77C48.7221 299.501 48.8447 299.245 49.002 299.011L49.1111 298.851L50.0247 297.505C51.4094 298.051 52.3192 299.391 52.3176 300.882C52.3048 301.389 52.5743 301.86 53.0164 302.104L56.8234 304.136C58.1261 304.841 59.7364 304.605 60.7832 303.556L61.6203 304.836C62.081 305.528 62.0258 306.443 61.4854 307.075C60.9449 307.706 60.0512 307.9 59.2983 307.55L50.8254 303.592L50.1775 303.29C49.2345 302.846 48.6002 301.93 48.5143 300.89C48.4834 300.512 48.5255 300.132 48.638 299.77Z" fill="#56426B"/>
<path d="M58.1192 302.192C58.183 302.192 58.2457 302.176 58.3012 302.144C58.707 301.928 59.1423 301.772 59.5932 301.681C59.7232 301.657 59.8302 301.564 59.8738 301.439C59.9174 301.314 59.8911 301.175 59.8047 301.074C59.7183 300.974 59.5849 300.927 59.4549 300.952C58.9237 301.06 58.4111 301.245 57.9336 301.503C57.7608 301.605 57.7038 301.829 57.8062 302.002C57.869 302.117 57.9885 302.19 58.1192 302.192Z" fill="#56426B"/>
<path d="M56.8634 301.189C56.9276 301.189 56.9908 301.172 57.0453 301.138C57.6828 300.799 58.3655 300.553 59.0726 300.408C59.1677 300.391 59.252 300.336 59.3066 300.256C59.3612 300.175 59.3818 300.077 59.3637 299.982C59.3252 299.784 59.1348 299.655 58.9379 299.693C58.1479 299.851 57.386 300.126 56.6778 300.51C56.5058 300.612 56.4473 300.833 56.5467 301.006C56.612 301.12 56.7328 301.189 56.8634 301.189Z" fill="#56426B"/>
<path d="M55.8404 300.186C55.9047 300.187 55.9678 300.169 56.0224 300.135C56.793 299.724 57.6194 299.426 58.4755 299.253C58.6765 299.215 58.8093 299.022 58.7721 298.821C58.7349 298.619 58.5418 298.486 58.3408 298.523C57.4024 298.711 56.4971 299.038 55.6548 299.493C55.5138 299.577 55.4462 299.745 55.4895 299.904C55.5328 300.062 55.6765 300.172 55.8404 300.172V300.186Z" fill="#56426B"/>
<path d="M15.8829 280.914C15.4398 281.864 15.5443 282.98 16.1559 283.832L16.5708 284.415L16.6982 284.59L22.0119 292.031C22.4961 292.706 23.3697 292.977 24.1498 292.692C24.9299 292.408 25.426 291.638 25.3639 290.809L25.2511 289.288L24.6615 281.417L20.749 277.788L18.86 278.722L17.4042 279.451L17.2332 279.539C16.9792 279.663 16.745 279.824 16.538 280.017C16.2643 280.271 16.0419 280.575 15.8829 280.914Z" fill="#7FA992"/>
<path d="M16.5348 280.009C16.7418 279.816 16.976 279.655 17.23 279.531L17.401 279.443L18.8568 278.714C19.7963 279.871 19.9321 281.486 19.199 282.784C18.937 283.217 18.937 283.759 19.199 284.192L21.521 287.839C22.3138 289.084 23.8252 289.663 25.2442 289.265L25.3571 290.786C25.4192 291.616 24.9231 292.385 24.143 292.67C23.3629 292.954 22.4893 292.684 22.0051 292.008L16.5457 284.393L16.1308 283.809C15.5192 282.958 15.4148 281.842 15.8579 280.891C16.0249 280.556 16.2547 280.257 16.5348 280.009Z" fill="#361446"/>
<path d="M23.6019 286.785C23.6585 286.817 23.7226 286.834 23.7875 286.833C24.2467 286.843 24.7018 286.922 25.1378 287.066C25.2613 287.108 25.3977 287.08 25.4955 286.994C25.5933 286.908 25.6377 286.776 25.612 286.647C25.5862 286.519 25.4943 286.415 25.3708 286.373C24.8556 286.205 24.3184 286.114 23.7766 286.103C23.5756 286.103 23.4127 286.267 23.4127 286.468C23.4136 286.6 23.4861 286.722 23.6019 286.785Z" fill="#361446"/>
<path d="M22.9944 285.304C23.051 285.336 23.115 285.353 23.18 285.352C23.9011 285.371 24.6156 285.494 25.3019 285.716C25.4274 285.769 25.5715 285.747 25.6756 285.659C25.7798 285.572 25.8265 285.433 25.7969 285.3C25.7673 285.167 25.6662 285.062 25.5348 285.027C24.7707 284.776 23.9733 284.64 23.1691 284.626C22.9681 284.626 22.8052 284.789 22.8052 284.991C22.8074 285.122 22.8797 285.241 22.9944 285.304Z" fill="#361446"/>
<path d="M22.6051 283.916C22.66 283.948 22.7231 283.965 22.787 283.963C23.6601 283.984 24.5255 284.132 25.3566 284.401C25.4821 284.453 25.6262 284.431 25.7303 284.343C25.8344 284.256 25.8812 284.117 25.8516 283.985C25.822 283.852 25.7209 283.746 25.5895 283.711C24.6811 283.411 23.7326 283.25 22.7761 283.234C22.5751 283.234 22.4122 283.397 22.4122 283.598C22.4138 283.732 22.4878 283.853 22.6051 283.916Z" fill="#361446"/>
</svg>
