<svg width="15" height="15" viewBox="0 0 15 15" fill="none" xmlns="http://www.w3.org/2000/svg">
<path d="M3.762 14.791C3.762 14.635 3.732 14.557 3.672 14.557L3.258 14.755C3.258 14.671 3.21 14.611 3.114 14.575L2.97 14.557C2.874 14.557 2.754 14.599 2.61 14.683C2.586 14.623 2.556 14.563 2.52 14.503C2.484 14.443 2.454 14.389 2.43 14.341C2.274 14.041 2.118 13.711 1.962 13.351C1.818 12.979 1.68 12.625 1.548 12.289C1.428 11.953 1.332 11.689 1.26 11.497C1.212 11.341 1.158 11.107 1.098 10.795C1.038 10.483 0.977999 10.087 0.917999 9.60703C1.05 9.69103 1.152 9.73303 1.224 9.73303C1.308 9.73303 1.386 9.60703 1.458 9.35503C1.494 9.40303 1.56 9.42703 1.656 9.42703C1.728 9.42703 1.782 9.40303 1.818 9.35503L2.106 8.92303L2.43 9.03103H2.448C2.472 9.03103 2.496 9.01903 2.52 8.99503C2.544 8.97103 2.58 8.94703 2.628 8.92303C2.724 8.86303 2.796 8.83303 2.844 8.83303L2.898 8.85103C3.198 8.99503 3.39 9.25903 3.474 9.64303C3.69 10.555 3.906 11.011 4.122 11.011C4.338 11.011 4.59 10.783 4.878 10.327C5.022 10.099 5.166 9.83503 5.31 9.53503C5.466 9.23503 5.622 8.89903 5.778 8.52703C5.802 8.67103 5.826 8.74303 5.85 8.74303C5.91 8.74303 6.012 8.59303 6.156 8.29303C6.312 7.99303 6.558 7.57903 6.894 7.05103C7.086 6.72703 7.326 6.36103 7.614 5.95303C7.914 5.54503 8.232 5.12503 8.568 4.69303C8.904 4.26103 9.228 3.85303 9.54 3.46903C9.864 3.08503 10.152 2.75503 10.404 2.47903C10.656 2.20303 10.842 2.02303 10.962 1.93903C11.418 1.62703 11.778 1.32703 12.042 1.03903C12.03 1.12303 12.012 1.20103 11.988 1.27303C11.976 1.33303 11.97 1.37503 11.97 1.39903C11.97 1.44703 11.994 1.47103 12.042 1.47103L12.546 1.21903L12.546 1.29103C12.546 1.38703 12.57 1.43503 12.618 1.43503C12.654 1.43503 12.726 1.38103 12.834 1.27303C12.942 1.16503 13.002 1.08703 13.014 1.03903L12.978 1.29103L13.59 0.931029L13.446 1.25503C13.638 1.12303 13.776 1.05703 13.86 1.05703C13.908 1.05703 13.944 1.08703 13.968 1.14703C13.992 1.19503 14.004 1.24303 14.004 1.29103C14.004 1.36303 13.974 1.44703 13.914 1.54303C13.854 1.63903 13.776 1.75303 13.68 1.88503C13.608 1.98103 13.488 2.12503 13.32 2.31703C13.164 2.49703 12.924 2.76703 12.6 3.12703C12.276 3.47503 11.844 3.96103 11.304 4.58503C11.16 4.74103 10.938 5.01703 10.638 5.41303C10.338 5.79703 9.996 6.24703 9.612 6.76303C9.24 7.26703 8.868 7.77703 8.496 8.29303C8.124 8.80903 7.794 9.27703 7.506 9.69703C7.218 10.105 7.014 10.411 6.894 10.615L5.778 12.505C5.538 12.913 5.34 13.249 5.184 13.513C5.028 13.765 4.908 13.939 4.824 14.035C4.644 14.251 4.446 14.443 4.23 14.611L4.068 14.521L3.924 14.611L3.762 14.791Z" fill="white"/>
</svg>
