<svg width="25" height="22" viewBox="0 0 25 22" fill="none" xmlns="http://www.w3.org/2000/svg">
<mask id="path-1-inside-1" fill="white">
<path fill-rule="evenodd" clip-rule="evenodd" d="M24.1817 21.909H18.8774V14.239C18.8774 12.2314 18.0477 10.8609 16.2231 10.8609C14.8275 10.8609 14.0514 11.7858 13.6902 12.6771C13.5547 12.997 13.5759 13.4427 13.5759 13.8884V21.909H8.32096C8.32096 21.909 8.38869 8.32242 8.32096 7.0874H13.5759V9.41354C13.8863 8.39646 15.5656 6.9449 18.2452 6.9449C21.5698 6.9449 24.1817 9.07684 24.1817 13.6676V21.909ZM3.00685 5.23347H2.97298C1.27966 5.23347 0.181824 4.10044 0.181824 2.66424C0.181824 1.2001 1.31212 0.0908203 3.0393 0.0908203C4.76508 0.0908203 5.82623 1.19731 5.86009 2.66005C5.86009 4.09625 4.76508 5.23347 3.00685 5.23347ZM0.787226 7.08739H5.46502V21.909H0.787226V7.08739Z"/>
</mask>
<path fill-rule="evenodd" clip-rule="evenodd" d="M24.1817 21.909H18.8774V14.239C18.8774 12.2314 18.0477 10.8609 16.2231 10.8609C14.8275 10.8609 14.0514 11.7858 13.6902 12.6771C13.5547 12.997 13.5759 13.4427 13.5759 13.8884V21.909H8.32096C8.32096 21.909 8.38869 8.32242 8.32096 7.0874H13.5759V9.41354C13.8863 8.39646 15.5656 6.9449 18.2452 6.9449C21.5698 6.9449 24.1817 9.07684 24.1817 13.6676V21.909ZM3.00685 5.23347H2.97298C1.27966 5.23347 0.181824 4.10044 0.181824 2.66424C0.181824 1.2001 1.31212 0.0908203 3.0393 0.0908203C4.76508 0.0908203 5.82623 1.19731 5.86009 2.66005C5.86009 4.09625 4.76508 5.23347 3.00685 5.23347ZM0.787226 7.08739H5.46502V21.909H0.787226V7.08739Z" fill="#152361"/>
<path d="M18.8774 21.909H15.8774V24.909H18.8774V21.909ZM13.6902 12.6771L16.4528 13.8468L16.4618 13.8255L16.4705 13.8039L13.6902 12.6771ZM13.5759 21.909V24.909H16.5759V21.909H13.5759ZM8.32096 21.909L5.321 21.8941L5.30597 24.909H8.32096V21.909ZM8.32096 7.0874V4.0874H5.15192L5.32546 7.25169L8.32096 7.0874ZM13.5759 7.0874H16.5759V4.0874H13.5759V7.0874ZM13.5759 9.41354H10.5759L16.4452 10.2893L13.5759 9.41354ZM5.86009 2.66005H8.86009V2.62532L8.85929 2.59061L5.86009 2.66005ZM5.46502 7.08739H8.46502V4.08739H5.46502V7.08739ZM5.46502 21.909V24.909H8.46502V21.909H5.46502ZM0.787226 21.909H-2.21277V24.909H0.787226V21.909ZM24.1817 18.909H18.8774V24.909H24.1817V18.909ZM21.8774 21.909V14.239H15.8774V21.909H21.8774ZM21.8774 14.239C21.8774 12.8889 21.6086 11.3246 20.6533 10.0225C19.5932 8.57754 17.9856 7.86091 16.2231 7.86091V13.8609C16.3001 13.8609 16.241 13.8739 16.1136 13.813C15.9783 13.7483 15.8744 13.6519 15.8157 13.5718C15.7663 13.5045 15.7846 13.4986 15.8149 13.6158C15.8454 13.7338 15.8774 13.9366 15.8774 14.239H21.8774ZM16.2231 7.86091C13.1645 7.86091 11.5379 10.0006 10.9099 11.5503L16.4705 13.8039C16.4895 13.7572 16.5073 13.727 16.5165 13.7136C16.5252 13.7009 16.5168 13.7167 16.4826 13.7451C16.4449 13.7762 16.3892 13.8114 16.3215 13.8362C16.2524 13.8615 16.2121 13.8609 16.2231 13.8609V7.86091ZM10.9276 11.5074C10.6595 12.1406 10.6055 12.7381 10.587 13.0672C10.569 13.3864 10.5759 13.7683 10.5759 13.8884H16.5759C16.5759 13.8225 16.5755 13.7577 16.5752 13.7045C16.5749 13.6481 16.5747 13.6027 16.5747 13.5597C16.5748 13.5176 16.5751 13.4847 16.5757 13.4576C16.5762 13.4306 16.577 13.4136 16.5775 13.404C16.5781 13.3943 16.5782 13.3961 16.577 13.4068C16.5759 13.4175 16.573 13.4415 16.5667 13.476C16.5604 13.5105 16.5499 13.5601 16.5326 13.6212C16.5152 13.6825 16.4899 13.7592 16.4528 13.8468L10.9276 11.5074ZM10.5759 13.8884V21.909H16.5759V13.8884H10.5759ZM13.5759 18.909H8.32096V24.909H13.5759V18.909ZM8.32096 21.909C11.3209 21.924 11.3209 21.9239 11.3209 21.9238C11.3209 21.9237 11.3209 21.9235 11.3209 21.9233C11.3209 21.9229 11.3209 21.9223 11.3209 21.9214C11.3209 21.9198 11.321 21.9173 11.321 21.914C11.321 21.9074 11.3211 21.8976 11.3211 21.8847C11.3212 21.8589 11.3214 21.8205 11.3217 21.7705C11.3222 21.6705 11.3228 21.5238 11.3237 21.3366C11.3254 20.9622 11.3278 20.4262 11.3305 19.7791C11.3358 18.485 11.3421 16.7463 11.3464 14.9685C11.3546 11.4967 11.3565 7.65337 11.3165 6.92312L5.32546 7.25169C5.32545 7.25152 5.32579 7.25778 5.32636 7.27222C5.32691 7.28618 5.32756 7.30477 5.32827 7.32856C5.32971 7.37651 5.3312 7.43839 5.33268 7.51517C5.33564 7.66886 5.33827 7.86736 5.34054 8.10722C5.34507 8.58631 5.34796 9.21006 5.34954 9.93088C5.3527 11.3714 5.3506 13.1801 5.34637 14.9542C5.34214 16.7274 5.3358 18.4625 5.33051 19.7545C5.32787 20.4005 5.32549 20.9355 5.32377 21.309C5.32291 21.4957 5.32222 21.6421 5.32174 21.7417C5.3215 21.7915 5.32132 21.8297 5.32119 21.8553C5.32113 21.8681 5.32108 21.8778 5.32105 21.8843C5.32103 21.8876 5.32102 21.89 5.32101 21.8916C5.32101 21.8925 5.321 21.8931 5.321 21.8935C5.321 21.8937 5.321 21.8938 5.321 21.8939C5.321 21.894 5.321 21.8941 8.32096 21.909ZM8.32096 10.0874H13.5759V4.0874H8.32096V10.0874ZM10.5759 7.0874V9.41354H16.5759V7.0874H10.5759ZM16.4452 10.2893C16.3697 10.5367 16.2796 10.6176 16.3224 10.5684C16.3514 10.5352 16.4371 10.4499 16.5983 10.3504C16.9117 10.1568 17.4545 9.9449 18.2452 9.9449V3.9449C16.3562 3.9449 14.7196 4.45875 13.4459 5.24525C12.2644 5.97481 11.1429 7.10835 10.7066 8.53773L16.4452 10.2893ZM18.2452 9.9449C19.2625 9.9449 19.9061 10.2585 20.3019 10.6684C20.6999 11.0806 21.1817 11.9386 21.1817 13.6676H27.1817C27.1817 10.8058 26.3576 8.30249 24.6185 6.50105C22.8771 4.69729 20.5525 3.9449 18.2452 3.9449V9.9449ZM21.1817 13.6676V21.909H27.1817V13.6676H21.1817ZM3.00685 2.23347H2.97298V8.23347H3.00685V2.23347ZM2.97298 2.23347C2.88552 2.23347 2.86063 2.21925 2.88142 2.22709C2.90291 2.2352 2.95335 2.25978 3.01092 2.31458C3.06848 2.36938 3.1155 2.43778 3.14595 2.51032C3.17625 2.58249 3.18182 2.63847 3.18182 2.66424H-2.81818C-2.81818 5.89469 -0.236375 8.23347 2.97298 8.23347V2.23347ZM3.18182 2.66424C3.18182 2.68764 3.17644 2.74793 3.1424 2.82729C3.10816 2.90709 3.05664 2.97847 2.99821 3.03243C2.86904 3.15172 2.82384 3.09082 3.0393 3.09082V-2.90918C1.52757 -2.90918 0.0536431 -2.41544 -1.07247 -1.37547C-2.20909 -0.325803 -2.81818 1.12723 -2.81818 2.66424H3.18182ZM3.0393 3.09082C3.14953 3.09082 3.18402 3.10816 3.16384 3.10071C3.14159 3.09249 3.08526 3.06568 3.0215 3.0053C2.95784 2.94503 2.91242 2.87546 2.8858 2.81268C2.85994 2.75172 2.86065 2.71874 2.8609 2.72949L8.85929 2.59061C8.82557 1.13401 8.26491 -0.292806 7.14683 -1.35149C6.02807 -2.41082 4.55751 -2.90918 3.0393 -2.90918V3.09082ZM2.86009 2.66005C2.86009 2.63536 2.86546 2.57775 2.89726 2.50234C2.92943 2.42607 2.97897 2.355 3.03829 2.29925C3.09744 2.24365 3.1454 2.2227 3.1563 2.21868C3.16595 2.21512 3.12231 2.23347 3.00685 2.23347V8.23347C4.54375 8.23347 6.02496 7.72623 7.14732 6.67141C8.27286 5.61362 8.86009 4.16588 8.86009 2.66005H2.86009ZM0.787226 10.0874H5.46502V4.08739H0.787226V10.0874ZM2.46502 7.08739V21.909H8.46502V7.08739H2.46502ZM5.46502 18.909H0.787226V24.909H5.46502V18.909ZM3.78723 21.909V7.08739H-2.21277V21.909H3.78723Z" fill="#152361" mask="url(#path-1-inside-1)"/>
</svg>
