<svg width="22" height="26" viewBox="0 0 22 26" fill="none" xmlns="http://www.w3.org/2000/svg">
<path fill-rule="evenodd" clip-rule="evenodd" d="M13.5115 17.6831C14.3825 16.7611 15.6123 16.182 16.9772 16.182C19.6086 16.182 21.75 18.3226 21.75 20.9548C21.75 23.5869 19.6094 25.7275 16.9772 25.7275C14.3451 25.7275 12.2045 23.5869 12.2045 20.9548C12.2045 20.2595 12.3573 19.6009 12.6245 19.0043L8.51441 16.2727C8.50005 16.2882 8.48706 16.3043 8.47409 16.3204C8.45903 16.3391 8.444 16.3578 8.42691 16.3753C7.51373 17.279 6.31498 17.7729 5.04543 17.7729C2.41327 17.7729 0.272705 15.6324 0.272705 13.0002C0.272705 10.3681 2.41407 8.22749 5.04543 8.22749C6.41282 8.22749 7.63861 8.78272 8.5152 9.72613L12.6325 6.9834C12.3604 6.37568 12.2045 5.72499 12.2045 5.04568C12.2045 2.41352 14.3451 0.272949 16.9772 0.272949C19.6094 0.272949 21.75 2.41352 21.75 5.04568C21.75 7.67784 19.6094 9.8184 16.9772 9.8184C15.648 9.8184 14.4071 9.27272 13.5043 8.3134L9.3918 11.0529C9.39896 11.0692 9.4072 11.0843 9.41541 11.0994L9.41542 11.0994L9.41542 11.0994C9.42452 11.1162 9.43359 11.1328 9.44111 11.1508C9.97009 12.4187 9.93111 13.7702 9.39816 14.9491L13.5115 17.6831ZM20.1591 5.04567C20.1591 3.2909 18.732 1.86385 16.9773 1.86385C15.2217 1.86385 13.7955 3.2909 13.7955 5.04567C13.7955 5.75999 14.0285 6.43851 14.4716 7.00805C15.0793 7.78124 15.9941 8.22749 16.9773 8.22749C18.732 8.22749 20.1591 6.79965 20.1591 5.04567ZM5.04545 16.182C3.29068 16.182 1.86364 14.7542 1.86364 13.0002C1.86364 11.2454 3.29068 9.8184 5.04545 9.8184C9.19216 9.8184 9.30273 16.182 5.04545 16.182ZM13.7955 20.9548C13.7955 22.7087 15.2225 24.1366 16.9773 24.1366C18.732 24.1366 20.1591 22.7087 20.1591 20.9548C20.1591 19.2 18.732 17.7729 16.9773 17.7729C15.2225 17.7729 13.7955 19.2 13.7955 20.9548Z" fill="#152361"/>
<path fill-rule="evenodd" clip-rule="evenodd" d="M16.9773 1.86377C18.7321 1.86377 20.1591 3.29081 20.1591 5.04559C20.1591 6.79957 18.7321 8.22741 16.9773 8.22741C15.9941 8.22741 15.0793 7.78116 14.4716 7.00797C14.0285 6.43843 13.7955 5.75991 13.7955 5.04559C13.7955 3.29081 15.2217 1.86377 16.9773 1.86377Z" fill="#152361"/>
<path fill-rule="evenodd" clip-rule="evenodd" d="M5.04547 16.182C3.29069 16.182 1.86365 14.7542 1.86365 13.0002C1.86365 11.2454 3.29069 9.81836 5.04547 9.81836C9.19217 9.81836 9.30274 16.182 5.04547 16.182Z" fill="#152361"/>
<path fill-rule="evenodd" clip-rule="evenodd" d="M16.9773 24.1366C15.2225 24.1366 13.7955 22.7087 13.7955 20.9548C13.7955 19.2 15.2225 17.7729 16.9773 17.7729C18.7321 17.7729 20.1591 19.2 20.1591 20.9548C20.1591 22.7087 18.7321 24.1366 16.9773 24.1366Z" fill="#152361"/>
</svg>
