<svg width="24" height="24" viewBox="0 0 24 24" fill="none" xmlns="http://www.w3.org/2000/svg">
<path fill-rule="evenodd" clip-rule="evenodd" d="M12 0.181641C8.79038 0.181641 8.38792 0.195245 7.12738 0.25276C5.86948 0.310134 5.01037 0.509933 4.25865 0.802103C3.4815 1.10408 2.82243 1.50818 2.16537 2.16519C1.50836 2.82224 1.10426 3.48131 0.802286 4.25846C0.510116 5.01019 0.310317 5.86929 0.252943 7.1272C0.195428 8.38774 0.181824 8.7902 0.181824 11.9998C0.181824 15.2094 0.195428 15.6119 0.252943 16.8724C0.310317 18.1304 0.510116 18.9895 0.802286 19.7412C1.10426 20.5183 1.50836 21.1774 2.16537 21.8345C2.82243 22.4915 3.4815 22.8956 4.25865 23.1976C5.01037 23.4897 5.86948 23.6895 7.12738 23.7469C8.38792 23.8044 8.79038 23.818 12 23.818C15.2096 23.818 15.6121 23.8044 16.8726 23.7469C18.1305 23.6895 18.9896 23.4897 19.7414 23.1976C20.5185 22.8956 21.1776 22.4915 21.8346 21.8345C22.4916 21.1774 22.8958 20.5183 23.1978 19.7412C23.4899 18.9895 23.6897 18.1304 23.7471 16.8724C23.8046 15.6119 23.8182 15.2094 23.8182 11.9998C23.8182 8.7902 23.8046 8.38774 23.7471 7.1272C23.6897 5.86929 23.4899 5.01019 23.1978 4.25846C22.8958 3.48131 22.4916 2.82224 21.8346 2.16519C21.1776 1.50818 20.5185 1.10408 19.7414 0.802103C18.9896 0.509933 18.1305 0.310134 16.8726 0.25276C15.6121 0.195245 15.2096 0.181641 12 0.181641ZM11.9999 2.31104C15.1555 2.31104 15.5293 2.3231 16.7754 2.37995C17.9277 2.4325 18.5535 2.62503 18.9699 2.78687C19.5216 3.00126 19.9152 3.25736 20.3288 3.67094C20.7424 4.08447 20.9985 4.47816 21.2128 5.0298C21.3747 5.44624 21.5672 6.072 21.6198 7.22426C21.6766 8.47044 21.6887 8.84424 21.6887 11.9998C21.6887 15.1554 21.6766 15.5292 21.6198 16.7754C21.5672 17.9276 21.3747 18.5534 21.2128 18.9698C20.9985 19.5215 20.7424 19.9152 20.3288 20.3287C19.9152 20.7423 19.5216 20.9984 18.9699 21.2128C18.5535 21.3746 17.9277 21.5672 16.7754 21.6197C15.5295 21.6765 15.1557 21.6886 11.9999 21.6886C8.84407 21.6886 8.47037 21.6765 7.22433 21.6197C6.07207 21.5672 5.44631 21.3746 5.02987 21.2128C4.47822 20.9984 4.08453 20.7423 3.671 20.3287C3.25747 19.9152 3.00133 19.5215 2.78694 18.9698C2.62509 18.5534 2.43256 17.9276 2.38002 16.7754C2.32316 15.5292 2.31111 15.1554 2.31111 11.9998C2.31111 8.84424 2.32316 8.47044 2.38002 7.22426C2.43256 6.072 2.62509 5.44624 2.78694 5.0298C3.00133 4.47816 3.25742 4.08447 3.671 3.67094C4.08453 3.25736 4.47822 3.00126 5.02987 2.78687C5.44631 2.62503 6.07207 2.4325 7.22433 2.37995C8.47051 2.3231 8.84431 2.31104 11.9999 2.31104ZM5.93105 11.9999C5.93105 8.64811 8.64812 5.93104 11.9999 5.93104C15.3516 5.93104 18.0686 8.64811 18.0686 11.9999C18.0686 15.3516 15.3516 18.0686 11.9999 18.0686C8.64812 18.0686 5.93105 15.3516 5.93105 11.9999ZM12 15.9392C9.82434 15.9392 8.06062 14.1755 8.06062 11.9998C8.06062 9.82413 9.82434 8.06041 12 8.06041C14.1757 8.06041 15.9394 9.82413 15.9394 11.9998C15.9394 14.1755 14.1757 15.9392 12 15.9392ZM18.3085 7.10941C19.0917 7.10941 19.7267 6.4745 19.7267 5.69125C19.7267 4.908 19.0917 4.27304 18.3085 4.27304C17.5253 4.27304 16.8903 4.908 16.8903 5.69125C16.8903 6.4745 17.5253 7.10941 18.3085 7.10941Z" fill="#152361"/>
<path fill-rule="evenodd" clip-rule="evenodd" d="M12 0.181641C15.8491 0.181641 16.3051 0.196347 17.8251 0.265701C19.2306 0.32979 19.9939 0.564632 20.5019 0.762051C21.1748 1.02356 21.655 1.33594 22.1594 1.84041C22.6639 2.34483 22.9763 2.82504 23.2378 3.49793C23.4352 4.00589 23.67 4.76919 23.7341 6.17469C23.8035 7.69476 23.8182 8.15071 23.8182 11.9999C23.8182 15.8489 23.8035 16.3049 23.7341 17.825C23.67 19.2305 23.4352 19.9938 23.2378 20.5017C22.9763 21.1746 22.6639 21.6548 22.1594 22.1592C21.655 22.6637 21.1748 22.9761 20.5019 23.2376C19.9939 23.435 19.2306 23.6699 17.8251 23.7339C16.3053 23.8033 15.8494 23.818 12 23.818C8.1506 23.818 7.69477 23.8033 6.17487 23.7339C4.76937 23.6699 4.00608 23.435 3.49811 23.2376C2.82523 22.9761 2.34501 22.6637 1.8406 22.1592C1.33618 21.6548 1.02374 21.1746 0.762234 20.5017C0.564815 19.9938 0.329973 19.2305 0.265884 17.825C0.19653 16.3049 0.181824 15.8489 0.181824 11.9999C0.181824 8.15071 0.19653 7.69476 0.265884 6.17469C0.329973 4.76919 0.564815 4.00589 0.762234 3.49793C1.02374 2.82504 1.33612 2.34483 1.8406 1.84041C2.34501 1.33594 2.82523 1.02356 3.49811 0.762051C4.00608 0.564632 4.76937 0.32979 6.17487 0.265701C7.69494 0.196347 8.15089 0.181641 12 0.181641Z" fill="#152361"/>
<path fill-rule="evenodd" clip-rule="evenodd" d="M12 4.72705C7.98329 4.72705 4.7272 7.98314 4.7272 11.9998C4.7272 16.0164 7.98329 19.2725 12 19.2725C16.0166 19.2725 19.2727 16.0164 19.2727 11.9998C19.2727 7.98314 16.0166 4.72705 12 4.72705Z" fill="#FFF8ED"/>
<path fill-rule="evenodd" clip-rule="evenodd" d="M12 16.5455C9.48956 16.5455 7.4545 14.5104 7.4545 12.0001C7.4545 9.48965 9.48956 7.45459 12 7.45459C14.5103 7.45459 16.5454 9.48965 16.5454 12.0001C16.5454 14.5104 14.5103 16.5455 12 16.5455Z" fill="#152361"/>
<path fill-rule="evenodd" clip-rule="evenodd" d="M21.0909 4.27235C21.0909 5.02547 20.4803 5.63596 19.7272 5.63596C18.9741 5.63596 18.3636 5.02547 18.3636 4.27235C18.3636 3.51923 18.9741 2.90869 19.7272 2.90869C20.4803 2.90869 21.0909 3.51923 21.0909 4.27235Z" fill="#FFF8ED"/>
</svg>
