<svg width="27" height="24" viewBox="0 0 27 24" fill="none" xmlns="http://www.w3.org/2000/svg">
<path id="LinkedIn" fill-rule="evenodd" clip-rule="evenodd" d="M26.4 24H20.5652V15.563C20.5652 13.3547 19.6525 11.8471 17.6455 11.8471C16.1104 11.8471 15.2567 12.8644 14.8593 13.8449C14.7103 14.1968 14.7336 14.6871 14.7336 15.1773V24H8.95315C8.95315 24 9.02766 9.05475 8.95315 7.69623H14.7336V10.255C15.0751 9.1362 16.9222 7.53948 19.8699 7.53948C23.5269 7.53948 26.4 9.88461 26.4 14.9345V24ZM3.10753 5.65691H3.07027C1.20762 5.65691 0 4.41058 0 2.83076C0 1.22021 1.24332 0 3.14323 0C5.04158 0 6.20884 1.21714 6.2461 2.82615C6.2461 4.40597 5.04158 5.65691 3.10753 5.65691ZM0.665898 7.69623H5.81148V24H0.665898V7.69623Z" fill="white"/>
</svg>
