<svg width="335" height="317" viewBox="0 0 335 317" fill="none" xmlns="http://www.w3.org/2000/svg">
<path d="M21.8425 136.49L25.4178 139.69L161.012 138.95L162.328 136.49L150.357 132.818L59.1722 131.181L21.8425 136.49Z" fill="#F3CF7A"/>
<path d="M227.964 25.1382L251.001 29.653L257.685 28.4527L260.214 27.3956L258.823 23.8425L258.945 22.5906L258.088 21.2076L259.261 19.4072L256.658 14.7016L246.532 7.94531L235.964 10.8267L230.291 12.631L231.125 15.9933L228.592 17.8811V18.7991L226.68 20.2736L227.964 25.1382Z" fill="#45B7B8"/>
<path d="M229.086 41.4729L232.31 28.5127L251.621 33.9774L252.087 38.2935L246.781 46.8303L231.769 49.8229L229.086 41.4729Z" fill="#EFA08D"/>
<path d="M251.411 46.2895L229.086 45.9199L222.26 52.5928L233.906 60.3387L241.981 59.9691L252.889 48.8092L251.411 46.2895Z" fill="#706381"/>
<path d="M158.693 112.76C158.693 112.76 160.669 115.359 160.91 115.232C161.151 115.105 165.651 111.711 165.69 111.54C165.73 111.369 167.44 101.207 167.014 100.662C166.587 100.118 156.003 89.2956 155.833 89.2081C155.663 89.1207 153.028 94.2396 153.028 94.2396C153.028 94.2396 153.028 102.435 153.028 102.606C153.028 102.776 158.693 112.76 158.693 112.76Z" fill="#45B7B8"/>
<path d="M272.868 94.9746L279.722 105.419L278.805 116.36L251.411 114.926L259.495 98.0825L272.868 94.9746Z" fill="#28999A"/>
<path d="M272.868 94.9748L285.842 89.7684L280.623 65.4655C280.623 65.4655 264.279 55.0648 263.663 54.6634C263.046 54.262 220.296 67.3096 220.296 67.3096L190.488 79.7293L195.996 54.6634L186.972 70.0479L180.335 81.4343C180.335 81.4343 182.472 98.19 182.895 98.0827C183.318 97.9754 217.487 100.662 217.487 100.662L272.868 94.9748Z" fill="#28999A"/>
<path d="M266.914 175.999L248.954 181.674L164.248 161.294L174.488 154.236L175.725 151.696L182.48 126.276L247.801 144.801L265.01 168.567L266.914 175.999Z" fill="#171E2A"/>
<path d="M287.205 141.084L248.954 126.729L167.302 134.066L162.328 125.612L158.693 112.759L160.139 111.166L166.089 110.947L259.621 115.712L279.651 113.745L284.392 105.439L272.868 94.9744L273.512 87.0536L289.887 81.6406L299.527 112.553L303.43 120.748L303.821 124.225L299.523 135.254L287.205 141.084Z" fill="#171E2A"/>
<path d="M167.476 316.769C75.0573 316.769 0.137482 311.212 0.137482 304.357C0.137482 297.502 75.0573 291.945 167.476 291.945C259.894 291.945 334.814 297.502 334.814 304.357C334.814 311.212 259.894 316.769 167.476 316.769Z" fill="#E2E2E2"/>
<path d="M92.0852 224.199C93.1762 224.199 94.0606 223.309 94.0606 222.212V138.946C94.0606 137.849 93.1762 136.959 92.0852 136.959C90.9943 136.959 90.1099 137.849 90.1099 138.946V222.208C90.1088 222.736 90.3165 223.242 90.6871 223.616C91.0576 223.989 91.5607 224.199 92.0852 224.199Z" fill="#B57E37"/>
<path d="M37.6016 304.901H41.9197L92.267 225.618L94.6097 221.926L146.624 140.019C147.211 139.094 146.941 137.866 146.022 137.275C145.102 136.685 143.881 136.956 143.294 137.881L92.267 218.234L89.9242 221.926L37.9098 303.832C37.7079 304.152 37.601 304.523 37.6016 304.901Z" fill="#F3CF7A"/>
<path d="M37.9098 140.019L89.9242 221.926L92.267 225.618L142.614 304.901H146.932C146.933 304.523 146.826 304.152 146.624 303.832L94.6097 221.926L92.267 218.234L41.2481 137.881C40.6612 136.956 39.4398 136.685 38.5202 137.275C37.6005 137.866 37.3308 139.094 37.9177 140.019H37.9098Z" fill="#F3CF7A"/>
<path d="M162.328 136.53H21.8425V141.375H162.328V136.53Z" fill="#D39D48"/>
<path d="M21.8424 136.491H162.328L149.413 128.185H34.7571L21.8424 136.491Z" fill="#F3CF7A"/>
<path d="M243.356 304.902H247.366L261.395 247.958L262.939 241.691L274.132 196.249V196.177L282.863 144.817C283.047 143.735 282.324 142.708 281.249 142.522C280.173 142.337 279.152 143.063 278.967 144.146L270.276 195.434L260.332 235.793L258.791 242.057L243.427 304.421C243.384 304.578 243.36 304.74 243.356 304.902Z" fill="#F3CF7A"/>
<path d="M239.39 198.371L248.286 218.433L252.577 228.102L254.339 232.077L258.779 242.076L261.395 247.97L286.679 304.914H290.8C290.797 304.64 290.739 304.37 290.63 304.119L262.939 241.722L260.32 235.836L258.661 232.097L256.903 228.122L250.803 214.371L242.997 196.785C242.709 196.137 242.099 195.692 241.397 195.619C240.695 195.546 240.007 195.855 239.593 196.43C239.179 197.005 239.102 197.758 239.39 198.406V198.371Z" fill="#F3CF7A"/>
<path d="M171.652 304.902H175.677L186.794 265.159L195.6 233.687L205.556 198.097C205.801 197.059 205.188 196.013 204.168 195.725C203.148 195.437 202.083 196.01 201.756 197.024L192.863 228.818L183.357 262.794L171.727 304.374C171.677 304.545 171.652 304.723 171.652 304.902Z" fill="#F3CF7A"/>
<path d="M192.586 230.074C192.586 231.172 193.47 232.061 194.561 232.061H258.534C258.577 232.065 258.619 232.065 258.661 232.061L256.903 228.087H194.561C193.47 228.087 192.586 228.977 192.586 230.074Z" fill="#F3CF7A"/>
<rect width="94.729" height="6.58545" rx="3.29272" transform="matrix(-1 0 0 1 282.894 190.974)" fill="#D39D48"/>
<path d="M227.411 34.9353C227.411 37.222 227.987 39.4715 229.086 41.473C229.252 41.779 229.434 42.0771 229.624 42.3712C232.407 46.6445 237.974 48.0724 242.451 45.6619L242.526 45.6222L244.253 44.6723C247.224 43.0475 249.878 40.8929 252.083 38.3134C252.233 38.1386 252.383 37.9597 252.53 37.7769C252.771 37.4952 253.155 37.3831 253.509 37.4908C255.678 38.0591 258.305 33.5641 258.732 31.4141C258.969 30.2218 258.677 29.4746 258.337 29.0295C258.076 28.9058 257.846 28.7237 257.665 28.4969V28.4651L257.788 28.179C258.183 26.8039 257.748 21.4982 228.229 20.2939L227.941 25.1585L227.411 34.1484C227.419 34.3988 227.411 34.669 227.411 34.9353Z" fill="#EFA08D"/>
<path d="M227.964 25.1381L228.253 20.2735C257.74 21.4658 258.207 26.7715 257.812 28.1546C257.783 28.2548 257.742 28.3509 257.689 28.4407V28.4725C257.953 28.5919 258.184 28.7748 258.361 29.0051C259.111 29.4025 260.557 29.6688 262.995 28.4685C266.969 26.5132 263.631 24.1207 259.175 22.6462L258.961 22.5747C248.579 19.1766 236.336 17.6783 228.608 17.8651C224.203 17.9684 221.268 18.6202 220.98 19.7767C220.391 22.1017 225.223 24.1644 227.964 25.1381Z" fill="#28999A"/>
<path d="M228.592 17.8815C233.339 17.8337 238.082 18.1713 242.775 18.891C248.253 19.6682 253.657 20.9059 258.93 22.591C259.013 21.8319 259.131 20.7072 259.246 19.4116C255.369 16.9743 251.168 15.1011 246.769 13.8476C241.418 12.277 235.795 11.8706 230.275 12.6553C229.498 14.3192 228.933 16.0752 228.592 17.8815Z" fill="#F7DE1C"/>
<path d="M230.291 12.6311C235.811 11.8464 241.434 12.2529 246.785 13.8234C251.184 15.0769 255.384 16.9502 259.261 19.3874C259.585 15.7589 259.87 10.787 259.261 8.76014C257.804 3.8479 249.646 1.30435 243.107 0.557176C239.461 0.159746 236.32 0.282949 235.123 0.883069C233.78 1.5587 236.13 4.42815 234.526 6.54645C233.302 8.19182 231.642 9.80538 230.291 12.6311Z" fill="#45B7B8"/>
<path d="M273.511 94.7319C274.162 94.537 274.844 94.4762 275.518 94.5531L282.017 95.3002C284.191 95.5504 285.834 97.3993 285.838 99.6004V105.959C285.838 105.959 296.722 112.362 303.829 116.646C302.964 100.352 296.907 79.089 288.548 65.4492C284.897 71.212 277.557 83.425 273.511 94.7319Z" fill="#171E2A"/>
<path d="M186.273 85.432C188.304 86.8151 189.829 87.8722 190.717 88.4843C191.232 88.8411 191.905 88.8659 192.444 88.5479C194.719 87.2244 197.185 85.905 199.796 84.5974C221.746 73.5687 253.525 63.3667 261.687 60.8152C262.15 60.6713 262.653 60.7571 263.043 61.0465C263.433 61.3359 263.663 61.7944 263.662 62.2817V63.8714L264.358 63.6568L265.266 63.3826C265.682 63.2575 266.132 63.3238 266.495 63.5638C266.858 63.8037 267.096 64.1928 267.147 64.6265C268.451 74.8442 270.361 84.9743 272.868 94.9624C273.077 94.8675 273.292 94.7865 273.511 94.72C277.557 83.4131 284.897 71.2 288.548 65.4532C285.111 59.8415 281.282 55.5174 277.265 53.3594C273.156 51.1497 268.34 49.4646 263.125 48.2365C259.268 47.3462 255.36 46.6958 251.423 46.2891C249.121 49.6873 245.943 52.3911 242.23 54.1105C241.466 54.4389 240.833 55.0154 240.433 55.7479C239.76 57.049 238.914 58.2522 237.92 59.3248C237.672 59.5761 237.323 59.6992 236.973 59.6589C236.624 59.6186 236.311 59.4194 236.126 59.1182C235.397 57.9343 234.825 56.6597 234.424 55.3267C234.166 54.4501 233.593 53.7018 232.816 53.2282C231.184 52.2347 228.588 49.9892 229.098 45.9274L229.047 45.8877C215.042 46.8058 202.641 49.8143 197.027 53.8363C196.672 54.0931 196.332 54.3691 196.007 54.663C194.135 58.7881 192.476 63.0078 191.037 67.3052C189.039 73.2307 187.447 79.2872 186.273 85.432Z" fill="#706381"/>
<path d="M229.086 45.9199V41.4727C229.252 41.7787 229.434 42.0768 229.624 42.3708C232.407 46.6441 237.974 48.072 242.451 45.6616C245.454 45.7609 248.449 45.9676 251.404 46.2855C250.876 47.0863 250.289 47.845 249.646 48.5549C247.591 50.9129 245.06 52.803 242.222 54.099C241.458 54.4274 240.825 55.0039 240.425 55.7364C239.752 57.0375 238.906 58.2407 237.912 59.3133C237.664 59.5646 237.315 59.6877 236.966 59.6474C236.616 59.6071 236.304 59.4079 236.119 59.1067C235.389 57.9228 234.817 56.6482 234.416 55.3152C234.158 54.4386 233.585 53.6903 232.808 53.2167C231.172 52.2271 228.577 49.9816 229.086 45.9199Z" fill="#ED8B7B"/>
<path d="M180.335 81.434C182.595 82.9403 184.602 84.2955 186.261 85.4321C188.279 74.8246 191.543 64.4958 195.984 54.6631C190.947 59.2017 185.013 70.8782 180.335 81.434Z" fill="#2C3848"/>
<path d="M278.805 116.36C281.903 126.427 284.961 135.063 287.205 141.084C291.243 141.942 295.452 140.944 298.685 138.362C299.358 137.83 299.949 137.2 300.439 136.494C302.415 133.712 303.505 129.388 303.829 124.122C303.969 121.639 303.969 119.149 303.829 116.666C298.721 113.586 291.661 109.413 288.093 107.311L287.868 107.176L286.031 106.091L285.909 106.019L285.853 105.991C285.853 105.991 286.177 111.829 281.863 114.941C280.936 115.593 279.9 116.074 278.805 116.36Z" fill="#2C3848"/>
<path d="M147.478 63.1323C148.519 65.1803 149.457 67.2801 150.286 69.4237C151.257 71.9327 152.091 74.4934 152.783 77.0941C162.368 79.7489 171.509 82.984 178.51 85.6666C181.295 86.7318 183.741 87.7134 185.74 88.5361C188.205 89.5495 189.991 90.3206 190.895 90.718C191.326 90.9058 191.816 90.8957 192.239 90.6902C217.309 78.4533 252.806 67.21 263.67 63.8835V62.2938C263.671 61.8064 263.441 61.3479 263.051 61.0585C262.661 60.7692 262.158 60.6833 261.695 60.8272C252.557 63.6808 213.872 76.1124 192.452 88.5599C191.913 88.878 191.24 88.8532 190.725 88.4963C189.848 87.8843 188.312 86.8271 186.281 85.4441C184.61 84.3074 182.603 82.9522 180.355 81.4459C171.861 75.7865 159.811 68.0168 148.837 61.8526C148.466 61.6357 147.997 61.6891 147.684 61.9841C147.371 62.279 147.287 62.7457 147.478 63.1323Z" fill="#28999A"/>
<path d="M137.822 75.6003C141.346 78.6565 147.256 84.6219 153.028 94.2397C153.664 94.2142 154.296 94.351 154.865 94.6372L158.049 96.2666C160.517 97.5294 162.37 99.745 163.185 102.407L163.549 103.599C164.062 105.265 163.244 107.053 161.652 107.744L160.072 108.432C160.599 109.736 161.115 111.083 161.621 112.474C162.356 114.49 163.055 116.59 163.719 118.773C165.218 123.794 166.416 128.901 167.306 134.066C167.898 137.436 168.386 140.97 168.768 144.666C168.896 145.915 169.534 147.055 170.53 147.813C171.715 148.708 173.485 150.051 175.729 151.696C178.609 153.799 182.247 156.394 186.332 159.156C194.471 164.664 204.387 170.836 213.592 175.141C214.651 175.634 215.862 175.679 216.954 175.264L218.139 174.807C223.464 172.78 235.522 168.233 248.954 163.48C255.141 161.286 261.596 159.045 267.842 156.99C275.254 154.546 282.314 152.36 288.133 150.822C288.778 150.643 289.317 150.197 289.618 149.596C289.919 148.995 289.954 148.294 289.713 147.666C289.101 146.116 288.236 143.883 287.197 141.089C285.593 136.785 283.57 131.153 281.417 124.591C280.559 121.984 279.678 119.234 278.797 116.365C278.118 114.151 277.434 111.862 276.755 109.521C276.162 109.493 275.57 109.441 274.981 109.374L271.595 108.976C269.749 108.76 268.253 107.367 267.898 105.531L267.503 103.544C267.143 101.678 267.72 99.7531 269.043 98.3969L271.358 96.0242C271.792 95.5801 272.304 95.2203 272.868 94.9631C270.361 84.9749 268.451 74.8449 267.147 64.6272C267.094 64.1918 266.852 63.8026 266.485 63.5646C266.119 63.3267 265.667 63.2646 265.251 63.3952L263.647 63.884C252.79 67.2105 217.294 78.4538 192.207 90.6947C191.784 90.9002 191.294 90.9103 190.864 90.7225C189.959 90.325 188.173 89.554 185.708 88.5406C183.709 87.7179 181.264 86.7363 178.478 85.6711C171.478 82.9885 162.336 79.7534 152.752 77.0986C148.102 75.8109 143.349 74.6623 138.683 73.7761C138.225 73.704 137.775 73.9435 137.576 74.3647C137.377 74.786 137.477 75.2887 137.822 75.6003Z" fill="#45B7B8"/>
<path d="M267.518 103.536L267.913 105.523C268.269 107.359 269.764 108.752 271.611 108.969L274.997 109.366C275.586 109.434 276.182 109.485 276.771 109.513C277.45 111.854 278.134 114.143 278.813 116.357C279.918 116.059 280.961 115.564 281.891 114.894C286.165 111.778 285.841 105.972 285.841 105.972V99.6011C285.842 97.397 284.198 95.5435 282.021 95.293L275.522 94.5537C274.848 94.4769 274.166 94.5377 273.515 94.7326C273.295 94.7969 273.08 94.878 272.871 94.975C272.308 95.2323 271.796 95.592 271.362 96.0362L269.063 98.3889C268.882 98.575 268.713 98.7728 268.557 98.9811C267.589 100.284 267.211 101.938 267.518 103.536Z" fill="#ED8B7B"/>
<path d="M248.954 163.475C258.74 167.191 264.152 172.418 266.914 175.998C268.078 169.732 268.39 163.336 267.842 156.985C261.612 159.04 255.141 161.282 248.954 163.475Z" fill="#706381"/>
<path d="M164.248 161.294C169.846 160.615 177.613 159.78 186.328 159.156C182.243 156.374 178.605 153.799 175.725 151.696C172.477 154.26 168.511 157.558 164.248 161.294Z" fill="#706381"/>
<path d="M162.012 247.047C172.679 255.596 186.949 265.385 197.793 272.554L200.839 258.247L203.186 247.206L201.645 244.46L198.089 238.137L178.858 203.866C187.627 200.267 196.139 196.061 204.331 191.28C204.525 191.538 204.727 191.797 204.892 192.047L208.053 196.355L212.659 202.65L203.178 247.206L210.949 261.057L214.524 267.416C226.799 250.743 247.473 221.707 257.744 202.138C262.122 193.948 265.209 185.125 266.898 175.983C264.48 172.851 260.036 168.455 252.407 164.918C251.317 164.415 250.16 163.929 248.938 163.46C234.396 168.626 221.43 173.531 216.938 175.248C215.846 175.662 214.635 175.618 213.576 175.124C204.375 170.82 194.459 164.648 186.316 159.14C177.601 159.764 169.834 160.598 164.236 161.278C149.911 173.821 139.888 184.838 135.001 195.556C127.503 212.002 142.385 231.285 162.012 247.047Z" fill="#2C3848"/>
<path d="M196.999 276.294L204.762 280.539C204.762 280.539 205.386 279.744 206.504 278.238C204.047 276.648 201.08 274.725 197.793 272.555L196.999 276.294Z" fill="#171E2A"/>
<path d="M191.606 289.401L203.332 303.061C204.049 303.9 205.232 304.161 206.232 303.7C207.232 303.239 207.809 302.168 207.646 301.074L204.762 280.523L196.999 276.278L191.642 282.419C189.901 284.412 189.886 287.39 191.606 289.401Z" fill="#0C1016"/>
<path d="M197.793 272.555C201.08 274.725 204.047 276.656 206.504 278.238C210.897 281.072 213.655 282.793 213.655 282.793L219.34 275.997L214.536 267.436L210.961 261.077L203.19 247.227L200.855 258.243L197.793 272.555Z" fill="#2C3848"/>
<path d="M213.655 282.792L218.416 302.99C218.662 304.07 219.59 304.855 220.691 304.914C221.791 304.973 222.797 304.292 223.156 303.244L229.122 286.222C230.001 283.715 228.904 280.94 226.554 279.724L219.348 275.996L213.655 282.792Z" fill="#171E2A"/>
<path d="M149.662 97.3396C149.661 97.6082 149.697 97.8757 149.769 98.1344L151.788 105.344C151.941 105.892 152.146 106.424 152.4 106.934C153.079 108.316 154.093 109.505 155.347 110.391L158.693 112.776L161.633 112.494C161.132 111.103 160.616 109.755 160.084 108.452L161.664 107.764C163.256 107.073 164.074 105.285 163.561 103.619L163.197 102.427C162.694 100.779 161.787 99.2846 160.558 98.0828C159.818 97.3626 158.975 96.7584 158.057 96.2904L154.873 94.6609C153.485 93.9523 151.808 94.1647 150.638 95.1974C150.022 95.7377 149.667 96.5178 149.662 97.3396Z" fill="#ED8B7B"/>
<path d="M167.302 134.066C166.047 126.716 164.15 119.492 161.633 112.478L158.693 112.76C158.693 112.76 152.337 123.983 167.302 134.066Z" fill="#2C3848"/>
<path d="M212.659 202.647L203.178 247.203L210.949 261.053C210.767 260.549 205.181 244.683 216.334 230.054C225.349 218.294 225.519 206.113 224.733 193.26C224.244 185.83 227.488 178.648 233.373 174.131C238.114 170.527 244.541 166.791 252.423 164.935C251.332 164.431 250.176 163.945 248.954 163.476C234.412 168.643 221.446 173.547 216.954 175.264C215.862 175.679 214.651 175.634 213.592 175.141C204.391 170.837 194.475 164.665 186.332 159.156C186.332 159.156 187.15 168.098 204.343 191.277C204.537 191.535 204.738 191.793 204.904 192.044L212.659 202.647Z" fill="#171E2A"/>
<path d="M198.089 238.134L178.858 203.863C187.627 200.264 196.139 196.058 204.331 191.277C204.525 191.535 204.726 191.793 204.892 192.044L208.053 196.352L208.567 190.975L186.328 159.156C186.328 159.156 190.105 182.02 172.71 191.984C155.809 201.665 183.693 213.525 201.645 244.445L198.089 238.134Z" fill="#171E2A"/>
<path d="M229.624 42.3712C232.407 46.6445 237.974 48.0724 242.451 45.662L242.526 45.6222L244.253 44.6724C247.224 43.0476 249.878 40.8929 252.083 38.3135L251.423 46.2859C250.896 47.0867 250.308 47.8454 249.665 48.5553C249.326 48.7103 242.728 51.6791 236.15 50.4272C233.542 49.9605 231.334 48.2252 230.252 45.7931C229.608 44.4326 229.221 42.9637 229.11 41.4611C229.252 41.7791 229.434 42.0771 229.624 42.3712Z" fill="#E06855"/>
<path d="M229.086 41.473C229.252 41.779 229.434 42.0771 229.624 42.3712C232.407 46.6445 237.974 48.0724 242.451 45.6619L242.526 45.6222L244.253 44.6723C247.224 43.0475 249.878 40.8929 252.083 38.3134C252.233 38.1386 252.383 37.9597 252.53 37.7769C252.771 37.4952 253.155 37.3831 253.509 37.4908C255.678 38.0591 258.305 33.5641 258.732 31.4141C258.969 30.2218 258.677 29.4746 258.337 29.0295C258.076 28.9058 257.846 28.7237 257.665 28.4969V28.4651L257.788 28.179C258.183 26.8039 257.748 21.4982 228.229 20.2939L227.941 25.1585C227.941 25.1585 238.939 21.7008 248.065 26.0726C257.191 30.4443 243.72 35.7937 243.091 40.3801C242.463 44.9664 232.646 46.1508 229.086 41.473Z" fill="#ED8B7B"/>
<path d="M246.785 13.8356C251.184 15.0891 255.384 16.9623 259.261 19.3996C259.585 15.7711 259.87 10.7992 259.261 8.7723C257.804 3.86006 249.646 1.31651 243.107 0.569336C243.107 0.569336 249.61 2.8029 250.728 8.89153C251.305 12.0074 249.053 12.8778 246.785 13.8356Z" fill="#28999A"/>
<path d="M242.775 18.891C248.253 19.6683 253.657 20.906 258.93 22.5911C259.013 21.832 259.131 20.7073 259.246 19.4117C255.369 16.9744 251.168 15.1012 246.769 13.8477C244.608 14.7538 242.432 15.7434 242.775 18.891Z" fill="#F2CD0D"/>
<path d="M264.358 63.6695L265.266 63.3953C265.681 63.2703 266.128 63.3351 266.491 63.5725C266.853 63.8099 267.093 64.1957 267.147 64.6273C268.451 74.845 270.361 84.9751 272.868 94.9632C273.077 94.8683 273.292 94.7873 273.511 94.7208C277.557 83.4139 284.897 71.2008 288.548 65.454C285.111 59.8423 281.282 55.5182 277.265 53.3602C273.156 51.1505 268.34 49.4654 263.125 48.2373C263.125 48.2492 266.262 54.787 264.358 63.6695Z" fill="#4B405C"/>
<path d="M278.805 116.361C281.903 126.427 284.961 135.064 287.204 141.085C291.243 141.942 295.452 140.944 298.685 138.362C299.358 137.83 299.949 137.201 300.439 136.494C292.384 142.078 281.843 114.926 281.843 114.926C280.923 115.581 279.895 116.067 278.805 116.361Z" fill="#171E2A"/>
<path d="M288.093 107.307C292.562 110.089 302.245 116.845 303.829 124.118C303.969 121.635 303.969 119.145 303.829 116.662C298.721 113.582 291.661 109.409 288.093 107.307V107.307Z" fill="#171E2A"/>
<path d="M186.273 85.4324C188.304 86.8155 189.829 87.8726 190.717 88.4847C191.232 88.8415 191.905 88.8663 192.444 88.5483C194.719 87.2248 197.185 85.9053 199.796 84.5978C190.492 78.3224 191.01 67.5917 191.026 67.3096C189.031 73.234 187.443 79.2892 186.273 85.4324Z" fill="#4B405C"/>
<path d="M267.518 103.535L267.913 105.523C268.269 107.358 269.764 108.752 271.611 108.968L274.997 109.366C275.586 109.433 276.182 109.485 276.771 109.513C277.45 111.854 278.134 114.143 278.813 116.356C279.918 116.059 280.961 115.564 281.891 114.894C281.478 113.059 281.175 111.201 280.982 109.33C280.761 106.687 276.933 105.431 272.39 104.581C267.985 103.754 268.522 99.267 268.557 99.0166C267.599 100.311 267.222 101.949 267.518 103.535Z" fill="#E06855"/>
<path d="M152.4 106.922C153.079 108.304 154.093 109.493 155.347 110.38L158.693 112.764L161.633 112.482C161.132 111.091 160.616 109.744 160.084 108.44L161.664 107.753C163.256 107.061 164.074 105.273 163.561 103.607L163.197 102.415C162.692 100.771 161.785 99.2815 160.558 98.083C160.641 98.3016 162.668 103.544 160.558 105.006C158.448 106.469 152.112 103.051 152.4 106.922Z" fill="#E06855"/>
<path d="M192.223 90.6947L211.281 161.179L215.164 175.538L218.135 174.807C223.461 172.78 235.518 168.233 248.95 163.48C255.137 161.286 261.592 159.045 267.838 156.99C275.25 154.546 282.31 152.36 288.129 150.822C288.774 150.643 289.313 150.197 289.614 149.596C289.915 148.995 289.95 148.294 289.709 147.666C289.097 146.116 288.232 143.883 287.193 141.089C285.589 136.785 283.566 131.153 281.413 124.592C280.555 121.984 279.674 119.234 278.793 116.365C278.114 114.151 277.431 111.862 276.751 109.521C276.158 109.493 275.566 109.441 274.977 109.374L271.591 108.976C269.745 108.76 268.249 107.367 267.894 105.531L267.499 103.544C267.139 101.678 267.716 99.7531 269.039 98.3969L271.358 96.0242C271.792 95.5801 272.304 95.2203 272.868 94.9631C270.361 84.9749 268.451 74.8449 267.147 64.6272C267.094 64.1918 266.852 63.8026 266.485 63.5646C266.119 63.3267 265.667 63.2646 265.251 63.3952L263.647 63.884C252.806 67.2105 217.309 78.4538 192.223 90.6947Z" fill="#28999A"/>
<path d="M271.706 113.511C276.277 116.317 278.817 116.36 278.817 116.36C278.138 114.147 277.454 111.857 276.775 109.517C276.182 109.489 275.59 109.437 275.001 109.37L271.615 108.972C269.768 108.756 268.273 107.362 267.917 105.526C267.917 105.526 267.131 110.705 271.706 113.511Z" fill="#23827F"/>
<path d="M150.286 69.4237C151.257 71.9327 152.091 74.4934 152.783 77.0941C162.368 79.7489 171.509 82.984 178.51 85.6666C181.295 86.7318 183.741 87.7134 185.74 88.5361C188.205 89.5495 189.991 90.3206 190.895 90.718C191.326 90.9058 191.816 90.8957 192.239 90.6902C217.309 78.4533 252.806 67.21 263.67 63.8835V62.2938C263.671 61.8064 263.441 61.3479 263.051 61.0585C262.661 60.7692 262.158 60.6833 261.695 60.8272C252.557 63.6808 213.872 76.1124 192.452 88.5599C191.913 88.878 191.24 88.8532 190.725 88.4963L150.286 69.4237Z" fill="#23827F"/>
<path d="M67.6386 136.491H162.328L149.413 128.185H63.8855C63.8855 128.185 116.244 130.172 105.166 131.602C94.0883 133.033 50.6626 130.768 67.6386 136.491Z" fill="#EBB44E"/>
<path d="M163.719 118.773C165.218 123.793 166.416 128.9 167.306 134.066C167.898 137.436 168.386 140.969 168.768 144.665C168.896 145.915 169.534 147.055 170.53 147.813C171.715 148.707 173.485 150.05 175.729 151.696C178.609 153.798 182.247 156.393 186.332 159.156C194.471 164.664 204.387 170.836 213.592 175.14C214.089 175.372 214.625 175.507 215.172 175.538L211.289 161.178C209.242 168.253 205.999 170.319 198.646 162.645C184.716 148.123 181.027 106.85 163.719 118.773Z" fill="#28999A"/>
<path d="M211.281 161.178L215.164 175.537C215.771 175.573 216.378 175.48 216.946 175.263L218.131 174.806C223.457 172.779 235.514 168.233 248.946 163.479C255.133 161.286 261.588 159.044 267.834 156.989C275.246 154.545 282.306 152.359 288.125 150.821C288.77 150.642 289.309 150.197 289.61 149.596C289.911 148.995 289.946 148.294 289.705 147.666C289.093 146.116 288.228 143.882 287.189 141.088C285.585 136.784 283.562 131.152 281.409 124.591C281.409 124.591 283.906 144.645 269.735 142.956C255.564 141.267 220.13 110.808 215.931 133.815C213.971 144.653 213.102 154.891 211.281 161.178Z" fill="#23827F"/>
<path d="M215.168 286.568C216.856 286.543 218.507 286.072 219.956 285.201C220.14 285.095 220.253 284.898 220.253 284.685C220.253 284.471 220.14 284.275 219.957 284.168C219.773 284.061 219.547 284.061 219.364 284.168C216.255 285.96 213.932 285.257 213.833 285.225C213.526 285.137 213.206 285.308 213.107 285.613C213.008 285.918 213.166 286.247 213.465 286.358C214.019 286.513 214.593 286.584 215.168 286.568Z" fill="#45B7B8"/>
<path d="M215.721 290.213C217.408 290.185 219.059 289.711 220.505 288.838C220.7 288.738 220.824 288.538 220.828 288.318C220.832 288.099 220.716 287.895 220.525 287.787C220.335 287.68 220.101 287.686 219.917 287.804C216.808 289.597 214.485 288.893 214.386 288.862C214.08 288.774 213.759 288.945 213.66 289.25C213.561 289.555 213.719 289.883 214.019 289.994C214.572 290.152 215.146 290.226 215.721 290.213Z" fill="#45B7B8"/>
<path d="M216.436 293.571C218.123 293.545 219.773 293.072 221.221 292.2C221.505 292.036 221.604 291.672 221.442 291.385C221.279 291.099 220.917 290.999 220.632 291.163C217.523 292.959 215.2 292.252 215.101 292.224C214.797 292.145 214.485 292.317 214.388 292.618C214.292 292.918 214.445 293.242 214.738 293.356C215.29 293.51 215.863 293.583 216.436 293.571Z" fill="#45B7B8"/>
<path d="M205.453 285.924C203.855 286.47 202.143 286.582 200.487 286.25C200.27 286.224 200.084 286.078 200.005 285.872C199.926 285.666 199.967 285.433 200.111 285.267C200.255 285.1 200.479 285.027 200.693 285.078C204.225 285.714 206.172 284.263 206.255 284.203C206.515 284.027 206.866 284.083 207.057 284.332C207.248 284.582 207.214 284.938 206.978 285.145C206.511 285.479 205.997 285.741 205.453 285.924Z" fill="#45B7B8"/>
<path d="M206.153 289.545C204.554 290.089 202.842 290.201 201.187 289.871C200.859 289.813 200.641 289.498 200.699 289.169C200.757 288.84 201.069 288.62 201.396 288.678C204.924 289.314 206.872 287.883 206.955 287.8C207.214 287.623 207.565 287.68 207.756 287.929C207.948 288.178 207.913 288.534 207.678 288.742C207.212 289.085 206.698 289.355 206.153 289.545Z" fill="#45B7B8"/>
<path d="M206.607 292.951C205.009 293.497 203.296 293.61 201.641 293.277C201.429 293.24 201.253 293.093 201.179 292.89C201.105 292.687 201.144 292.46 201.282 292.294C201.42 292.128 201.635 292.048 201.847 292.085C205.378 292.721 207.326 291.29 207.409 291.207C207.669 291.006 208.041 291.055 208.241 291.316C208.44 291.577 208.392 291.952 208.132 292.153C207.666 292.493 207.152 292.762 206.607 292.951Z" fill="#45B7B8"/>
</svg>
